<svg xmlns="http://www.w3.org/2000/svg" xmlns:xlink="http://www.w3.org/1999/xlink" width="152.443" height="152.443" viewBox="0 0 152.443 152.443">
  <defs>
    <clipPath id="clip-path">
      <circle id="Elipse_131" data-name="Elipse 131" cx="65.13" cy="65.13" r="65.13" transform="translate(2216.438 3998.502)" fill="none"/>
    </clipPath>
  </defs>
  <g id="Grupo_6734" data-name="Grupo 6734" transform="translate(-2205.346 -3986.79)">
    <path id="Trazado_1993" data-name="Trazado 1993" d="M2281.568,3986.79q3.744,0,7.471.367t7.4,1.1q3.672.731,7.256,1.818t7.042,2.52q3.46,1.433,6.762,3.2t6.416,3.845q3.114,2.08,6.008,4.456t5.542,5.023q2.649,2.649,5.024,5.543t4.456,6.008q2.079,3.112,3.845,6.416t3.2,6.762q1.434,3.459,2.52,7.042t1.818,7.256q.731,3.673,1.1,7.4t.367,7.471q0,3.746-.367,7.471t-1.1,7.4q-.731,3.673-1.818,7.256t-2.52,7.043q-1.433,3.459-3.2,6.762t-3.845,6.416q-2.081,3.113-4.456,6.008t-5.024,5.542q-2.648,2.647-5.542,5.023t-6.008,4.456q-3.114,2.08-6.416,3.846t-6.762,3.2q-3.459,1.433-7.042,2.52t-7.256,1.817q-3.673.73-7.4,1.1t-7.471.367q-3.746,0-7.471-.367t-7.4-1.1q-3.673-.731-7.256-1.817t-7.043-2.52q-3.459-1.434-6.762-3.2t-6.416-3.846q-3.112-2.081-6.008-4.456t-5.542-5.023q-2.647-2.648-5.023-5.542t-4.456-6.008q-2.08-3.114-3.846-6.416t-3.2-6.762q-1.432-3.459-2.52-7.043t-1.817-7.256q-.731-3.672-1.1-7.4t-.367-7.471q0-3.744.367-7.471t1.1-7.4q.731-3.672,1.817-7.256t2.52-7.042q1.433-3.461,3.2-6.762t3.846-6.416q2.081-3.114,4.456-6.008t5.023-5.543q2.648-2.647,5.542-5.023t6.008-4.456q3.114-2.08,6.416-3.845t6.762-3.2q3.459-1.434,7.043-2.52t7.256-1.818q3.672-.73,7.4-1.1T2281.568,3986.79Z" fill="#e6b54a"/>
    <circle id="Elipse_88" data-name="Elipse 88" cx="71.597" cy="71.597" r="71.597" transform="translate(2209.971 3992.035)" fill="#fff"/>
    <g id="Grupo_2222" data-name="Grupo 2222">
      <g id="Grupo_2221" data-name="Grupo 2221" clip-path="url(#clip-path)">
        <g id="Grupo_2220" data-name="Grupo 2220">
          <rect id="Rectángulo_2496" data-name="Rectángulo 2496" width="287.25" height="287.25" transform="translate(2140.618 3893.632)" fill="#fefefe"/>
          <rect id="Rectángulo_2497" data-name="Rectángulo 2497" width="220.537" height="37.032" transform="translate(2173.974 4143.85)" fill="#ffed00"/>
          <g id="Grupo_2143" data-name="Grupo 2143">
            <path id="Trazado_2095" data-name="Trazado 2095" d="M2207.5,4173.937l-2.925-23.945h3.265l1.755,17.061,2.231-17.061h2.939l2.245,17.061,1.55-17.061h3.279l-2.748,23.945h-3.632l-2.123-15.918-2.2,15.918Z"/>
            <path id="Trazado_2096" data-name="Trazado 2096" d="M2223.354,4173.937l3.415-23.945h4.816l3.633,23.945h-3.4l-.571-4.272h-3.864l-.517,4.272Zm7.51-7.2-1.6-12.026h-.055l-1.469,12.026Z"/>
            <path id="Trazado_2097" data-name="Trazado 2097" d="M2242.537,4162.686l-1.17-.055v11.306h-3.646v-23.945h6.026a4.375,4.375,0,0,1,2.8.756,3.6,3.6,0,0,1,1.218,2.108,17.351,17.351,0,0,1,.292,3.538,9.269,9.269,0,0,1-.462,3.326,2.58,2.58,0,0,1-1.714,1.537,2.221,2.221,0,0,1,1.727,1.674,23.382,23.382,0,0,1,.49,6.061,39.553,39.553,0,0,0,.136,4.945h-3.646q-.135-.272-.136-8.585a3.958,3.958,0,0,0-.381-2.115A1.871,1.871,0,0,0,2242.537,4162.686Zm-1.157-2.885h1.456a1.454,1.454,0,0,0,1.027-.313,1.874,1.874,0,0,0,.463-1.074,15.214,15.214,0,0,0,.129-2.327v-.149a6.3,6.3,0,0,0-.326-2.544q-.327-.6-1.511-.6h-1.238Z"/>
            <path id="Trazado_2098" data-name="Trazado 2098" d="M2251.462,4173.937v-23.945h2.857l5.074,14.367-.258-6.53v-7.837h3.278v23.945h-2.585l-5.21-14.87.2,6.285v8.585Z"/>
            <path id="Trazado_2099" data-name="Trazado 2099" d="M2266.141,4173.937v-23.945h3.646v23.945Z"/>
            <path id="Trazado_2100" data-name="Trazado 2100" d="M2273.515,4173.937v-23.945h2.856l5.075,14.367-.258-6.53v-7.837h3.279v23.945h-2.586l-5.21-14.87.2,6.285v8.585Z"/>
            <path id="Trazado_2101" data-name="Trazado 2101" d="M2292.561,4174.181a4.1,4.1,0,0,1-3.531-1.775,9.459,9.459,0,0,1-1.271-5.475v-10.408a8.38,8.38,0,0,1,1.3-5.061,4.816,4.816,0,0,1,4.13-1.741q3.523,0,4.476,2.625a13.074,13.074,0,0,1,.571,4.313v1.7h-3.4v-2.5a5.477,5.477,0,0,0-.346-2.313,1.337,1.337,0,0,0-1.307-.666,1.387,1.387,0,0,0-1.353.8,7,7,0,0,0-.4,2.823v10.38a10.364,10.364,0,0,0,.354,3.279,1.351,1.351,0,0,0,1.381.925,1.486,1.486,0,0,0,1.455-.993,9.25,9.25,0,0,0,.428-3.347v-3.224h-1.836v-2.653h5.02v13.074H2296.6l-.559-2.354a3.147,3.147,0,0,1-1.251,1.9A3.727,3.727,0,0,1,2292.561,4174.181Z"/>
            <path id="Trazado_2102" data-name="Trazado 2102" d="M2306.179,4167.2v-2.137h3.456v2.409a8.049,8.049,0,0,0,.34,2.809,1.263,1.263,0,0,0,1.278.809,1.231,1.231,0,0,0,1.246-.666,5.639,5.639,0,0,0,.306-2.177,5.964,5.964,0,0,0-.545-2.632,9.326,9.326,0,0,0-1.727-2.347l-1.769-1.823a10.9,10.9,0,0,1-1.925-2.68,7.148,7.148,0,0,1-.687-3.211,7.047,7.047,0,0,1,1.142-4.408q1.144-1.441,3.932-1.442t3.776,1.68a9.844,9.844,0,0,1,.986,4.9v1.482h-3.36v-1.714a7.385,7.385,0,0,0-.3-2.5,1.127,1.127,0,0,0-1.149-.755,1.355,1.355,0,0,0-1.225.571,3.167,3.167,0,0,0-.374,1.714,3.731,3.731,0,0,0,.381,1.823,9.871,9.871,0,0,0,1.374,1.742l1.973,2.136a12.6,12.6,0,0,1,2.238,3.251,8.518,8.518,0,0,1,.755,3.592,8.718,8.718,0,0,1-1.129,4.966q-1.13,1.6-3.953,1.6t-3.931-1.789A9.989,9.989,0,0,1,2306.179,4167.2Z"/>
            <path id="Trazado_2103" data-name="Trazado 2103" d="M2319.1,4173.937v-23.945h3.646v23.945Z"/>
            <path id="Trazado_2104" data-name="Trazado 2104" d="M2330.981,4174.181a4.1,4.1,0,0,1-3.531-1.775,9.46,9.46,0,0,1-1.272-5.475v-10.408a8.373,8.373,0,0,1,1.3-5.061,4.811,4.811,0,0,1,4.129-1.741q3.524,0,4.476,2.625a13.073,13.073,0,0,1,.571,4.313v1.7h-3.4v-2.5a5.443,5.443,0,0,0-.347-2.313,1.334,1.334,0,0,0-1.306-.666,1.39,1.39,0,0,0-1.354.8,7.032,7.032,0,0,0-.394,2.823v10.38a10.356,10.356,0,0,0,.354,3.279,1.35,1.35,0,0,0,1.38.925,1.486,1.486,0,0,0,1.457-.993,9.25,9.25,0,0,0,.428-3.347v-3.224h-1.836v-2.653h5.019v13.074h-1.632l-.558-2.354a3.152,3.152,0,0,1-1.252,1.9A3.724,3.724,0,0,1,2330.981,4174.181Z"/>
            <path id="Trazado_2105" data-name="Trazado 2105" d="M2340.082,4173.937v-23.945h2.857l5.075,14.367-.259-6.53v-7.837h3.279v23.945h-2.586l-5.21-14.87.2,6.285v8.585Z"/>
            <path id="Trazado_2106" data-name="Trazado 2106" d="M2354.149,4167.2v-2.137h3.455v2.409a8.073,8.073,0,0,0,.34,2.809,1.264,1.264,0,0,0,1.279.809,1.229,1.229,0,0,0,1.245-.666,5.611,5.611,0,0,0,.307-2.177,5.964,5.964,0,0,0-.545-2.632,9.308,9.308,0,0,0-1.728-2.347l-1.768-1.823a10.9,10.9,0,0,1-1.925-2.68,7.135,7.135,0,0,1-.687-3.211,7.047,7.047,0,0,1,1.142-4.408q1.145-1.441,3.932-1.442t3.775,1.68a9.832,9.832,0,0,1,.987,4.9v1.482h-3.36v-1.714a7.393,7.393,0,0,0-.3-2.5,1.129,1.129,0,0,0-1.149-.755,1.355,1.355,0,0,0-1.225.571,3.167,3.167,0,0,0-.374,1.714,3.731,3.731,0,0,0,.381,1.823,9.871,9.871,0,0,0,1.374,1.742l1.972,2.136a12.587,12.587,0,0,1,2.239,3.251,8.521,8.521,0,0,1,.755,3.592,8.718,8.718,0,0,1-1.129,4.966q-1.13,1.6-3.953,1.6t-3.931-1.789A9.989,9.989,0,0,1,2354.149,4167.2Z"/>
          </g>
          <rect id="Rectángulo_2498" data-name="Rectángulo 2498" width="33.356" height="287.25" transform="translate(2394.511 3893.632)" fill="#ffed00"/>
          <path id="Trazado_2107" data-name="Trazado 2107" d="M2427.867,4143.558v11.425l-16.678,8.781-16.678-8.781v-11.425l16.678,8.781Z" fill-rule="evenodd"/>
          <g id="Grupo_2144" data-name="Grupo 2144">
            <path id="Trazado_2108" data-name="Trazado 2108" d="M2427.867,4120.465v11.426l-16.678,8.781-16.678-8.781v-11.426l16.678,8.781Z" fill-rule="evenodd"/>
            <path id="Trazado_2109" data-name="Trazado 2109" d="M2427.867,4097.373V4108.8l-16.678,8.781-16.678-8.781v-11.425l16.678,8.781Z" fill-rule="evenodd"/>
            <path id="Trazado_2110" data-name="Trazado 2110" d="M2427.867,4074.281v11.425l-16.678,8.781-16.678-8.781v-11.425q8.339,4.391,16.678,8.78Z" fill-rule="evenodd"/>
            <path id="Trazado_2111" data-name="Trazado 2111" d="M2427.867,4051.189v11.425l-16.678,8.78q-8.34-4.389-16.678-8.78v-11.425l16.678,8.78Z" fill-rule="evenodd"/>
            <path id="Trazado_2112" data-name="Trazado 2112" d="M2427.867,4028.1v11.426l-16.678,8.78-16.678-8.78V4028.1l16.678,8.781Z" fill-rule="evenodd"/>
            <path id="Trazado_2113" data-name="Trazado 2113" d="M2427.867,4005v11.425l-16.678,8.781-16.678-8.781V4005l16.678,8.781Z" fill-rule="evenodd"/>
            <path id="Trazado_2114" data-name="Trazado 2114" d="M2427.867,3981.912v11.425l-16.678,8.781-16.678-8.781v-11.425l16.678,8.78Z" fill-rule="evenodd"/>
            <path id="Trazado_2115" data-name="Trazado 2115" d="M2427.867,3958.819v11.426l-16.678,8.781-16.678-8.781v-11.426l16.678,8.781Z" fill-rule="evenodd"/>
            <path id="Trazado_2116" data-name="Trazado 2116" d="M2427.867,3935.727v11.426l-16.678,8.78q-8.34-4.389-16.678-8.78v-11.426l16.678,8.781Z" fill-rule="evenodd"/>
          </g>
          <path id="Trazado_2117" data-name="Trazado 2117" d="M2427.867,3912.635v11.426l-16.678,8.781-16.678-8.781v-11.426l16.678,8.781Z" fill-rule="evenodd"/>
          <g id="Grupo_2218" data-name="Grupo 2218">
            <g id="Grupo_2162" data-name="Grupo 2162">
              <g id="Grupo_2147" data-name="Grupo 2147">
                <g id="Grupo_2145" data-name="Grupo 2145">
                  <path id="Trazado_2118" data-name="Trazado 2118" d="M2285.635,4003.438l16.977,29.407a1.686,1.686,0,0,1-1.46,2.529H2267.2a1.686,1.686,0,0,1-1.46-2.529l16.978-29.407a1.687,1.687,0,0,1,2.921,0Z" fill-rule="evenodd"/>
                  <path id="Trazado_2119" data-name="Trazado 2119" d="M2284.174,4007.355l-14.315,24.8h28.631Z" fill="#ffed00" fill-rule="evenodd"/>
                </g>
                <g id="Grupo_2146" data-name="Grupo 2146">
                  <path id="Trazado_2120" data-name="Trazado 2120" d="M2284.174,4022.384a1.44,1.44,0,1,1-1.44,1.44A1.44,1.44,0,0,1,2284.174,4022.384Z" fill-rule="evenodd"/>
                  <path id="Trazado_2121" data-name="Trazado 2121" d="M2285.289,4025.756a2.236,2.236,0,0,1-2.23,0l-2.116,3.666a6.469,6.469,0,0,0,6.463,0Z" fill-rule="evenodd"/>
                  <path id="Trazado_2122" data-name="Trazado 2122" d="M2281.944,4023.824c0-.065,0-.13.008-.194a2.234,2.234,0,0,1,.943-1.633l-2.428-3.466a6.452,6.452,0,0,0-2.755,5.293q0,.285.024.564l4.216-.369C2281.947,4023.955,2281.944,4023.89,2281.944,4023.824Z" fill-rule="evenodd"/>
                  <path id="Trazado_2123" data-name="Trazado 2123" d="M2285.453,4022a2.229,2.229,0,0,1,.951,1.827c0,.066,0,.131-.008.2l4.216.369q.024-.279.024-.564a6.451,6.451,0,0,0-2.755-5.293Z" fill-rule="evenodd"/>
                </g>
              </g>
              <g id="Grupo_2152" data-name="Grupo 2152">
                <g id="Grupo_2148" data-name="Grupo 2148">
                  <path id="Trazado_2124" data-name="Trazado 2124" d="M2327.9,4003.438l16.978,29.407a1.686,1.686,0,0,1-1.46,2.529h-33.957a1.686,1.686,0,0,1-1.46-2.529l16.979-29.407a1.686,1.686,0,0,1,2.92,0Z" fill-rule="evenodd"/>
                  <path id="Trazado_2125" data-name="Trazado 2125" d="M2326.437,4007.355l-14.316,24.8h28.631Z" fill="#ffed00" fill-rule="evenodd"/>
                </g>
                <g id="Grupo_2151" data-name="Grupo 2151">
                  <path id="Trazado_2126" data-name="Trazado 2126" d="M2326.436,4022.992l-.662,1.47h1.324l-.662-1.47Zm2.359,1.546h0l-.479,1.55h-3.759l-.479-1.55a4.3,4.3,0,0,1-1.663-3.417,4.028,4.028,0,1,1,8.043,0,4.3,4.3,0,0,1-1.663,3.417Zm-.487-3.6h0a1.209,1.209,0,1,1-1.21,1.209,1.208,1.208,0,0,1,1.21-1.209Zm-3.742,0h0a1.209,1.209,0,1,1-1.21,1.209A1.208,1.208,0,0,1,2324.566,4020.941Z" fill-rule="evenodd"/>
                  <path id="Trazado_2127" data-name="Trazado 2127" d="M2324.46,4026.489h3.952l.524-.973h.359l-.195,1.73-1.425,1.83H2325.2l-1.426-1.83-.194-1.73h.359Z" fill-rule="evenodd"/>
                  <g id="Grupo_2149" data-name="Grupo 2149">
                    <path id="Trazado_2128" data-name="Trazado 2128" d="M2323.238,4025.871l.01-1.171-1.508-.995c-.1-.066-.308-.317-.247-.42a.9.9,0,0,0-1.529-.955.891.891,0,0,0-.126.7.9.9,0,1,0,.878,1.432c.072-.095.382,0,.481.065Z" fill-rule="evenodd"/>
                    <path id="Trazado_2129" data-name="Trazado 2129" d="M2329.635,4025.871l-.01-1.171,1.508-.995c.1-.066.309-.317.247-.42a1.663,1.663,0,1,1,.777,1.175c-.072-.095-.382,0-.482.065Z" fill-rule="evenodd"/>
                  </g>
                  <g id="Grupo_2150" data-name="Grupo 2150">
                    <path id="Trazado_2130" data-name="Trazado 2130" d="M2323.238,4026.5l.01,1.172-1.508.994c-.1.067-.308.317-.247.421a.9.9,0,0,1-1.529.954.9.9,0,0,0-.719-1.089.9.9,0,0,1,1.471-1.041c.072.095.382,0,.481-.065Z" fill-rule="evenodd"/>
                    <path id="Trazado_2131" data-name="Trazado 2131" d="M2329.635,4026.5l-.01,1.172,1.508.994c.1.067.309.317.247.421a1.663,1.663,0,1,0,.777-1.176c-.072.095-.382,0-.482-.065Z" fill-rule="evenodd"/>
                  </g>
                </g>
              </g>
              <g id="Grupo_2155" data-name="Grupo 2155">
                <g id="Grupo_2153" data-name="Grupo 2153">
                  <path id="Trazado_2132" data-name="Trazado 2132" d="M2243.372,4003.438l16.978,29.407a1.686,1.686,0,0,1-1.46,2.529h-33.957a1.686,1.686,0,0,1-1.46-2.529l16.979-29.407a1.686,1.686,0,0,1,2.92,0Z" fill-rule="evenodd"/>
                  <path id="Trazado_2133" data-name="Trazado 2133" d="M2241.912,4007.355l-14.316,24.8h28.631Z" fill="#ffed00" fill-rule="evenodd"/>
                </g>
                <g id="Grupo_2154" data-name="Grupo 2154">
                  <rect id="Rectángulo_2499" data-name="Rectángulo 2499" width="7.572" height="0.57" transform="translate(2238.366 4029.969)"/>
                  <path id="Trazado_2134" data-name="Trazado 2134" d="M2243.983,4029.5c3.018-2.06,3.794-3.308,3.949-7.164.041-1.018-.363.858-1.18,1.465.515-1.879.613-2.493-.631-4.152a2.417,2.417,0,0,1-.713,2.239c-.212-2.127-.124-3.063-1.526-4.762a3.407,3.407,0,0,1-.275,2.177c-.306-1.478-1.052-2.431-1.49-3.781a3.538,3.538,0,0,1,.137-2.793,15.032,15.032,0,0,0-.8,1.321,4.015,4.015,0,0,0-.367,1.143c-.2,1.188.28,2.134-.2,3.378a3.292,3.292,0,0,0-2.524-1.038c1.028,1.789,1.193,1.942.977,3.846a3.07,3.07,0,0,0-2.279-.956c.752,1.208,1.248,1.717,1.1,3.236-1.029-.443-2.087-.833-3.135-1.231a5.23,5.23,0,0,1,2.151,3.09,6.847,6.847,0,0,0,2.8,3.942Z" fill-rule="evenodd"/>
                  <path id="Trazado_2135" data-name="Trazado 2135" d="M2242.4,4029.484c.5-.606,1.241-1.128,1.511-1.831a4.938,4.938,0,0,0,.056-2.409c-.142.285-.285.57-.427.856-.03-1.086.033-1.323-.692-2.077-.014.238-.027.475-.041.713a7.8,7.8,0,0,1-.722-2.535,6.907,6.907,0,0,0-.5,2.7c-.409-.533-.5-.85-1.221-.814a2.072,2.072,0,0,1,.325,2.016c-.231-.29-.579-.816-1-.764a7.4,7.4,0,0,0,1.873,4.14Z" fill="#ffe300" fill-rule="evenodd"/>
                </g>
              </g>
              <g id="Grupo_2158" data-name="Grupo 2158">
                <g id="Grupo_2156" data-name="Grupo 2156">
                  <path id="Trazado_2136" data-name="Trazado 2136" d="M2370.159,4003.438l16.978,29.407a1.686,1.686,0,0,1-1.46,2.529h-33.956a1.686,1.686,0,0,1-1.461-2.529l16.979-29.407a1.686,1.686,0,0,1,2.92,0Z" fill-rule="evenodd"/>
                  <path id="Trazado_2137" data-name="Trazado 2137" d="M2368.7,4007.355l-14.316,24.8h28.631Z" fill="#ffed00" fill-rule="evenodd"/>
                </g>
                <g id="Grupo_2157" data-name="Grupo 2157">
                  <path id="Trazado_2138" data-name="Trazado 2138" d="M2368.686,4019.607a4.331,4.331,0,1,1-3.062,1.268,4.319,4.319,0,0,1,3.062-1.268Zm2.137,2.193h0a3.024,3.024,0,1,0,.885,2.137A3.011,3.011,0,0,0,2370.823,4021.8Z" fill-rule="evenodd"/>
                  <path id="Trazado_2139" data-name="Trazado 2139" d="M2368.7,4022.351a3.065,3.065,0,0,1-2.9-3.206,3.226,3.226,0,0,1,1.792-2.964,10.03,10.03,0,0,1-5.731,7.128,4.516,4.516,0,0,0-.057,5.544,3.223,3.223,0,0,1,.44-3.436,3.066,3.066,0,0,1,4.268-.7,2.745,2.745,0,0,1,1,1.8c0,.058.011.115.018.171a3.368,3.368,0,0,1-.742,2.347,3.224,3.224,0,0,1-3.247,1.2,13.268,13.268,0,0,1,10.322,0,3.225,3.225,0,0,1-3.248-1.2,3.37,3.37,0,0,1-.742-2.344c.007-.057.013-.114.018-.172a2.741,2.741,0,0,1,1-1.8,3.065,3.065,0,0,1,4.267.7,3.223,3.223,0,0,1,.44,3.436,9.494,9.494,0,0,1-2.385-8.3,4.516,4.516,0,0,0-3.4-4.376,3.227,3.227,0,0,1,1.793,2.964A3.066,3.066,0,0,1,2368.7,4022.351Z" fill-rule="evenodd"/>
                  <path id="Trazado_2140" data-name="Trazado 2140" d="M2368.7,4022.484a2.892,2.892,0,0,1-2.151-.983,3.5,3.5,0,0,1-.885-2.356,3.567,3.567,0,0,1,.506-1.848,3.341,3.341,0,0,1,.475-.61,4.408,4.408,0,0,0-1.406,1.183,4.4,4.4,0,0,0-.883,3.262,4.1,4.1,0,0,0,.112.562l.034.131-.132.032a4.38,4.38,0,0,0-2.993,6.013,3.228,3.228,0,0,1,.007-.773,3.567,3.567,0,0,1,.753-1.762l.006-.008h0a3.512,3.512,0,0,1,2.153-1.287,2.9,2.9,0,0,1,2.258.54h0l.037.029a2.8,2.8,0,0,1,.7.83,2.966,2.966,0,0,1,.347,1.056v.006l.008.084c0,.018.005.045.01.082v.006a3.363,3.363,0,0,1-.15,1.279,3.633,3.633,0,0,1-2.166,2.292,3.317,3.317,0,0,1-.751.182,4.389,4.389,0,0,0,4.01-1.327l.1-.1.1.1a4.357,4.357,0,0,0,2.338,1.312,4.406,4.406,0,0,0,1.671.015,3.3,3.3,0,0,1-.75-.182,3.579,3.579,0,0,1-1.547-1.132,3.622,3.622,0,0,1-.619-1.158,3.365,3.365,0,0,1-.151-1.278v-.006c0-.021.006-.049.009-.083l.008-.084v-.006a3,3,0,0,1,.348-1.057,2.789,2.789,0,0,1,.7-.831,2.9,2.9,0,0,1,2.3-.569,3.5,3.5,0,0,1,2.158,1.295,3.567,3.567,0,0,1,.753,1.762,3.267,3.267,0,0,1,.008.773,4.41,4.41,0,0,0,.366-1.8,4.375,4.375,0,0,0-3.36-4.211l-.132-.032.035-.131a4.444,4.444,0,0,0,.112-.562,4.511,4.511,0,0,0,.036-.575,4.383,4.383,0,0,0-2.325-3.87,3.279,3.279,0,0,1,.473.61,3.557,3.557,0,0,1,.508,1.848,3.505,3.505,0,0,1-.886,2.356,2.891,2.891,0,0,1-2.15.983Zm-1.955-1.161h0a3.236,3.236,0,0,1-.815-2.178,3.3,3.3,0,0,1,.468-1.711,2.864,2.864,0,0,1,1.247-1.133l1.054-.482,1.056.482a2.869,2.869,0,0,1,1.247,1.133,3.3,3.3,0,0,1,.468,1.711,3.232,3.232,0,0,1-.816,2.178,2.582,2.582,0,0,1-3.909,0Zm.812-5.27h0l1.065-.27-.192-.087.269.068.27-.068-.192.087,1.065.27a4.65,4.65,0,0,1,3.5,4.5,4.528,4.528,0,0,1-.041.608,4.683,4.683,0,0,1-.085.468,4.648,4.648,0,0,1,3.432,4.433,4.653,4.653,0,0,1-.949,2.867l-.666.874.2-.052-.254.115-.17.223.1-.19-1,.452a6.044,6.044,0,0,0-7.6.316,4.647,4.647,0,0,1-2.832-.316l-1-.451.1.189-.17-.223-.254-.115.206.052-.667-.874a4.647,4.647,0,0,1,.06-5.706,4.633,4.633,0,0,1,2.423-1.594,4.749,4.749,0,0,1-.125-1.076,4.648,4.648,0,0,1,3.5-4.5Zm-5.638,12.74h0a2.865,2.865,0,0,1-.272-1.663,3.3,3.3,0,0,1,.7-1.63h0a3.238,3.238,0,0,1,1.994-1.2,2.63,2.63,0,0,1,2.088.515l0,0a2.522,2.522,0,0,1,.635.748,2.751,2.751,0,0,1,.315.957c0,.018,0,.047.008.087s.008.068.01.087a3.122,3.122,0,0,1-.138,1.174,3.38,3.38,0,0,1-.575,1.075,3.3,3.3,0,0,1-1.432,1.048,2.869,2.869,0,0,1-1.68.111l-1.126-.279-.526-1.034Zm11.91,1.313h0a2.872,2.872,0,0,1-1.681-.111,3.3,3.3,0,0,1-1.431-1.048,3.366,3.366,0,0,1-.575-1.073,3.121,3.121,0,0,1-.139-1.178h0c0-.033.008-.06.009-.082.005-.043.008-.071.009-.088h0a2.731,2.731,0,0,1,.315-.958,2.51,2.51,0,0,1,.638-.751,2.628,2.628,0,0,1,2.087-.515,3.238,3.238,0,0,1,1.994,1.2,3.292,3.292,0,0,1,.7,1.63,2.858,2.858,0,0,1-.272,1.663l-.525,1.034Z" fill="#ffe300" fill-rule="evenodd"/>
                  <path id="Trazado_2141" data-name="Trazado 2141" d="M2368.686,4024.833a.9.9,0,1,0-.9-.9A.9.9,0,0,0,2368.686,4024.833Z" fill="#ffe300" fill-rule="evenodd"/>
                </g>
              </g>
              <g id="Grupo_2161" data-name="Grupo 2161">
                <g id="Grupo_2159" data-name="Grupo 2159">
                  <path id="Trazado_2142" data-name="Trazado 2142" d="M2201.109,4003.438l16.979,29.407a1.686,1.686,0,0,1-1.461,2.529h-33.956a1.686,1.686,0,0,1-1.46-2.529l16.978-29.407a1.686,1.686,0,0,1,2.92,0Z" fill-rule="evenodd"/>
                  <path id="Trazado_2143" data-name="Trazado 2143" d="M2199.649,4007.355l-14.316,24.8h28.631Z" fill="#ffed00" fill-rule="evenodd"/>
                </g>
                <g id="Grupo_2160" data-name="Grupo 2160">
                  <path id="Trazado_2144" data-name="Trazado 2144" d="M2199.649,4023.429a.835.835,0,1,0-.836-.835A.837.837,0,0,0,2199.649,4023.429Z" fill-rule="evenodd"/>
                  <path id="Trazado_2145" data-name="Trazado 2145" d="M2198.976,4024.21h1.347l1.112,6.395h-3.57Z" fill-rule="evenodd"/>
                  <path id="Trazado_2146" data-name="Trazado 2146" d="M2194.8,4022.594a4.832,4.832,0,0,1,1.1-3.078l-.651-.534a5.692,5.692,0,0,0,0,7.224l.651-.535A4.829,4.829,0,0,1,2194.8,4022.594Z" fill-rule="evenodd"/>
                  <path id="Trazado_2147" data-name="Trazado 2147" d="M2196.394,4019.922a4.214,4.214,0,0,0,0,5.343l.652-.534a3.368,3.368,0,0,1,0-4.274Z" fill-rule="evenodd"/>
                  <path id="Trazado_2148" data-name="Trazado 2148" d="M2197.583,4020.9a2.675,2.675,0,0,0,0,3.391l.651-.534a1.83,1.83,0,0,1,0-2.322Z" fill-rule="evenodd"/>
                  <path id="Trazado_2149" data-name="Trazado 2149" d="M2201.064,4021.433a1.831,1.831,0,0,1,0,2.322l.651.534a2.672,2.672,0,0,0,0-3.391Z" fill-rule="evenodd"/>
                  <path id="Trazado_2150" data-name="Trazado 2150" d="M2202.252,4020.457a3.367,3.367,0,0,1,0,4.274l.652.534a4.21,4.21,0,0,0,0-5.343Z" fill-rule="evenodd"/>
                  <path id="Trazado_2151" data-name="Trazado 2151" d="M2203.4,4019.516a4.851,4.851,0,0,1,0,6.155l.652.535a5.7,5.7,0,0,0,0-7.224Z" fill-rule="evenodd"/>
                </g>
              </g>
            </g>
            <g id="Grupo_2165" data-name="Grupo 2165">
              <g id="Grupo_2163" data-name="Grupo 2163">
                <path id="Trazado_2152" data-name="Trazado 2152" d="M2287.523,3918.56l16.978,29.407a1.686,1.686,0,0,1-1.46,2.529h-33.956a1.686,1.686,0,0,1-1.46-2.529l16.978-29.407a1.686,1.686,0,0,1,2.92,0Z" fill-rule="evenodd"/>
                <path id="Trazado_2153" data-name="Trazado 2153" d="M2286.063,3922.478l-14.316,24.8h28.631Z" fill="#ffed00" fill-rule="evenodd"/>
              </g>
              <g id="Grupo_2164" data-name="Grupo 2164">
                <rect id="Rectángulo_2500" data-name="Rectángulo 2500" width="3.366" height="12.134" transform="translate(2280.583 3936.095) rotate(-45.002)"/>
                <rect id="Rectángulo_2501" data-name="Rectángulo 2501" width="12.134" height="3.366" transform="translate(2280.583 3942.295) rotate(-45)"/>
              </g>
            </g>
            <g id="Grupo_2179" data-name="Grupo 2179">
              <g id="Grupo_2167" data-name="Grupo 2167">
                <g id="Grupo_2166" data-name="Grupo 2166">
                  <path id="Trazado_2154" data-name="Trazado 2154" d="M2243.372,4085.529l16.978,29.406a1.686,1.686,0,0,1-1.46,2.529h-33.957a1.686,1.686,0,0,1-1.46-2.529l16.979-29.406a1.685,1.685,0,0,1,2.92,0Z" fill-rule="evenodd"/>
                  <path id="Trazado_2155" data-name="Trazado 2155" d="M2241.912,4089.446l-14.316,24.795h28.631Z" fill="#ffed00" fill-rule="evenodd"/>
                </g>
                <path id="Trazado_2156" data-name="Trazado 2156" d="M2241.071,4096.37l2.756-.014-3.193,7.1,4.3-2.266-2.374,8.869,1.119-.627-2.306,3.37-.614-3.984.764,1.037.8-6.1-3.943,2.047Z" fill-rule="evenodd"/>
              </g>
              <g id="Grupo_2170" data-name="Grupo 2170">
                <g id="Grupo_2168" data-name="Grupo 2168">
                  <path id="Trazado_2157" data-name="Trazado 2157" d="M2201.109,4085.529l16.979,29.406a1.686,1.686,0,0,1-1.461,2.529h-33.956a1.686,1.686,0,0,1-1.46-2.529l16.978-29.406a1.685,1.685,0,0,1,2.92,0Z" fill-rule="evenodd"/>
                  <path id="Trazado_2158" data-name="Trazado 2158" d="M2199.649,4089.446l-14.316,24.795h28.631Z" fill="#ffed00" fill-rule="evenodd"/>
                </g>
                <g id="Grupo_2169" data-name="Grupo 2169">
                  <path id="Trazado_2159" data-name="Trazado 2159" d="M2201.043,4111.252a1.43,1.43,0,0,1-.334.926,1.344,1.344,0,0,1-1.107.515,1.3,1.3,0,0,1-1.054-.463,1.505,1.505,0,0,1-.387-.978,1.441,1.441,0,0,1,2.882,0Z" fill-rule="evenodd"/>
                  <path id="Trazado_2160" data-name="Trazado 2160" d="M2201.487,4096.929a3.544,3.544,0,0,1-.029.508c-.02.125-.087.41-.2.855q-.435,1.8-.841,3.565a46.3,46.3,0,0,0-.464,7.48h-.7a48.711,48.711,0,0,0-.436-7.509q-.608-2.406-.869-3.536c-.058-.232-.1-.4-.116-.493a3.873,3.873,0,0,1-.116-.87,1.951,1.951,0,0,1,.7-1.71,2.056,2.056,0,0,1,1.188-.319,1.883,1.883,0,0,1,1.45.478A2.271,2.271,0,0,1,2201.487,4096.929Z" fill-rule="evenodd"/>
                </g>
              </g>
              <g id="Grupo_2172" data-name="Grupo 2172">
                <g id="Grupo_2171" data-name="Grupo 2171">
                  <path id="Trazado_2161" data-name="Trazado 2161" d="M2285.634,4085.529l16.978,29.406a1.686,1.686,0,0,1-1.46,2.529H2267.2a1.686,1.686,0,0,1-1.46-2.529l16.978-29.406a1.685,1.685,0,0,1,2.92,0Z" fill-rule="evenodd"/>
                  <path id="Trazado_2162" data-name="Trazado 2162" d="M2284.174,4089.446l-14.316,24.795h28.632Z" fill="#ffed00" fill-rule="evenodd"/>
                </g>
                <path id="Trazado_2163" data-name="Trazado 2163" d="M2284.614,4111.178l-4.685-5.412-.018-.023-.017-.025-.016-.024-.015-.026-.013-.026-.012-.028-.011-.028-.009-.029-.009-.03-.007-.029-.005-.031,0-.031,0-.031v-3.52l0-.031,0-.031.005-.03.007-.029.009-.029.009-.029.011-.027.012-.027.013-.027.015-.025.016-.025.017-.024.018-.023.02-.022.02-.021.022-.02.022-.02.023-.019.024-.017.025-.017.026-.014.027-.014.027-.012.028-.011.029-.01.029-.008.03-.007.031-.006.031,0,.031,0h3.334l.031,0,.031,0,.03.006.03.007.029.008.029.01.028.011.027.012,6.573,3.34-.04-.018-.041-.017-.042-.014-.043-.012-.044-.01-.044-.008-.046-.006-.046,0h-4.9l-.046,0-.045.006-.045.008-.044.01-.043.012-.042.014-.041.017-.04.018-.039.02-.038.022-.037.023-.036.025-.034.027-.033.028-.032.03-.03.032-.028.033-.027.034-.025.036-.024.037-.022.038-.02.04-.018.04-.016.041-.015.042-.012.043-.01.044-.008.044-.005.045,0,.046v5.176l0,.045.005.046.008.044.01.043.012.043.015.042.016.042.018.041.02.039.022.038.024.036.025.036Z" fill-rule="evenodd"/>
                <path id="Trazado_2164" data-name="Trazado 2164" d="M2285.307,4104.5h4.611a1.057,1.057,0,0,1,1.055,1.055v4.872a1.058,1.058,0,0,1-1.055,1.055h-4.611a1.059,1.059,0,0,1-1.055-1.055v-4.872a1.057,1.057,0,0,1,1.055-1.055Zm4.611.369h-4.611a.69.69,0,0,0-.685.686v4.872a.69.69,0,0,0,.685.685h4.611a.688.688,0,0,0,.685-.685v-4.872a.688.688,0,0,0-.685-.686Z" fill-rule="evenodd"/>
                <path id="Trazado_2165" data-name="Trazado 2165" d="M2286.782,4108.619l-.62-.806-.03-.042-.028-.043-.026-.045-.024-.047-.022-.048-.019-.048-.018-.051-.014-.051-.012-.052-.01-.053-.007-.054,0-.055v-.111l0-.055.007-.054.01-.053.012-.052.014-.051.018-.05.019-.049.022-.048.024-.046.026-.045.028-.043.03-.043.032-.041.034-.039.036-.038.038-.036.039-.033.041-.032.042-.03.044-.028.045-.026.047-.023.047-.022.05-.02.05-.017.052-.015.052-.012.053-.009.053-.007.055,0h.112l.054,0,.054.007.053.009.052.012.052.015.051.017.049.02.94.4-.062-.024-.062-.021-.064-.018-.066-.015-.066-.012-.067-.009-.068,0-.07,0-.069,0-.068,0-.067.009-.067.012-.065.015-.064.018-.063.021-.061.024-.06.027-.059.03-.057.032-.054.035-.053.038-.052.04-.048.042-.047.045-.045.047-.043.048-.04.051-.038.053-.035.055-.032.057-.03.058-.027.06-.024.061-.021.063-.019.064-.015.065-.011.066-.009.068-.005.068,0,.07,0,.069.005.068.009.068.011.066.015.065.019.064.021.063.024.061.027.06.03.059.032.056.035.055Z" fill="#ffed00" fill-rule="evenodd"/>
                <path id="Trazado_2166" data-name="Trazado 2166" d="M2286.66,4108.713l-.619-.806,0-.005-.029-.042,0-.006-.029-.044,0-.006-.025-.046,0-.006-.024-.047,0-.006-.022-.048,0-.007-.019-.049,0-.007-.017-.05,0-.008-.015-.051v-.007l-.013-.053v-.006l-.009-.054v-.008l-.007-.054v-.007l-.005-.055v-.134l.005-.055v-.008l.007-.054v-.007l.009-.054v-.007l.013-.052v-.008l.015-.051,0-.007.017-.051,0-.006.019-.049,0-.008.022-.047,0-.007.024-.046,0-.007.025-.045,0-.006.029-.045,0-.006.029-.042,0-.006.032-.041.005-.005.034-.039,0-.006.036-.037.006,0,.037-.036,0,0,.039-.034.006-.005.041-.032.006,0,.042-.03.006,0,.044-.028.007,0,.045-.026.006,0,.047-.024.006,0,.048-.022.007,0,.05-.019.006,0,.05-.016.008,0,.051-.014.008,0,.052-.012.008,0,.053-.009h.007l.054-.008h.008l.054,0h.008l.056,0h.007l.056,0h.007l.055,0h.008l.054.008h.007l.054.009.007,0,.053.012.007,0,.051.014.008,0,.05.016.006,0,.049.019,0,0,.926.39.011,0h0l0,0-.115.285-.058-.024-.056-.019-.057-.016-.054-.012h0l-.066-.012h0l-.052-.007h0l-.068,0h0l-.058,0-.058,0h0l-.069,0h0l-.052.007h0l-.066.012h0l-.054.012-.057.016-.055.019-.053.022-.058.025h0l-.048.025-.047.027h0l-.054.034-.041.03-.051.04h0l-.04.034-.042.041-.04.043-.035.039-.04.051h0l-.03.042-.034.054h0l-.026.046-.025.048-.025.057-.023.057-.016.048-.018.062-.012.053h0l-.011.067h0l-.007.052h0l-.006.069h0v.116h0l.006.068h0l.007.052h0l.011.066h0l.012.054.018.06.016.049h0l.023.057.025.057h0l.025.049.026.046h0l.034.054.035.047-.248.184Zm-.373-.99h0l.074.095v-.087l0-.069,0-.008.008-.067v-.008l.012-.066,0-.007.015-.066,0-.007.018-.064,0-.007.021-.063,0-.007.023-.061,0-.007.027-.061,0-.006.031-.058,0-.007.032-.056,0-.006.035-.056,0,0,.038-.053,0-.006.04-.051.005-.006.042-.049,0-.005.045-.047,0,0,.047-.045,0-.005.049-.042,0,0,.052-.04.006,0,.053-.038.006,0,.054-.035.007,0,.056-.033.007,0,.058-.03.007,0,.06-.028.007,0,.061-.024.007,0,.063-.021.007,0,.064-.018h0l-.1-.04h0l-.046-.018-.042-.015-.045-.012-.04-.01-.053-.009h0l-.039,0h0l-.055,0h-.088l-.055,0h0l-.038,0h0l-.053.009-.04.01-.044.012-.043.015-.042.016-.045.021h0l-.037.019-.035.02h0l-.043.027-.031.022h0l-.041.032-.029.026-.034.032-.031.033-.026.029h0l-.032.04-.022.032-.028.043h0l-.02.036-.019.036h0l-.02.046-.016.041-.015.043-.013.044-.009.041h0l-.009.052h0l-.006.039h0l0,.055v.088l0,.055h0l.006.038h0l.009.054h0l.009.041.013.044.015.043.016.041.02.046h0l.019.036.02.035h0l.028.042Z" fill-rule="evenodd"/>
                <path id="Trazado_2167" data-name="Trazado 2167" d="M2287.863,4106.463a1.349,1.349,0,1,1-1.349,1.349A1.349,1.349,0,0,1,2287.863,4106.463Z" fill-rule="evenodd"/>
                <path id="Trazado_2168" data-name="Trazado 2168" d="M2287.863,4106.309a1.5,1.5,0,1,1-1.063.44,1.5,1.5,0,0,1,1.063-.44Zm.844.658h0a1.194,1.194,0,1,0,.35.845A1.192,1.192,0,0,0,2288.707,4106.967Z" fill-rule="evenodd"/>
                <path id="Trazado_2169" data-name="Trazado 2169" d="M2282.571,4106.96v1.91a1.67,1.67,0,0,1-1.665,1.665h-9.344l.35-1.233h8.994a.433.433,0,0,0,.432-.432v-1.91Z" fill-rule="evenodd"/>
              </g>
              <g id="Grupo_2174" data-name="Grupo 2174">
                <g id="Grupo_2173" data-name="Grupo 2173">
                  <path id="Trazado_2170" data-name="Trazado 2170" d="M2370.159,4085.529l16.978,29.406a1.686,1.686,0,0,1-1.46,2.529h-33.956a1.686,1.686,0,0,1-1.461-2.529l16.979-29.406a1.685,1.685,0,0,1,2.92,0Z" fill-rule="evenodd"/>
                  <path id="Trazado_2171" data-name="Trazado 2171" d="M2368.7,4089.446l-14.316,24.795h28.631Z" fill="#ffed00" fill-rule="evenodd"/>
                </g>
                <path id="Trazado_2172" data-name="Trazado 2172" d="M2372.566,4111.461h-4.532a.576.576,0,1,1,0-1.152h2.8v-.222h-3.766a.576.576,0,0,1,0-1.153h3.766v-.221H2366.7a.576.576,0,1,1,0-1.153h4.129v-.222h-3.766a.576.576,0,1,1,0-1.152h5.286v-.278h-1.638a.594.594,0,0,1,0-1.152h3.659a2.078,2.078,0,0,1,1.913,1.205l.183.384a.594.594,0,0,0,.556.351l.423-.013a.374.374,0,0,1,.386.374v3.385a.375.375,0,0,1-.368.374l-1.14.018a.64.64,0,0,0-.392.141,2.047,2.047,0,0,1-1.351.486h-2.016Z" fill-rule="evenodd"/>
                <rect id="Rectángulo_2502" data-name="Rectángulo 2502" width="8.245" height="1.054" transform="translate(2361.665 4104.461)"/>
                <rect id="Rectángulo_2503" data-name="Rectángulo 2503" width="8.245" height="1.054" transform="translate(2361.665 4111.977)"/>
                <path id="Trazado_2173" data-name="Trazado 2173" d="M2368.422,4098.378v2.716h1.2l-2.4,2.717-2.4-2.717h1.2v-2.716l1.2,1.358Z" fill-rule="evenodd"/>
              </g>
              <g id="Grupo_2178" data-name="Grupo 2178">
                <g id="Grupo_2175" data-name="Grupo 2175">
                  <path id="Trazado_2174" data-name="Trazado 2174" d="M2327.9,4085.529l16.978,29.406a1.686,1.686,0,0,1-1.46,2.529h-33.957a1.686,1.686,0,0,1-1.46-2.529l16.979-29.406a1.685,1.685,0,0,1,2.92,0Z" fill-rule="evenodd"/>
                  <path id="Trazado_2175" data-name="Trazado 2175" d="M2326.437,4089.446l-14.316,24.795h28.631Z" fill="#ffed00" fill-rule="evenodd"/>
                </g>
                <g id="Grupo_2177" data-name="Grupo 2177">
                  <g id="Grupo_2176" data-name="Grupo 2176">
                    <path id="Trazado_2176" data-name="Trazado 2176" d="M2318.673,4106.56l10.13-7.1,2.6,3.717-2.741,1.921a1,1,0,1,0-1.644,1.152l-5.745,4.026Z" fill-rule="evenodd"/>
                    <rect id="Rectángulo_2504" data-name="Rectángulo 2504" width="0.442" height="2.997" transform="translate(2318.254 4107.3) rotate(-35.051)"/>
                    <rect id="Rectángulo_2505" data-name="Rectángulo 2505" width="0.961" height="1.75" transform="matrix(0.819, -0.574, 0.574, 0.819, 2317.642, 4108.517)"/>
                  </g>
                  <path id="Trazado_2177" data-name="Trazado 2177" d="M2327.845,4106.426a.751.751,0,1,0-.751-.752A.754.754,0,0,0,2327.845,4106.426Z" fill-rule="evenodd"/>
                  <path id="Trazado_2178" data-name="Trazado 2178" d="M2330.647,4110.681a.751.751,0,1,0-.751-.752A.754.754,0,0,0,2330.647,4110.681Z" fill-rule="evenodd"/>
                  <rect id="Rectángulo_2506" data-name="Rectángulo 2506" width="0.829" height="2.925" transform="matrix(0.829, -0.559, 0.559, 0.829, 2328.041, 4106.787)"/>
                  <rect id="Rectángulo_2507" data-name="Rectángulo 2507" width="7.078" height="0.829" transform="translate(2331.726 4109.779)"/>
                </g>
              </g>
            </g>
            <g id="Grupo_2193" data-name="Grupo 2193">
              <g id="Grupo_2181" data-name="Grupo 2181">
                <g id="Grupo_2180" data-name="Grupo 2180">
                  <path id="Trazado_2179" data-name="Trazado 2179" d="M2243.372,4045.393l16.978,29.408a1.686,1.686,0,0,1-1.46,2.528h-33.957a1.686,1.686,0,0,1-1.46-2.528l16.979-29.408a1.686,1.686,0,0,1,2.92,0Z" fill-rule="evenodd"/>
                  <path id="Trazado_2180" data-name="Trazado 2180" d="M2241.912,4049.311l-14.316,24.795h28.631Z" fill="#ffed00" fill-rule="evenodd"/>
                </g>
                <path id="Trazado_2181" data-name="Trazado 2181" d="M2245.816,4069.389h-4.532a.576.576,0,0,1,0-1.153h2.8v-.222h-3.766a.576.576,0,1,1,0-1.152h3.766v-.222h-4.129a.576.576,0,1,1,0-1.152h4.129v-.222h-3.766a.577.577,0,0,1,0-1.153h5.286v-.278h-1.638a.594.594,0,0,1,0-1.152h3.659a2.079,2.079,0,0,1,1.913,1.206l.183.384a.592.592,0,0,0,.556.35l.423-.012a.372.372,0,0,1,.386.373v3.385a.374.374,0,0,1-.368.374l-1.14.019a.626.626,0,0,0-.392.141,2.046,2.046,0,0,1-1.351.486h-2.016Z" fill-rule="evenodd"/>
                <rect id="Rectángulo_2508" data-name="Rectángulo 2508" width="8.245" height="1.054" transform="translate(2234.915 4062.389)"/>
                <rect id="Rectángulo_2509" data-name="Rectángulo 2509" width="8.245" height="1.054" transform="translate(2234.915 4069.905)"/>
                <path id="Trazado_2182" data-name="Trazado 2182" d="M2241.672,4056.306v2.717h1.2l-2.4,2.717-2.4-2.717h1.2v-2.717l1.2,1.358Z" fill-rule="evenodd"/>
              </g>
              <g id="Grupo_2182" data-name="Grupo 2182">
                <path id="Trazado_2183" data-name="Trazado 2183" d="M2201.109,4045.393l16.979,29.408a1.686,1.686,0,0,1-1.461,2.528h-33.956a1.686,1.686,0,0,1-1.46-2.528l16.978-29.408a1.686,1.686,0,0,1,2.92,0Z" fill-rule="evenodd"/>
                <path id="Trazado_2184" data-name="Trazado 2184" d="M2199.649,4049.311l-14.316,24.795h28.631Z" fill="#ffed00" fill-rule="evenodd"/>
                <path id="Trazado_2185" data-name="Trazado 2185" d="M2192.564,4065.743h0a.632.632,0,0,1,.589-.664h4.043a.17.17,0,0,0,.139-.073l4.589-6.215,1.155.027-3.038,5.956a.217.217,0,0,0,0,.2.174.174,0,0,0,.157.1h2.128a.169.169,0,0,0,.143-.079l1-1.448.927-.03-1.014,2.125a.223.223,0,0,0,0,.192l1.014,2.124-.927-.03-1-1.448a.171.171,0,0,0-.143-.079H2200.2a.174.174,0,0,0-.157.1.215.215,0,0,0,0,.2l3.038,5.956-1.155.028-4.589-6.215a.168.168,0,0,0-.139-.074h-4.043A.632.632,0,0,1,2192.564,4065.743Z" fill-rule="evenodd"/>
              </g>
              <g id="Grupo_2185" data-name="Grupo 2185">
                <g id="Grupo_2183" data-name="Grupo 2183">
                  <path id="Trazado_2186" data-name="Trazado 2186" d="M2370.159,4045.393l16.978,29.408a1.686,1.686,0,0,1-1.46,2.528h-33.956a1.686,1.686,0,0,1-1.461-2.528l16.979-29.408a1.686,1.686,0,0,1,2.92,0Z" fill-rule="evenodd"/>
                  <path id="Trazado_2187" data-name="Trazado 2187" d="M2368.7,4049.311l-14.316,24.795h28.631Z" fill="#ffed00" fill-rule="evenodd"/>
                </g>
                <g id="Grupo_2184" data-name="Grupo 2184">
                  <rect id="Rectángulo_2510" data-name="Rectángulo 2510" width="9.169" height="5.871" transform="translate(2366.68 4063.081)"/>
                  <path id="Trazado_2188" data-name="Trazado 2188" d="M2362.981,4064.744h3.251v4.645h10.219v1.2h-2.3a1.175,1.175,0,0,0-2.235,0h-7.765a1.175,1.175,0,0,0-2.235,0h-2.295v-1.2h.763v-2.049l2.595-2.6Zm.285.517-1.764,1.806v.6h4.049v-2.406Z" fill-rule="evenodd"/>
                  <path id="Trazado_2189" data-name="Trazado 2189" d="M2363.036,4071.968a1.015,1.015,0,1,0-1.015-1.014A1.017,1.017,0,0,0,2363.036,4071.968Z" fill-rule="evenodd"/>
                  <path id="Trazado_2190" data-name="Trazado 2190" d="M2373.036,4071.962a1.008,1.008,0,1,0-1.009-1.008A1.01,1.01,0,0,0,2373.036,4071.962Z" fill-rule="evenodd"/>
                </g>
              </g>
              <g id="Grupo_2189" data-name="Grupo 2189">
                <g id="Grupo_2186" data-name="Grupo 2186">
                  <path id="Trazado_2191" data-name="Trazado 2191" d="M2327.9,4045.393l16.978,29.408a1.686,1.686,0,0,1-1.46,2.528h-33.957a1.686,1.686,0,0,1-1.46-2.528l16.978-29.408a1.687,1.687,0,0,1,2.921,0Z" fill-rule="evenodd"/>
                  <path id="Trazado_2192" data-name="Trazado 2192" d="M2326.437,4049.311l-14.316,24.795h28.631Z" fill="#ffed00" fill-rule="evenodd"/>
                </g>
                <g id="Grupo_2188" data-name="Grupo 2188">
                  <path id="Trazado_2193" data-name="Trazado 2193" d="M2321.545,4067.146h1.024l.044-.214.072-.346h3.469v-1.528h6.418v5.653h-.433l-11.355-.02-.572,0,.156-.547.761-2.678.09-.317Zm1.376.866h-1.05l-.515,1.816,10.35.018v-3.922h-4.685v1.528h-3.633l-.045.213-.071.347Z" fill-rule="evenodd"/>
                  <path id="Trazado_2194" data-name="Trazado 2194" d="M2323.864,4068.432a1.845,1.845,0,1,1-1.306.54,1.844,1.844,0,0,1,1.306-.54Zm.693,1.153a.98.98,0,1,0,.287.693A.98.98,0,0,0,2324.557,4069.585Z" fill-rule="evenodd"/>
                  <path id="Trazado_2195" data-name="Trazado 2195" d="M2329.326,4068.432a1.845,1.845,0,1,1-1.306.54,1.843,1.843,0,0,1,1.306-.54Zm.693,1.153a.98.98,0,1,0,.287.693A.981.981,0,0,0,2330.019,4069.585Z" fill-rule="evenodd"/>
                  <path id="Trazado_2196" data-name="Trazado 2196" d="M2325.181,4058.731l4.185.032.432,0v7.133l-.432,0-2.34.016.017,1.113.007.439-.44,0-3.691-.019-.572,0,.157-.547,2.26-7.855.09-.316.327,0Zm3.75.892-3.426-.026-2.011,6.994,2.679.012-.017-1.107-.006-.434.436,0,2.345-.016Z" fill-rule="evenodd"/>
                  <path id="Trazado_2197" data-name="Trazado 2197" d="M2324.871,4057.278l-4.442,14.744-.151.5-.462-.239-2.369-1.222.4-.768,1.906.984,4.292-14.245Z" fill-rule="evenodd"/>
                  <g id="Grupo_2187" data-name="Grupo 2187">
                    <path id="Trazado_2198" data-name="Trazado 2198" d="M2327.5,4061.55a.723.723,0,1,0-.722-.722A.724.724,0,0,0,2327.5,4061.55Z" fill-rule="evenodd"/>
                    <path id="Trazado_2199" data-name="Trazado 2199" d="M2327.678,4061.743h0a.737.737,0,0,1,.735.735v2.059h-1.469v-1.249h-1.386v-.594h1.386v-.216A.737.737,0,0,1,2327.678,4061.743Z" fill-rule="evenodd"/>
                    <path id="Trazado_2200" data-name="Trazado 2200" d="M2325.333,4064.363h3.08v.365a.365.365,0,0,1-.364.364h-2.388v1.494h-.693v-1.858A.366.366,0,0,1,2325.333,4064.363Z" fill-rule="evenodd"/>
                  </g>
                  <path id="Trazado_2201" data-name="Trazado 2201" d="M2323.864,4071.326a1.048,1.048,0,1,0-1.049-1.048A1.049,1.049,0,0,0,2323.864,4071.326Z" fill="#ffed00" fill-rule="evenodd"/>
                  <path id="Trazado_2202" data-name="Trazado 2202" d="M2329.326,4071.326a1.048,1.048,0,1,0-1.049-1.048A1.05,1.05,0,0,0,2329.326,4071.326Z" fill="#ffed00" fill-rule="evenodd"/>
                </g>
              </g>
              <g id="Grupo_2192" data-name="Grupo 2192">
                <g id="Grupo_2190" data-name="Grupo 2190">
                  <path id="Trazado_2203" data-name="Trazado 2203" d="M2285.634,4045.393l16.978,29.408a1.686,1.686,0,0,1-1.46,2.528H2267.2a1.686,1.686,0,0,1-1.459-2.528l16.977-29.408a1.687,1.687,0,0,1,2.921,0Z" fill-rule="evenodd"/>
                  <path id="Trazado_2204" data-name="Trazado 2204" d="M2284.174,4049.311l-14.316,24.795h28.631Z" fill="#ffed00" fill-rule="evenodd"/>
                </g>
                <g id="Grupo_2191" data-name="Grupo 2191">
                  <rect id="Rectángulo_2511" data-name="Rectángulo 2511" width="9.169" height="5.871" transform="translate(2281.671 4064.53)"/>
                  <path id="Trazado_2205" data-name="Trazado 2205" d="M2277.971,4066.193h3.252v4.645h10.219v1.2h-2.3a1.176,1.176,0,0,0-2.236,0h-7.764a1.176,1.176,0,0,0-2.236,0h-2.295v-1.2h.763v-2.049l2.595-2.6Zm.285.516-1.764,1.806v.6h4.049v-2.406Z" fill-rule="evenodd"/>
                  <path id="Trazado_2206" data-name="Trazado 2206" d="M2278.026,4073.416a1.014,1.014,0,1,0-1.014-1.014A1.015,1.015,0,0,0,2278.026,4073.416Z" fill-rule="evenodd"/>
                  <path id="Trazado_2207" data-name="Trazado 2207" d="M2288.026,4073.41a1.008,1.008,0,1,0-1.008-1.008A1.009,1.009,0,0,0,2288.026,4073.41Z" fill-rule="evenodd"/>
                </g>
              </g>
            </g>
            <g id="Grupo_2195" data-name="Grupo 2195">
              <g id="Grupo_2194" data-name="Grupo 2194">
                <path id="Trazado_2208" data-name="Trazado 2208" d="M2201.109,3961.471l16.979,29.407a1.687,1.687,0,0,1-1.461,2.53h-33.956a1.687,1.687,0,0,1-1.46-2.53l16.978-29.407a1.687,1.687,0,0,1,2.92,0Z" fill-rule="evenodd"/>
                <path id="Trazado_2209" data-name="Trazado 2209" d="M2199.649,3965.389l-14.316,24.8h28.631Z" fill="#ffed00" fill-rule="evenodd"/>
              </g>
              <path id="Trazado_2210" data-name="Trazado 2210" d="M2196.762,3977.907a1.285,1.285,0,1,0-1.285-1.285A1.287,1.287,0,0,0,2196.762,3977.907Z" fill-rule="evenodd"/>
              <path id="Trazado_2211" data-name="Trazado 2211" d="M2205.957,3986.278a.593.593,0,1,1-1.116.4l-1.03-2.815-4.183-.928a1.086,1.086,0,0,1-.572-.323l-2.539-2.657-1.507.883-.629,2.337a.594.594,0,1,1-1.148-.307l.692-2.57h0a.589.589,0,0,1,.273-.358,19.81,19.81,0,0,1,2.339-1.461l3.816-.444,1.154-1.852a.594.594,0,1,1,1.009.627l-1.31,2.1h0a.6.6,0,0,1-.448.277l-1.512.144,1.5,1.5,2.024-1.187a.589.589,0,0,1,.348-.079v0l3.51.3a.595.595,0,0,1-.1,1.186l-3.327-.282-2.026,1.19,3.208.836a.593.593,0,0,1,.428.377Z" fill-rule="evenodd"/>
              <path id="Trazado_2212" data-name="Trazado 2212" d="M2196.263,3984.09a.332.332,0,0,1,0-.663,12.514,12.514,0,0,1,2.659.328,3.364,3.364,0,0,1,1.085.456.919.919,0,0,1,.443.973,1.214,1.214,0,0,1-.2.445c-.22.316-.183.514-.008.635a7.3,7.3,0,0,0,3.085.434c.189,0,.341,0,.435.006a.331.331,0,0,1-.031.661c-.1,0-.235,0-.407-.006-.913,0-2.687-.012-3.461-.551-.5-.347-.654-.844-.157-1.557a.578.578,0,0,0,.1-.2c.022-.106-.051-.208-.181-.3a2.754,2.754,0,0,0-.865-.352A11.828,11.828,0,0,0,2196.263,3984.09Z" fill-rule="evenodd"/>
              <path id="Trazado_2213" data-name="Trazado 2213" d="M2193.7,3985a.332.332,0,0,1,0-.664c2.251,0,2.274.542,2.3,1.211a.72.72,0,0,0,.294.648,1.9,1.9,0,0,0,1.074.029,2.286,2.286,0,0,1,1.377.086,1.34,1.34,0,0,1,.706.838c.138.381.258.713,4.043.958a.331.331,0,0,1-.041.661c-4.218-.274-4.407-.8-4.624-1.393a.781.781,0,0,0-.411-.489,2.03,2.03,0,0,0-.971,0,2.185,2.185,0,0,1-1.539-.151,1.271,1.271,0,0,1-.569-1.159C2195.327,3985.256,2195.316,3985,2193.7,3985Z" fill-rule="evenodd"/>
            </g>
            <g id="Grupo_2198" data-name="Grupo 2198">
              <g id="Grupo_2196" data-name="Grupo 2196">
                <path id="Trazado_2214" data-name="Trazado 2214" d="M2243.372,3961.471l16.978,29.407a1.687,1.687,0,0,1-1.46,2.53h-33.957a1.687,1.687,0,0,1-1.46-2.53l16.979-29.407a1.687,1.687,0,0,1,2.92,0Z" fill-rule="evenodd"/>
                <path id="Trazado_2215" data-name="Trazado 2215" d="M2241.912,3965.389l-14.316,24.8h28.631Z" fill="#ffed00" fill-rule="evenodd"/>
              </g>
              <g id="Grupo_2197" data-name="Grupo 2197">
                <path id="Trazado_2216" data-name="Trazado 2216" d="M2247.035,3978.932a1.374,1.374,0,1,1-1.113-1.594A1.374,1.374,0,0,1,2247.035,3978.932Z" fill-rule="evenodd"/>
                <path id="Trazado_2217" data-name="Trazado 2217" d="M2233.793,3986.56a.635.635,0,0,1-.217-1.251l3.157-.556,1.761-4.229a1.162,1.162,0,0,1,.448-.542l3.273-2.175-.648-1.752-2.342-1.1a.635.635,0,0,1,.539-1.151l2.576,1.21v0a.625.625,0,0,1,.326.354,21.075,21.075,0,0,1,1.1,2.736l-.248,4.1,1.733,1.563a.635.635,0,1,1-.85.944l-1.966-1.772h0a.633.633,0,0,1-.208-.524l.132-1.617-1.86,1.3.87,2.353a.634.634,0,0,1,.019.382h0l-.97,3.639a.637.637,0,0,1-1.231-.325l.92-3.449-.871-2.356-1.483,3.22a.633.633,0,0,1-.477.38Z" fill-rule="evenodd"/>
              </g>
              <path id="Trazado_2218" data-name="Trazado 2218" d="M2243.935,3987.6h1.807v-1.345h4.045v1.345h1.807v1.345h-7.66Z" fill-rule="evenodd"/>
            </g>
            <g id="Grupo_2201" data-name="Grupo 2201">
              <g id="Grupo_2199" data-name="Grupo 2199">
                <path id="Trazado_2219" data-name="Trazado 2219" d="M2285.634,3961.471l16.978,29.407a1.687,1.687,0,0,1-1.46,2.53H2267.2a1.687,1.687,0,0,1-1.46-2.53l16.978-29.407a1.687,1.687,0,0,1,2.92,0Z" fill-rule="evenodd"/>
                <path id="Trazado_2220" data-name="Trazado 2220" d="M2284.174,3965.389l-14.316,24.8h28.632Z" fill="#ffed00" fill-rule="evenodd"/>
              </g>
              <g id="Grupo_2200" data-name="Grupo 2200">
                <path id="Trazado_2221" data-name="Trazado 2221" d="M2289.4,3978.1l1.754,2.848.067.1a.708.708,0,0,1-.22,1.014l-.1.06-3.394,2.019.037,4.193a.682.682,0,0,1-.2.5.689.689,0,0,1-.5.212h-.211a.709.709,0,0,1-.714-.7l-.042-4.664,0-.468.4-.24,2.463-1.466-1.982-3.33.9-1.207a.686.686,0,0,1,.546-.285l2.476-.082.817,1.505Z" fill-rule="evenodd"/>
                <path id="Trazado_2222" data-name="Trazado 2222" d="M2291.363,3982.33l1.05,1.73,1.892-1.244.894,1.361-2.6,1.706-.091.06a.708.708,0,0,1-.994-.224l-.058-.094-1.49-2.452Z" fill-rule="evenodd"/>
                <path id="Trazado_2223" data-name="Trazado 2223" d="M2287.561,3980.327l-.918,1.542a.814.814,0,0,1-1.022.332h0l-2.186-.945a.709.709,0,0,1-.369-.931l.083-.193a.711.711,0,0,1,.932-.37l1.53.661,1.013-1.688Z" fill-rule="evenodd"/>
                <path id="Trazado_2224" data-name="Trazado 2224" d="M2286.388,3977.188a1.677,1.677,0,1,0-1.358-1.647A1.527,1.527,0,0,0,2286.388,3977.188Z" fill-rule="evenodd"/>
                <path id="Trazado_2225" data-name="Trazado 2225" d="M2280.167,3977.408a1.506,1.506,0,1,1-1.482,1.214A1.367,1.367,0,0,1,2280.167,3977.408Z" fill-rule="evenodd"/>
                <path id="Trazado_2226" data-name="Trazado 2226" d="M2278.3,3981.409l.823,1.065.841-.523.862,1.385-1.466.914-.625.389-.452-.584-1.273-1.65a.71.71,0,0,1,.128-.994l.168-.13A.71.71,0,0,1,2278.3,3981.409Z" fill-rule="evenodd"/>
                <path id="Trazado_2227" data-name="Trazado 2227" d="M2283.8,3984.615l.709,1.483,1.018.006v1.635h-1.97l-.223-.469-.841-1.779Z" fill-rule="evenodd"/>
                <path id="Trazado_2228" data-name="Trazado 2228" d="M2282.888,3976.779a.816.816,0,0,1,1.463.722l-1.753,3.533,1.156,2.085a.814.814,0,0,1-.272,1.081v0l-2.028,1.308-1.809,3.239a.815.815,0,0,1-1.424-.792l1.889-3.383a.811.811,0,0,1,.292-.328l1.557-1-.417.269-.906-1.558a.689.689,0,0,1,0-.706l.315-.554Z" fill-rule="evenodd"/>
              </g>
            </g>
            <g id="Grupo_2203" data-name="Grupo 2203">
              <path id="Trazado_2229" data-name="Trazado 2229" d="M2370.159,3961.471l16.978,29.407a1.687,1.687,0,0,1-1.46,2.53h-33.956a1.687,1.687,0,0,1-1.461-2.53l16.979-29.407a1.687,1.687,0,0,1,2.92,0Z" fill-rule="evenodd"/>
              <path id="Trazado_2230" data-name="Trazado 2230" d="M2368.7,3965.389l-14.316,24.8h28.631Z" fill="#ffed00" fill-rule="evenodd"/>
              <g id="Grupo_2202" data-name="Grupo 2202">
                <path id="Trazado_2231" data-name="Trazado 2231" d="M2368.579,3975.088a1.516,1.516,0,1,0-1.516-1.516A1.519,1.519,0,0,0,2368.579,3975.088Z" fill-rule="evenodd"/>
                <path id="Trazado_2232" data-name="Trazado 2232" d="M2370.511,3981.726l3.617,5.5a.845.845,0,0,1-.239,1.166l-.021.014a.845.845,0,0,1-1.169-.239l-3.473-5.256Z" fill-rule="evenodd"/>
                <path id="Trazado_2233" data-name="Trazado 2233" d="M2367.465,3980.331l-1.244.942a.843.843,0,0,1-1.181-.165l-.016-.019a.846.846,0,0,1,.165-1.18l2.248-1.7Z" fill-rule="evenodd"/>
                <path id="Trazado_2234" data-name="Trazado 2234" d="M2367.946,3976.742l.031,4.314.587-.494-2.489,2.1a.854.854,0,0,0-.251.362l-1.944,4.857a.854.854,0,1,0,1.586.635l1.875-4.686,2.627-2.216h0a.851.851,0,0,0,.3-.652l.007-3.8,1.769,1.061v3.074a.856.856,0,0,0,1.712,0l0-3.555a.854.854,0,0,0-.415-.733l-2.876-1.719a.827.827,0,0,0-.859,0l-1.241.728A.826.826,0,0,0,2367.946,3976.742Z" fill-rule="evenodd"/>
              </g>
            </g>
            <g id="Grupo_2208" data-name="Grupo 2208">
              <path id="Trazado_2235" data-name="Trazado 2235" d="M2327.9,3961.471l16.978,29.407a1.687,1.687,0,0,1-1.46,2.53h-33.957a1.687,1.687,0,0,1-1.46-2.53l16.979-29.407a1.687,1.687,0,0,1,2.92,0Z" fill-rule="evenodd"/>
              <path id="Trazado_2236" data-name="Trazado 2236" d="M2326.437,3965.389l-14.316,24.8h28.631Z" fill="#ffed00" fill-rule="evenodd"/>
              <g id="Grupo_2207" data-name="Grupo 2207">
                <rect id="Rectángulo_2512" data-name="Rectángulo 2512" width="3.107" height="4.587" transform="translate(2321.336 3980.899)"/>
                <path id="Trazado_2237" data-name="Trazado 2237" d="M2328.43,3980.9h3.107l.839,4.587h-4.784Z" fill-rule="evenodd"/>
                <rect id="Rectángulo_2513" data-name="Rectángulo 2513" width="1.202" height="2.293" transform="translate(2321.336 3985.486)"/>
                <rect id="Rectángulo_2514" data-name="Rectángulo 2514" width="1.202" height="2.293" transform="translate(2328.43 3985.486)"/>
                <g id="Grupo_2204" data-name="Grupo 2204">
                  <rect id="Rectángulo_2515" data-name="Rectángulo 2515" width="1.202" height="2.959" transform="translate(2319.479 3979.38) rotate(-39.495)"/>
                  <rect id="Rectángulo_2516" data-name="Rectángulo 2516" width="2.959" height="1.202" transform="matrix(0.636, -0.772, 0.772, 0.636, 2323.49, 3980.899)"/>
                </g>
                <g id="Grupo_2205" data-name="Grupo 2205">
                  <rect id="Rectángulo_2517" data-name="Rectángulo 2517" width="1.202" height="2.959" transform="translate(2326.573 3979.38) rotate(-39.485)"/>
                  <rect id="Rectángulo_2518" data-name="Rectángulo 2518" width="2.959" height="1.202" transform="matrix(0.636, -0.772, 0.772, 0.636, 2330.585, 3980.899)"/>
                </g>
                <rect id="Rectángulo_2519" data-name="Rectángulo 2519" width="1.202" height="2.293" transform="translate(2323.241 3985.486)"/>
                <rect id="Rectángulo_2520" data-name="Rectángulo 2520" width="1.202" height="2.293" transform="translate(2330.335 3985.486)"/>
                <path id="Trazado_2238" data-name="Trazado 2238" d="M2322.889,3980.072a1.424,1.424,0,1,0-1.424-1.424A1.426,1.426,0,0,0,2322.889,3980.072Z" fill-rule="evenodd"/>
                <path id="Trazado_2239" data-name="Trazado 2239" d="M2329.983,3980.072a1.424,1.424,0,1,0-1.424-1.424A1.427,1.427,0,0,0,2329.983,3980.072Z" fill-rule="evenodd"/>
                <g id="Grupo_2206" data-name="Grupo 2206">
                  <path id="Trazado_2240" data-name="Trazado 2240" d="M2330.933,3977.755c.154-.432.653-.836,1.114-.583a1.321,1.321,0,0,1,.547,1.238A1.646,1.646,0,0,0,2330.933,3977.755Z" fill-rule="evenodd"/>
                  <path id="Trazado_2241" data-name="Trazado 2241" d="M2329.034,3977.755c-.155-.432-.653-.836-1.114-.583a1.316,1.316,0,0,0-.546,1.238A1.643,1.643,0,0,1,2329.034,3977.755Z" fill-rule="evenodd"/>
                </g>
              </g>
            </g>
            <g id="Grupo_2210" data-name="Grupo 2210">
              <rect id="Rectángulo_2521" data-name="Rectángulo 2521" width="29.785" height="29.785" rx="3.392" transform="translate(2353.806 3921.041)"/>
              <path id="Rectángulo_2522" data-name="Rectángulo 2522" d="M1.517,0h23a1.516,1.516,0,0,1,1.516,1.516v23a1.516,1.516,0,0,1-1.516,1.516h-23A1.516,1.516,0,0,1,0,24.516v-23A1.517,1.517,0,0,1,1.517,0Z" transform="translate(2355.682 3922.917)" fill="#ffed00"/>
              <g id="Grupo_2209" data-name="Grupo 2209">
                <path id="Trazado_2242" data-name="Trazado 2242" d="M2364.916,3929.1a2.269,2.269,0,1,0-2.268-2.269A2.274,2.274,0,0,0,2364.916,3929.1Z" fill-rule="evenodd"/>
                <path id="Trazado_2243" data-name="Trazado 2243" d="M2365.3,3928.672l.4,4.019h4.867v1.365h-4.731l.157,1.555,6.341.125.427.009.177.388,2.671,5.839,3.78-1.772.575,1.232-4.4,2.062-.62.291-.286-.624-.948-2.073a7.488,7.488,0,1,1-9.459-9.21l-.308-3.073,1.353-.133Zm7.334,10.055-.75-1.641-6.517-.128-.6-.012-.06-.6-.309-3.074a6.126,6.126,0,1,0,8.244,5.749q0-.179,0-.252Z" fill-rule="evenodd"/>
              </g>
            </g>
            <g id="Grupo_2213" data-name="Grupo 2213">
              <g id="Grupo_2211" data-name="Grupo 2211">
                <path id="Trazado_2244" data-name="Trazado 2244" d="M2244.316,3918.56l16.978,29.407a1.686,1.686,0,0,1-1.46,2.529h-33.956a1.686,1.686,0,0,1-1.46-2.529l16.978-29.407a1.686,1.686,0,0,1,2.92,0Z" fill-rule="evenodd"/>
                <path id="Trazado_2245" data-name="Trazado 2245" d="M2242.856,3922.478l-14.316,24.8h28.631Z" fill="#ffed00" fill-rule="evenodd"/>
              </g>
              <g id="Grupo_2212" data-name="Grupo 2212">
                <path id="Trazado_2246" data-name="Trazado 2246" d="M2242.856,3932.9a6.272,6.272,0,1,1-4.434,1.837,6.258,6.258,0,0,1,4.434-1.837Zm3.72,2.552h0a5.262,5.262,0,1,0,1.54,3.72A5.246,5.246,0,0,0,2246.576,3935.454Z" fill-rule="evenodd"/>
                <path id="Trazado_2247" data-name="Trazado 2247" d="M2241.381,3938.667a.595.595,0,1,0-.6-.595A.6.6,0,0,0,2241.381,3938.667Z" fill-rule="evenodd"/>
                <path id="Trazado_2248" data-name="Trazado 2248" d="M2244.447,3938.621a.6.6,0,1,0-.595-.6A.6.6,0,0,0,2244.447,3938.621Z" fill-rule="evenodd"/>
                <path id="Trazado_2249" data-name="Trazado 2249" d="M2245.523,3940.8a.337.337,0,0,1,.64.211,2.138,2.138,0,0,1-1.237,1.169h0a5.314,5.314,0,0,1-2.12.413,5.411,5.411,0,0,1-2-.362,2.392,2.392,0,0,1-1.276-1.029.337.337,0,0,1,.6-.306,1.743,1.743,0,0,0,.928.712,4.759,4.759,0,0,0,1.749.311,4.635,4.635,0,0,0,1.846-.352h0A1.5,1.5,0,0,0,2245.523,3940.8Z" fill-rule="evenodd"/>
                <path id="Trazado_2250" data-name="Trazado 2250" d="M2239.512,3931.33a.337.337,0,1,1,0,.674c-.4,0-.74.384-.906.89a2.235,2.235,0,0,0-.109.738,1.989,1.989,0,0,0,.155.739,2.049,2.049,0,0,0,2.1,1.109,2.313,2.313,0,0,0,1.6-.558,1.928,1.928,0,0,0,.562-1.457.336.336,0,1,1,.673,0,2.581,2.581,0,0,1-.774,1.947,2.973,2.973,0,0,1-2.054.74,2.556,2.556,0,0,1-2.935-2.507,2.919,2.919,0,0,1,.141-.959A1.747,1.747,0,0,1,2239.512,3931.33Z" fill-rule="evenodd"/>
              </g>
            </g>
            <g id="Grupo_2215" data-name="Grupo 2215">
              <g id="Grupo_2214" data-name="Grupo 2214">
                <path id="Trazado_2251" data-name="Trazado 2251" d="M2201.109,3918.56l16.979,29.407a1.686,1.686,0,0,1-1.461,2.529h-33.956a1.686,1.686,0,0,1-1.46-2.529l16.978-29.407a1.686,1.686,0,0,1,2.92,0Z" fill-rule="evenodd"/>
                <path id="Trazado_2252" data-name="Trazado 2252" d="M2199.649,3922.478l-14.316,24.8h28.631Z" fill="#ffed00" fill-rule="evenodd"/>
              </g>
              <path id="Trazado_2253" data-name="Trazado 2253" d="M2198.022,3941.435a2.149,2.149,0,0,0-1.54-1.483,1.98,1.98,0,0,0-.784-.02,8.219,8.219,0,0,1-1.986,2.775,2.249,2.249,0,0,0,1.659,2.108,2.1,2.1,0,0,0,1.763-.425c2.775.416,5.62-2.072,6.456-5.72a7.477,7.477,0,0,0-1.512-6.829,2.216,2.216,0,0,0-1.637-1.917,2.1,2.1,0,0,0-1.793.448c.015.057.032.113.045.17.067,1.147.012,2.541-.015,3.967a1.966,1.966,0,0,0,.65.277,2.04,2.04,0,0,0,1.411-.194C2202.858,3936.34,2201.144,3941.82,2198.022,3941.435Z" fill-rule="evenodd"/>
            </g>
            <g id="Grupo_2217" data-name="Grupo 2217">
              <g id="Grupo_2216" data-name="Grupo 2216">
                <path id="Trazado_2254" data-name="Trazado 2254" d="M2330.73,3918.56l16.978,29.407a1.686,1.686,0,0,1-1.46,2.529h-33.956a1.686,1.686,0,0,1-1.46-2.529l16.978-29.407a1.686,1.686,0,0,1,2.92,0Z" fill-rule="evenodd"/>
                <path id="Trazado_2255" data-name="Trazado 2255" d="M2329.27,3922.478l-14.315,24.8h28.631Z" fill="#ffed00" fill-rule="evenodd"/>
              </g>
              <path id="Trazado_2256" data-name="Trazado 2256" d="M2326.711,3932.5a.658.658,0,0,1,.928,0l.924.924v-1a.656.656,0,0,1,1.313,0v1l.925-.924a.657.657,0,0,1,.928.929l-1.853,1.853v2.041l4.291-2.477a.657.657,0,0,1,.657,1.138l-.864.5,1.262.338a.657.657,0,1,1-.34,1.269l-2.53-.678-1.768,1.021,1.768,1.02,2.53-.678a.657.657,0,1,1,.34,1.269l-1.262.338.763.44a.657.657,0,1,1-.657,1.138l-.762-.44.338,1.262a.657.657,0,0,1-1.269.34l-.679-2.531-1.818-1.05v2.1l1.853,1.852a.657.657,0,0,1-.928.929l-.925-.924v.881a.656.656,0,1,1-1.313,0v-.881l-.924.924a.657.657,0,0,1-.928-.929l1.852-1.852v-2.042l-1.718.992-.677,2.531a.657.657,0,0,1-1.269-.34l.338-1.262-.763.44a.657.657,0,1,1-.657-1.138l.763-.44-1.262-.338a.657.657,0,0,1,.34-1.269l2.531.678,1.768-1.02-1.768-1.021-2.531.678a.657.657,0,0,1-.34-1.269l1.262-.338.793.458-1.657-.956a.657.657,0,0,1,.657-1.138l.864.5-.338-1.262a.657.657,0,1,1,1.269-.34l.677,2.53,1.718.992v-1.983l-1.852-1.853a.658.658,0,0,1,0-.929Zm6.466.778h0a.658.658,0,0,0-.8.465l-.679,2.53,1.61-.928.338-1.262A.66.66,0,0,0,2333.177,3933.274Z" fill-rule="evenodd"/>
            </g>
          </g>
          <rect id="Rectángulo_2523" data-name="Rectángulo 2523" width="33.356" height="287.25" transform="translate(2140.617 3893.632)" fill="#ffed00"/>
          <path id="Trazado_2257" data-name="Trazado 2257" d="M2140.618,3930.388v-11.425l16.678-8.781,16.678,8.781v11.425l-16.678-8.781Z" fill-rule="evenodd"/>
          <g id="Grupo_2219" data-name="Grupo 2219">
            <path id="Trazado_2258" data-name="Trazado 2258" d="M2140.618,3953.48v-11.425l16.678-8.781,16.678,8.781v11.425L2157.3,3944.7Z" fill-rule="evenodd"/>
            <path id="Trazado_2259" data-name="Trazado 2259" d="M2140.618,3976.572v-11.425l16.678-8.781,16.678,8.781v11.425l-16.678-8.781Z" fill-rule="evenodd"/>
            <path id="Trazado_2260" data-name="Trazado 2260" d="M2140.618,3999.664v-11.425l16.678-8.781,16.678,8.781v11.425l-16.678-8.78Z" fill-rule="evenodd"/>
            <path id="Trazado_2261" data-name="Trazado 2261" d="M2140.618,4022.757v-11.426l16.678-8.781,16.678,8.781v11.426l-16.678-8.781Z" fill-rule="evenodd"/>
            <path id="Trazado_2262" data-name="Trazado 2262" d="M2140.618,4045.849v-11.426l16.678-8.78,16.678,8.78v11.426l-16.678-8.781Z" fill-rule="evenodd"/>
            <path id="Trazado_2263" data-name="Trazado 2263" d="M2140.618,4068.941v-11.425l16.678-8.781,16.678,8.781v11.425l-16.678-8.781Z" fill-rule="evenodd"/>
            <path id="Trazado_2264" data-name="Trazado 2264" d="M2140.618,4092.033v-11.425l16.678-8.781,16.678,8.781v11.425l-16.678-8.78Z" fill-rule="evenodd"/>
            <path id="Trazado_2265" data-name="Trazado 2265" d="M2140.618,4115.126V4103.7l16.678-8.781,16.678,8.781v11.426l-16.678-8.781Z" fill-rule="evenodd"/>
            <path id="Trazado_2266" data-name="Trazado 2266" d="M2140.618,4138.218v-11.425l16.678-8.781,16.678,8.781v11.425l-16.678-8.781Z" fill-rule="evenodd"/>
          </g>
          <path id="Trazado_2267" data-name="Trazado 2267" d="M2140.618,4161.311v-11.426l16.678-8.781,16.678,8.781v11.426l-16.678-8.781Z" fill-rule="evenodd"/>
        </g>
      </g>
    </g>
  </g>
</svg>
