<svg xmlns="http://www.w3.org/2000/svg" xmlns:xlink="http://www.w3.org/1999/xlink" width="803.392" height="322.22" viewBox="0 0 803.392 322.22">
  <defs>
    <clipPath id="clip-path">
      <rect id="Rectángulo_3395" data-name="Rectángulo 3395" width="803.392" height="322.22" transform="translate(318.304 7389.676)" fill="none"/>
    </clipPath>
  </defs>
  <g id="Grupo_6712" data-name="Grupo 6712" transform="translate(-318.304 -7389.676)">
    <g id="Grupo_6711" data-name="Grupo 6711" clip-path="url(#clip-path)">
      <rect id="Rectángulo_3378" data-name="Rectángulo 3378" width="940" height="361.538" transform="translate(230.927 7374.942)" fill="#6db1cc"/>
      <g id="Grupo_6710" data-name="Grupo 6710">
        <path id="Trazado_12566" data-name="Trazado 12566" d="M1014.384,7613.069h6.662c32,0,58.184-21.4,58.184-47.553h0c0-26.155-26.182-47.554-58.184-47.554h-20.432c-12.459,0-22.653-8.331-22.653-18.513h0c0-10.182,10.194-18.512,22.653-18.512h15.015c8.6,0,15.632-5.75,15.632-12.777h0c0-7.027-7.035-12.777-15.632-12.777h-42.69c-13.511,0-24.566-9.034-24.566-20.077h0c0-11.042,11.055-20.076,24.566-20.076h17.182c8.6,0,15.634-5.749,15.634-12.777h0c0-7.027-7.036-12.776-15.634-12.776H478.087c-11.221,0-20.4,7.5-20.4,16.671h0c0,9.167,9.184,16.672,20.4,16.672h2.9c17.629,0,32.053,11.793,32.053,26.2h0c0,14.405-14.424,26.2-32.053,26.2H466.9c-11.219,0-20.4,7.506-20.4,16.672h0c0,9.168,9.184,16.673,20.4,16.673h23.9c16.257,0,29.56,10.871,29.56,24.156h0c0,13.284-13.3,24.157-29.56,24.157H461.372c-32,0-58.184,21.4-58.184,47.554h0c0,26.154,26.185,47.553,58.184,47.553H473.4c8.462,0,15.384,5.659,15.384,12.574h0c0,6.915-6.922,12.574-15.384,12.574h-10.2c-5.841,0-10.62,3.906-10.62,8.678h0c0,4.469,4.191,8.178,9.519,8.631h570.268c10.237-.87,18.288-8,18.288-16.582h0c0-9.169-9.18-16.673-20.4-16.673h-19.591c-16.257,0-29.559-10.87-29.559-24.156h0c0-13.287,13.3-24.158,29.559-24.158Zm-588.5-190.049c-11.268,0-20.4-7.465-20.4-16.672s9.133-16.672,20.4-16.672,20.4,7.464,20.4,16.672-9.133,16.672-20.4,16.672Zm633.616,57.917c-8.634,0-15.635-5.721-15.635-12.777s7-12.778,15.635-12.778,15.634,5.721,15.634,12.778S1068.135,7480.937,1059.5,7480.937Z" fill="#a9e2ff" fill-rule="evenodd"/>
        <g id="Grupo_6689" data-name="Grupo 6689">
          <path id="Trazado_12567" data-name="Trazado 12567" d="M614.91,7475.661h.069a2.472,2.472,0,0,1,4.092-1.785,4.3,4.3,0,0,1,6.533-2.765l.265-.174a3.233,3.233,0,0,1,2.542-2.265,4.733,4.733,0,0,1,4.3-5.684,6.652,6.652,0,0,1,12.769-.508,4.1,4.1,0,0,1,4.875,2.474,3.563,3.563,0,0,1,4.051,1.228,6.432,6.432,0,0,1,9.068.206,2.4,2.4,0,0,1,2.883-1.6,5.831,5.831,0,0,1,9.436-4.129,4.811,4.811,0,0,1,2.992-1.134,5.724,5.724,0,0,1,9.073-4.037,8.6,8.6,0,0,1,15.043,5.689,8.693,8.693,0,0,1-.05.933,4.266,4.266,0,0,1,3.641.858,6.593,6.593,0,0,1,11.817,1.317,8.5,8.5,0,0,1,11.659,7.64,4.58,4.58,0,0,1,6.559,3.349,2.866,2.866,0,0,1,4.2,1.6,2.147,2.147,0,1,1,1.451,3.729H722.549a8.567,8.567,0,0,1-2.137,0H614.91a2.472,2.472,0,1,1,0-4.945Z" fill="#fff" fill-rule="evenodd"/>
          <path id="Trazado_12568" data-name="Trazado 12568" d="M759.57,7429.46h.068a2.473,2.473,0,0,1,4.093-1.784,4.3,4.3,0,0,1,6.533-2.765l.266-.174a3.228,3.228,0,0,1,2.54-2.265,4.88,4.88,0,0,1-.1-.966,4.729,4.729,0,0,1,4.4-4.718,6.652,6.652,0,0,1,12.77-.508,4.1,4.1,0,0,1,4.875,2.474,3.558,3.558,0,0,1,4.051,1.228,6.432,6.432,0,0,1,9.068.206,2.4,2.4,0,0,1,2.881-1.6,5.832,5.832,0,0,1,9.437-4.129,4.808,4.808,0,0,1,2.993-1.134,5.722,5.722,0,0,1,9.073-4.036,8.6,8.6,0,0,1,15.043,5.688,9,9,0,0,1-.05.933,4.25,4.25,0,0,1,3.638.858,6.593,6.593,0,0,1,11.818,1.317,8.5,8.5,0,0,1,11.66,7.64,4.58,4.58,0,0,1,6.559,3.348,2.867,2.867,0,0,1,4.2,1.6,2.147,2.147,0,1,1,1.451,3.73H867.209a8.505,8.505,0,0,1-2.137,0H759.57a2.473,2.473,0,1,1,0-4.946Z" fill="#fff" fill-rule="evenodd"/>
          <path id="Trazado_12569" data-name="Trazado 12569" d="M665.954,7430.832a.805.805,0,0,1,1.61,0v.947h.946a.805.805,0,1,1,0,1.61h-.946v.946a.805.805,0,1,1-1.61,0v-.946h-.947a.805.805,0,0,1,0-1.61h.947Z" fill="#fff" fill-rule="evenodd"/>
          <path id="Trazado_12570" data-name="Trazado 12570" d="M766.686,7449.767a.806.806,0,0,1,1.611,0v.946h.945a.806.806,0,1,1,0,1.611H768.3v.946a.806.806,0,0,1-1.611,0v-.946h-.947a.806.806,0,0,1,0-1.611h.947Z" fill="#fff" fill-rule="evenodd"/>
          <path id="Trazado_12571" data-name="Trazado 12571" d="M506.146,7621.692a.805.805,0,0,1,1.61,0v.947h.946a.805.805,0,1,1,0,1.611h-.946v.946a.805.805,0,1,1-1.61,0v-.946H505.2a.805.805,0,0,1,0-1.611h.946Z" fill="#fff" fill-rule="evenodd"/>
          <path id="Trazado_12572" data-name="Trazado 12572" d="M612.18,7416.442a.8.8,0,0,1,1.61,0v.946h.946a.805.805,0,1,1,0,1.611h-.946v.946a.8.8,0,1,1-1.61,0V7419h-.947a.805.805,0,0,1,0-1.611h.947Z" fill="#fff" fill-rule="evenodd"/>
          <path id="Trazado_12573" data-name="Trazado 12573" d="M898.707,7400.773a.8.8,0,0,1,1.609,0v.947h.947a.8.8,0,0,1,0,1.61h-.947v.946a.8.8,0,1,1-1.609,0v-.946h-.947a.8.8,0,1,1,0-1.61h.947Z" fill="#fff" fill-rule="evenodd"/>
          <path id="Trazado_12574" data-name="Trazado 12574" d="M839.631,7453.791a.806.806,0,1,1,1.611,0v.946h.946a.805.805,0,1,1,0,1.61h-.946v.946a.806.806,0,0,1-1.611,0v-.946h-.947a.805.805,0,0,1,0-1.61h.947Z" fill="#fff" fill-rule="evenodd"/>
          <path id="Trazado_12575" data-name="Trazado 12575" d="M950.209,7676.461a.8.8,0,1,1,1.609,0v.947h.947a.8.8,0,1,1,0,1.61h-.947v.946a.8.8,0,1,1-1.609,0v-.946h-.947a.8.8,0,0,1,0-1.61h.947Z" fill="#fff" fill-rule="evenodd"/>
          <path id="Trazado_12576" data-name="Trazado 12576" d="M523.045,7590.119a.805.805,0,1,1,1.61,0v.947h.946a.8.8,0,1,1,0,1.61h-.946v.947a.805.805,0,0,1-1.61,0v-.947H522.1a.8.8,0,1,1,0-1.61h.946Z" fill="#fff" fill-rule="evenodd"/>
        </g>
        <g id="Grupo_6706" data-name="Grupo 6706">
          <path id="Rectángulo_3379" data-name="Rectángulo 3379" d="M9.832,0H212.669A9.833,9.833,0,0,1,222.5,9.833v38.9a9.833,9.833,0,0,1-9.833,9.833H9.832A9.832,9.832,0,0,1,0,48.734V9.832A9.832,9.832,0,0,1,9.832,0Z" transform="translate(704.934 7604.214)" fill="#241530"/>
          <path id="Rectángulo_3380" data-name="Rectángulo 3380" d="M9.832,0H111.407a9.833,9.833,0,0,1,9.833,9.833v38.9a9.833,9.833,0,0,1-9.833,9.833H9.833A9.833,9.833,0,0,1,0,48.734V9.832A9.832,9.832,0,0,1,9.832,0Z" transform="translate(560.632 7604.214)" fill="#241530"/>
          <path id="Rectángulo_3381" data-name="Rectángulo 3381" d="M8.3,0H230.8a8.3,8.3,0,0,1,8.3,8.3V134.77a8.3,8.3,0,0,1-8.3,8.3H8.3a8.3,8.3,0,0,1-8.3-8.3V8.3A8.3,8.3,0,0,1,8.3,0Z" transform="translate(696.633 7469.626)" fill="#d05155"/>
          <path id="Trazado_12577" data-name="Trazado 12577" d="M704.934,7475.805h222.5a2.111,2.111,0,0,1,1.494.623l.006,0a2.119,2.119,0,0,1,.621,1.494V7604.4a2.124,2.124,0,0,1-2.121,2.121h-222.5a2.109,2.109,0,0,1-1.5-.622l0,0a2.116,2.116,0,0,1-.623-1.5v-126.47a2.127,2.127,0,0,1,2.122-2.122Zm222.5,1.965h-222.5a.161.161,0,0,0-.111.046.157.157,0,0,0-.047.111V7604.4a.162.162,0,0,0,.045.113.169.169,0,0,0,.113.045h222.5a.161.161,0,0,0,.157-.158v-126.47a.156.156,0,0,0-.043-.111l0,0A.156.156,0,0,0,927.437,7477.77Z" fill="#a8252b" fill-rule="evenodd"/>
          <path id="Rectángulo_3382" data-name="Rectángulo 3382" d="M3.8,0H21.11a3.8,3.8,0,0,1,3.8,3.8V24.382a3.8,3.8,0,0,1-3.8,3.8H3.8a3.8,3.8,0,0,1-3.8-3.8V3.8A3.8,3.8,0,0,1,3.8,0Z" transform="translate(682.79 7624.755)" fill="#241530"/>
          <path id="Trazado_12578" data-name="Trazado 12578" d="M929.683,7658.688H919.06c.125-1.363.192-2.74.192-4.135a44.76,44.76,0,0,0-17.52-35.55h27.951a6.072,6.072,0,0,1,6.054,6.054v27.576a6.071,6.071,0,0,1-6.054,6.055Zm-99.9,0h-6.424c.124-1.363.19-2.74.19-4.135A44.756,44.756,0,0,0,806.029,7619h41.083a44.754,44.754,0,0,0-17.52,35.55c0,1.4.066,2.772.19,4.135Zm-95.7,0H702.687a6.072,6.072,0,0,1-6.054-6.055v-27.576a6.072,6.072,0,0,1,6.054-6.054h48.72a44.762,44.762,0,0,0-17.519,35.55C733.888,7655.948,733.955,7657.325,734.08,7658.688Z" fill="#fff" fill-rule="evenodd"/>
          <path id="Trazado_12579" data-name="Trazado 12579" d="M934.251,7643.717H917.93a44.589,44.589,0,0,0-3.673-9.743h19.994a1.49,1.49,0,0,1,1.486,1.486v6.771a1.49,1.49,0,0,1-1.486,1.486Zm-103.339,0h-8.685a44.539,44.539,0,0,0-3.673-9.743h16.033a44.5,44.5,0,0,0-3.675,9.743Zm-95.7,0H698.12a1.49,1.49,0,0,1-1.487-1.486v-6.771a1.49,1.49,0,0,1,1.487-1.486h40.764A44.492,44.492,0,0,0,735.21,7643.717Z" fill="#ecdeeb" fill-rule="evenodd"/>
          <path id="Trazado_12580" data-name="Trazado 12580" d="M681.871,7620.08H654.48a44.824,44.824,0,0,0-57.314,0H557.152v-38.646H681.871Z" fill="#8d2340" fill-rule="evenodd"/>
          <path id="Trazado_12581" data-name="Trazado 12581" d="M686.287,7658.688H670.462c.125-1.363.192-2.74.192-4.135a44.76,44.76,0,0,0-17.52-35.55h33.153a6.072,6.072,0,0,1,6.054,6.054v27.577a6.072,6.072,0,0,1-6.054,6.054Zm-105.1,0h-28.45a6.071,6.071,0,0,1-6.053-6.054v-27.577a6.071,6.071,0,0,1,6.053-6.054h45.778a44.757,44.757,0,0,0-17.52,35.55C580.993,7655.948,581.06,7657.325,581.185,7658.688Z" fill="#fff" fill-rule="evenodd"/>
          <path id="Trazado_12582" data-name="Trazado 12582" d="M683.4,7616.5H649.529a44.851,44.851,0,0,0-47.412,0H555.626a5.883,5.883,0,0,1-5.866-5.865v-33.052a47.791,47.791,0,0,1,4.311-15.706c4-8.93,35.412-76.986,35.412-76.986s5.235-10.008,14.32-10.008h75.139a10.3,10.3,0,0,1,10.32,10.163v125.589A5.882,5.882,0,0,1,683.4,7616.5Z" fill="#e29a30" fill-rule="evenodd"/>
          <path id="Trazado_12583" data-name="Trazado 12583" d="M549.761,7601.555v-23.972a47.772,47.772,0,0,1,4.31-15.706c3.429-7.648,26.954-58.653,33.641-73.147h64.755v101.528a11.331,11.331,0,0,1-11.3,11.3Z" fill="#eab331" fill-rule="evenodd"/>
          <path id="Trazado_12584" data-name="Trazado 12584" d="M582.134,7500.823c4.309-9.344,7.349-15.932,7.349-15.932s5.235-10.008,14.32-10.008h75.139a10.3,10.3,0,0,1,10.32,10.163v15.777Z" fill="#eab331" fill-rule="evenodd"/>
          <path id="Trazado_12585" data-name="Trazado 12585" d="M665.872,7508.632h10.865c3.4,0,6.174,2.249,6.174,5v34.78c0,2.748-2.779,5-6.174,5H665.872c-3.4,0-6.174-2.248-6.174-5v-34.78C659.7,7510.881,662.476,7508.632,665.872,7508.632Z" fill="#eab331" fill-rule="evenodd"/>
          <path id="Trazado_12586" data-name="Trazado 12586" d="M638.715,7506.967a9.268,9.268,0,0,1,2.542.073,9.439,9.439,0,0,1,2.495.769,8.469,8.469,0,0,1,3.928,3.821,13.35,13.35,0,0,1,1.333,6.135l0,34.324a9.178,9.178,0,0,1-.482,2.978,12.191,12.191,0,0,1-1.475,3.021,14.172,14.172,0,0,1-5,4.427,24.219,24.219,0,0,1-7.492,2.482c-3.5.607-7.088,1.092-10.645,1.571l-.629.085c-2.528.342-5.155.686-7.845,1.033-3.162.407-5.66.723-7.849,1q-6.667.834-13.527,1.665-6.657.807-13.53,1.617c-.511.06-1.034.137-1.568.216-2.981.435-6.3.921-8.923-.968a6.923,6.923,0,0,1-2.771-5.141,17.861,17.861,0,0,1,.5-5.652c1.329-5.938,2.788-11.791,4.241-17.623l.952-3.823c1.828-7.358,3.659-14.723,5.614-22.323a13.516,13.516,0,0,1,.856-2.316,16.761,16.761,0,0,1,1.3-2.3,12.005,12.005,0,0,1,3.968-3.757,10.043,10.043,0,0,1,5.011-1.312Zm2.306,1.523a7.7,7.7,0,0,0-2.15-.058,1.078,1.078,0,0,1-.113.008H589.713a8.59,8.59,0,0,0-4.286,1.115,10.558,10.558,0,0,0-3.479,3.3,15.461,15.461,0,0,0-1.183,2.1,12.086,12.086,0,0,0-.764,2.057c-1.865,7.25-3.738,14.786-5.609,22.312l-.951,3.824c-1.464,5.875-2.934,11.771-4.236,17.588a16.511,16.511,0,0,0-.468,5.179,5.528,5.528,0,0,0,2.167,4.107c2.134,1.538,5.149,1.1,7.853.7.555-.081,1.1-.161,1.609-.221h0q6.664-.787,13.527-1.618,6.676-.807,13.521-1.665c3.041-.38,5.775-.725,7.843-.991,2.536-.327,5.138-.669,7.833-1.033l.63-.085c3.517-.474,7.065-.953,10.593-1.565a22.783,22.783,0,0,0,7.032-2.322,12.75,12.75,0,0,0,4.493-3.961,10.718,10.718,0,0,0,1.289-2.652,7.728,7.728,0,0,0,.414-2.488l0-.081v-34.279a11.879,11.879,0,0,0-1.166-5.456,7.033,7.033,0,0,0-3.255-3.177A7.891,7.891,0,0,0,641.021,7508.49Z" fill="#d2792f" fill-rule="evenodd"/>
          <path id="Trazado_12587" data-name="Trazado 12587" d="M589.713,7510.836h49.271s6.16-1.078,6.16,6.929V7552.1s.308,7.083-11.24,9.085c-9.891,1.713-44.186,5.8-53.819,6.937-5.381.636-10.635,2.5-8.539-6.859,2.31-10.317,10.779-43.651,10.779-43.651S584.135,7510.855,589.713,7510.836Z" fill="#ecdeeb" fill-rule="evenodd"/>
          <path id="Trazado_12588" data-name="Trazado 12588" d="M592.048,7566.695c-4.237.512-7.909.95-10.5,1.256l-5.735-5.734a3.041,3.041,0,0,1,0-4.291l1.586-1.587a3.044,3.044,0,0,1,4.29,0Z" fill="#beaacf" fill-rule="evenodd"/>
          <path id="Trazado_12589" data-name="Trazado 12589" d="M583.441,7567.727l-3.356.4c-5.381.636-10.635,2.5-8.539-6.859.29-1.3.678-2.958,1.133-4.871Z" fill="#241530" fill-rule="evenodd"/>
          <path id="Trazado_12590" data-name="Trazado 12590" d="M621.947,7576.8h13.627a1.814,1.814,0,0,1,1.809,1.808h0a1.814,1.814,0,0,1-1.809,1.81H621.947a1.814,1.814,0,0,1-1.809-1.81h0A1.814,1.814,0,0,1,621.947,7576.8Z" fill="#241530" fill-rule="evenodd"/>
          <g id="Grupo_6690" data-name="Grupo 6690">
            <path id="Trazado_12591" data-name="Trazado 12591" d="M623.2,7536.88l-1.1-9.123a28.547,28.547,0,0,0,3.29-1.8c.425-.417,4.96-1.075,4.96-1.075l1.415,8.992-3.259,2.292Z" fill="#d2827c" fill-rule="evenodd"/>
            <path id="Trazado_12592" data-name="Trazado 12592" d="M617.459,7515.418a9.243,9.243,0,0,0-.712,4.985c.4,2.929.36,4.256-.691,5.1a.551.551,0,0,0-.059.575,2.08,2.08,0,0,0,1.456,1.015s.264,1.71.444,2.886.8,2.254,2.826,2.328,7.326-1.378,7.514-5.737-.307-4.3-.307-4.3-5.813-7.525-6.232-7.632-3.832-1.51-3.832-1.51Z" fill="#e7b3a2" fill-rule="evenodd"/>
            <path id="Trazado_12593" data-name="Trazado 12593" d="M626.528,7523.125c-2.147-.769-1.906-1.227-2.2-3.13-3.1-.292-4.484-3.448-4.484-3.448l-2.508.236a4.7,4.7,0,0,1-.933.027,171.643,171.643,0,0,1,17.852-3.492,4.661,4.661,0,0,1,.635,1.394c1.649,5.972-3.941,10.817-4.063,12.99-.005.1-.008.166-.008.166l-.157-.08-1.175-1.8Z" fill="#241530" fill-rule="evenodd"/>
            <path id="Trazado_12594" data-name="Trazado 12594" d="M626.528,7523.125c1.022-4.863,5.128-3.289,4.889-.3a4.374,4.374,0,0,1-3.18,3.742l-2.291-1.429Z" fill="#e7b3a2" fill-rule="evenodd"/>
            <path id="Trazado_12595" data-name="Trazado 12595" d="M621.341,7522.571a1.519,1.519,0,1,1-1.168,1.8A1.52,1.52,0,0,1,621.341,7522.571Z" fill="#cf8577" fill-rule="evenodd"/>
            <path id="Trazado_12596" data-name="Trazado 12596" d="M619.917,7520.59a.234.234,0,1,0,.17-.437,2.908,2.908,0,0,0-2.629.257.234.234,0,1,0,.277.378A2.424,2.424,0,0,1,619.917,7520.59Z" fill="#241530" fill-rule="evenodd"/>
            <path id="Trazado_12597" data-name="Trazado 12597" d="M627.291,7523.27a.16.16,0,0,0,.309.084,2.98,2.98,0,0,1,.593-1.194,1.094,1.094,0,0,1-.224,1.855.16.16,0,0,0,.179.266,1.381,1.381,0,0,0,.279-2.338,1.251,1.251,0,0,1,.328-.18,1.042,1.042,0,0,1,.552-.045,1.106,1.106,0,0,1,.485.233,1.328,1.328,0,0,1,.436,1.231,2.542,2.542,0,0,1-1.914,2,.16.16,0,0,0,.082.309,2.861,2.861,0,0,0,2.151-2.264,1.646,1.646,0,0,0-.549-1.519,1.428,1.428,0,0,0-.631-.3,1.355,1.355,0,0,0-.72.057,1.626,1.626,0,0,0-.562.353l0,0-.006,0,0,0,0,0,0,0A3.116,3.116,0,0,0,627.291,7523.27Z" fill="#cf8577" fill-rule="evenodd"/>
            <path id="Trazado_12598" data-name="Trazado 12598" d="M627.648,7553.87c11.9-9.451,2.732-20.166-2.138-14.514L614.015,7552.7s-21.92,1.418-22.368,1.443a1.276,1.276,0,0,1-.74-.172l-.328-.45a2.153,2.153,0,0,0-2.935-.582,8.137,8.137,0,0,0-1.607.73,1.456,1.456,0,0,0-.771.966,2.44,2.44,0,0,0,.308,1.4l3.357,2.05s.506.518.818.494a1.019,1.019,0,0,0,.7-.405c.19-.215.489-.56.489-.56a.192.192,0,0,0,.236-.038c.112-.114,21.272,2.134,22.552,2.269a8.322,8.322,0,0,0,5.237-1.018C620.978,7557.648,627.648,7553.87,627.648,7553.87Z" fill="#e7b3a2" fill-rule="evenodd"/>
            <path id="Trazado_12599" data-name="Trazado 12599" d="M622.448,7538.729l-.233-1.1.607-1.137a4.234,4.234,0,0,1,.154-1.434,2.068,2.068,0,0,0,1.06-.2c.543-.263,7.364-3.3,7.364-3.3a.672.672,0,0,1,.452.282,4.849,4.849,0,0,1,.268,1.112s7.09,6.378,8.439,9.189c.706,1.474,2.1,7.283,2.8,14.413-1.512,1.835-4.3,3.741-9.457,4.635-2,.345-5,.79-8.591,1.286a2.718,2.718,0,0,1,.645-1.018l-3.145-11.912Z" fill="#fff" fill-rule="evenodd"/>
            <path id="Trazado_12600" data-name="Trazado 12600" d="M618.582,7521.121c.3.1.5.611.441,1.143s-.345.881-.645.781-.5-.612-.442-1.143S618.281,7521.021,618.582,7521.121Z" fill="#241530" fill-rule="evenodd"/>
            <path id="Trazado_12601" data-name="Trazado 12601" d="M616.849,7524.256a2.093,2.093,0,0,0-.518.4,9.344,9.344,0,0,0-.924,2.894,15.688,15.688,0,0,0,3.627,4.867,4.751,4.751,0,0,0,4.593-.143,29.18,29.18,0,0,0,2.714-1.818c.7-.517.324-1.483-.485-2.419s-1.915-2.2-1.915-2.2a3.557,3.557,0,0,0-1.865-.91C620.882,7524.726,616.849,7524.256,616.849,7524.256Z" fill="#fff" fill-rule="evenodd"/>
            <path id="Trazado_12602" data-name="Trazado 12602" d="M623.372,7525.736a.15.15,0,1,1-.28-.1c.005-.014,1.688-4.679,4.393-4.733a3.669,3.669,0,0,0-.227.316c-2.363.3-3.881,4.508-3.886,4.522Zm6.356.087a4.283,4.283,0,0,1-.368.242,7,7,0,0,1-.263.8,5.328,5.328,0,0,1-2.73,3,.149.149,0,1,0,.12.272,5.606,5.606,0,0,0,2.887-3.16A7.22,7.22,0,0,0,629.728,7525.823Z" fill="#fff" fill-rule="evenodd"/>
            <path id="Trazado_12603" data-name="Trazado 12603" d="M624.82,7539.769l-9.274,10.422a1.015,1.015,0,0,0-.092.839c.143.51,2.961,6.168,5.452,7.826a1.123,1.123,0,0,0,.842.163c.438-.12,9.345-6.1,12.3-9.089C640.315,7543.6,632.07,7531.623,624.82,7539.769Z" fill="#d05155" fill-rule="evenodd"/>
            <path id="Trazado_12604" data-name="Trazado 12604" d="M622.247,7516.52c-7.519,3.984-9.615-1.809-8.4-5.684H633.87a5.874,5.874,0,0,1,.386,2.482C634.017,7517.41,622.247,7516.52,622.247,7516.52Z" fill="#241530" fill-rule="evenodd"/>
          </g>
          <rect id="Rectángulo_3383" data-name="Rectángulo 3383" width="4.299" height="25.713" rx="1.569" transform="translate(575.262 7548.177) rotate(-45.003)" fill="#beaacf"/>
          <path id="Trazado_12605" data-name="Trazado 12605" d="M574.164,7562.287h7.943a3.582,3.582,0,0,0,3.566-3.566v-8.464h3.491v8.464a7.072,7.072,0,0,1-7.057,7.058h-7.943Z" fill="#241530" fill-rule="evenodd"/>
          <path id="Rectángulo_3384" data-name="Rectángulo 3384" d="M3.542,0H6.16A3.54,3.54,0,0,1,9.7,3.54V22.173a3.541,3.541,0,0,1-3.541,3.541H3.542A3.542,3.542,0,0,1,0,22.172V3.542A3.542,3.542,0,0,1,3.542,0Z" transform="translate(582.568 7530.765)" fill="#3e2055"/>
          <path id="Trazado_12606" data-name="Trazado 12606" d="M690.854,7643.717H669.332a44.542,44.542,0,0,0-3.674-9.743h25.2a1.491,1.491,0,0,1,1.487,1.486v6.771a1.491,1.491,0,0,1-1.487,1.486Zm-108.539,0H548.168a1.489,1.489,0,0,1-1.486-1.486v-6.771a1.489,1.489,0,0,1,1.486-1.486h37.82A44.542,44.542,0,0,0,582.315,7643.717Z" fill="#ecdeeb" fill-rule="evenodd"/>
          <text id="Transporte_adecuado" data-name="Transporte 
adecuado" transform="matrix(0.976, 0.216, -0.216, 0.976, 728.725, 7526.537)" fill="#fff" font-size="40" font-family="Calibri"><tspan x="0" y="0">Transporte </tspan><tspan x="0" y="40">adecuado</tspan></text>
          <g id="Grupo_6691" data-name="Grupo 6691">
            <path id="Trazado_12607" data-name="Trazado 12607" d="M625.823,7694.638a39.719,39.719,0,1,0-39.72-39.72A39.8,39.8,0,0,0,625.823,7694.638Z" fill="#3e2055" fill-rule="evenodd"/>
            <path id="Trazado_12608" data-name="Trazado 12608" d="M625.823,7622.688a32.23,32.23,0,1,0,32.231,32.23A32.231,32.231,0,0,0,625.823,7622.688Z" fill="#241530" fill-rule="evenodd"/>
            <path id="Trazado_12609" data-name="Trazado 12609" d="M625.823,7679.936a25.017,25.017,0,1,0-25.017-25.018A25.066,25.066,0,0,0,625.823,7679.936Z" fill="#fff" fill-rule="evenodd"/>
            <path id="Trazado_12610" data-name="Trazado 12610" d="M625.823,7637.244a17.674,17.674,0,1,0,17.674,17.674A17.673,17.673,0,0,0,625.823,7637.244Z" fill="#ecdeeb" fill-rule="evenodd"/>
            <path id="Trazado_12611" data-name="Trazado 12611" d="M625.823,7663.745a8.827,8.827,0,1,0-8.826-8.827A8.843,8.843,0,0,0,625.823,7663.745Z" fill="#3e2055" fill-rule="evenodd"/>
            <path id="Trazado_12612" data-name="Trazado 12612" d="M664.142,7662.166a.729.729,0,0,0,1.432.269c.053-.283.105-.571.153-.863.051-.309.1-.6.133-.859a.729.729,0,1,0-1.443-.206q-.064.452-.128.832c-.045.273-.094.549-.147.827Zm.6-4.823a.729.729,0,0,0,1.455.084c.024-.395.043-.813.056-1.258.015-.471.023-.89.023-1.251a40.468,40.468,0,0,0-30.2-39.135.727.727,0,0,0-.365,1.408,39.006,39.006,0,0,1,29.1,37.727c0,.462-.006.866-.015,1.212-.013.382-.031.787-.058,1.213Zm-38.917-41.414a.731.731,0,0,0,0-1.461c-.317,0-.7.007-1.142.019-.4.01-.784.027-1.142.046a.728.728,0,0,0,.08,1.455c.386-.022.754-.037,1.1-.046q.453-.013,1.1-.013Zm-5.62.4a.729.729,0,1,0-.206-1.444,40.461,40.461,0,0,0-34.624,40.032q0,1.143.067,2.331t.2,2.324a.729.729,0,0,0,1.449-.166q-.128-1.124-.193-2.238-.062-1.086-.062-2.251a39,39,0,0,1,33.37-38.588Zm-32.8,45.248a.729.729,0,1,0-1.437.246q.082.474.205,1.093c.081.4.159.769.234,1.092a.729.729,0,0,0,1.421-.326q-.135-.581-.229-1.051Q587.5,7662.179,587.4,7661.578Z" fill="#fff" fill-rule="evenodd"/>
          </g>
          <g id="Grupo_6692" data-name="Grupo 6692">
            <path id="Trazado_12613" data-name="Trazado 12613" d="M778.719,7694.638a39.719,39.719,0,1,0-39.72-39.72A39.8,39.8,0,0,0,778.719,7694.638Z" fill="#3e2055" fill-rule="evenodd"/>
            <path id="Trazado_12614" data-name="Trazado 12614" d="M778.719,7622.688a32.23,32.23,0,1,0,32.231,32.23A32.23,32.23,0,0,0,778.719,7622.688Z" fill="#241530" fill-rule="evenodd"/>
            <path id="Trazado_12615" data-name="Trazado 12615" d="M778.719,7679.936a25.017,25.017,0,1,0-25.017-25.018A25.065,25.065,0,0,0,778.719,7679.936Z" fill="#fff" fill-rule="evenodd"/>
            <path id="Trazado_12616" data-name="Trazado 12616" d="M778.719,7637.244a17.674,17.674,0,1,0,17.673,17.674A17.674,17.674,0,0,0,778.719,7637.244Z" fill="#ecdeeb" fill-rule="evenodd"/>
            <path id="Trazado_12617" data-name="Trazado 12617" d="M778.719,7663.745a8.827,8.827,0,1,0-8.826-8.827A8.844,8.844,0,0,0,778.719,7663.745Z" fill="#3e2055" fill-rule="evenodd"/>
            <path id="Trazado_12618" data-name="Trazado 12618" d="M817.038,7662.166a.729.729,0,0,0,1.432.269q.08-.425.153-.863c.05-.309.1-.6.133-.859a.729.729,0,0,0-1.444-.206c-.043.3-.086.578-.127.832-.045.273-.095.549-.147.827Zm.6-4.823a.729.729,0,0,0,1.456.084c.023-.395.042-.813.056-1.258.013-.471.022-.89.022-1.251a40.465,40.465,0,0,0-30.2-39.135.727.727,0,1,0-.365,1.408,39.009,39.009,0,0,1,29.1,37.727q0,.693-.017,1.212c-.01.382-.03.787-.056,1.213Zm-38.917-41.414a.731.731,0,0,0,0-1.461c-.318,0-.7.007-1.142.019-.4.01-.783.027-1.143.046a.728.728,0,1,0,.081,1.455c.385-.022.753-.037,1.1-.046.3-.009.67-.013,1.1-.013Zm-5.621.4a.729.729,0,0,0-.205-1.444,40.463,40.463,0,0,0-34.624,40.032q0,1.143.068,2.331t.2,2.324a.729.729,0,0,0,1.449-.166q-.129-1.124-.193-2.238-.062-1.086-.062-2.251A38.993,38.993,0,0,1,773.1,7616.33Zm-32.8,45.248a.729.729,0,1,0-1.438.246q.082.474.2,1.093c.082.4.161.769.235,1.092a.728.728,0,1,0,1.42-.326q-.133-.581-.228-1.051C740.427,7662.33,740.364,7661.979,740.294,7661.578Z" fill="#fff" fill-rule="evenodd"/>
          </g>
          <g id="Grupo_6693" data-name="Grupo 6693">
            <path id="Trazado_12619" data-name="Trazado 12619" d="M874.422,7694.638a39.719,39.719,0,1,0-39.72-39.72A39.8,39.8,0,0,0,874.422,7694.638Z" fill="#3e2055" fill-rule="evenodd"/>
            <path id="Trazado_12620" data-name="Trazado 12620" d="M874.422,7622.688a32.23,32.23,0,1,0,32.23,32.23A32.231,32.231,0,0,0,874.422,7622.688Z" fill="#241530" fill-rule="evenodd"/>
            <path id="Trazado_12621" data-name="Trazado 12621" d="M874.422,7679.936a25.017,25.017,0,1,0-25.018-25.018A25.065,25.065,0,0,0,874.422,7679.936Z" fill="#fff" fill-rule="evenodd"/>
            <path id="Trazado_12622" data-name="Trazado 12622" d="M874.422,7637.244a17.674,17.674,0,1,0,17.674,17.674A17.673,17.673,0,0,0,874.422,7637.244Z" fill="#ecdeeb" fill-rule="evenodd"/>
            <path id="Trazado_12623" data-name="Trazado 12623" d="M874.422,7663.745a8.827,8.827,0,1,0-8.827-8.827A8.844,8.844,0,0,0,874.422,7663.745Z" fill="#3e2055" fill-rule="evenodd"/>
            <path id="Trazado_12624" data-name="Trazado 12624" d="M912.74,7662.166a.729.729,0,0,0,1.432.269c.053-.283.106-.571.153-.863.052-.309.1-.6.133-.859a.728.728,0,1,0-1.442-.206q-.064.452-.129.832c-.044.273-.093.549-.147.827Zm.6-4.823a.728.728,0,1,0,1.454.084c.024-.395.043-.813.056-1.258.015-.471.022-.89.022-1.251a40.465,40.465,0,0,0-30.2-39.135.727.727,0,0,0-.365,1.408,39.008,39.008,0,0,1,29.1,37.727q0,.693-.016,1.212-.018.573-.056,1.213Zm-38.918-41.414a.731.731,0,0,0,0-1.461c-.317,0-.7.007-1.142.019-.4.01-.785.027-1.142.046a.728.728,0,1,0,.08,1.455c.386-.022.753-.037,1.1-.046q.453-.013,1.1-.013Zm-5.621.4a.729.729,0,1,0-.206-1.444,40.459,40.459,0,0,0-34.623,40.032q0,1.143.067,2.331t.2,2.324a.729.729,0,0,0,1.448-.166q-.127-1.124-.193-2.238-.061-1.086-.062-2.251a39,39,0,0,1,33.37-38.588ZM836,7661.578a.729.729,0,1,0-1.438.246q.082.474.2,1.093c.082.4.16.769.234,1.092a.729.729,0,0,0,1.422-.326q-.133-.581-.23-1.051Q836.1,7662.179,836,7661.578Z" fill="#fff" fill-rule="evenodd"/>
          </g>
          <path id="Trazado_12625" data-name="Trazado 12625" d="M589.713,7510.836h49.272s6.159-1.078,6.159,6.929V7552.1a7.144,7.144,0,0,1-1.783,4.451c-1.512,1.835-4.3,3.74-9.457,4.634-2,.346-5,.79-8.591,1.287-12.486,1.727-32.127,4.095-41.872,5.253l-3.355.4c-5.382.636-10.636,2.5-8.54-6.859.29-1.3.678-2.958,1.133-4.871,1.133-4.752,2.69-11.061,4.22-17.207,2.752-11.05,5.426-21.573,5.426-21.573s1.81-6.759,7.388-6.778Zm57.827,41.208v-34.279a11.879,11.879,0,0,0-1.166-5.456,7.033,7.033,0,0,0-3.255-3.177,7.891,7.891,0,0,0-2.1-.642,7.7,7.7,0,0,0-2.15-.058,1.078,1.078,0,0,1-.113.008H589.713a8.59,8.59,0,0,0-4.286,1.115,10.558,10.558,0,0,0-3.479,3.3,15.461,15.461,0,0,0-1.183,2.1,12.086,12.086,0,0,0-.764,2.057c-1.854,7.206-3.715,14.693-5.574,22.173-.012.046-.023.092-.035.139l-.951,3.824c-1.464,5.875-2.934,11.771-4.236,17.588a16.511,16.511,0,0,0-.468,5.179,5.528,5.528,0,0,0,2.167,4.107c2.134,1.538,5.149,1.1,7.853.7.555-.081,1.1-.161,1.609-.221h0q6.664-.787,13.527-1.618,6.676-.807,13.521-1.665c3.041-.38,5.775-.725,7.843-.991,2.536-.327,5.138-.669,7.833-1.033l.63-.085c3.517-.474,7.065-.953,10.593-1.565a22.783,22.783,0,0,0,7.032-2.322,12.75,12.75,0,0,0,4.493-3.961,10.718,10.718,0,0,0,1.289-2.652,7.728,7.728,0,0,0,.414-2.488Z" fill="#3e2055" fill-rule="evenodd"/>
          <path id="Trazado_12626" data-name="Trazado 12626" d="M689.262,7500.087a.737.737,0,0,1,0,1.473H582.134a.737.737,0,1,1,0-1.473Z" fill="#d2792f" fill-rule="evenodd"/>
          <rect id="Rectángulo_3385" data-name="Rectángulo 3385" width="5.932" height="0.992" rx="0.362" transform="translate(580.273 7560.451) rotate(-45)" fill="#beaacf"/>
          <path id="Trazado_12627" data-name="Trazado 12627" d="M632.12,7532.95a4.849,4.849,0,0,0-.268-1.112.672.672,0,0,0-.452-.282s-6.821,3.039-7.364,3.3a2.068,2.068,0,0,1-1.06.2,4.234,4.234,0,0,0-.154,1.434l-.607,1.137,1.817-.857,7.622-3.6Z" fill="#d05155" fill-rule="evenodd"/>
          <g id="Grupo_6697" data-name="Grupo 6697">
            <g id="Grupo_6694" data-name="Grupo 6694">
              <path id="Trazado_12628" data-name="Trazado 12628" d="M625.823,7640.476a3.231,3.231,0,1,0-3.232-3.232A3.238,3.238,0,0,0,625.823,7640.476Z" fill="#a590b9" fill-rule="evenodd"/>
              <path id="Trazado_12629" data-name="Trazado 12629" d="M625.823,7675.825a3.232,3.232,0,1,0-3.232-3.232A3.237,3.237,0,0,0,625.823,7675.825Z" fill="#a590b9" fill-rule="evenodd"/>
            </g>
            <g id="Grupo_6695" data-name="Grupo 6695">
              <path id="Trazado_12630" data-name="Trazado 12630" d="M643.928,7644.466a3.231,3.231,0,1,1-4.415-1.182A3.231,3.231,0,0,1,643.928,7644.466Z" fill="#a590b9" fill-rule="evenodd"/>
              <path id="Trazado_12631" data-name="Trazado 12631" d="M613.315,7662.14a3.231,3.231,0,1,1-4.414-1.183A3.231,3.231,0,0,1,613.315,7662.14Z" fill="#a590b9" fill-rule="evenodd"/>
            </g>
            <g id="Grupo_6696" data-name="Grupo 6696">
              <path id="Trazado_12632" data-name="Trazado 12632" d="M643.928,7665.372a3.232,3.232,0,1,1-1.183-4.415A3.231,3.231,0,0,1,643.928,7665.372Z" fill="#a590b9" fill-rule="evenodd"/>
              <path id="Trazado_12633" data-name="Trazado 12633" d="M613.315,7647.7a3.231,3.231,0,1,1-1.183-4.413A3.231,3.231,0,0,1,613.315,7647.7Z" fill="#a590b9" fill-rule="evenodd"/>
            </g>
          </g>
          <g id="Grupo_6701" data-name="Grupo 6701">
            <g id="Grupo_6698" data-name="Grupo 6698">
              <path id="Trazado_12634" data-name="Trazado 12634" d="M778.462,7640.235A3.231,3.231,0,1,0,775.23,7637,3.236,3.236,0,0,0,778.462,7640.235Z" fill="#a590b9" fill-rule="evenodd"/>
              <path id="Trazado_12635" data-name="Trazado 12635" d="M778.462,7675.585a3.231,3.231,0,1,0-3.232-3.232A3.238,3.238,0,0,0,778.462,7675.585Z" fill="#a590b9" fill-rule="evenodd"/>
            </g>
            <g id="Grupo_6699" data-name="Grupo 6699">
              <path id="Trazado_12636" data-name="Trazado 12636" d="M796.567,7644.226a3.231,3.231,0,1,1-4.415-1.183A3.234,3.234,0,0,1,796.567,7644.226Z" fill="#a590b9" fill-rule="evenodd"/>
              <path id="Trazado_12637" data-name="Trazado 12637" d="M765.953,7661.9a3.231,3.231,0,1,1-4.414-1.183A3.228,3.228,0,0,1,765.953,7661.9Z" fill="#a590b9" fill-rule="evenodd"/>
            </g>
            <g id="Grupo_6700" data-name="Grupo 6700">
              <path id="Trazado_12638" data-name="Trazado 12638" d="M796.567,7665.131a3.231,3.231,0,1,1-1.182-4.414A3.232,3.232,0,0,1,796.567,7665.131Z" fill="#a590b9" fill-rule="evenodd"/>
              <path id="Trazado_12639" data-name="Trazado 12639" d="M765.953,7647.457a3.231,3.231,0,1,1-1.182-4.414A3.231,3.231,0,0,1,765.953,7647.457Z" fill="#a590b9" fill-rule="evenodd"/>
            </g>
          </g>
          <g id="Grupo_6705" data-name="Grupo 6705">
            <g id="Grupo_6702" data-name="Grupo 6702">
              <path id="Trazado_12640" data-name="Trazado 12640" d="M874.27,7640.476a3.231,3.231,0,1,0-3.233-3.232A3.237,3.237,0,0,0,874.27,7640.476Z" fill="#a590b9" fill-rule="evenodd"/>
              <path id="Trazado_12641" data-name="Trazado 12641" d="M874.27,7675.825a3.232,3.232,0,1,0-3.233-3.232A3.237,3.237,0,0,0,874.27,7675.825Z" fill="#a590b9" fill-rule="evenodd"/>
            </g>
            <g id="Grupo_6703" data-name="Grupo 6703">
              <path id="Trazado_12642" data-name="Trazado 12642" d="M892.375,7644.466a3.232,3.232,0,1,1-4.415-1.182A3.232,3.232,0,0,1,892.375,7644.466Z" fill="#a590b9" fill-rule="evenodd"/>
              <path id="Trazado_12643" data-name="Trazado 12643" d="M861.761,7662.14a3.232,3.232,0,1,1-4.414-1.183A3.231,3.231,0,0,1,861.761,7662.14Z" fill="#a590b9" fill-rule="evenodd"/>
            </g>
            <g id="Grupo_6704" data-name="Grupo 6704">
              <path id="Trazado_12644" data-name="Trazado 12644" d="M892.375,7665.372a3.232,3.232,0,1,1-1.184-4.415A3.232,3.232,0,0,1,892.375,7665.372Z" fill="#a590b9" fill-rule="evenodd"/>
              <path id="Trazado_12645" data-name="Trazado 12645" d="M861.761,7647.7a3.232,3.232,0,1,1-1.184-4.413A3.231,3.231,0,0,1,861.761,7647.7Z" fill="#a590b9" fill-rule="evenodd"/>
            </g>
          </g>
        </g>
        <path id="Trazado_12646" data-name="Trazado 12646" d="M280.016,7694.638h894.916c3.553,0,6.462,1.727,6.462,3.836h0c0,2.108-2.909,3.835-6.462,3.835h-21.814c-1.976,0-3.592.959-3.592,2.13h0c0,1.172,1.616,2.131,3.592,2.131h7.979c2.469,0,4.489,1.2,4.489,2.663h0c0,1.464-2.02,2.663-4.489,2.663H294.564c-2.469,0-4.491-1.2-4.491-2.663h0c0-1.465,2.022-2.663,4.491-2.663h6.285c1.975,0,3.592-.959,3.592-2.131h0c0-1.172-1.617-2.13-3.592-2.13H280.016c-3.556,0-6.464-1.726-6.464-3.835h0c0-2.109,2.91-3.836,6.464-3.836Zm3.367,17.258c2.371,0,4.31-1.151,4.31-2.556v-.214c0-1.4-1.939-2.556-4.31-2.556h0c-2.37,0-4.309,1.15-4.309,2.556v.214c0,1.405,1.939,2.556,4.309,2.556Z" fill="#241530" fill-rule="evenodd"/>
        <circle id="Elipse_210" data-name="Elipse 210" cx="39.03" cy="39.03" r="39.03" transform="translate(511.229 7498.871) rotate(-89.728)" fill="#86ceea"/>
        <path id="Trazado_12647" data-name="Trazado 12647" d="M978.387,7532.74a32.137,32.137,0,1,1-32.137,32.137A32.136,32.136,0,0,1,978.387,7532.74Z" fill="#86ceea" fill-rule="evenodd"/>
        <g id="Grupo_6707" data-name="Grupo 6707">
          <path id="Trazado_12648" data-name="Trazado 12648" d="M976.51,7594.44a32.137,32.137,0,1,0-32.137-32.137A32.2,32.2,0,0,0,976.51,7594.44Z" fill="#fff" fill-rule="evenodd"/>
          <path id="Trazado_12649" data-name="Trazado 12649" d="M951.977,7555.383l1.27,1.039a.542.542,0,1,0,.685-.841l-2.123-1.734a.544.544,0,0,0-.751,0l-2.123,1.734a.542.542,0,1,0,.683.841l1.271-1.039.513-.417.575.417Zm0,6.956,1.27,1.039a.542.542,0,1,0,.685-.841l-2.123-1.733a.539.539,0,0,0-.751,0l-2.123,1.733a.542.542,0,0,0,.683.841l1.271-1.039.513-.417.575.417Zm0-3.478,1.27,1.038a.542.542,0,1,0,.685-.84l-2.123-1.734a.541.541,0,0,0-.751,0l-2.123,1.734a.541.541,0,0,0,.683.84l1.271-1.038.513-.417Z" fill="#d05155" fill-rule="evenodd"/>
          <circle id="Elipse_211" data-name="Elipse 211" cx="10.197" cy="10.197" r="10.197" transform="matrix(0.981, -0.194, 0.194, 0.981, 990.015, 7535.639)" fill="#3e2055"/>
          <path id="Trazado_12650" data-name="Trazado 12650" d="M997.629,7545.2a1.465,1.465,0,0,1,2.073-2.071l1.2,1.2,3.254-4.439a1.462,1.462,0,0,1,2.359,1.728l-4.206,5.735a1.567,1.567,0,0,1-.2.252,1.463,1.463,0,0,1-2.071,0Z" fill="#fff" fill-rule="evenodd"/>
          <path id="Trazado_12651" data-name="Trazado 12651" d="M949.939,7575.9h53.142a29.853,29.853,0,0,1-53.142,0Z" fill="#ecdeeb" fill-rule="evenodd"/>
          <path id="Trazado_12652" data-name="Trazado 12652" d="M976.51,7575.859a21.062,21.062,0,0,0,6.345-3.891l-16.841-16.839v7.966c0,8.123,8.24,11.885,10.5,12.764Zm8.673-6.62-17-17a21.777,21.777,0,0,0,8.331-3.186,22.868,22.868,0,0,0,10.495,3.467v10.58a11.13,11.13,0,0,1-1.822,6.144Zm-22.747-18.43a1.79,1.79,0,0,1,1.96-1.78c.946,0,6.651-.138,10.993-3.567a1.781,1.781,0,0,1,2.225-.014c4.338,3.438,10.05,3.581,11.007,3.581l.175-.008a1.788,1.788,0,0,1,1.788,1.788V7563.1a14.761,14.761,0,0,1-3.672,9.783,1.778,1.778,0,0,1-.27.348,2.058,2.058,0,0,1-.172.151,24.479,24.479,0,0,1-9.393,6.071,1.771,1.771,0,0,1-1.134,0c-.038-.012-13.508-4.353-13.508-16.353v-12.286Z" fill="#d46b6e" fill-rule="evenodd"/>
        </g>
        <g id="Grupo_6709" data-name="Grupo 6709">
          <path id="Trazado_12653" data-name="Trazado 12653" d="M548.163,7495.93a39.03,39.03,0,1,0-39.03-39.03A39.106,39.106,0,0,0,548.163,7495.93Z" fill="#eaeaea" fill-rule="evenodd"/>
          <path id="Trazado_12654" data-name="Trazado 12654" d="M544.259,7437.36l1.262,1.544a.658.658,0,1,1-1.022.83l-2.105-2.578a.659.659,0,0,1,0-.912l2.105-2.578a.658.658,0,1,1,1.022.83l-1.262,1.545-.507.622.507.7Zm8.448,0,1.261,1.544a.658.658,0,1,1-1.02.83l-2.106-2.578a.659.659,0,0,1,0-.912l2.106-2.578a.658.658,0,1,1,1.02.83l-1.261,1.545-.507.622.507.7Zm-4.224,0,1.262,1.544a.658.658,0,1,1-1.022.83l-2.105-2.578a.659.659,0,0,1,0-.912l2.105-2.578a.658.658,0,1,1,1.022.83l-1.262,1.545-.507.622Z" fill="#d05155" fill-rule="evenodd"/>
          <circle id="Elipse_212" data-name="Elipse 212" cx="12.384" cy="12.384" r="12.384" transform="matrix(0.687, -0.726, 0.726, 0.687, 561.611, 7434.744)" fill="#3e2055"/>
          <path id="Trazado_12655" data-name="Trazado 12655" d="M573.813,7436.128a1.779,1.779,0,1,1,2.517-2.516l1.456,1.456,3.952-5.391a1.775,1.775,0,0,1,2.863,2.1l-5.107,6.964a1.781,1.781,0,0,1-2.762.306Z" fill="#fff" fill-rule="evenodd"/>
          <path id="Trazado_12656" data-name="Trazado 12656" d="M579.78,7474.63a36.254,36.254,0,0,1-63.233,0Z" fill="#cccece" fill-rule="evenodd"/>
          <g id="Grupo_6708" data-name="Grupo 6708">
            <path id="Rectángulo_3386" data-name="Rectángulo 3386" d="M1.8,0H23.631a1.8,1.8,0,0,1,1.8,1.8V23.9a1.8,1.8,0,0,1-1.8,1.8H1.8a1.8,1.8,0,0,1-1.8-1.8V1.8A1.8,1.8,0,0,1,1.8,0Z" transform="translate(542.809 7448.939)" fill="#ca643e"/>
            <path id="Trazado_12657" data-name="Trazado 12657" d="M568.236,7451.456v5.481l-19.094-1.311v-1.712C553.579,7453.334,563.115,7452.093,568.236,7451.456Z" fill="#3e2055" fill-rule="evenodd"/>
            <path id="Rectángulo_3387" data-name="Rectángulo 3387" d="M1.246,0H26.671a1.246,1.246,0,0,1,1.246,1.246V5.689a1.246,1.246,0,0,1-1.246,1.246H1.245A1.245,1.245,0,0,1,0,5.69V1.246A1.246,1.246,0,0,1,1.246,0Z" transform="translate(541.564 7446.744)" fill="#ca643e"/>
            <path id="Rectángulo_3388" data-name="Rectángulo 3388" d="M1.8,0H23.63a1.8,1.8,0,0,1,1.8,1.8V23.9a1.8,1.8,0,0,1-1.8,1.8H1.795A1.795,1.795,0,0,1,0,23.9V1.8A1.8,1.8,0,0,1,1.8,0Z" transform="translate(528.091 7448.939)" fill="#e9b269"/>
            <path id="Trazado_12658" data-name="Trazado 12658" d="M553.39,7450.073a1.753,1.753,0,0,1,.128.661v5.124l-25.427-1.745V7452.4c5.945-.776,21.041-2.743,22.413-2.848A8.709,8.709,0,0,1,553.39,7450.073Z" fill="#ca643e" fill-rule="evenodd"/>
            <path id="Trazado_12659" data-name="Trazado 12659" d="M540.8,7457.307a5.794,5.794,0,1,1-5.793,5.795A5.794,5.794,0,0,1,540.8,7457.307Z" fill="#fff" fill-rule="evenodd"/>
            <rect id="Rectángulo_3389" data-name="Rectángulo 3389" width="2.517" height="2.516" rx="0.364" transform="translate(542.542 7470.591)" fill="#fff"/>
            <rect id="Rectángulo_3390" data-name="Rectángulo 3390" width="2.517" height="2.516" rx="0.364" transform="translate(546.151 7470.591)" fill="#fff"/>
            <rect id="Rectángulo_3391" data-name="Rectángulo 3391" width="2.516" height="2.516" rx="0.364" transform="translate(549.76 7470.591)" fill="#fff"/>
            <path id="Trazado_12660" data-name="Trazado 12660" d="M530.9,7474.63h2.319V7465.7a1.162,1.162,0,0,0-1.159-1.159h0a1.163,1.163,0,0,0-1.16,1.159Z" fill="#3e2055" fill-rule="evenodd"/>
            <rect id="Rectángulo_3392" data-name="Rectángulo 3392" width="27.918" height="6.935" rx="1.246" transform="translate(526.845 7446.744)" fill="#e9b269"/>
            <rect id="Rectángulo_3393" data-name="Rectángulo 3393" width="8.542" height="1.258" rx="0.53" transform="translate(529.846 7450.314)" fill="#fff"/>
            <rect id="Rectángulo_3394" data-name="Rectángulo 3394" width="1.987" height="1.258" rx="0.529" transform="translate(539.48 7450.314)" fill="#fff"/>
            <path id="Trazado_12661" data-name="Trazado 12661" d="M548.386,7446.744H550.7v3.887a1.161,1.161,0,0,1-1.158,1.158h0a1.162,1.162,0,0,1-1.159-1.158Z" fill="#3e2055" fill-rule="evenodd"/>
          </g>
        </g>
      </g>
    </g>
  </g>
</svg>
