<svg xmlns="http://www.w3.org/2000/svg" xmlns:xlink="http://www.w3.org/1999/xlink" width="152.443" height="152.443" viewBox="0 0 152.443 152.443">
  <defs>
    <clipPath id="clip-path">
      <circle id="Elipse_148" data-name="Elipse 148" cx="65.13" cy="65.13" r="65.13" transform="translate(2216.662 4902.392)" fill="none"/>
    </clipPath>
    <clipPath id="clip-path-2">
      <rect id="Rectángulo_2575" data-name="Rectángulo 2575" width="160.009" height="203.747" transform="translate(2189.65 4834.444)" fill="none"/>
    </clipPath>
    <clipPath id="clip-path-3">
      <path id="Trazado_2450" data-name="Trazado 2450" d="M2260.5,4877.616l-.817,43.06s26.288,11.894,48.324.649l2.147-42.663S2296.518,4864.168,2260.5,4877.616Z" fill="none"/>
    </clipPath>
    <linearGradient id="linear-gradient" y1="0.5" x2="1" y2="0.5" gradientUnits="objectBoundingBox">
      <stop offset="0" stop-color="#2f2f2d"/>
      <stop offset="0.456" stop-color="#717273"/>
      <stop offset="0.605" stop-color="#717273"/>
      <stop offset="0.982" stop-color="#2f2f2d"/>
    </linearGradient>
    <clipPath id="clip-path-4">
      <path id="Trazado_2477" data-name="Trazado 2477" d="M2328.751,4948.364l.794-1c-1.717.373-8.295-4.74-9.124-5.391s-7.291-5.907-7.317-7.664l-.794,1s.346.555-.383.482l-.851,1.072s.18.446-.353.445l-1.095,1.378s-.6,2.015,6.9,8.009h0l.086.068c.03.023.057.046.086.069h0c7.539,5.947,9.365,4.909,9.365,4.909l1.095-1.379c-.153-.515.353-.444.353-.444l.851-1.072C2328.132,4948.153,2328.751,4948.364,2328.751,4948.364Z" fill="none"/>
    </clipPath>
    <clipPath id="clip-path-5">
      <path id="Trazado_2494" data-name="Trazado 2494" d="M2271.384,4942.785l.019-1.445c-1.28,1.524-10.715,1.5-11.908,1.487s-10.624-.244-11.864-1.8l-.019,1.445s.694.258-.009.7l-.021,1.55s.47.275-.008.643l-.027,1.993s.86,2.219,11.733,2.4h.124l.125,0v0c10.873.109,11.791-2.086,11.791-2.086l.026-1.993a.349.349,0,0,1,.008-.643l.021-1.55C2270.683,4943.025,2271.384,4942.785,2271.384,4942.785Z" fill="none"/>
    </clipPath>
    <clipPath id="clip-path-6">
      <line id="Línea_19" data-name="Línea 19" x2="7.847" y2="0.177" transform="translate(2341.645 5031.033)" fill="none"/>
    </clipPath>
    <clipPath id="clip-path-7">
      <line id="Línea_20" data-name="Línea 20" x2="8.995" transform="translate(2352.937 5031.209)" fill="none"/>
    </clipPath>
    <clipPath id="clip-path-8">
      <line id="Línea_21" data-name="Línea 21" x1="7.847" y2="0.177" transform="translate(2209.013 5031.033)" fill="none"/>
    </clipPath>
    <clipPath id="clip-path-9">
      <line id="Línea_22" data-name="Línea 22" x1="8.995" transform="translate(2196.573 5031.209)" fill="none"/>
    </clipPath>
    <clipPath id="clip-path-10">
      <path id="Trazado_2534" data-name="Trazado 2534" d="M2352.172,4999.085H2206.333l-12.057,22.68h169.953Z" fill="none"/>
    </clipPath>
    <clipPath id="clip-path-12">
      <path id="Trazado_2542" data-name="Trazado 2542" d="M2280.037,5028.5a1.489,1.489,0,1,1-1.488-1.489A1.488,1.488,0,0,1,2280.037,5028.5Z" fill="none"/>
    </clipPath>
    <linearGradient id="linear-gradient-2" x1="0.5" x2="0.5" y2="1" gradientUnits="objectBoundingBox">
      <stop offset="0" stop-color="#e1fff7"/>
      <stop offset="0.779" stop-color="#9ee8d3"/>
      <stop offset="1" stop-color="#71d4c2"/>
    </linearGradient>
    <clipPath id="clip-path-13">
      <path id="Trazado_2577" data-name="Trazado 2577" d="M2331.47,4970.747l-.027-1.053c-.889,1.145-7.759,1.39-8.628,1.417s-7.743.119-8.689-.979l.027,1.053s.512.168.012.508l.029,1.129s.35.187.012.468l.036,1.452s.689,1.592,8.61,1.417h0l.09,0,.091,0h0c7.92-.225,8.527-1.849,8.527-1.849l-.037-1.452a.255.255,0,0,1-.012-.468l-.028-1.13C2330.966,4970.941,2331.47,4970.747,2331.47,4970.747Z" fill="none"/>
    </clipPath>
    <clipPath id="clip-path-14">
      <path id="Trazado_2582" data-name="Trazado 2582" d="M2331.344,4970.35l-.03-1.125c-.949,1.224-8.291,1.493-9.219,1.522s-8.274.136-9.286-1.037l.029,1.125s.548.18.014.543l.032,1.207s.374.2.013.5l.041,1.552s.737,1.7,9.2,1.5v0l.1,0,.1,0v0c8.464-.248,9.11-1.984,9.11-1.984l-.04-1.552a.272.272,0,0,1-.013-.5l-.032-1.207C2330.806,4970.558,2331.344,4970.35,2331.344,4970.35Z" fill="none"/>
    </clipPath>
  </defs>
  <g id="Grupo_6736" data-name="Grupo 6736" transform="translate(-2205.571 -4890.68)">
    <path id="Trazado_2409" data-name="Trazado 2409" d="M2281.792,4890.68q3.746,0,7.471.366t7.4,1.1q3.673.73,7.256,1.817t7.043,2.52q3.459,1.434,6.762,3.2t6.416,3.845q3.113,2.081,6.008,4.456t5.542,5.023q2.648,2.648,5.023,5.543t4.456,6.008q2.08,3.112,3.846,6.415t3.2,6.762q1.433,3.461,2.52,7.043t1.817,7.256q.73,3.672,1.1,7.4t.367,7.471q0,3.744-.367,7.471t-1.1,7.4q-.731,3.674-1.817,7.256t-2.52,7.043q-1.434,3.459-3.2,6.762t-3.846,6.415q-2.08,3.114-4.456,6.009t-5.023,5.542q-2.647,2.648-5.542,5.023t-6.008,4.456q-3.114,2.081-6.416,3.845t-6.762,3.2q-3.459,1.434-7.043,2.52t-7.256,1.818q-3.672.73-7.4,1.1t-7.471.368q-3.744,0-7.471-.368t-7.4-1.1q-3.672-.731-7.256-1.818t-7.043-2.52q-3.459-1.432-6.761-3.2t-6.416-3.845q-3.114-2.08-6.008-4.456t-5.543-5.023q-2.648-2.647-5.023-5.542t-4.456-6.009q-2.08-3.113-3.845-6.415t-3.2-6.762q-1.434-3.458-2.52-7.043t-1.818-7.256q-.73-3.672-1.1-7.4t-.367-7.471q0-3.744.367-7.471t1.1-7.4q.731-3.672,1.818-7.256t2.52-7.043q1.432-3.459,3.2-6.762t3.845-6.415q2.08-3.114,4.456-6.008T2227.9,4913q2.649-2.648,5.543-5.023t6.008-4.456q3.112-2.08,6.416-3.845t6.761-3.2q3.46-1.433,7.043-2.52t7.256-1.817q3.673-.73,7.4-1.1T2281.792,4890.68Z" fill="#e6b54a"/>
    <circle id="Elipse_139" data-name="Elipse 139" cx="71.597" cy="71.597" r="71.597" transform="translate(2210.196 4895.925)" fill="#fff"/>
    <g id="Grupo_2589" data-name="Grupo 2589">
      <g id="Grupo_2588" data-name="Grupo 2588" clip-path="url(#clip-path)">
        <g id="Grupo_2587" data-name="Grupo 2587">
          <text id="Fuente:_SENA" data-name="Fuente: SENA" transform="translate(2292.646 5004.277)" fill="#353535" font-size="6.812" font-family="ArialMT, Arial"><tspan x="0" y="0">Fuente: SENA</tspan></text>
          <g id="Grupo_2410" data-name="Grupo 2410">
            <g id="Grupo_2409" data-name="Grupo 2409" clip-path="url(#clip-path-2)">
              <g id="Grupo_2408" data-name="Grupo 2408">
                <g id="Grupo_2407" data-name="Grupo 2407">
                  <path id="Trazado_2410" data-name="Trazado 2410" d="M2264.522,5065.155s5.442-5.848,7.3-8.995.136-6.138,1.2-7.062,16.323,3.79,26.849,2.867c8.044-.707,11.612-3.406,13.075-2.479a10.7,10.7,0,0,1,3.432,3.439c1.1,1.62,1.745,2.733,1.745,2.733,1.769,12.5,3.218,26.2,2.917,38.882-.184,7.713.694,45.532,1.128,55.887.467,11.109-2.782,15.808-.94,25.781,1.855,10.054.162,16.9-2.438,18.357-4.928,2.753-4.383,16.033-4.383,16.033l-23.653,1.449c-3.948-10.6-.931-9.612-1.454-15.091-.186-1.941-2.594-2.677-2.525-4.65.384-10.777,1.647-43.284.927-43.24s-1.918,34.722-4.674,46.9c-.443,1.958-2.14,3.415-2.547,3.966-2.792,3.785-1.7,10.869-2.357,12.235s-9.4,3.1-15.168,1.62-8.751-1.091-8.751-1.091-.432-6.378-1.191-12.119c-.293-2.205-2.07-.94-3.387-4.14s-1.657-11.539,1.223-18.347c2.07-4.894,1.55-19.1,2.07-24.276,1-9.951,3.261-20.482,3.586-24.722.495-6.448.753-27.216.867-31s-.3-9.788-.3-9.788l5.376-6.786-.807-4.85Z" fill="#e4cc31"/>
                  <path id="Trazado_2411" data-name="Trazado 2411" d="M2318.583,5193.314c-2.155,1.988-3.481.662-5.969,1.657a20.932,20.932,0,0,1-8.289,1.16c-2.322-.166-1-1.492-1-1.492s-3.479,2.321-6.962,1.326c-.308-.087-.632-.181-.969-.277-1.553-3.644-4.086-9.822-4.086-11.388,0-2.257,2.823-2.447,2.823-2.447s-3.952-10.348-3.2-14.678.189-14.222.376-16.748c.376-5.081-.754-16.371-.754-16.371s-4.368,9.741-5.248,18.372c-.232,2.279-2.278,26.98-2.843,30.744s.189,10.725-.565,12.795c-.054.152-.12.316-.19.487a29.391,29.391,0,0,0-3.581.837c-1.825.664-3.315,1.659-6.465,2.819s-4.975.5-7.957-.829-3.316-2.984-3.316-2.984.331,2.487-3.151,2.321c-3.233-.154-7.464-3.167-8.053-3.6a9.579,9.579,0,0,0,.442,1.415c1.317,3.2,3.094,1.935,3.387,4.14.26,1.969.482,4.012.661,5.846,2.484.663,5.182,1.3,5.885,1.478,1.326.332,11.438-.166,12.765-.662.766-.288,3.7-.965,6.288-1.548a11.956,11.956,0,0,1,1.868-5.759c.2-.278.741-.789,1.277-1.477.349-.179.558-.458.653-.309a4.648,4.648,0,0,0,1.841-2.273c2.754-12.181,2.728-46.764,3.45-46.808s-1.1,34.033-1.48,44.812c-.062,1.774,2.8,2.2,2.8,2.2l.155.335a2.373,2.373,0,0,1,.119.546,15.04,15.04,0,0,1-.477,5.056,51.494,51.494,0,0,0,7.874,1.911,68.679,68.679,0,0,0,12.6.829c3.247,0,4.052-.174,5.388-.588.441-3.8,3.964-9.073,3.964-9.073s3.03-1.365,2.8-5.987A10.141,10.141,0,0,1,2318.583,5193.314Z" fill="#d3bb2f" stroke="#d3bb2f" stroke-miterlimit="10" stroke-width="2"/>
                  <g id="Grupo_2369" data-name="Grupo 2369">
                    <path id="Trazado_2412" data-name="Trazado 2412" d="M2290.391,5238.554l.183,3,11.02,1.406,1.057-1.2a48.722,48.722,0,0,0,15.666,3.382c8.309.249,16.694-1.392,20.182-2.924a11.365,11.365,0,0,0,4.867-3.691l-.536-2.606-.564.035s-5.526,5.238-15.938,4.552-22.027-2.619-27.519-3.037S2290.391,5238.554,2290.391,5238.554Z" fill="#e9d639"/>
                    <path id="Trazado_2413" data-name="Trazado 2413" d="M2288.289,5195.923c1.192-.975,8.477,4.914,17.037,3.074s12.962-4.888,13.229-3.584c.159.772-1.413,10.029-1.745,18.431a35.165,35.165,0,0,0,1.558,11.12,40.469,40.469,0,0,0,13.45,3.526c6.808.34,10.122,5.227,10.448,7.471,0,0-1.053,4.4-13.414,5.718a72.706,72.706,0,0,1-27.112-2.5c-4.411-1.237-11.349-.626-11.349-.626s-2.973-5.476-.694-14.476C2291.088,5218.591,2287.095,5196.9,2288.289,5195.923Z" fill="#272729"/>
                    <path id="Trazado_2414" data-name="Trazado 2414" d="M2288.289,5195.923c-1.194.974,2.8,22.668,1.408,28.155-2.279,9,.694,14.476.694,14.476s.91-.08,2.276-.123c-.073-.162-.14-.314-.2-.458-1.048-2.617-2.016-5.2-.969-7.946s2.67-8.545,1.885-11.16c-.639-2.129-.5-16.279-.424-21.5C2290.5,5196.386,2288.811,5195.5,2288.289,5195.923Z" fill="#161a17"/>
                  </g>
                  <path id="Trazado_2415" data-name="Trazado 2415" d="M2251.516,5198.816c1.124-.872,8.649,4.255,17.393,3.788,9.8-.521,13.291-5.772,13.506-4.457.126.776-1.627,8.163-2.3,16.545a76.49,76.49,0,0,0,.144,11.854s2.03,3.773,8.359,6.3c8.44,3.375,11.862,11.91,7.893,15.863,0,0-3.69,3.935-20.139,3.377-12.425-.42-23.988-10.565-23.988-10.565a31.05,31.05,0,0,1,.646-15.92C2254.641,5220.179,2250.391,5199.692,2251.516,5198.816Z" fill="#272729"/>
                  <path id="Trazado_2416" data-name="Trazado 2416" d="M2252.924,5238.684c-.189-3.01,1.693-9.6,3.011-13.361,1.128-3.223-.368-20.666-.818-25.6-1.9-.729-3.185-1.224-3.6-.9-1.125.876,3.125,21.363,1.514,26.789a31.05,31.05,0,0,0-.646,15.92s.36.314,1.019.837C2253.172,5240.963,2252.983,5239.63,2252.924,5238.684Z" fill="#161a17"/>
                  <path id="Trazado_2417" data-name="Trazado 2417" d="M2275.575,5248.752c-12.4-.972-21.747-8.926-23.756-10.767a30.055,30.055,0,0,0,.565,3.54s11.563,10.145,23.988,10.565c16.449.558,20.139-3.377,20.139-3.377a5.623,5.623,0,0,0,1.595-3.377C2295.562,5247.207,2289.514,5249.844,2275.575,5248.752Z" fill="#e9d639"/>
                  <g id="Grupo_2370" data-name="Grupo 2370">
                    <path id="Trazado_2418" data-name="Trazado 2418" d="M2255.01,5132.48a81.138,81.138,0,0,1,15.617-2.738c5.877-.445,11.965-.2,17.366,2.378.514.246,1.149.5,1.595.127a1.812,1.812,0,0,0,.436-1.288l.366-5.295a1.817,1.817,0,0,0-.136-1.052,1.5,1.5,0,0,0-.978-.569l-11.333-3.026a17.117,17.117,0,0,0-5.184-.827,17.4,17.4,0,0,0-6.049,1.843l-10.143,4.5C2254.654,5127.379,2255.361,5132.382,2255.01,5132.48Z" fill="#d3bb2f" stroke="#d3bb2f" stroke-miterlimit="10" stroke-width="2"/>
                    <path id="Trazado_2419" data-name="Trazado 2419" d="M2293.318,5132.833a1.675,1.675,0,0,0,.233,1.328,1.311,1.311,0,0,0,1.171.216l16.7-2.356c2.656-.374,5.312-.749,7.962-1.17a2.437,2.437,0,0,0,1.846-.916,2.843,2.843,0,0,0,.3-1.294,34.729,34.729,0,0,0-.1-5.559,2.007,2.007,0,0,0-.281-.99,1.617,1.617,0,0,0-1.447-.465c-7.478.288-14.6,4.6-22.06,4.018C2293.02,5125.289,2293.755,5128.716,2293.318,5132.833Z" fill="#d3bb2f" stroke="#d3bb2f" stroke-miterlimit="10" stroke-width="2"/>
                  </g>
                  <path id="Trazado_2420" data-name="Trazado 2420" d="M2267.932,5043.63h-19.948c3.475,3.068,9.2,2.32,13.946,1.332q3.323-.693,6.656-1.325C2268.368,5043.635,2268.151,5043.63,2267.932,5043.63Z" fill="#fefefe" stroke="#5e5e5e" stroke-miterlimit="10" stroke-width="2"/>
                  <path id="Trazado_2421" data-name="Trazado 2421" d="M2206.609,4994.576c4.387,2.146,12.692,1.241,20.583-2.31,3.343-1.5,9.041-5.313,13.85-7.654a10.4,10.4,0,0,0,1.98-1.282c.385,3.671,1.907,7.543,2.318,12.026q.618,6.753,1.237,13.507c.586,6.394,1.168,12.88.032,19.2-.6,3.354-1.6,7.048-1.226,10.306q13.038-.01,26.074.022c6.465.02,12.839,1.132,19.257,1.727q12.609-1.626,25.308-2.408c.405-.025.106,1.242-.36,2.784q4.525,0,9.053-.007c.065,0,.126.005.189.009-.733-7.893-3.376-18.863-4.04-23.808-.96-7.154,4.442-17.932,4.374-25.15-.071-7.6-3.626-16.1-4.239-23.672a25.083,25.083,0,0,0-6.13-14.824,19.208,19.208,0,0,0-14.462-6.44c-4.185.125-8.158,1.786-11.954,3.553-5.865,2.729-11.578,5.77-17.289,8.809l-6.624,3.526c.891-6.959.011-14.795-1.344-16.453,0,0-4.557,1.137-23.644,9.081a91.453,91.453,0,0,0-35.563,26.117s-.6,6.314-.021,8.307C2204.488,4991.321,2204.943,4993.761,2206.609,4994.576Z" fill="#fefefe" stroke="#5e5e5e" stroke-miterlimit="10" stroke-width="2"/>
                  <path id="Trazado_2422" data-name="Trazado 2422" d="M2324.715,5045.726c-2.832,0-5.673.036-8.519.076,3.114.531,8.364,2.782,8.678,1.137a11.805,11.805,0,0,0,.158-1.23A2.9,2.9,0,0,1,2324.715,5045.726Z" fill="#fefefe" stroke="#5e5e5e" stroke-miterlimit="10" stroke-width="2"/>
                  <path id="Trazado_2423" data-name="Trazado 2423" d="M2263.2,4946.036s-4.557,1.137-23.644,9.081a91.453,91.453,0,0,0-35.563,26.117l11.326,13.206s14.268-5.139,44.184-20.978C2266.443,4969.77,2265.514,4948.872,2263.2,4946.036Z" fill="#fcfcfb"/>
                  <path id="Trazado_2424" data-name="Trazado 2424" d="M2332.134,5106.606a7.115,7.115,0,0,1-.753-2.314,15.3,15.3,0,0,1,.424-3.713c1.41-11.259,1.346-30,2.181-46.715.267-5.35-12.961-19.66-14.579-24.785-7.433-23.533-4.977-36.349-8.019-61.233-.825-6.748-6.552-11.511-11.3-15.309-1.1-.883-7.058-2.3-8.383-2.187s-3.591-.781-4.739,0c-6.46,4.4-2.942,4.824-10.205,2.916-4.041-1.061-3.157-4.856-7.29-5.1-17.611-1.05-14.939,33.649-17.688,49.4-.725,4.151-1.314,8.445-3.122,12.094-1.837,3.71-4.767,6.422-7.457,9.3a4.323,4.323,0,0,0-1.2,1.9c-.342,1.431.556,2.815,1.34,3.973a55.646,55.646,0,0,1,6.358,13.55q11.88-.007,23.758.022c8.776.027,17.385,2.069,26.164,2.1,9.031.027,18.063,0,27.094,0,3.377,0,3.372,5.24,0,5.24-10.325,0-20.782.477-31.091-.1-8.624-.488-17.021-1.991-25.692-1.991h-18.606c.654,2.282,1.264,4.583,1.866,6.869,1.656,6.283-4.389,8.444-4.318,15.029.049,4.527.574,16.664,0,21.14-1.661,12.934-4.6,31.036-4.01,44.1,10.994-2.974,31.69-9.819,41.885-4.08a22.254,22.254,0,0,0,5.922,2.777,16.573,16.573,0,0,0,6.077-.2l28.87-4.565c2.8-.443,5.666-.909,8.175-2.458a14.833,14.833,0,0,0,6.389-10.134A9.484,9.484,0,0,1,2332.134,5106.606Z" fill="#f5e52e" stroke="#c4b316" stroke-miterlimit="10" stroke-width="4"/>
                  <path id="Trazado_2425" data-name="Trazado 2425" d="M2254.281,4951.327a3.819,3.819,0,0,0-1.554,1.032,2.82,2.82,0,0,0-.1,2.954,8.281,8.281,0,0,0,2.043,2.335l8,7.1a18.083,18.083,0,0,0,3.944,2.908,6.1,6.1,0,0,0,4.759.436c1.468-.557,2.53-1.819,3.776-2.774s3.021-1.606,4.352-.774a5.444,5.444,0,0,1,1.442,1.631,20.925,20.925,0,0,0,4.251,4.508,8.444,8.444,0,0,0,4.186,1.982,7.116,7.116,0,0,0,3.529-.643,6.158,6.158,0,0,0,2.477-1.771c1.619-2.072.971-5.22-.658-7.284s-4.008-3.363-6.187-4.834a50.656,50.656,0,0,0-4.637-3.045c-2.885-1.517-6.159-2.075-9.338-2.794a86.075,86.075,0,0,1-8.6-2.418c-1.987-.671-4.533-1.6-6.606-.743C2257.69,4949.828,2255.978,4950.6,2254.281,4951.327Z" fill="#9d9fa2" opacity="0.42"/>
                  <path id="Trazado_2426" data-name="Trazado 2426" d="M2275.456,4942.205a73.03,73.03,0,0,1,25.738.6,13.024,13.024,0,0,1-25.738-.6Z" fill="#5d1f1f"/>
                  <path id="Trazado_2427" data-name="Trazado 2427" d="M2299.249,4941.511l-.043-.011h0Z" fill="#dbdcdd"/>
                  <path id="Trazado_2428" data-name="Trazado 2428" d="M2275.942,4942.072l.048-.011h0Z" fill="#dbdcdd"/>
                  <path id="Trazado_2429" data-name="Trazado 2429" d="M2315.265,4947.729a4.772,4.772,0,0,1,5.964.434c.758.667,3.151-1.247,4.009-.364s2.724,1.067,3.645,2.187c1.2,1.463,3.136,6.842,4.374,8.748,2.042,3.143,1.08,7.158,2.916,11.663.716,1.766,2.317,8.581,2.916,10.206,8.24,22.378,3.671,29.1,3.671,29.1l-16.651.812s-1.667-12.426-15.535-48.437C2307.316,4953.68,2311.141,4948.45,2315.265,4947.729Z" fill="#fefefe" stroke="#5e5e5e" stroke-miterlimit="10" stroke-width="2"/>
                  <path id="Trazado_2430" data-name="Trazado 2430" d="M2293.528,4962c-.641-.807-1.437-1.49-1.485-2.607,0-.144-.193.08-.214.128a2.571,2.571,0,0,0,.534,2.452,6.215,6.215,0,0,0,1.245,1.149,10.444,10.444,0,0,1,1.5.924c.08.064.272-.166.224-.246C2294.863,4963.082,2294.062,4962.665,2293.528,4962Z" fill="#69b0e3"/>
                  <path id="Trazado_2431" data-name="Trazado 2431" d="M2301.573,4955.667a13.24,13.24,0,0,1-.94-1.875c-.177-.416-.171-.913-.374-1.3-.048-.085-.155.091-.155.128a5.015,5.015,0,0,0,.913,3.59c.6.935,1.518,1.528,2.2,2.388.053.07.2-.133.176-.2A13.741,13.741,0,0,0,2301.573,4955.667Z" fill="#69b0e3"/>
                  <g id="Grupo_2371" data-name="Grupo 2371">
                    <path id="Trazado_2432" data-name="Trazado 2432" d="M2221.57,4991.9l.534-.534c4.215-4.017,8.847-8.36,12.079-13.227a61.614,61.614,0,0,0,7.874-16.026c.913-3,1.683-6.042,2.479-9.082-1.544.636-3.206,1.32-5.006,2.068a91.444,91.444,0,0,0-35.562,26.117l11.325,13.206S2217.382,4993.687,2221.57,4991.9Z" fill="#dbdcdd"/>
                  </g>
                  <path id="Trazado_2433" data-name="Trazado 2433" d="M2224.973,4957.713c-10.209,8.863-21.326,23.559-21.326,23.559-4.241,10.54,4.3,17.6,11.668,13.157,5.876-3.547,15.812-17.741,19.765-23.2C2233.077,4965.625,2230,4960.555,2224.973,4957.713Z" fill="#fefefe" stroke="#5e5e5e" stroke-miterlimit="10" stroke-width="2"/>
                  <path id="Trazado_2434" data-name="Trazado 2434" d="M2219.748,4978.27a64.029,64.029,0,0,0,6.384,5.01c3.633-4.594,7.014-9.37,8.954-12.046-2.009-5.609-5.086-10.684-10.113-13.521a136.262,136.262,0,0,0-12.719,13.046A85.791,85.791,0,0,0,2219.748,4978.27Z" fill="#dbdcdd"/>
                  <g id="Grupo_2385" data-name="Grupo 2385">
                    <path id="Trazado_2435" data-name="Trazado 2435" d="M2331.641,4944.427a59.87,59.87,0,0,0-1.782-6.751c-1.694-5.733-1.747-11.29-1.816-17.207a81.431,81.431,0,0,0-6.743-30.894,27.881,27.881,0,0,1-2.5-8.26c-.221-2.536.426-5.034.186-7.575-.267-2.808-.98-5.449-.176-8.254.683-2.379,2.914-4.266,3.232-6.721.586-4.517-6.441-4.049-9.146-4.476-5.51-.87-8.28-6.285-13.448-7.944a13.617,13.617,0,0,0-6.637-.425c-2.745.513-5.154,2.07-7.884,2.619-3.04.61-5.508-1.127-8.454-1.354a11.451,11.451,0,0,0-6.342,1.415.144.144,0,0,0-.1.026c-.084.058-.169.113-.254.171-.056.033-.115.061-.171.094a.154.154,0,0,0-.057.06c-2.989,2.022-6.171,3.706-9.308,5.486-2.047,1.161-4.424,2.322-5.869,4.257a6.206,6.206,0,0,0-.468,6.4c1.212,2.8,4.784,5.033,4.91,8.167a.15.15,0,0,0-.048.087q-.73,4.611-1.463,9.222a54.39,54.39,0,0,1-1.535,8.3c-.952,2.924-3.172,4.834-5.142,7.063a39.316,39.316,0,0,0-4.4,6.23c-5.944,10.166-1.913,23.142-6.454,33.975a64.611,64.611,0,0,0,1.458,6.561c2.018-.633,1.6-5.259,3.281-6.561,1.843-1.431,2.884-.753,5.1-1.458,3.224-1.024,2.6-1.209,3.644,1.458.86,2.2-2.444.123-2.034,2.431a32.158,32.158,0,0,0,5.087,12.436c1.368,2.052,2.9,3.992,4.457,5.9,1.225,1.494,2.432,3.321,4.032,4.43,3.726,2.582,7.884-.289,11.224-2.066,1.529-.813,2.781-1.684,4.413-.949,1.531.69,2.159,2.2,3.062,3.585,1,1.536,2,3.865,3.834,4.6,3.122,1.251,8.243-.516,11.131-1.7a27.093,27.093,0,0,0,10.246-7.317c3.514-4.07,5.712-8.707,11.222-10.427a14.368,14.368,0,0,1,7.4-.335c1.159.261,3.2,4.719,4.026.163A14.92,14.92,0,0,0,2331.641,4944.427Z" fill="#fefefe" stroke="#5e5e5e" stroke-miterlimit="10" stroke-width="1"/>
                    <g id="Grupo_2374" data-name="Grupo 2374">
                      <g id="Grupo_2373" data-name="Grupo 2373" clip-path="url(#clip-path-3)">
                        <g id="Grupo_2372" data-name="Grupo 2372">
                          <path id="Trazado_2436" data-name="Trazado 2436" d="M2304.906,4853.767c6.79,3.318,33,50.408,14.643,74.661a40.228,40.228,0,0,0,0-13.318c.262,6.17-2.906,12.041-7.415,16.8a14.514,14.514,0,0,0-.192-8.654c-14.547,18.7-39.793,14.546-46.476,4.332a14.507,14.507,0,0,0,1.416,8.547,25.527,25.527,0,0,1-10.4-15.139,45.447,45.447,0,0,0,2.457,13.088c-22.517-20.439-4.647-72.3,1.411-76.814Z" fill="#4e3017"/>
                          <path id="Trazado_2437" data-name="Trazado 2437" d="M2280.205,4910.607h15.748a.058.058,0,0,1,.059.059h0v29.883a7.923,7.923,0,0,1-7.9,7.9h0a7.922,7.922,0,0,1-7.906-7.9Z" fill="#ca9f7a"/>
                          <path id="Trazado_2438" data-name="Trazado 2438" d="M2281.935,4848.73c30.637-2.853,36.006,32.88,32,57.555-2.03,12.5-15.038,24.52-24.275,25.38-9.5.887-24.514-9.615-29.552-22.383C2251.042,4886.236,2251.929,4851.529,2281.935,4848.73Z" fill="#e3b78c"/>
                          <path id="Trazado_2439" data-name="Trazado 2439" d="M2273.308,4885.761c1.213-.113,2.42,2.249,2.7,5.277s-.47,5.572-1.683,5.684-2.42-2.249-2.671-5.278S2272.1,4885.873,2273.308,4885.761Z" fill="#4e4e4e"/>
                          <path id="Trazado_2440" data-name="Trazado 2440" d="M2296.167,4883.634c1.212-.112,2.42,2.249,2.7,5.273s-.47,5.572-1.678,5.684-2.425-2.249-2.7-5.273S2294.959,4883.747,2296.167,4883.634Z" fill="#4e4e4e"/>
                          <path id="Trazado_2441" data-name="Trazado 2441" d="M2253.088,4889.522c1.945-.588,4.5,2.169,5.711,6.154s.6,7.7-1.346,8.291-4.5-2.169-5.711-6.154S2251.149,4890.115,2253.088,4889.522Z" fill="#e3b78c"/>
                          <path id="Trazado_2442" data-name="Trazado 2442" d="M2317,4883.571c-2.025-.219-4.028,2.959-4.477,7.1s.823,7.676,2.848,7.9,4.027-2.959,4.476-7.1S2319.02,4883.811,2317,4883.571Z" fill="#e3b78c"/>
                          <path id="Trazado_2443" data-name="Trazado 2443" d="M2284.558,4904.111c5.567.625,7.479-2.917,7.271-5.716C2293.688,4903.406,2290.232,4906.542,2284.558,4904.111Z" fill="#bf978a"/>
                          <path id="Trazado_2444" data-name="Trazado 2444" d="M2291.119,4878.784c2.094-1.17,5.459-3.3,10.374-1.069,2.211,1,2.1,1.833-.278.983-4.049-1.437-6.026.038-9.349,1.79C2290.579,4881.172,2289.7,4879.574,2291.119,4878.784Z" fill="#6a5238"/>
                          <path id="Trazado_2445" data-name="Trazado 2445" d="M2277.16,4880.082c-2.271-.759-5.973-2.228-10.391.865-1.987,1.4-1.725,2.191.454.919,3.74-2.163,5.93-1.068,9.52.032C2278.137,4882.331,2278.73,4880.6,2277.16,4880.082Z" fill="#6a5238"/>
                          <path id="Trazado_2446" data-name="Trazado 2446" d="M2255.193,4890.927c.417,2.623,3.355,7.837,2.639,1.688s-1.33-21.705,4.509-28.741,13.574-4.027,20.3-4.652h.32c6.71-.625,13.761-5.017,20.8.822s9.3,21.235,9.738,27.41,2.356.535,2.287-2.136c-.086-3.142,1.309-11.876-4.893-23.441-4.472-8.334-9.755-14.333-25.877-14.926-4.68-.144-11.534.481-15.573,5.3-9.407.887-13.323,10.914-15.144,16.668C2250.337,4881.434,2254.691,4887.818,2255.193,4890.927Z" fill="#4e3017"/>
                          <path id="Trazado_2447" data-name="Trazado 2447" d="M2311.739,4871.252a145.135,145.135,0,0,1-16.368,3.146,63.814,63.814,0,0,0-5.828-12.644c.689,4.7,1.4,9.38,1.816,13.221-6.042.834-12.543,1.576-18.468,2.057-.224-2.981-.352-6.6-.5-10.23a49.263,49.263,0,0,0-2.628,10.46,83.814,83.814,0,0,1-13.569.1c1.6-15.711,10.016-23.409,23.751-24.691S2306.99,4854.921,2311.739,4871.252Z" fill="#442d19"/>
                        </g>
                        <path id="Trazado_2448" data-name="Trazado 2448" d="M2257.808,4873.08c.729,0,6.561,2.551,6.561,2.551l-4.009,47.018-5.1.729-3.645-23.691Z" fill="#442d19" opacity="0.39"/>
                        <path id="Trazado_2449" data-name="Trazado 2449" d="M2314.06,4871.783c-.725-.077-6.8,1.84-6.8,1.84l-1.011,47.178,5,1.268,6.143-23.17Z" fill="#442d19" opacity="0.39"/>
                      </g>
                    </g>
                    <path id="Trazado_2451" data-name="Trazado 2451" d="M2259.266,4886.714l.471,15.343s13.835,14.9,25.82,13.1,19.961-3.459,23.757-10.567l2.074-19.616s-5.6-8.19-26.943-6.081C2284.445,4878.892,2268.408,4879.428,2259.266,4886.714Z" fill="#fefefe" opacity="0.33"/>
                    <path id="Trazado_2452" data-name="Trazado 2452" d="M2309.314,4904.589l.12-1.138c-10.2,9.987-14.462,8.313-25.338,10.086-10.824,1.765-23.613-12.2-24.408-13.077l.049,1.6s13.835,14.9,25.82,13.1S2305.518,4911.7,2309.314,4904.589Z" fill="#424242" opacity="0.65"/>
                    <path id="Trazado_2453" data-name="Trazado 2453" d="M2278.993,4945.422a3.033,3.033,0,0,0-2.521-.521,4.627,4.627,0,0,0,1.667,2.039c.352.237.8.586.638.978-.131.32-.561.358-.906.345l-4.192-.162a16.461,16.461,0,0,1-3.191-.333,22.687,22.687,0,0,0-3.283-.846.578.578,0,0,0-.461.1.48.48,0,0,0-.116.322c-.039.814.772,1.415,1.552,1.652a7.845,7.845,0,0,1,2.31.756c.4.279.7.687,1.09.971,2.048,1.474,5.325-1.017,7.307.546.559.441,1.109,1.21,1.778.966a1.415,1.415,0,0,0,.571-.488c.769-.943,2.666-2.378,1.886-3.513S2280.168,4946.09,2278.993,4945.422Z" fill="#9d9fa2" opacity="0.42"/>
                    <path id="Trazado_2454" data-name="Trazado 2454" d="M2283.4,4955.158a6.569,6.569,0,0,0,2.264,1.586,5.326,5.326,0,0,1,1.393.546c.811.588.968,1.871,1.877,2.292.813.377,1.765-.149,2.654-.037,1.069.134,1.993,1.177,3.038.918a1.549,1.549,0,0,0,1.032-1.8,2.14,2.14,0,0,0-1.562-1.526,10.511,10.511,0,0,1-2.189-.431c-.574-.3-.942-.894-1.5-1.226a11.628,11.628,0,0,0-2.376-.616c-1.5-.5-2.4-2.779-3.838-3.038C2282.1,4951.447,2282.383,4954.2,2283.4,4955.158Z" fill="#9d9fa2" opacity="0.42"/>
                    <path id="Trazado_2455" data-name="Trazado 2455" d="M2308.975,4952.637c2.054-.26,3.708-1.729,5.376-2.956a13.154,13.154,0,0,1,6.008-2.716c2.249-.282,4.541.335,6.788.042.487-.064,1.055-.248,1.18-.721.156-.59-.506-1.072-1.1-1.208-1.478-.338-3.026.232-4.531.051-1.8-.216-3.647-1.466-5.257-.646-.881.448-1.384,1.409-2.2,1.966-1.245.849-2.943.675-3.79,2.023C2310.949,4949.268,2310.122,4952.492,2308.975,4952.637Z" fill="#9d9fa2" opacity="0.42"/>
                    <path id="Trazado_2456" data-name="Trazado 2456" d="M2317.385,4865.512a1.035,1.035,0,0,0,.08-.664.828.828,0,0,0-.423-.427c-1.1-.586-2.445-.084-3.679-.235a9.284,9.284,0,0,1-2.02-.626,13.776,13.776,0,0,0-7.3-.592c.327.716,1.218.919,1.961,1.175,1.3.447,2.424,1.289,3.676,1.857a18.691,18.691,0,0,0,4.017,1.145C2316.107,4867.643,2316.524,4867.936,2317.385,4865.512Z" fill="#9d9fa2" opacity="0.42"/>
                    <path id="Trazado_2457" data-name="Trazado 2457" d="M2254.308,4876.627a2.384,2.384,0,0,0-.987,1.023,2.5,2.5,0,0,0,.7,2.224c.789,1.066,1.8,2.245,3.126,2.181a4.355,4.355,0,0,0,2.257-1.111,34.289,34.289,0,0,1,14.811-6.323c2.236-.373,4.5-.522,6.765-.67l10.47-.688a21.341,21.341,0,0,1,6.056.179,20.807,20.807,0,0,1,6.959,3.53,23.293,23.293,0,0,0,6.894,3.673c2.53.674,5.5.333,7.331-1.536a4.18,4.18,0,0,0,1.265-2.695c.062-1.613-1.046-3.033-2.245-4.115-5.745-5.184-14.166-5.922-21.9-5.743a137.794,137.794,0,0,0-20.027,1.932C2268.483,4869.736,2260.466,4872.465,2254.308,4876.627Z" fill="#fefefe" stroke="#5e5e5e" stroke-miterlimit="10" stroke-width="1"/>
                    <g id="Grupo_2376" data-name="Grupo 2376" opacity="0.42">
                      <g id="Grupo_2375" data-name="Grupo 2375">
                        <path id="Trazado_2458" data-name="Trazado 2458" d="M2283.1,4941.248c.095.065-1.135,2.444-1.022,2.961.139.639.759.94,1.1,1.463,1.2,1.82-.52,3.768-1.6,5.175-1.064,1.387-3.137,3.016-3.509,4.81-.3,1.436.629,3.071,1.309,4.264a.547.547,0,0,0,.944-.552c-.63-1.106-1.4-2.387-1.033-3.661.371-1.3,1.688-2.374,2.527-3.4,1.157-1.421,3.119-3.437,3.027-5.417a3.484,3.484,0,0,0-.818-1.952c-.362-.464-.847-.638-.824-1.246.013-.334.372-.75.523-1.057.406-.827.84-1.7-.077-2.327-.582-.4-1.13.549-.552.944Z" fill="#9d9fa2"/>
                      </g>
                    </g>
                    <path id="Trazado_2459" data-name="Trazado 2459" d="M2284.445,4878.892s-16.037.536-25.179,7.822l.051,1.653c3.256-1.554,15.67-7.178,25.446-7.505,10.3-.344,19.67,2.959,26.422,6.028l.2-1.917S2305.785,4876.783,2284.445,4878.892Z" fill="#193181" opacity="0.76"/>
                    <g id="Grupo_2377" data-name="Grupo 2377">
                      <path id="Trazado_2460" data-name="Trazado 2460" d="M2269.222,4916.858s6.233-24.79,13.237-25.453c5.316-.5,16.733,19.286,15.48,26.1S2269.222,4916.858,2269.222,4916.858Z" fill="#fefefe"/>
                      <path id="Trazado_2461" data-name="Trazado 2461" d="M2271.648,4914.986s5.158-20.516,10.955-21.065c4.4-.416,13.847,15.961,12.811,21.6S2271.648,4914.986,2271.648,4914.986Z" fill="#2e6da0"/>
                    </g>
                    <g id="Grupo_2384" data-name="Grupo 2384">
                      <g id="Grupo_2378" data-name="Grupo 2378">
                        <path id="Trazado_2462" data-name="Trazado 2462" d="M2313.089,4922.645a28.474,28.474,0,0,0,.333-4.341c-.1-1.6-.7-1.656-1.424-1.777-2.031-.34-10.549-1.626-10.549-1.626s-.894,6.859-1,7.1c-.092.214-.755.363-.906.4-.026-.169-.052-.338-.084-.5l-.01-.1-.012,0a16.046,16.046,0,0,0-31.711,1.6c-.254-.046-.691-.146-.774-.311-.118-.238-1.449-7.026-1.449-7.026s-8.418,1.829-10.423,2.3c-.719.167-1.312.256-1.308,1.864a28.454,28.454,0,0,0,.61,4.311s-1.053-1.207.461,6.416c1.537,7.75,2.354,6.632,2.354,6.632a12.494,12.494,0,0,0,.526,2.391c.54,2.012,1.795,1.262,1.795,1.262l10.705-1.571-.973-6.929.357-.127a16.047,16.047,0,0,0,28.664-.96l.5.142-.528,6.978,10.784.883s1.3.668,1.71-1.374a12.406,12.406,0,0,0,.372-2.42s.887,1.063,1.925-6.769C2314.062,4921.374,2313.089,4922.645,2313.089,4922.645Z" stroke="#424242" stroke-miterlimit="10" stroke-width="2" fill="url(#linear-gradient)"/>
                      </g>
                      <circle id="Elipse_140" data-name="Elipse 140" cx="11.9" cy="11.9" r="11.9" transform="translate(2271.802 4913.02)" fill="#d8d8d8" stroke="#424242" stroke-miterlimit="10" stroke-width="2"/>
                      <g id="Grupo_2383" data-name="Grupo 2383">
                        <g id="Grupo_2380" data-name="Grupo 2380">
                          <g id="Grupo_2379" data-name="Grupo 2379">
                            <path id="Trazado_2463" data-name="Trazado 2463" d="M2283.984,4933.743a8.828,8.828,0,1,1,8.541-9.106A8.838,8.838,0,0,1,2283.984,4933.743Zm-.537-16.769a7.95,7.95,0,1,0,8.2,7.691A7.958,7.958,0,0,0,2283.447,4916.974Z" fill="#717273"/>
                          </g>
                        </g>
                        <g id="Grupo_2382" data-name="Grupo 2382">
                          <g id="Grupo_2381" data-name="Grupo 2381">
                            <path id="Trazado_2464" data-name="Trazado 2464" d="M2283.907,4931.33a6.414,6.414,0,1,1,6.205-6.616A6.422,6.422,0,0,1,2283.907,4931.33Zm-.382-11.944a5.536,5.536,0,1,0,5.71,5.356A5.543,5.543,0,0,0,2283.525,4919.386Z" fill="#717273"/>
                          </g>
                        </g>
                      </g>
                      <path id="Trazado_2465" data-name="Trazado 2465" d="M2295.24,4923.181l-10.1.226-.226-10.124-3.071.1.226,10.1-10.124.227.1,3.071,10.1-.226.226,10.125,3.071-.1-.225-10.1,10.124-.226Z" fill="#717273" stroke="#424242" stroke-miterlimit="10" stroke-width="2"/>
                    </g>
                    <path id="Trazado_2466" data-name="Trazado 2466" d="M2245.724,4908.215a31.152,31.152,0,0,0-2.713,10.553c-.435,5.75.677,11.852-1.777,17.069l2.8-4.392a12.341,12.341,0,0,0,1.62-3.191,15.157,15.157,0,0,0,.3-4.069,33.189,33.189,0,0,1,6.5-19.5c.952-1.28,5.824-10.214,1.156-7.68C2250.154,4898.885,2247.293,4904.776,2245.724,4908.215Z" fill="#9d9fa2" opacity="0.42"/>
                    <path id="Trazado_2467" data-name="Trazado 2467" d="M2317.261,4887.413c1.1,1.653,2.538,3.081,3.42,4.857,1.334,2.69,1.234,5.852,2.077,8.734.455,1.553,1.182,3.018,1.609,4.58a26.811,26.811,0,0,1,.549,7.453q-.057,4.252.082,8.5a26.129,26.129,0,0,0,.928,7.072c.507,1.6,1.3,3.1,1.71,4.732.628,2.494.329,5.174,1.148,7.612a4.027,4.027,0,0,1,.353,1.577c-.045.541-.485,1.1-1.024,1.04-.6-.065-.87-.761-1.019-1.342-2.086-8.15-4.186-16.408-4.151-24.821.016-3.993.51-8.041-.326-11.945a35.708,35.708,0,0,0-2.281-6.461,77.828,77.828,0,0,0-3.307-7.078,23.525,23.525,0,0,1-1.971-3.981,18.046,18.046,0,0,1-.659-4.481c-.093-1.5.531-2.246,1.4-.775C2316.563,4883.98,2316.284,4885.941,2317.261,4887.413Z" fill="#9d9fa2" opacity="0.42"/>
                    <path id="Trazado_2468" data-name="Trazado 2468" d="M2283.455,4862.6a4.838,4.838,0,0,0-4.331-.644,43.712,43.712,0,0,0-4.22,1.7,48.384,48.384,0,0,1-7.549,1.679,39.79,39.79,0,0,0-10.149,3.324c3.492.634,8.42-1.922,11.81-2.8q3.637-.941,7.3-1.766C2277.275,4863.883,2282.793,4862.048,2283.455,4862.6Z" fill="#9d9fa2" opacity="0.42"/>
                  </g>
                  <g id="Grupo_2394" data-name="Grupo 2394">
                    <g id="Grupo_2393" data-name="Grupo 2393">
                      <g id="Grupo_2392" data-name="Grupo 2392">
                        <g id="Grupo_2387" data-name="Grupo 2387">
                          <path id="Trazado_2469" data-name="Trazado 2469" d="M2303.609,4988.756l16.24-20.453c3.162-3.982,5.425-7.849,4.707-11.347s.47-4.956.47-4.956l-8.449-5.224-7-7.046s-1.151,1.489-4.721,1.582-6.823,3.174-9.984,7.156l-16.24,20.453s-7.022,7.427,5.95,17.894l0,0,.129.1.125.1,0,0C2297.967,4997.278,2303.609,4988.756,2303.609,4988.756Z" fill="#75c8da" opacity="0.78"/>
                          <g id="Grupo_2386" data-name="Grupo 2386">
                            <path id="Trazado_2470" data-name="Trazado 2470" d="M2313.847,4950.214s4.8,4.7,8.338,5.369c0,0,1.73,4.234-7.567,15.622A18.235,18.235,0,0,0,2313.847,4950.214Z" fill="#b8f5ff"/>
                            <path id="Trazado_2471" data-name="Trazado 2471" d="M2292.97,4991.52c-18.176-11.2-13.619-20.944-12.876-21.881l13.513-17.018c6.075-7.651,9.8-9.782,12.731-9.621s3.955-1.194,3.955-1.194l-.075-1.428-.644-.648s-1.151,1.489-4.721,1.582-6.823,3.174-9.984,7.156l-16.24,20.453s-7.022,7.427,5.95,17.894l0,0,.129.1.125.1,0,0a25.049,25.049,0,0,0,8.138,4.5Z" fill="#5baebc"/>
                          </g>
                          <path id="Trazado_2472" data-name="Trazado 2472" d="M2314.855,4971.577c-3.175-.742-6.572.131-9.729-.684-2.008-.519-3.879-1.711-5.954-1.7-2.01.012-3.86,1.162-5.864,1.317a25.206,25.206,0,0,1-4.179-.4,4.757,4.757,0,0,0-3.916,1.081c-.561.588-.9,1.424-1.628,1.784-1.216.6-2.952-.412-3.919.537a2.494,2.494,0,0,0-.566,1.252,29.089,29.089,0,0,0-.541,2.878c.811,2.491,2.774,5.458,6.85,8.747l0,0,.12.093.117.1,0,0c12.279,9.593,17.554,1.626,17.554,1.626l12.9-16.241A10.375,10.375,0,0,0,2314.855,4971.577Z" fill="#fffad2"/>
                        </g>
                        <g id="Grupo_2391" data-name="Grupo 2391">
                          <path id="Trazado_2473" data-name="Trazado 2473" d="M2329.545,4947.365c-.781.983-5.095-1.141-9.635-4.746s-7.587-7.325-6.806-8.309,5.095,1.141,9.635,4.746S2330.326,4946.381,2329.545,4947.365Z" fill="#5cb5c4"/>
                          <path id="Trazado_2474" data-name="Trazado 2474" d="M2328.751,4948.364l.794-1c-1.717.373-8.295-4.74-9.124-5.391s-7.291-5.907-7.317-7.664l-.794,1s.346.555-.383.482l-.851,1.072s.18.446-.353.445l-1.095,1.378s-.6,2.015,6.9,8.009h0l.086.068c.03.023.057.046.086.069h0c7.539,5.947,9.365,4.909,9.365,4.909l1.095-1.379c-.153-.515.353-.444.353-.444l.851-1.072C2328.132,4948.153,2328.751,4948.364,2328.751,4948.364Z" fill="#75c8da"/>
                          <g id="Grupo_2390" data-name="Grupo 2390">
                            <g id="Grupo_2389" data-name="Grupo 2389" clip-path="url(#clip-path-4)">
                              <g id="Grupo_2388" data-name="Grupo 2388" opacity="0.5">
                                <path id="Trazado_2475" data-name="Trazado 2475" d="M2312.31,4935.31a42.776,42.776,0,0,0,16.441,13.054l-.383.483a40.641,40.641,0,0,1-16.441-13.055Z" fill="#258e7a"/>
                                <path id="Trazado_2476" data-name="Trazado 2476" d="M2311.076,4936.864a42.767,42.767,0,0,0,16.441,13.055l-.383.483a40.652,40.652,0,0,1-16.442-13.055Z" fill="#258e7a"/>
                              </g>
                            </g>
                          </g>
                        </g>
                      </g>
                    </g>
                  </g>
                  <g id="Grupo_2399" data-name="Grupo 2399">
                    <path id="Trazado_2478" data-name="Trazado 2478" d="M2316.856,4991.982l11.767,22.8s1.409,3.712,9.4.808c10.508-3.826,4.271-15.391,4.271-15.391l-11.738-16.363S2322.378,4982.846,2316.856,4991.982Z" fill="#fefefe" stroke="#5e5e5e" stroke-miterlimit="10" stroke-width="2"/>
                    <path id="Trazado_2479" data-name="Trazado 2479" d="M2334,4987.4l-9.119-9.4s2.6-1.45,1.716-8.536,4.189-10.124.454-12.431-5.854,6.307-6.177,9.4c0,0-2.858-13.417-11.457-17.494a2.568,2.568,0,0,0-2.712.316c-1.393,1.048-.41,3.5,2.454,6.35,3.071,3.057,4.458,8.813,4.515,10.281,0,0-7.344-13.51-13.223-14.07,0,0-3.589-.111-2.505,3.419.635,2.033,5.119,6.165,7.022,8.745a15.306,15.306,0,0,1,2.432,4.389s-8.589-9.272-14.423-10.422c0,0-3.431.475-2.989,3.566.3,2.082,1.252,2.719,4.093,4.242s7.725,6.506,7.725,6.506-6.966-4.03-11.885-3.556c0,0-4.431.7-3.24,3.049s4.99,3.539,8.706,4.382,7.289,2.575,8.164,3.714,5.666,6.416,8.723,5.168l6.767,12.657A25.875,25.875,0,0,0,2334,4987.4Z" fill="#1da262"/>
                    <g id="Grupo_2397" data-name="Grupo 2397">
                      <g id="Grupo_2396" data-name="Grupo 2396">
                        <g id="Grupo_2395" data-name="Grupo 2395" opacity="0.5">
                          <path id="Trazado_2480" data-name="Trazado 2480" d="M2287.128,4969.846c3.419-.619,6.683.482,10.087,1.725a34.347,34.347,0,0,1,6.908,3.29,11.486,11.486,0,0,0-2.408-2.732l.135.138s-6.966-4.03-11.885-3.557A6.761,6.761,0,0,0,2287.128,4969.846Z" fill="#00773b"/>
                          <path id="Trazado_2481" data-name="Trazado 2481" d="M2308.978,4972.24a20.627,20.627,0,0,0-1.983-4.3c-1.8-1.868-8.927-8.966-13.978-9.962a4.387,4.387,0,0,0-2.235,1.079,9.117,9.117,0,0,1,4.171,1.285A46.261,46.261,0,0,1,2308.978,4972.24Z" fill="#00773b"/>
                          <path id="Trazado_2482" data-name="Trazado 2482" d="M2313.14,4953.132a34.993,34.993,0,0,1,7.357,17.238,14.532,14.532,0,0,0,.371-3.955c-.145-.667-3.075-13.492-11.455-17.463a2.585,2.585,0,0,0-2.535.211l.536.027C2309.68,4949.367,2311.8,4951.487,2313.14,4953.132Z" fill="#00773b"/>
                          <path id="Trazado_2483" data-name="Trazado 2483" d="M2332.839,4988.981c.408-.5.8-1.018,1.178-1.577l-9.119-9.4s2.6-1.45,1.717-8.536,4.189-10.124.453-12.431a2.506,2.506,0,0,0-.77-.32,3.427,3.427,0,0,1,.506,2.649c-.234,1.322-.907,2.521-1.13,3.853a33.418,33.418,0,0,0-.3,4.743c-.052,2.292-.1,4.819-1.132,6.945a13.3,13.3,0,0,1-1.787,2.688C2325.819,4981.493,2329.245,4985.319,2332.839,4988.981Z" fill="#00773b"/>
                          <path id="Trazado_2484" data-name="Trazado 2484" d="M2314.338,4970.846a13.032,13.032,0,0,0-.667-5.15,1.229,1.229,0,0,1,.01.2s-7.344-13.511-13.223-14.07a3.17,3.17,0,0,0-2.267.888c1.534-.017,3.656,1.242,4.9,2.314A45.5,45.5,0,0,1,2314.338,4970.846Z" fill="#00773b"/>
                        </g>
                        <path id="Trazado_2485" data-name="Trazado 2485" d="M2312.342,4984.108c-4.723-.435-7.584-4.861-11.069-7.507-1.584-1.194-3.247-1.4-5.159-1.782-2.852-.576-5.955-1.449-8.191-3.387-.056-.05-.191.133-.151.184,3.13,4.124,8.911,3.341,13.184,5.4,4.422,2.129,5.6,7.7,11.243,7.343C2312.291,4984.378,2312.439,4984.119,2312.342,4984.108Z" fill="#00773b" opacity="0.5"/>
                        <path id="Trazado_2486" data-name="Trazado 2486" d="M2316.185,4989.234a13.094,13.094,0,0,0-1.89-3.057c-.056-.061-.2.144-.166.2.623,1.039.994,2.261,1.614,3.333s1.177,2.156,1.838,3.187c.057.078.181-.1.157-.168A37.274,37.274,0,0,0,2316.185,4989.234Z" fill="#00773b" opacity="0.5"/>
                        <path id="Trazado_2487" data-name="Trazado 2487" d="M2310.157,4954.039c-1.165-1.279-2.9-2.461-2.935-4.4,0-.113-.152.055-.161.082-.471,1.307.247,2.507,1.041,3.527a15.278,15.278,0,0,0,2.029,1.772,11.83,11.83,0,0,1,2.149,3.2c.052.078.187-.106.162-.169A11.215,11.215,0,0,0,2310.157,4954.039Z" fill="#00773b" opacity="0.5"/>
                        <path id="Trazado_2488" data-name="Trazado 2488" d="M2325.554,4957.347c-2.636.772-3.166,4.97-3.551,7.129-.047.248.261-.013.293-.127.87-2.183,1.035-5.341,3.175-6.741C2325.5,4957.6,2325.691,4957.3,2325.554,4957.347Z" fill="#00773b" opacity="0.5"/>
                      </g>
                    </g>
                    <g id="Grupo_2398" data-name="Grupo 2398">
                      <path id="Trazado_2489" data-name="Trazado 2489" d="M2321.74,4999.774l6.813,13.472a5.292,5.292,0,0,0,6.243,2.841,16.369,16.369,0,0,1-4.994-3.641c-2.344-2.51-7.156-12.845-7.156-12.845Z" fill="#c6c6c6" opacity="0.8"/>
                    </g>
                  </g>
                  <g id="Grupo_2403" data-name="Grupo 2403">
                    <path id="Trazado_2490" data-name="Trazado 2490" d="M2271.4,4941.34c-.019,1.423-5.355,2.506-11.92,2.419s-11.871-1.31-11.852-2.732,5.355-2.506,11.92-2.42S2271.422,4939.917,2271.4,4941.34Z" fill="#db9405"/>
                    <path id="Trazado_2491" data-name="Trazado 2491" d="M2271.384,4942.785l.019-1.445c-1.28,1.524-10.715,1.5-11.908,1.487s-10.624-.244-11.864-1.8l-.019,1.445s.694.258-.009.7l-.021,1.55s.47.275-.008.643l-.027,1.993s.86,2.219,11.733,2.4h.124l.125,0v0c10.873.109,11.791-2.086,11.791-2.086l.026-1.993a.349.349,0,0,1,.008-.643l.021-1.55C2270.683,4943.025,2271.384,4942.785,2271.384,4942.785Z" fill="#efa500"/>
                    <g id="Grupo_2402" data-name="Grupo 2402">
                      <g id="Grupo_2401" data-name="Grupo 2401" clip-path="url(#clip-path-5)">
                        <g id="Grupo_2400" data-name="Grupo 2400">
                          <path id="Trazado_2492" data-name="Trazado 2492" d="M2247.612,4942.472a48.434,48.434,0,0,0,23.772.313l-.009.7a46.018,46.018,0,0,1-23.772-.313Z" fill="#db9405"/>
                          <path id="Trazado_2493" data-name="Trazado 2493" d="M2247.582,4944.72a48.434,48.434,0,0,0,23.772.313l-.009.7a46.017,46.017,0,0,1-23.772-.313Z" fill="#db9405"/>
                        </g>
                      </g>
                    </g>
                  </g>
                  <g id="Grupo_2404" data-name="Grupo 2404">
                    <path id="Trazado_2495" data-name="Trazado 2495" d="M2261.2,4932.958c-3.579-1.57-25.108,3.5-30.22,9.413s-6.411,14.231-6.411,14.231l-12.34,12.506,15.492,13.633,9.616-13.938s4.674-.037,5.032-5.876l.823-3.451,2.628.6s-2.853,1.907-2.089,4.807,6.122-.272,7.746-4.556,6.566-8.43,4.728-12.966-5.08-5.139-5.08-5.139,1.886-2.858,3.739-3.285c.935-.214,2.42-.171,3.74-.363,4.364,4.583,8.755,2.831,8.8.192C2267.512,4936.019,2261.2,4932.958,2261.2,4932.958Z" fill="#1da262"/>
                    <path id="Trazado_2496" data-name="Trazado 2496" d="M2262.351,4938.3c-3.141-2.137-6.186-2.788-9.722-1.068-2.783,1.373-5.342,3.739-7.826,5.518,4.081-.39,7.975.1,7.564,4.707a.534.534,0,0,1-.534.534c-1.031.075-2.062.107-3.093.149,1.229.412,2.756,1.026,3.248,2.255.534,1.314-.7,2.746-1.95,3.071a11.012,11.012,0,0,1-3.739.171c1.511.935,2.553,2.191,1.939,4.343a.534.534,0,0,1-.653.381h0c-2.137-.406-4.274-.636-6.379-.919-.935,4.9-3.173,11.592-7.986,9.706a94.639,94.639,0,0,0-5.93,7.565,49.3,49.3,0,0,1-3.5,4.594l3.943,3.462,9.615-13.938s4.675-.037,5.032-5.876l.823-3.451,2.628.6s-2.852,1.907-2.088,4.808,6.122-.272,7.746-4.557,6.565-8.429,4.727-12.965-5.08-5.139-5.08-5.139,1.886-2.858,3.74-3.285c.934-.214,2.42-.171,3.739-.364,4.012,4.21,8.013,3.072,8.7.807C2265.375,4940.309,2264.045,4939.481,2262.351,4938.3Z" fill="#00773b"/>
                  </g>
                  <g id="Grupo_2405" data-name="Grupo 2405">
                    <path id="Trazado_2497" data-name="Trazado 2497" d="M2244.61,4953.06s6.026,1.192,6.833,2.725-.112,4.712-.112,4.712.427-3.5-.588-4.712S2244.61,4953.06,2244.61,4953.06Z" fill="#00773b"/>
                    <path id="Trazado_2498" data-name="Trazado 2498" d="M2244.984,4947.7s10.15.422,10.556,5.342C2255.54,4953.06,2256.854,4947.382,2244.984,4947.7Z" fill="#00773b"/>
                    <path id="Trazado_2499" data-name="Trazado 2499" d="M2244.984,4942.718s3.441-1.068,5.994-.331C2250.978,4942.387,2248.644,4941.014,2244.984,4942.718Z" fill="#00773b"/>
                    <path id="Trazado_2500" data-name="Trazado 2500" d="M2250.951,4934.107c.877-.267-14.9,4.444-18.51,7.655-3.51,3.125-6.918,14.5-6.918,14.5s4.862-10.6,7.976-13.826C2237.751,4938.017,2250.951,4934.107,2250.951,4934.107Z" fill="#00773b"/>
                    <path id="Trazado_2501" data-name="Trazado 2501" d="M2242.938,4948.033s5.583-.721,8.211,1.833A23.119,23.119,0,0,0,2242.938,4948.033Z" fill="#00773b"/>
                    <path id="Trazado_2502" data-name="Trazado 2502" d="M2241.24,4944.577s4.9-2.8,8.285-1.469A23.084,23.084,0,0,0,2241.24,4944.577Z" fill="#00773b"/>
                    <path id="Trazado_2503" data-name="Trazado 2503" d="M2241.966,4953.381s3.82,0,5.059,1.261C2247.025,4954.642,2242.848,4954.188,2241.966,4953.381Z" fill="#00773b"/>
                  </g>
                  <path id="Trazado_2504" data-name="Trazado 2504" d="M2242.691,5044.5c-.4,4.239-3.4,7.852-3.317,12.175" fill="none" stroke="#d3bb2f" stroke-miterlimit="10" stroke-width="2"/>
                  <path id="Trazado_2505" data-name="Trazado 2505" d="M2243.608,5037.451c-1.039-3.186-4.19-4.815-5.885-7.564-1.292-2.093-1.5-6.174,1.728-6.657-2.763.747-4.036,3.834-3.943,6.476.124,3.551,2.839,5.466,4.957,7.946" fill="none" stroke="#d3bb2f" stroke-miterlimit="10" stroke-width="2"/>
                  <path id="Trazado_2506" data-name="Trazado 2506" d="M2240.4,5068.929a15.623,15.623,0,0,0,3.607-11.721c-.46-4.471-4.62-8.436-1.586-12.671" fill="none" stroke="#d3bb2f" stroke-miterlimit="10" stroke-width="2"/>
                  <path id="Trazado_2507" data-name="Trazado 2507" d="M2241.221,5019.261a11.572,11.572,0,0,0-.426-5.356,5.193,5.193,0,0,0-3.878-3.419,3.4,3.4,0,0,0-3.862,2.884,4.147,4.147,0,0,0,1.891,3.3c1.059.79,2.3,1.3,3.406,2.022a4.689,4.689,0,0,1,2.279,3.092" fill="none" stroke="#d3bb2f" stroke-miterlimit="10" stroke-width="2"/>
                  <path id="Trazado_2508" data-name="Trazado 2508" d="M2233.547,5016.057c-1.562-.436-3.525-.515-4.506.776a3,3,0,0,0,.563,3.83,5.7,5.7,0,0,0,3.937,1.287c1.672,0,7.506.354,6.917-1.565C2239.8,5018.243,2235.429,5016.582,2233.547,5016.057Z" fill="none" stroke="#d3bb2f" stroke-miterlimit="10" stroke-width="2"/>
                  <g id="Grupo_2406" data-name="Grupo 2406" opacity="0.57">
                    <path id="Trazado_2509" data-name="Trazado 2509" d="M2271.073,5049.424a31.032,31.032,0,0,1,3.313,3.234c.854,1.018,1.576,2.143,2.42,3.17a34,34,0,0,0,4.411,4.217,38.664,38.664,0,0,0,8.18,5.791,51.449,51.449,0,0,0,5.529,2.037,40.255,40.255,0,0,0,5.98,1.78c3.286.572,6.654.1,9.957-.366,2.446-.348,5.02-.749,6.955-2.285a77.334,77.334,0,0,1-42.152-15.776c-2.353-1.81-5.705-5.247-8.755-5.5C2268.238,5047.014,2269.687,5048.2,2271.073,5049.424Z" fill="#ddc54b"/>
                    <path id="Trazado_2510" data-name="Trazado 2510" d="M2296.346,5038.061a.549.549,0,0,0,.16.414c.152.111.365.036.538-.041,7.816-3.463,16.777-2.629,25.278-1.729-4.411-.768-8.529-2.861-12.97-3.434-3.15-.406-6.705-.155-9.078-2.266-2.19-1.948-2.52-5.17-3.159-8.03a21.281,21.281,0,0,0-2.841-6.937c-.991-1.529-3.358-4.8-5.324-4.823.044,1.767,2.046,4.428,2.739,6.159a62.361,62.361,0,0,1,2.239,6.711A78.7,78.7,0,0,1,2296.346,5038.061Z" fill="#ddc54b"/>
                    <path id="Trazado_2511" data-name="Trazado 2511" d="M2303.349,4992.386a15.575,15.575,0,0,1-6.322.741,46.067,46.067,0,0,1,12.874,1.449,29.894,29.894,0,0,0,1.07-4.7c.179-1.7-.169-2.262-1.351-.9C2307.9,4990.963,2305.861,4991.733,2303.349,4992.386Z" fill="#ddc54b"/>
                    <path id="Trazado_2512" data-name="Trazado 2512" d="M2239.78,5020.886c2.977-.255,5.806,1.45,8.792,1.509a16.06,16.06,0,0,0,2.137-.148l4.446-.506c.849-.1,3.332.069,3.866-.658.412-.561-.2-2.4-.655-2.88-.685-.734-1.234-.546-2.126-.35C2250.705,5019.069,2245.454,5020.4,2239.78,5020.886Z" fill="#ddc54b"/>
                    <path id="Trazado_2513" data-name="Trazado 2513" d="M2246.834,5023.456a30.485,30.485,0,0,1,5.754,1.866l-1.8,3.776a6.689,6.689,0,0,0-4.08-3.328l-3.91-1.4c-.971-.347-4.737-2.975-2.179-3.367.883-.136,2.166.863,2.944,1.21A28.25,28.25,0,0,0,2246.834,5023.456Z" fill="#ddc54b"/>
                    <path id="Trazado_2514" data-name="Trazado 2514" d="M2253.307,5115.6a58.918,58.918,0,0,1,12.861,1.185c10.845,2,21.446,5.4,32.423,6.458a30.893,30.893,0,0,0,10.833-.5q-2.834-.468-5.665-.942c-7.083-1.187-14.2-2.411-21-4.7-7.932-2.672-15.67-6.827-24.039-6.707a48.179,48.179,0,0,0-5.847.56,7.537,7.537,0,0,0-6.749,3.992c-.647.917-1.369,1.821-1.931,2.787,1.407-.242,2.809-1.171,4.255-1.516A21.286,21.286,0,0,1,2253.307,5115.6Z" fill="#ddc54b"/>
                  </g>
                </g>
                <path id="Trazado_2515" data-name="Trazado 2515" d="M2320.884,5002.565a18.207,18.207,0,0,0,.814,4.258,10.772,10.772,0,0,0,.7,1.292l.792,1.32c.587.978,1.176,1.959,1.856,2.876a18.207,18.207,0,0,0,3.23,3.349,5.947,5.947,0,0,0,2.89,1.445,7.046,7.046,0,0,0,2.325-.234c3.32-.715,6.894-1.578,9.072-4.183a7.892,7.892,0,0,0,.768-8.763,14.252,14.252,0,0,1-1.069-1.878c-.249-.643-.314-1.344-.543-2a8.339,8.339,0,0,0-1.061-1.89l-6.144-9.015c-.319-.468-.726-.985-1.292-.991a1.75,1.75,0,0,0-.851.3,53.165,53.165,0,0,0-9.529,6.926c-.825.754-2.576,1.5-2.871,2.514C2319.612,4999.118,2320.679,5001.327,2320.884,5002.565Z" fill="#fefefe" stroke="#5e5e5e" stroke-miterlimit="10" stroke-width="2"/>
              </g>
            </g>
          </g>
          <g id="Grupo_2434" data-name="Grupo 2434">
            <g id="Grupo_2433" data-name="Grupo 2433">
              <g id="Grupo_2413" data-name="Grupo 2413">
                <path id="Trazado_2516" data-name="Trazado 2516" d="M2349.492,5038.589v-7.38l-7.847-.176v7.721Q2345.568,5038.616,2349.492,5038.589Z" fill="#a35402"/>
                <path id="Trazado_2517" data-name="Trazado 2517" d="M2341.645,5038.754v-7.721l-1.087-.809v8.571C2340.92,5038.781,2341.283,5038.766,2341.645,5038.754Z" fill="#6c3604"/>
                <g id="Grupo_2412" data-name="Grupo 2412">
                  <g id="Grupo_2411" data-name="Grupo 2411" clip-path="url(#clip-path-6)">
                    <path id="Trazado_2518" data-name="Trazado 2518" d="M2349.69,5038.587l.271-7.375-10.246-.1-.9,4.243,8.148,3.262Q2348.325,5038.6,2349.69,5038.587Z" fill="#f4a660" opacity="0.4"/>
                  </g>
                </g>
                <path id="Trazado_2519" data-name="Trazado 2519" d="M2341.59,5034.073V5038" fill="none" stroke="#fff" stroke-miterlimit="10" stroke-width="0.481" opacity="0.6"/>
              </g>
              <g id="Grupo_2416" data-name="Grupo 2416">
                <path id="Trazado_2520" data-name="Trazado 2520" d="M2361.933,5038.638v-7.429h-9v7.364C2355.935,5038.573,2358.934,5038.6,2361.933,5038.638Z" fill="#a35402"/>
                <path id="Trazado_2521" data-name="Trazado 2521" d="M2352.937,5038.573v-7.717l-2.1-.216v7.939Q2351.888,5038.575,2352.937,5038.573Z" fill="#6c3604"/>
                <g id="Grupo_2415" data-name="Grupo 2415">
                  <g id="Grupo_2414" data-name="Grupo 2414" clip-path="url(#clip-path-7)">
                    <path id="Trazado_2522" data-name="Trazado 2522" d="M2364.044,5038.664l.028-7.455-13.139.035-.283,7.336C2355.113,5038.556,2359.578,5038.606,2364.044,5038.664Z" fill="#f4a660" opacity="0.4"/>
                  </g>
                </g>
                <path id="Trazado_2523" data-name="Trazado 2523" d="M2353.027,5034.142l0,3.567" fill="none" stroke="#fff" stroke-miterlimit="10" stroke-width="0.481" opacity="0.6"/>
              </g>
              <g id="Grupo_2419" data-name="Grupo 2419">
                <path id="Trazado_2524" data-name="Trazado 2524" d="M2216.86,5038.789v-7.756l-7.847.177v7.579Z" fill="#a35402"/>
                <path id="Trazado_2525" data-name="Trazado 2525" d="M2218.007,5038.789h.08v-8.9l-1.227,1.144v7.756Z" fill="#6c3604"/>
                <g id="Grupo_2418" data-name="Grupo 2418">
                  <g id="Grupo_2417" data-name="Grupo 2417" clip-path="url(#clip-path-8)">
                    <path id="Trazado_2526" data-name="Trazado 2526" d="M2210.76,5038.789l8.812-3.527-.938-4.242-10.211.1.283,7.673Z" fill="#f4a660" opacity="0.4"/>
                  </g>
                </g>
                <path id="Trazado_2527" data-name="Trazado 2527" d="M2216.8,5038l-.005-3.923" fill="none" stroke="#fff" stroke-miterlimit="10" stroke-width="0.481" opacity="0.6"/>
              </g>
              <g id="Grupo_2422" data-name="Grupo 2422">
                <rect id="Rectángulo_2576" data-name="Rectángulo 2576" width="8.996" height="7.579" transform="translate(2196.573 5031.209)" fill="#a35402"/>
                <path id="Trazado_2528" data-name="Trazado 2528" d="M2207.542,5038.789l-.014-8.079-1.959.146v7.933Z" fill="#6c3604"/>
                <g id="Grupo_2421" data-name="Grupo 2421">
                  <g id="Grupo_2420" data-name="Grupo 2420" clip-path="url(#clip-path-9)">
                    <path id="Trazado_2529" data-name="Trazado 2529" d="M2207.694,5038.789l-.314-7.641-13.1.062.029,7.579Z" fill="#f4a660" opacity="0.4"/>
                  </g>
                </g>
                <path id="Trazado_2530" data-name="Trazado 2530" d="M2205.626,5033.847v4.228" fill="none" stroke="#fff" stroke-miterlimit="10" stroke-width="0.481" opacity="0.6"/>
              </g>
              <path id="Trazado_2531" data-name="Trazado 2531" d="M2352.172,4999.085H2206.333l-12.057,22.68h169.953Z" fill="#f4a660"/>
              <path id="Trazado_2532" data-name="Trazado 2532" d="M2279.63,5021.765h-84.1v12.324h167.453v-12.324Z" fill="#bf6922"/>
              <g id="Grupo_2424" data-name="Grupo 2424">
                <g id="Grupo_2423" data-name="Grupo 2423" clip-path="url(#clip-path-10)">
                  <path id="Trazado_2533" data-name="Trazado 2533" d="M2390.3,5014.43l-62.154-5.264h-95.24l-66.531,5.264v-32.665H2390.3Z" fill="#f4a660" opacity="0.3"/>
                </g>
              </g>
              <path id="Trazado_2535" data-name="Trazado 2535" d="M2279.623,5021.756h-85.346v1.349H2364.2v-1.349Z" fill="#ea934b"/>
              <line id="Línea_23" data-name="Línea 23" x1="169.927" transform="translate(2194.276 5021.756)" fill="none" stroke="#fff" stroke-miterlimit="10" stroke-width="0.5" opacity="0.6"/>
              <path id="Trazado_2536" data-name="Trazado 2536" d="M2193.149,5021.719l12.213-22.59,146.85-.99,12.38,22.7Z" fill="none"/>
              <g id="Grupo_2428" data-name="Grupo 2428">
                <g id="Grupo_2427" data-name="Grupo 2427" clip-path="url(#clip-path-10)">
                  <g id="Grupo_2425" data-name="Grupo 2425" opacity="0.6">
                    <line id="Línea_24" data-name="Línea 24" x2="195.759" transform="translate(2182.554 5013.094)" fill="none" stroke="#a35402" stroke-miterlimit="10" stroke-width="1.101"/>
                    <line id="Línea_25" data-name="Línea 25" x2="195.759" transform="translate(2182.554 5012.851)" fill="none" stroke="#c17633" stroke-miterlimit="10" stroke-width="0.5"/>
                    <line id="Línea_26" data-name="Línea 26" x2="195.759" transform="translate(2182.554 5013.406)" fill="none" stroke="#fff" stroke-miterlimit="10" stroke-width="0.5" opacity="0.6"/>
                  </g>
                  <g id="Grupo_2426" data-name="Grupo 2426" opacity="0.6">
                    <line id="Línea_27" data-name="Línea 27" x2="195.759" transform="translate(2182.554 5005.695)" fill="none" stroke="#a35402" stroke-miterlimit="10" stroke-width="1.101"/>
                    <line id="Línea_28" data-name="Línea 28" x2="195.759" transform="translate(2182.554 5005.452)" fill="none" stroke="#c17633" stroke-miterlimit="10" stroke-width="0.5"/>
                    <line id="Línea_29" data-name="Línea 29" x2="195.759" transform="translate(2182.554 5006.008)" fill="none" stroke="#fff" stroke-miterlimit="10" stroke-width="0.5" opacity="0.6"/>
                  </g>
                </g>
              </g>
              <path id="Trazado_2538" data-name="Trazado 2538" d="M2279.63,5023.009h-84.1v2.734h167.453v-2.734Z" fill="#f4a660" opacity="0.4"/>
              <g id="Grupo_2432" data-name="Grupo 2432">
                <path id="Trazado_2539" data-name="Trazado 2539" d="M2279.412,5024.78h-35.385v7.544h70.452v-7.544Zm34.41,6.878h-69.138v-6.212h69.138Z" fill="#a35402"/>
                <g id="Grupo_2431" data-name="Grupo 2431">
                  <circle id="Elipse_141" data-name="Elipse 141" cx="1.667" cy="1.667" r="1.667" transform="translate(2276.882 5026.83)" fill="#a35402"/>
                  <path id="Trazado_2540" data-name="Trazado 2540" d="M2280.037,5028.5a1.489,1.489,0,1,1-1.488-1.489A1.488,1.488,0,0,1,2280.037,5028.5Z" fill="#bf6922"/>
                  <g id="Grupo_2430" data-name="Grupo 2430">
                    <g id="Grupo_2429" data-name="Grupo 2429" clip-path="url(#clip-path-12)">
                      <path id="Trazado_2541" data-name="Trazado 2541" d="M2277.038,5028.888a3.081,3.081,0,0,0,3.048-.052s-.183,1.8-1.772,1.771S2276.882,5029.383,2277.038,5028.888Z" fill="#f4a660" opacity="0.3"/>
                    </g>
                  </g>
                </g>
              </g>
            </g>
          </g>
          <ellipse id="Elipse_142" data-name="Elipse 142" cx="11.089" cy="3.76" rx="11.089" ry="3.76" transform="translate(2228.645 5014.081)" fill="#282828" opacity="0.85"/>
          <ellipse id="Elipse_143" data-name="Elipse 143" cx="11.089" cy="3.76" rx="11.089" ry="3.76" transform="translate(2255.388 5014.081)" fill="#282828" opacity="0.85"/>
          <ellipse id="Elipse_144" data-name="Elipse 144" cx="11.089" cy="3.76" rx="11.089" ry="3.76" transform="translate(2279.268 5014.081)" fill="#282828" opacity="0.85"/>
          <ellipse id="Elipse_145" data-name="Elipse 145" cx="11.089" cy="3.76" rx="11.089" ry="3.76" transform="translate(2312.414 5012.929)" fill="#282828" opacity="0.85"/>
          <g id="Grupo_2474" data-name="Grupo 2474">
            <g id="Grupo_2463" data-name="Grupo 2463">
              <g id="Grupo_2436" data-name="Grupo 2436">
                <g id="Grupo_2435" data-name="Grupo 2435">
                  <rect id="Rectángulo_2577" data-name="Rectángulo 2577" width="4.185" height="2.743" transform="translate(2237.504 4963.368)" fill="#377f67"/>
                </g>
              </g>
              <g id="Grupo_2438" data-name="Grupo 2438">
                <g id="Grupo_2437" data-name="Grupo 2437">
                  <path id="Trazado_2543" data-name="Trazado 2543" d="M2244.753,4967.935a3.45,3.45,0,0,0-3.389-2.882h-3.5a3.451,3.451,0,0,0-3.389,2.882Z" fill="#333"/>
                </g>
              </g>
              <g id="Grupo_2455" data-name="Grupo 2455">
                <g id="Grupo_2447" data-name="Grupo 2447">
                  <g id="Grupo_2440" data-name="Grupo 2440">
                    <g id="Grupo_2439" data-name="Grupo 2439">
                      <rect id="Rectángulo_2578" data-name="Rectángulo 2578" width="15.03" height="34.571" transform="translate(2230.003 4977.117)" fill="url(#linear-gradient-2)"/>
                    </g>
                  </g>
                  <g id="Grupo_2442" data-name="Grupo 2442">
                    <g id="Grupo_2441" data-name="Grupo 2441">
                      <path id="Trazado_2544" data-name="Trazado 2544" d="M2230,5011.688v5.906h15.03v-5.906Z" fill="#424242"/>
                    </g>
                  </g>
                  <g id="Grupo_2444" data-name="Grupo 2444">
                    <g id="Grupo_2443" data-name="Grupo 2443">
                      <rect id="Rectángulo_2579" data-name="Rectángulo 2579" width="4.241" height="34.571" transform="translate(2245.033 4977.117)" fill="#377f67"/>
                    </g>
                  </g>
                  <g id="Grupo_2446" data-name="Grupo 2446">
                    <g id="Grupo_2445" data-name="Grupo 2445">
                      <path id="Trazado_2545" data-name="Trazado 2545" d="M2245.033,5011.688v5.906h4.241v-5.906Z" fill="#333"/>
                    </g>
                  </g>
                </g>
                <g id="Grupo_2454" data-name="Grupo 2454">
                  <g id="Grupo_2449" data-name="Grupo 2449">
                    <g id="Grupo_2448" data-name="Grupo 2448">
                      <path id="Trazado_2546" data-name="Trazado 2546" d="M2243.515,4967.763h-7.753c-6.74,0-5.732,10.087-5.732,10.087h15v-9.884A5.6,5.6,0,0,0,2243.515,4967.763Z" fill="#377f67"/>
                    </g>
                  </g>
                  <g id="Grupo_2451" data-name="Grupo 2451">
                    <g id="Grupo_2450" data-name="Grupo 2450">
                      <path id="Trazado_2547" data-name="Trazado 2547" d="M2249.274,4975.489v1.986A18.419,18.419,0,0,0,2249.274,4975.489Z" fill="#424242"/>
                    </g>
                  </g>
                  <g id="Grupo_2453" data-name="Grupo 2453">
                    <g id="Grupo_2452" data-name="Grupo 2452">
                      <path id="Trazado_2548" data-name="Trazado 2548" d="M2249.274,4977.475v-1.986c-.139-2.62-.915-6.6-4.241-7.523v9.884h4.214S2249.261,4977.711,2249.274,4977.475Z" fill="#2b5649"/>
                    </g>
                  </g>
                </g>
              </g>
              <g id="Grupo_2457" data-name="Grupo 2457">
                <g id="Grupo_2456" data-name="Grupo 2456">
                  <rect id="Rectángulo_2580" data-name="Rectángulo 2580" width="12.288" height="1.181" transform="translate(2232.744 4979.374)" fill="#fff"/>
                </g>
              </g>
              <g id="Grupo_2459" data-name="Grupo 2459">
                <g id="Grupo_2458" data-name="Grupo 2458">
                  <rect id="Rectángulo_2581" data-name="Rectángulo 2581" width="12.288" height="1.18" transform="translate(2232.744 4982.579)" fill="#fff"/>
                </g>
              </g>
              <g id="Grupo_2462" data-name="Grupo 2462">
                <g id="Grupo_2461" data-name="Grupo 2461">
                  <g id="Grupo_2460" data-name="Grupo 2460">
                    <path id="Trazado_2549" data-name="Trazado 2549" d="M2244.44,4963.479h-9.686a3.423,3.423,0,0,1-3.419-3.419v-3.509a3.423,3.423,0,0,1,3.419-3.419h9.686a3.422,3.422,0,0,1,3.418,3.419v3.509A3.422,3.422,0,0,1,2244.44,4963.479Zm-9.686-8.233a1.306,1.306,0,0,0-1.3,1.3v3.509a1.306,1.306,0,0,0,1.3,1.305h9.686a1.306,1.306,0,0,0,1.3-1.305v-3.509a1.306,1.306,0,0,0-1.3-1.3Z" fill="#2b5649"/>
                  </g>
                </g>
              </g>
            </g>
            <g id="Grupo_2465" data-name="Grupo 2465">
              <g id="Grupo_2464" data-name="Grupo 2464">
                <ellipse id="Elipse_146" data-name="Elipse 146" cx="6.875" cy="6.854" rx="6.875" ry="6.854" transform="translate(2232.179 4995.798)" fill="#424242"/>
              </g>
            </g>
            <g id="Grupo_2467" data-name="Grupo 2467">
              <g id="Grupo_2466" data-name="Grupo 2466">
                <path id="Trazado_2550" data-name="Trazado 2550" d="M2242,5003.517a2.143,2.143,0,0,1-.692-.655c.045-.167-.011-.319-.134-.317a1.981,1.981,0,0,0-.368.081c-.006-.035-.01-.068-.017-.1a7.966,7.966,0,0,0-.248-.967.631.631,0,0,0,.19-.127,4.56,4.56,0,0,0,.744.779c.475.366,1.07.288,1.085.055.013-.2-.555-.2-.995-.415a2.17,2.17,0,0,1-.693-.655c.046-.168-.011-.319-.133-.317a2.223,2.223,0,0,0-.41.093c-.14-.347-.251-.562-.259-.578l.005,0a2.616,2.616,0,0,0-.095-.386,2.323,2.323,0,0,0-.236-.514,1.848,1.848,0,0,1,.352-.3,2.131,2.131,0,0,0,.86-.924,4.112,4.112,0,0,0,.259-1.11c.007-.335-.2-.31-.2,0a2.463,2.463,0,0,1-.437,1.292,2.964,2.964,0,0,1-1.12.72.9.9,0,0,0-.573-.2,1.014,1.014,0,0,0-.377.069.871.871,0,0,0-.178.1,2.994,2.994,0,0,1-1.037-.69,2.462,2.462,0,0,1-.436-1.292c0-.31-.21-.335-.2,0a4.159,4.159,0,0,0,.259,1.11,2.131,2.131,0,0,0,.86.924,1.906,1.906,0,0,1,.286.234,2.117,2.117,0,0,0-.286.969s-.119.226-.266.594a2.545,2.545,0,0,0-.456-.106c-.122,0-.179.149-.133.317a2.169,2.169,0,0,1-.693.655c-.44.217-1.007.217-.994.415.014.233.609.311,1.084-.055a4.469,4.469,0,0,0,.743-.779.658.658,0,0,0,.235.146,8.227,8.227,0,0,0-.242.948c-.007.04-.013.077-.019.117a2.217,2.217,0,0,0-.416-.1c-.122,0-.179.15-.133.317a2.162,2.162,0,0,1-.693.655c-.441.218-1.008.218-.995.415.014.234.61.311,1.084-.054a4.523,4.523,0,0,0,.744-.78.644.644,0,0,0,.235.147.452.452,0,0,0,.079.021c-.034.284-.057.553-.069.81v.018a2.346,2.346,0,0,0-.439.064c-.114.042-.113.2-.01.344a2.146,2.146,0,0,1-.409.86c-.333.362-.861.567-.779.746.1.213.681.07.992-.442a4.535,4.535,0,0,0,.413-1,.639.639,0,0,0,.226.05,9.517,9.517,0,0,0,.064.957h0a1.815,1.815,0,0,0,.062.431c.05.3.109.57.166.813a2.886,2.886,0,0,0,.448.932,1.792,1.792,0,0,0,1.283.854h.074c.937-.05,1.6-1.222,1.731-1.786.062-.265.126-.564.179-.9a1.968,1.968,0,0,0,.054-.4h0c.033-.279.053-.584.059-.91a.641.641,0,0,0,.176-.047,4.436,4.436,0,0,0,.412,1c.311.512.894.655.992.442.082-.179-.446-.384-.778-.746a2.171,2.171,0,0,1-.411-.86c.1-.14.106-.3-.009-.344a1.964,1.964,0,0,0-.385-.059l0-.025,0,.014c-.012-.264-.036-.543-.071-.835.01,0,.02,0,.03-.008a.637.637,0,0,0,.235-.147,4.6,4.6,0,0,0,.744.78c.474.365,1.069.288,1.084.054C2243,5003.735,2242.436,5003.735,2242,5003.517Z" fill="#f23812"/>
              </g>
            </g>
            <g id="Grupo_2470" data-name="Grupo 2470">
              <g id="Grupo_2469" data-name="Grupo 2469">
                <g id="Grupo_2468" data-name="Grupo 2468">
                  <path id="Trazado_2551" data-name="Trazado 2551" d="M2239.049,5009.8a7.293,7.293,0,1,1,7.293-7.293A7.3,7.3,0,0,1,2239.049,5009.8Zm0-13.881a6.589,6.589,0,1,0,6.588,6.588A6.6,6.6,0,0,0,2239.049,4995.919Z" fill="#fff"/>
                </g>
              </g>
            </g>
            <g id="Grupo_2473" data-name="Grupo 2473">
              <g id="Grupo_2472" data-name="Grupo 2472">
                <g id="Grupo_2471" data-name="Grupo 2471">
                  <rect id="Rectángulo_2582" data-name="Rectángulo 2582" width="13.878" height="0.705" transform="translate(2233.906 5007.175) rotate(-44.491)" fill="#fff"/>
                </g>
              </g>
            </g>
          </g>
          <g id="Grupo_2546" data-name="Grupo 2546">
            <g id="Grupo_2476" data-name="Grupo 2476">
              <g id="Grupo_2475" data-name="Grupo 2475">
                <path id="Trazado_2552" data-name="Trazado 2552" d="M2262.046,4972.523l-2.653-.03a6.115,6.115,0,0,0,.664,2.977,3.275,3.275,0,0,0,1.768,1.591l2.431.569Z" fill="#333"/>
              </g>
            </g>
            <g id="Grupo_2478" data-name="Grupo 2478">
              <g id="Grupo_2477" data-name="Grupo 2477">
                <rect id="Rectángulo_2583" data-name="Rectángulo 2583" width="4.257" height="0.765" transform="translate(2261.825 4977.061)" fill="#424242"/>
              </g>
            </g>
            <g id="Grupo_2480" data-name="Grupo 2480">
              <g id="Grupo_2479" data-name="Grupo 2479">
                <rect id="Rectángulo_2584" data-name="Rectángulo 2584" width="3.63" height="2.151" transform="translate(2277.545 4973.629)" fill="#424242"/>
              </g>
            </g>
            <g id="Grupo_2482" data-name="Grupo 2482">
              <g id="Grupo_2481" data-name="Grupo 2481">
                <rect id="Rectángulo_2585" data-name="Rectángulo 2585" width="1.21" height="3.249" transform="translate(2276.939 4973.093)" fill="#6d6d6d"/>
              </g>
            </g>
            <g id="Grupo_2484" data-name="Grupo 2484">
              <g id="Grupo_2483" data-name="Grupo 2483">
                <rect id="Rectángulo_2586" data-name="Rectángulo 2586" width="9.781" height="3.1" transform="translate(2265.074 4973.242)" fill="#333"/>
              </g>
            </g>
            <g id="Grupo_2486" data-name="Grupo 2486">
              <g id="Grupo_2485" data-name="Grupo 2485">
                <circle id="Elipse_147" data-name="Elipse 147" cx="3.034" cy="3.034" r="3.034" transform="translate(2261.223 4971.563)" fill="#4d4d4d"/>
              </g>
            </g>
            <g id="Grupo_2488" data-name="Grupo 2488">
              <g id="Grupo_2487" data-name="Grupo 2487">
                <rect id="Rectángulo_2587" data-name="Rectángulo 2587" width="1.311" height="4.538" transform="translate(2271.931 4972.523)" fill="#6d6d6d"/>
              </g>
            </g>
            <g id="Grupo_2490" data-name="Grupo 2490">
              <g id="Grupo_2489" data-name="Grupo 2489">
                <rect id="Rectángulo_2588" data-name="Rectángulo 2588" width="4.034" height="6.067" transform="translate(2273.242 4971.758)" fill="#333"/>
              </g>
            </g>
            <g id="Grupo_2492" data-name="Grupo 2492">
              <g id="Grupo_2491" data-name="Grupo 2491">
                <rect id="Rectángulo_2589" data-name="Rectángulo 2589" width="4.034" height="0.6" transform="translate(2273.242 4972.494)" fill="#4d4d4d"/>
              </g>
            </g>
            <g id="Grupo_2494" data-name="Grupo 2494">
              <g id="Grupo_2493" data-name="Grupo 2493">
                <rect id="Rectángulo_2590" data-name="Rectángulo 2590" width="4.034" height="0.6" transform="translate(2273.242 4974.492)" fill="#4d4d4d"/>
              </g>
            </g>
            <g id="Grupo_2496" data-name="Grupo 2496">
              <g id="Grupo_2495" data-name="Grupo 2495">
                <rect id="Rectángulo_2591" data-name="Rectángulo 2591" width="4.034" height="0.6" transform="translate(2273.242 4976.342)" fill="#4d4d4d"/>
              </g>
            </g>
            <g id="Grupo_2498" data-name="Grupo 2498">
              <g id="Grupo_2497" data-name="Grupo 2497">
                <rect id="Rectángulo_2592" data-name="Rectángulo 2592" width="0.656" height="4.567" transform="translate(2272.586 4972.494)" fill="#424242"/>
              </g>
            </g>
            <g id="Grupo_2500" data-name="Grupo 2500">
              <g id="Grupo_2499" data-name="Grupo 2499">
                <path id="Trazado_2553" data-name="Trazado 2553" d="M2266.431,4974.508a2.174,2.174,0,1,1-2.175-2.174A2.175,2.175,0,0,1,2266.431,4974.508Z" fill="#6d6d6d"/>
              </g>
            </g>
            <g id="Grupo_2502" data-name="Grupo 2502">
              <g id="Grupo_2501" data-name="Grupo 2501">
                <rect id="Rectángulo_2593" data-name="Rectángulo 2593" width="1.21" height="3.249" transform="translate(2279.965 4973.093)" fill="#6d6d6d"/>
              </g>
            </g>
            <g id="Grupo_2504" data-name="Grupo 2504">
              <g id="Grupo_2503" data-name="Grupo 2503">
                <path id="Trazado_2554" data-name="Trazado 2554" d="M2261.825,4977.826l-.6,1.027h2.731v-1.027Z" fill="#333"/>
              </g>
            </g>
            <g id="Grupo_2506" data-name="Grupo 2506">
              <g id="Grupo_2505" data-name="Grupo 2505">
                <path id="Trazado_2555" data-name="Trazado 2555" d="M2266.082,4977.826l.6,1.027h-2.73v-1.027Z" fill="#333"/>
              </g>
            </g>
            <g id="Grupo_2508" data-name="Grupo 2508">
              <g id="Grupo_2507" data-name="Grupo 2507">
                <rect id="Rectángulo_2594" data-name="Rectángulo 2594" width="5.461" height="1.064" transform="translate(2261.223 4978.853)" fill="#4d4d4d"/>
              </g>
            </g>
            <g id="Grupo_2510" data-name="Grupo 2510">
              <g id="Grupo_2509" data-name="Grupo 2509">
                <rect id="Rectángulo_2595" data-name="Rectángulo 2595" width="6.755" height="3.549" transform="translate(2260.536 4979.917)" fill="#333"/>
              </g>
            </g>
            <g id="Grupo_2512" data-name="Grupo 2512">
              <g id="Grupo_2511" data-name="Grupo 2511">
                <rect id="Rectángulo_2596" data-name="Rectángulo 2596" width="0.542" height="2.734" transform="translate(2261.223 4979.917)" fill="#5b5b5b"/>
              </g>
            </g>
            <g id="Grupo_2514" data-name="Grupo 2514">
              <g id="Grupo_2513" data-name="Grupo 2513">
                <rect id="Rectángulo_2597" data-name="Rectángulo 2597" width="0.542" height="2.734" transform="translate(2266.142 4979.917)" fill="#5b5b5b"/>
              </g>
            </g>
            <g id="Grupo_2516" data-name="Grupo 2516">
              <g id="Grupo_2515" data-name="Grupo 2515">
                <rect id="Rectángulo_2598" data-name="Rectángulo 2598" width="0.542" height="2.734" transform="translate(2262.453 4979.917)" fill="#5b5b5b"/>
              </g>
            </g>
            <g id="Grupo_2518" data-name="Grupo 2518">
              <g id="Grupo_2517" data-name="Grupo 2517">
                <rect id="Rectángulo_2599" data-name="Rectángulo 2599" width="0.543" height="2.734" transform="translate(2263.684 4979.917)" fill="#5b5b5b"/>
              </g>
            </g>
            <g id="Grupo_2520" data-name="Grupo 2520">
              <g id="Grupo_2519" data-name="Grupo 2519">
                <rect id="Rectángulo_2600" data-name="Rectángulo 2600" width="0.542" height="2.734" transform="translate(2264.912 4979.917)" fill="#5b5b5b"/>
              </g>
            </g>
            <g id="Grupo_2528" data-name="Grupo 2528">
              <g id="Grupo_2522" data-name="Grupo 2522">
                <g id="Grupo_2521" data-name="Grupo 2521">
                  <path id="Trazado_2556" data-name="Trazado 2556" d="M2258.078,5017.906h5.159q5.938,0,11.877-.007a1.208,1.208,0,0,0,.638-1.058v-.152h-18.324c0,.1,0,.152,0,.152A1.205,1.205,0,0,0,2258.078,5017.906Z" fill="#333"/>
                </g>
              </g>
              <g id="Grupo_2527" data-name="Grupo 2527">
                <g id="Grupo_2524" data-name="Grupo 2524">
                  <g id="Grupo_2523" data-name="Grupo 2523">
                    <path id="Trazado_2557" data-name="Trazado 2557" d="M2274.519,4997.227c-.067-2.756-.4-3.362-1.933-4.572-1.445-1.143-3.073-1.849-4.252-2.857-1.65-1.412-.067-3.294-.6-4.377a9.206,9.206,0,0,0-1.647-1.955h-5.546s-.52.615-1,1.213c-.719.892.164,1.747.535,3.032s-.672,2.445-1.181,3.727-1.375,2.324-1.375,4.671c0,2.411-.075,18.844-.083,20.58h17.1C2274.543,5011.287,2274.571,4999.346,2274.519,4997.227Z" fill="#424242"/>
                  </g>
                </g>
                <g id="Grupo_2526" data-name="Grupo 2526">
                  <g id="Grupo_2525" data-name="Grupo 2525">
                    <path id="Trazado_2558" data-name="Trazado 2558" d="M2275.662,4997.428c-.2-2.722-.534-3.787-1.344-4.773-1-1.212-3.862-2.391-4.976-3.267a2.774,2.774,0,0,1-.739-2.716,1.659,1.659,0,0,0-.168-2.017,4.062,4.062,0,0,0-1.145-1.189h-1.208a9.206,9.206,0,0,1,1.647,1.955c.538,1.083-1.045,2.965.6,4.377,1.179,1.008,2.807,1.714,4.252,2.857,1.53,1.21,1.866,1.816,1.933,4.572.052,2.119.024,14.06.009,19.462h1.224C2275.755,5014.98,2275.782,4999.051,2275.662,4997.428Z" fill="#6d6d6d"/>
                  </g>
                </g>
              </g>
            </g>
            <g id="Grupo_2530" data-name="Grupo 2530">
              <g id="Grupo_2529" data-name="Grupo 2529">
                <path id="Rectángulo_2601" data-name="Rectángulo 2601" d="M2.132,0H11.28a2.132,2.132,0,0,1,2.132,2.132V4.926a2.133,2.133,0,0,1-2.133,2.133H2.132A2.132,2.132,0,0,1,0,4.927v-2.8A2.132,2.132,0,0,1,2.132,0Z" transform="translate(2259.83 4996.286)" fill="#333"/>
              </g>
            </g>
            <g id="Grupo_2532" data-name="Grupo 2532">
              <g id="Grupo_2531" data-name="Grupo 2531">
                <path id="Rectángulo_2602" data-name="Rectángulo 2602" d="M2.133,0H11.28a2.132,2.132,0,0,1,2.132,2.132v2.8A2.132,2.132,0,0,1,11.28,7.059H2.132A2.132,2.132,0,0,1,0,4.927V2.133A2.133,2.133,0,0,1,2.133,0Z" transform="translate(2259.83 5007.479)" fill="#333"/>
              </g>
            </g>
            <g id="Grupo_2534" data-name="Grupo 2534">
              <g id="Grupo_2533" data-name="Grupo 2533">
                <path id="Rectángulo_2603" data-name="Rectángulo 2603" d="M2.132,0H11.28a2.132,2.132,0,0,1,2.132,2.132V12.872a2.133,2.133,0,0,1-2.133,2.133H2.132A2.132,2.132,0,0,1,0,12.873V2.132A2.132,2.132,0,0,1,2.132,0Z" transform="translate(2259.83 4997.986)" fill="#f5e52e"/>
              </g>
            </g>
            <g id="Grupo_2536" data-name="Grupo 2536">
              <g id="Grupo_2535" data-name="Grupo 2535">
                <rect id="Rectángulo_2604" data-name="Rectángulo 2604" width="4.164" height="0.698" transform="translate(2261.873 4986.064)" fill="#333"/>
              </g>
            </g>
            <g id="Grupo_2538" data-name="Grupo 2538">
              <g id="Grupo_2537" data-name="Grupo 2537">
                <rect id="Rectángulo_2605" data-name="Rectángulo 2605" width="4.164" height="0.699" transform="translate(2261.873 4987.574)" fill="#333"/>
              </g>
            </g>
            <g id="Grupo_2540" data-name="Grupo 2540">
              <g id="Grupo_2539" data-name="Grupo 2539">
                <path id="Trazado_2559" data-name="Trazado 2559" d="M2269.943,5005.494a.374.374,0,0,0-.285-.108,3.051,3.051,0,0,0-.928.1,1.112,1.112,0,0,0-.351.172.146.146,0,0,0-.131.012,5.371,5.371,0,0,0-.412.364l-.4-.026a5.623,5.623,0,0,0-.563.025,1.271,1.271,0,0,0-.083-.271.455.455,0,0,0,.032-.173,4.035,4.035,0,0,0,.7-.25.234.234,0,0,0,.112-.165.3.3,0,0,0,.226-.207l.158-.41a.408.408,0,0,0,.15-.054c.082-.052.21-.142.365-.234a4.911,4.911,0,0,1,.666-.326c.189-.07.224-.148.174-.19a.367.367,0,0,0-.3.012,3.045,3.045,0,0,0-.817.453,1.035,1.035,0,0,0-.268.32.482.482,0,0,0-.22.265c-.072.162-.127.283-.153.339a.219.219,0,0,0-.131.043,4.306,4.306,0,0,1-.683.2.788.788,0,0,0-.025-.087.843.843,0,0,0-.1-.2.273.273,0,0,0-.107-.164.986.986,0,0,0,.532-.134,2.475,2.475,0,0,0,.174-.935.886.886,0,0,0-.176-.67,1.563,1.563,0,0,0,.334-.289,4.608,4.608,0,0,0,.55-1.293c.092-.295-.083-.469-.213-.054a8.712,8.712,0,0,1-.451,1.146,1.5,1.5,0,0,1-.37.4l-.023-.007a2.094,2.094,0,0,0,.068-.913c-.119-.3-.331-.252-.331-.252a.389.389,0,0,1,.162.353c-.028.134-.2.134-.2.134s.2.1.136.222a.292.292,0,0,1-.182.122.42.42,0,0,1,.094.333h-.525a.417.417,0,0,1,.095-.333.292.292,0,0,1-.182-.122c-.066-.12.136-.222.136-.222s-.169,0-.2-.134a.389.389,0,0,1,.162-.353s-.211-.05-.331.252a2.091,2.091,0,0,0,.069.912h-.005a1.461,1.461,0,0,1-.359-.39,8.539,8.539,0,0,1-.451-1.146c-.131-.415-.305-.241-.213.054a4.581,4.581,0,0,0,.55,1.293,1.552,1.552,0,0,0,.307.272l0,0a.875.875,0,0,0-.188.685,2.458,2.458,0,0,0,.174.935.948.948,0,0,0,.507.133.279.279,0,0,0-.106.159h0a.855.855,0,0,0-.131.283,3.7,3.7,0,0,1-.628-.185.221.221,0,0,0-.131-.043c-.026-.056-.081-.177-.153-.339a.481.481,0,0,0-.22-.265,1.031,1.031,0,0,0-.268-.32,3.029,3.029,0,0,0-.817-.453.367.367,0,0,0-.3-.012c-.05.042-.015.12.174.19a4.911,4.911,0,0,1,.666.326c.155.092.283.182.365.234a.409.409,0,0,0,.15.054l.158.41a.3.3,0,0,0,.226.207.234.234,0,0,0,.112.165,3.746,3.746,0,0,0,.642.234.676.676,0,0,0,.006.1.37.37,0,0,0,.04.121,1.235,1.235,0,0,0-.07.241c-.131-.01-.4-.029-.533-.022l-.4.026a5.371,5.371,0,0,0-.412-.364.146.146,0,0,0-.131-.012,1.121,1.121,0,0,0-.351-.172,3.053,3.053,0,0,0-.929-.1.372.372,0,0,0-.284.108c-.029.058.034.116.236.107a4.82,4.82,0,0,1,.739.039c.179.024.333.057.428.073a.351.351,0,0,0,.118,0c.063.059.257.24.407.359a.171.171,0,0,0,.162,0,.6.6,0,0,0,.358.106,3.37,3.37,0,0,1,.58.059.731.731,0,0,0,.028.2c.005.016.011.03.017.045-.151.051-.686.231-.823.292a.324.324,0,0,0-.168.228,1.121,1.121,0,0,0-.406.393.438.438,0,0,0-.054.294c-.048.065-.172.239-.345.5a4.059,4.059,0,0,1-.758.86c-.162.12-.118.182.048.152.368-.067.915-.9,1-1.059a.625.625,0,0,0,.1-.441c.036-.048.1-.133.206-.25.24-.274.264-.391.254-.438a1.913,1.913,0,0,1,.4-.189,6.741,6.741,0,0,1,.666-.189.278.278,0,0,0,.046.028h0l-.022.148h0a.822.822,0,0,0-.305.337,2.238,2.238,0,0,0-.147.569c-.009.057-.022.166-.032.256h0c0,.018,0,.036-.005.054l0,.049h0a3.2,3.2,0,0,0,.017.762,1.354,1.354,0,0,0,.07.27.74.74,0,0,0,.1.183.871.871,0,0,0,.552.383h.013s.26,0,.565-.384a3.033,3.033,0,0,0,0-2.143.849.849,0,0,0-.281-.323h0v-.142h0a.352.352,0,0,0,.091-.052,6.85,6.85,0,0,1,.682.193,1.872,1.872,0,0,1,.4.189c-.01.047.014.164.254.438.1.117.17.2.206.25a.617.617,0,0,0,.1.441c.083.16.63.992,1,1.059.165.03.21-.032.047-.152a4.055,4.055,0,0,1-.757-.86c-.173-.265-.3-.439-.345-.5a.438.438,0,0,0-.054-.294,1.115,1.115,0,0,0-.407-.393.321.321,0,0,0-.167-.228c-.146-.065-.746-.266-.847-.3a.7.7,0,0,0,.04-.227,3.6,3.6,0,0,1,.609-.064.6.6,0,0,0,.358-.106.171.171,0,0,0,.162,0c.15-.119.344-.3.406-.359a.358.358,0,0,0,.119,0c.095-.016.249-.049.428-.073a4.816,4.816,0,0,1,.739-.039C2269.909,5005.61,2269.971,5005.552,2269.943,5005.494Zm-3.477,3.686a.212.212,0,0,0-.031-.023A.212.212,0,0,1,2266.466,5009.18Zm-.047-.036c-.018-.011-.038-.023-.06-.034C2266.381,5009.121,2266.4,5009.133,2266.419,5009.144Zm-.032.492.007-.006,0,0Zm.016-.016.012-.011Zm.146-.25v0Zm-.123.228.011-.013Zm.022-.026.012-.014Zm.023-.028.012-.016Zm.022-.032.011-.017Zm.02-.032.009-.019Zm.016-.036.007-.019Zm.012-.036,0-.02Zm-.06-.213c.007.008.015.015.021.023C2266.5,5009.21,2266.488,5009.2,2266.481,5009.195Zm.032.039.014.021Zm.021.038.008.022Zm.011.039,0,.021Z" fill="#2b5649"/>
              </g>
            </g>
            <g id="Grupo_2543" data-name="Grupo 2543">
              <g id="Grupo_2542" data-name="Grupo 2542">
                <g id="Grupo_2541" data-name="Grupo 2541">
                  <path id="Trazado_2560" data-name="Trazado 2560" d="M2266.413,5011.653a6.007,6.007,0,1,1,6.007-6.008A6.014,6.014,0,0,1,2266.413,5011.653Zm0-11.349a5.341,5.341,0,1,0,5.342,5.341A5.347,5.347,0,0,0,2266.413,5000.3Z" fill="#fff"/>
                </g>
              </g>
            </g>
            <g id="Grupo_2545" data-name="Grupo 2545">
              <g id="Grupo_2544" data-name="Grupo 2544">
                <rect id="Rectángulo_2606" data-name="Rectángulo 2606" width="13.412" height="0.939" transform="translate(2259.83 4994.314)" fill="#fff"/>
              </g>
            </g>
          </g>
          <g id="Grupo_2573" data-name="Grupo 2573">
            <g id="Grupo_2548" data-name="Grupo 2548">
              <g id="Grupo_2547" data-name="Grupo 2547">
                <path id="Trazado_2561" data-name="Trazado 2561" d="M2297.58,5000.2a54.667,54.667,0,0,0-4.475-5.051h-5.357a54.667,54.667,0,0,0-4.475,5.051c-1.326,1.888-1.289,3.621-1.289,6.01,0,2.06,0,8.463,0,10.19h16.881c0-1.727,0-8.13,0-10.19C2298.868,5003.817,2298.906,5002.084,2297.58,5000.2Z" fill="#5ba590"/>
              </g>
            </g>
            <g id="Grupo_2550" data-name="Grupo 2550">
              <g id="Grupo_2549" data-name="Grupo 2549">
                <rect id="Rectángulo_2607" data-name="Rectángulo 2607" width="8.035" height="1.286" transform="translate(2286.339 4995.19)" fill="#2b5649"/>
              </g>
            </g>
            <g id="Grupo_2559" data-name="Grupo 2559">
              <g id="Grupo_2552" data-name="Grupo 2552">
                <g id="Grupo_2551" data-name="Grupo 2551">
                  <path id="Trazado_2562" data-name="Trazado 2562" d="M2294.374,4988.254a1.5,1.5,0,0,0-1.491-1.491h-5.052a1.5,1.5,0,0,0-1.492,1.491v6.879h1.491v-5.862a.414.414,0,1,1,.828,0v5.862h1.367v-5.862a.415.415,0,0,1,.829,0v5.862h1.368v-5.862a.414.414,0,0,1,.828,0v5.862h1.324Z" fill="#ffef5f"/>
                </g>
              </g>
              <g id="Grupo_2554" data-name="Grupo 2554">
                <g id="Grupo_2553" data-name="Grupo 2553">
                  <path id="Trazado_2563" data-name="Trazado 2563" d="M2288.243,4988.857a.415.415,0,0,0-.413.414v5.862h.828v-5.862A.415.415,0,0,0,2288.243,4988.857Z" fill="#2b5649"/>
                </g>
              </g>
              <g id="Grupo_2556" data-name="Grupo 2556">
                <g id="Grupo_2555" data-name="Grupo 2555">
                  <path id="Trazado_2564" data-name="Trazado 2564" d="M2290.44,4988.857a.416.416,0,0,0-.415.414v5.862h.829v-5.862A.416.416,0,0,0,2290.44,4988.857Z" fill="#2b5649"/>
                </g>
              </g>
              <g id="Grupo_2558" data-name="Grupo 2558">
                <g id="Grupo_2557" data-name="Grupo 2557">
                  <path id="Trazado_2565" data-name="Trazado 2565" d="M2292.636,4988.857a.415.415,0,0,0-.414.414v5.862h.828v-5.862A.415.415,0,0,0,2292.636,4988.857Z" fill="#2b5649"/>
                </g>
              </g>
            </g>
            <g id="Grupo_2568" data-name="Grupo 2568">
              <g id="Grupo_2562" data-name="Grupo 2562">
                <g id="Grupo_2560" data-name="Grupo 2560">
                  <path id="Trazado_2566" data-name="Trazado 2566" d="M2295.914,5008.812a5.542,5.542,0,1,1-5.542-5.541A5.541,5.541,0,0,1,2295.914,5008.812Z" fill="#ffef5f"/>
                </g>
                <g id="Grupo_2561" data-name="Grupo 2561">
                  <path id="Trazado_2567" data-name="Trazado 2567" d="M2290.373,5014.626a5.813,5.813,0,1,1,5.814-5.814A5.82,5.82,0,0,1,2290.373,5014.626Zm0-11.083a5.269,5.269,0,1,0,5.268,5.269A5.276,5.276,0,0,0,2290.373,5003.543Z" fill="#2b5649"/>
                </g>
              </g>
              <g id="Grupo_2565" data-name="Grupo 2565">
                <g id="Grupo_2564" data-name="Grupo 2564">
                  <g id="Grupo_2563" data-name="Grupo 2563">
                    <path id="Trazado_2568" data-name="Trazado 2568" d="M2288.271,5010.678a4.031,4.031,0,0,0,.557-.7l-.006,0c.13-.025.285-.064.375-.088a1.458,1.458,0,0,0,.089.324,1.333,1.333,0,0,0,2.248,0,1.475,1.475,0,0,0,.089-.326c.077.02.206.053.326.078a4.783,4.783,0,0,0,.586.714c.321.282.589,1.251.879,1.56s.326.159.113-.171a15.17,15.17,0,0,0-.715-1.426c-.181-.2-.4-.5-.539-.677.026-.033,0-.09-.1-.168a3.025,3.025,0,0,0-.52-.278c0-.1,0-.2-.009-.305.092.014.2.034.3.059.089.022.249.077.386.106a3.232,3.232,0,0,1,.574.2,4.012,4.012,0,0,1,.67.681c.324.353.447.47.666.473.157,0-.143-.213-.389-.478a7.859,7.859,0,0,0-.789-.861,4.93,4.93,0,0,0-.719-.3l0,0a1.565,1.565,0,0,0-.247-.1,2.051,2.051,0,0,0-.4-.088c-.035,0-.063,0-.091-.005-.013-.086-.027-.169-.044-.253.142-.1.428-.3.576-.42a.911.911,0,0,0,.129-.121c.15-.087.38-.223.551-.338.277-.186,1.354-.643,1.552-.842s-.079-.156-.4,0-1.137.535-1.373.65a5.27,5.27,0,0,0-.543.332,3.126,3.126,0,0,0-.477.252c-.064.039-.106.067-.106.067v.062c-.024-.085-.05-.161-.076-.239a3.623,3.623,0,0,0,.381-.585c.134-.154.4-.459.534-.645a10.1,10.1,0,0,0,.664-1c.111-.2.285-.38.335-.494.1-.227-.15-.053-.28.1-.084.1-.67.864-.828,1.09-.111.158-.445.542-.637.76a.4.4,0,0,0-.1.063,1.07,1.07,0,0,0-.193.23c-.017.027-.033.054-.047.079a.87.87,0,0,0-.444-.4.85.85,0,0,0,.046-.365c-.04-.251-.2-.124-.2.037a1.608,1.608,0,0,1-.039.283,1.507,1.507,0,0,0-.181-.013,1.267,1.267,0,0,0-.236.021,1.59,1.59,0,0,1-.04-.291c0-.161-.158-.288-.2-.037a.508.508,0,0,1-.338.754c-.013-.024-.026-.047-.042-.072a1.075,1.075,0,0,0-.193-.23.327.327,0,0,0-.161-.077l0,0a9.406,9.406,0,0,1-.669-.743c-.157-.226-.744-.993-.828-1.09-.131-.151-.38-.325-.28-.1.05.114.224.293.334.494a10.27,10.27,0,0,0,.665,1,5.529,5.529,0,0,0,.62.636,3.433,3.433,0,0,0,.378.585c-.023.071-.047.143-.069.219v-.033s-.042-.028-.106-.067a3.226,3.226,0,0,0-.471-.25,6.058,6.058,0,0,0-.655-.423c-.237-.115-1.059-.494-1.374-.65s-.591-.2-.394,0,1.275.655,1.551.841c.2.136.485.3.622.38a.765.765,0,0,0,.165.169c.145.114.424.312.569.414-.018.086-.033.171-.047.259-.026,0-.05,0-.081.005a2.053,2.053,0,0,0-.4.088,1.684,1.684,0,0,0-.245.1v0a4.928,4.928,0,0,0-.72.3,7.73,7.73,0,0,0-.788.861c-.246.265-.547.479-.39.478.22,0,.343-.12.666-.473a4.012,4.012,0,0,1,.67-.681,3.256,3.256,0,0,1,.585-.206c.047-.01.095-.023.143-.037h0c.087-.026.17-.053.226-.066.1-.023.2-.043.292-.058a2.886,2.886,0,0,0-.006.307,3.015,3.015,0,0,0-.512.275c-.085.064-.116.114-.109.148-.14.175-.367.488-.553.7a14.828,14.828,0,0,0-.716,1.426c-.214.33-.178.479.113.171S2287.95,5010.96,2288.271,5010.678Z" fill="#74c1ad"/>
                  </g>
                </g>
              </g>
              <g id="Grupo_2567" data-name="Grupo 2567">
                <g id="Grupo_2566" data-name="Grupo 2566">
                  <rect id="Rectángulo_2608" data-name="Rectángulo 2608" width="11.352" height="0.573" transform="translate(2286.246 5012.724) rotate(-45.002)" fill="#2b5649"/>
                </g>
              </g>
            </g>
            <g id="Grupo_2570" data-name="Grupo 2570">
              <g id="Grupo_2569" data-name="Grupo 2569">
                <rect id="Rectángulo_2609" data-name="Rectángulo 2609" width="16.883" height="1.398" transform="translate(2281.986 5016.396)" fill="#2b5649"/>
              </g>
            </g>
            <g id="Grupo_2572" data-name="Grupo 2572">
              <g id="Grupo_2571" data-name="Grupo 2571">
                <rect id="Rectángulo_2610" data-name="Rectángulo 2610" width="10.814" height="0.902" transform="translate(2284.966 5001.041)" fill="#2b5649"/>
              </g>
            </g>
          </g>
          <g id="Grupo_2582" data-name="Grupo 2582">
            <g id="Grupo_2581" data-name="Grupo 2581">
              <g id="Grupo_2580" data-name="Grupo 2580">
                <g id="Grupo_2575" data-name="Grupo 2575">
                  <path id="Trazado_2569" data-name="Trazado 2569" d="M2336.931,5009.624l-.544-21.543c-.106-4.194-.719-7.84-3.026-9.674s-2.325-3.387-2.325-3.387l-8.113,1.165-8.163-.754s.059,1.552-2.151,3.5-2.64,5.621-2.534,9.814l.544,21.544s-.514,8.417,13.238,8.178v0l.133-.005c.045,0,.089,0,.134,0v0C2337.87,5018,2336.931,5009.624,2336.931,5009.624Z" fill="#d8d875" opacity="0.78"/>
                  <g id="Grupo_2574" data-name="Grupo 2574">
                    <path id="Trazado_2570" data-name="Trazado 2570" d="M2323.014,4979.806s5.524.439,8.12-1.014c0,0,3.335,1.765,3.477,13.894A15.046,15.046,0,0,0,2323.014,4979.806Z" fill="#d8d875" opacity="0.5"/>
                    <path id="Trazado_2571" data-name="Trazado 2571" d="M2331.659,5017c-17.433,2.531-19.707-6.051-19.732-7.037l-.452-17.926c-.2-8.058,1.029-11.38,2.967-12.828s1.872-2.849,1.872-2.849l-.8-.864-.751-.07s.059,1.552-2.151,3.5-2.64,5.621-2.534,9.814l.544,21.544s-.514,8.417,13.238,8.178v0l.133-.005c.045,0,.089,0,.134,0v0a20.657,20.657,0,0,0,7.535-1.456Z" fill="#d8d875" opacity="0.78"/>
                  </g>
                  <path id="Trazado_2572" data-name="Trazado 2572" d="M2332.751,4996.952c-2.4,1.21-1.883-.594-4.313.561-1.547.734-3.362.97-4.669,2.075-1.267,1.072-2.582-.669-3.769.489-.828.809-3.24-.432-4.191.227s-3.325.484-3.4,1.639a28.878,28.878,0,0,1-.283,4.453c-.452,1.023-.082,6.01,1.014,6.6.338.18.325,1.019.5,1.361.36.72,1.122.812,1.553,1.492,1.832,1.148,4.645,1.987,8.966,1.912v0l.125,0h.125v0c12.85-.426,11.973-8.261,11.973-8.261s-.273-6.679-.427-12.744C2335.618,4996.865,2333.074,4996.789,2332.751,4996.952Z" fill="#fffad2"/>
                </g>
                <g id="Grupo_2579" data-name="Grupo 2579">
                  <path id="Trazado_2573" data-name="Trazado 2573" d="M2331.443,4969.694c.026,1.037-3.829,1.975-8.611,2.1s-8.68-.621-8.706-1.657,3.829-1.975,8.611-2.095S2331.417,4968.658,2331.443,4969.694Z" fill="#5cb5c4"/>
                  <path id="Trazado_2574" data-name="Trazado 2574" d="M2331.47,4970.747l-.027-1.053c-.889,1.145-7.759,1.39-8.628,1.417s-7.743.119-8.689-.979l.027,1.053s.512.168.012.508l.029,1.129s.35.187.012.468l.036,1.452s.689,1.592,8.61,1.417h0l.09,0,.091,0h0c7.92-.225,8.527-1.849,8.527-1.849l-.037-1.452a.255.255,0,0,1-.012-.468l-.028-1.13C2330.966,4970.941,2331.47,4970.747,2331.47,4970.747Z" fill="#75c8da"/>
                  <g id="Grupo_2578" data-name="Grupo 2578">
                    <g id="Grupo_2577" data-name="Grupo 2577" clip-path="url(#clip-path-13)">
                      <g id="Grupo_2576" data-name="Grupo 2576" opacity="0.5">
                        <path id="Trazado_2575" data-name="Trazado 2575" d="M2314.153,4971.185a35.3,35.3,0,0,0,17.317-.438l.013.508a33.539,33.539,0,0,1-17.318.438Z" fill="#258e7a"/>
                        <path id="Trazado_2576" data-name="Trazado 2576" d="M2314.194,4972.822a35.288,35.288,0,0,0,17.317-.437l.013.508a33.542,33.542,0,0,1-17.317.438Z" fill="#258e7a"/>
                      </g>
                    </g>
                  </g>
                </g>
              </g>
            </g>
          </g>
          <g id="Grupo_2586" data-name="Grupo 2586">
            <path id="Trazado_2578" data-name="Trazado 2578" d="M2331.314,4969.225c.029,1.107-4.09,2.113-9.2,2.247s-9.276-.655-9.3-1.762,4.09-2.114,9.2-2.248S2331.285,4968.117,2331.314,4969.225Z" fill="#db9405"/>
            <path id="Trazado_2579" data-name="Trazado 2579" d="M2331.344,4970.35l-.03-1.125c-.949,1.224-8.291,1.493-9.219,1.522s-8.274.136-9.286-1.037l.029,1.125s.548.18.014.543l.032,1.207s.374.2.013.5l.041,1.552s.737,1.7,9.2,1.5v0l.1,0,.1,0v0c8.464-.248,9.11-1.984,9.11-1.984l-.04-1.552a.272.272,0,0,1-.013-.5l-.032-1.207C2330.806,4970.558,2331.344,4970.35,2331.344,4970.35Z" fill="#efa500"/>
            <g id="Grupo_2585" data-name="Grupo 2585">
              <g id="Grupo_2584" data-name="Grupo 2584" clip-path="url(#clip-path-14)">
                <g id="Grupo_2583" data-name="Grupo 2583">
                  <path id="Trazado_2580" data-name="Trazado 2580" d="M2312.838,4970.835a37.717,37.717,0,0,0,18.506-.485l.014.543a35.84,35.84,0,0,1-18.506.485Z" fill="#db9405"/>
                  <path id="Trazado_2581" data-name="Trazado 2581" d="M2312.884,4972.585a37.716,37.716,0,0,0,18.506-.485l.014.543a35.841,35.841,0,0,1-18.506.485Z" fill="#db9405"/>
                </g>
              </g>
            </g>
          </g>
        </g>
      </g>
    </g>
  </g>
</svg>
