<svg xmlns="http://www.w3.org/2000/svg" xmlns:xlink="http://www.w3.org/1999/xlink" width="152.443" height="152.443" viewBox="0 0 152.443 152.443">
  <defs>
    <clipPath id="clip-path">
      <circle id="Elipse_152" data-name="Elipse 152" cx="65.13" cy="65.13" r="65.13" transform="translate(2216.662 5407.609)" fill="none"/>
    </clipPath>
    <clipPath id="clip-path-2">
      <path id="Trazado_2597" data-name="Trazado 2597" d="M2287.7,5447.381l-.02-1.327c-1.136,1.432-9.8,1.652-10.892,1.674s-9.758.051-10.936-1.346l.02,1.327s.644.219.009.641l.022,1.423s.438.24.009.59l.027,1.831s.847,2.014,10.831,1.9v0l.114,0H2277c9.983-.181,10.769-2.22,10.769-2.22l-.028-1.83a.321.321,0,0,1-.008-.59l-.022-1.424C2287.06,5447.62,2287.7,5447.381,2287.7,5447.381Z" fill="none"/>
    </clipPath>
  </defs>
  <g id="Grupo_6737" data-name="Grupo 6737" transform="translate(-2205.571 -5395.897)">
    <path id="Trazado_2583" data-name="Trazado 2583" d="M2281.792,5395.9q3.746,0,7.471.367t7.4,1.1q3.673.731,7.256,1.818t7.043,2.52q3.459,1.432,6.762,3.2t6.416,3.845q3.113,2.08,6.008,4.456t5.542,5.023q2.648,2.648,5.023,5.543t4.456,6.008q2.08,3.113,3.846,6.416t3.2,6.761q1.433,3.46,2.52,7.043t1.817,7.256q.73,3.672,1.1,7.4t.367,7.471q0,3.746-.367,7.471t-1.1,7.4q-.731,3.674-1.817,7.256t-2.52,7.043q-1.434,3.458-3.2,6.762t-3.846,6.415q-2.08,3.114-4.456,6.009t-5.023,5.542q-2.647,2.647-5.542,5.023t-6.008,4.456q-3.114,2.08-6.416,3.846t-6.762,3.2q-3.459,1.433-7.043,2.52t-7.256,1.817q-3.672.73-7.4,1.1t-7.471.367q-3.744,0-7.471-.367t-7.4-1.1q-3.672-.73-7.256-1.817t-7.043-2.52q-3.459-1.434-6.761-3.2t-6.416-3.846q-3.114-2.081-6.008-4.456t-5.543-5.023q-2.648-2.648-5.023-5.542t-4.456-6.009q-2.08-3.112-3.845-6.415t-3.2-6.762q-1.434-3.459-2.52-7.043t-1.818-7.256q-.73-3.672-1.1-7.4t-.367-7.471q0-3.744.367-7.471t1.1-7.4q.731-3.672,1.818-7.256t2.52-7.043q1.432-3.459,3.2-6.761t3.845-6.416q2.08-3.114,4.456-6.008t5.023-5.543q2.649-2.648,5.543-5.023t6.008-4.456q3.112-2.081,6.416-3.845t6.761-3.2q3.46-1.434,7.043-2.52t7.256-1.818q3.673-.73,7.4-1.1T2281.792,5395.9Z" fill="#e6b54a"/>
    <circle id="Elipse_149" data-name="Elipse 149" cx="71.597" cy="71.597" r="71.597" transform="translate(2210.196 5401.143)" fill="#fff"/>
    <g id="Grupo_2688" data-name="Grupo 2688">
      <g id="Grupo_2687" data-name="Grupo 2687" clip-path="url(#clip-path)">
        <circle id="Elipse_150" data-name="Elipse 150" cx="67.285" cy="67.285" r="67.285" transform="translate(2214.979 5405.454)" fill="#c5e5ff"/>
        <g id="Grupo_2607" data-name="Grupo 2607">
          <g id="Grupo_2591" data-name="Grupo 2591">
            <g id="Grupo_2590" data-name="Grupo 2590">
              <path id="Trazado_2584" data-name="Trazado 2584" d="M2251.057,5474.147a95.919,95.919,0,0,0-7.873-8.887h-9.424a95.946,95.946,0,0,0-7.873,8.887c-2.332,3.322-2.267,6.37-2.267,10.573,0,3.624,0,14.89,0,17.927h29.7c0-3.037,0-14.3,0-17.927C2253.324,5480.517,2253.389,5477.469,2251.057,5474.147Z" fill="#5ba590"/>
            </g>
          </g>
          <g id="Grupo_2593" data-name="Grupo 2593">
            <g id="Grupo_2592" data-name="Grupo 2592">
              <rect id="Rectángulo_2612" data-name="Rectángulo 2612" width="14.136" height="2.262" transform="translate(2231.282 5465.339)" fill="#2b5649"/>
            </g>
          </g>
          <g id="Grupo_2602" data-name="Grupo 2602">
            <g id="Grupo_2595" data-name="Grupo 2595" opacity="0.8">
              <g id="Grupo_2594" data-name="Grupo 2594">
                <path id="Trazado_2585" data-name="Trazado 2585" d="M2245.418,5453.138a2.632,2.632,0,0,0-2.624-2.624h-8.888a2.632,2.632,0,0,0-2.624,2.624v12.1h2.621v-10.313a.729.729,0,1,1,1.457,0v10.313h2.406v-10.313a.729.729,0,0,1,1.458,0v10.313h2.406v-10.313a.729.729,0,0,1,1.458,0v10.313h2.33Z" fill="#ffef5f"/>
              </g>
            </g>
            <g id="Grupo_2597" data-name="Grupo 2597">
              <g id="Grupo_2596" data-name="Grupo 2596">
                <path id="Trazado_2586" data-name="Trazado 2586" d="M2234.631,5454.2a.73.73,0,0,0-.728.729v10.313h1.457v-10.313A.73.73,0,0,0,2234.631,5454.2Z" fill="#2b5649"/>
              </g>
            </g>
            <g id="Grupo_2599" data-name="Grupo 2599">
              <g id="Grupo_2598" data-name="Grupo 2598">
                <path id="Trazado_2587" data-name="Trazado 2587" d="M2238.5,5454.2a.731.731,0,0,0-.729.729v10.313h1.458v-10.313A.731.731,0,0,0,2238.5,5454.2Z" fill="#2b5649"/>
              </g>
            </g>
            <g id="Grupo_2601" data-name="Grupo 2601">
              <g id="Grupo_2600" data-name="Grupo 2600">
                <path id="Trazado_2588" data-name="Trazado 2588" d="M2242.359,5454.2a.731.731,0,0,0-.729.729v10.313h1.458v-10.313A.731.731,0,0,0,2242.359,5454.2Z" fill="#2b5649"/>
              </g>
            </g>
          </g>
          <g id="Grupo_2604" data-name="Grupo 2604">
            <g id="Grupo_2603" data-name="Grupo 2603">
              <rect id="Rectángulo_2613" data-name="Rectángulo 2613" width="29.701" height="2.46" transform="translate(2223.623 5502.647)" fill="#2b5649"/>
            </g>
          </g>
          <g id="Grupo_2606" data-name="Grupo 2606">
            <g id="Grupo_2605" data-name="Grupo 2605">
              <rect id="Rectángulo_2614" data-name="Rectángulo 2614" width="19.025" height="1.586" transform="translate(2228.865 5475.634)" fill="#2b5649"/>
            </g>
          </g>
        </g>
        <g id="Grupo_2616" data-name="Grupo 2616">
          <g id="Grupo_2615" data-name="Grupo 2615">
            <g id="Grupo_2614" data-name="Grupo 2614">
              <g id="Grupo_2609" data-name="Grupo 2609">
                <path id="Trazado_2589" data-name="Trazado 2589" d="M2294.078,5496.441l-.408-27.154c-.079-5.286-.8-9.888-3.688-12.229s-2.886-4.3-2.886-4.3l-10.239,1.364-10.276-1.056s.054,1.957-2.756,4.383-3.4,7.049-3.319,12.334l.407,27.154s-.756,10.6,16.575,10.478v0l.169,0h.169v0C2295.152,5507.015,2294.078,5496.441,2294.078,5496.441Z" fill="#75c8da" opacity="0.78"/>
                <g id="Grupo_2608" data-name="Grupo 2608">
                  <path id="Trazado_2590" data-name="Trazado 2590" d="M2276.925,5458.688s6.955.623,10.245-1.173c0,0,4.181,2.267,4.2,17.553A18.96,18.96,0,0,0,2276.925,5458.688Z" fill="#b8f5ff"/>
                  <path id="Trazado_2591" data-name="Trazado 2591" d="M2287.339,5505.674c-22,2.965-24.755-7.879-24.773-9.122l-.34-22.594c-.152-10.157,1.444-14.328,3.905-16.127s2.4-3.566,2.4-3.566l-1-1.1-.945-.1s.054,1.957-2.756,4.383-3.4,7.049-3.319,12.334l.407,27.154s-.756,10.6,16.575,10.478v0l.169,0h.169v0a26,26,0,0,0,9.514-1.737Z" fill="#5baebc"/>
                </g>
                <path id="Trazado_2592" data-name="Trazado 2592" d="M2291.81,5475.212c-3.044,1.494-5.2,4.435-8.279,5.858-1.958.906-4.248,1.179-5.91,2.556-1.61,1.333-3.707,1.03-5.218,2.475-1.054,1.008-5.346-.007-6.553.811s-3.258,1.116-3.368,2.57c-.064.842.426,5.813.076,6.582-.582,1.283,2.366,2.484,2.213,3.885a2.6,2.6,0,0,0,.369,1.379A30.442,30.442,0,0,0,2266.6,5504c2.294,1.47,5.828,2.564,11.274,2.526v0l.157,0h.158v0c16.2-.371,15.194-10.256,15.194-10.256s-.209-13.916-.324-21.561A10.606,10.606,0,0,0,2291.81,5475.212Z" fill="#fffad2"/>
              </g>
              <g id="Grupo_2613" data-name="Grupo 2613">
                <path id="Trazado_2593" data-name="Trazado 2593" d="M2287.678,5446.054c.019,1.307-4.851,2.439-10.879,2.529s-10.929-.9-10.949-2.2,4.851-2.438,10.878-2.529S2287.658,5444.748,2287.678,5446.054Z" fill="#5cb5c4"/>
                <path id="Trazado_2594" data-name="Trazado 2594" d="M2287.7,5447.381l-.02-1.327c-1.136,1.432-9.8,1.652-10.892,1.674s-9.758.051-10.936-1.346l.02,1.327s.644.219.009.641l.022,1.423s.438.24.009.59l.027,1.831s.847,2.014,10.831,1.9v0l.114,0H2277c9.983-.181,10.769-2.22,10.769-2.22l-.028-1.83a.321.321,0,0,1-.008-.59l-.022-1.424C2287.06,5447.62,2287.7,5447.381,2287.7,5447.381Z" fill="#75c8da"/>
                <g id="Grupo_2612" data-name="Grupo 2612">
                  <g id="Grupo_2611" data-name="Grupo 2611" clip-path="url(#clip-path-2)">
                    <g id="Grupo_2610" data-name="Grupo 2610" opacity="0.5">
                      <path id="Trazado_2595" data-name="Trazado 2595" d="M2265.87,5447.709a44.477,44.477,0,0,0,21.828-.328l.009.641a42.258,42.258,0,0,1-21.828.328Z" fill="#258e7a"/>
                      <path id="Trazado_2596" data-name="Trazado 2596" d="M2265.9,5449.773a44.471,44.471,0,0,0,21.828-.327l.009.64a42.258,42.258,0,0,1-21.828.328Z" fill="#258e7a"/>
                    </g>
                  </g>
                </g>
              </g>
            </g>
          </g>
        </g>
        <g id="Grupo_2686" data-name="Grupo 2686">
          <g id="Grupo_2618" data-name="Grupo 2618">
            <g id="Grupo_2617" data-name="Grupo 2617">
              <path id="Trazado_2598" data-name="Trazado 2598" d="M2308.2,5436.346l-4.066-.045a9.38,9.38,0,0,0,1.017,4.562,5.013,5.013,0,0,0,2.71,2.437l3.727.873Z" fill="#333"/>
            </g>
          </g>
          <g id="Grupo_2620" data-name="Grupo 2620">
            <g id="Grupo_2619" data-name="Grupo 2619">
              <rect id="Rectángulo_2615" data-name="Rectángulo 2615" width="6.525" height="1.172" transform="translate(2307.86 5443.3)" fill="#424242"/>
            </g>
          </g>
          <g id="Grupo_2622" data-name="Grupo 2622">
            <g id="Grupo_2621" data-name="Grupo 2621">
              <rect id="Rectángulo_2616" data-name="Rectángulo 2616" width="5.563" height="3.297" transform="translate(2331.953 5438.042)" fill="#424242"/>
            </g>
          </g>
          <g id="Grupo_2624" data-name="Grupo 2624">
            <g id="Grupo_2623" data-name="Grupo 2623">
              <rect id="Rectángulo_2617" data-name="Rectángulo 2617" width="1.854" height="4.979" transform="translate(2331.025 5437.22)" fill="#6d6d6d"/>
            </g>
          </g>
          <g id="Grupo_2626" data-name="Grupo 2626">
            <g id="Grupo_2625" data-name="Grupo 2625">
              <rect id="Rectángulo_2618" data-name="Rectángulo 2618" width="14.991" height="4.751" transform="translate(2312.84 5437.447)" fill="#333"/>
            </g>
          </g>
          <g id="Grupo_2628" data-name="Grupo 2628">
            <g id="Grupo_2627" data-name="Grupo 2627">
              <circle id="Elipse_151" data-name="Elipse 151" cx="4.649" cy="4.649" r="4.649" transform="translate(2306.938 5434.874)" fill="#4d4d4d"/>
            </g>
          </g>
          <g id="Grupo_2630" data-name="Grupo 2630">
            <g id="Grupo_2629" data-name="Grupo 2629">
              <rect id="Rectángulo_2619" data-name="Rectángulo 2619" width="2.009" height="6.955" transform="translate(2323.349 5436.346)" fill="#6d6d6d"/>
            </g>
          </g>
          <g id="Grupo_2632" data-name="Grupo 2632">
            <g id="Grupo_2631" data-name="Grupo 2631">
              <rect id="Rectángulo_2620" data-name="Rectángulo 2620" width="6.182" height="9.299" transform="translate(2325.358 5435.173)" fill="#333"/>
            </g>
          </g>
          <g id="Grupo_2634" data-name="Grupo 2634">
            <g id="Grupo_2633" data-name="Grupo 2633">
              <rect id="Rectángulo_2621" data-name="Rectángulo 2621" width="6.182" height="0.919" transform="translate(2325.358 5436.301)" fill="#4d4d4d"/>
            </g>
          </g>
          <g id="Grupo_2636" data-name="Grupo 2636">
            <g id="Grupo_2635" data-name="Grupo 2635">
              <rect id="Rectángulo_2622" data-name="Rectángulo 2622" width="6.182" height="0.919" transform="translate(2325.358 5439.364)" fill="#4d4d4d"/>
            </g>
          </g>
          <g id="Grupo_2638" data-name="Grupo 2638">
            <g id="Grupo_2637" data-name="Grupo 2637">
              <rect id="Rectángulo_2623" data-name="Rectángulo 2623" width="6.182" height="0.919" transform="translate(2325.358 5442.199)" fill="#4d4d4d"/>
            </g>
          </g>
          <g id="Grupo_2640" data-name="Grupo 2640">
            <g id="Grupo_2639" data-name="Grupo 2639">
              <rect id="Rectángulo_2624" data-name="Rectángulo 2624" width="1.005" height="7" transform="translate(2324.353 5436.301)" fill="#424242"/>
            </g>
          </g>
          <g id="Grupo_2642" data-name="Grupo 2642">
            <g id="Grupo_2641" data-name="Grupo 2641">
              <path id="Trazado_2599" data-name="Trazado 2599" d="M2314.92,5439.388a3.333,3.333,0,1,1-3.333-3.332A3.332,3.332,0,0,1,2314.92,5439.388Z" fill="#6d6d6d"/>
            </g>
          </g>
          <g id="Grupo_2644" data-name="Grupo 2644">
            <g id="Grupo_2643" data-name="Grupo 2643">
              <rect id="Rectángulo_2625" data-name="Rectángulo 2625" width="1.854" height="4.979" transform="translate(2335.662 5437.22)" fill="#6d6d6d"/>
            </g>
          </g>
          <g id="Grupo_2646" data-name="Grupo 2646">
            <g id="Grupo_2645" data-name="Grupo 2645">
              <path id="Trazado_2600" data-name="Trazado 2600" d="M2307.86,5444.473l-.923,1.575h4.185v-1.575Z" fill="#333"/>
            </g>
          </g>
          <g id="Grupo_2648" data-name="Grupo 2648">
            <g id="Grupo_2647" data-name="Grupo 2647">
              <path id="Trazado_2601" data-name="Trazado 2601" d="M2314.385,5444.473l.922,1.575h-4.185v-1.575Z" fill="#333"/>
            </g>
          </g>
          <g id="Grupo_2650" data-name="Grupo 2650">
            <g id="Grupo_2649" data-name="Grupo 2649">
              <rect id="Rectángulo_2626" data-name="Rectángulo 2626" width="8.37" height="1.631" transform="translate(2306.938 5446.047)" fill="#4d4d4d"/>
            </g>
          </g>
          <g id="Grupo_2652" data-name="Grupo 2652">
            <g id="Grupo_2651" data-name="Grupo 2651">
              <rect id="Rectángulo_2627" data-name="Rectángulo 2627" width="10.352" height="5.439" transform="translate(2305.884 5447.678)" fill="#333"/>
            </g>
          </g>
          <g id="Grupo_2654" data-name="Grupo 2654">
            <g id="Grupo_2653" data-name="Grupo 2653">
              <rect id="Rectángulo_2628" data-name="Rectángulo 2628" width="0.831" height="4.19" transform="translate(2306.938 5447.678)" fill="#5b5b5b"/>
            </g>
          </g>
          <g id="Grupo_2656" data-name="Grupo 2656">
            <g id="Grupo_2655" data-name="Grupo 2655">
              <rect id="Rectángulo_2629" data-name="Rectángulo 2629" width="0.831" height="4.19" transform="translate(2314.477 5447.678)" fill="#5b5b5b"/>
            </g>
          </g>
          <g id="Grupo_2658" data-name="Grupo 2658">
            <g id="Grupo_2657" data-name="Grupo 2657">
              <rect id="Rectángulo_2630" data-name="Rectángulo 2630" width="0.831" height="4.19" transform="translate(2308.822 5447.678)" fill="#5b5b5b"/>
            </g>
          </g>
          <g id="Grupo_2660" data-name="Grupo 2660">
            <g id="Grupo_2659" data-name="Grupo 2659">
              <rect id="Rectángulo_2631" data-name="Rectángulo 2631" width="0.832" height="4.19" transform="translate(2310.71 5447.678)" fill="#5b5b5b"/>
            </g>
          </g>
          <g id="Grupo_2662" data-name="Grupo 2662">
            <g id="Grupo_2661" data-name="Grupo 2661">
              <rect id="Rectángulo_2632" data-name="Rectángulo 2632" width="0.831" height="4.19" transform="translate(2312.592 5447.678)" fill="#5b5b5b"/>
            </g>
          </g>
          <g id="Grupo_2670" data-name="Grupo 2670">
            <g id="Grupo_2664" data-name="Grupo 2664">
              <g id="Grupo_2663" data-name="Grupo 2663">
                <path id="Trazado_2602" data-name="Trazado 2602" d="M2302.975,5506.121h24.375a1.86,1.86,0,0,0,1.855-1.854v-.232h-28.084c0,.149,0,.232,0,.232A1.859,1.859,0,0,0,2302.975,5506.121Z" fill="#333"/>
              </g>
            </g>
            <g id="Grupo_2669" data-name="Grupo 2669">
              <g id="Grupo_2666" data-name="Grupo 2666">
                <g id="Grupo_2665" data-name="Grupo 2665">
                  <path id="Trazado_2603" data-name="Trazado 2603" d="M2327.316,5474.207c-.1-4.224-.618-5.152-2.963-7.007-2.214-1.752-4.71-2.833-6.516-4.378-2.53-2.165-.1-5.049-.928-6.708a14.065,14.065,0,0,0-2.524-3h-8.5s-.8.942-1.537,1.86c-1.1,1.366.251,2.677.82,4.647s-1.031,3.745-1.81,5.711-2.109,3.561-2.109,7.159c0,3.694-.114,28.88-.127,31.541h26.208C2327.352,5495.756,2327.4,5477.456,2327.316,5474.207Z" fill="#424242"/>
                </g>
              </g>
              <g id="Grupo_2668" data-name="Grupo 2668">
                <g id="Grupo_2667" data-name="Grupo 2667">
                  <path id="Trazado_2604" data-name="Trazado 2604" d="M2329.067,5474.516c-.309-4.173-.818-5.805-2.06-7.316-1.528-1.857-5.919-3.664-7.625-5.007a4.246,4.246,0,0,1-1.133-4.163c.583-1.442.566-1.7-.258-3.091a6.208,6.208,0,0,0-1.754-1.822h-1.852a14.065,14.065,0,0,1,2.524,3c.824,1.659-1.6,4.543.928,6.708,1.806,1.545,4.3,2.626,6.516,4.378,2.345,1.855,2.86,2.783,2.963,7.007.079,3.249.036,21.549.013,29.828h1.876C2329.21,5501.416,2329.252,5477,2329.067,5474.516Z" fill="#6d6d6d"/>
                </g>
              </g>
            </g>
          </g>
          <g id="Grupo_2672" data-name="Grupo 2672">
            <g id="Grupo_2671" data-name="Grupo 2671">
              <path id="Rectángulo_2633" data-name="Rectángulo 2633" d="M2.132,0H18.423a2.132,2.132,0,0,1,2.132,2.132V8.686a2.133,2.133,0,0,1-2.133,2.133H2.132A2.132,2.132,0,0,1,0,8.687V2.132A2.132,2.132,0,0,1,2.132,0Z" transform="translate(2304.803 5472.765)" fill="#333"/>
            </g>
          </g>
          <g id="Grupo_2674" data-name="Grupo 2674">
            <g id="Grupo_2673" data-name="Grupo 2673">
              <path id="Rectángulo_2634" data-name="Rectángulo 2634" d="M2.133,0h16.29a2.132,2.132,0,0,1,2.132,2.132V8.687a2.132,2.132,0,0,1-2.132,2.132H2.132A2.132,2.132,0,0,1,0,8.687V2.133A2.133,2.133,0,0,1,2.133,0Z" transform="translate(2304.803 5489.919)" fill="#333"/>
            </g>
          </g>
          <g id="Grupo_2676" data-name="Grupo 2676">
            <g id="Grupo_2675" data-name="Grupo 2675">
              <path id="Rectángulo_2635" data-name="Rectángulo 2635" d="M2.132,0H18.423a2.132,2.132,0,0,1,2.132,2.132V20.864A2.133,2.133,0,0,1,18.422,23H2.132A2.132,2.132,0,0,1,0,20.865V2.132A2.132,2.132,0,0,1,2.132,0Z" transform="translate(2304.803 5475.371)" fill="#f5e52e"/>
            </g>
          </g>
          <g id="Grupo_2678" data-name="Grupo 2678">
            <g id="Grupo_2677" data-name="Grupo 2677">
              <rect id="Rectángulo_2636" data-name="Rectángulo 2636" width="6.381" height="1.07" transform="translate(2307.935 5457.099)" fill="#333"/>
            </g>
          </g>
          <g id="Grupo_2680" data-name="Grupo 2680">
            <g id="Grupo_2679" data-name="Grupo 2679">
              <rect id="Rectángulo_2637" data-name="Rectángulo 2637" width="6.381" height="1.071" transform="translate(2307.935 5459.413)" fill="#333"/>
            </g>
          </g>
          <g id="Grupo_2683" data-name="Grupo 2683">
            <g id="Grupo_2682" data-name="Grupo 2682">
              <g id="Grupo_2681" data-name="Grupo 2681">
                <path id="Trazado_2605" data-name="Trazado 2605" d="M2314.892,5496.316a9.207,9.207,0,1,1,9.206-9.207A9.217,9.217,0,0,1,2314.892,5496.316Zm0-17.394a8.187,8.187,0,1,0,8.187,8.187A8.2,8.2,0,0,0,2314.892,5478.922Z" fill="#fff"/>
              </g>
            </g>
          </g>
          <g id="Grupo_2685" data-name="Grupo 2685">
            <g id="Grupo_2684" data-name="Grupo 2684">
              <rect id="Rectángulo_2638" data-name="Rectángulo 2638" width="20.555" height="1.44" transform="translate(2304.803 5469.743)" fill="#fff"/>
            </g>
          </g>
        </g>
      </g>
    </g>
  </g>
</svg>
