<svg xmlns="http://www.w3.org/2000/svg" width="91.661" height="145.143" viewBox="0 0 91.661 145.143">
  <g id="Grupo_3062" data-name="Grupo 3062" transform="translate(-1932.837 -7539.657)">
    <g id="Grupo_2961" data-name="Grupo 2961">
      <path id="Trazado_3398" data-name="Trazado 3398" d="M1955,7606.993l5.223-9.406-12.565-6.048-3.423,7.1-.14.257s-3.866,6.091-4.721,7.467c-.362.582-2.015,3.613-2.446,4.569h0l-3.962,7.572v0a1.147,1.147,0,0,0,.6,1.561,1.288,1.288,0,0,0,1.7-.456v0h0l4.3-7.407.182.088-5.381,10.432.007,0v0a1.265,1.265,0,0,0,.782,1.648,1.421,1.421,0,0,0,1.875-.369l0,0,5.777-10.241.171.082-6.376,12.144a1.267,1.267,0,0,0,.784,1.649,1.424,1.424,0,0,0,1.881-.367l6.687-11.993.111.053-5.694,11.11a1.269,1.269,0,0,0,.784,1.65,1.425,1.425,0,0,0,1.879-.368h0s7.258-13.356,7.693-14.233c0,0,.9,7.074.9,7.091a2.128,2.128,0,0,0,2.474,1.246,1.881,1.881,0,0,0,1.582-2.041h0Z" fill="#4a967e"/>
    </g>
    <g id="Grupo_2963" data-name="Grupo 2963">
      <g id="Grupo_2962" data-name="Grupo 2962">
        <path id="Trazado_3399" data-name="Trazado 3399" d="M1999.717,7605.211l-5.679-5.744,10.3-8.862,3.414,3.864.207.213s5.44,4.911,6.651,6.023c.512.471,2.959,2.982,3.643,3.8h0l5.948,6.314h0l0,0a1.129,1.129,0,0,1-.142,1.656,1.3,1.3,0,0,1-1.763-.016l0,0-6.231-6.07-.151.13,8.119,8.719-.006.005h0a1.242,1.242,0,0,1-.291,1.786,1.432,1.432,0,0,1-1.913.111v0l-8.449-8.436-.142.121,9.562,10.121a1.246,1.246,0,0,1-.294,1.788,1.434,1.434,0,0,1-1.915.114l-9.821-9.9-.092.08,8.614,9.293a1.245,1.245,0,0,1-.294,1.787,1.434,1.434,0,0,1-1.916.114h0s-10.752-11.069-11.418-11.806c0,0,1.119,7.045,1.12,7.062a2.048,2.048,0,0,1-2.035,1.819,1.956,1.956,0,0,1-2.1-1.573h0Z" fill="#4a967e"/>
      </g>
    </g>
    <g id="Grupo_2979" data-name="Grupo 2979">
      <g id="Grupo_2964" data-name="Grupo 2964">
        <path id="Trazado_3400" data-name="Trazado 3400" d="M1989.995,7588.041l-4.48-1.327-16.969,13.5,3.064,2.434Z" fill="#565656"/>
      </g>
      <g id="Grupo_2965" data-name="Grupo 2965">
        <path id="Trazado_3401" data-name="Trazado 3401" d="M1964.978,7588.041l4.483-1.327,17.371,13.823-3.063,2.435Z" fill="#686868"/>
      </g>
      <g id="Grupo_2966" data-name="Grupo 2966">
        <path id="Trazado_3402" data-name="Trazado 3402" d="M1969.461,7586.714l-4.739,1.078v10.794h4.739Z" fill="#fff" stroke="#a0a2a3" stroke-miterlimit="10" stroke-width="1"/>
      </g>
      <g id="Grupo_2967" data-name="Grupo 2967">
        <path id="Trazado_3403" data-name="Trazado 3403" d="M1990.254,7587.767l-4.738-1.053v12.043h4.738Z" fill="#e8e8e8" stroke="#a0a2a3" stroke-miterlimit="10" stroke-width="1"/>
      </g>
      <g id="Grupo_2970" data-name="Grupo 2970">
        <g id="Grupo_2968" data-name="Grupo 2968">
          <path id="Trazado_3404" data-name="Trazado 3404" d="M1964.722,7598.586v13.038c0,2.223-2.07,4.06-4.761,4.363v35.591h15l.167-9.871,2.134-16.946h.223v-26.175Z" fill="#fff" stroke="#a0a2a3" stroke-miterlimit="10" stroke-width="1"/>
        </g>
        <g id="Grupo_2969" data-name="Grupo 2969">
          <path id="Trazado_3405" data-name="Trazado 3405" d="M1990.254,7611.624v-13.038h-12.766v26.175h.224l2.134,16.946.166,9.871h15v-35.591C1992.325,7615.684,1990.254,7613.847,1990.254,7611.624Z" fill="#e8e8e8" stroke="#a0a2a3" stroke-miterlimit="10" stroke-width="1"/>
        </g>
      </g>
      <g id="Grupo_2971" data-name="Grupo 2971">
        <path id="Trazado_3406" data-name="Trazado 3406" d="M1959.961,7623.752v-7.007h9.5Z" fill="#bfbfbf" stroke="#a0a2a3" stroke-miterlimit="10" stroke-width="1"/>
      </g>
      <g id="Grupo_2972" data-name="Grupo 2972">
        <path id="Trazado_3407" data-name="Trazado 3407" d="M1995.016,7623.752v-7.007h-9.5Z" fill="#bfbfbf" stroke="#a0a2a3" stroke-miterlimit="10" stroke-width="1"/>
      </g>
      <g id="Grupo_2973" data-name="Grupo 2973">
        <path id="Trazado_3408" data-name="Trazado 3408" d="M1967.895,7618.293l1.566-1.548h-9.5v1.548Z" fill="#00754e"/>
      </g>
      <g id="Grupo_2974" data-name="Grupo 2974">
        <path id="Trazado_3409" data-name="Trazado 3409" d="M1995.016,7618.293v-1.548h-9.5l1.566,1.548Z" fill="#00754e"/>
      </g>
      <g id="Grupo_2975" data-name="Grupo 2975">
        <rect id="Rectángulo_2699" data-name="Rectángulo 2699" width="4.739" height="1.039" transform="translate(1964.722 7597.548)" fill="#ffca00"/>
      </g>
      <g id="Grupo_2976" data-name="Grupo 2976">
        <rect id="Rectángulo_2700" data-name="Rectángulo 2700" width="4.739" height="1.038" transform="translate(1964.722 7596.68)" fill="#00754e"/>
      </g>
      <g id="Grupo_2977" data-name="Grupo 2977">
        <rect id="Rectángulo_2701" data-name="Rectángulo 2701" width="4.738" height="1.039" transform="translate(1985.515 7597.718)" fill="#ffca00"/>
      </g>
      <g id="Grupo_2978" data-name="Grupo 2978">
        <rect id="Rectángulo_2702" data-name="Rectángulo 2702" width="4.738" height="1.038" transform="translate(1985.515 7596.68)" fill="#00754e"/>
      </g>
    </g>
    <g id="Grupo_2994" data-name="Grupo 2994">
      <g id="Grupo_2981" data-name="Grupo 2981">
        <g id="Grupo_2980" data-name="Grupo 2980">
          <path id="Trazado_3410" data-name="Trazado 3410" d="M1990.219,7557.41c-8.05-1.83-8.616-13.784-19.269-15.527-.654-.12-1.343-.654-.79-1.29h0a2.867,2.867,0,0,1,2.547-.9c8.051,1.83,18.17,11.279,19.269,15.526C1992.814,7557.272,1991.1,7557.58,1990.219,7557.41Z" fill="#0e1c2d"/>
        </g>
      </g>
      <g id="Grupo_2983" data-name="Grupo 2983">
        <g id="Grupo_2982" data-name="Grupo 2982">
          <path id="Trazado_3411" data-name="Trazado 3411" d="M1962.849,7557.41c8.051-1.83,8.616-13.784,19.269-15.527.655-.12,1.343-.654.79-1.29h0a2.867,2.867,0,0,0-2.547-.9c-8.05,1.83-18.17,11.279-19.27,15.526C1960.254,7557.272,1961.965,7557.58,1962.849,7557.41Z" fill="#1a2e47"/>
        </g>
      </g>
      <g id="Grupo_2986" data-name="Grupo 2986">
        <g id="Grupo_2984" data-name="Grupo 2984">
          <path id="Trazado_3412" data-name="Trazado 3412" d="M1968.277,7551.689c-3.665,0-7.381,1.452-7.462,4.9-.083,3.531,3.8,8.057,7.462,8.1,3.212.037,4.713-1.136,5.687-2.708.718-1.156,1.153-2.425,2.576-2.425v-7.87Z" fill="#002c54"/>
        </g>
        <g id="Grupo_2985" data-name="Grupo 2985">
          <path id="Trazado_3413" data-name="Trazado 3413" d="M1984.8,7551.689h-8.26v7.87c1.42,0,1.856,1.269,2.574,2.425.975,1.572,2.475,2.745,5.686,2.708,3.666-.042,7.546-4.568,7.463-8.1C1992.182,7553.141,1988.466,7551.689,1984.8,7551.689Z" fill="#0e1c2d"/>
        </g>
      </g>
      <g id="Grupo_2989" data-name="Grupo 2989">
        <g id="Grupo_2987" data-name="Grupo 2987">
          <path id="Trazado_3414" data-name="Trazado 3414" d="M1989.172,7553.946a9.065,9.065,0,0,0-4.372-.973h-8.26v5.3h0c2,0,2.826,1.453,3.431,2.515.108.191.212.372.319.547.668,1.075,1.66,2.072,4.363,2.072h.131a5.77,5.77,0,0,0,3.695-1.852,8.064,8.064,0,0,0,2.354-4.113,4.274,4.274,0,0,0,.067-.822A3.023,3.023,0,0,0,1989.172,7553.946Z" fill="#c6dcff"/>
        </g>
        <g id="Grupo_2988" data-name="Grupo 2988">
          <path id="Trazado_3415" data-name="Trazado 3415" d="M1968.277,7552.973a9.056,9.056,0,0,0-4.37.973,3.023,3.023,0,0,0-1.728,2.675,4.121,4.121,0,0,0,.066.823,8.073,8.073,0,0,0,2.354,4.112,5.768,5.768,0,0,0,3.695,1.852h.131c2.7,0,3.694-1,4.361-2.072.109-.175.212-.356.321-.547.606-1.062,1.434-2.515,3.433-2.515v-5.3Z" fill="#dae8ff"/>
        </g>
      </g>
      <g id="Grupo_2991" data-name="Grupo 2991" opacity="0.4">
        <g id="Grupo_2990" data-name="Grupo 2990">
          <path id="Trazado_3416" data-name="Trazado 3416" d="M1990.833,7557.443a2.432,2.432,0,0,1-.614-.033c-2.677-.609-4.526-2.337-6.193-4.437h.774a9.065,9.065,0,0,1,4.372.973,3.023,3.023,0,0,1,1.728,2.675A4.274,4.274,0,0,1,1990.833,7557.443Z" fill="#002c54"/>
        </g>
      </g>
      <g id="Grupo_2993" data-name="Grupo 2993" opacity="0.4">
        <g id="Grupo_2992" data-name="Grupo 2992">
          <path id="Trazado_3417" data-name="Trazado 3417" d="M1968.277,7552.973h.766c-1.668,2.1-3.517,3.828-6.194,4.437a2.492,2.492,0,0,1-.6.034,4.121,4.121,0,0,1-.066-.823,3.023,3.023,0,0,1,1.728-2.675A9.056,9.056,0,0,1,1968.277,7552.973Z" fill="#003868"/>
        </g>
      </g>
    </g>
    <g id="Grupo_3037" data-name="Grupo 3037">
      <g id="Grupo_2995" data-name="Grupo 2995">
        <rect id="Rectángulo_2703" data-name="Rectángulo 2703" width="7.442" height="2.811" transform="translate(1973.767 7579.925)" fill="#005aa0"/>
      </g>
      <g id="Grupo_2996" data-name="Grupo 2996">
        <rect id="Rectángulo_2704" data-name="Rectángulo 2704" width="8.298" height="2.811" transform="translate(1973.339 7579.383)" fill="#002239"/>
      </g>
      <g id="Grupo_2999" data-name="Grupo 2999">
        <g id="Grupo_2997" data-name="Grupo 2997">
          <path id="Trazado_3418" data-name="Trazado 3418" d="M1974.406,7564.088l-11.642,13.052c-1.7,1.9-.308,3.455,3.082,3.455h11.643v-17.933A4.117,4.117,0,0,0,1974.406,7564.088Z" fill="#75c8da"/>
        </g>
        <g id="Grupo_2998" data-name="Grupo 2998">
          <path id="Trazado_3419" data-name="Trazado 3419" d="M1992.212,7577.14l-11.643-13.052a4.114,4.114,0,0,0-3.08-1.426V7580.6h11.641C1992.521,7580.6,1993.907,7579.04,1992.212,7577.14Z" fill="#5baebc"/>
        </g>
      </g>
      <g id="Grupo_3000" data-name="Grupo 3000">
        <path id="Trazado_3420" data-name="Trazado 3420" d="M1965.846,7581.08c-3.39,0-4.777-1.029-3.082-2.287l11.642-8.641a5.5,5.5,0,0,1,6.163,0l11.643,8.641c1.695,1.258.309,2.287-3.082,2.287Z" fill="#0e1c2d"/>
      </g>
      <g id="Grupo_3015" data-name="Grupo 3015">
        <g id="Grupo_3007" data-name="Grupo 3007">
          <g id="Grupo_3001" data-name="Grupo 3001">
            <path id="Trazado_3421" data-name="Trazado 3421" d="M1982.99,7583.015c-1.019-.554-.335-3.469,1.53-6.51s4.2-5.057,5.22-4.5.334,3.469-1.529,6.51S1984.01,7583.57,1982.99,7583.015Z" fill="#002239"/>
          </g>
          <g id="Grupo_3002" data-name="Grupo 3002">
            <path id="Trazado_3422" data-name="Trazado 3422" d="M1982.99,7583.015l6.75-11.013,5.538,3.012-6.75,11.013Z" fill="#002239"/>
          </g>
          <g id="Grupo_3003" data-name="Grupo 3003">
            <path id="Trazado_3423" data-name="Trazado 3423" d="M1988.528,7586.027c-1.02-.555-.335-3.469,1.529-6.51s4.2-5.058,5.221-4.5.333,3.469-1.53,6.51S1989.547,7586.581,1988.528,7586.027Z" fill="#002239"/>
          </g>
          <g id="Grupo_3004" data-name="Grupo 3004">
            <path id="Trazado_3424" data-name="Trazado 3424" d="M1983.913,7583.517c-1.019-.555-.335-3.469,1.529-6.51s4.2-5.057,5.221-4.5.334,3.47-1.529,6.51S1984.932,7584.071,1983.913,7583.517Z" fill="#002239"/>
          </g>
          <g id="Grupo_3005" data-name="Grupo 3005">
            <path id="Trazado_3425" data-name="Trazado 3425" d="M1988.941,7585.352c-.742-.405-.019-2.9,1.617-5.563s3.563-4.5,4.306-4.1.02,2.894-1.616,5.563S1989.684,7585.755,1988.941,7585.352Z" fill="#005aa0"/>
          </g>
          <g id="Grupo_3006" data-name="Grupo 3006">
            <path id="Trazado_3426" data-name="Trazado 3426" d="M1985.439,7577c1.8-2.939,4.043-4.921,5.115-4.56l-.814-.443c-1.019-.554-3.357,1.462-5.22,4.5s-2.549,5.956-1.53,6.51l.814.444C1982.936,7582.764,1983.637,7579.944,1985.439,7577Z" fill="#005aa0"/>
          </g>
        </g>
        <g id="Grupo_3014" data-name="Grupo 3014">
          <g id="Grupo_3008" data-name="Grupo 3008">
            <path id="Trazado_3427" data-name="Trazado 3427" d="M1971.986,7583.015c1.02-.554.335-3.469-1.529-6.51s-4.2-5.057-5.22-4.5-.336,3.469,1.528,6.51S1970.967,7583.57,1971.986,7583.015Z" fill="#002239"/>
          </g>
          <g id="Grupo_3009" data-name="Grupo 3009">
            <path id="Trazado_3428" data-name="Trazado 3428" d="M1971.986,7583.015l-6.75-11.013-5.538,3.012,6.75,11.013Z" fill="#002239"/>
          </g>
          <g id="Grupo_3010" data-name="Grupo 3010">
            <path id="Trazado_3429" data-name="Trazado 3429" d="M1966.449,7586.027c1.02-.555.335-3.469-1.529-6.51s-4.2-5.058-5.222-4.5-.335,3.469,1.53,6.51S1965.429,7586.581,1966.449,7586.027Z" fill="#002239"/>
          </g>
          <g id="Grupo_3011" data-name="Grupo 3011">
            <path id="Trazado_3430" data-name="Trazado 3430" d="M1971.063,7583.517c1.019-.555.335-3.469-1.529-6.51s-4.2-5.057-5.221-4.5-.335,3.47,1.529,6.51S1970.044,7584.071,1971.063,7583.517Z" fill="#002239"/>
          </g>
          <g id="Grupo_3012" data-name="Grupo 3012">
            <path id="Trazado_3431" data-name="Trazado 3431" d="M1966.035,7585.352c.743-.405.019-2.9-1.616-5.563s-3.564-4.5-4.306-4.1-.02,2.894,1.615,5.563S1965.292,7585.755,1966.035,7585.352Z" fill="#005aa0"/>
          </g>
          <g id="Grupo_3013" data-name="Grupo 3013">
            <path id="Trazado_3432" data-name="Trazado 3432" d="M1969.537,7577c-1.8-2.939-4.043-4.921-5.116-4.56l.816-.443c1.019-.554,3.356,1.462,5.22,4.5s2.549,5.956,1.529,6.51l-.814.444C1972.04,7582.764,1971.338,7579.944,1969.537,7577Z" fill="#005aa0"/>
          </g>
        </g>
      </g>
      <g id="Grupo_3036" data-name="Grupo 3036">
        <g id="Grupo_3016" data-name="Grupo 3016">
          <path id="Trazado_3433" data-name="Trazado 3433" d="M1982.708,7575.391a5.229,5.229,0,1,0-5.219,4.918A5.074,5.074,0,0,0,1982.708,7575.391Z" fill="#fff"/>
        </g>
        <g id="Grupo_3017" data-name="Grupo 3017">
          <ellipse id="Elipse_160" data-name="Elipse 160" cx="4.755" cy="4.479" rx="4.755" ry="4.479" transform="translate(1972.734 7570.913)" fill="#010616"/>
        </g>
        <g id="Grupo_3018" data-name="Grupo 3018">
          <path id="Trazado_3434" data-name="Trazado 3434" d="M1981.727,7575.391a4.246,4.246,0,1,0-4.238,3.992A4.121,4.121,0,0,0,1981.727,7575.391Z" fill="#fff"/>
        </g>
        <g id="Grupo_3019" data-name="Grupo 3019">
          <path id="Trazado_3435" data-name="Trazado 3435" d="M1977.949,7575.391a.461.461,0,1,0-.46.434A.447.447,0,0,0,1977.949,7575.391Z" fill="#010616"/>
        </g>
        <g id="Grupo_3020" data-name="Grupo 3020">
          <path id="Trazado_3436" data-name="Trazado 3436" d="M1977.949,7573.856a.461.461,0,1,0-.46.434A.448.448,0,0,0,1977.949,7573.856Z" fill="#010616"/>
        </g>
        <g id="Grupo_3021" data-name="Grupo 3021">
          <path id="Trazado_3437" data-name="Trazado 3437" d="M1977.949,7572.32a.461.461,0,1,0-.46.434A.448.448,0,0,0,1977.949,7572.32Z" fill="#010616"/>
        </g>
        <g id="Grupo_3022" data-name="Grupo 3022">
          <path id="Trazado_3438" data-name="Trazado 3438" d="M1977.949,7578.463a.461.461,0,1,0-.46.434A.448.448,0,0,0,1977.949,7578.463Z" fill="#010616"/>
        </g>
        <g id="Grupo_3023" data-name="Grupo 3023">
          <path id="Trazado_3439" data-name="Trazado 3439" d="M1975.508,7572.913a.481.481,0,0,0-.651,0,.415.415,0,0,0,0,.613.479.479,0,0,0,.651,0A.417.417,0,0,0,1975.508,7572.913Z" fill="#010616"/>
        </g>
        <g id="Grupo_3024" data-name="Grupo 3024">
          <ellipse id="Elipse_161" data-name="Elipse 161" cx="0.46" cy="0.434" rx="0.46" ry="0.434" transform="translate(1979.334 7577.13)" fill="#010616"/>
        </g>
        <g id="Grupo_3025" data-name="Grupo 3025">
          <path id="Trazado_3440" data-name="Trazado 3440" d="M1974.228,7574.958a.434.434,0,1,0,.459.433A.447.447,0,0,0,1974.228,7574.958Z" fill="#010616"/>
        </g>
        <g id="Grupo_3026" data-name="Grupo 3026">
          <path id="Trazado_3441" data-name="Trazado 3441" d="M1980.749,7574.958a.434.434,0,1,0,.46.433A.447.447,0,0,0,1980.749,7574.958Z" fill="#010616"/>
        </g>
        <g id="Grupo_3027" data-name="Grupo 3027">
          <path id="Trazado_3442" data-name="Trazado 3442" d="M1974.857,7577.257a.416.416,0,0,0,0,.613.481.481,0,0,0,.651,0,.417.417,0,0,0,0-.613A.479.479,0,0,0,1974.857,7577.257Z" fill="#010616"/>
        </g>
        <g id="Grupo_3028" data-name="Grupo 3028">
          <path id="Trazado_3443" data-name="Trazado 3443" d="M1979.469,7572.913a.414.414,0,0,0,0,.613.478.478,0,0,0,.65,0,.415.415,0,0,0,0-.613A.48.48,0,0,0,1979.469,7572.913Z" fill="#010616"/>
        </g>
        <g id="Grupo_3029" data-name="Grupo 3029">
          <path id="Trazado_3444" data-name="Trazado 3444" d="M1977.949,7576.927a.461.461,0,1,0-.46.434A.447.447,0,0,0,1977.949,7576.927Z" fill="#010616"/>
        </g>
        <g id="Grupo_3030" data-name="Grupo 3030">
          <path id="Trazado_3445" data-name="Trazado 3445" d="M1976.661,7574a.483.483,0,0,0-.652,0,.417.417,0,0,0,0,.613.48.48,0,0,0,.652,0A.417.417,0,0,0,1976.661,7574Z" fill="#010616"/>
        </g>
        <g id="Grupo_3031" data-name="Grupo 3031">
          <path id="Trazado_3446" data-name="Trazado 3446" d="M1978.967,7576.171a.483.483,0,0,0-.652,0,.417.417,0,0,0,0,.613.483.483,0,0,0,.652,0A.417.417,0,0,0,1978.967,7576.171Z" fill="#010616"/>
        </g>
        <g id="Grupo_3032" data-name="Grupo 3032">
          <path id="Trazado_3447" data-name="Trazado 3447" d="M1975.858,7574.958a.434.434,0,1,0,.46.433A.447.447,0,0,0,1975.858,7574.958Z" fill="#010616"/>
        </g>
        <g id="Grupo_3033" data-name="Grupo 3033">
          <path id="Trazado_3448" data-name="Trazado 3448" d="M1979.118,7574.958a.434.434,0,1,0,.461.433A.447.447,0,0,0,1979.118,7574.958Z" fill="#010616"/>
        </g>
        <g id="Grupo_3034" data-name="Grupo 3034">
          <ellipse id="Elipse_162" data-name="Elipse 162" cx="0.461" cy="0.434" rx="0.461" ry="0.434" transform="translate(1975.874 7576.043)" fill="#010616"/>
        </g>
        <g id="Grupo_3035" data-name="Grupo 3035">
          <path id="Trazado_3449" data-name="Trazado 3449" d="M1978.315,7574a.417.417,0,0,0,0,.613.48.48,0,0,0,.652,0,.417.417,0,0,0,0-.613A.483.483,0,0,0,1978.315,7574Z" fill="#010616"/>
        </g>
      </g>
    </g>
    <g id="Grupo_3049" data-name="Grupo 3049">
      <g id="Grupo_3048" data-name="Grupo 3048">
        <g id="Grupo_3038" data-name="Grupo 3038">
          <path id="Trazado_3450" data-name="Trazado 3450" d="M1947.431,7679.971c.195,1.623,2.8,3.248,6.23,3.513,7,.541,7.009-1.008,11.157-1.16.735-.026,1.407-.068,2.012-.076l-.12-1.738c0-.166.965,0,1.173,0h4.282a.344.344,0,0,1,.376.3v.117h.029c.753,0,1.6-.646,1.925-.354.01-.21.019-.39.019-.4.167.013.075,1.275.017,1.585v0a9.129,9.129,0,0,1-.343,1.547,2.018,2.018,0,0,1-1.534,1.408.232.232,0,0,0-.242-.154h-.022a.216.216,0,0,0-.233.195h-.961a.311.311,0,0,0-.282-.151h-.362a.311.311,0,0,0-.283.151h-1.147a.315.315,0,0,0-.284-.151h-.362a.313.313,0,0,0-.283.151h-.834a.345.345,0,0,1-.376-.3l-.106-1.535a9.016,9.016,0,0,0-2.059-.147c-2.728.1-2.716.669-4.812,1.615a6.022,6.022,0,0,1-1.857.357.318.318,0,0,0-.278-.142h-.363a.3.3,0,0,0-.3.185c-.554.013-1.141.006-1.735-.015a.307.307,0,0,0-.291-.17h-.363a.326.326,0,0,0-.27.128c-.3-.017-.6-.037-.892-.06-.167-.012-.333-.028-.5-.049a.277.277,0,0,0-.223-.178l-.352-.068a.349.349,0,0,0-.327.1,10.251,10.251,0,0,1-1.577-.444.229.229,0,0,0-.164-.284l-.328-.123a.369.369,0,0,0-.344.046c-1.512-.749-2.45-1.8-2.464-2.817A5.282,5.282,0,0,1,1947.431,7679.971Z" fill="#0e1c2d"/>
        </g>
        <g id="Grupo_3039" data-name="Grupo 3039">
          <path id="Trazado_3451" data-name="Trazado 3451" d="M1947.47,7679.72c.2,1.621,2.8,3.189,6.229,3.454,7,.541,7.009-1.06,11.158-1.212,3.569-.131,4.528.893,7.528.453a2.487,2.487,0,0,0,2.117-2.2c0-.022,0-.043,0-.066.176.015.113.4.057.6a2.892,2.892,0,0,1-2.294,2.108c-3,.44-3.84-.577-7.409-.446-4.149.151-4.157,1.754-11.158,1.213-3.6-.278-6.252-2.107-6.275-3.816C1947.422,7679.734,1947.422,7679.72,1947.47,7679.72Z" fill="#ffcd00"/>
        </g>
        <g id="Grupo_3041" data-name="Grupo 3041">
          <g id="Grupo_3040" data-name="Grupo 3040">
            <path id="Trazado_3452" data-name="Trazado 3452" d="M1947.424,7679.446c.1-2.638,2.01-3.323,4.157-3.146,4.491.368,6.165-.106,7.592-1.6,1.6-1.674.187-14.124-.625-20.27h17.035c-.4,2.9-.93,7-1.154,9.6-.189,2.185-.337,4.276-.46,6.036-.172,2.431-.479,5.029-.493,5.151-.181,1.616,1.124,2.257,1.026,5a2.487,2.487,0,0,1-2.117,2.2c-3,.44-3.959-.584-7.528-.453-4.149.152-4.157,1.753-11.158,1.212C1950.1,7682.9,1947.362,7681.153,1947.424,7679.446Z" fill="#ffb800"/>
          </g>
        </g>
        <g id="Grupo_3043" data-name="Grupo 3043">
          <g id="Grupo_3042" data-name="Grupo 3042">
            <path id="Trazado_3453" data-name="Trazado 3453" d="M1953.7,7683.174c7,.541,7.009-1.061,11.158-1.212,3.569-.131,4.528.893,7.528.453a2.486,2.486,0,0,0,2.116-2.2c.118-3.234-1.206-3.38-1.025-5,.005-.042.045-.384.1-.913.108-.994.278-2.651.39-4.238.123-1.76.27-3.851.46-6.036.145-1.681.418-3.981.7-6.18.155-1.211.314-2.392.454-3.422h-17.035c.812,6.146,2.227,18.594.624,20.27-1.426,1.491-3.1,1.965-7.591,1.6-2.147-.177-4.061.508-4.158,3.146C1947.362,7681.153,1950.1,7682.9,1953.7,7683.174Z" fill="#272729"/>
          </g>
        </g>
        <g id="Grupo_3045" data-name="Grupo 3045">
          <g id="Grupo_3044" data-name="Grupo 3044">
            <path id="Trazado_3454" data-name="Trazado 3454" d="M1959.449,7662.271c-.274-2.894-.623-5.736-.9-7.838h17.035c-.315,2.306-.717,5.369-.981,7.838Z" fill="#161a17"/>
          </g>
        </g>
        <g id="Grupo_3046" data-name="Grupo 3046">
          <path id="Trazado_3455" data-name="Trazado 3455" d="M1958.548,7654.426v-.677a.52.52,0,0,1,.569-.45h15.9a.519.519,0,0,1,.569.45v.677Z" fill="#ffcd00"/>
        </g>
        <g id="Grupo_3047" data-name="Grupo 3047">
          <path id="Trazado_3456" data-name="Trazado 3456" d="M1968.17,7660.184v11.8c0,1.287,1.315,2.329,2.937,2.329h2.472c.108-.994.278-2.651.39-4.238.123-1.76.27-3.851.46-6.036.145-1.681.418-3.981.7-6.18h-4.022C1969.485,7657.855,1968.17,7658.9,1968.17,7660.184Z" fill="#161a17"/>
        </g>
      </g>
    </g>
    <g id="Grupo_3061" data-name="Grupo 3061">
      <g id="Grupo_3060" data-name="Grupo 3060">
        <g id="Grupo_3050" data-name="Grupo 3050">
          <path id="Trazado_3457" data-name="Trazado 3457" d="M2008.091,7679.971c-.195,1.623-2.8,3.248-6.23,3.513-7,.541-7.009-1.008-11.157-1.16-.735-.026-1.407-.068-2.012-.076l.12-1.738c0-.166-.965,0-1.173,0h-4.282a.344.344,0,0,0-.376.3v.117h-.029c-.753,0-1.6-.646-1.925-.354-.01-.21-.019-.39-.019-.4-.167.013-.075,1.275-.017,1.585v0a9.129,9.129,0,0,0,.343,1.547,2.019,2.019,0,0,0,1.535,1.408.231.231,0,0,1,.241-.154h.022a.216.216,0,0,1,.233.195h.961a.311.311,0,0,1,.282-.151h.362a.312.312,0,0,1,.283.151h1.147a.315.315,0,0,1,.284-.151h.362a.311.311,0,0,1,.283.151h.834a.344.344,0,0,0,.376-.3l.106-1.535a9.016,9.016,0,0,1,2.059-.147c2.728.1,2.716.669,4.812,1.615a6.023,6.023,0,0,0,1.857.357.317.317,0,0,1,.278-.142h.363a.3.3,0,0,1,.3.185c.554.013,1.141.006,1.735-.015a.306.306,0,0,1,.291-.17h.363a.326.326,0,0,1,.27.128c.3-.017.6-.037.892-.06.168-.012.333-.028.5-.049a.277.277,0,0,1,.223-.178l.352-.068a.348.348,0,0,1,.327.1,10.257,10.257,0,0,0,1.577-.444.228.228,0,0,1,.164-.284l.328-.123a.369.369,0,0,1,.344.046c1.512-.749,2.45-1.8,2.464-2.817A5.084,5.084,0,0,0,2008.091,7679.971Z" fill="#0e1c2d"/>
        </g>
        <g id="Grupo_3051" data-name="Grupo 3051">
          <path id="Trazado_3458" data-name="Trazado 3458" d="M2008.052,7679.72c-.195,1.621-2.8,3.189-6.229,3.454-7,.541-7.009-1.06-11.158-1.212-3.569-.131-4.528.893-7.528.453a2.487,2.487,0,0,1-2.117-2.2c0-.022,0-.043,0-.066-.176.015-.113.4-.057.6a2.892,2.892,0,0,0,2.294,2.108c3,.44,3.84-.577,7.409-.446,4.149.151,4.157,1.754,11.158,1.213,3.6-.278,6.252-2.107,6.275-3.816C2008.1,7679.734,2008.1,7679.72,2008.052,7679.72Z" fill="#ffcd00"/>
        </g>
        <g id="Grupo_3053" data-name="Grupo 3053">
          <g id="Grupo_3052" data-name="Grupo 3052">
            <path id="Trazado_3459" data-name="Trazado 3459" d="M2008.1,7679.446c-.1-2.638-2.01-3.323-4.157-3.146-4.491.368-6.165-.106-7.592-1.6-1.6-1.674-.187-14.124.625-20.27h-17.035c.4,2.9.93,7,1.155,9.6.188,2.185.336,4.276.459,6.036.172,2.431.479,5.029.493,5.151.181,1.616-1.124,2.257-1.026,5a2.487,2.487,0,0,0,2.117,2.2c3,.44,3.959-.584,7.528-.453,4.149.152,4.157,1.753,11.158,1.212C2005.426,7682.9,2008.16,7681.153,2008.1,7679.446Z" fill="#ffb800"/>
          </g>
        </g>
        <g id="Grupo_3055" data-name="Grupo 3055">
          <g id="Grupo_3054" data-name="Grupo 3054">
            <path id="Trazado_3460" data-name="Trazado 3460" d="M2001.823,7683.174c-7,.541-7.009-1.061-11.158-1.212-3.569-.131-4.528.893-7.528.453a2.486,2.486,0,0,1-2.116-2.2c-.118-3.234,1.206-3.38,1.025-5-.005-.042-.045-.384-.1-.913-.108-.994-.278-2.651-.39-4.238-.123-1.76-.27-3.851-.459-6.036-.145-1.681-.419-3.981-.7-6.18-.155-1.211-.314-2.392-.454-3.422h17.035c-.812,6.146-2.227,18.594-.624,20.27,1.426,1.491,3.1,1.965,7.591,1.6,2.147-.177,4.061.508,4.158,3.146C2008.16,7681.153,2005.426,7682.9,2001.823,7683.174Z" fill="#272729"/>
          </g>
        </g>
        <g id="Grupo_3057" data-name="Grupo 3057">
          <g id="Grupo_3056" data-name="Grupo 3056">
            <path id="Trazado_3461" data-name="Trazado 3461" d="M1996.073,7662.271c.274-2.894.623-5.736.9-7.838h-17.035c.315,2.306.717,5.369.981,7.838Z" fill="#161a17"/>
          </g>
        </g>
        <g id="Grupo_3058" data-name="Grupo 3058">
          <path id="Trazado_3462" data-name="Trazado 3462" d="M1996.974,7654.426v-.677a.52.52,0,0,0-.569-.45h-15.9a.519.519,0,0,0-.569.45v.677Z" fill="#ffcd00"/>
        </g>
        <g id="Grupo_3059" data-name="Grupo 3059">
          <path id="Trazado_3463" data-name="Trazado 3463" d="M1987.352,7660.184v11.8c0,1.287-1.315,2.329-2.937,2.329h-2.472c-.108-.994-.278-2.651-.39-4.238-.123-1.76-.27-3.851-.459-6.036-.145-1.681-.419-3.981-.7-6.18h4.022C1986.037,7657.855,1987.352,7658.9,1987.352,7660.184Z" fill="#161a17"/>
        </g>
      </g>
    </g>
  </g>
</svg>
