<svg xmlns="http://www.w3.org/2000/svg" width="134.202" height="134.202" viewBox="0 0 134.202 134.202">
  <g id="Grupo_6739" data-name="Grupo 6739" transform="translate(-1899.485 -7930.022)">
    <rect id="Rect치ngulo_2851" data-name="Rect치ngulo 2851" width="134.202" height="134.202" rx="6.51" transform="translate(1899.485 7930.022)" fill="#d40000"/>
    <g id="Grupo_3236" data-name="Grupo 3236">
      <path id="Trazado_3580" data-name="Trazado 3580" d="M1966.194,7931.108h-3.873l-61.749,61.749v3.874Z" fill="#fff"/>
      <path id="Trazado_3581" data-name="Trazado 3581" d="M1959.347,7931.108h-3.874l-54.9,54.9v3.873Z" fill="#fff"/>
      <path id="Trazado_3582" data-name="Trazado 3582" d="M1973.041,7931.108h-3.874l-68.6,68.6v3.873Z" fill="#fff"/>
      <path id="Trazado_3583" data-name="Trazado 3583" d="M1952.5,7931.108h-3.874l-48.055,48.055v3.874Z" fill="#fff"/>
      <path id="Trazado_3584" data-name="Trazado 3584" d="M1993.582,7931.108h-3.874l-89.137,89.137v3.874Z" fill="#fff"/>
      <path id="Trazado_3585" data-name="Trazado 3585" d="M1979.888,7931.108h-3.874l-75.443,75.443v3.873Z" fill="#fff"/>
      <path id="Trazado_3586" data-name="Trazado 3586" d="M2000.429,7931.108h-3.874l-95.984,95.984v3.873Z" fill="#fff"/>
      <path id="Trazado_3587" data-name="Trazado 3587" d="M1945.653,7931.108h-3.874l-41.208,41.208v3.874Z" fill="#fff"/>
      <path id="Trazado_3588" data-name="Trazado 3588" d="M1986.735,7931.108h-3.874l-82.29,82.29v3.873Z" fill="#fff"/>
      <path id="Trazado_3589" data-name="Trazado 3589" d="M2032.6,7936.586c0-.142-.011-.281-.021-.42l-126.951,126.951c.139.01.278.021.42.021h3.432l123.12-123.12Z" fill="#fff"/>
      <path id="Trazado_3590" data-name="Trazado 3590" d="M1918.265,7931.108h-3.873l-13.82,13.819v3.874Z" fill="#fff"/>
      <path id="Trazado_3591" data-name="Trazado 3591" d="M2027.124,7931.108h-3.18l-123.373,123.373v3.179a5.394,5.394,0,0,0,.043.652l127.161-127.162A5.626,5.626,0,0,0,2027.124,7931.108Z" fill="#fff"/>
      <path id="Trazado_3592" data-name="Trazado 3592" d="M1938.806,7931.108h-3.874l-34.361,34.361v3.873Z" fill="#fff"/>
      <path id="Trazado_3593" data-name="Trazado 3593" d="M1900.571,7938.081v3.873l10.846-10.846h-3.873Z" fill="#fff"/>
      <path id="Trazado_3594" data-name="Trazado 3594" d="M2029.98,7931.919l-128.6,128.6a5.493,5.493,0,0,0,1.967,1.906l128.537-128.537A5.484,5.484,0,0,0,2029.98,7931.919Z" fill="#fff"/>
      <path id="Trazado_3595" data-name="Trazado 3595" d="M1931.959,7931.108h-3.874l-27.514,27.514v3.873Z" fill="#fff"/>
      <path id="Trazado_3596" data-name="Trazado 3596" d="M2007.276,7931.108H2003.4l-102.831,102.831v3.873Z" fill="#fff"/>
      <path id="Trazado_3597" data-name="Trazado 3597" d="M1925.112,7931.108h-3.874l-20.667,20.667v3.874Z" fill="#fff"/>
      <path id="Trazado_3598" data-name="Trazado 3598" d="M2032.6,8015.335v-3.873l-51.676,51.676h3.873Z" fill="#fff"/>
      <path id="Trazado_3599" data-name="Trazado 3599" d="M2032.6,8022.183v-3.873l-44.828,44.829h3.873Z" fill="#fff"/>
      <path id="Trazado_3600" data-name="Trazado 3600" d="M2032.6,8029.029v-3.873l-37.981,37.981h3.873Z" fill="#fff"/>
      <path id="Trazado_3601" data-name="Trazado 3601" d="M2032.6,8008.489v-3.874l-58.523,58.523h3.873Z" fill="#fff"/>
      <path id="Trazado_3602" data-name="Trazado 3602" d="M2032.6,8001.642v-3.873l-65.37,65.37h3.873Z" fill="#fff"/>
      <path id="Trazado_3603" data-name="Trazado 3603" d="M2032.6,8056.417v-3.873l-10.593,10.593h3.873Z" fill="#fff"/>
      <path id="Trazado_3604" data-name="Trazado 3604" d="M2032.6,8049.571V8045.7l-17.44,17.44h3.873Z" fill="#fff"/>
      <path id="Trazado_3605" data-name="Trazado 3605" d="M2014.123,7931.108h-3.874l-109.678,109.678v3.873Z" fill="#fff"/>
      <path id="Trazado_3606" data-name="Trazado 3606" d="M2032.6,7994.794v-3.873l-72.217,72.217h3.873Z" fill="#fff"/>
      <path id="Trazado_3607" data-name="Trazado 3607" d="M2032.6,8042.724v-3.873l-24.287,24.288h3.873Z" fill="#fff"/>
      <path id="Trazado_3608" data-name="Trazado 3608" d="M2032.6,8035.876V8032l-31.134,31.135h3.873Z" fill="#fff"/>
      <path id="Trazado_3609" data-name="Trazado 3609" d="M2032.6,7953.712v-3.873l-113.3,113.3h3.873Z" fill="#fff"/>
      <path id="Trazado_3610" data-name="Trazado 3610" d="M2032.6,7946.865v-3.873l-120.146,120.146h3.873Z" fill="#fff"/>
      <path id="Trazado_3611" data-name="Trazado 3611" d="M2020.97,7931.108H2017.1l-116.525,116.525v3.874Z" fill="#fff"/>
      <path id="Trazado_3612" data-name="Trazado 3612" d="M2032.6,7960.56v-3.874l-106.452,106.452h3.873Z" fill="#fff"/>
      <path id="Trazado_3613" data-name="Trazado 3613" d="M2032.6,7981.1v-3.873l-85.911,85.911h3.873Z" fill="#fff"/>
      <path id="Trazado_3614" data-name="Trazado 3614" d="M2032.6,7987.947v-3.873l-79.064,79.064h3.873Z" fill="#fff"/>
      <path id="Trazado_3615" data-name="Trazado 3615" d="M2032.6,7974.253v-3.873l-92.758,92.758h3.873Z" fill="#fff"/>
      <path id="Trazado_3616" data-name="Trazado 3616" d="M2032.6,7967.406v-3.873l-99.6,99.6h3.873Z" fill="#fff"/>
    </g>
    <rect id="Rect치ngulo_2853" data-name="Rect치ngulo 2853" width="111.607" height="111.607" rx="3.374" transform="translate(1910.783 7941.32)" fill="#db0100"/>
    <g id="Grupo_3237" data-name="Grupo 3237">
      <path id="Trazado_3617" data-name="Trazado 3617" d="M1919.276,8019.756h6.394v1.945h-4.03v2.4h3.766v1.929h-3.766v4.217h-2.364Z" fill="#fff"/>
      <path id="Trazado_3618" data-name="Trazado 3618" d="M1929.839,8019.756v10.487h-2.365v-10.487Z" fill="#fff"/>
      <path id="Trazado_3619" data-name="Trazado 3619" d="M1931.892,8019.9a20.752,20.752,0,0,1,3.159-.218,5.354,5.354,0,0,1,3.392.825,2.66,2.66,0,0,1,.98,2.209,2.778,2.778,0,0,1-1.851,2.568v.046a2.617,2.617,0,0,1,1.4,1.945c.327,1.2.638,2.567.84,2.972h-2.427a14.027,14.027,0,0,1-.716-2.443c-.295-1.322-.747-1.665-1.727-1.681h-.7v4.124h-2.35Zm2.35,4.512h.933c1.183,0,1.883-.591,1.883-1.509,0-.949-.653-1.447-1.742-1.447a4.71,4.71,0,0,0-1.074.078Z" fill="#fff"/>
      <path id="Trazado_3620" data-name="Trazado 3620" d="M1947.357,8025.809H1943.5v2.489h4.309v1.945h-6.675v-10.487h6.458v1.945H1943.5v2.178h3.858Z" fill="#fff"/>
      <path id="Trazado_3621" data-name="Trazado 3621" d="M1924.83,8040.338h-4.061v3.781h4.543v1.136H1919.4v-10.487h5.679v1.136h-4.31v3.314h4.061Z" fill="#fff"/>
      <path id="Trazado_3622" data-name="Trazado 3622" d="M1932.811,8045.255l-1.353-2.319c-.545-.886-.872-1.462-1.2-2.069h-.031c-.3.607-.606,1.167-1.135,2.085l-1.261,2.3h-1.556l3.2-5.306-3.08-5.181h1.571l1.385,2.458c.389.685.685,1.214.965,1.774h.046c.3-.622.56-1.1.95-1.774l1.415-2.458h1.572l-3.19,5.1,3.268,5.384Z" fill="#fff"/>
      <path id="Trazado_3623" data-name="Trazado 3623" d="M1938.069,8035.919h-3.189v-1.151h7.764v1.151h-3.206v9.336h-1.369Z" fill="#fff"/>
      <path id="Trazado_3624" data-name="Trazado 3624" d="M1945.163,8034.768v10.487h-1.369v-10.487Z" fill="#fff"/>
      <path id="Trazado_3625" data-name="Trazado 3625" d="M1947.528,8045.255v-10.487h1.493l3.346,5.306a29.461,29.461,0,0,1,1.867,3.407l.046-.016c-.124-1.4-.155-2.676-.155-4.309v-4.388h1.276v10.487h-1.369l-3.33-5.321a30.728,30.728,0,0,1-1.945-3.5l-.046.016c.077,1.322.093,2.582.093,4.325v4.481Z" fill="#fff"/>
      <path id="Trazado_3626" data-name="Trazado 3626" d="M1965.762,8044.788a9.491,9.491,0,0,1-3.236.576,4.926,4.926,0,0,1-5.384-5.29c0-3.128,2.163-5.415,5.679-5.415a6.586,6.586,0,0,1,2.63.482l-.342,1.1a5.2,5.2,0,0,0-2.319-.451,3.922,3.922,0,0,0-4.216,4.216c0,2.661,1.587,4.232,4.045,4.232a4.423,4.423,0,0,0,1.8-.279v-3.128h-2.116v-1.089h3.454Z" fill="#fff"/>
      <path id="Trazado_3627" data-name="Trazado 3627" d="M1969.169,8034.768v6.224c0,2.334,1.042,3.329,2.443,3.329,1.54,0,2.552-1.027,2.552-3.329v-6.224h1.368v6.13c0,3.221-1.695,4.528-3.968,4.528-2.147,0-3.764-1.214-3.764-4.481v-6.177Z" fill="#fff"/>
      <path id="Trazado_3628" data-name="Trazado 3628" d="M1979.235,8034.768v10.487h-1.37v-10.487Z" fill="#fff"/>
      <path id="Trazado_3629" data-name="Trazado 3629" d="M1981.428,8043.6a4.587,4.587,0,0,0,2.412.685c1.384,0,2.193-.731,2.193-1.789,0-.965-.56-1.541-1.976-2.07-1.711-.622-2.769-1.524-2.769-2.987,0-1.634,1.353-2.847,3.391-2.847a4.7,4.7,0,0,1,2.3.513l-.373,1.1a3.888,3.888,0,0,0-1.976-.5c-1.431,0-1.976.856-1.976,1.571,0,.981.638,1.463,2.085,2.023,1.774.685,2.66,1.54,2.66,3.081,0,1.618-1.182,3.034-3.656,3.034a5.408,5.408,0,0,1-2.676-.685Z" fill="#fff"/>
      <path id="Trazado_3630" data-name="Trazado 3630" d="M1990.623,8034.768v4.388h5.071v-4.388h1.37v10.487h-1.37v-4.917h-5.071v4.917h-1.37v-10.487Z" fill="#fff"/>
      <path id="Trazado_3631" data-name="Trazado 3631" d="M2004.827,8040.338h-4.062v3.781h4.544v1.136H1999.4v-10.487h5.679v1.136h-4.311v3.314h4.062Z" fill="#fff"/>
      <path id="Trazado_3632" data-name="Trazado 3632" d="M2007.066,8034.908a15.808,15.808,0,0,1,2.6-.218,4.339,4.339,0,0,1,3.034.856,2.68,2.68,0,0,1,.824,2.007,2.753,2.753,0,0,1-1.959,2.66v.048a2.627,2.627,0,0,1,1.524,2.116,16.666,16.666,0,0,0,.809,2.878h-1.4a13.185,13.185,0,0,1-.684-2.5c-.311-1.447-.886-1.992-2.116-2.038h-1.276v4.543h-1.354Zm1.354,4.776h1.384c1.448,0,2.366-.793,2.366-1.991,0-1.353-.98-1.945-2.412-1.945a5.957,5.957,0,0,0-1.338.109Z" fill="#fff"/>
    </g>
    <path id="Trazado_3633" data-name="Trazado 3633" d="M2014.305,7960.338l-.351-.188c-2.136-1.145-5-3.214-7.526-4.58a8.487,8.487,0,0,0-3.014-1.121c-1.475-.145-2.952-.122-4.421-.327-.8-.113-1.662-.261-2.533-.4l-.022,0c1.124-.33,2.193-.643,3.076-.9.671-.2,1.33-.344,1.99-.539a5.7,5.7,0,0,1,2.479.044c2.357.423,5.145.923,7.207,1.295l.341.062c.126.023.358.044.384-.04.008-.047.012-.058.02-.1.011-.065.011-.059.023-.123l.162-.893.015-.084c.03-.167.011-.073.041-.24l.032-.168c.027-.131-.2-.249-.332-.272l-.349-.064c-2.126-.388-5.22-.963-7.737-1.433a6.8,6.8,0,0,0-2.873-.081c-.627.164-1.268.282-1.926.454-1.868.489-5.064-.03-7.486.606a7.133,7.133,0,0,0-2.992,2.481c-.04.057-.1.137-.155.225a.544.544,0,0,0-.119.392l.026.094.119.425.019.071c.07.251.141.5.211.755l.018.064c.01.039.013.045.023.085.039.14.175.095.243.076l.187-.052.45-.127v.7h-3.152c0-.028,0-.058,0-.095-.007-.156-.382-.127-.577-.124a34.665,34.665,0,0,0-4.834.369,14.7,14.7,0,0,0-7.167,2.959,12.856,12.856,0,0,0-4.2,7.953q-.091.538-.153,1.075a28.653,28.653,0,0,0-.151,4.244,30.024,30.024,0,0,0,.394,4.157,31.865,31.865,0,0,0,2.489,7.667c1.145,2.518,2.513,4.923,3.787,7.376a38.4,38.4,0,0,1,1.741,3.743,12.381,12.381,0,0,1,.933,4.034q.012.371-.012.738a6.985,6.985,0,0,1-.118.9l-.209-.055c-.113-.029-.217.135-.3.329a3.42,3.42,0,0,0-.136.4c-1.381,4.711-3.884,9.126-5.3,13.827l-.041.134c-.013.046-.027.09-.04.136-.057.2-.113.393-.166.591a.188.188,0,0,0,.081.215c.011.682,6.26,2.31,6.9,1.817.1.026.133-.095.148-.155q.075-.3.146-.6c.011-.046.021-.092.032-.138s.02-.091.031-.137c1.079-4.791,1.074-9.866,2.193-14.646a4.118,4.118,0,0,0,.079-.411c.026-.208.018-.4-.1-.435l-.225-.058a10.276,10.276,0,0,0,.337-1.181v24.457c0,.078,0,.282.088.329a2.448,2.448,0,0,0,.917.363c.156.04.328.08.513.119.834.178,1.94.351,3.131.5,1.125.142,2.255.265,3.387.345.863.061,1.726.1,2.589.1,1.2,0,2.407-.066,3.608-.171.791-.071,1.58-.157,2.369-.253.574-.07,1.127-.147,1.639-.228.571-.09,1.089-.186,1.525-.284.195-.044.374-.088.532-.133.537-.15.857-.3.857-.45v-52.725a8.966,8.966,0,0,0-.645-3.374,8.259,8.259,0,0,0-1.854-2.777,8.85,8.85,0,0,0-1.766-1.344,10.465,10.465,0,0,0-2.393-1c-.3-.086-.614-.161-.936-.225v-3.646h.6a.294.294,0,0,0-.028-.122,1.253,1.253,0,0,0-.249-.318c-.155-.16-.319-.321-.319-.482v-3.681l.944.064.458.033c1.555.111,3.061.233,4.266.324.767.057,1.505.159,2.258.211a7.081,7.081,0,0,1,2.61.943c2.371,1.261,5.177,2.755,7.25,3.862l.343.183c.126.067.365.172.417.1.022-.041.029-.051.051-.093.032-.058.029-.052.06-.11.143-.267.041-.141.184-.408l.04-.075c.079-.15.032-.066.113-.216.018-.033.063-.117.082-.15C2014.644,7960.6,2014.433,7960.406,2014.305,7960.338Zm-24.77-.942v.337c0,.161-.164.322-.32.482a1.247,1.247,0,0,0-.248.318.3.3,0,0,0-.029.122h.6v3.66a11.132,11.132,0,0,0-2.854,1,8.78,8.78,0,0,0-3.408,3.064,8.357,8.357,0,0,0-.476.851,8.683,8.683,0,0,0-.856,3.8v27.14a17.112,17.112,0,0,0-1.893-7.082c-1.041-2.308-2.3-4.5-3.472-6.748a41.061,41.061,0,0,1-3.152-7.421,25.988,25.988,0,0,1-.93-8.335c.115-2.754.643-5.754,2.579-7.851a10.787,10.787,0,0,1,6.348-2.994,30.827,30.827,0,0,1,4.447-.339c.18,0,.541-.006.541-.081v-.031h3.126Z" fill="#fff"/>
    <path id="Trazado_3634" data-name="Trazado 3634" d="M1944.4,7986.087l13.153-13.155a22.433,22.433,0,0,1-4.184,22.124Zm-4.691-4.691,7.134-7.134a25.744,25.744,0,0,0-1.407-5.857c-1.95-5.151-6.921-7.931-6.223-14.215-3.608,4.305-3.233,8.283-3.125,13.381a41.427,41.427,0,0,1-.587,9.618Zm14.917-14.917a43.887,43.887,0,0,0-3.958-5.656c-1.181,2.362-.824,6.294-.6,10.21Zm-23.526,32.907q1.256,1.4,2.693,2.866s5.18-7.68,11.114,0a40.093,40.093,0,0,0,3.693-2.584l-8.891-8.89Zm-8.6-25.823c-1.961,7.254-.835,13.368,4.4,20.652l8.126-8.128Zm5.014-11.81c-.925,1.74-1.751,3.39-2.472,4.973l6.742,6.741A18,18,0,0,0,1927.509,7961.753Zm14.668,24.334,17.4-17.4a1.746,1.746,0,0,0-2.469-2.469l-17.4,17.4-17.4-17.4a1.745,1.745,0,0,0-2.468,2.469l17.4,17.4-17.4,17.4a1.745,1.745,0,1,0,2.468,2.468l17.4-17.4,17.4,17.4a1.746,1.746,0,0,0,2.469-2.468Z" fill="#fff"/>
  </g>
</svg>
