<svg xmlns="http://www.w3.org/2000/svg" xmlns:xlink="http://www.w3.org/1999/xlink" width="120.822" height="120.822" viewBox="0 0 120.822 120.822">
  <defs>
    <linearGradient id="linear-gradient" x1="0.5" y1="1" x2="0.5" gradientUnits="objectBoundingBox">
      <stop offset="0" stop-color="#f50000"/>
      <stop offset="0.063" stop-color="#f50202"/>
      <stop offset="0.603" stop-color="#fc1313"/>
      <stop offset="1" stop-color="#ff1a1a"/>
    </linearGradient>
    <linearGradient id="linear-gradient-2" x1="0.5" y1="1" x2="0.5" gradientUnits="objectBoundingBox">
      <stop offset="0" stop-color="#ababab"/>
      <stop offset="1" stop-color="#dedede"/>
    </linearGradient>
  </defs>
  <g id="Grupo_3325" data-name="Grupo 3325" transform="translate(-2321.706 -8911.314)">
    <g id="Grupo_3322" data-name="Grupo 3322">
      <path id="Trazado_4074" data-name="Trazado 4074" d="M2385.57,8967.774c.038-1.635.073-3.178.076-4.569a1.982,1.982,0,0,1,1.426-1.626c3.586-1.257,3.994-4.671,3.994-8.5a72.822,72.822,0,0,0-2.347-13.239,6.16,6.16,0,0,0-.314-.878c-.152-.251-.446-.092-.445.188.007,4.545-.053,15.96-.836,15.96-.82,0-1.3-11.661-1.431-16.1-.008-.282-.153-.507-.324-.5s-.311.236-.311.518c0,4.455-.143,16.087-.934,16.087-.821,0-1.3-11.638-1.432-16.089-.008-.282-.153-.514-.325-.512s-.311.233-.311.515c0,4.455-.143,16.086-.934,16.086s-1.193-11.082-1.324-15.754c-.007-.283-.285-.407-.418-.148a6.533,6.533,0,0,0-.249.842,66.215,66.215,0,0,0-1.768,13.029c0,3.778.37,7.178,3.9,8.46a2.026,2.026,0,0,1,1.427,1.644c.011,1.422.058,3,.107,4.674a115.855,115.855,0,0,1-.079,12.639,137.879,137.879,0,0,1-2.606,16.233,32.454,32.454,0,0,0-.683,3.757c0,3.514,1.745,5.527,4.789,5.527,3.133,0,4.789-1.91,4.789-5.527a32.226,32.226,0,0,0-.683-3.757,138.283,138.283,0,0,1-2.606-16.238A125.18,125.18,0,0,1,2385.57,8967.774Z"/>
      <path id="Trazado_4075" data-name="Trazado 4075" d="M2404.544,9006.016c-1.508,0-3.743-.88-3.743-2.772,0-.846.111-2.975.263-5.92.337-6.514.9-17.4.762-25.055a1.249,1.249,0,0,1,.05-2.16,4.219,4.219,0,0,0-1.375-1.259l-.15-.1a.156.156,0,0,1-.069-.114c-.663-10.716-1.414-22.862,3.832-28.868a2.976,2.976,0,0,1,1.771-1.031h.2a1.288,1.288,0,0,1,.836.283.831.831,0,0,1,.313.691c-.662,10.51-.465,21.237-.185,30.354a1.277,1.277,0,0,1,.738,1.145,1.248,1.248,0,0,1-.472.973l.973,31.061C2408.287,9005.052,2406.113,9006.016,2404.544,9006.016Z"/>
      <path id="Trazado_4076" data-name="Trazado 4076" d="M2362.829,9006.016c-3.054,0-4.805-2.019-4.805-5.54a32.347,32.347,0,0,1,.685-3.762,138.128,138.128,0,0,0,2.614-16.268,115.83,115.83,0,0,0,.08-12.664c-.05-1.676-.1-3.259-.108-4.685a2.027,2.027,0,0,0-1.43-1.646,9.036,9.036,0,0,1-5.918-8.478,21.956,21.956,0,0,1,2.581-9.1c1.078-2.049,3.329-5.484,6.3-5.484s5.222,3.436,6.3,5.484a21.95,21.95,0,0,1,2.58,9.1,9.022,9.022,0,0,1-6.014,8.516,1.986,1.986,0,0,0-1.431,1.627c0,1.4-.039,2.942-.076,4.581a125.4,125.4,0,0,0,.146,12.744,138.191,138.191,0,0,0,2.614,16.271,32.387,32.387,0,0,1,.685,3.764C2367.633,9004.1,2365.972,9006.016,2362.829,9006.016Z"/>
    </g>
    <g id="Grupo_3324" data-name="Grupo 3324">
      <path id="Trazado_4077" data-name="Trazado 4077" d="M2382.117,8911.314a60.411,60.411,0,1,0,60.411,60.41A60.479,60.479,0,0,0,2382.117,8911.314Zm39.125,90.453a.774.774,0,0,1-1.189.072L2352,8933.789a.775.775,0,0,1,.073-1.188,49.323,49.323,0,0,1,69.167,69.167Zm-78.248-60.086a.774.774,0,0,1,1.188-.07l68.05,68.05a.773.773,0,0,1-.072,1.188,49.323,49.323,0,0,1-69.166-69.167Z" fill="url(#linear-gradient)"/>
      <path id="Trazado_4078" data-name="Trazado 4078" d="M2322.9,8971.725a59.2,59.2,0,0,0,1.408,12.854,1.313,1.313,0,0,0,1.454.986l6.243-.945a1.072,1.072,0,0,0,.9-1.338,50.549,50.549,0,0,1-1.334-11.558,50.027,50.027,0,0,1,10.474-30.771,1.973,1.973,0,0,1,1.569-.782,1.994,1.994,0,0,1,1.413.593l35.539,35.54a2.662,2.662,0,0,0,2.03.667l8.282-1.252c.654-.1.805-.558.338-1.024l-40.058-40.06a1.968,1.968,0,0,1,.187-2.981,50.033,50.033,0,0,1,30.772-10.476,50.611,50.611,0,0,1,50.423,47.037,1.072,1.072,0,0,0,1.252,1.014l6.244-.943a1.31,1.31,0,0,0,1.1-1.372,59.213,59.213,0,0,0-118.231,4.812Z" fill="url(#linear-gradient-2)"/>
      <g id="Grupo_3323" data-name="Grupo 3323">
        <path id="Trazado_4079" data-name="Trazado 4079" d="M2351.158,8935.234l68.049,68.049a1.989,1.989,0,0,0,1.414.6,1.965,1.965,0,0,0,1.567-.783,50.022,50.022,0,0,0,10.477-30.771c0-.089,0-.177,0-.266a50.02,50.02,0,0,1-10.473,30.439,1.967,1.967,0,0,1-1.567.782,1.989,1.989,0,0,1-1.414-.6l-68.049-68.05a2.025,2.025,0,0,1-.572-1.11c-.007.056-.016.111-.019.17A2,2,0,0,0,2351.158,8935.234Z" fill="#d5d5d5"/>
        <path id="Trazado_4080" data-name="Trazado 4080" d="M2382.117,8913.108a59.281,59.281,0,0,1,59.212,58.916c0-.1,0-.2,0-.3a59.215,59.215,0,0,0-118.43,0c0,.1,0,.2,0,.3A59.281,59.281,0,0,1,2382.117,8913.108Z" fill="#d5d5d5"/>
        <path id="Trazado_4081" data-name="Trazado 4081" d="M2382.117,9022.87a50.023,50.023,0,0,0,30.773-10.476,1.966,1.966,0,0,0,.758-1.87,2,2,0,0,1-.758,1.272,50.023,50.023,0,0,1-30.773,10.476,50.6,50.6,0,0,1-50.543-50.282c0,.11,0,.223,0,.334A50.6,50.6,0,0,0,2382.117,9022.87Z" fill="#d5d5d5"/>
      </g>
      <path id="Trazado_4082" data-name="Trazado 4082" d="M2382.117,8912.51a59.216,59.216,0,1,1-59.214,59.215,59.283,59.283,0,0,1,59.214-59.215Zm38.5,90.77a1.97,1.97,0,0,0,1.568-.781,50.032,50.032,0,0,0,10.476-30.773,50.605,50.605,0,0,0-50.548-50.547,50.028,50.028,0,0,0-30.771,10.476,1.968,1.968,0,0,0-.188,2.981l68.049,68.05a1.988,1.988,0,0,0,1.414.595Zm-38.5,18.993a50.023,50.023,0,0,0,30.773-10.476,1.972,1.972,0,0,0,.188-2.982l-68.051-68.051a1.994,1.994,0,0,0-1.413-.593,1.973,1.973,0,0,0-1.569.782,50.027,50.027,0,0,0-10.474,30.771,50.6,50.6,0,0,0,50.546,50.548Zm0-110.958a60.411,60.411,0,1,0,60.411,60.41,60.479,60.479,0,0,0-60.411-60.41Zm38.5,90.769a.8.8,0,0,1-.568-.243L2352,8933.789a.775.775,0,0,1,.073-1.188,49.323,49.323,0,0,1,69.167,69.167.78.78,0,0,1-.621.315Zm-38.5,18.993a49.324,49.324,0,0,1-39.123-79.395.777.777,0,0,1,.62-.314.8.8,0,0,1,.568.244l68.05,68.05a.773.773,0,0,1-.072,1.188,49.093,49.093,0,0,1-30.043,10.228Z" fill="#c1c1c1"/>
    </g>
  </g>
</svg>
