<svg xmlns="http://www.w3.org/2000/svg" xmlns:xlink="http://www.w3.org/1999/xlink" width="220.764" height="159.828" viewBox="0 0 220.764 159.828">
  <defs>
    <clipPath id="clip-path">
      <rect id="Rectángulo_2867" data-name="Rectángulo 2867" width="220.764" height="159.828" transform="translate(1898.674 8506.577)" fill="none"/>
    </clipPath>
    <linearGradient id="linear-gradient" x1="0.663" y1="1.007" x2="0.011" y2="-0.41" gradientUnits="objectBoundingBox">
      <stop offset="0" stop-color="#fff" stop-opacity="0"/>
      <stop offset="1" stop-color="#fff"/>
    </linearGradient>
  </defs>
  <g id="Grupo_3316" data-name="Grupo 3316" transform="translate(-1898.674 -8506.577)">
    <g id="Grupo_3315" data-name="Grupo 3315" clip-path="url(#clip-path)">
      <g id="Grupo_3314" data-name="Grupo 3314">
        <path id="Trazado_3826" data-name="Trazado 3826" d="M2030.593,8665.374c1.3,5.955,19.429-1.178,26.275-.431,11.07,1.207,39.8.374,64.311-9,8.651-3.309,16.677,1.638,23.513-6.156v-21.275c-1.844,2.932-4.867,26.994-41.191,21.185-18.471-2.952-28.514-18.367-40.464-32.291-16.964-19.763-38.64-23.087-38.64-23.087.793,2.616.241,8.027-1.214,10.356C2045.661,8608.534,2047.419,8655.416,2030.593,8665.374Z" fill="url(#linear-gradient)"/>
        <g id="Grupo_3313" data-name="Grupo 3313">
          <path id="Trazado_3827" data-name="Trazado 3827" d="M1918.552,8542.656s1.357,1.846.814,2.9c0,0-1.8-.247-1.765,1.849.051,2.8-.375,21.771-.375,21.771s.782,1.725,1.189,2.779a24.757,24.757,0,0,1,1.089,4.884c.269,1.98,0,12.276-.138,13.2s-.271,7.261,1.223,9.768,12.626,6.072,13.167,6.072a33.534,33.534,0,0,0,4.346-1.981l2.988-63.354Z" fill="#d23a34"/>
          <path id="Trazado_3828" data-name="Trazado 3828" d="M1928.935,8550.951c-.833.186-1.251.3-3.258-.419a33.358,33.358,0,0,1-6.745-3.979.671.671,0,0,1,0-.984c-.532.072-1.355.415-1.329,1.839.051,2.8-.375,21.771-.375,21.771s.135.3.322.723a1.132,1.132,0,0,0,.019-.3c-.076-.341.341-18.947.379-20.73s.113-1.477.568-1.213,4.321,2.162,6.4,3.106,1.934,1.329,2.918,1.023S1929.77,8550.759,1928.935,8550.951Z" fill="#ea5353"/>
          <path id="Trazado_3829" data-name="Trazado 3829" d="M1937.473,8545.515l-18.232-2.6a7.79,7.79,0,0,0,.045,1.1,2.593,2.593,0,0,1,.2,1.114,4.686,4.686,0,0,0,.786,1.713c1.153,1.494,6.155,3.057,10.219,3.057s6.146-.521,6.875-1.46S1940.912,8547.184,1937.473,8545.515Z" fill="#3d0e0e" opacity="0.45"/>
          <g id="Grupo_3272" data-name="Grupo 3272" opacity="0.42">
            <path id="Trazado_3830" data-name="Trazado 3830" d="M1926.43,8552.288c.4.674-1.047,18.506-1.181,19.583s-1.617-.135-1.617-.135l-4.99-2.562s-.128-3.95.061-8.144c.269-5.934.345-12.212.345-12.212S1925.45,8551.745,1926.43,8552.288Z" fill="#3d0e0e"/>
          </g>
          <g id="Grupo_3287" data-name="Grupo 3287">
            <g id="Grupo_3273" data-name="Grupo 3273" opacity="0.61">
              <path id="Trazado_3831" data-name="Trazado 3831" d="M1925.179,8552.366a16.194,16.194,0,0,1-2.462-.992,1.329,1.329,0,1,1,2.462.992Z" fill="#d23a34"/>
            </g>
            <g id="Grupo_3274" data-name="Grupo 3274" opacity="0.61">
              <path id="Trazado_3832" data-name="Trazado 3832" d="M1924.925,8553.572a15.681,15.681,0,0,1-2.461-.992,15.853,15.853,0,0,1-2.373-1.2,16.329,16.329,0,0,1,2.463.994A16.111,16.111,0,0,1,1924.925,8553.572Z" fill="#d23a34"/>
            </g>
            <g id="Grupo_3275" data-name="Grupo 3275" opacity="0.61">
              <path id="Trazado_3833" data-name="Trazado 3833" d="M1924.861,8554.78a15.839,15.839,0,0,1-2.462-.993,1.329,1.329,0,1,1,.091-.2A15.535,15.535,0,0,1,1924.861,8554.78Z" fill="#d23a34"/>
            </g>
            <g id="Grupo_3276" data-name="Grupo 3276" opacity="0.61">
              <path id="Trazado_3834" data-name="Trazado 3834" d="M1924.891,8556.093a16.03,16.03,0,0,1-2.461-.992,1.329,1.329,0,1,1,.09-.2A16.167,16.167,0,0,1,1924.891,8556.093Z" fill="#d23a34"/>
            </g>
            <g id="Grupo_3277" data-name="Grupo 3277" opacity="0.61">
              <path id="Trazado_3835" data-name="Trazado 3835" d="M1924.8,8557.325a31.74,31.74,0,0,1-4.834-2.189,16.012,16.012,0,0,1,2.463.994A15.558,15.558,0,0,1,1924.8,8557.325Z" fill="#d23a34"/>
            </g>
            <g id="Grupo_3278" data-name="Grupo 3278" opacity="0.61">
              <path id="Trazado_3836" data-name="Trazado 3836" d="M1924.631,8558.54a16.475,16.475,0,0,1-2.461-.993,15.64,15.64,0,0,1-2.371-1.2,16.175,16.175,0,0,1,2.464.994A15.233,15.233,0,0,1,1924.631,8558.54Z" fill="#d23a34"/>
            </g>
            <g id="Grupo_3279" data-name="Grupo 3279" opacity="0.61">
              <path id="Trazado_3837" data-name="Trazado 3837" d="M1924.707,8559.863a15.67,15.67,0,0,1-2.461-.991,16.1,16.1,0,0,1-2.371-1.2,15.8,15.8,0,0,1,2.462.992A16.049,16.049,0,0,1,1924.707,8559.863Z" fill="#d23a34"/>
            </g>
            <g id="Grupo_3280" data-name="Grupo 3280" opacity="0.61">
              <path id="Trazado_3838" data-name="Trazado 3838" d="M1924.558,8561.078a15.965,15.965,0,0,1-2.462-.994,15.611,15.611,0,0,1-2.37-1.2,16.393,16.393,0,0,1,2.463.994A15.965,15.965,0,0,1,1924.558,8561.078Z" fill="#d23a34"/>
            </g>
            <g id="Grupo_3281" data-name="Grupo 3281" opacity="0.61">
              <path id="Trazado_3839" data-name="Trazado 3839" d="M1924.8,8562.6a15.871,15.871,0,0,1-2.462-.993,16.276,16.276,0,0,1-2.372-1.194,15.446,15.446,0,0,1,2.463.991A15.987,15.987,0,0,1,1924.8,8562.6Z" fill="#d23a34"/>
            </g>
            <g id="Grupo_3282" data-name="Grupo 3282" opacity="0.61">
              <path id="Trazado_3840" data-name="Trazado 3840" d="M1924.938,8563.914a32.655,32.655,0,0,1-4.834-2.189,31.512,31.512,0,0,1,4.834,2.189Z" fill="#d23a34"/>
            </g>
            <g id="Grupo_3283" data-name="Grupo 3283" opacity="0.61">
              <path id="Trazado_3841" data-name="Trazado 3841" d="M1924.738,8565.141a15.638,15.638,0,0,1-2.464-.993,16.071,16.071,0,0,1-2.37-1.2,15.688,15.688,0,0,1,2.463,1A15.948,15.948,0,0,1,1924.738,8565.141Z" fill="#d23a34"/>
            </g>
            <g id="Grupo_3284" data-name="Grupo 3284" opacity="0.61">
              <path id="Trazado_3842" data-name="Trazado 3842" d="M1924.692,8566.458a31.355,31.355,0,1,1-2.37-1.2A16,16,0,0,1,1924.692,8566.458Z" fill="#d23a34"/>
            </g>
            <g id="Grupo_3285" data-name="Grupo 3285" opacity="0.61">
              <path id="Trazado_3843" data-name="Trazado 3843" d="M1924.669,8567.731a16.118,16.118,0,0,1-2.461-.994,15.821,15.821,0,0,1-2.371-1.2,16,16,0,0,1,2.464.994A15.363,15.363,0,0,1,1924.669,8567.731Z" fill="#d23a34"/>
            </g>
            <g id="Grupo_3286" data-name="Grupo 3286" opacity="0.61">
              <path id="Trazado_3844" data-name="Trazado 3844" d="M1924.491,8569a16.067,16.067,0,0,1-2.461-1,1.328,1.328,0,1,1,2.461,1Z" fill="#d23a34"/>
            </g>
          </g>
          <g id="Grupo_3288" data-name="Grupo 3288">
            <path id="Trazado_3845" data-name="Trazado 3845" d="M1919.728,8550.191l6,2.821a2.1,2.1,0,0,1-.047.551c-.142.293-5.938-2.676-5.938-2.676S1919.328,8550.412,1919.728,8550.191Z" fill="#3d0e0e" opacity="0.45"/>
            <path id="Trazado_3846" data-name="Trazado 3846" d="M1919.508,8551.365l6,2.82a2,2,0,0,1-.05.551c-.14.294-5.936-2.675-5.936-2.675S1919.108,8551.584,1919.508,8551.365Z" fill="#3d0e0e" opacity="0.45"/>
            <path id="Trazado_3847" data-name="Trazado 3847" d="M1919.546,8552.612l6,2.82a2.017,2.017,0,0,1-.051.551c-.138.294-5.934-2.675-5.934-2.675S1919.146,8552.83,1919.546,8552.612Z" fill="#3d0e0e" opacity="0.45"/>
            <path id="Trazado_3848" data-name="Trazado 3848" d="M1919.506,8553.893l6,2.824a2.063,2.063,0,0,1-.048.55c-.142.291-5.936-2.678-5.936-2.678S1919.106,8554.114,1919.506,8553.893Z" fill="#3d0e0e" opacity="0.45"/>
            <path id="Trazado_3849" data-name="Trazado 3849" d="M1919.47,8555.14l6,2.824a2.017,2.017,0,0,1-.052.55c-.14.29-5.934-2.678-5.934-2.678S1919.07,8555.359,1919.47,8555.14Z" fill="#3d0e0e" opacity="0.45"/>
            <path id="Trazado_3850" data-name="Trazado 3850" d="M1919.394,8556.386l6,2.822a2.051,2.051,0,0,1-.051.55c-.14.293-5.935-2.674-5.935-2.674S1918.995,8556.606,1919.394,8556.386Z" fill="#3d0e0e" opacity="0.45"/>
            <path id="Trazado_3851" data-name="Trazado 3851" d="M1919.389,8557.7l6,2.825a2.043,2.043,0,0,1-.051.549c-.14.293-5.938-2.675-5.938-2.675S1918.989,8557.927,1919.389,8557.7Z" fill="#3d0e0e" opacity="0.45"/>
            <path id="Trazado_3852" data-name="Trazado 3852" d="M1919.383,8559.024l6,2.823a2.062,2.062,0,0,1-.047.552c-.14.29-5.936-2.679-5.936-2.679S1918.983,8559.245,1919.383,8559.024Z" fill="#3d0e0e" opacity="0.45"/>
            <path id="Trazado_3853" data-name="Trazado 3853" d="M1919.377,8560.345l6,2.824a2.009,2.009,0,0,1-.049.547c-.142.294-5.937-2.674-5.937-2.674S1918.978,8560.566,1919.377,8560.345Z" fill="#3d0e0e" opacity="0.45"/>
            <path id="Trazado_3854" data-name="Trazado 3854" d="M1919.372,8561.666l6,2.821a2.118,2.118,0,0,1-.049.55c-.14.293-5.938-2.675-5.938-2.675S1918.972,8561.885,1919.372,8561.666Z" fill="#3d0e0e" opacity="0.45"/>
            <path id="Trazado_3855" data-name="Trazado 3855" d="M1919.366,8562.985l6,2.821a2.066,2.066,0,0,1-.049.55c-.142.294-5.936-2.675-5.936-2.675S1918.966,8563.205,1919.366,8562.985Z" fill="#3d0e0e" opacity="0.45"/>
            <path id="Trazado_3856" data-name="Trazado 3856" d="M1919.36,8564.3l6,2.824a2.06,2.06,0,0,1-.05.548c-.142.3-5.936-2.675-5.936-2.675S1918.961,8564.523,1919.36,8564.3Z" fill="#3d0e0e" opacity="0.45"/>
            <path id="Trazado_3857" data-name="Trazado 3857" d="M1919.354,8565.623l6,2.821a2.108,2.108,0,0,1-.049.55c-.14.295-5.938-2.673-5.938-2.673S1918.955,8565.843,1919.354,8565.623Z" fill="#3d0e0e" opacity="0.45"/>
            <path id="Trazado_3858" data-name="Trazado 3858" d="M1919.349,8566.944l6,2.82a2.063,2.063,0,0,1-.048.551c-.14.293-5.936-2.676-5.936-2.676S1918.949,8567.164,1919.349,8566.944Z" fill="#3d0e0e" opacity="0.45"/>
          </g>
          <path id="Trazado_3859" data-name="Trazado 3859" d="M1925.832,8523.725s-6.659,2.467-7.892,5.058-2.836,9.127-1.6,12.333a11.227,11.227,0,0,0,4.562,5.3c.865.617,10.984,4.094,23.575,2.7s14.925-8.4,14.69-10.5a16.823,16.823,0,0,0-7.46-13.059C1944.939,8520.9,1928.178,8523.524,1925.832,8523.725Z" fill="#f3efe9"/>
          <path id="Trazado_3860" data-name="Trazado 3860" d="M1959.163,8538.619a16.823,16.823,0,0,0-7.46-13.059c-3.189-2.2-8.6-2.776-13.677-2.752l-1.81,3.621s2.685,9.306,1.433,14.316-4.116,6.439-8.592,6.082a27.556,27.556,0,0,1-11.435-3.381,12.982,12.982,0,0,0,3.276,2.971c.865.617,10.984,4.094,23.575,2.7S1959.4,8540.719,1959.163,8538.619Z" fill="#bfb8af"/>
          <path id="Trazado_3861" data-name="Trazado 3861" d="M1926.4,8523.232s-3.007,1.443-1.863,2.647,5.111,2.647,12.626,2.646,8.24-.18,9.744-1.322S1928.021,8523.054,1926.4,8523.232Z" fill="#5b4f42"/>
          <path id="Trazado_3862" data-name="Trazado 3862" d="M1917.166,8530.842l-.053.734s-.211,1,3.146,2.466a72.074,72.074,0,0,0,15.584,4.041,18.507,18.507,0,0,0,9.6-1.575c1.155-.682,1.628-.892,1.628-.892l1.992,4.774a36.823,36.823,0,0,1-10.335,2.312c-4.94.39-12.905-1.524-17.683-3.414s-5.141-3.041-5.141-3.041-.212-.211.1-2.312S1916.745,8530.475,1917.166,8530.842Z" fill="#d23a34"/>
          <path id="Trazado_3863" data-name="Trazado 3863" d="M1940.527,8538.568a27.284,27.284,0,0,0,6.754-2.45l-.208-.5s-.473.21-1.628.892a18.507,18.507,0,0,1-9.6,1.575,72.074,72.074,0,0,1-15.584-4.041c-3.357-1.47-3.146-2.466-3.146-2.466l.053-.734c-.2-.173-.4.044-.587.541a2.086,2.086,0,0,0,1.037,1.652c1.985,1.264,6.075,3.307,12.868,4.633S1938.363,8538.869,1940.527,8538.568Z" fill="#ea5353"/>
          <g id="Grupo_3289" data-name="Grupo 3289" opacity="0.42">
            <path id="Trazado_3864" data-name="Trazado 3864" d="M1949.065,8540.391l-1.992-4.774s-.473.21-1.628.892a18.021,18.021,0,0,1-7.661,1.667,3.77,3.77,0,0,1,0,1.889c-.307,1.489-.483,2.191-1.182,2.673a20.537,20.537,0,0,0,2.132-.034A36.823,36.823,0,0,0,1949.065,8540.391Z" fill="#3d0e0e"/>
          </g>
          <g id="Grupo_3291" data-name="Grupo 3291">
            <path id="Trazado_3865" data-name="Trazado 3865" d="M1950.421,8518.979c-1.93-.635-4.88.571-7,1.932a47.958,47.958,0,0,0-10.435.007c-2.1-1.363-5.031-2.576-6.947-1.938a1.622,1.622,0,0,0-.7,1.528c.1.811-.114,3.355.14,4.337.219,1.746,5.843,3.146,12.75,3.146,6.851,0,12.441-1.377,12.746-3.105a38.354,38.354,0,0,0,.149-4.378A1.613,1.613,0,0,0,1950.421,8518.979Z" fill="#b71c1c"/>
            <g id="Grupo_3290" data-name="Grupo 3290" opacity="0.42">
              <path id="Trazado_3866" data-name="Trazado 3866" d="M1946.96,8519.577l-1.642.285a16.9,16.9,0,0,0-1.894,1.048c-.9-.1-1.861-.176-2.859-.222l-4.332.753.468.932s.151,3.417.155,5.6c.451.016.909.021,1.376.021,5.882,0,10.831-1.016,12.306-2.395C1950.031,8522.157,1948.332,8519.9,1946.96,8519.577Z" fill="#3d0e0e"/>
            </g>
            <path id="Trazado_3867" data-name="Trazado 3867" d="M1951,8519.84c0,1.8-5.712,3.255-12.76,3.255s-12.762-1.458-12.762-3.255,5.715-3.252,12.762-3.252S1951,8518.046,1951,8519.84Z" fill="#d23a34"/>
            <path id="Trazado_3868" data-name="Trazado 3868" d="M1949.834,8519.84c0,1.586-5.192,2.87-11.6,2.87s-11.6-1.284-11.6-2.87,5.192-2.866,11.6-2.866S1949.834,8518.259,1949.834,8519.84Z" fill="#912424"/>
            <path id="Trazado_3869" data-name="Trazado 3869" d="M1948.734,8519.84c0,1.352-4.7,2.443-10.5,2.443s-10.5-1.092-10.5-2.443,4.7-2.44,10.5-2.44S1948.734,8518.492,1948.734,8519.84Z" fill="#d23a34"/>
            <path id="Trazado_3870" data-name="Trazado 3870" d="M1939.469,8517.416q-.608-.018-1.233-.017c-5.8,0-10.5,1.093-10.5,2.44,0,1.277,4.2,2.325,9.568,2.436-2.441-.5-4.757-1.214-5.758-2.24C1929.824,8518.27,1935.8,8517.638,1939.469,8517.416Z" fill="#ea5353"/>
          </g>
          <path id="Trazado_3871" data-name="Trazado 3871" d="M1977.386,8549.993s1.666.334,2.778,4.553a89.06,89.06,0,0,0,3.993,11.1c1.223,3,2.335,4.219,2.778,5.773s.111,1.777.443,2.11,1.333.778,1,1.332-.333,1,.444.555.556.335,3.22,3.221,5.219,6.328,7.218,7.994,2.663,3.217,2.443,4.329-4.221,3.22-5.552,3.33-7.218,1.114-9.215.114-8.549-8.55-9.659-10.439-1.445-3.884-2.333-6.328S1977.386,8549.993,1977.386,8549.993Z" fill="#b6c5cc"/>
          <path id="Trazado_3872" data-name="Trazado 3872" d="M1988.779,8576.464a18.238,18.238,0,0,0-2.579,1.72,3.076,3.076,0,0,1-2.212.983c-.859,0-.859.491.493.615a13.156,13.156,0,0,1,4.546,1.842c1.225.738,2.823,2.824,4.05,3.931s1.719,2.947,3.317,3.438,3.318.494,3.685-.244-1.229-1.719-3.808-3.807-.369-.983-1.473-2.089S1989.764,8576.71,1988.779,8576.464Z" fill="#f9f9f9" opacity="0.46"/>
          <path id="Trazado_3873" data-name="Trazado 3873" d="M1999.434,8592.782a68.922,68.922,0,0,0-8.862-3.564c-2.344-.713-8.56-2.649-9.172-5.5s-1.63-3.667-1.528-5.806,3.058-3.465,2.037-3.668-.509-2.444-.3-4.585c.144-1.513-.476-8.877-.852-13.067-.207-.672-.41-1.349-.589-2.042-1.112-4.219-2.778-4.553-2.778-4.553s-3.331,25.205-2.443,27.645,1.223,4.441,2.333,6.328,7.659,9.439,9.659,10.439,7.882,0,9.215-.114a10.611,10.611,0,0,0,3.42-1.425A1.591,1.591,0,0,1,1999.434,8592.782Z" fill="#3c4e56" opacity="0.5"/>
          <path id="Trazado_3874" data-name="Trazado 3874" d="M1960.293,8694.591a4.489,4.489,0,0,0-1.888,1.479,13.38,13.38,0,0,0-.946,5.582,4.112,4.112,0,0,0,2.425,2.832,73.465,73.465,0,0,0,9.443.452c2.092-.122,8.7.165,10.672.246a11.672,11.672,0,0,0,5.338-1.519,16.471,16.471,0,0,0,.164-6.24c-.452-1.683-3.9-3.058-5.665-3.286-3.2-.407-6.979-1.518-8.17-1.681s-3,.738-3.325.655A70.5,70.5,0,0,0,1960.293,8694.591Z" fill="#b6c5cc"/>
          <path id="Trazado_3875" data-name="Trazado 3875" d="M1985.337,8703.664a1.5,1.5,0,0,0,.155-.522,22.341,22.341,0,0,1-8.337.217c-3.138-.467-7.9-.581-10.339-1.86s-3.717-4.413-3.485-5.11.581-1.277,1.395-.232,1.045.35,1.045-.233,1.278-.464,1.742-.812.814.581,1.276.7a.593.593,0,0,0,.7-.813c-.233-.466.814-.348,1.74-1.162a4.952,4.952,0,0,0,1.091-1.254c-.261-.055-.487-.1-.653-.121-1.191-.167-3,.738-3.325.655a70.5,70.5,0,0,0-8.048,1.479,4.489,4.489,0,0,0-1.888,1.479,13.38,13.38,0,0,0-.946,5.582,4.112,4.112,0,0,0,2.425,2.832,73.465,73.465,0,0,0,9.443.452c2.092-.122,8.7.165,10.672.246A11.672,11.672,0,0,0,1985.337,8703.664Z" fill="#3c4e56" opacity="0.5"/>
          <path id="Trazado_3876" data-name="Trazado 3876" d="M1924.077,8686.851a4.54,4.54,0,0,0-2.172,1.646c-.988,1.318-2.371,5.135-2.108,6.318a11.106,11.106,0,0,0,3.093,4.344c1.187.986,2.3,1.186,2.9,1.907s1.249,3.425,3.618,4.476,4.74.792,7.11.659,5.527-.856,6.646-2.039a6.143,6.143,0,0,0,1.316-4.674,4.251,4.251,0,0,0-2.632-2.567c-1.119-.458-1.448-.723-2.829-2.369a15.8,15.8,0,0,0-4.871-3.421C1933.355,8690.8,1925.457,8686.851,1924.077,8686.851Z" fill="#b6c5cc"/>
          <path id="Trazado_3877" data-name="Trazado 3877" d="M1942.19,8703.472a14.836,14.836,0,0,1-8.364.7,7.172,7.172,0,0,1-6.038-5.11,9.788,9.788,0,0,1,0-4.878c.464-2.09,2.09-1.279,2.672-1.279a20.334,20.334,0,0,0,3.6-.113,3.305,3.305,0,0,0,1.61-.864,14.016,14.016,0,0,0-1.524-.793c-.79-.33-8.688-4.279-10.068-4.279a4.54,4.54,0,0,0-2.172,1.646c-.988,1.318-2.371,5.135-2.108,6.318a11.106,11.106,0,0,0,3.093,4.344c1.187.986,2.3,1.186,2.9,1.907s1.249,3.425,3.618,4.476,4.74.792,7.11.659,5.527-.856,6.646-2.039a6.143,6.143,0,0,0,1.316-4.674C1944.091,8699.914,1943.468,8702.892,1942.19,8703.472Z" fill="#3c4e56" opacity="0.5"/>
          <path id="Trazado_3878" data-name="Trazado 3878" d="M1921.905,8688.5c-.988,1.318-2.371,5.135-2.108,6.318a11.106,11.106,0,0,0,3.093,4.344c1.187.986,2.3,1.186,2.9,1.907.5.616,1.058,2.654,2.666,3.9a15.688,15.688,0,0,1-2.174-6.693s-.8-1.432-1.748-3.656,1.112-7.31,1.112-7.31l-.04-.032a5.8,5.8,0,0,0-1.526-.424A4.54,4.54,0,0,0,1921.905,8688.5Z" fill="#3c4e56" opacity="0.5"/>
          <path id="Trazado_3879" data-name="Trazado 3879" d="M1977.041,8616.218c-.219-12.224-3.056-26.629-3.056-26.629l-39.072,4.3a132.909,132.909,0,0,0-2.681,21.222c-.233,7,.348,16.556.233,17.954s-1.748,11.776-1.748,14.109.349,4.665-.235,5.129-.348.7-.348,1.865-.235.352-1.634,2.333-2.8,6.879-3.73,11.192a140.764,140.764,0,0,0-2.1,16.906,3.914,3.914,0,0,0,1.748,3.5c.352.235.7,2.1,2.45,3.151s4.431.232,5.247.7,2.914-.235,3.381-.583a34.973,34.973,0,0,0,4.431-3.268c.932-1.048,1.981-7.344,2.564-12.123a64.927,64.927,0,0,1,1.865-9.678c.235-.583.117-1.983,1.051-2.8a12.778,12.778,0,0,0,3.147-5.362c.583-2.217,3.149-7.116,4.546-9.91.547-1.095,1.767-4.176,3.052-7.524.023.944.053,1.911.1,2.858.231,5.13.581,15.393.581,17.371s1.284,1.751.583,2.916.349,1.518.118,2.565-1.981,3.384-2.683,7a73.982,73.982,0,0,0-.7,12.709c.115,1.979,2.681,6.063,3.965,7.46s1.4,1.515,3.031,1.632,9.328-1.28,9.676-1.632,3.266-3.5,3.5-6.528-.816-17.254-.583-19.7a26.5,26.5,0,0,1,1.168-5.948,30.914,30.914,0,0,0,.606-8.407C1975.3,8650.584,1977.259,8628.44,1977.041,8616.218Z" fill="#b6c5cc"/>
          <path id="Trazado_3880" data-name="Trazado 3880" d="M1965.357,8670.775a118.7,118.7,0,0,1-.758-12.509c0-5.306-1.325-13.834-1.325-17.245s-.192-6.442-.192-6.442l1.517-3.793s-3.41,4.361-3.791,5.688c0,.007,0,.007,0,.015.267-.949,1.772-6.357,2.088-8.733a18.165,18.165,0,0,1,1.517-5.116l-2.274,4.548a47.578,47.578,0,0,1-2.085,7.393c-.947,1.895-3.98,5.873-4.548,7.2a6.168,6.168,0,0,0-.3,1.371c.305-.782.626-1.61.948-2.454.023.944.053,1.911.1,2.858.231,5.13.581,15.393.581,17.371s1.284,1.751.583,2.916.349,1.518.118,2.565-1.981,3.384-2.683,7a73.982,73.982,0,0,0-.7,12.709c.115,1.979,2.681,6.063,3.965,7.46s1.4,1.515,3.031,1.632a47.073,47.073,0,0,0,7.465-1.045c-.926-.687-2.023-1.5-2.687-1.973-1.326-.946-1.706-6.634-1.706-8.526s1.706-7.771,1.706-8.339S1965.546,8672.292,1965.357,8670.775Z" fill="#3c4e56" opacity="0.5"/>
          <g id="Grupo_3292" data-name="Grupo 3292" opacity="0.56">
            <path id="Trazado_3881" data-name="Trazado 3881" d="M1956.177,8641.519c.019.68.042,1.361.074,2.037.231,5.13.581,15.393.581,17.371a3.113,3.113,0,0,0,.153,1.021,6.436,6.436,0,0,0,1.871-1.024c.638-.634-.952.478-1.429-.315s.477-2.385.477-4.45-1.114-11.919-1.114-13.031,2.543-4.29,2.543-4.29Z" fill="#b6c5cc"/>
            <path id="Trazado_3882" data-name="Trazado 3882" d="M1958.7,8691.594a19.336,19.336,0,0,0-2.859-2.542s-.954-12.078-.954-13.032,2.386-4.606,2.861-5.88-1.723,1.241-2.218.8a17.131,17.131,0,0,0-.677,2.464,73.982,73.982,0,0,0-.7,12.709c.115,1.979,2.681,6.063,3.965,7.46a9.128,9.128,0,0,0,1.161,1.151C1959.144,8693.909,1958.822,8691.971,1958.7,8691.594Z" fill="#b6c5cc"/>
            <path id="Trazado_3883" data-name="Trazado 3883" d="M1957.9,8664.263a1,1,0,0,1-.657-.065c-.222.636.117,1.013.259,1.513a7.922,7.922,0,0,1,1.509-.812C1959.97,8664.579,1959.333,8663.943,1957.9,8664.263Z" fill="#b6c5cc"/>
          </g>
          <path id="Trazado_3884" data-name="Trazado 3884" d="M1973.985,8589.589l-39.072,4.3a132.909,132.909,0,0,0-2.681,21.222c-.233,7,.348,16.556.233,17.954s-1.748,11.776-1.748,14.109.349,4.665-.235,5.129-.348.7-.348,1.865-.235.352-1.634,2.333-2.8,6.879-3.73,11.192a140.764,140.764,0,0,0-2.1,16.906,3.914,3.914,0,0,0,1.748,3.5c.352.235.7,2.1,2.45,3.151s4.431.232,5.247.7,2.914-.235,3.381-.583a46.972,46.972,0,0,0,4.1-2.941c-3.466,2.481-3.2,1.6-2.67.358.57-1.327,1.327-3.6,1.327-3.6s-2.653,3.223-3.031,3.98-3.034,1.325-3.034,1.325a49.153,49.153,0,0,1-.757-8.907c.189-3.6,5.684-19.14,5.875-20.275s3.789-8.907,3.6-11.372c-.116-1.494,1.929-11.617,3.935-20.081.16-.672-.924-.692-.765-1.342.181-.746,1.607-2.115,1.783-2.813a50.429,50.429,0,0,1,2.248-7.411c.3-.572,2.444-1.572,2.959-2.331.485-.71-.664-1.172-.077-1.932,2.308-3,5.091-5.965,5.835-5.594,1.138.572,7.582,4.55,9.667,2.655s6.632-4.548,6.632-5.116-.946-2.844-1.327-4.17a7.217,7.217,0,0,1-.291-2.354l3.762-2.216C1974.595,8592.686,1973.985,8589.589,1973.985,8589.589Z" fill="#3c4e56" opacity="0.5"/>
          <g id="Grupo_3293" data-name="Grupo 3293" opacity="0.43">
            <path id="Trazado_3885" data-name="Trazado 3885" d="M1929.14,8656a.5.5,0,0,1-.222-.051c-.126.154-.263.335-.418.553-1.4,1.983-2.8,6.879-3.73,11.192-.57,2.634-1.225,7.479-1.649,11.388.774-.735.746-4.539,1.41-7.19.953-3.812,3.337-11.76,3.973-13.189s3.177-2.227,3.654-2.384S1930.251,8656,1929.14,8656Z" fill="#b6c5cc"/>
            <path id="Trazado_3886" data-name="Trazado 3886" d="M1932.242,8623.85c.1,4.48.293,8.36.223,9.212-.117,1.4-1.748,11.776-1.748,14.109,0,2.209.309,4.417-.153,5.038l2.071-.981a12.082,12.082,0,0,1-1.113-5.879c.32-3.018.32-6.2,1.113-7.79s2.971-4.032,3.5-5.4c.8-2.066-2.225,2.065-3.019,2.065s0-.636,0-2.86C1933.112,8630.364,1932.664,8627.155,1932.242,8623.85Z" fill="#b6c5cc"/>
            <path id="Trazado_3887" data-name="Trazado 3887" d="M1932.158,8652.976a8.391,8.391,0,0,0-2-.3,1.989,1.989,0,0,0-.048.929C1930.867,8653.556,1933.027,8653.266,1932.158,8652.976Z" fill="#b6c5cc"/>
          </g>
          <path id="Trazado_3888" data-name="Trazado 3888" d="M1933.209,8603.967a29.309,29.309,0,0,0,6.072-2.325c1.843-1.1,7.37-4.175,5.9-2.333s-4.545,4.422-6.51,7.983c-1.683,3.056-3.823,4.213-6.332,5.643-.019.316-.036.631-.053.938.824-.369,1.78-.841,2.823-1.42,3.316-1.843,4.914-4.912,7.737-8.6a15.28,15.28,0,0,1,7.616-5.526c1.228-.246,9.579,1.353,10.931,1.229a3.416,3.416,0,0,0,2.211-1.352l-8.927-6.492-19.761,2.175A93.62,93.62,0,0,0,1933.209,8603.967Z" fill="#3c4e56" opacity="0.5"/>
          <path id="Trazado_3889" data-name="Trazado 3889" d="M1963.6,8595.513a77.532,77.532,0,0,1,.652,19.707c-1.14,9.611-2.608,16.452-2.608,16.452s1.792-5.377,3.42-11.891.328-22.149.328-23.128S1963.6,8595.513,1963.6,8595.513Z" fill="#3c4e56" opacity="0.5"/>
          <path id="Trazado_3890" data-name="Trazado 3890" d="M1949.756,8541.481s-8.564,2.733-10.3,3.725-4.469,11.669-5.215,13.9-.123,31.655.123,34.882c2.831,2.369,19.988,2.606,29.3,2.606s10.179-1.116,10.179-1.116,2.608-13.78,3.6-19.116.5-7.077.869-9.561-.2-6.479-.2-9.83-3.2-8.428-3.825-11.781-10.62-2.6-11.118-2.719S1949.756,8541.481,1949.756,8541.481Z" fill="#b6c5cc"/>
          <path id="Trazado_3891" data-name="Trazado 3891" d="M1956.025,8559.589s.741,4.887,1.186,10.216-.742,7.4-.148,8.882-.252,5.382,2.761,4.171a9.778,9.778,0,0,0,5.675-7.725c.149-2.961-.591-9.03-1.627-10.954s-3.111-.739-4.737-3.851S1956.321,8554.7,1956.025,8559.589Z" fill="#f9f9f9" opacity="0.46"/>
          <path id="Trazado_3892" data-name="Trazado 3892" d="M1973.495,8560.478a41.261,41.261,0,0,0-2.074,7.254c-.74,4-1.022,4.128.23,11.17s3.915,6.3,4.508-3.916S1974.086,8555.887,1973.495,8560.478Z" fill="#f9f9f9" opacity="0.46"/>
          <path id="Trazado_3893" data-name="Trazado 3893" d="M1950.428,8542.862s-2.649,1.323-.814,2.037,6.112,2.036,8.252,2.851,1.223,8.154,2.649,11.208,6.419,6.418,9.168,1.834,3.975-7.131,3.566-8.967-3.871-9.575-4.38-9.88S1950.428,8542.862,1950.428,8542.862Z" fill="#3c4e56" opacity="0.5"/>
          <path id="Trazado_3894" data-name="Trazado 3894" d="M1978.107,8556.976c0-3.353-3.2-8.428-3.825-11.781s-10.62-2.6-11.118-2.719-13.408-.994-13.408-.994-4.387,1.4-7.521,2.561a3.184,3.184,0,0,0,.589.314c2.238.96,4.476,3.624,5.222,3.944s2.133.105,4.158.212,4.691-1.706,5.115-1.812,1.172-.532.96-.213-2.452,3.411-2.238,3.623,2.13-1.918,2.664-2.771l.534-.853.638.426s-2.344,5.011-2.558,5.862,3.516-5.329,3.624-5.649a.559.559,0,0,1,1.066.108c.212.745-.532,3.2-.426,5.22s.532,9.061.958,8.847.214-12.147.32-12.789a4.1,4.1,0,0,1,.32-1.065s2.344,9.484,2.344,11.189.746,12.79.426,15.775-.852,5.223-.852,5.754,1.706.961,2.132.535.96-15.03.852-18.654-1.6-11.4-1.812-13.106.108-1.278.108-1.278,2.024,5.22,2.236,6.286.64,3.518.64,3.518a16.07,16.07,0,0,0-.106-5.115,30.056,30.056,0,0,0-.854-3.093s2.132.962,2.772,1.387a5.961,5.961,0,0,0,2.344.427s2.666,7.993,2.986,10.337.745,10.445.745,12.045c0,1.28.89-9.331.971-16.127C1978.109,8557.21,1978.107,8557.09,1978.107,8556.976Z" fill="#3c4e56" opacity="0.5"/>
          <path id="Trazado_3895" data-name="Trazado 3895" d="M1964,8624.212l-.457-.1a83.707,83.707,0,0,0,1.523-15.54,71.992,71.992,0,0,0-1.115-13.6l-.012-.056,1.443-5.25c.013-.131,2.02-16.48,1.416-27.741-.6-11.22-3.2-15.435-3.222-15.473l.393-.25c.108.171,2.687,4.356,3.295,15.7.606,11.3-1.407,27.689-1.428,27.853l-1.418,5.176a73.471,73.471,0,0,1,1.115,13.645A84.373,84.373,0,0,1,1964,8624.212Z" fill="#3c4e56"/>
          <path id="Trazado_3896" data-name="Trazado 3896" d="M1947.24,8555.037s1.066,5.455.6,7.382-2,5.722-2.2,6.321a25.013,25.013,0,0,0-1.194,3.059,4.944,4.944,0,0,0,3.256-.865c1-.863,1.33-7.249,1.2-9.777s-.534-5.654-.534-5.986,2.2,10.842,1.863,13.637-.2,5.853-.865,6.785-4.389.665-6.319.665-5.254.133-5.587-.4-3.524,2.2.664-4.656S1947.24,8555.037,1947.24,8555.037Z" fill="#3c4e56" opacity="0.5"/>
          <path id="Trazado_3897" data-name="Trazado 3897" d="M1971.5,8544.657s2.867,5.6,3.548,7.645a68.808,68.808,0,0,1,2.458,16.379,67.167,67.167,0,0,1-1.227,14.332c-.411,2.049-.547,3-.547,3s1.229-.543,2.047-3.958,2.594-12.147,2.594-15.561-.682-12.285-1.913-15.97a15,15,0,0,0-3.548-6C1974.506,8544.111,1971.366,8543.565,1971.5,8544.657Z" fill="#242829"/>
          <path id="Trazado_3898" data-name="Trazado 3898" d="M1976.131,8551.578a82.948,82.948,0,0,1,1.935,8.83c.361,2.177,1.088,6.291,1.815,6.412a2.674,2.674,0,0,0,.487.021c0-.122.006-.233.006-.345,0-3.412-.682-12.285-1.913-15.97-.06-.188-.126-.372-.2-.551l-.88.018S1975.646,8550.368,1976.131,8551.578Z" fill="#f9f9f9" opacity="0.22"/>
          <path id="Trazado_3899" data-name="Trazado 3899" d="M1977.479,8560.744c-1.35-9.457-3.562-11.79-3.562-11.79l-.265.082c.593,1.265,1.145,2.507,1.4,3.266a68.808,68.808,0,0,1,2.458,16.379,67.167,67.167,0,0,1-1.227,14.332c-.411,2.049-.547,3-.547,3a1.3,1.3,0,0,0,.271-.193c.187-.705.388-1.481.615-2.355C1978.217,8577.324,1978.831,8570.2,1977.479,8560.744Z" fill="#121414"/>
          <path id="Trazado_3900" data-name="Trazado 3900" d="M1935.572,8599.105a19.655,19.655,0,0,1-4.273-.533c-1.6-.492-1.72-.123-1.968,1.351l-.244,1.475a8.047,8.047,0,0,0,4.79.492,11.177,11.177,0,0,0,5.035-2.333Z" fill="#121414"/>
          <path id="Trazado_3901" data-name="Trazado 3901" d="M1940.753,8542.825s-4.018,1.023-4.1,1.453-.085.854.256.939a34.144,34.144,0,0,1,6.156,1.283c1.8.768,3.334,3.42,4.273,5.3s2.6,12.479,2.036,18.3c-.7,7.229-3.573,16.07-5.112,20.261s-8.124,8.722-9.233,8.979-4.1.939-4.1.939a13.234,13.234,0,0,0,5.813.429c3.076-.514,7.437-4.959,9.062-6.584s5.985-14.365,6.669-17.869a74.256,74.256,0,0,0,.4-17.112,31.411,31.411,0,0,0-3.908-11.785c-1.112-2.054-5.044-4.275-5.728-4.531A7.692,7.692,0,0,0,1940.753,8542.825Z" fill="#242829"/>
          <path id="Trazado_3902" data-name="Trazado 3902" d="M1948.033,8546.152a7.608,7.608,0,0,1-2.388-.021c-.844-.241,1.332,1.453,2.3,3.63a43.584,43.584,0,0,1,2.783,10.282c.362,3.266.241,7.137.966,7.016a4.19,4.19,0,0,0,1.492-.783,53.652,53.652,0,0,0-.316-7.135,32.3,32.3,0,0,0-2.325-8.6l-2.109-3.942C1948.309,8546.449,1948.175,8546.3,1948.033,8546.152Z" fill="#f9f9f9" opacity="0.22"/>
          <g id="Grupo_3294" data-name="Grupo 3294">
            <path id="Trazado_3903" data-name="Trazado 3903" d="M1931.406,8600.169c-.3.066-.484.109-.484.109s.165.056.448.133C1931.387,8600.315,1931.4,8600.231,1931.406,8600.169Z" fill="#121414"/>
            <path id="Trazado_3904" data-name="Trazado 3904" d="M1942.72,8545.392a29.706,29.706,0,0,0-6.078-1.072c-.078.412-.066.815.263.9a34.144,34.144,0,0,1,6.156,1.283c1.8.768,3.334,3.42,4.273,5.3s2.6,12.479,2.036,18.3c-.7,7.229-3.573,16.07-5.112,20.261-1.37,3.734-6.743,7.735-8.686,8.745a19.571,19.571,0,0,0,4.815-2.375c4.3-2.948,7.983-16.825,9.333-22.476s.248-16.95-.49-20.265S1945.3,8546.252,1942.72,8545.392Z" fill="#121414"/>
            <path id="Trazado_3905" data-name="Trazado 3905" d="M1933.868,8599.6l-.776.18C1933.332,8599.733,1933.591,8599.673,1933.868,8599.6Z" fill="#121414"/>
          </g>
          <path id="Trazado_3906" data-name="Trazado 3906" d="M1925.285,8608.156c-.309,0-.617-.013-.926-.037-9.638-.763-11.378-10.052-11.393-10.146l.916-.16c.065.352,1.642,8.672,10.551,9.375,6.155.491,13.1-4.492,18.677-8.493a35.9,35.9,0,0,1,6.694-4.217c1.035-.383,2.272-.988,3.7-1.69,5.544-2.721,13.919-6.835,26.878-6.426,11.791.369,21.359,6.513,21.652,7.392l.1.307-.258.238c-.256.2-.47.263-2.225-.792l.2-.327a41.222,41.222,0,0,0-19.5-5.886c-12.722-.4-20.976,3.652-26.439,6.331-1.454.714-2.708,1.329-3.789,1.731a35.344,35.344,0,0,0-6.472,4.1C1938.223,8603.35,1931.529,8608.156,1925.285,8608.156Z" fill="#db9f58"/>
          <path id="Trazado_3907" data-name="Trazado 3907" d="M1950.127,8595.356c.915-.341,1.968-.844,3.149-1.42-.223-.225-.47-.451-.736-.676-1.029.5-1.943.926-2.736,1.218a28.521,28.521,0,0,0-5.548,3.4c.49,0,1,.028,1.505.076A22.422,22.422,0,0,1,1950.127,8595.356Z" fill="#a8753d"/>
          <path id="Trazado_3908" data-name="Trazado 3908" d="M1969.3,8587.166c.172.287.352.574.534.858a50.9,50.9,0,0,1,10.522-.73c.413.011.818.042,1.223.067a9.675,9.675,0,0,1-2.52-1.025A51.173,51.173,0,0,0,1969.3,8587.166Z" fill="#a8753d"/>
          <path id="Trazado_3909" data-name="Trazado 3909" d="M1935.174,8603.976c-3.574,2.034-7.282,3.488-10.741,3.213a11.074,11.074,0,0,1-7.468-3.426c-.288.153-.559.3-.8.45a11.9,11.9,0,0,0,8.2,3.906c.309.024.617.037.926.037,3.31,0,6.746-1.35,10.054-3.2A.815.815,0,0,1,1935.174,8603.976Z" fill="#a8753d"/>
          <path id="Trazado_3910" data-name="Trazado 3910" d="M1908.664,8580.265c3.529-4.667,12.605-9.312,16.734-5.395s1.585,7.831,1.585,7.831a16.6,16.6,0,0,0-7.513,3.493c-3.6,2.964-6.33,10.232-3.365,10.339s1.008-2.021,9.456-9.206c4.5-3.833,11.16-4.31,11.16-4.31s.067,5.569.192,7.463.127,4.539.127,4.539-3.191.337-6.686,3.909c-5.548,5.674-6.558,10.215-16.142,10.595-8.854.35-12.848-8.6-12.234-14.5C1902.61,8588.966,1905.875,8583.946,1908.664,8580.265Z" fill="#5a5f60"/>
          <path id="Trazado_3911" data-name="Trazado 3911" d="M1918.944,8594.958a7.749,7.749,0,0,0,0,2.954c.3,1.8,1.4,2.552,1.6,1.45s-.6-3.5-.6-4.2S1919.544,8594.559,1918.944,8594.958Z" fill="#f9f9f9" opacity="0.25"/>
          <path id="Trazado_3912" data-name="Trazado 3912" d="M1921.447,8592.205a7.764,7.764,0,0,0,0,2.953c.3,1.8,1.4,2.553,1.6,1.451s-.6-3.506-.6-4.205S1922.047,8591.8,1921.447,8592.205Z" fill="#f9f9f9" opacity="0.25"/>
          <path id="Trazado_3913" data-name="Trazado 3913" d="M1918.684,8575.269c2.38.664,3.378,2.1,3.49,5.316a18.368,18.368,0,0,1-.4,4.034,17.183,17.183,0,0,1,4.262-1.721c.022-.069.053-.136.076-.208a35.742,35.742,0,0,1,1.59-3.728,6.994,6.994,0,0,0-2.3-4.093c-2.63-2.5-7.263-1.517-11.2.73C1915.308,8575.6,1916.306,8574.607,1918.684,8575.269Z" fill="#242829" opacity="0.45"/>
          <path id="Trazado_3914" data-name="Trazado 3914" d="M1930.374,8584.54a16.948,16.948,0,0,0-4.813,2.787c-1.062.905-1.961,1.73-2.726,2.479.028.035.053.066.083.1.5.5,3.217.719,3.827.886a16.7,16.7,0,0,0,3.387.556,8.032,8.032,0,0,1,3.219,2.22,1.041,1.041,0,0,1-.945,1.167c-.721.055-1.388-.725-1.164-.17s.166,1.445-1.11,1.831-2-1.108-1.721-.44a1.779,1.779,0,0,1-.722,2.217c-.833.335-1.721-.552-1.276.114s-.333,1.94-1.221,2.5-2.388-.556-2,0a1.63,1.63,0,0,1-.276,2.275c-.888.722-2.166-.724-1.89-.109s.5,1.664-.555,2.054-2.552-1.055-2.219-.447a1.087,1.087,0,0,1-.943,1.61c-.943,0-1.223-1.718-1.223-.5s-1.886,1.664-2.495,1.442-.777-1.388-.888-.666-1.5.888-2.719.222-.5-2.11-.945-1.663-1.5,1.055-2.831-.223-.388-3.056-1-2.608-1.61-.835-1.943-2.223.833-1.831.11-1.72-1.164-.5-1.053-2.44.777-2,.334-2.554a1.977,1.977,0,0,1-.146-1.187,21.505,21.505,0,0,0-.536,2.976c-.614,5.9,3.38,14.854,12.234,14.5,9.584-.38,10.594-4.921,16.142-10.595,3.495-3.572,6.686-3.909,6.686-3.909s0-2.648-.127-4.539c-.087-1.318-.144-4.42-.173-6.18a15.284,15.284,0,0,0-2.389-.282A14.545,14.545,0,0,0,1930.374,8584.54Z" fill="#242829" opacity="0.45"/>
          <path id="Trazado_3915" data-name="Trazado 3915" d="M1930.354,8598.929a6.418,6.418,0,0,1-1.9.686l-.149.6a4.653,4.653,0,0,1-1.6,2.153c-.8.6-1.252.35-1.252.35.5.6.351,1.1-.551,1.8s-1.7.152-1.5.453.1,1-1.051,1.553-1.852.5-1.6.6-.9.952-1.9,1.053-1.5-.1-1.8-.5.1.853-1.451,1.051a2.916,2.916,0,0,1-2.052-.4c.047.15-.252.6-2.153.35a2.753,2.753,0,0,1-2.354-1.4s-.2.5-1.3.25a3.411,3.411,0,0,1-.7-.25,10.679,10.679,0,0,0,7.182,2.25C1923.8,8609.144,1924.806,8604.6,1930.354,8598.929Z" fill="#5a5f60"/>
          <path id="Trazado_3916" data-name="Trazado 3916" d="M1914.926,8596.673c.054.832.831-.111,1.162.275s.668-.221,1.447-.441c.35-.1.659-.71,1-1.473-.748,1.132-1.083,1.549-2.426,1.5-2.965-.106-.235-7.375,3.365-10.339a16.961,16.961,0,0,1,6.243-3.211,13.462,13.462,0,0,0,1.7-2.131c.112-.169.212-.326.316-.486a5.988,5.988,0,0,0-1.06-4.009l-3.418-.554s-.554,2.941-1.221,3.275-.888.166-.888,1.553-.555,2-1.5,1.39-.888-.057-.666.776-.555,1.664-1.665,1.831-1.5-.167-1.442.055.609.39.5,1.444a1.226,1.226,0,0,1-1.832.887c-.555-.333.554.612.221,1.444s-.776,1.441-1.388,1.219.669.5.388.834a6.633,6.633,0,0,1-.664.667s1.221.389.833,1.274-.888.945-.888.945,1.109.5.776,1.163-.61.667.167.612-.11,1.164-.11,1.164S1914.869,8595.84,1914.926,8596.673Z" fill="#242829" opacity="0.45"/>
          <g id="Grupo_3295" data-name="Grupo 3295" opacity="0.42">
            <path id="Trazado_3917" data-name="Trazado 3917" d="M1914.271,8575.561c-.243.136-.481.28-.72.425a11.709,11.709,0,0,1,7.441,2.911,5.979,5.979,0,0,1,1.407,5.383c.18-.093.358-.183.532-.264a6.275,6.275,0,0,0-1.613-5.455A11.752,11.752,0,0,0,1914.271,8575.561Z" fill="#242829"/>
            <path id="Trazado_3918" data-name="Trazado 3918" d="M1919.8,8593.21c-.038.047-.073.1-.11.144A.229.229,0,0,0,1919.8,8593.21Z" fill="#242829"/>
            <path id="Trazado_3919" data-name="Trazado 3919" d="M1926.41,8603.441c.1-.125.208-.252.314-.377a9.862,9.862,0,0,1-4.806-4.609,14.3,14.3,0,0,1-.969-6.657c-.176.206-.343.4-.5.589a13.848,13.848,0,0,0,1.051,6.278A10.361,10.361,0,0,0,1926.41,8603.441Z" fill="#242829"/>
            <path id="Trazado_3920" data-name="Trazado 3920" d="M1923.435,8589.229c-.174.165-.339.323-.5.482-.205,4.912,3.325,8.65,5.995,10.753.1-.115.2-.229.308-.344C1926.555,8598.012,1922.962,8594.212,1923.435,8589.229Z" fill="#242829"/>
            <path id="Trazado_3921" data-name="Trazado 3921" d="M1914.893,8578.6c3.136,1.155,4.541,5.165,5.065,7.217.139-.106.275-.206.411-.3-.57-2.18-2.031-6.142-5.313-7.351a9.745,9.745,0,0,0-3.806-.531c-.2.167-.4.337-.6.508A9.689,9.689,0,0,1,1914.893,8578.6Z" fill="#242829"/>
            <path id="Trazado_3922" data-name="Trazado 3922" d="M1916.562,8596.53c-.143,0-.29.009-.457,0l-.009,0c.022,2.821.642,8.855,5.231,11.388.167-.089.33-.18.491-.272C1917.192,8605.321,1916.58,8599.311,1916.562,8596.53Z" fill="#242829"/>
            <path id="Trazado_3923" data-name="Trazado 3923" d="M1908.8,8584.674a18.144,18.144,0,0,0-3.232.144c-.1.172-.2.345-.3.517a16.9,16.9,0,0,1,3.511-.192,10.268,10.268,0,0,1,7.883,4.455c.083-.143.17-.287.261-.428A10.679,10.679,0,0,0,1908.8,8584.674Z" fill="#242829"/>
            <path id="Trazado_3924" data-name="Trazado 3924" d="M1918.741,8573.736a7.944,7.944,0,0,1,3.529,2.009c2.627,2.624,1.856,6.326,1.326,7.972q.284-.119.553-.223c.539-1.884,1.068-5.464-1.547-8.079a8.186,8.186,0,0,0-2.967-1.866C1919.337,8573.6,1919.04,8573.662,1918.741,8573.736Z" fill="#242829"/>
            <path id="Trazado_3925" data-name="Trazado 3925" d="M1915.687,8591.512c.064-.152.134-.311.208-.462-2.013-2.268-6.086-3.061-9.918-2.76a7.589,7.589,0,0,0-2.431.6c-.082.205-.163.411-.241.619a7.069,7.069,0,0,1,2.71-.751C1909.813,8588.454,1913.848,8589.242,1915.687,8591.512Z" fill="#242829"/>
            <path id="Trazado_3926" data-name="Trazado 3926" d="M1930.5,8598.786c.114-.113.226-.219.337-.325-3.913-3.745-4.328-10.027-4.362-11.845-.155.109-.307.225-.456.342C1926.1,8589.172,1926.688,8595.127,1930.5,8598.786Z" fill="#242829"/>
            <path id="Trazado_3927" data-name="Trazado 3927" d="M1910.061,8601.318a12.125,12.125,0,0,1,4.047-5.12,13.115,13.115,0,0,0-1.11,3.121c-.447,2.162-.863,6.829.481,10.209.161,0,.324,0,.487,0-1.385-3.263-.957-7.963-.512-10.113a13.521,13.521,0,0,1,1.491-3.8,2.811,2.811,0,0,1-.1-.751c-.079.136-.165.27-.248.418a12.984,12.984,0,0,0-4.968,5.872,17.386,17.386,0,0,0-.826,7.25c.161.08.328.158.494.234A17.434,17.434,0,0,1,1910.061,8601.318Z" fill="#242829"/>
            <path id="Trazado_3928" data-name="Trazado 3928" d="M1908.94,8597.916a22.885,22.885,0,0,1,5.906-3.174,4.833,4.833,0,0,1,.04-.5,23.754,23.754,0,0,0-6.235,3.312,12.218,12.218,0,0,0-4.282,6.8c.116.181.239.354.364.526A11.762,11.762,0,0,1,1908.94,8597.916Z" fill="#242829"/>
            <path id="Trazado_3929" data-name="Trazado 3929" d="M1915.666,8596.45a1.082,1.082,0,0,1-.428-.286c-1.244,4.768.763,10.115,2.244,13.018.163-.029.322-.062.481-.095C1916.569,8606.349,1914.558,8601.095,1915.666,8596.45Z" fill="#242829"/>
            <path id="Trazado_3930" data-name="Trazado 3930" d="M1918.146,8595.6a3.1,3.1,0,0,1-.447.5c.311,5.06,4.081,8.063,6.705,9.548.112-.11.226-.225.337-.34C1922.128,8603.853,1918.232,8600.813,1918.146,8595.6Z" fill="#242829"/>
            <path id="Trazado_3931" data-name="Trazado 3931" d="M1928.854,8585.206a16.719,16.719,0,0,0,3.721,11.818c.129-.092.255-.185.38-.266a16.248,16.248,0,0,1-3.616-11.782C1929.176,8585.05,1929.017,8585.127,1928.854,8585.206Z" fill="#242829"/>
            <path id="Trazado_3932" data-name="Trazado 3932" d="M1910.856,8581.873c3.462.578,6.152,3.979,6.923,6.093.114-.144.229-.289.347-.427-.957-2.349-3.8-5.561-7.194-6.125a8.116,8.116,0,0,0-3.2.114c-.142.2-.284.4-.428.606A7.742,7.742,0,0,1,1910.856,8581.873Z" fill="#242829"/>
            <path id="Trazado_3933" data-name="Trazado 3933" d="M1934.023,8583.446c-.178.039-.369.083-.562.131a14.413,14.413,0,0,0,.7,12.468c.14-.076.282-.146.414-.21A13.941,13.941,0,0,1,1934.023,8583.446Z" fill="#242829"/>
            <path id="Trazado_3934" data-name="Trazado 3934" d="M1909.753,8591.319a10.946,10.946,0,0,1,5.652.9c.049-.14.106-.281.164-.424a11.373,11.373,0,0,0-5.868-.938,12.428,12.428,0,0,0-7.643,3.563c-.025.2-.057.4-.08.6-.006.074-.011.15-.017.225A11.923,11.923,0,0,1,1909.753,8591.319Z" fill="#242829"/>
            <path id="Trazado_3935" data-name="Trazado 3935" d="M1910.832,8594.113a18.322,18.322,0,0,1,4.135-.377c.03-.151.065-.307.106-.463a18.145,18.145,0,0,0-4.351.386,15.237,15.237,0,0,0-8.458,5.645c.043.2.089.391.142.586A14.8,14.8,0,0,1,1910.832,8594.113Z" fill="#242829"/>
          </g>
          <path id="Trazado_3936" data-name="Trazado 3936" d="M1942.544,8580.8s-3.494-2.539-5.186-1.375-2.646,7.2-2.013,11.536,2.117,5.61,3.387,5.61,3.108-.018,4.168-1.184S1942.544,8580.8,1942.544,8580.8Z" fill="#242829"/>
          <path id="Trazado_3937" data-name="Trazado 3937" d="M1942.18,8581.142l78.671,13.508-.9,10.521-79.552-9.39S1938.806,8589.479,1942.18,8581.142Z" fill="#d23a34"/>
          <path id="Trazado_3938" data-name="Trazado 3938" d="M1959.629,8588.5l59.109,9.613a15.777,15.777,0,0,0,1.92.229l.193-2.28-70.375-12.082Z" fill="#e55151"/>
          <path id="Trazado_3939" data-name="Trazado 3939" d="M1976.246,8588.44l-3.457.268a27.43,27.43,0,0,0,7.776,1.895c5.4.715,20.522,3.285,20.522,3.285l-.11-1Z" fill="#f9f9f9" opacity="0.33"/>
          <g id="Grupo_3296" data-name="Grupo 3296" opacity="0.42">
            <path id="Trazado_3940" data-name="Trazado 3940" d="M1995.612,8590.336s4.549,1.428,6.107,2.6,4.156.78,4.156.78a1.775,1.775,0,0,0-.189-1.666l-10.074-1.73Z" fill="#3d0e0e"/>
          </g>
          <g id="Grupo_3297" data-name="Grupo 3297" opacity="0.42">
            <path id="Trazado_3941" data-name="Trazado 3941" d="M2020.188,8602.4c-6.769-.909-55.877-7.512-67.02-8.639-11.972-1.21-9.414-5.382-9.414-5.382l-3.1-2.28a23.166,23.166,0,0,0-.252,9.68l79.552,9.39Z" fill="#3d0e0e"/>
          </g>
          <path id="Trazado_3942" data-name="Trazado 3942" d="M1940.23,8594.878c.085.583.167.9.167.9l79.552,9.39.042-.457-.195-.1Z" fill="#d23a34"/>
          <path id="Trazado_3943" data-name="Trazado 3943" d="M1940.507,8589.7s-1.468,5.075,1.641,6.318a2.987,2.987,0,0,1-3.505-1.824,11.724,11.724,0,0,1-.621-5.6Z" fill="#121414"/>
          <path id="Trazado_3944" data-name="Trazado 3944" d="M2019.491,8594.246s3.634-2.007,5.353-1.431,2.482,3.262,2.106,6.785c-.576,5.356-2.329,7.318-3.825,7.65-1.721.384-4.781-2.294-4.781-2.294Z" fill="#d23a34"/>
          <g id="Grupo_3298" data-name="Grupo 3298" opacity="0.42">
            <path id="Trazado_3945" data-name="Trazado 3945" d="M2019.063,8602.415a3.027,3.027,0,0,0-.492.412l-.2,1.817a22.358,22.358,0,0,0,4.434,2.64,1.488,1.488,0,0,0,.315-.033,3.766,3.766,0,0,0,2.316-2.049C2022.7,8604.05,2019.063,8602.415,2019.063,8602.415Z" fill="#3d0e0e"/>
          </g>
          <path id="Trazado_3946" data-name="Trazado 3946" d="M2019.251,8596.484l-.135,1.261,7.9,1.063c.146-2.453-.3-4.419-1.261-5.406a60.681,60.681,0,0,0-6.031,1.668Z" fill="#e55151"/>
          <path id="Trazado_3947" data-name="Trazado 3947" d="M1973.372,8586.477s-1.239-.267-2.369,1.384a12.749,12.749,0,0,0-1.617,7.912c.405,2.426,1.314,3.608,2.123,3.666l.918.109a1.121,1.121,0,0,1-.614.672,69.2,69.2,0,0,1-8.316-1.1c-.693-.312-1.475-2.108-1.534-4.186s.322-6.556,1.822-8.635,4.563-1.387,5.544-1.329a30.078,30.078,0,0,1,4.1.924c.346.116.518.752.518.752Z" fill="#242829"/>
          <path id="Trazado_3948" data-name="Trazado 3948" d="M1973.429,8585.9c-.072-.023-.26-.078-.51-.146-.8.146-1.982.738-2.842,2.854-1.365,3.358-1.655,7.45-.731,9.595a2.713,2.713,0,0,0,2.606,1.952,1.172,1.172,0,0,0,.475-.6l-.918-.109c-.809-.058-1.718-1.24-2.123-3.666a12.749,12.749,0,0,1,1.617-7.912c1.13-1.65,2.369-1.384,2.369-1.384l.575.172S1973.775,8586.013,1973.429,8585.9Z" fill="#4a5051"/>
          <path id="Trazado_3949" data-name="Trazado 3949" d="M1969.386,8595.772c-.017-.108-.03-.222-.044-.333l-.748.3s-.933-.078-4.271-.389a6.515,6.515,0,0,1-2.362-.515c0,.032,0,.068,0,.1.059,2.077.841,3.874,1.534,4.186a69.2,69.2,0,0,0,8.316,1.1,1.121,1.121,0,0,0,.614-.672l-.918-.109C1970.7,8599.381,1969.791,8598.2,1969.386,8595.772Z" fill="#121414" opacity="0.65"/>
          <path id="Trazado_3950" data-name="Trazado 3950" d="M1942.127,8590.285a21.994,21.994,0,0,0,9.525,1.853c5.61-.157,7.78-.529,8.573-1.06a9.7,9.7,0,0,0,1.693-1.905c.265-.265,1.642-1.374,1.642-1.374a9.735,9.735,0,0,0,4.075,1.271,5.375,5.375,0,0,0,3.387-.954c.369-.316,1.48-1.481,1.85-1.854s-1.006-.9-1.746-1-10.266-.422-10.266-.422Z" fill="#260b0b" opacity="0.28"/>
          <path id="Trazado_3951" data-name="Trazado 3951" d="M1973.716,8524.228a8.734,8.734,0,0,0-.5-3.478c-.621-1.243-6.081-6.206-8.316-7.322s-7.449-1.617-10.179-1.244a20.238,20.238,0,0,0-8.193,3.975c-1.864,1.739-4.1,4.592-4.221,7.2-.2,4.095.867,11.42,3.1,15.269s4.1,4.841,5.958,5.462a109.712,109.712,0,0,0,14.277,1.987,5.647,5.647,0,0,0,4.346-1.49C1971.232,8543.469,1974.211,8526.462,1973.716,8524.228Z" fill="#b6c5cc"/>
          <path id="Trazado_3952" data-name="Trazado 3952" d="M1969.992,8544.585a.72.72,0,0,0,.108-.135c-1.237-2.32-3.833-5.313-5.758-8.8-4.09-7.407-9.646-8.1-11.42-7.253a31.413,31.413,0,0,0-5.014,3.394c-1.081.849-1.929-1-2.778-2a14.008,14.008,0,0,1-2.471-4.4,10.471,10.471,0,0,1-.325-2.291c-.01.088-.021.178-.025.263-.2,4.095.867,11.42,3.1,15.269s4.1,4.841,5.958,5.462a109.712,109.712,0,0,0,14.277,1.987A5.647,5.647,0,0,0,1969.992,8544.585Z" fill="#3c4e56" opacity="0.5"/>
          <path id="Trazado_3953" data-name="Trazado 3953" d="M1951.369,8544.088a19.641,19.641,0,0,0,2.235.485,19.809,19.809,0,0,1-4.847-2.908c-.9-.8-2.748-2.872-3.973-4.289a13.932,13.932,0,0,0,.627,1.25C1947.647,8542.473,1949.508,8543.467,1951.369,8544.088Z" fill="#b6c5cc"/>
          <path id="Trazado_3954" data-name="Trazado 3954" d="M1970.745,8542.8c1.4-4.662,3.382-16.713,2.971-18.569a8.734,8.734,0,0,0-.5-3.478c-.024-.046-.055-.1-.091-.155a11.777,11.777,0,0,1-2.3-1.3,4.682,4.682,0,0,0-3.936-1.157c-1.777.232-2.392-.078-3.857.078s-1.621-.156-2.239.385a11.548,11.548,0,0,1-4.088,1.313,3.306,3.306,0,0,0-2.624,1.851,7.168,7.168,0,0,1-1.39,2.391c-1,1.156-1.155,1.082-1.386,2.625s-.157,2.313-.464,2.7a3.665,3.665,0,0,0-.77,3.473,9.621,9.621,0,0,1,.693,3.779c0,1.776-.309,2.624.386,3.473a11.234,11.234,0,0,1,1.928,3.163,2.705,2.705,0,0,0,.725,1.246c3.321.578,8.778,1.275,11.088,1.433A16.591,16.591,0,0,0,1970.745,8542.8Z" fill="#3c4e56" opacity="0.5"/>
          <path id="Trazado_3955" data-name="Trazado 3955" d="M1972.987,8520.395a37.784,37.784,0,0,0-8.085-6.967c-2.236-1.119-7.449-1.617-10.179-1.244a18.956,18.956,0,0,0-6.268,2.592,3.845,3.845,0,0,0,.426,3.482c2.049,2.371,3.558,3.341,5.929,2.371a20.854,20.854,0,0,1,11.861-2.049A16.832,16.832,0,0,1,1972.987,8520.395Z" fill="#f9f9f9" opacity="0.59"/>
          <path id="Trazado_3956" data-name="Trazado 3956" d="M1974,8524.618a6.727,6.727,0,0,0-1.215-3.976c-1.263-1.417-4.823-2.062-8.165-1.847s-6.576.754-8.085,1.94-3.02,3.019-4.53,8.408a18.781,18.781,0,0,0,.432,11.861c.862,2.371,4.2,4.852,7.332,5.283s7.761,1.4,10.134-.648S1974.972,8527.1,1974,8524.618Z" fill="#242829"/>
          <g id="Grupo_3299" data-name="Grupo 3299" opacity="0.49">
            <path id="Trazado_3957" data-name="Trazado 3957" d="M1972.266,8521.1s-2.71-2.2-9.07-1.384-7.178,2.643-9.066,6.17-2.522,11.524-.695,14.927,5.921,4.786,12.408,4.976,7.428-.189,7.428-.189,1.954-1.891,2.269-6.487S1975.6,8524.5,1972.266,8521.1Z" fill="#97a9b3"/>
          </g>
          <g id="Grupo_3300" data-name="Grupo 3300" opacity="0.22">
            <path id="Trazado_3958" data-name="Trazado 3958" d="M1957.434,8528.468s5.132-1.185,6.514-.395,2.367,3.157.591,5.523-7.3,2.962-8.091,1.187S1954.869,8530.44,1957.434,8528.468Z" fill="#242829"/>
          </g>
          <path id="Trazado_3959" data-name="Trazado 3959" d="M1964.143,8522.687c2.825-.4,7.669,2.021,7.669,2.021l1.56-2.054a6.9,6.9,0,0,0-1.106-1.551s-2.71-2.2-9.07-1.384-7.178,2.643-9.066,6.17-2.522,11.524-.695,14.927c1.75,3.252,5.575,4.659,11.581,4.938-.375-.656-4.586-1.528-5.111-1.879-.606-.405-5.853-5.247-5.853-5.247s0-9.887,1.818-11.7A17.108,17.108,0,0,1,1964.143,8522.687Z" fill="#0d0d0d" opacity="0.54"/>
          <path id="Trazado_3960" data-name="Trazado 3960" d="M1967.574,8528.741s-.809-.4-1.816,1.212-3.228,5.851-4.44,7.868-2.019,4.238-1.009,5.852,8.675,2.02,10.9,1.817,2.825-4.036,2.825-4.036S1972.415,8529.549,1967.574,8528.741Z" fill="#0d0d0d" opacity="0.54"/>
          <g id="Grupo_3301" data-name="Grupo 3301" opacity="0.48">
            <path id="Trazado_3961" data-name="Trazado 3961" d="M1968.18,8543.485a41.9,41.9,0,0,1-15.642-11.75c-.407,3.378-.193,7.049.9,9.08,1.827,3.4,5.921,4.786,12.408,4.976a46.423,46.423,0,0,0,7.089-.12C1971.563,8544.975,1969.984,8544.246,1968.18,8543.485Z" fill="#242829"/>
          </g>
          <g id="Grupo_3302" data-name="Grupo 3302" opacity="0.49">
            <path id="Trazado_3962" data-name="Trazado 3962" d="M1973.178,8545.625a41.278,41.278,0,0,0-4.89-.522c-8.3-.43-8.633-.765-12.194-2.381-1.426-.65-2-1.637-2.973-2.6a6.136,6.136,0,0,0,.314.69c1.827,3.4,5.921,4.786,12.408,4.976C1971.279,8545.949,1972.822,8545.707,1973.178,8545.625Z" fill="#247a8e"/>
          </g>
          <path id="Trazado_3963" data-name="Trazado 3963" d="M1919.517,8594.424a2.938,2.938,0,0,1-1.488-.369c-.61-.354-1.589-1.292-1.3-3.6.489-3.9,4.83-8.647,5.014-8.846l1.03.945c-.042.048-4.224,4.622-4.654,8.074-.1.79-.072,1.814.614,2.21.81.474,2.355.032,3.851-1.089,2.581-1.936,6.453-4.51,10.274-4.51v1.4c-3.4,0-7.014,2.412-9.435,4.229A6.851,6.851,0,0,1,1919.517,8594.424Z" fill="#3d0e0e"/>
          <path id="Trazado_3964" data-name="Trazado 3964" d="M1940.925,8546.072s-3.8.18-5.618,1.477-5.578,5.711-7.527,8.825-6.748,17.391-7.138,19.208a33.919,33.919,0,0,0-.129,8.047c.26,1.167,2.077,2.075,3.246,2.465s4.15,2.466,5.968,3.113,8.435,1.43,13.887,1.559,11.809-.261,14.015-1.169,3.765-1.944,4.024-2.854a36.885,36.885,0,0,0,.778-6.358c0-1.817-3.115-7.009-3.115-7.009a7.764,7.764,0,0,0-4.8-.908c-3.113.26-12.978,1.169-12.978,1.169s-2.076.519-2.854.65.388-.521,1.168-1.04a14.087,14.087,0,0,0,2.206-2.856s4.283-4.412,4.933-7.008a26.571,26.571,0,0,0,.859-9.014C1947.37,8552.73,1945.2,8547.7,1940.925,8546.072Z" fill="#b6c5cc"/>
          <path id="Trazado_3965" data-name="Trazado 3965" d="M1941.567,8547.627a27.847,27.847,0,0,0-4.465,2.232c-2,1.292-3.172,4.111-3.641,4.346s-1.29-.47-1.29-.47,1.759-3.286,2.348-4.11-.823.821-2.7,2.466a17.507,17.507,0,0,0-4.345,6.932c-1.178,2.936-3.641,8.458-3.759,9.4s1.057.117,1.057.117,2.465-3.054,2.819-3.289.116.939-.235,2.114-2.232,2.7-2.584,4.229a10.071,10.071,0,0,0,0,5.285c.587,1.528,2.083,3.06,2.683,3.058a5.836,5.836,0,0,0,1.545-.355s.941-3.171,2.467-4.111,2.937-2.348,4.815-2.7,2-.939,3.172-2.937a40.757,40.757,0,0,1,4.932-6.7,10.325,10.325,0,0,0,2.468-5.168,8.814,8.814,0,0,0-.118-3.876,20.245,20.245,0,0,0-1.645-4.229,25.039,25.039,0,0,1-2.464,2.114c-.354.117,1.055-1.527,1.29-2.7S1943.095,8547.745,1941.567,8547.627Z" fill="#f9f9f9" opacity="0.46"/>
          <path id="Trazado_3966" data-name="Trazado 3966" d="M1961.653,8586.742a36.885,36.885,0,0,0,.778-6.358c0-1.217-1.393-3.943-2.317-5.616-.044.421-.114.83-.114,1.058,0,.443.089,1.6-.356,1.691a14.963,14.963,0,0,1-2.136.09,17.736,17.736,0,0,0-3.827.53c-1.247.358.71.624,1.689.8a9.376,9.376,0,0,0,3.384-.444c.534-.178.623-.355.623.444a3.947,3.947,0,0,1-.534,1.692,22.321,22.321,0,0,0-4.274.444c-.8.357-2.135.98-1.779,1.247a6,6,0,0,0,3.294.089c1.6-.265,3.382-.533,3.382-.533l.358.979s-.625,2.136-.89,2.67a5.474,5.474,0,0,1-1.515,2.05c-.89.71-5.875.977-7.123.71a34.652,34.652,0,0,0-6.23-1.069c-2.938-.176-9.17-.624-11.128-.624s-5.608-1.776-6.678-2.4-1.689-1.781-2.223-1.516.534,2.14.71,2.4-2.136-.8-2.761-1.333-.441-4.9-.443-8.1c0-1.054.01-2.146.023-3.138-.49,1.51-.831,2.643-.924,3.073a33.919,33.919,0,0,0-.129,8.047c.26,1.167,2.077,2.075,3.246,2.465s4.15,2.466,5.968,3.113,8.435,1.43,13.887,1.559,11.809-.261,14.015-1.169S1961.394,8587.652,1961.653,8586.742Z" fill="#3c4e56" opacity="0.5"/>
          <path id="Trazado_3967" data-name="Trazado 3967" d="M2002.514,8589.227a6.626,6.626,0,0,0-2.76.592,3.813,3.813,0,0,0-1.28,1.086l2.957.394a12.387,12.387,0,0,0,2.464,1.281c.988.3,3.451-.394,3.353-1.086s-1.479-.689-2.071-.985A13.376,13.376,0,0,0,2002.514,8589.227Z" fill="#52bbe8"/>
          <g id="Grupo_3303" data-name="Grupo 3303" opacity="0.49">
            <path id="Trazado_3968" data-name="Trazado 3968" d="M2002.24,8590.465c-.5-.536-.638-.915-.572-1.184a5.063,5.063,0,0,0-1.914.537,3.813,3.813,0,0,0-1.28,1.086l2.957.394a12.387,12.387,0,0,0,2.464,1.281,3.4,3.4,0,0,0,1.424-.015A6.4,6.4,0,0,1,2002.24,8590.465Z" fill="#247a8e"/>
          </g>
          <path id="Trazado_3969" data-name="Trazado 3969" d="M2010.872,8603.27c-.941-.1-2.085,1.042-1.812.659a2.933,2.933,0,0,0,.606-1.592c0-.6-.985-.489-1.263-.328-1.041.6-2.03,1.316-1.755,1.042a8.681,8.681,0,0,0,1.041-1.593c.33-.6-.736-.948-1.594-.714a6.251,6.251,0,0,0-2.573,1.647c-.991.821-.36.146-.222-.272.275-.822.385-1.538-.33-1.647a3.136,3.136,0,0,0-2.194.986,10.248,10.248,0,0,1-2.03,1.208l-2.03-.219a7.959,7.959,0,0,0,2.47,2.469,2.428,2.428,0,0,0,1.757.231c.081.531.693.771,1.149.975.606.276,1.318-.381,1.483-.437s.164.878.878.987,1.316-.551,1.481-.274.274.493,1.428.387a9.151,9.151,0,0,0,4.114-2.528C2011.86,8603.765,2011.915,8603.38,2010.872,8603.27Z" fill="#52bbe8"/>
          <g id="Grupo_3304" data-name="Grupo 3304" opacity="0.49">
            <path id="Trazado_3970" data-name="Trazado 3970" d="M2008.163,8605.548c.077-.192.649-1.052,1.054-1.653a.675.675,0,0,1-.189.11,4.5,4.5,0,0,1-1.352,1.056c-.973.429-1.581-.12-1.337-.605.142-.283.674-1.166,1.1-1.855-.587.373-.971.636-.787.451a4.133,4.133,0,0,0,.471-.629c-.25.208-.547.456-.9.753-1.157.977-2.98,1.645-3.287,1.1-.174-.315.572-1.488,1.24-2.434-.2.168-.409.353-.649.553-.991.821-.36.146-.222-.272.019-.055.032-.108.051-.161a5.541,5.541,0,0,1-1.088,1.343c-.73.605-2.008.728-2.432.121-.238-.343.171-1.083.578-1.669a14.153,14.153,0,0,1-1.663.913l-2.03-.219a7.959,7.959,0,0,0,2.47,2.469,2.428,2.428,0,0,0,1.757.231c.081.531.693.771,1.149.975.606.276,1.318-.381,1.483-.437s.164.878.878.987,1.316-.551,1.481-.274.274.493,1.428.387a4.923,4.923,0,0,0,1.7-.675C2008.378,8606.118,2008.077,8605.76,2008.163,8605.548Z" fill="#247a8e"/>
          </g>
          <path id="Trazado_3971" data-name="Trazado 3971" d="M2017.579,8594.151s.668.095.574,3.252-.766,5.736-1.339,6.5-.956.763-.956.763-.1.479,1.147.575,2.3-1.053,2.869-4.3.382-5.735-.383-6.693S2017.675,8593.576,2017.579,8594.151Z" fill="#242829"/>
          <path id="Trazado_3972" data-name="Trazado 3972" d="M2017.52,8602.131a5.73,5.73,0,0,1-.706,1.774,2.926,2.926,0,0,1-.466.5,2.72,2.72,0,0,0,1.736.546,4.1,4.1,0,0,0,1.367-2.246A3.051,3.051,0,0,1,2017.52,8602.131Z" fill="#121414"/>
          <path id="Trazado_3973" data-name="Trazado 3973" d="M1945.909,8662.122a31.35,31.35,0,0,1-3.138,2.09,8.294,8.294,0,0,0-2.206.7,7.389,7.389,0,0,0-1.744,1.858s3.138-1.393,2.9-.7-1.394,3.949.812,2.322c.485-.355,1-.706,1.519-1.049.138-.544.242-.909.3-1.053.235-.583.117-1.983,1.051-2.8a10.756,10.756,0,0,0,1.842-2.385C1946.772,8661.463,1946.3,8661.817,1945.909,8662.122Z" fill="#3c4e56" opacity="0.5"/>
          <path id="Trazado_3974" data-name="Trazado 3974" d="M1972.624,8664.67c-1.163,1.276-1.509,1.276-1.278,1.973a16.181,16.181,0,0,1,0,3.369c0,.291,1.446-1.989,2.533-3.9a25.338,25.338,0,0,1,.941-4.459A20.665,20.665,0,0,1,1972.624,8664.67Z" fill="#3c4e56" opacity="0.5"/>
          <path id="Trazado_3975" data-name="Trazado 3975" d="M1939.882,8696.36s-2.759,0-4.007.176a34.976,34.976,0,0,0-4.539,1.427c-.534.175.178-.357.621-.894s3.562-1.243,4.1-1.332A11.53,11.53,0,0,1,1939.882,8696.36Z" fill="#3c4e56" opacity="0.5"/>
          <path id="Trazado_3976" data-name="Trazado 3976" d="M1944.988,8564.743s-2.431,3.493-3.039,4.406-1.09,2.483-1.594,3.188a6.067,6.067,0,0,1-1.214,1.443s.631.127,3.842-3.977c.994-1.271,2.691-3.239,3.221-4.684S1947.117,8563.224,1944.988,8564.743Z" fill="#3c4e56"/>
          <path id="Trazado_3977" data-name="Trazado 3977" d="M1938.592,8573.994a12.959,12.959,0,0,0-2.327,0,11.451,11.451,0,0,0-3.327,1.931c-.333.4,2.329-.4,2.994-.732a24.851,24.851,0,0,1,2.751-.906s-.085.046-.223.126c-.44.249-1.422.808-1.93,1.112a9.958,9.958,0,0,0-2.062,1.4c-.2.332-.53.8-.53.8s3.656-1.462,3.524-1.861.933-1.066,1.2-1.331S1938.857,8574.06,1938.592,8573.994Z" fill="#3c4e56" opacity="0.5"/>
          <path id="Trazado_3978" data-name="Trazado 3978" d="M1939.524,8547.12a22.922,22.922,0,0,0-3.393,1.531c-1.329.8-2.926,4.057-3.392,4.986s1.93-2.326,3.06-3.458a11.488,11.488,0,0,1,3.261-2.395C1939.988,8547.386,1941.056,8546.655,1939.524,8547.12Z" fill="#3c4e56" opacity="0.5"/>
          <path id="Trazado_3979" data-name="Trazado 3979" d="M1941.707,8549.293s-1.727,1.863-2.793,2.927a19.456,19.456,0,0,0-2.461,3.393c-.267.465,1.4-.8,2.927-2.728A21.218,21.218,0,0,0,1941.707,8549.293Z" fill="#3c4e56" opacity="0.25"/>
          <path id="Trazado_3980" data-name="Trazado 3980" d="M1957.639,8573.559a58.069,58.069,0,0,0-6.5-.213c-3.2.107-6.714.853-7.886.853a15.917,15.917,0,0,0-4.264,1.174c-1.172.426-1.278,1.492-2.026,1.705s-.746.427-2.238.957-1.384-.425-1.172-.852.32-.854-.32-.64-1.812,1.705-1.812,1.705-1.066.534,2.558.852,8.632.321,11.4.535a27.046,27.046,0,0,1,4.692.745,5.583,5.583,0,0,1-.64,1.492c-.426.639-.746.852.214,1.491a8.413,8.413,0,0,0,3.2,1.174,15.42,15.42,0,0,0,3.2-.427,7.569,7.569,0,0,1-3.624-.533c-1.279-.745-2.025-2.132-.533-2.45s3.517-.853,3.517-.853-1.918-.748-2.771-.96-1.92-.959.427-1.705,2.344-1.386,3.73-1.812S1960.2,8575.478,1957.639,8573.559Z" fill="#f9f9f9" opacity="0.46"/>
          <path id="Trazado_3981" data-name="Trazado 3981" d="M1955.425,8573.232s-5.283.119-6.458.236-2.7,1.176-4.583,1.409a47.554,47.554,0,0,0-4.934.588c-.47.235-.82.94-1.759,1.409s-1.645,1.528,1.176,1.056,6.458-1.409,8.572-1.877a26.848,26.848,0,0,1,3.643-.705c.469,0,2.465.471,1.995.587a4.014,4.014,0,0,0-1.643.586c-.707.471-2.469,1.409-1.88,1.88a2.816,2.816,0,0,0,1.528.823c.469,0-.472-.7.585-1.294s.589-1.056,2.35-2,1.175-.939,2.7-1.409,2,.115,2,.115S1958.012,8573.7,1955.425,8573.232Z" fill="#f9f9f9"/>
          <g id="Grupo_3306" data-name="Grupo 3306">
            <path id="Trazado_3982" data-name="Trazado 3982" d="M1964.914,8572.394s-.074-5.006.632-5.854,6.508-3.253,7.214-2.687,1.555,2.688,1.131,3.679-1.979,1.415-2.545,1.553-.709,3.114-.709,3.114S1965.412,8573.017,1964.914,8572.394Z" fill="#242829"/>
            <path id="Trazado_3983" data-name="Trazado 3983" d="M1972.082,8568.866c-1.4.134-3.007.3-3.007.3l-.3,3.277c1.03-.117,1.859-.247,1.859-.247s.144-2.972.709-3.114A6.793,6.793,0,0,0,1972.082,8568.866Z" fill="#121414"/>
            <path id="Trazado_3984" data-name="Trazado 3984" d="M1974.019,8578.683a2.22,2.22,0,0,0,.388-.893,2.863,2.863,0,0,0-.539-2.644,4.8,4.8,0,0,0-.917-.648s.487.163.432-.809a1.99,1.99,0,0,0-1.293-1.89,16.163,16.163,0,0,0-3.94-.052,18.9,18.9,0,0,1-3.2.607,5.949,5.949,0,0,1-.015-1.206,24.3,24.3,0,0,0-3.639,2.164c-.809.755-1.077,3.613-1.238,4.691a37.754,37.754,0,0,0,.7,6.476,7.792,7.792,0,0,0,2.806,2.642,43.765,43.765,0,0,0,7.23-.267c1.566-.272,2.59-1.028,2.806-1.782s-.324-1.241.055-1.673a3.623,3.623,0,0,0,.808-2.643C1974.413,8579.486,1974.316,8578.97,1974.019,8578.683Z" fill="#52bbe8"/>
            <path id="Trazado_3985" data-name="Trazado 3985" d="M1964.951,8572.355a5.949,5.949,0,0,1-.015-1.206s-.56.277-1.253.655a.157.157,0,0,1,.106.109c.1.406-1.725,1.674-.659,1.318.858-.284,2.14-.769,2.872-1A2.691,2.691,0,0,1,1964.951,8572.355Z" fill="#242829" opacity="0.28"/>
            <g id="Grupo_3305" data-name="Grupo 3305" opacity="0.49">
              <path id="Trazado_3986" data-name="Trazado 3986" d="M1973.6,8585.073c.216-.756-.324-1.241.055-1.673a3.623,3.623,0,0,0,.808-2.643c-.049-1.271-.146-1.788-.443-2.075a2.22,2.22,0,0,0,.388-.893,2.863,2.863,0,0,0-.539-2.644,4.8,4.8,0,0,0-.917-.648s.487.163.432-.809a1.99,1.99,0,0,0-1.293-1.89,3.272,3.272,0,0,0-.351-.067,2.133,2.133,0,0,1,.872,1.635c.157,1.709-.387.775.312,2.329s.483,2.888,0,3.111c-.5.215.311.776.311,1.709a3.806,3.806,0,0,1-.862,2.411c.337.839.225,2.094-1.655,2.446s-6.01-.041-7.42-.865-1.059-3.639-1.646-5.168a22.9,22.9,0,0,1-.7-5.166l.138-.594c-.646,1.012-.883,3.447-1.028,4.424a37.754,37.754,0,0,0,.7,6.476,7.792,7.792,0,0,0,2.806,2.642,43.765,43.765,0,0,0,7.23-.267C1972.359,8586.583,1973.383,8585.827,1973.6,8585.073Z" fill="#247a8e"/>
            </g>
            <path id="Trazado_3987" data-name="Trazado 3987" d="M1961.573,8584.326c-.153-.934-.7-3.5-1.009-6.143a11.657,11.657,0,0,0-.3-1.654c-.089.59-.153,1.127-.2,1.476a37.754,37.754,0,0,0,.7,6.476,5.037,5.037,0,0,0,1.176,1.438C1961.8,8585.4,1961.649,8584.78,1961.573,8584.326Z" fill="#242829" opacity="0.39"/>
            <path id="Trazado_3988" data-name="Trazado 3988" d="M1969.967,8571.888s1.712.077,2.023.7-.076,1.477-.389,1.477-.933.62-.7.62a2.479,2.479,0,0,1,1.321.547,2.688,2.688,0,0,1,.154,2.563,1.2,1.2,0,0,1-1.089.544,6.842,6.842,0,0,1,1.011.545,3.234,3.234,0,0,1,.235,2.253c-.311.778-1.943.855-1.555,1.011s.932.312.7,1.244-1.555.7-2.488.778-4.974,1.163-6.139-1.244-1.244-5.6-1.4-7.308,2.41-2.41,3.422-2.8S1968.96,8571.578,1969.967,8571.888Z" fill="#6bcff2"/>
            <path id="Trazado_3989" data-name="Trazado 3989" d="M1971.024,8572.077s-1.013-.381-1.061.845.279,1.375.957,1.189S1971.495,8572.859,1971.024,8572.077Z" fill="#f9f9f9" opacity="0.48"/>
            <path id="Trazado_3990" data-name="Trazado 3990" d="M1971.081,8582.569s-.705-.268-.737.584.193.955.665.827S1971.408,8583.111,1971.081,8582.569Z" fill="#f9f9f9" opacity="0.48"/>
            <path id="Trazado_3991" data-name="Trazado 3991" d="M1971.457,8575.2s-1.086-.55-1,.98.44,1.745,1.119,1.56S1972.058,8575.679,1971.457,8575.2Z" fill="#f9f9f9" opacity="0.48"/>
            <path id="Trazado_3992" data-name="Trazado 3992" d="M1971.651,8578.9s-1.087-.551-1,.98.439,1.742,1.119,1.559S1972.249,8579.38,1971.651,8578.9Z" fill="#f9f9f9" opacity="0.48"/>
          </g>
          <path id="Trazado_3993" data-name="Trazado 3993" d="M1986.806,8573.183a5.629,5.629,0,0,1-2.3,1.031,7.406,7.406,0,0,0-2.86,1.588,28.066,28.066,0,0,0,3.337-.951,4.117,4.117,0,0,0,1.747-1.033C1987.046,8573.5,1987.2,8572.944,1986.806,8573.183Z" fill="#3c4e56" opacity="0.5"/>
          <path id="Trazado_3994" data-name="Trazado 3994" d="M1988.078,8575.168c-.236,0-1.35.634-2.859,1.272a4.436,4.436,0,0,0-2.145,1.986,13.249,13.249,0,0,0,3.416-1.431A4.1,4.1,0,0,0,1988.078,8575.168Z" fill="#3c4e56" opacity="0.5"/>
          <path id="Trazado_3995" data-name="Trazado 3995" d="M1975.615,8537.556c.156-5.008-.352-13.4-3.349-16.453,0,0-2.71-2.2-9.07-1.384-3.827.49-5.646,1.349-6.9,2.722.347.726,1.509.868,2.613,1.207,1.4.432,2.155.754,1.939,2.48s1.079,2.8,2.7,4.418,2.8,5.825,5.713,6.793S1974.642,8537.235,1975.615,8537.556Z" fill="#97a9b3" opacity="0.6"/>
          <path id="Trazado_3996" data-name="Trazado 3996" d="M1953.094,8529.256c-.032-.06-.062-.112-.092-.168a25.135,25.135,0,0,0-.6,4.057c.746,1.02,5.707,7.269,10.357,8.938,7.7,2.764,6.118,1.383,6.118,1.383S1957.237,8537.15,1953.094,8529.256Z" fill="#97a9b3" opacity="0.43"/>
          <g id="Grupo_3307" data-name="Grupo 3307" opacity="0.55">
            <path id="Trazado_3997" data-name="Trazado 3997" d="M1975.54,8539.114c.314-4.6.062-14.61-3.274-18.012a6.8,6.8,0,0,0-2.043-.965s2.393,5.981,2.393,8.8a32.749,32.749,0,0,1-1.21,7.266c-.2.806-.606,7.667-2.018,8.473-.83.477,1.694,1.093,4.243.486A11.474,11.474,0,0,0,1975.54,8539.114Z" fill="#0d0d0d"/>
          </g>
          <path id="Trazado_3998" data-name="Trazado 3998" d="M1974,8534.213c-.668-4.006-1.594-10.013-3.779-14.075a16.175,16.175,0,0,0-6.7-.454,15.549,15.549,0,0,1,1.963,2.562c2.157,3.451,4.528,9.49,5.5,11.645a10.251,10.251,0,0,1,.75,3.862,18.023,18.023,0,0,0,2.643-.2A23.319,23.319,0,0,0,1974,8534.213Z" fill="#f9f9f9" opacity="0.59"/>
          <path id="Trazado_3999" data-name="Trazado 3999" d="M1974.36,8537.116c-.013-.265-.038-.558-.074-.9a2.334,2.334,0,0,0-.077-.254c-.519-1.385-3.325-10.991-5.469-16.184a14.406,14.406,0,0,0-1.475-.186c.814,2.041,4.49,11.395,5.364,15.778a9.029,9.029,0,0,0,.695,2.3c.351-.034.676-.077.97-.111A2.58,2.58,0,0,0,1974.36,8537.116Z" fill="#f9f9f9" opacity="0.59"/>
          <path id="Trazado_4000" data-name="Trazado 4000" d="M1955.546,8512.192s-2.857.693-2.857,1.31,1.854-.384,3.164.08.386.616,1.545,1.234-.077,1.08.926,1.7,2.776.771,2.7,1-1.7.85-.231.85,2.7-.232,4.63-.311,3.4.311,2.469-.152-2.7-1.237-2.7-1.237,2.933.31,1.852-.539a26.5,26.5,0,0,0-2.469-1.773,6.734,6.734,0,0,0-3.24-1.545A17.279,17.279,0,0,0,1955.546,8512.192Z" fill="#f9f9f9"/>
          <path id="Trazado_4001" data-name="Trazado 4001" d="M1959.1,8529.549s3.23-.2,4.641.809-1.413,2.621-3.63,2.621C1958.93,8532.979,1955.266,8531.566,1959.1,8529.549Z" fill="#0d0d0d" opacity="0.17"/>
          <path id="Trazado_4002" data-name="Trazado 4002" d="M1962.227,8530.684c-.655,0-2.962-.155-2.962-.155a1.7,1.7,0,0,0,.813.392c.526.1,1.179.288,1.179.288s-.026.314.106.393a.35.35,0,0,0,.225.03c-.056.247-.123.467-.123.467s.762-.26.813-.443.21-.787.21-.787l.445.053S1962.88,8530.684,1962.227,8530.684Z" fill="#0d0d0d" opacity="0.31"/>
          <path id="Trazado_4003" data-name="Trazado 4003" d="M1969.74,8546.238c.846-.337,1.043-1.8.935-3.061a12.722,12.722,0,0,0,2.846-3.316c1.259-.075,2.67-.481,2.873-1.366a1.3,1.3,0,0,0-.582-.884c-.433-.319-2.315-2.055-2.876-2.4-.943-.685-3.181.493-5.065,2.688-1.871,2.176-2.7,4.549-1.914,5.391.415.51,2.435,2.12,2.819,2.507A1.308,1.308,0,0,0,1969.74,8546.238Z" fill="#242829"/>
          <g id="Grupo_3310" data-name="Grupo 3310">
            <g id="Grupo_3309" data-name="Grupo 3309">
              <path id="Trazado_4004" data-name="Trazado 4004" d="M1973.629,8552.366c1.646-.312.936-3.089-.308-5.607a10.559,10.559,0,0,0,3.788-5.318c2.78.371,5.637.158,5.4-1.492a5.627,5.627,0,0,0-2.007-1.972c-1.231-.8-1.513-.989-3.056-1.895-2.661-1.734-6.779-.348-9.293,3.17-2.492,3.49-2.49,7.793-.048,9.771,1.339,1.169,1.839,1.169,3.015,2.089A5.579,5.579,0,0,0,1973.629,8552.366Z" fill="#33591b"/>
              <path id="Trazado_4005" data-name="Trazado 4005" d="M1970.816,8548.985a.688.688,0,0,1-1.123.331c-.593-.461-1.055-2.507-1.055-1.716s-.595,1.056-.988.066,0-1.91-.462-.857c-.125.284-.279.389-.436.393a4.64,4.64,0,0,0,1.348,1.82c1.339,1.169,1.839,1.169,3.015,2.089a5.579,5.579,0,0,0,2.514,1.255,1.151,1.151,0,0,0,.387-.152A12.825,12.825,0,0,0,1970.816,8548.985Z" fill="#e8c19a" opacity="0.75"/>
              <g id="Grupo_3308" data-name="Grupo 3308" opacity="0.54">
                <path id="Trazado_4006" data-name="Trazado 4006" d="M1979.116,8537.087c-.236-.148-.488-.3-.8-.487a9.3,9.3,0,0,0-6.813,3.141,10.859,10.859,0,0,0-2.905,8.692,6.037,6.037,0,0,0,.351,1.264c.278.2.522.347.761.488a5.241,5.241,0,0,1-.652-1.829,10.383,10.383,0,0,1,2.788-8.3A8.829,8.829,0,0,1,1979.116,8537.087Z" fill="#274415"/>
                <path id="Trazado_4007" data-name="Trazado 4007" d="M1967.631,8547.112a10.38,10.38,0,0,1,3.177-8.163c2.566-2.549,5.932-3.157,6.983-2.662-.11-.063-.223-.132-.35-.205a4.073,4.073,0,0,0-.5-.278,9.3,9.3,0,0,0-6.463,2.815,10.854,10.854,0,0,0-3.311,8.547,6.112,6.112,0,0,0,.246,1.151,4.436,4.436,0,0,0,.685.705c.087.077.173.149.254.216A5.025,5.025,0,0,1,1967.631,8547.112Z" fill="#274415"/>
              </g>
              <path id="Trazado_4008" data-name="Trazado 4008" d="M1972.147,8551.747c-2.657-1.9-2.731-6.346-.165-9.936s6.795-4.963,9.452-3.063,2.731,6.346.167,9.936S1974.8,8553.646,1972.147,8551.747Z" fill="#274415"/>
              <path id="Trazado_4009" data-name="Trazado 4009" d="M1972.686,8551.239c-2.28-1.627-2.236-5.592.095-8.855s6.07-4.587,8.346-2.96,2.235,5.59-.1,8.854S1974.964,8552.867,1972.686,8551.239Z" fill="#1d330f"/>
              <path id="Trazado_4010" data-name="Trazado 4010" d="M1973.279,8550.406c-1.958-1.4-1.92-4.8.083-7.607s5.215-3.943,7.173-2.546,1.916,4.807-.084,7.609S1975.237,8551.8,1973.279,8550.406Z" fill="#274415"/>
              <path id="Trazado_4011" data-name="Trazado 4011" d="M1974.012,8549.383c-1.562-1.116-1.532-3.835.066-6.073s4.16-3.146,5.722-2.028,1.532,3.834-.066,6.07S1975.574,8550.5,1974.012,8549.383Z" fill="#1d330f"/>
              <path id="Trazado_4012" data-name="Trazado 4012" d="M1974.561,8548.615c-1.267-.905-1.24-3.108.053-4.921s3.372-2.552,4.637-1.646,1.242,3.107-.053,4.92S1975.828,8549.518,1974.561,8548.615Z" fill="#274415"/>
              <path id="Trazado_4013" data-name="Trazado 4013" d="M1978.965,8537.212a5.891,5.891,0,0,0-3.512.459c-1.833.8-2.509,1.571-2.663,2.2s.676-.284,1.964-1.047a8.527,8.527,0,0,1,3.469-1.157,15.274,15.274,0,0,1,1.594.086C1979.859,8537.671,1979.467,8537.43,1978.965,8537.212Z" fill="#e8c19a" opacity="0.49"/>
              <path id="Trazado_4014" data-name="Trazado 4014" d="M1977.765,8536.513a7.713,7.713,0,0,0-3.011.679,11.539,11.539,0,0,0-2.882,1.9c-.415.371-.827-.154-.108-.85a8.94,8.94,0,0,1,3.469-1.813A3.75,3.75,0,0,1,1977.765,8536.513Z" fill="#e8c19a" opacity="0.49"/>
              <path id="Trazado_4015" data-name="Trazado 4015" d="M1976.216,8535.685a7.732,7.732,0,0,0-3.011.677,11.558,11.558,0,0,0-2.88,1.9c-.414.372-.829-.152-.11-.851a8.952,8.952,0,0,1,3.469-1.812A3.732,3.732,0,0,1,1976.216,8535.685Z" fill="#e8c19a" opacity="0.49"/>
            </g>
            <path id="Trazado_4016" data-name="Trazado 4016" d="M1981.485,8538.679c-2.685-1.919-6.964-.531-9.558,3.1s-2.516,8.128.169,10.047a4.537,4.537,0,0,0,.526.324c-2.5-1.915-2.723-5.942-1.146-8.991,1.879-3.621,3.939-4.337,5.633-4.892a4.7,4.7,0,0,1,5.976,3.28c.6,2.454-.534,5.318-1.221,6.731C1984.18,8544.722,1984.074,8540.528,1981.485,8538.679Z" fill="#589332"/>
            <path id="Trazado_4017" data-name="Trazado 4017" d="M1980.535,8540.253c-1.958-1.4-5.168-.256-7.173,2.546a8.623,8.623,0,0,0-1.151,2.235c.415-.79,2.189-3.928,4.773-4.879,2.968-1.089,4.954.923,4.925,3.33a8.919,8.919,0,0,1-.369,2.312C1982.356,8543.554,1982.025,8541.321,1980.535,8540.253Z" fill="#e8c19a" opacity="0.49"/>
            <path id="Trazado_4018" data-name="Trazado 4018" d="M1979.251,8542.048c-1.265-.905-3.342-.168-4.637,1.646a5.052,5.052,0,0,0-.983,2.742,7.18,7.18,0,0,1,3.018-4.3c2.464-1.369,4.308,1.624,2.937,4.058-.25.446-.5.844-.723,1.19.115-.134.229-.273.335-.421C1980.493,8545.155,1980.516,8542.952,1979.251,8542.048Z" fill="#e8c19a" opacity="0.49"/>
            <path id="Trazado_4019" data-name="Trazado 4019" d="M1974.8,8535.394a8.273,8.273,0,0,0-1.9.428c-.655.295-.558.673,0,.509a14.354,14.354,0,0,1,2.526-.672C1976.043,8535.642,1975.831,8535.379,1974.8,8535.394Z" fill="#e8c19a" opacity="0.85"/>
            <path id="Trazado_4020" data-name="Trazado 4020" d="M1976.422,8536.215a8.123,8.123,0,0,0-1.9.425c-.657.3-.559.674,0,.511a14.129,14.129,0,0,1,2.528-.672C1977.668,8536.46,1977.454,8536.2,1976.422,8536.215Z" fill="#e8c19a" opacity="0.85"/>
            <path id="Trazado_4021" data-name="Trazado 4021" d="M1977.831,8537.166a8.168,8.168,0,0,0-1.9.425c-.657.3-.559.673,0,.509a14.221,14.221,0,0,1,2.528-.67C1979.079,8537.411,1978.865,8537.15,1977.831,8537.166Z" fill="#e8c19a" opacity="0.85"/>
          </g>
          <path id="Trazado_4022" data-name="Trazado 4022" d="M1923.21,8525.458s-.72,1.323,3.067,2.286,7.7,1.744,6.614,1.925-5.834-.241-7.034,1.081-.784,3.669-1.926,3.549-4.991-1.022-6.014-2.586S1919.841,8526.18,1923.21,8525.458Z" fill="#f9f9f9"/>
          <path id="Trazado_4023" data-name="Trazado 4023" d="M1912.373,8578.358a2.829,2.829,0,0,0-2.268,1c-.735,1.067.6.6,2.8,1.467s2.6,1.936,3.535,2a1.183,1.183,0,0,0,1.2-1.535C1917.378,8580.693,1916.109,8578.824,1912.373,8578.358Z" fill="#f9f9f9" opacity="0.25"/>
          <path id="Trazado_4024" data-name="Trazado 4024" d="M1913.873,8576.584s-1.043.616-.381.664a12.531,12.531,0,0,1,3.41,1.232c1.229.612,1.845,2.412,2.555,2.033a1.274,1.274,0,0,0,.428-2.082A9.591,9.591,0,0,0,1913.873,8576.584Z" fill="#f9f9f9" opacity="0.25"/>
          <path id="Trazado_4025" data-name="Trazado 4025" d="M1908.24,8582.408s-1.044.8-1.138,1.418,1.325-.283,3.929.521,3.363,1.372,3.834,1.23.049-1.468-1.657-2.272S1909.9,8581.934,1908.24,8582.408Z" fill="#f9f9f9" opacity="0.25"/>
          <path id="Trazado_4026" data-name="Trazado 4026" d="M1906.062,8585.72s-1.42,1.467-.473,1.8,2.27-.144,5.207.332,2.7-.145,2.272-.853S1909.378,8585.01,1906.062,8585.72Z" fill="#f9f9f9" opacity="0.25"/>
          <path id="Trazado_4027" data-name="Trazado 4027" d="M1952.966,8623.684s-2.322,5.326-3,7.1-1.227,5.465-2.049,8.061-.82,4.506.136,3.821,2.733-1.363,1.913-.543-5.736,4.78-6.008,6.964-2.46,9.287-3.007,12.156,1.64,2.323,3.141.82,3.743-2.271,4.6-5.3a108.862,108.862,0,0,1,4.685-11.907c1.23-2.6,1.23-4.372,2.05-6.56s3.551-8.466,4.643-13.794S1963.482,8604.836,1952.966,8623.684Z" fill="#f9f9f9" opacity="0.46"/>
          <path id="Trazado_4028" data-name="Trazado 4028" d="M1947.567,8654.124s-3.459,1.425-4.273,2.643-2.645,5.292-1.017,5.089,3.662-2.647,4.474-3.461S1950.008,8653.105,1947.567,8654.124Z" fill="#f9f9f9"/>
          <path id="Trazado_4029" data-name="Trazado 4029" d="M1970.312,8621.773s-4.918,11.748-3.141,11.063-1.775,4.644-.82,12.021,2.461,12.474,2.87,14.8,2.183,2.595,4.916-1.777-.137-11.518.547-20.262.82-16.251.82-19.529S1973.18,8613.851,1970.312,8621.773Z" fill="#f9f9f9" opacity="0.46"/>
          <path id="Trazado_4030" data-name="Trazado 4030" d="M1973.589,8640.485a24.876,24.876,0,0,0-.547,5.054,30.452,30.452,0,0,1-.271,6.282c-.272,1.23-1.5,6.421-.272,6.146s2.183-1.775,2.457-3.686,0-3.416-.408-6.557S1974.409,8638.847,1973.589,8640.485Z" fill="#f9f9f9"/>
          <path id="Trazado_4031" data-name="Trazado 4031" d="M1939.772,8554.6c-.983.981-1.227,1.6-2.333,1.842a1.684,1.684,0,0,1-1.719-.86s-.491.248-.614,1.352a23.808,23.808,0,0,1-.982,4.79c-.493,1.229-3.318,6.633-3.808,8.966a4.831,4.831,0,0,0,.49,3.687s2.091-.86,4.3-1.966a8.152,8.152,0,0,0,3.683-3.192,70.927,70.927,0,0,0,4.054-6.389c1.844-3.316,2.335-4.3,2.456-5.28s-.246,3.438.248,2.456a12.744,12.744,0,0,0,.492-5.771c-.371-1.354-1.352-3.809-1.721-2.948S1940.754,8553.62,1939.772,8554.6Z" fill="#f9f9f9"/>
          <path id="Trazado_4032" data-name="Trazado 4032" d="M1983.375,8565.534s-.737-2.579-.86-.736a17.186,17.186,0,0,0,.614,4.912c.246.984-1.6,3.193-.244,3.563s1.473-.86,2.455-1.105,1.473-.984.614-1.6S1984.481,8566.763,1983.375,8565.534Z" fill="#f9f9f9" opacity="0.46"/>
          <path id="Trazado_4033" data-name="Trazado 4033" d="M2018.122,8598.082a3.35,3.35,0,0,1,2.077-.144,8.988,8.988,0,0,0-.284-2.827,3.211,3.211,0,0,0-1.88,0,10.852,10.852,0,0,1,.118,2.294C2018.147,8597.632,2018.136,8597.859,2018.122,8598.082Z" fill="#f9f9f9" opacity="0.17"/>
          <path id="Trazado_4034" data-name="Trazado 4034" d="M1905.081,8589.6s-.674.3-.749,1.5,2.77-.823,5.315-.823,2.919-.448,1.571-.9A10.279,10.279,0,0,0,1905.081,8589.6Z" fill="#f9f9f9" opacity="0.25"/>
          <path id="Trazado_4035" data-name="Trazado 4035" d="M1904.782,8593.417s-1.049,1.272-.225,2.094.982-1.083,4.342-1.946c2.917-.748,4.64-1.571,3.219-1.722A10.1,10.1,0,0,0,1904.782,8593.417Z" fill="#f9f9f9" opacity="0.25"/>
          <path id="Trazado_4036" data-name="Trazado 4036" d="M1911.968,8594.238s1.045.3-.451,1.049a16.37,16.37,0,0,0-4.491,3.142c-1.271,1.349-1.8.149-1.646-.673S1909.122,8594.537,1911.968,8594.238Z" fill="#f9f9f9" opacity="0.25"/>
          <path id="Trazado_4037" data-name="Trazado 4037" d="M1911.968,8596.334s-3.069,1.2-4.192,3.443,1.123,2.021,1.5,1.047a14.341,14.341,0,0,1,2.4-3.367C1912.267,8596.859,1913.388,8595.66,1911.968,8596.334Z" fill="#f9f9f9" opacity="0.25"/>
          <path id="Trazado_4038" data-name="Trazado 4038" d="M1912.491,8597.906s-1.8,1.646-1.8,3.295,1.5,1.42,1.647.223a19.4,19.4,0,0,1,.9-3.741C1913.464,8597.232,1913.613,8596.708,1912.491,8597.906Z" fill="#f9f9f9" opacity="0.25"/>
          <path id="Trazado_4039" data-name="Trazado 4039" d="M1918.646,8586.861s-1.412,3.324-1,4.648,1,1.96,2.6,1.594.32.774-1,.639a2.255,2.255,0,0,1-2.278-2.094C1916.825,8590.37,1917.825,8587.317,1918.646,8586.861Z" fill="#632e2e"/>
          <g id="Grupo_3311" data-name="Grupo 3311" opacity="0.33">
            <path id="Trazado_4040" data-name="Trazado 4040" d="M1966.531,8567.711c.727.364,5.273-1.364,5.727-1.453a1.58,1.58,0,0,0,.5-2.406c-.706-.565-6.506,1.839-7.214,2.688A2.163,2.163,0,0,0,1966.531,8567.711Z" fill="#b6c5cc"/>
          </g>
          <path id="Trazado_4041" data-name="Trazado 4041" d="M1972.207,8671.254s-2.066,2.7-2.066,3.5v5.72c0,3.974-.8,6.357-.318,8.264s-.159,3.02.635,2.7.954-1.11,1.906-2.541a7.917,7.917,0,0,0,1.432-5.562c-.318-2.226-.475-4.767-.637-7.151S1973.159,8669.188,1972.207,8671.254Z" fill="#f9f9f9" opacity="0.46"/>
          <path id="Trazado_4042" data-name="Trazado 4042" d="M1938.355,8670.619s-1.111,3.5-1.745,6.673a62.257,62.257,0,0,1-1.591,6.359c-.793,2.859-2.068,5.243-.954,4.767s1.59-.793,3.179-3.656,1.43-4.925,1.589-8.1S1938.833,8668.87,1938.355,8670.619Z" fill="#f9f9f9" opacity="0.46"/>
          <path id="Trazado_4043" data-name="Trazado 4043" d="M1940.582,8672.21a76.118,76.118,0,0,1-.636,8.739c-.477,2.066-1.113,6.674-.159,6.2s1.43-2.861,1.748-7.786a46.886,46.886,0,0,1,1.27-8.424S1940.582,8671.256,1940.582,8672.21Z" fill="#f9f9f9" opacity="0.46"/>
          <g id="Grupo_3312" data-name="Grupo 3312" opacity="0.5">
            <path id="Trazado_4044" data-name="Trazado 4044" d="M1934.949,8691.637c-.511-.188-1.043-.375-1.52-.517-1.587-.478-2.223-1.431-2.861-.795s-2.382-.478-2.382-.478-1.907-.635-2.066-1.75,0-3.175-.159-3.812,0,3.181-1.271,2.226c-.818-.612-1.5-2.735-1.891-4.173-.08,1-.129,1.792-.129,2.259a3.914,3.914,0,0,0,1.748,3.5c.352.235.7,2.1,2.45,3.151s4.431.232,5.247.7C1932.743,8692.3,1934.133,8691.971,1934.949,8691.637Z" fill="#b6c5cc"/>
          </g>
          <path id="Trazado_4045" data-name="Trazado 4045" d="M1984.443,8703.515c-4.134-.156-10.172-.951-11.442-.795s-7.47,1.113-11.125.795a14.272,14.272,0,0,1-4.139-1.013,4.359,4.359,0,0,0,2.147,1.982,73.465,73.465,0,0,0,9.443.452c2.092-.122,8.7.165,10.672.246a11.754,11.754,0,0,0,5.317-1.5A3.025,3.025,0,0,0,1984.443,8703.515Z" fill="#3c4e56" opacity="0.5"/>
          <path id="Trazado_4046" data-name="Trazado 4046" d="M1978.564,8694.777s-2.7,1.11-3.019,2.222-2.224,1.591-2.224,1.591a25.341,25.341,0,0,0,2.7.316c.793,0,3.974-.316,5.563-.316s1.587.478,2.7.954,1.958-1.854,1.217-2.12S1981.266,8694.3,1978.564,8694.777Z" fill="#f9f9f9" opacity="0.46"/>
          <path id="Trazado_4047" data-name="Trazado 4047" d="M1978.675,8694.309s-.74,0-1.331,1.035-2.813,2.223-.591,2.072,5.179-.74,6.512-.295,2.7.9,2.236.3S1980.9,8695.049,1978.675,8694.309Z" fill="#f9f9f9"/>
          <path id="Trazado_4048" data-name="Trazado 4048" d="M1940.1,8696.841s-3.815,0-5.4.795-3.495,1.432-2.7,1.747,3.495.953,4.609,1.273,4.289,1.11,5.084.317,2.066-1.749,1.748-2.225A4.975,4.975,0,0,0,1940.1,8696.841Z" fill="#f9f9f9" opacity="0.46"/>
          <path id="Trazado_4049" data-name="Trazado 4049" d="M1940.035,8697.416a2.367,2.367,0,0,0-2.219-.146c-1.036.592-1.778,1.927-.888,1.927a12.452,12.452,0,0,1,4,.146C1942.258,8699.787,1943.737,8698.306,1940.035,8697.416Z" fill="#f9f9f9"/>
          <path id="Trazado_4050" data-name="Trazado 4050" d="M2024.545,8592.947a3.383,3.383,0,0,0-1.735.107,2.687,2.687,0,0,1,.964,1.108c1.191,2.185,1.191,5.358,1.093,7.642-.08,1.787,1.41.865,1.7-1.43.027-.212.055-.418.08-.64C2027.027,8596.213,2026.264,8593.519,2024.545,8592.947Z" fill="#f9f9f9" opacity="0.22"/>
          <path id="Trazado_4051" data-name="Trazado 4051" d="M2024.937,8593.725s-.362-.094,0,.536a9.077,9.077,0,0,1,.9,3.026c.1,1.017.6,1.13.691.48S2026.162,8593.744,2024.937,8593.725Z" fill="#f9f9f9" opacity="0.55"/>
          <path id="Trazado_4052" data-name="Trazado 4052" d="M2016.428,8591.872a1.342,1.342,0,0,0,.227,1.054c.371.526,1.249.388,2.028.441s1.34.158,1.71-.353a.951.951,0,0,0-.451-1.59C2019.025,8591.05,2016.587,8591.01,2016.428,8591.872Z" fill="#242829"/>
          <path id="Trazado_4053" data-name="Trazado 4053" d="M2017.683,8592.784a1.719,1.719,0,0,1,1.509.036,3.09,3.09,0,0,1,0,1.327h-1.1l-.509,0Z" fill="#121414"/>
          <path id="Trazado_4054" data-name="Trazado 4054" d="M2019.41,8591.722a3.4,3.4,0,0,1,1.24.6c.009-.342-.174-.675-.708-.894a4.823,4.823,0,0,0-3.158.028.425.425,0,0,0-.1.364A3.946,3.946,0,0,1,2019.41,8591.722Z" fill="#f9f9f9" opacity="0.17"/>
        </g>
      </g>
    </g>
  </g>
</svg>
