<svg xmlns="http://www.w3.org/2000/svg" width="161.222" height="132.801" viewBox="0 0 161.222 132.801">
  <g id="Grupo_3265" data-name="Grupo 3265" transform="translate(-1900.034 -8129.511)">
    <g id="Grupo_3241" data-name="Grupo 3241">
      <path id="Trazado_3636" data-name="Trazado 3636" d="M2010.04,8154.92a9.359,9.359,0,0,1,4.238.545c2.14.839,4.217,1.826,4.217,1.826l-5.685-5.141-3.986-.335Z" fill="#e0af24"/>
      <path id="Trazado_3637" data-name="Trazado 3637" d="M1976.239,8150.62s2.5,2.076,3.048,3.418,1.534,3.855,1.534,3.855l1.739-4.19-3.9-3.273-2.419.19Z" fill="#e0af24"/>
      <path id="Trazado_3638" data-name="Trazado 3638" d="M1994.509,8165.247s-.284-3.531,1.121-5.5a34.884,34.884,0,0,1,3.418-3.943l-3.985-.881-1.93,5.163,1.376,5.164Z" fill="#e0af24"/>
      <path id="Trazado_3639" data-name="Trazado 3639" d="M1984.741,8163.158s.168.435,2.728,0a10.88,10.88,0,0,0,4.027-1.442l-.947-2.979-6.059,1.469.251,2.952Z" fill="#e0af24"/>
      <path id="Trazado_3640" data-name="Trazado 3640" d="M1994.643,8166.863s-1.95.391-4.33-1.789c-.513-.47-.476-1.311-.665-1.99a2.131,2.131,0,0,0-1.2-1.586c-1.434-.432-2.562,1.951-4.022,1.632a2.2,2.2,0,0,1-1.008-.644,9.655,9.655,0,0,1-2.707-5.137,13.275,13.275,0,0,0-.721-3.391c-.709-1.484-2.225-2.294-3.548-3.2s-2.649-2.253-2.56-3.912c.448.658,1.342.6,2.1.42a7.678,7.678,0,0,0,3.711-2.135c2.071-2.065,2.759-2.9,5.531-3.611,3.679-.943,7.721-.576,11.055-2.464a40.007,40.007,0,0,0,4.547-3.571,17.675,17.675,0,0,1,11.057-3.736c1,1,2.39,1.44,3.484,2.32a8.1,8.1,0,0,1,2.624,4.931,26.178,26.178,0,0,1,.155,5.764,4.656,4.656,0,0,0,.078,1.381,5.535,5.535,0,0,0,.781,1.5,13.113,13.113,0,0,1,1.082,11.437,17.044,17.044,0,0,0-9.427-6.11,24.859,24.859,0,0,0-10.64.121c-2.819.511-4.013,3.3-5.141,5.827C1994,8160.87,1994.643,8166.863,1994.643,8166.863Z" fill="#f7d926"/>
      <path id="Trazado_3641" data-name="Trazado 3641" d="M2005.984,8170.057a1.826,1.826,0,0,0,.221.628,1.57,1.57,0,0,0,.449.349,7.309,7.309,0,0,0,1.127.589,6.887,6.887,0,0,0,3.545.121,9.173,9.173,0,0,0,4.273-1.625.7.7,0,0,0,.223-.255.653.653,0,0,0,0-.379c-.8-3.806-1.623-7.678-3.617-11.065a4.132,4.132,0,0,0-.757-1,3.376,3.376,0,0,0-2.086-.765,4.885,4.885,0,0,0-3.534,1.29c-1.283,1.218-3.9,3.152-2.866,4.457C2004.107,8163.848,2005.27,8167.658,2005.984,8170.057Z" fill="#f9c9a1"/>
      <path id="Trazado_3642" data-name="Trazado 3642" d="M1991.065,8142.221c1.805,3.009,4.033,5.819,5.169,9.138a18.175,18.175,0,0,0,.849,2.334,3.4,3.4,0,0,0,1.721,1.715,1.323,1.323,0,0,0,1.062.009,1.208,1.208,0,0,0,.583-1.042,3.221,3.221,0,0,0-.263-1.216,34.8,34.8,0,0,0-6.437-10.358,6.751,6.751,0,0,0-1.915-1.739C1990.837,8140.555,1990.579,8141.411,1991.065,8142.221Z" fill="#e0af24"/>
      <path id="Trazado_3643" data-name="Trazado 3643" d="M1994.048,8140.923a2.829,2.829,0,0,0,.547,1.394l2.106,3.405a6.182,6.182,0,0,0,2.843,2.883,5.546,5.546,0,0,0,2.085.2q.975-.042,1.946-.15a4.012,4.012,0,0,0,2.743-1.107,2.9,2.9,0,0,0,.279-2.88,8.549,8.549,0,0,0-1.747-2.465l-2.618-2.893c-.256-.283-.586-.592-.96-.517a2.561,2.561,0,0,0-.628.357,1.581,1.581,0,0,1-1.376-.077,12.483,12.483,0,0,0-1.28-.63.762.762,0,0,0-.434-.039,1.417,1.417,0,0,0-.492.374C1996.261,8139.48,1994.031,8139.52,1994.048,8140.923Z" fill="#e0af24"/>
      <path id="Trazado_3644" data-name="Trazado 3644" d="M1997.529,8149.228a3.372,3.372,0,0,0-.174,2.153,12.815,12.815,0,0,0,1.37,3.369,34.086,34.086,0,0,0,4.554,7.09,6.207,6.207,0,0,0,4.383,2.441,5.778,5.778,0,0,0,1.51-.239,4.5,4.5,0,0,0,1.787-.85,4.056,4.056,0,0,0,1.166-2.379c.638-3.326-.246-6.736-1.366-9.952-.582-1.671-1.389-3.49-3.123-4.217a7.353,7.353,0,0,0-4.728.166C2001.337,8147.244,1998.3,8147.668,1997.529,8149.228Z" fill="#f9c9a1"/>
      <g id="Grupo_3238" data-name="Grupo 3238">
        <path id="Trazado_3645" data-name="Trazado 3645" d="M2000.28,8149.116a25.475,25.475,0,0,1-2.6-3.378c-1.649-2.058-3.472-3.968-5.291-5.875-.432-.453-.97-.945-1.589-.85a.6.6,0,0,0-.457.293.785.785,0,0,0,.037.6,11.25,11.25,0,0,0,1.626,2.688q1.134,1.556,2.167,3.185a33.144,33.144,0,0,1,3.138,5.649c.231.6.343,1.059.947,1.389.668.366,1.948.545,2.489-.149a1.312,1.312,0,0,0,.21-.844A10.808,10.808,0,0,0,2000.28,8149.116Z" fill="#f9c9a1"/>
        <path id="Trazado_3646" data-name="Trazado 3646" d="M2000.243,8148.982c.012.045.025.09.037.134.074.066.149.13.226.19C2000.417,8149.2,2000.33,8149.091,2000.243,8148.982Z" fill="#f9c9a1"/>
      </g>
      <path id="Trazado_3647" data-name="Trazado 3647" d="M1997.866,8140.293q-1.632-1.7-3.317-3.351a2.08,2.08,0,0,0-1.127-.7.662.662,0,0,0-.613.216.807.807,0,0,0-.112.536,5.178,5.178,0,0,0,1.37,2.684,68.981,68.981,0,0,1,4.239,6.072,13.438,13.438,0,0,1,1.615,2.968c.023.073.046.145.071.217.094.1.189.2.285.305a2.546,2.546,0,0,0,2.2.454,1.335,1.335,0,0,0,.748-.465,1.726,1.726,0,0,0-.045-1.62A23.849,23.849,0,0,0,1997.866,8140.293Z" fill="#f9c9a1"/>
      <path id="Trazado_3648" data-name="Trazado 3648" d="M1997.046,8137.629a2.892,2.892,0,0,0,.85,1.293,19.082,19.082,0,0,1,4.345,6.079,11.348,11.348,0,0,0,.955,2.272,2.23,2.23,0,0,0,2.054,1.117,1,1,0,0,0,.321-.1,1.327,1.327,0,0,0,.48-1.388,7.644,7.644,0,0,0-1.18-2.912,25.833,25.833,0,0,0-5.6-6.5C1998.683,8137,1996.64,8135.759,1997.046,8137.629Z" fill="#f9c9a1"/>
      <path id="Trazado_3649" data-name="Trazado 3649" d="M2001.618,8139.071a28.78,28.78,0,0,1,4.215,6.609c.516,1.123,1.048,2.376,2.16,2.914a1.028,1.028,0,0,0,.927.062.859.859,0,0,0,.384-.789,2.428,2.428,0,0,0-.262-.879,22.819,22.819,0,0,0-6.575-8.713C2001.491,8137.514,2000.756,8138.058,2001.618,8139.071Z" fill="#f9c9a1"/>
      <path id="Trazado_3650" data-name="Trazado 3650" d="M1997.314,8156.946a2.6,2.6,0,0,0-.485-1.051,4.7,4.7,0,0,0-4.791-1.772l-1.189-.474a1.521,1.521,0,0,0-.029,1.455c.316.453.947.509,1.486.626a4.49,4.49,0,0,1,3.25,2.935c.048.148.119.327.275.348a.381.381,0,0,0,.128-.013A1.859,1.859,0,0,0,1997.314,8156.946Z" fill="#e0af24"/>
      <path id="Trazado_3651" data-name="Trazado 3651" d="M2001.37,8161.886a17.85,17.85,0,0,1-5.212-4.08c-1.316-1.392-2.659-2.939-4.511-3.429-.437-.115-.981-.248-1.083-.688-.111-.476.408-.851.872-1,1.9-.624,3.968-.01,5.826.726,2.932,1.16,5.856,2.729,7.647,5.324.712,1.033,1.134,2.647-.156,3.467C2003.842,8162.783,2002.235,8162.292,2001.37,8161.886Z" fill="#f9c9a1"/>
      <g id="Grupo_3239" data-name="Grupo 3239">
        <path id="Trazado_3652" data-name="Trazado 3652" d="M1983.008,8161.795a9.529,9.529,0,0,1,.251-3.543,18.775,18.775,0,0,1,4.956-8.954c.216-.218.458-.49.388-.789-.053-.223-4.743,2.008-6.134,3.634a7.6,7.6,0,0,0-1.606,2.5,6.648,6.648,0,0,0-.258,1.445c.061.448.113.9.194,1.342a9.706,9.706,0,0,0,2.264,4.672C1983.042,8162,1983.023,8161.9,1983.008,8161.795Z" fill="#f4cc22"/>
        <path id="Trazado_3653" data-name="Trazado 3653" d="M1992.663,8157.89a.482.482,0,0,0-.375.123,16.615,16.615,0,0,0-1.625,1.8c-.655.64-1.566,1.051-2.175,1.7a2.3,2.3,0,0,1,1.043,1.524c.189.678.152,1.519.665,1.989.114.1.227.2.339.3,0-.085.006-.17.01-.255a12.129,12.129,0,0,1,2.123-6.3,1.133,1.133,0,0,0,.229-.465A.366.366,0,0,0,1992.663,8157.89Z" fill="#f4cc22"/>
      </g>
      <g id="Grupo_3240" data-name="Grupo 3240">
        <path id="Trazado_3654" data-name="Trazado 3654" d="M2018.217,8146.326a4.657,4.657,0,0,1-.078-1.381l.008-.185a1.376,1.376,0,0,1-.541.142,51.905,51.905,0,0,0-7.384,1.408c1.527.014,3.058-.1,4.581.021a9.439,9.439,0,0,1,3.394.844,4.739,4.739,0,0,1,.663.431A4.576,4.576,0,0,1,2018.217,8146.326Z" fill="#f4cc22"/>
        <path id="Trazado_3655" data-name="Trazado 3655" d="M2017.309,8143.327a1.76,1.76,0,0,1,.88.421c.02-.547.034-1.1.031-1.642l-.092.019-4.087.834A17.443,17.443,0,0,1,2017.309,8143.327Z" fill="#f4cc22"/>
      </g>
      <path id="Trazado_3656" data-name="Trazado 3656" d="M1990.58,8139.433a.554.554,0,0,0,.17.3,3.493,3.493,0,0,0,1.088.925c.076.034.178.058.234,0a.177.177,0,0,0,.034-.115.984.984,0,0,0-.112-.4,2.249,2.249,0,0,0-.446-.73C1991.381,8139.25,1990.533,8138.927,1990.58,8139.433Z" fill="#f7e2c6"/>
      <path id="Trazado_3657" data-name="Trazado 3657" d="M1992.992,8136.707a.726.726,0,0,0,.273.34,7.567,7.567,0,0,0,1.087.795.257.257,0,0,0,.169.048.219.219,0,0,0,.148-.2.906.906,0,0,0-.209-.623,1.867,1.867,0,0,0-.536-.52C1993.714,8136.417,1992.839,8136.155,1992.992,8136.707Z" fill="#f7e2c6"/>
      <path id="Trazado_3658" data-name="Trazado 3658" d="M1997.264,8137.018a.539.539,0,0,0,.207.293,5.248,5.248,0,0,0,.975.675.67.67,0,0,0,.363.108.221.221,0,0,0,.081-.021.21.21,0,0,0,.091-.1.453.453,0,0,0-.028-.429,1.194,1.194,0,0,0-.307-.324,2.525,2.525,0,0,0-.53-.348C1997.938,8136.8,1997.19,8136.59,1997.264,8137.018Z" fill="#f7e2c6"/>
      <path id="Trazado_3659" data-name="Trazado 3659" d="M2001.455,8138.128c-.048.132.062.266.168.359a3.892,3.892,0,0,0,.833.553c.1.048.236.086.307,0a.232.232,0,0,0-.019-.255,1.789,1.789,0,0,0-.333-.383,2.009,2.009,0,0,0-.348-.287C2001.92,8138.028,2001.543,8137.889,2001.455,8138.128Z" fill="#f7e2c6"/>
      <path id="Trazado_3660" data-name="Trazado 3660" d="M1990.743,8153.558a.431.431,0,0,0,.184.321,1.129,1.129,0,0,0,.344.162,6.7,6.7,0,0,0,.88.234.737.737,0,0,0,.306.014.277.277,0,0,0,.218-.194.364.364,0,0,0-.122-.3C1992.317,8153.533,1990.722,8152.8,1990.743,8153.558Z" fill="#f7e2c6"/>
    </g>
    <g id="Grupo_3242" data-name="Grupo 3242">
      <path id="Trazado_3661" data-name="Trazado 3661" d="M1980.949,8199.989l-.122,1.249a17.607,17.607,0,0,0,4.023,4.807c3.477,3,10.633,6.383,10.633,6.383a74.477,74.477,0,0,1,4.57-7.322,22.93,22.93,0,0,1,4.4-4.4l-.968-.969-22.538.248Z" fill="#87635c"/>
      <path id="Trazado_3662" data-name="Trazado 3662" d="M1995.587,8211.084s3.675-6.494,5.4-8.143a18.144,18.144,0,0,1,4.272-3.1l2.644-4.469-12.4,6.174-1.554,7.683,1.644,1.858Z" fill="#f4cc22"/>
      <path id="Trazado_3663" data-name="Trazado 3663" d="M1981.956,8193.318l-1.007,6.671s.465,2.116,4.68,5.354a55.634,55.634,0,0,0,9.958,5.741s-.234.395-.006-1.931a7.277,7.277,0,0,1,.937-3.312l-14.562-12.522Z" fill="#f4cc22"/>
      <path id="Trazado_3664" data-name="Trazado 3664" d="M2001.192,8199.66a13.123,13.123,0,0,0-4.674,6.181,32.906,32.906,0,0,1-8.708-4.678,17.475,17.475,0,0,1-5.854-7.845c2.623-.983,4.915-2.67,7.413-3.937a30.125,30.125,0,0,1,4.028-1.666,50.038,50.038,0,0,1,5.707-1.506,18.368,18.368,0,0,1,4.631-.512,7.377,7.377,0,0,1,4.336,1.518,5.7,5.7,0,0,1,2.046,4.41,4.908,4.908,0,0,1-2.96,4.6A27.985,27.985,0,0,0,2001.192,8199.66Z" fill="#f7d926"/>
      <path id="Trazado_3665" data-name="Trazado 3665" d="M1995.292,8189.283c1.322-.035,2.75-.144,3.86.575a.426.426,0,0,1,.232.3c.009.222-.276.316-.5.342l-10.4,1.205c-.227.026-.506.1-.555.319-.056.249.224.433.462.522,3.368,1.284,7.2.245,10.71,1.076.163.039.354.11.389.274s-.1.3-.224.4a9.424,9.424,0,0,1-4.867,1.627,13.929,13.929,0,0,0-5.03,1.191c-.2.109-.43.324-.327.529a.46.46,0,0,0,.237.187,13.535,13.535,0,0,0,7.222.7,37.641,37.641,0,0,1,7.313-.571,2.706,2.706,0,0,0-1.14,2.063c-.013.284-.076,1.575.121,1.369.1-.105,1.008-.676,1.382-.948a23.407,23.407,0,0,0,3.728-3.151,2.808,2.808,0,0,0,.958-2.579c-.289-.864-1.314-1.34-1.547-2.221a3.685,3.685,0,0,1,.018-1.286,5.761,5.761,0,0,0-.3-2.444,1.06,1.06,0,0,0-.229-.416,1.146,1.146,0,0,0-.533-.244,41.7,41.7,0,0,0-11.225-1.351,7.1,7.1,0,0,0-2.422.346c-.58.222-1.484.635-1.626,1.327-.17.826.857.724,1.412.771A25.861,25.861,0,0,0,1995.292,8189.283Z" fill="#e0af24"/>
      <path id="Trazado_3666" data-name="Trazado 3666" d="M2022.922,8180.784c-2.581-3.108-3.656-3.079-3.766-3.068-.129.014-3.711,3.709-6.22,5.673a27.088,27.088,0,0,0-6.245-.113c-1.018.077-4.006.839-4.593.788a19.015,19.015,0,0,0-4.531-.192,3.739,3.739,0,0,0-2.606,1.97,1.411,1.411,0,0,0-.059.158,25.739,25.739,0,0,0-3.264.795c-.729.23-2.873,1.268-1.088,1.939a2.881,2.881,0,0,0,1.543-.013,19.031,19.031,0,0,1,7.439-.353c.422.089.842.205,1.265.294l-.006.136a27.628,27.628,0,0,0-7.566.689q-2.307.449-4.6.967a2.083,2.083,0,0,0-1.195.566.661.661,0,0,0-.15.63.8.8,0,0,0,.388.384,5.168,5.168,0,0,0,2.988.3,68.88,68.88,0,0,1,7.376-.268c.5.008,1.617.2,2.718.34,0,.122.009.243.016.364-1.212.216-2.417.493-2.948.62-2.556.615-5.131,1.732-7.623,2.565-.591.2-1.263.475-1.439,1.073a.6.6,0,0,0,.069.537.785.785,0,0,0,.56.222,11.171,11.171,0,0,0,3.114-.328q1.885-.363,3.792-.6a32.983,32.983,0,0,1,6.426-.436,26.3,26.3,0,0,0,3.622-.34q-.33.419-.645.846c-1.184,1.6-2.3,3.438-2.19,5.427.028.485.256,1.081.743,1.1.45.014.717-.477.94-.867.946-1.658,2.78-2.556,4.457-3.468a17.786,17.786,0,0,0,5.264-3.977,5.621,5.621,0,0,0,1.2-2.267c.6-.366,8.214-6.88,8.293-7.092C2024.725,8184.913,2024.7,8182.924,2022.922,8180.784Z" fill="#f9c9a1"/>
      <path id="Trazado_3667" data-name="Trazado 3667" d="M1994.9,8186a14.6,14.6,0,0,1,2.953-.392,20.872,20.872,0,0,1,3.437.6l.06-.16a10.636,10.636,0,0,0-2.978-.936,11.94,11.94,0,0,0-3.179.383l-.293.5Z" fill="#eab296"/>
      <path id="Trazado_3668" data-name="Trazado 3668" d="M1990.164,8187.987a.237.237,0,0,0,.2.077,1.562,1.562,0,0,0,.325-.049,6.089,6.089,0,0,0,1.121-.381.9.9,0,0,0,.357-.246.288.288,0,0,0,.06-.253.264.264,0,0,0-.093-.122.652.652,0,0,0-.525-.065C1991.378,8187,1989.874,8187.547,1990.164,8187.987Z" fill="#f7e2c6"/>
      <path id="Trazado_3669" data-name="Trazado 3669" d="M1987.61,8191.245a.2.2,0,0,0-.013.158.194.194,0,0,0,.118.091.9.9,0,0,0,.408.02,3.77,3.77,0,0,0,1.156-.338,1.635,1.635,0,0,0,.477-.318.335.335,0,0,0,.12-.3.265.265,0,0,0-.21-.181.741.741,0,0,0-.289.014C1988.81,8190.5,1987.865,8190.616,1987.61,8191.245Z" fill="#f7e2c6"/>
      <path id="Trazado_3670" data-name="Trazado 3670" d="M1989.149,8196.883a.291.291,0,0,0,.015.128c.059.146.256.164.412.147a3.381,3.381,0,0,0,1.471-.521,1.782,1.782,0,0,0,.413-.351.246.246,0,0,0,.055-.1.211.211,0,0,0-.1-.2.8.8,0,0,0-.586-.106C1990.327,8195.941,1989.2,8196.216,1989.149,8196.883Z" fill="#f7e2c6"/>
      <path id="Trazado_3671" data-name="Trazado 3671" d="M2005.6,8200.814a.293.293,0,0,0-.348.042.857.857,0,0,0-.2.316,8.122,8.122,0,0,0-.461,1.217.853.853,0,0,0-.023.458.133.133,0,0,0,.057.085c.068.038.143-.032.188-.1a13.073,13.073,0,0,0,.8-1.126C2005.735,8201.5,2005.84,8200.979,2005.6,8200.814Z" fill="#f7e2c6"/>
      <path id="Trazado_3672" data-name="Trazado 3672" d="M1983.994,8194.431a.847.847,0,0,0,.08.521,3.233,3.233,0,0,0,.618.909,1.016,1.016,0,0,0,.405.3.4.4,0,0,0,.458-.127.579.579,0,0,0-.053-.546C1985.39,8195.255,1984.259,8193.34,1983.994,8194.431Z" fill="#f4cc22"/>
      <path id="Trazado_3673" data-name="Trazado 3673" d="M1989.528,8193.758a1.913,1.913,0,0,0-.795.339c-.059.043-.122.112-.1.18a.171.171,0,0,0,.135.08,1.437,1.437,0,0,0,1.135-.278.253.253,0,0,0,.122-.193c-.005-.1-.115-.162-.214-.175a1.307,1.307,0,0,1-.3-.035Z" fill="#f4cc22"/>
      <path id="Trazado_3674" data-name="Trazado 3674" d="M1986.009,8193.463a.714.714,0,0,0,.359.613.57.57,0,0,0,.645-.227,1.31,1.31,0,0,0,.2-.7,1.188,1.188,0,0,0-.2-.856C1986.313,8191.467,1985.959,8193.012,1986.009,8193.463Z" fill="#f4cc22"/>
      <path id="Trazado_3675" data-name="Trazado 3675" d="M1993.073,8202.437a.872.872,0,0,0,.778.471c.349-.059.529-.461.547-.815a1.938,1.938,0,0,0-.56-1.449,1.068,1.068,0,0,0-.665-.342C1992.028,8200.241,1992.762,8201.982,1993.073,8202.437Z" fill="#f4cc22"/>
      <path id="Trazado_3676" data-name="Trazado 3676" d="M1998.064,8199.273a.416.416,0,0,0-.168.19.293.293,0,0,0,.137.317.723.723,0,0,0,.355.09,2.935,2.935,0,0,0,1.976-.635.416.416,0,0,0,.2-.33C2000.478,8198.041,1998.364,8199.057,1998.064,8199.273Z" fill="#f4cc22"/>
      <path id="Trazado_3677" data-name="Trazado 3677" d="M1990.169,8199.866a.923.923,0,0,0-1.072.487.26.26,0,0,0-.028.151c.016.08.1.131.171.164a1.19,1.19,0,0,0,1.442-.451.148.148,0,0,0,.03-.11.151.151,0,0,0-.062-.074.985.985,0,0,0-.575-.184Z" fill="#f4cc22"/>
      <path id="Trazado_3678" data-name="Trazado 3678" d="M1996.5,8200.9a1.04,1.04,0,0,0,.232,1.253.238.238,0,0,0,.131.065.236.236,0,0,0,.178-.092.847.847,0,0,0-.414-1.4Z" fill="#f4cc22"/>
      <path id="Trazado_3679" data-name="Trazado 3679" d="M1982.423,8200.1a.6.6,0,0,0,.406.419c.26.046.481-.2.58-.444.164-.4.233-2.108-.439-1.879C1982.324,8198.413,1982.228,8199.588,1982.423,8200.1Z" fill="#e0af24"/>
      <path id="Trazado_3680" data-name="Trazado 3680" d="M1984.234,8202.653a1.619,1.619,0,0,0,.575.862.6.6,0,0,0,.543.144.483.483,0,0,0,.222-.618,1.21,1.21,0,0,0-.486-.529,1.189,1.189,0,0,0-1.008-.271.154.154,0,0,0-.095.065.159.159,0,0,0-.005.105.631.631,0,0,0,.245.371l-.032-.11Z" fill="#e0af24"/>
      <path id="Trazado_3681" data-name="Trazado 3681" d="M1990.052,8205.837a1.045,1.045,0,0,0,.619.006,2.175,2.175,0,0,0,.777-.365c.725-.535.013-1.416-.719-1.205C1990.215,8204.42,1989.184,8205.5,1990.052,8205.837Z" fill="#e0af24"/>
      <path id="Trazado_3682" data-name="Trazado 3682" d="M1993.924,8209.229a.712.712,0,0,0,.445.51.77.77,0,0,0,.614-.2,1.329,1.329,0,0,0,.326-.331,1.136,1.136,0,0,0,.155-.481,1.284,1.284,0,0,0-.174-.844.769.769,0,0,0-1.285-.083A1.945,1.945,0,0,0,1993.924,8209.229Z" fill="#e0af24"/>
      <path id="Trazado_3683" data-name="Trazado 3683" d="M1997.021,8206.51a.875.875,0,0,0,.087.6,1.2,1.2,0,0,0,.419-.533,14.013,14.013,0,0,0,.546-1.334c.137-.37.4-1.492-.2-.769A4.1,4.1,0,0,0,1997.021,8206.51Z" fill="#e0af24"/>
      <path id="Trazado_3684" data-name="Trazado 3684" d="M1999.967,8202.544a1.094,1.094,0,0,0,.69-.618,6.226,6.226,0,0,0,.475-1.043c.022-.064-.421-.01-.463.011a1.315,1.315,0,0,0-.312.36A1.814,1.814,0,0,0,1999.967,8202.544Z" fill="#e0af24"/>
      <path id="Trazado_3685" data-name="Trazado 3685" d="M1987.092,8202.487a2.1,2.1,0,0,0,.532.753.41.41,0,0,0,.324.1.334.334,0,0,0,.215-.182.933.933,0,0,0-.15-.872c-.149-.25-.487-.943-.87-.827C1986.711,8201.595,1986.964,8202.23,1987.092,8202.487Z" fill="#e0af24"/>
      <path id="Trazado_3686" data-name="Trazado 3686" d="M1982.167,8195.865a1.524,1.524,0,0,0-.267,1.245c.012.053.036.113.09.127s.1-.033.139-.079a1.942,1.942,0,0,0,.268-1.114c0-.1-.049-.256-.149-.221a.292.292,0,0,1-.229.121Z" fill="#e0af24"/>
      <path id="Trazado_3687" data-name="Trazado 3687" d="M1990.3,8207.271a2.732,2.732,0,0,0,.235.533c.115.2.337.408.545.309a.324.324,0,0,0,.164-.3.642.642,0,0,0-.119-.335,2.249,2.249,0,0,0-.286-.342.763.763,0,0,0-.248-.187.273.273,0,0,0-.292.044.171.171,0,0,0,.033.265Z" fill="#e0af24"/>
    </g>
    <g id="Grupo_3243" data-name="Grupo 3243">
      <rect id="Rectángulo_2855" data-name="Rectángulo 2855" width="33.874" height="2.506" transform="translate(1933.922 8227.434) rotate(179.973)" fill="#4c4b4f"/>
      <path id="Trazado_3688" data-name="Trazado 3688" d="M1919.917,8184.769a.914.914,0,0,1-.133-.25.893.893,0,0,1,0-.338,3.6,3.6,0,0,0-.664-2.474,1.879,1.879,0,0,0-.631-.582.97.97,0,0,0-.835-.049,1.239,1.239,0,0,0-.567.686,4.956,4.956,0,0,0-.229,2.388,5.858,5.858,0,0,0,.685,2.43c.381.644,1.59,1.854,2.431,1.273C1920.843,8187.252,1920.373,8185.469,1919.917,8184.769Z" fill="#eab296"/>
      <path id="Trazado_3689" data-name="Trazado 3689" d="M1908.439,8188.164c-1.646-3.72-.78-7.925-.609-12.4.019-.5,1.239-.913,1.611-1.246a1.86,1.86,0,0,1,1.376-.319,9.288,9.288,0,0,1,1.942.328,2.265,2.265,0,0,1,1.129.6,2.545,2.545,0,0,1,.462,1.022,89.541,89.541,0,0,1,2.738,14.014q.2,1.762.331,3.532c.045.612.726.811.167,1.236-1.184.9-3.6-.5-4.193-1C1911.421,8192.238,1909.408,8190.353,1908.439,8188.164Z" fill="#f9c9a1"/>
      <path id="Trazado_3690" data-name="Trazado 3690" d="M1914.846,8192.253a7.9,7.9,0,0,1,.318-6.121c.06-.122.176-.265.3-.213a.279.279,0,0,1,.127.157,6.346,6.346,0,0,0,.835,1.615c.735.854,2.1,1.146,2.5,2.2a2.078,2.078,0,0,1-.435,1.977,7.164,7.164,0,0,1-2.022,1.617C1915.658,8193.9,1915.091,8192.921,1914.846,8192.253Z" fill="#eab296"/>
      <path id="Trazado_3691" data-name="Trazado 3691" d="M1919.564,8193.1a11.278,11.278,0,0,0,.636-3.346,2.022,2.022,0,0,0-.275-1.2.836.836,0,0,0-1.1-.285,1.177,1.177,0,0,0-.314.376,16.794,16.794,0,0,0-1.579,3.329c-.289.833-.334,1.954.62,2.4C1918.565,8194.833,1919.283,8193.958,1919.564,8193.1Z" fill="#eab296"/>
      <path id="Rectángulo_2856" data-name="Rectángulo 2856" d="M1.524,0h.264A1.523,1.523,0,0,1,3.311,1.523V34.006A1.524,1.524,0,0,1,1.787,35.53H1.523A1.523,1.523,0,0,1,0,34.006V1.524A1.524,1.524,0,0,1,1.524,0Z" transform="translate(1915.166 8170.984)" fill="#d65b36"/>
      <path id="Trazado_3692" data-name="Trazado 3692" d="M1918.472,8181.009c.019-.04,0-3.8,0-3.8a7.584,7.584,0,0,0-1.285-2.191,13.166,13.166,0,0,0-1.887-1.527l-.6,2.564Z" fill="#993d28"/>
      <path id="Trazado_3693" data-name="Trazado 3693" d="M1916.182,8168.127a1.6,1.6,0,0,0,.016-.63,1.4,1.4,0,0,0-.235-.443,6.021,6.021,0,0,0-.674-.852,4.738,4.738,0,0,0-2.622-1.122,6.349,6.349,0,0,0-3.674.243.593.593,0,0,0-.242.166.728.728,0,0,0-.108.342,80.187,80.187,0,0,0-.893,11.441c0,.389.516.336.67.683a2.62,2.62,0,0,0,1.342,1.286,3.4,3.4,0,0,0,3.023-.152,5.763,5.763,0,0,0,2.556-4.042C1915.641,8172.74,1915.813,8170.429,1916.182,8168.127Z" fill="#f9c9a1"/>
      <path id="Trazado_3694" data-name="Trazado 3694" d="M1917.178,8177.518a16.93,16.93,0,0,1,1.861,6.006c.274,1.8.485,3.733,1.666,5.118.278.327.63.725.472,1.124-.171.431-.779.442-1.224.31-1.82-.54-3.1-2.14-4.155-3.72-1.66-2.492-3.094-5.3-3.087-8.295,0-1.192.547-2.68,2-2.622C1915.734,8175.48,1916.723,8176.733,1917.178,8177.518Z" fill="#f9c9a1"/>
      <path id="Trazado_3695" data-name="Trazado 3695" d="M1920.745,8188.952a3.411,3.411,0,0,1-.582-.81.85.85,0,0,0-.213-.307.252.252,0,0,0-.34.015.345.345,0,0,0-.043.224,2.914,2.914,0,0,0,.391,1.3.946.946,0,0,0,.159.213C1920.584,8190.024,1921.252,8189.478,1920.745,8188.952Z" fill="#f7e2c6"/>
      <path id="Trazado_3696" data-name="Trazado 3696" d="M1916.983,8224.935l16.937-.008-.011-24.312a5.865,5.865,0,0,0-2.859-4.642c-2.857-1.783-14.081-1.251-14.081-1.251s-11.225-.521-14.08,1.265a5.866,5.866,0,0,0-2.855,4.644l.012,24.313Z" fill="#d65b36"/>
      <path id="Trazado_3697" data-name="Trazado 3697" d="M1917.007,8224.935l15.932-.007-.011-22.5a5.4,5.4,0,0,0-2.689-4.293c-2.687-1.65-13.245-1.157-13.245-1.157s-10.557-.483-13.243,1.17a5.4,5.4,0,0,0-2.685,4.3l.01,22.5Z" fill="#ef603f"/>
      <path id="Trazado_3698" data-name="Trazado 3698" d="M1903.728,8201.962c2.686-1.653,13.244-1.17,13.244-1.17s10.557-.493,13.245,1.157a5.4,5.4,0,0,1,2.688,4.294v-3.812a5.4,5.4,0,0,0-2.689-4.293c-2.688-1.65-13.245-1.157-13.245-1.157s-10.558-.483-13.244,1.17a5.4,5.4,0,0,0-2.685,4.3l0,3.812A5.4,5.4,0,0,1,1903.728,8201.962Z" fill="#ed836e"/>
      <path id="Trazado_3699" data-name="Trazado 3699" d="M1918.487,8194.648c-.008.024-3.319,0-3.319,0V8192.5s.077.7,1.142,1.042a16.065,16.065,0,0,0,2.17.521l.008.581Z" fill="#993d28"/>
      <path id="Trazado_3700" data-name="Trazado 3700" d="M1932.054,8222.663a1.356,1.356,0,0,0-1.1-.818,4.349,4.349,0,0,0-1.435.106,30.518,30.518,0,0,1-5.506.474c-2.116-.01-4.281-.232-6.312.36a.731.731,0,0,0-.526.363.517.517,0,0,0,.286.6,1.5,1.5,0,0,0,.709.116l8.007.009C1927.619,8223.872,1932.055,8224.751,1932.054,8222.663Z" fill="#fff" opacity="0.4"/>
      <path id="Trazado_3701" data-name="Trazado 3701" d="M1915.27,8222.541a2.9,2.9,0,0,0-.9.08,7.6,7.6,0,0,1-2.013.079c-.438-.042-1-.054-1.178.349a.5.5,0,0,0,.089.529.969.969,0,0,0,.649.229,9.743,9.743,0,0,0,3.259.029C1915.881,8223.627,1916.368,8222.7,1915.27,8222.541Z" fill="#fff" opacity="0.4"/>
    </g>
    <g id="Grupo_3258" data-name="Grupo 3258">
      <path id="Trazado_3702" data-name="Trazado 3702" d="M1995.812,8223.315a22.5,22.5,0,0,1,6.7,4.984c1.7,1.714,3.444,3.624,5.794,4.186.554.132,1.244.282,1.387.835.154.6-.489,1.085-1.069,1.291-2.376.845-5,.134-7.37-.736-3.732-1.373-7.468-3.263-9.806-6.48-.93-1.28-1.512-3.3.09-4.377C1992.667,8222.26,1994.709,8222.829,1995.812,8223.315Z" fill="#7c5146"/>
      <path id="Trazado_3703" data-name="Trazado 3703" d="M1984.314,8256.457c2.024.409,11.56,0,11.56,0h.7s.1-1.847.158-3.038a27.809,27.809,0,0,0,.494,3.038c1.927-.089,3.857-.03,5.786,0a6,6,0,0,0-.282-2.354c.262,1.055.525,1.3.788,2.354,2.145.114,4.3.046,6.443,0-.056-.859-.112-.809-.168-1.669a4.9,4.9,0,0,0,.56,1.669s3.011.1,4.1,0a18.812,18.812,0,0,1-.661-3.194,5.422,5.422,0,0,0,2.147,3.194,16.006,16.006,0,0,1,2.782,0,11.2,11.2,0,0,1-2.021-2.577c.628.674,2.39,2.577,2.39,2.577h2.643a17.131,17.131,0,0,1-5.287-5.44,1.223,1.223,0,0,0-.341-.431,1.177,1.177,0,0,0-.466-.147c-1.6-.271-3.2-.541-4.817-.718a83.2,83.2,0,0,0-8.562-.342c-4.863-.026-9.735-.053-14.579.378a3.766,3.766,0,0,0-2.04.571c-.482.4-.263.788-.21,1.327A9.2,9.2,0,0,1,1984.314,8256.457Z" fill="#abb3b7"/>
      <path id="Trazado_3704" data-name="Trazado 3704" d="M1985.45,8252.463c0-.007,16.294-.216,21.32-.431a100.435,100.435,0,0,1,10.473.216l-1.023-1.418h-30.879Z" fill="#92999b"/>
      <path id="Trazado_3705" data-name="Trazado 3705" d="M2007.963,8235.152c-2.127-.974-21.486-.8-21.486-.8s-3.645,0-3.8,1.531c-.153,1.483.192,3.781,1.557,3.937,1.924.218,2.029-1.531,3.179-1.706s15.642-.918,17.2-.087,1.848,5.641,1.848,5.641h-19.217a1.927,1.927,0,0,0-1.926,1.915c-.01,1.639-.017,3.752.015,3.858h30.692S2010.09,8236.126,2007.963,8235.152Z" fill="#ef603f"/>
      <rect id="Rectángulo_2857" data-name="Rectángulo 2857" width="32.432" height="1.78" rx="0.864" transform="translate(1984.562 8249.442)" fill="#993d28"/>
      <g id="Grupo_3244" data-name="Grupo 3244">
        <path id="Trazado_3706" data-name="Trazado 3706" d="M1986.614,8251.9a7.452,7.452,0,0,1-.519,3.751c-.045.108.133.156.178.049a7.564,7.564,0,0,0,.525-3.8c-.014-.116-.2-.118-.184,0Z" fill="#92999b"/>
      </g>
      <g id="Grupo_3245" data-name="Grupo 3245">
        <path id="Trazado_3707" data-name="Trazado 3707" d="M1988.079,8251.732a12.385,12.385,0,0,1-.354,3.15.092.092,0,0,0,.178.049,12.627,12.627,0,0,0,.361-3.2.093.093,0,0,0-.185,0Z" fill="#92999b"/>
      </g>
      <g id="Grupo_3246" data-name="Grupo 3246">
        <path id="Trazado_3708" data-name="Trazado 3708" d="M1989.37,8252.032a10.208,10.208,0,0,1-.253,2.383c-.026.115.151.164.178.049a10.417,10.417,0,0,0,.259-2.432.092.092,0,0,0-.184,0Z" fill="#92999b"/>
      </g>
      <g id="Grupo_3247" data-name="Grupo 3247">
        <path id="Trazado_3709" data-name="Trazado 3709" d="M1997.847,8251.9a10.785,10.785,0,0,0,.767,3.629c.044.107.222.061.178-.049a10.609,10.609,0,0,1-.76-3.58c-.005-.118-.189-.118-.185,0Z" fill="#92999b"/>
      </g>
      <g id="Grupo_3248" data-name="Grupo 3248">
        <path id="Trazado_3710" data-name="Trazado 3710" d="M1998.3,8251.861a13.051,13.051,0,0,0,.674,2.952c.039.11.217.063.178-.05a12.792,12.792,0,0,1-.668-2.9c-.013-.117-.2-.118-.184,0Z" fill="#92999b"/>
      </g>
      <g id="Grupo_3249" data-name="Grupo 3249">
        <path id="Trazado_3711" data-name="Trazado 3711" d="M1999.1,8251.991a10.564,10.564,0,0,0,.377,2.211.092.092,0,0,0,.177-.049,10.308,10.308,0,0,1-.369-2.162c-.008-.118-.192-.119-.185,0Z" fill="#92999b"/>
      </g>
      <g id="Grupo_3250" data-name="Grupo 3250">
        <path id="Trazado_3712" data-name="Trazado 3712" d="M2003.031,8251.814a8.081,8.081,0,0,0,1.1,2.926c.149.262.3.521.457.781a.092.092,0,0,0,.159-.094,9.634,9.634,0,0,1-1.53-3.613c-.015-.116-.2-.118-.184,0Z" fill="#92999b"/>
      </g>
      <g id="Grupo_3251" data-name="Grupo 3251">
        <path id="Trazado_3713" data-name="Trazado 3713" d="M2004.281,8251.816a7.126,7.126,0,0,0,1.332,3.324,6.813,6.813,0,0,0,.665.777.092.092,0,0,0,.13-.13,6.947,6.947,0,0,1-1.741-2.989,6.875,6.875,0,0,1-.2-.982c-.014-.115-.2-.117-.184,0Z" fill="#92999b"/>
      </g>
      <g id="Grupo_3252" data-name="Grupo 3252">
        <path id="Trazado_3714" data-name="Trazado 3714" d="M2005.241,8251.921a12.032,12.032,0,0,0,1.354,2.786q.246.374.519.727c.071.094.232,0,.159-.093a11.906,11.906,0,0,1-1.854-3.469c-.038-.112-.216-.064-.178.049Z" fill="#92999b"/>
      </g>
      <g id="Grupo_3253" data-name="Grupo 3253">
        <path id="Trazado_3715" data-name="Trazado 3715" d="M2009.822,8251.712a13.444,13.444,0,0,0,1.57,3.275c.065.1.224.007.159-.094a13.249,13.249,0,0,1-1.552-3.23c-.036-.113-.214-.065-.177.049Z" fill="#92999b"/>
      </g>
      <g id="Grupo_3254" data-name="Grupo 3254">
        <path id="Trazado_3716" data-name="Trazado 3716" d="M2010.855,8251.951l.792,1.8c.048.108.206.015.159-.093l-.792-1.8c-.048-.108-.207-.015-.159.093Z" fill="#92999b"/>
      </g>
      <g id="Grupo_3255" data-name="Grupo 3255">
        <path id="Trazado_3717" data-name="Trazado 3717" d="M2011.487,8251.93l.4,1.243c.035.112.213.064.177-.049l-.4-1.243c-.035-.113-.213-.064-.177.049Z" fill="#92999b"/>
      </g>
      <g id="Grupo_3256" data-name="Grupo 3256">
        <path id="Trazado_3718" data-name="Trazado 3718" d="M2014.244,8251.738a.092.092,0,0,0,0-.185.092.092,0,0,0,0,.185Z" fill="#92999b"/>
      </g>
      <g id="Grupo_3257" data-name="Grupo 3257">
        <path id="Trazado_3719" data-name="Trazado 3719" d="M2014.174,8251.688a10.3,10.3,0,0,0,1.827,2.725c.212.228.435.445.666.652.089.078.219-.052.131-.131a10.149,10.149,0,0,1-2.046-2.523c-.152-.265-.292-.538-.419-.816-.05-.106-.209-.014-.159.094Z" fill="#92999b"/>
      </g>
      <path id="Trazado_3720" data-name="Trazado 3720" d="M2002.158,8232.66c-1.254-4.11-4.057-8.284-5.572-12.279-.651-1.715-4.633-3.655-10.34-10.96a.7.7,0,0,0-.392-.271.879.879,0,0,0-.425.051,20.12,20.12,0,0,0-5.993,2.768c-4.732,3.779-3.544,6.2-3.47,6.426.082.254,6.455,4.933,8.986,7.37a32.288,32.288,0,0,0,.648,11.88,16.27,16.27,0,0,0,1.267,3.166c.09.194.437,1.662,1.64,1.949a6.751,6.751,0,0,0,1.034-.169,2.6,2.6,0,0,0,.568-.179,3.166,3.166,0,0,1,2.012.323,4.215,4.215,0,0,0,2.745.265,7.779,7.779,0,0,1,1.689-.648,13.525,13.525,0,0,1,1.669.247,1.964,1.964,0,0,0,1.484-.594c.227-.237.42-.547.738-.624a2.011,2.011,0,0,1,.82.112,2.033,2.033,0,0,0,2.09-1.3C2004.152,8238.328,2002.719,8234.5,2002.158,8232.66Z" fill="#966353"/>
      <path id="Trazado_3721" data-name="Trazado 3721" d="M1987.188,8224.24a31.785,31.785,0,0,1-8.664-3.8c2.088,1.631,4.93,3.856,6.428,5.3a32.45,32.45,0,0,0,.539,11.455q-.381-3.029-.459-6.085a14.332,14.332,0,0,1,.119-2.685A8.18,8.18,0,0,1,1987.188,8224.24Z" fill="#7c5146"/>
      <path id="Trazado_3722" data-name="Trazado 3722" d="M1986.337,8244.941a1.452,1.452,0,0,0-.14,1.323.72.72,0,0,0,.374.429.682.682,0,0,0,.612-.108,1.148,1.148,0,0,0,.368-.4,4.743,4.743,0,0,1,.267-.527,1.351,1.351,0,0,1,.7-.42c1.767-.565,3.687-.162,5.534-.334a.832.832,0,0,0,.324-.08.293.293,0,0,0,.16-.273.328.328,0,0,0-.152-.213,1.339,1.339,0,0,0-.874-.133q-1.581.113-3.167.133-.8.01-1.6,0c-.412-.006-.847-.077-1.257-.05A1.549,1.549,0,0,0,1986.337,8244.941Z" fill="#fff" opacity="0.31"/>
      <path id="Trazado_3723" data-name="Trazado 3723" d="M1985.935,8247.977a.86.86,0,0,0,.678.905,1.017,1.017,0,0,0,1.047-.507.639.639,0,0,0,.082-.223c.059-.41-.474-.742-.823-.817A.869.869,0,0,0,1985.935,8247.977Z" fill="#fff" opacity="0.31"/>
    </g>
    <g id="Grupo_3259" data-name="Grupo 3259">
      <path id="Trazado_3724" data-name="Trazado 3724" d="M1956.806,8221.782a84.555,84.555,0,0,1-1.44,12.282c-1.469,6.241-14.825,21.137-16.054,22.295a3.557,3.557,0,0,0-.506,4.409c.709,1.38,3.226,2.2,4.268.875s-.526-3.771,2.109-6.977,10.06-12.22,12.314-17.355a48.509,48.509,0,0,0,3.391-13.259Z" fill="#db523b"/>
      <path id="Trazado_3725" data-name="Trazado 3725" d="M1958.132,8231.02a.433.433,0,0,1-.009.278.377.377,0,0,1-.183.15,2.214,2.214,0,0,1-1.246.211.735.735,0,0,1-.377-.135.786.786,0,0,1-.233-.5,5.552,5.552,0,0,1-.018-1.3q.072-1.091.159-2.182c.077-1,.457-.465.812.121A9.992,9.992,0,0,1,1958.132,8231.02Z" fill="#993d28"/>
      <path id="Trazado_3726" data-name="Trazado 3726" d="M1944.937,8249.968a1.689,1.689,0,0,1,1.448.622,4.682,4.682,0,0,1,.641,1.822c.045-.055.917-1.111,2.041-2.555s2.241-2.856,2.241-2.856l-4.718.953-1.853,2.257Z" fill="#993d28"/>
      <path id="Trazado_3727" data-name="Trazado 3727" d="M1963.363,8234.259a2.938,2.938,0,0,1-1.286,2.355c-.152.1-.326.2-.381.376a.827.827,0,0,0,0,.34,3.47,3.47,0,0,1-1.917,3.276c-.289.153-.109.055-.1.243a2.7,2.7,0,0,1-2.967,2.966,3.365,3.365,0,0,1-.127,2.193,4.766,4.766,0,0,1-2.829,2.063,9.238,9.238,0,0,1-3.016.112,1.7,1.7,0,0,1-.938-.263,1.561,1.561,0,0,1-.375-1.5,7.561,7.561,0,0,1,1.6-3.3,10.7,10.7,0,0,0,1.93-2.942c.419-1.249.219-2.661.72-3.877a5.6,5.6,0,0,1,1.265-1.76,9.569,9.569,0,0,1,3.226-2.234,7.09,7.09,0,0,1,3.644-.3c.521.06.715.072,1.046.562A2.945,2.945,0,0,1,1963.363,8234.259Z" fill="#eab296"/>
      <path id="Trazado_3728" data-name="Trazado 3728" d="M1954.149,8228.024c.08-.652.59-1.831,1.233-1.832,1,0,1.051.479,1.3,1a4.415,4.415,0,0,1,.321,1.7,9.106,9.106,0,0,1-.92,5c-.987,1.688-3.916,3.247-5.419,1.266-.828-1.091-.014-1.872.694-2.729C1952.19,8231.425,1953.822,8230.7,1954.149,8228.024Z" fill="#eab296"/>
      <path id="Trazado_3729" data-name="Trazado 3729" d="M1966.72,8228.024c.327-1.574.087-9,.087-9l.005-.449v-.1s-1.409-.1-2.318-.146a21.363,21.363,0,0,0,2.323-.361c-.054-1.5.006-3,.043-4.507a4.493,4.493,0,0,0-1.8.2c.806-.2,1-.4,1.8-.6.1-1.669.067-3.345.049-5.018-.657.037-.619.081-1.276.118a3.676,3.676,0,0,0,1.279-.423s.1-2.344.031-3.193a14.183,14.183,0,0,1-2.443.491,4.143,4.143,0,0,0,2.454-1.647,12.667,12.667,0,0,1,.021-2.167,8.6,8.6,0,0,1-1.983,1.555c.519-.484,1.986-1.842,1.986-1.842s.009-1.016.02-2.059a13.2,13.2,0,0,1-4.192,4.075.939.939,0,0,0-.332.262.925.925,0,0,0-.116.362c-.219,1.245-.438,2.49-.584,3.746a65.84,65.84,0,0,0-.325,6.664c-.057,3.787-.114,7.581.178,11.356a2.983,2.983,0,0,0,.42,1.594c.3.378.6.21,1.012.174A6.9,6.9,0,0,1,1966.72,8228.024Z" fill="#abb3b7"/>
      <path id="Trazado_3730" data-name="Trazado 3730" d="M1962.231,8202.22l-3.424,1.2a2.636,2.636,0,0,0-1.89,2.39l-.125,18a2.686,2.686,0,0,0,2.106,2.5l3.16.892Z" fill="#ef603f"/>
      <path id="Trazado_3731" data-name="Trazado 3731" d="M1963.717,8227.473l.177-25.5a.969.969,0,0,0-.962-.975h0a.968.968,0,0,0-.975.962l-.177,25.5a.968.968,0,0,0,.962.975h0A.966.966,0,0,0,1963.717,8227.473Z" fill="#993d28"/>
      <path id="Trazado_3732" data-name="Trazado 3732" d="M1963.892,8202.248l.688-.564.09,25.537-.95-.11Z" fill="#909799"/>
      <path id="Trazado_3733" data-name="Trazado 3733" d="M1953.99,8230.646a24.678,24.678,0,0,1,6.862.679c.926.23,1.969.639,2.26,1.565a2.056,2.056,0,0,1-1.04,2.246,8.882,8.882,0,0,1-2.555.5c-1.9.455-2.275-.065-3.951.455a13.719,13.719,0,0,1-3.208.317c-1.512-.122-2.238-2.2-1.614-3.5A3.8,3.8,0,0,1,1953.99,8230.646Z" fill="#f9c9a1"/>
      <path id="Trazado_3734" data-name="Trazado 3734" d="M1960.667,8236.314a1.858,1.858,0,0,1,1.115.727,1.144,1.144,0,0,1-.129,1,2.529,2.529,0,0,1-1.013,1.166,4.839,4.839,0,0,1-2.129.4l-6.75.245a2.493,2.493,0,0,1-1.284-.178c-1.653-.929,1.318-3.185,2.463-3.619C1955.191,8235.2,1958.47,8235.568,1960.667,8236.314Z" fill="#f9c9a1"/>
      <path id="Trazado_3735" data-name="Trazado 3735" d="M1956.429,8239.328a12.113,12.113,0,0,1,2.855.846c.971.609-.057,1.815-.9,2.593a3.678,3.678,0,0,1-2.818.571l-6.133-.44a2.386,2.386,0,0,1-1.978-.811,1.556,1.556,0,0,1,.087-1.6,2.876,2.876,0,0,1,1.3-1.019c.578-.257.849-.628,1.469-.786a6.263,6.263,0,0,1,2.052-.033C1953.728,8238.773,1955.066,8239.143,1956.429,8239.328Z" fill="#f9c9a1"/>
      <path id="Trazado_3736" data-name="Trazado 3736" d="M1954.048,8243.129c1.014.053,2.339-.179,2.662.687.344.924-.964,2.467-1.9,2.715-2.275.6-5.743,1.61-6.446,1.913a37.131,37.131,0,0,1-5.177,1.778c-.693.208-1.636.249-1.935-.422a1.46,1.46,0,0,1,.382-1.43,23.911,23.911,0,0,1,5.981-5.36C1949.672,8241.945,1951.748,8243.009,1954.048,8243.129Z" fill="#f9c9a1"/>
      <path id="Trazado_3737" data-name="Trazado 3737" d="M1955.918,8233.106a2.518,2.518,0,0,0-1.582-2.386,3.531,3.531,0,0,0-2.35.432c-3.2,1.426-7.772,3.326-11.506,5.972a36.343,36.343,0,0,1-6.539,3.645c-3.823,1.309-10.834,2.412-11.1,2.737-2.361,2.943-.125,13.383,2.35,12.412,5.061-3.654,7.075-4.437,13.1-5.58a12.062,12.062,0,0,0,10.252-2.853,21.62,21.62,0,0,0,4.535-6.771q1.107-2.3,2.092-4.65A7.135,7.135,0,0,0,1955.918,8233.106Z" fill="#f9c9a1"/>
      <path id="Trazado_3738" data-name="Trazado 3738" d="M1931.416,8252.173a32.045,32.045,0,0,1,6.876-1.832,14.68,14.68,0,0,0,8.425-1.232c-.866.111-2.034.066-2.906.117-2.2.131-3.006.713-5.984-.193-.321-.1-3.219,1.437-4.8,2.21A17.178,17.178,0,0,0,1931.416,8252.173Z" fill="#eab296"/>
      <path id="Trazado_3739" data-name="Trazado 3739" d="M1954.832,8247.5a.085.085,0,0,0,.015.059.08.08,0,0,0,.075.006,3.082,3.082,0,0,0,1.51-.914,2.271,2.271,0,0,0,.567-1.669,3.355,3.355,0,0,0-.15-.665,1.243,1.243,0,0,0-.4-.688,1.016,1.016,0,0,0-1.073.067,1.577,1.577,0,0,0-.53.468,2.37,2.37,0,0,0-.3,1.146,1.662,1.662,0,0,0,.236,1.053A2.373,2.373,0,0,1,1954.832,8247.5Z" fill="#f9c9a1"/>
    </g>
    <g id="Grupo_3261" data-name="Grupo 3261">
      <g id="Grupo_3260" data-name="Grupo 3260">
        <path id="Trazado_3740" data-name="Trazado 3740" d="M2053.606,8143.707c.48-1.385,1.852-2.573,1.826-4.039a5.627,5.627,0,0,0-.67-2.25q-.582-1.236-1.242-2.434a2.719,2.719,0,0,0-.7-.916,2.5,2.5,0,0,0-2.112-.163c-3.147.823-5.687,3.111-7.906,5.489a63.468,63.468,0,0,0-4.473,4.529c-2.138,2.878-3.092,5.841-4.175,9.247a7.474,7.474,0,0,0-.468,2.046c-.173,1.811.372,3.89,1.974,4.753a6.35,6.35,0,0,0,4.138.183l7.024-1.275c2.368-.43,4.985-1.013,6.354-2.993,1.173-1.7-2.158-5.288-2.439-7.332S2052.931,8145.656,2053.606,8143.707Z" fill="#966353"/>
      </g>
      <path id="Trazado_3741" data-name="Trazado 3741" d="M2040.367,8141.021c.486-.444,4.09-3.561,4.684-3.845s-.654,3.543-.017,3.707.657-.3.8.34a2.017,2.017,0,0,1-.584,1.757,5.268,5.268,0,0,1-1.6,1.051,11.793,11.793,0,0,1-4.714,1.351c-.341.009-1.023-.065-1-.532.019-.373-1.075.358-.849.081C2037.751,8144.11,2039.586,8141.736,2040.367,8141.021Z" fill="#7c5146"/>
      <path id="Trazado_3742" data-name="Trazado 3742" d="M2054.83,8137.441a5.324,5.324,0,0,1,.816,1.962,4.024,4.024,0,0,1-.4,1.756c-.508,1.3-2.8,4.716-3.2,4.488a8.977,8.977,0,0,1-3.571-4.763,5.088,5.088,0,0,1,2.5-6.81,3.418,3.418,0,0,1,1.226-.437,1.583,1.583,0,0,1,1.227.335,2.9,2.9,0,0,1,.678,1.568A8.646,8.646,0,0,0,2054.83,8137.441Z" fill="#7c5146"/>
      <path id="Trazado_3743" data-name="Trazado 3743" d="M2027.589,8167.789a1.481,1.481,0,0,0-.1.674,1.374,1.374,0,0,0,.2.462,9.076,9.076,0,0,0,4.849,3.73,17.9,17.9,0,0,0,6.155.829,96.52,96.52,0,0,0,3.952-11.147,11.589,11.589,0,0,0,.514-3.9,8.78,8.78,0,0,0-2.63-5.242,15.673,15.673,0,0,0-3.844-2.97c-1.638-.845-2.027.934-2.626,2.16-1.562,3.195-3.079,6.415-4.41,9.714C2028.89,8163.973,2028.195,8165.867,2027.589,8167.789Z" fill="#966353"/>
      <path id="Trazado_3744" data-name="Trazado 3744" d="M2050.738,8133.118a53.749,53.749,0,0,0,1.463,5.333c.823,2.331,3.535,5.209,5.036,4.242.424-.273-2.691-3.06-3.056-6.046a14.859,14.859,0,0,1,.159-4.081Z" fill="#993d28"/>
      <path id="Trazado_3745" data-name="Trazado 3745" d="M2045.314,8137a3.221,3.221,0,0,0-2.894-1.533c-1.6,0-1.99-.758-2.05-1.15s.754-2.414,6.15-3.423a49.128,49.128,0,0,1,11.607-.436v2.11s-3.859.091-5.849,1.508A5.9,5.9,0,0,0,2049.9,8137Z" fill="#ef603f"/>
      <path id="Trazado_3746" data-name="Trazado 3746" d="M2047.641,8136.835l-1.822-.008a4.551,4.551,0,0,0-3.4-2.132c-1.214,0-1.732-.439-1.937-.82a.841.841,0,0,0-.113.44c.06.392.452,1.146,2.05,1.15a3.221,3.221,0,0,1,2.894,1.533h4.583a5.9,5.9,0,0,1,2.381-2.924c1.99-1.417,5.849-1.508,5.849-1.508v-.3s-4.018-.1-6.164.991C2048.364,8135.077,2047.641,8136.835,2047.641,8136.835Z" fill="#993d28"/>
      <path id="Trazado_3747" data-name="Trazado 3747" d="M2056.033,8163.827c0-3.823-2.867-6.053-2.655-7.539s3.079-1.911,2.655-6.265-5.8-7.909-5.8-7.909v-4.152h-5.2v4.152s-5.375,3.556-5.8,7.909,2.443,4.778,2.655,6.265-2.656,3.716-2.655,7.539l-.9,21.054a.994.994,0,0,0,.993,1.043h16.62a.994.994,0,0,0,.993-1.043Z" fill="#f7d926"/>
      <path id="Trazado_3748" data-name="Trazado 3748" d="M2056.033,8163.827c0-3.823-2.867-6.053-2.655-7.539s3.079-1.911,2.655-6.265-5.8-7.909-5.8-7.909v-4.152H2046v4.152s5.375,3.556,5.8,7.909-2.442,4.778-2.655,6.265,2.656,3.716,2.655,7.539l.9,21.054a.994.994,0,0,1-.993,1.043h4.235a.994.994,0,0,0,.993-1.043Z" fill="#f4cc22"/>
      <rect id="Rectángulo_2858" data-name="Rectángulo 2858" width="6.194" height="4.53" transform="translate(2044.545 8136.84)" fill="#ef603f"/>
      <path id="Trazado_3749" data-name="Trazado 3749" d="M2048.67,8136.84l.082,4.531h1.987v-4.531Z" fill="#993d28"/>
      <path id="Trazado_3750" data-name="Trazado 3750" d="M2058.127,8130.456a11.72,11.72,0,0,0,1.177.162v1.7l-1.177.249Z" fill="#993d28"/>
      <path id="Trazado_3751" data-name="Trazado 3751" d="M2045.3,8137.975l.052,1.688a1.417,1.417,0,0,0,.126.654.484.484,0,0,0,.561.255.523.523,0,0,0,.284-.469c.013-.193-.034-.385-.04-.578-.019-.612.585-1.627.041-2.155C2045.811,8136.877,2045.277,8137.411,2045.3,8137.975Z" fill="#fff" opacity="0.53"/>
      <path id="Trazado_3752" data-name="Trazado 3752" d="M2042.767,8133.822a1.467,1.467,0,0,0,.622-.176c.814-.385,1.549-.931,2.383-1.273a16.015,16.015,0,0,1,2.86-.686.406.406,0,0,0,.261-.129.277.277,0,0,0-.136-.378.783.783,0,0,0-.447-.035,18.351,18.351,0,0,0-4.246,1.041,5.569,5.569,0,0,0-1.665.7A.524.524,0,0,0,2042.767,8133.822Z" fill="#fff" opacity="0.53"/>
      <path id="Trazado_3753" data-name="Trazado 3753" d="M2053.209,8133.6a9.949,9.949,0,0,0-3.684,3.385,2.025,2.025,0,0,0-.278.938.939.939,0,0,0,.447.829,1.114,1.114,0,0,0,.448.109,5.716,5.716,0,0,0,2.836-1,11.464,11.464,0,0,0,2.24-1.257,2.356,2.356,0,0,0,.925-2.261C2055.776,8132.889,2054.226,8132.942,2053.209,8133.6Z" fill="#966353"/>
      <path id="Trazado_3754" data-name="Trazado 3754" d="M2054.089,8137.526a8.964,8.964,0,0,0-2.852,3.5,1.808,1.808,0,0,0-.127.873.845.845,0,0,0,.506.682,1,1,0,0,0,.414.04,5.155,5.155,0,0,0,2.4-1.258,10.385,10.385,0,0,0,1.838-1.411,2.123,2.123,0,0,0,.534-2.137C2056.289,8136.562,2054.913,8136.81,2054.089,8137.526Z" fill="#966353"/>
      <path id="Trazado_3755" data-name="Trazado 3755" d="M2045.258,8136.84h3.989l.075-1.023Z" fill="#993d28"/>
      <path id="Trazado_3756" data-name="Trazado 3756" d="M2041.027,8154.985c2.83,0,2.437-4.409,4.119-5.3,1.45-.767,3.193-.552,4.833-.511a3.475,3.475,0,0,0,2.217-.49.822.822,0,0,0,.287-.34.716.716,0,0,0-.181-.722,1.891,1.891,0,0,0-.662-.411,13.448,13.448,0,0,0-7.191-.925,7,7,0,0,0-2.38.713c-1.863,1.017-3.463,3.94-2.593,6.026A8.869,8.869,0,0,0,2041.027,8154.985Z" fill="#e0af24"/>
      <path id="Trazado_3757" data-name="Trazado 3757" d="M2048.049,8153.3a.725.725,0,0,0,.282.9,1.608,1.608,0,0,0,.989.209,8.155,8.155,0,0,0,3.461-1.221c.737-.4,1.464-.826,2.191-1.248a1.794,1.794,0,0,0,.43-.31,1.408,1.408,0,0,0,.294-.581,3.159,3.159,0,0,0,.062-1.453.628.628,0,0,0-.147-.335.6.6,0,0,0-.379-.135,3.351,3.351,0,0,0-1.36.221,12.846,12.846,0,0,0-3.44,2.075q-1.23.938-2.451,1.888l.347-.527Z" fill="#e0af24"/>
      <path id="Trazado_3758" data-name="Trazado 3758" d="M2049.318,8158.053a1.434,1.434,0,0,0,1.3.215,6.121,6.121,0,0,0,2.67-1.267.423.423,0,0,0,.138-.158.376.376,0,0,0,.011-.2,1.222,1.222,0,0,0-.737-.94,1.724,1.724,0,0,0-1.18.022,10.492,10.492,0,0,0-1.1.5c-.361.169-1.031.247-1.244.563A1.142,1.142,0,0,0,2049.318,8158.053Z" fill="#e0af24"/>
      <path id="Trazado_3759" data-name="Trazado 3759" d="M2036.092,8146.147a8.2,8.2,0,0,1,4.438-3.278c1.651-.585,3.393-1.334,5.012-.667a8.6,8.6,0,0,1,1.675,1.011l5.283,3.767a1.35,1.35,0,0,1,.41.39.9.9,0,0,1-.322,1.115,2.044,2.044,0,0,1-1.214.3c-2.371,0-4.785-1.361-7.01-.54-1.408.52-1.787,2.795-2.822,3.884-1.018,1.071-2.682,2.552-4.158,2.28-1.019-.187-2.532-2.7-2.477-3.8A10.728,10.728,0,0,1,2036.092,8146.147Z" fill="#966353"/>
      <path id="Trazado_3760" data-name="Trazado 3760" d="M2048.717,8151.872a1.836,1.836,0,0,0-.82,1.408.747.747,0,0,0,.181.445c.3.327.831.231,1.253.095a20.917,20.917,0,0,0,5.578-2.767,5.345,5.345,0,0,0,1.567-1.5,3.06,3.06,0,0,0,.447-1.46,2.114,2.114,0,0,0-.433-1.461,1.321,1.321,0,0,0-1.4-.439c-.619.22-.662,1-1.06,1.453a11.708,11.708,0,0,1-1.662,1.524C2051.173,8150.1,2049.868,8150.883,2048.717,8151.872Z" fill="#966353"/>
      <path id="Trazado_3761" data-name="Trazado 3761" d="M2050.107,8155.68a1.558,1.558,0,0,0-.7,1.195.637.637,0,0,0,.153.378c.255.278.706.2,1.065.081a17.814,17.814,0,0,0,4.735-2.349,4.559,4.559,0,0,0,1.33-1.275,2.612,2.612,0,0,0,.38-1.239,4.99,4.99,0,0,0-.193-1.482c-.164-.534-.857-1.12-1.009-.7a7.48,7.48,0,0,1-1.252,1.807,9.844,9.844,0,0,1-1.411,1.294C2052.192,8154.173,2051.084,8154.84,2050.107,8155.68Z" fill="#966353"/>
      <path id="Trazado_3762" data-name="Trazado 3762" d="M2036.712,8154.861a13.1,13.1,0,0,1-1.728-5.077c-.412,1.447-.809,2.177-.772,2.264C2034.634,8153.047,2036.19,8153.923,2036.712,8154.861Z" fill="#7c5146"/>
      <path id="Trazado_3763" data-name="Trazado 3763" d="M2051.085,8135.737a1.9,1.9,0,0,0-.693.648,4.127,4.127,0,0,0-.676,1.118.754.754,0,0,0,.057.729.854.854,0,0,0,.875.116,5.482,5.482,0,0,0,.785-.282,1.513,1.513,0,0,0,.646-.463,1.219,1.219,0,0,0,.2-.547C2052.366,8136.4,2051.929,8135.366,2051.085,8135.737Z" fill="#c98471"/>
      <path id="Trazado_3764" data-name="Trazado 3764" d="M2052.317,8139.956a2.7,2.7,0,0,0-.848,1.205.924.924,0,0,0,0,.955.777.777,0,0,0,.661.188,2.529,2.529,0,0,0,1.307-.573,1.664,1.664,0,0,0,.624-.849C2054.331,8139.829,2053.031,8139.446,2052.317,8139.956Z" fill="#c98471"/>
      <path id="Trazado_3765" data-name="Trazado 3765" d="M2048.661,8152.731c-.187.216-.353.521-.219.773a.528.528,0,0,0,.413.252,1.362,1.362,0,0,0,.5-.061,7.218,7.218,0,0,0,1.324-.488c.246-.119.51-.283.568-.55a.663.663,0,0,0-.067-.425,1.092,1.092,0,0,0-.533-.5.676.676,0,0,0-.67.038A3.65,3.65,0,0,0,2048.661,8152.731Z" fill="#c98471"/>
      <path id="Trazado_3766" data-name="Trazado 3766" d="M2050.434,8157.056a4.546,4.546,0,0,0,1.758-.554.633.633,0,0,0,.238-.194.5.5,0,0,0,.03-.416.884.884,0,0,0-.72-.6,1.4,1.4,0,0,0-.906.284,2.782,2.782,0,0,0-.91.837C2049.716,8156.815,2050.046,8157.1,2050.434,8157.056Z" fill="#c98471"/>
      <path id="Trazado_3767" data-name="Trazado 3767" d="M2050.021,8146.076a.671.671,0,0,0,.151.489,1.725,1.725,0,0,0,.391.347q.356.252.733.471a2.194,2.194,0,0,0,.571.254.857.857,0,0,0,.609-.062.448.448,0,0,0,.247-.392c-.013-.211-.212-.353-.392-.463l-1.372-.845c-.184-.113-.349-.281-.575-.212A.525.525,0,0,0,2050.021,8146.076Z" fill="#c98471"/>
    </g>
    <g id="Grupo_3262" data-name="Grupo 3262">
      <path id="Trazado_3768" data-name="Trazado 3768" d="M2052.679,8208.31v-.107a2.191,2.191,0,0,0-2.19-2.191h-1.07a2.191,2.191,0,0,0-2.19,2.191v.107a2.19,2.19,0,0,1-.752,1.652l-5.065,4.411a2.188,2.188,0,0,0-.752,1.652v25.333a2.191,2.191,0,0,0,2.191,2.19h14.206a2.191,2.191,0,0,0,2.191-2.19v-25.333a2.188,2.188,0,0,0-.752-1.652l-5.065-4.411A2.19,2.19,0,0,1,2052.679,8208.31Z" fill="#f7d926"/>
      <path id="Trazado_3769" data-name="Trazado 3769" d="M2042.314,8218.349a5.765,5.765,0,0,1,.562,1.591,44.749,44.749,0,0,1,.863,4.7.563.563,0,0,0,.145.373.605.605,0,0,0,.3.105,3.742,3.742,0,0,1,.959.295.951.951,0,0,1,.564.521.726.726,0,0,1-.2.68,2.028,2.028,0,0,1-.616.4,11.24,11.24,0,0,1-2.093.839,1.862,1.862,0,0,1-1.186.012,1.884,1.884,0,0,1-.919-1.488,16.285,16.285,0,0,1,.053-4.28q.148-1.786.143-3.581c0-.366-.151-1.086.407-1.08C2041.7,8217.439,2042.134,8218.043,2042.314,8218.349Z" fill="#e0af24"/>
      <path id="Trazado_3770" data-name="Trazado 3770" d="M2058.5,8214.373l-5.065-4.411a2.19,2.19,0,0,1-.752-1.652v-.107a2.191,2.191,0,0,0-2.19-2.191h-.356a2.187,2.187,0,0,1,.547,1.448v.108a2.19,2.19,0,0,0,.752,1.651l5.065,4.411a2.193,2.193,0,0,1,.752,1.652v25.333a2.191,2.191,0,0,1-2.191,2.19h-13.851a2.188,2.188,0,0,0,1.644.743h14.206a2.191,2.191,0,0,0,2.191-2.19v-25.333A2.188,2.188,0,0,0,2058.5,8214.373Z" fill="#f4cc22"/>
      <path id="Trazado_3771" data-name="Trazado 3771" d="M2057.624,8234.779c.521-.545,1.624-2.034,1.624-2.034a21.183,21.183,0,0,0-.057-2.75c.047.216-8.574,2.594-9.369,2.779-2.67.623-6.509,1.3-8.526,3.313-1.088,1.086-.636,4.7-.636,4.7,2.035,1.081,6.385-.082,8.419-.729A20.378,20.378,0,0,0,2057.624,8234.779Z" fill="#e0af24"/>
      <path id="Trazado_3772" data-name="Trazado 3772" d="M2053.679,8235.621a18.953,18.953,0,0,0,5.524-4.715,3.238,3.238,0,0,0,.918-2.214.852.852,0,0,0-.444-.732,1.05,1.05,0,0,0-.889.181,23.044,23.044,0,0,0-3.6,2.915,20.686,20.686,0,0,0-2.5,2.385,4.458,4.458,0,0,0-1.211,2.748C2051.6,8237.173,2053.281,8235.846,2053.679,8235.621Z" fill="#f9c9a1"/>
      <path id="Trazado_3773" data-name="Trazado 3773" d="M2060.076,8228.327a.69.69,0,0,0-.128-.262.7.7,0,0,0-.927-.151.932.932,0,0,1,.334.671,3.238,3.238,0,0,1-.85,2.246,28.752,28.752,0,0,1-4.3,4.426,15.577,15.577,0,0,0,5-4.351A3.29,3.29,0,0,0,2060.076,8228.327Z" fill="#eab296"/>
      <path id="Trazado_3774" data-name="Trazado 3774" d="M2035.071,8225.612c1.4-2.166,3.745-3.831,4.023-6.761.05-.524-.139-1.113.177-1.535a1.237,1.237,0,0,1,1.861.174,3.583,3.583,0,0,1,.556,2.051c.156,2.53-1.739,6.343-.1,6.553,1.338.171.633,2.133.521,2.666-.5,2.351-7.123,5.5-9.3,4.324C2030.337,8231.747,2034.04,8227.2,2035.071,8225.612Z" fill="#f9c9a1"/>
      <rect id="Rectángulo_2859" data-name="Rectángulo 2859" width="6.39" height="3.159" transform="translate(2046.759 8205.739)" fill="#ef603f"/>
      <path id="Trazado_3775" data-name="Trazado 3775" d="M2045.688,8205.739h8.532l-.659-1.959h-7.137Z" fill="#ef603f"/>
      <rect id="Rectángulo_2860" data-name="Rectángulo 2860" width="4.677" height="0.821" transform="translate(2047.616 8202.959)" fill="#ef4538"/>
      <path id="Trazado_3776" data-name="Trazado 3776" d="M2049.837,8202.959h-2.961a3.345,3.345,0,0,1,3.046-2.035,3.239,3.239,0,0,1,3.11,2.035Z" fill="#ef603f"/>
      <path id="Trazado_3777" data-name="Trazado 3777" d="M2046.759,8205.739h6.39v3.159h-.857l-.564-2.084-4.969-.8Z" fill="#993d28"/>
      <rect id="Rectángulo_2861" data-name="Rectángulo 2861" width="4.677" height="0.821" transform="translate(2047.616 8202.959)" fill="#993d28"/>
      <path id="Trazado_3778" data-name="Trazado 3778" d="M2048.144,8201.911a.767.767,0,0,0-.151.274.352.352,0,0,0,.048.3.535.535,0,0,0,.37.152.9.9,0,0,0,.818-.186,1.627,1.627,0,0,0,.2-.433,1.093,1.093,0,0,1,.273-.382.532.532,0,0,0,.2-.242.219.219,0,0,0-.076-.218c-.2-.157-.691.036-.891.123A2.062,2.062,0,0,0,2048.144,8201.911Z" fill="#fff" opacity="0.53"/>
      <path id="Trazado_3779" data-name="Trazado 3779" d="M2046.959,8204.424l-.182.364a.862.862,0,0,0-.1.27.293.293,0,0,0,.088.264.342.342,0,0,0,.152.063,2.168,2.168,0,0,0,.679.008.523.523,0,0,0,.235-.06.537.537,0,0,0,.189-.333l.131-.479c.11-.4-.14-.575-.523-.591A.752.752,0,0,0,2046.959,8204.424Z" fill="#fff" opacity="0.53"/>
      <path id="Trazado_3780" data-name="Trazado 3780" d="M2047.29,8206.824a8.466,8.466,0,0,0,.012,1.406.4.4,0,0,0,.049.188.367.367,0,0,0,.173.126c.163.072.386.1.494-.038a.437.437,0,0,0,.069-.2,4.851,4.851,0,0,0,.009-1.56.444.444,0,0,0-.095-.248C2047.717,8206.205,2047.314,8206.5,2047.29,8206.824Z" fill="#fff" opacity="0.53"/>
      <path id="Trazado_3781" data-name="Trazado 3781" d="M2047.148,8208.9h5.612l.389.665-6.124-.332Z" fill="#f4cc22"/>
      <path id="Trazado_3782" data-name="Trazado 3782" d="M2047.341,8224.4c2.225-.987,4.306-2.328,6.641-3.017a.665.665,0,0,1,1.032.448,18.012,18.012,0,0,1,.33,10.388c-.23.852-.9,2.959-1.665,3.4a14.705,14.705,0,0,1-5.912,1.989c-4.244.613-5.754.407-10.121,1.183-1.076.191-2.025-.974-2.97-1.523a4.144,4.144,0,0,1-2.015-2.476,5.055,5.055,0,0,1,.11-2.429c.654-2.632,2.7-5.715,5.616-6.1,1.239-.161,2.467-.018,3.719-.248A23.332,23.332,0,0,0,2047.341,8224.4Z" fill="#f9c9a1"/>
      <path id="Trazado_3783" data-name="Trazado 3783" d="M2057.643,8221.405a15.189,15.189,0,0,1,2.2-2.65.967.967,0,0,1,.424-.225.843.843,0,0,1,.822.584c.427.982-.112,2.1-.644,3.025a18.62,18.62,0,0,1-4.074,5.4,4.049,4.049,0,0,1-1.471.832,1.88,1.88,0,0,1-1.624-.258c-1.417-1.1-.557-2.442.5-3.207A18.877,18.877,0,0,0,2057.643,8221.405Z" fill="#f9c9a1"/>
      <path id="Trazado_3784" data-name="Trazado 3784" d="M2057.643,8225.89a15.211,15.211,0,0,1,2.2-2.648.969.969,0,0,1,.424-.226.844.844,0,0,1,.822.584c.427.983-.26,2.056-.792,2.985a19.093,19.093,0,0,1-4.631,5.044c-.44.359-.218,1.082-.766,1.229a1.884,1.884,0,0,1-1.624-.259c-1.417-1.1-.557-2.442.5-3.208A18.794,18.794,0,0,0,2057.643,8225.89Z" fill="#f9c9a1"/>
      <path id="Trazado_3785" data-name="Trazado 3785" d="M2023.989,8236.413a3.275,3.275,0,0,0-1.008.842,2.389,2.389,0,0,0,.149,2.321,13.927,13.927,0,0,0,7.484,7.047c3.892-3.49,6.265-6.185,12.054-8.621a7.7,7.7,0,0,0,3.449-4.122c1.156-3.258-4.137-7.914-8.037-6.289-2.5,1.043-4.724,2.89-6.938,4.291Z" fill="#f9c9a1"/>
      <path id="Trazado_3786" data-name="Trazado 3786" d="M2056.989,8217.911a15.225,15.225,0,0,1,2.2-2.65.966.966,0,0,1,.424-.225.842.842,0,0,1,.821.584c.427.982-.111,2.1-.643,3.026a18.635,18.635,0,0,1-4.075,5.4,4.023,4.023,0,0,1-1.471.832,1.877,1.877,0,0,1-1.624-.258c-1.417-1.1-.557-2.442.5-3.207A18.913,18.913,0,0,0,2056.989,8217.911Z" fill="#f9c9a1"/>
      <path id="Trazado_3787" data-name="Trazado 3787" d="M2060.432,8215.62a.842.842,0,0,0-.821-.584.8.8,0,0,0-.32.146.6.6,0,0,1,.751.345c.427.983-.534,2.189-1.066,3.12a18.632,18.632,0,0,1-4.074,5.4,4.038,4.038,0,0,1-1.471.832c-.052.014-.1.025-.158.035a2.129,2.129,0,0,0,.97-.035,4.023,4.023,0,0,0,1.471-.832,18.635,18.635,0,0,0,4.075-5.4C2060.321,8217.716,2060.859,8216.6,2060.432,8215.62Z" fill="#eab296"/>
      <path id="Trazado_3788" data-name="Trazado 3788" d="M2058.928,8227.928a14.544,14.544,0,0,1-4.01,3.271,3.824,3.824,0,0,0,1.155-.595c.6-.4,1.2-.8,1.795-1.223a10.411,10.411,0,0,0,1.924-1.88,5.928,5.928,0,0,0,1.3-2.1,2.989,2.989,0,0,0,.132-1.24,1.423,1.423,0,0,0-.424-.884A5.776,5.776,0,0,1,2058.928,8227.928Z" fill="#eab296"/>
      <path id="Trazado_3789" data-name="Trazado 3789" d="M2061.087,8219.114a.845.845,0,0,0-.822-.584.991.991,0,0,0-.442.241c.343-.105.711-.152.869.25a4.385,4.385,0,0,1-.629,3.35,19.856,19.856,0,0,1-4.508,5.343,4.509,4.509,0,0,1-1.173.733,2.245,2.245,0,0,0,.516-.074,4.038,4.038,0,0,0,1.471-.833,15.3,15.3,0,0,0,4.218-5.267A4.013,4.013,0,0,0,2061.087,8219.114Z" fill="#eab296"/>
      <path id="Trazado_3790" data-name="Trazado 3790" d="M2046.053,8211.4l-2.995,2.814a1.146,1.146,0,0,0-.477.825.763.763,0,0,0,.5.614,2.269,2.269,0,0,0,.824.113,2.622,2.622,0,0,0,1.133-.151,2.493,2.493,0,0,0,.867-.783,22.635,22.635,0,0,0,1.792-2.624,1.773,1.773,0,0,0,.305-.831C2048.027,8210.049,2046.485,8211,2046.053,8211.4Z" fill="#fff" opacity="0.53"/>
      <path id="Trazado_3791" data-name="Trazado 3791" d="M2039.132,8217.677a.508.508,0,0,1,.379-.312c.281-.037.517.228.6.5a2.376,2.376,0,0,1-.043,1.256,1.291,1.291,0,0,1-.3.658.468.468,0,0,1-.654.024.712.712,0,0,1-.082-.545,6.6,6.6,0,0,0,.068-.909A1.459,1.459,0,0,1,2039.132,8217.677Z" fill="#f7e2c6"/>
    </g>
    <g id="Grupo_3264" data-name="Grupo 3264">
      <path id="Trazado_3792" data-name="Trazado 3792" d="M1940.479,8189.69h.646l1.435-4.915-.675-.716-1.406,5.631Z" fill="#ef603f"/>
      <path id="Trazado_3793" data-name="Trazado 3793" d="M1941.944,8183.774c-.032.314-1.465,5.917-1.465,5.917l-.842-4.468.842-3.139Z" fill="#ed836e"/>
      <path id="Trazado_3794" data-name="Trazado 3794" d="M1928.318,8169.672v-4.813l26.352-22.13,4.528,3.223-30.88,23.72Z" fill="#ed836e"/>
      <path id="Trazado_3795" data-name="Trazado 3795" d="M1928.318,8169.672l17.816,18.893,28.166-24.844-15.1-17.769Z" fill="#ef603f"/>
      <path id="Trazado_3796" data-name="Trazado 3796" d="M1952.569,8151.013l4.913,27.541,5-4.412-4.684-27.148-5.231,4.019Z" fill="#f7d926"/>
      <path id="Trazado_3797" data-name="Trazado 3797" d="M1949.186,8163.789a1.473,1.473,0,0,0,1.3-.913,8.784,8.784,0,0,0,.46-1.618c.678-2.533,2.965-4.256,4.4-6.453a10.526,10.526,0,0,0,1.693-5.945.55.55,0,0,0-.152-.442.437.437,0,0,0-.3-.064,1.833,1.833,0,0,0-.98.5c-2.164,1.8-3.6,4.3-5.192,6.623a18.821,18.821,0,0,0-2.684,4.673c-.212.656-.574,1.766-.154,2.393C1947.891,8163.01,1948.6,8163.754,1949.186,8163.789Z" fill="#db523b"/>
      <path id="Trazado_3798" data-name="Trazado 3798" d="M1956.884,8148.421a.432.432,0,0,0-.3-.064,1.832,1.832,0,0,0-.98.5,17.1,17.1,0,0,0-2.858,3.181l.884,4.952a21.45,21.45,0,0,0,1.708-2.183,10.526,10.526,0,0,0,1.693-5.945A.549.549,0,0,0,1956.884,8148.421Z" fill="#e0af24"/>
      <path id="Trazado_3799" data-name="Trazado 3799" d="M1942.462,8155.737a3.936,3.936,0,0,0,2.522-.091,14.95,14.95,0,0,0,3.723-2.052,39.753,39.753,0,0,0,7.608-6.253c1.3-1.475,2.479-3.371,2.235-5.421a6.731,6.731,0,0,0-.483-1.721,5.278,5.278,0,0,0-1.232-1.958,4.742,4.742,0,0,0-2.92-1.028c-3.948-.287-7.785,1.205-11.365,2.945-1.86.9-3.861,2.089-4.469,4.2-.515,1.789.131,3.731.839,5.466C1939.639,8151.588,1940.545,8155.056,1942.462,8155.737Z" fill="#f9c9a1"/>
      <path id="Trazado_3800" data-name="Trazado 3800" d="M1963.126,8137.415a1.653,1.653,0,0,0,.327-.706,1.817,1.817,0,0,0-.091-.66,8.463,8.463,0,0,0-.463-1.411,8.038,8.038,0,0,0-2.869-2.993,10.713,10.713,0,0,0-4.9-2.124.805.805,0,0,0-.4.031.757.757,0,0,0-.307.319c-2.435,3.838-5.948,7.528-7.041,11.989-.116.474.827,1.183.86,1.681a3.939,3.939,0,0,0,1.123,2.341,5.7,5.7,0,0,0,4.01,1.8,6.561,6.561,0,0,0,5.291-2.935C1960.181,8142.318,1961.527,8139.8,1963.126,8137.415Z" fill="#f9c9a1"/>
      <path id="Trazado_3801" data-name="Trazado 3801" d="M1956.94,8149.864c-.82,2.461-2.671,4.3-4.335,6.293-1.435,1.718-3.048,3.488-3.363,5.7-.074.522-.155,1.172-.652,1.351-.536.193-1.043-.358-1.283-.876-.983-2.119-.553-4.6.047-6.862.947-3.561,2.369-7.17,5.136-9.6,1.1-.969,4.7-2.078,5.315-.4C1958.058,8146.166,1957.293,8148.8,1956.94,8149.864Z" fill="#f9c9a1"/>
      <path id="Trazado_3802" data-name="Trazado 3802" d="M1935.142,8153.324a2.695,2.695,0,0,0-.6,3.483l1.114,3.487a1.2,1.2,0,0,0,.41.687c.416.268.951-.057,1.332-.375q1.906-1.592,3.652-3.364a2.991,2.991,0,0,0,.671-.887,2.38,2.38,0,0,0,.12-1.165,9.983,9.983,0,0,0-1.694-4.112,3.285,3.285,0,0,0-.774-.959c-.9-.679-1.315.145-1.895.754Z" fill="#f9c9a1"/>
      <path id="Trazado_3803" data-name="Trazado 3803" d="M1936.36,8145.193a5.93,5.93,0,0,0,.055,2.212.761.761,0,0,1-.02.429.9.9,0,0,1-.3.3,3.03,3.03,0,0,0-1.049,2.128,6.915,6.915,0,0,0,.3,2.407,2.281,2.281,0,0,0,.862,1.455c.731.435,1.653,0,2.386-.431a4.417,4.417,0,0,0,2.087-1.963,5.25,5.25,0,0,0,.071-2.4,13.772,13.772,0,0,1,.127-3.6c.186-1.109,2.283-6.022,0-4.665C1939.754,8141.733,1936.64,8143.989,1936.36,8145.193Z" fill="#f9c9a1"/>
      <path id="Trazado_3804" data-name="Trazado 3804" d="M1935.3,8159.081a1.176,1.176,0,0,1-.1-.489c.02-.214,2.156-1.516.812-2.284-.7-.4.655.675,1.973-.728a8.536,8.536,0,0,0,2.023-2.815,3.8,3.8,0,0,1,.461,1.892,2.749,2.749,0,0,1-.383,1.06,10.229,10.229,0,0,1-1.478,1.846l-1.995,2.128c-.239.255-.474.68-.848.451A2,2,0,0,1,1935.3,8159.081Z" fill="#eab296"/>
      <g id="Grupo_3263" data-name="Grupo 3263">
        <path id="Trazado_3805" data-name="Trazado 3805" d="M1938.39,8156.035c-2.164,2.195-4.132,4.572-6.1,6.944a2.338,2.338,0,0,0-.77,1.96.7.7,0,0,0,.4.491.915.915,0,0,0,.695-.125,13.121,13.121,0,0,0,2.9-2.255q1.653-1.53,3.4-2.951a38.78,38.78,0,0,1,6.129-4.413c.668-.351,1.183-.543,1.483-1.289.333-.826.367-2.335-.513-2.869a14.825,14.825,0,0,0-2.843-.9C1942.7,8150.619,1939.339,8155.073,1938.39,8156.035Z" fill="#f9c9a1"/>
      </g>
      <path id="Trazado_3806" data-name="Trazado 3806" d="M1938.613,8150.577a.84.84,0,0,0,.151-.208.8.8,0,0,0,.053-.265,2.4,2.4,0,0,0-.224-1.153,5.361,5.361,0,0,1-1.9,2.427,16.226,16.226,0,0,1-1.39,1.042l.145.579A29.932,29.932,0,0,0,1938.613,8150.577Z" fill="#eab296"/>
      <path id="Trazado_3807" data-name="Trazado 3807" d="M1937.57,8146.656a1.427,1.427,0,0,0,.341-1.147,3.687,3.687,0,0,1-1.563,1.429v.975C1936.687,8147.551,1937.287,8147,1937.57,8146.656Z" fill="#eab296"/>
      <path id="Trazado_3808" data-name="Trazado 3808" d="M1948.709,8150.975a6.718,6.718,0,0,0-1.552,2.126,4.672,4.672,0,0,1-2.047,2.542c.53-.171.84-.363,1.5-.619a4.766,4.766,0,0,0,1.082-.749A10.561,10.561,0,0,1,1948.709,8150.975Z" fill="#eab296"/>
      <path id="Trazado_3809" data-name="Trazado 3809" d="M1931.694,8163.677a1.444,1.444,0,0,0-.326.856.352.352,0,0,0,.134.287.413.413,0,0,0,.393-.03,4.114,4.114,0,0,0,1.495-1.47.474.474,0,0,0,.108-.245.363.363,0,0,0-.061-.19.657.657,0,0,0-.492-.3C1932.386,8162.537,1931.959,8163.291,1931.694,8163.677Z" fill="#f7e2c6"/>
      <path id="Trazado_3810" data-name="Trazado 3810" d="M1949.079,8162.533c-.037.217-.1.476-.308.55a.407.407,0,0,1-.447-.183.969.969,0,0,1-.13-.5,3.357,3.357,0,0,1,.206-1.324,1.117,1.117,0,0,1,.691-.766.4.4,0,0,1,.327.048c.278.211.045.611-.039.861A8.615,8.615,0,0,0,1949.079,8162.533Z" fill="#f7e2c6"/>
      <path id="Trazado_3811" data-name="Trazado 3811" d="M1961.21,8148.319l-1.235-1.454,4.679,25.363,1.037-.915Z" fill="#f7d926"/>
    </g>
  </g>
</svg>
