<svg xmlns="http://www.w3.org/2000/svg" width="137.739" height="127.154" viewBox="0 0 137.739 127.154">
  <g id="Grupo_3343" data-name="Grupo 3343" transform="translate(-1922.004 -9097.605)">
    <g id="Grupo_3328" data-name="Grupo 3328">
      <g id="Grupo_3326" data-name="Grupo 3326">
        <path id="Trazado_4083" data-name="Trazado 4083" d="M2059.743,9186.529h0a8.924,8.924,0,0,1-9.172-8.657l.009-36.917v-5.931c0-5.588-2.875-10.115-6.421-10.115h-.881c-3.546,0-9.364,4.527-9.364,10.115H2005.94V9170.8h-17.807v15.728Z" fill="#4d7e80"/>
        <path id="Trazado_4084" data-name="Trazado 4084" d="M2051.962,9186.529h0a8.426,8.426,0,0,1-8.176-8.657l.008-36.917v-5.931c0-5.588-2.562-10.115-5.722-10.115h-.786c-3.161,0-8.346,4.527-8.346,10.115h-24.935V9170.8h-15.872v15.728Z" fill="#93c9c1" opacity="0.31"/>
        <path id="Trazado_4085" data-name="Trazado 4085" d="M2044.838,9124.909h-58.85c-4.773,0-8.643,4.527-8.643,10.115v.5h-.02v78.94c0,5.586-2.162,10.115-6.09,10.115h59.093c3.928,0,7.113-4.529,7.113-10.115v-78.94h0v-.5C2037.438,9129.437,2040.064,9124.909,2044.838,9124.909Z" fill="#e9f5f3"/>
        <path id="Trazado_4086" data-name="Trazado 4086" d="M2037.847,9125.089H1979c-4.774,0-8.643,4.529-8.643,10.115v.5h-.021v78.94c0,5.588-2.161,10.116-6.089,10.116h59.092c3.928,0,7.113-4.528,7.113-10.116V9135.7h0v-.5C2030.447,9129.618,2033.074,9125.089,2037.847,9125.089Z" fill="#dedede" opacity="0.59"/>
      </g>
      <g id="Grupo_3327" data-name="Grupo 3327">
        <path id="Trazado_4087" data-name="Trazado 4087" d="M2026.889,9214.464v-2.036h.014v-94.188c0-5.586-3.581-10.115-8-10.115h-1.1c-4.418,0-11.665,4.529-11.665,10.115H1971.29v35.777H1949.1v60.447c0,5.586,5.009,10.115,11.188,10.115h74.882C2029,9224.579,2026.889,9220.05,2026.889,9214.464Z" fill="#608385"/>
        <path id="Trazado_4088" data-name="Trazado 4088" d="M2017.9,9214.464v-2.036h.014v-94.188c0-5.586-3.569-10.115-7.972-10.115h-1.094c-4.4,0-11.625,4.529-11.625,10.115h-26.008v35.777H1949.1v60.447c0,5.586,4.992,10.115,11.149,10.115h65.9C2020,9224.579,2017.9,9220.05,2017.9,9214.464Z" fill="#93c9c1" opacity="0.59"/>
      </g>
    </g>
    <g id="Grupo_3329" data-name="Grupo 3329">
      <path id="Trazado_4089" data-name="Trazado 4089" d="M1934.443,9204.772l73.759-.011a1.962,1.962,0,0,0,2-1.92h0v-84.6c0-5.586,3.4-10.115,9.579-10.115h-76.175c-6.179,0-11.187,4.529-11.187,10.115v84.6h0A1.98,1.98,0,0,0,1934.443,9204.772Z" fill="#fafafa"/>
    </g>
    <g id="Grupo_3341" data-name="Grupo 3341">
      <g id="Grupo_3332" data-name="Grupo 3332">
        <path id="Trazado_4090" data-name="Trazado 4090" d="M1987.064,9182.85h-23.1a1.014,1.014,0,0,1-1.014-1.015h0a1.014,1.014,0,0,1,1.014-1.014h23.1a1.015,1.015,0,0,1,1.015,1.014h0A1.014,1.014,0,0,1,1987.064,9182.85Z" fill="#a3bbc4"/>
        <path id="Rect치ngulo_2873" data-name="Rect치ngulo 2873" d="M1.015,0H34.39A1.015,1.015,0,0,1,35.4,1.015v0a1.014,1.014,0,0,1-1.014,1.014H1.014A1.014,1.014,0,0,1,0,1.015v0A1.015,1.015,0,0,1,1.015,0Z" transform="translate(1962.949 9175.259)" fill="#a3bbc4"/>
        <g id="Grupo_3331" data-name="Grupo 3331">
          <g id="Grupo_3330" data-name="Grupo 3330">
            <path id="Trazado_4091" data-name="Trazado 4091" d="M1958.754,9188.562h-15.783v-15.782h15.783Zm-13.887-1.9h11.99v-11.991h-11.99Z" fill="#a3bbc4"/>
            <path id="Trazado_4092" data-name="Trazado 4092" d="M1950.452,9184.257l-3.9-3.155,1.45-1.574,2.238,1.81,3.919-4.253,1.664,1.346Z" fill="#c3d82e"/>
          </g>
          <path id="Trazado_4093" data-name="Trazado 4093" d="M1958.754,9188.562h-15.783v-15.782h15.783Zm-13.887-1.9h11.99v-11.991h-11.99Z" fill="#a3bbc4"/>
          <path id="Trazado_4094" data-name="Trazado 4094" d="M1950.452,9184.257l-3.9-3.155,1.45-1.574,2.238,1.81,3.919-4.253,1.664,1.346Z" fill="#c3d82e"/>
        </g>
      </g>
      <g id="Grupo_3336" data-name="Grupo 3336">
        <path id="Trazado_4095" data-name="Trazado 4095" d="M1997.339,9153.911h-33.376a1.014,1.014,0,0,1-1.014-1.014h0a1.014,1.014,0,0,1,1.014-1.016h33.376a1.015,1.015,0,0,1,1.015,1.016h0A1.014,1.014,0,0,1,1997.339,9153.911Z" fill="#a3bbc4"/>
        <path id="Trazado_4096" data-name="Trazado 4096" d="M1997.339,9159.473h-33.376a1.014,1.014,0,0,1-1.014-1.015h0a1.014,1.014,0,0,1,1.014-1.014h33.376a1.014,1.014,0,0,1,1.015,1.014h0A1.014,1.014,0,0,1,1997.339,9159.473Z" fill="#a3bbc4"/>
        <path id="Trazado_4097" data-name="Trazado 4097" d="M1983.672,9165.035h-19.709a1.014,1.014,0,0,1-1.014-1.016h0a1.014,1.014,0,0,1,1.014-1.014h19.709a1.014,1.014,0,0,1,1.015,1.014h0A1.015,1.015,0,0,1,1983.672,9165.035Z" fill="#a3bbc4"/>
        <g id="Grupo_3335" data-name="Grupo 3335">
          <g id="Grupo_3333" data-name="Grupo 3333">
            <path id="Trazado_4098" data-name="Trazado 4098" d="M1958.754,9166.547h-15.783v-15.783h15.783Zm-13.887-1.9h11.99v-11.99h-11.99Z" fill="#a3bbc4"/>
          </g>
          <g id="Grupo_3334" data-name="Grupo 3334">
            <path id="Trazado_4099" data-name="Trazado 4099" d="M1958.754,9166.547h-15.783v-15.783h15.783Zm-13.887-1.9h11.99v-11.99h-11.99Z" fill="#a3bbc4"/>
          </g>
          <path id="Trazado_4100" data-name="Trazado 4100" d="M1950.452,9162.242l-3.9-3.155,1.45-1.574,2.238,1.81,3.919-4.253,1.664,1.346Z" fill="#c3d82e"/>
        </g>
      </g>
      <g id="Grupo_3340" data-name="Grupo 3340">
        <path id="Trazado_4101" data-name="Trazado 4101" d="M1997.339,9137.4h-33.376a1.014,1.014,0,0,1-1.014-1.015h0a1.015,1.015,0,0,1,1.014-1.015h33.376a1.015,1.015,0,0,1,1.015,1.015h0A1.014,1.014,0,0,1,1997.339,9137.4Z" fill="#a3bbc4"/>
        <path id="Rect치ngulo_2874" data-name="Rect치ngulo 2874" d="M1.015,0H34.39A1.015,1.015,0,0,1,35.4,1.015v0a1.014,1.014,0,0,1-1.014,1.014H1.014A1.014,1.014,0,0,1,0,1.015v0A1.015,1.015,0,0,1,1.015,0Z" transform="translate(1962.949 9129.813)" fill="#a3bbc4"/>
        <g id="Grupo_3339" data-name="Grupo 3339">
          <g id="Grupo_3337" data-name="Grupo 3337">
            <path id="Trazado_4102" data-name="Trazado 4102" d="M1958.754,9144.573h-15.783V9128.79h15.783Zm-13.887-1.9h11.99v-11.99h-11.99Z" fill="#a3bbc4"/>
          </g>
          <g id="Grupo_3338" data-name="Grupo 3338">
            <path id="Trazado_4103" data-name="Trazado 4103" d="M1958.754,9144.573h-15.783V9128.79h15.783Zm-13.887-1.9h11.99v-11.99h-11.99Z" fill="#a3bbc4"/>
          </g>
          <path id="Trazado_4104" data-name="Trazado 4104" d="M1950.452,9140.268l-3.9-3.155,1.45-1.574,2.238,1.81,3.919-4.253,1.664,1.346Z" fill="#c3d82e"/>
        </g>
      </g>
    </g>
    <g id="Grupo_3342" data-name="Grupo 3342">
      <path id="Trazado_4105" data-name="Trazado 4105" d="M1931.1,9104.99a.826.826,0,0,1-.289.642,1.02,1.02,0,0,1-1.392-.192l-3.615-4.039a.949.949,0,0,1,0-1.363,1.021,1.021,0,0,1,1.393.193l3.614,4.038A1.093,1.093,0,0,1,1931.1,9104.99Z" fill="#f5f5eb"/>
      <path id="Trazado_4106" data-name="Trazado 4106" d="M1936.2,9098.716v4.377a.829.829,0,0,1-.985.827,1.156,1.156,0,0,1-.984-1.1v-4.377a.829.829,0,0,1,.984-.828A1.157,1.157,0,0,1,1936.2,9098.716Z" fill="#f5f5eb"/>
      <path id="Trazado_4107" data-name="Trazado 4107" d="M1928.444,9109.613a.83.83,0,0,1-.984.828l-4.471-.619a1.158,1.158,0,0,1-.985-1.1.83.83,0,0,1,.985-.827l4.471.619A1.156,1.156,0,0,1,1928.444,9109.613Z" fill="#f5f5eb"/>
    </g>
  </g>
</svg>
