<svg xmlns="http://www.w3.org/2000/svg" xmlns:xlink="http://www.w3.org/1999/xlink" width="152.444" height="152.443" viewBox="0 0 152.444 152.443">
  <defs>
    <linearGradient id="linear-gradient" y1="0.5" x2="1" y2="0.5" gradientUnits="objectBoundingBox">
      <stop offset="0" stop-color="#f6cf0b"/>
      <stop offset="1" stop-color="#f4c316"/>
    </linearGradient>
  </defs>
  <g id="Grupo_6742" data-name="Grupo 6742" transform="translate(-3396.354 -3265.002)">
    <path id="Trazado_853" data-name="Trazado 853" d="M3472.576,3265q3.744,0,7.471.367t7.4,1.1q3.672.729,7.256,1.817t7.043,2.52q3.459,1.433,6.761,3.2t6.416,3.845q3.114,2.08,6.008,4.456t5.543,5.024q2.648,2.648,5.023,5.542t4.456,6.008q2.081,3.112,3.845,6.416t3.2,6.762q1.434,3.459,2.52,7.042t1.818,7.256q.731,3.673,1.1,7.4t.368,7.471q0,3.746-.368,7.471t-1.1,7.4q-.731,3.672-1.818,7.255t-2.52,7.043q-1.433,3.459-3.2,6.762t-3.845,6.416q-2.08,3.112-4.456,6.008t-5.023,5.542q-2.649,2.649-5.543,5.023t-6.008,4.456q-3.113,2.08-6.416,3.846t-6.761,3.2q-3.461,1.432-7.043,2.52t-7.256,1.817q-3.672.732-7.4,1.1t-7.471.367q-3.744,0-7.471-.367t-7.4-1.1q-3.673-.731-7.256-1.817t-7.043-2.52q-3.459-1.434-6.762-3.2t-6.416-3.846q-3.112-2.079-6.008-4.456t-5.542-5.023q-2.647-2.648-5.023-5.542t-4.456-6.008q-2.08-3.114-3.846-6.416t-3.2-6.762q-1.433-3.459-2.52-7.043t-1.817-7.255q-.731-3.673-1.1-7.4t-.367-7.471q0-3.744.367-7.471t1.1-7.4q.73-3.672,1.817-7.256t2.52-7.042q1.434-3.46,3.2-6.762t3.846-6.416q2.08-3.114,4.456-6.008t5.023-5.542q2.648-2.649,5.542-5.024t6.008-4.456q3.114-2.079,6.416-3.845t6.762-3.2q3.459-1.434,7.043-2.52t7.256-1.817q3.672-.732,7.4-1.1T3472.576,3265Z" fill="#e6b54a"/>
    <circle id="Elipse_20" data-name="Elipse 20" cx="71.597" cy="71.597" r="71.597" transform="translate(3400.979 3269.627)" fill="#fff"/>
    <circle id="Elipse_21" data-name="Elipse 21" cx="65.13" cy="65.13" r="65.13" transform="translate(3407.446 3276.093)" fill="#35c1d9"/>
    <g id="Grupo_797" data-name="Grupo 797">
      <path id="Trazado_870" data-name="Trazado 870" d="M3507.362,3318.486l1.213-2.258a3.778,3.778,0,0,0-1.364-5.292l-4.988-2.874a8.911,8.911,0,0,0,2.573-2.718,8.025,8.025,0,0,0-13.9-8.015,10.949,10.949,0,0,0-1.062,3.63l-6.65-3.931a3.822,3.822,0,0,0-5.29,1.515l-1.359,2.259-8.468-4.987a6.416,6.416,0,0,0-8.764,2.269l-32.5,56.231a6.61,6.61,0,0,0,2.416,8.768l47.918,27.662a6.427,6.427,0,0,0,8.614-2.42l32.5-56.382a6.073,6.073,0,0,0-2.265-8.468Z" fill="#fff"/>
      <path id="Trazado_871" data-name="Trazado 871" d="M3481.82,3382.126h0a3.247,3.247,0,0,1-4.535,1.214l-41.874-24.189a3.28,3.28,0,0,1-1.207-4.535l29.026-50.335a3.448,3.448,0,0,1,4.53-1.209l5.593,3.178a3.474,3.474,0,0,0,1.062,4.53l25.24,14.513a3.077,3.077,0,0,0,4.385-1.214l5.593,3.178a3.131,3.131,0,0,1,1.209,4.534Z" fill="#67cdfd"/>
      <path id="Trazado_872" data-name="Trazado 872" d="M3493.761,3298.99h0a4.634,4.634,0,0,1,6.5-1.811,4.853,4.853,0,0,1,1.661,6.65,5.228,5.228,0,0,1-3.171,2.264l-5.442-3.171a4.569,4.569,0,0,1,.453-3.932Z" fill="#fefefe"/>
      <path id="Trazado_873" data-name="Trazado 873" d="M3472.9,3359.755h0a17.156,17.156,0,1,1,17.08-17.08,17.094,17.094,0,0,1-17.08,17.08Z" fill="#fefefe"/>
      <path id="Trazado_874" data-name="Trazado 874" d="M3472.9,3318.946h0a23.73,23.73,0,1,0,23.584,23.729,23.642,23.642,0,0,0-23.584-23.729Z" fill="url(#linear-gradient)"/>
      <path id="Trazado_875" data-name="Trazado 875" d="M3479.4,3335.266h0a2.417,2.417,0,0,1,1.661-.752,2.248,2.248,0,0,1,1.661.6l1.359,1.209a2.368,2.368,0,0,1,0,3.322l-12.092,12.852a3.171,3.171,0,0,1-1.661.6,1.834,1.834,0,0,1-1.666-.6l-6.952-6.956a2.371,2.371,0,0,1,0-3.323l1.213-1.209a2.2,2.2,0,0,1,3.323,0l4.082,3.927Z" fill="#67cdfd"/>
    </g>
  </g>
</svg>
