<svg xmlns="http://www.w3.org/2000/svg" xmlns:xlink="http://www.w3.org/1999/xlink" width="412.442" height="248.214" viewBox="0 0 412.442 248.214">
  <defs>
    <clipPath id="clip-path">
      <path id="Trazado_851" data-name="Trazado 851" d="M3798.706,2381.193l-151.15,87.837,105.639,60.991,107.247,61.917,151.147-87.837-105.62-60.978Z" fill="none"/>
    </clipPath>
  </defs>
  <g id="Grupo_796" data-name="Grupo 796" transform="translate(-3617.462 -2369.656)">
    <path id="Trazado_815" data-name="Trazado 815" d="M4020.623,2507.1l-109.082-62.977-109.078-62.978c-5.223-3.015-13.68-3.015-18.869,0l-162.258,94.295c-5.189,3.016-5.162,7.915.061,10.928l218.16,125.958c5.224,3.013,13.681,3.013,18.869,0l162.258-94.294C4025.875,2515.014,4025.846,2510.114,4020.623,2507.1ZM3855.1,2601.166,3640.59,2477.322l152.773-88.781,107.262,61.93,107.242,61.915Z" fill="#7ba8ba"/>
    <g id="Grupo_795" data-name="Grupo 795">
      <g id="Grupo_766" data-name="Grupo 766">
        <g id="Grupo_765" data-name="Grupo 765">
          <path id="Trazado_816" data-name="Trazado 816" d="M4013.211,2503.158l-152.77,88.78-107.247-61.917-107.262-61.927,152.773-88.781,107.263,61.93Z" fill="#d1d3d4"/>
        </g>
        <path id="Trazado_817" data-name="Trazado 817" d="M3798.706,2381.193l-151.15,87.837,105.639,60.991,107.247,61.917,151.147-87.837-105.62-60.978Z" fill="#fdc00f"/>
        <path id="Trazado_818" data-name="Trazado 818" d="M4025.967,2497.871,3916.884,2434.9l-109.078-62.979c-5.223-3.014-13.68-3.014-18.868,0l-162.259,94.295c-5.189,3.017-5.162,7.916.061,10.929L3844.9,2603.1c5.223,3.012,13.68,3.012,18.868,0l162.258-94.294C4031.219,2505.786,4031.189,2500.887,4025.967,2497.871Zm-165.525,94.068-214.509-123.845,152.773-88.781,107.263,61.93,107.242,61.915Z" fill="#16c5d5"/>
        <path id="Trazado_819" data-name="Trazado 819" d="M4026.027,2508.8,3863.769,2603.1c-5.188,3.012-13.645,3.012-18.868,0L3735.82,2540.12l-109.08-62.98c-2.628-1.518-3.941-3.51-3.934-5.5q-.019,6.258-.036,12.51c-.006,1.992,1.306,3.989,3.936,5.5l109.079,62.977h0l109.081,62.975c5.222,3.019,13.677,3.019,18.868,0l162.26-94.291c2.576-1.5,3.866-3.462,3.872-5.427q.018-6.253.038-12.512C4029.894,2505.339,4028.607,2507.3,4026.027,2508.8Z" fill="#13a4b2"/>
      </g>
      <g id="Grupo_794" data-name="Grupo 794">
        <g id="Grupo_793" data-name="Grupo 793" clip-path="url(#clip-path)">
          <g id="Grupo_767" data-name="Grupo 767">
            <path id="Trazado_820" data-name="Trazado 820" d="M3810.619,2393.492l34.131,19.834.2-.116,28.114,16.338,28.509-16.459-34.133-19.834-.2.117L3846,2381.024l.2-.117-34.133-19.836-28.507,16.459,27.263,15.844Z" fill="#fbf0e5"/>
            <path id="Trazado_821" data-name="Trazado 821" d="M3848.281,2514.245l-87.305,50.407,40.1,23.3,87.3-50.4Z" fill="#fbf0e5"/>
            <path id="Trazado_822" data-name="Trazado 822" d="M3805.685,2590.642l37.093,21.555,3.009,1.742,87.3-50.4-40.1-23.3Z" fill="#fbf0e5"/>
            <path id="Trazado_823" data-name="Trazado 823" d="M3778.56,2473.729l-3.013-1.756-87.309,50.408L3729.4,2546.3l87.3-50.406Z" fill="#fbf0e5"/>
            <path id="Trazado_824" data-name="Trazado 824" d="M3745.808,2446.455l28.382,16.493,69.455-40.1-69.063-40.135-28.508,16.459,40.682,23.642Z" fill="#fbf0e5"/>
            <path id="Trazado_825" data-name="Trazado 825" d="M3715.441,2484.775c7.423-4.285,11.922-10.284,12.665-16.893a17.537,17.537,0,0,0-1.964-10.259l23.271-13.436-40.521-23.548-98.184,56.686,40.522,23.549,20.889-12.06a59.419,59.419,0,0,0,16.888,2.379C3698.884,2491.193,3708.271,2488.914,3715.441,2484.775Z" fill="#fbf0e5"/>
            <path id="Trazado_826" data-name="Trazado 826" d="M3897.491,2532.284l104.735-60.469-40.1-23.3-104.735,60.468Z" fill="#fbf0e5"/>
            <path id="Trazado_827" data-name="Trazado 827" d="M3854.008,2426.674l-69.35,40.038,64.133,37.271,3.011,1.753,104.737-60.471-42.652-24.787-35.385,20.431Z" fill="#fbf0e5"/>
            <path id="Trazado_828" data-name="Trazado 828" d="M4007.126,2474.847l-104.736,60.469,40.1,23.3,95.752-55.281,8.98-5.188Z" fill="#fbf0e5"/>
          </g>
          <g id="Grupo_792" data-name="Grupo 792">
            <g id="Grupo_769" data-name="Grupo 769">
              <g id="Grupo_768" data-name="Grupo 768">
                <path id="Trazado_829" data-name="Trazado 829" d="M3822.609,2393.508l22.152,12.873,16.508-9.531-22.151-12.872Z" fill="#ffd8ae"/>
                <path id="Trazado_830" data-name="Trazado 830" d="M3844.76,2406.936l-23.107-13.429,17.464-10.084,23.108,13.429Zm-21.194-13.426,21.2,12.317,15.551-8.978-21.2-12.317Z" fill="#fca37c"/>
              </g>
            </g>
            <g id="Grupo_771" data-name="Grupo 771">
              <g id="Grupo_770" data-name="Grupo 770">
                <path id="Trazado_831" data-name="Trazado 831" d="M3795.548,2377.548l22.153,12.873,16.507-9.531-22.152-12.873Z" fill="#ffd8ae"/>
                <path id="Trazado_832" data-name="Trazado 832" d="M3817.7,2390.975l-23.108-13.429,17.464-10.084,23.109,13.43Zm-21.2-13.426,21.2,12.318,15.55-8.978-21.2-12.318Z" fill="#fca37c"/>
              </g>
            </g>
            <g id="Grupo_773" data-name="Grupo 773">
              <g id="Grupo_772" data-name="Grupo 772">
                <path id="Trazado_833" data-name="Trazado 833" d="M3772.966,2564.669l28.115,16.338,75.3-43.476-28.116-16.34Z" fill="#ffd8ae"/>
                <path id="Trazado_834" data-name="Trazado 834" d="M3801.081,2581.56l-29.072-16.892,76.261-44.03.24.138,28.833,16.756Zm-27.158-16.89,27.159,15.783,74.347-42.923-27.16-15.785Z" fill="#fca37c"/>
              </g>
            </g>
            <g id="Grupo_775" data-name="Grupo 775">
              <g id="Grupo_774" data-name="Grupo 774">
                <path id="Trazado_835" data-name="Trazado 835" d="M3817.677,2590.658,3845.792,2607l75.3-43.478-28.115-16.338Z" fill="#ffd8ae"/>
                <path id="Trazado_836" data-name="Trazado 836" d="M3845.791,2607.55l-.241-.139-28.831-16.754,76.262-44.03,29.071,16.894Zm-27.158-16.892,27.159,15.783,74.346-42.922-27.159-15.784Z" fill="#fca37c"/>
              </g>
            </g>
            <g id="Grupo_777" data-name="Grupo 777">
              <g id="Grupo_776" data-name="Grupo 776">
                <path id="Trazado_837" data-name="Trazado 837" d="M3700.229,2522.4l29.18,16.958,75.3-43.477-29.181-16.957Z" fill="#ffd8ae"/>
                <path id="Trazado_838" data-name="Trazado 838" d="M3729.408,2539.909l-.24-.138-29.9-17.375,76.261-44.029.241.14,29.9,17.374Zm-28.222-17.51,28.224,16.4,74.346-42.924-28.225-16.4Z" fill="#fca37c"/>
              </g>
            </g>
            <g id="Grupo_782" data-name="Grupo 782">
              <g id="Grupo_779" data-name="Grupo 779">
                <g id="Grupo_778" data-name="Grupo 778">
                  <path id="Trazado_839" data-name="Trazado 839" d="M3758.065,2399.189l40.682,23.642-40.947,23.641,16.4,9.531,40.948-23.641,16.508-9.531-16.4-9.532-40.682-23.641Z" fill="#ffd8ae"/>
                  <path id="Trazado_840" data-name="Trazado 840" d="M3774.2,2456.557l-17.357-10.086,40.948-23.641-40.682-23.642,17.465-10.084,58.039,33.729Zm-15.442-10.084,15.443,8.976,56.5-32.619-56.126-32.618-15.55,8.978,40.683,23.643Z" fill="#fca37c"/>
                </g>
              </g>
              <g id="Grupo_781" data-name="Grupo 781">
                <g id="Grupo_780" data-name="Grupo 780">
                  <path id="Trazado_841" data-name="Trazado 841" d="M3622.7,2477.343l28.542,16.586,20.206-11.666c12.755,4.647,29.831,3.752,40.991-2.692s12.762-16.331,4.78-23.735l20.206-11.665-28.541-16.586Z" fill="#ffd8ae"/>
                  <path id="Trazado_842" data-name="Trazado 842" d="M3651.239,2494.483l-29.5-17.142,87.142-50.311,29.5,17.141-20.37,11.761c3.464,3.409,5.053,7.316,4.6,11.332-.543,4.819-4.071,9.338-9.935,12.722-6.342,3.662-14.748,5.678-23.669,5.678a52.49,52.49,0,0,1-17.514-2.875Zm-27.584-17.139,27.586,16.03,20.159-11.639.211.077a51.417,51.417,0,0,0,17.4,2.892c8.756,0,16.991-1.971,23.189-5.549,5.594-3.228,8.954-7.49,9.461-12,.437-3.878-1.211-7.67-4.767-10.967l-.476-.442,20.052-11.577-27.585-16.031Z" fill="#fca37c"/>
                </g>
              </g>
            </g>
            <g id="Grupo_784" data-name="Grupo 784">
              <g id="Grupo_783" data-name="Grupo 783">
                <path id="Trazado_843" data-name="Trazado 843" d="M3869.385,2509l28.116,16.34,92.734-53.542-28.115-16.339Z" fill="#ffd8ae"/>
                <path id="Trazado_844" data-name="Trazado 844" d="M3897.5,2525.894l-29.072-16.9,93.692-54.093,29.073,16.894ZM3870.343,2509l27.159,15.784,91.777-52.988-27.159-15.783Z" fill="#fca37c"/>
              </g>
            </g>
            <g id="Grupo_789" data-name="Grupo 789">
              <g id="Grupo_786" data-name="Grupo 786">
                <g id="Grupo_785" data-name="Grupo 785">
                  <path id="Trazado_845" data-name="Trazado 845" d="M3850.927,2409.73l22.151,12.873,16.507-9.531-22.15-12.873Z" fill="#ffd8ae"/>
                  <path id="Trazado_846" data-name="Trazado 846" d="M3873.077,2423.157l-23.107-13.427,17.466-10.084,23.107,13.427Zm-21.193-13.426,21.2,12.317,15.549-8.977-21.194-12.318Z" fill="#fca37c"/>
                </g>
              </g>
              <g id="Grupo_788" data-name="Grupo 788">
                <g id="Grupo_787" data-name="Grupo 787">
                  <path id="Trazado_847" data-name="Trazado 847" d="M3796.648,2466.729l55.166,32.06,57.35-33.111,35.386-20.43-30.671-17.824-35.387,20.43L3854,2433.619Z" fill="#ffd8ae"/>
                  <path id="Trazado_848" data-name="Trazado 848" d="M3851.813,2499.344l-.24-.141-55.882-32.475L3854,2433.065l24.495,14.235,35.385-20.43,31.628,18.379Zm-54.208-32.613,54.21,31.5,91.777-52.988-29.715-17.268-35.386,20.429L3854,2434.174Z" fill="#fca37c"/>
                </g>
              </g>
            </g>
            <g id="Grupo_791" data-name="Grupo 791">
              <g id="Grupo_790" data-name="Grupo 790">
                <path id="Trazado_849" data-name="Trazado 849" d="M3914.381,2535.333l28.116,16.34,92.734-53.541-28.115-16.34Z" fill="#ffd8ae"/>
                <path id="Trazado_850" data-name="Trazado 850" d="M3942.5,2552.226l-29.072-16.9,93.692-54.093,29.073,16.9-.717.414Zm-27.158-16.892,27.16,15.783,91.777-52.986-27.161-15.784Z" fill="#fca37c"/>
              </g>
            </g>
          </g>
        </g>
      </g>
    </g>
  </g>
</svg>
