<svg xmlns="http://www.w3.org/2000/svg" xmlns:xlink="http://www.w3.org/1999/xlink" width="152.443" height="152.443" viewBox="0 0 152.443 152.443">
  <defs>
    <linearGradient id="linear-gradient" x1="0.302" y1="434.683" x2="0.51" y2="434.683" gradientUnits="objectBoundingBox">
      <stop offset="0" stop-color="#cc8241"/>
      <stop offset="1" stop-color="#dea861"/>
    </linearGradient>
    <linearGradient id="linear-gradient-2" x1="311.28" y1="483.353" x2="311.839" y2="482.816" gradientUnits="objectBoundingBox">
      <stop offset="0" stop-color="#dea861"/>
      <stop offset="1" stop-color="#ebcba0"/>
    </linearGradient>
    <linearGradient id="linear-gradient-3" x1="0.302" y1="436.519" x2="0.51" y2="436.519" xlink:href="#linear-gradient"/>
    <linearGradient id="linear-gradient-4" x1="313.398" y1="485.406" x2="313.958" y2="484.869" xlink:href="#linear-gradient-2"/>
    <linearGradient id="linear-gradient-5" x1="0.302" y1="438.166" x2="0.51" y2="438.166" xlink:href="#linear-gradient"/>
    <linearGradient id="linear-gradient-6" x1="315.304" y1="487.183" x2="315.864" y2="486.646" xlink:href="#linear-gradient-2"/>
    <linearGradient id="linear-gradient-7" x1="0.302" y1="437.267" x2="0.51" y2="437.267" xlink:href="#linear-gradient"/>
    <linearGradient id="linear-gradient-8" x1="308.292" y1="486.236" x2="308.851" y2="485.699" xlink:href="#linear-gradient-2"/>
    <linearGradient id="linear-gradient-9" x1="104.24" y1="188.101" x2="104.298" y2="188.101" xlink:href="#linear-gradient"/>
    <linearGradient id="linear-gradient-10" x1="104.326" y1="166.241" x2="104.743" y2="165.829" xlink:href="#linear-gradient-2"/>
    <linearGradient id="linear-gradient-11" x1="103.244" y1="189.216" x2="103.302" y2="189.216" xlink:href="#linear-gradient"/>
    <linearGradient id="linear-gradient-12" x1="103.331" y1="167.228" x2="103.748" y2="166.816" xlink:href="#linear-gradient-2"/>
    <linearGradient id="linear-gradient-13" x1="0.188" y1="216.029" x2="0.246" y2="216.029" xlink:href="#linear-gradient"/>
    <linearGradient id="linear-gradient-14" x1="0.269" y1="187.76" x2="0.695" y2="187.341" xlink:href="#linear-gradient-2"/>
    <linearGradient id="linear-gradient-15" x1="0.188" y1="215.248" x2="0.246" y2="215.248" xlink:href="#linear-gradient"/>
    <linearGradient id="linear-gradient-16" x1="0.269" y1="187.083" x2="0.695" y2="186.664" xlink:href="#linear-gradient-2"/>
    <linearGradient id="linear-gradient-17" x1="0.188" y1="214.463" x2="0.246" y2="214.463" xlink:href="#linear-gradient"/>
    <linearGradient id="linear-gradient-18" x1="0.269" y1="186.408" x2="0.695" y2="185.989" xlink:href="#linear-gradient-2"/>
  </defs>
  <g id="Grupo_6749" data-name="Grupo 6749" transform="translate(-3761.889 -4287.674)">
    <path id="Trazado_861" data-name="Trazado 861" d="M3838.11,4287.674q3.745,0,7.471.367t7.4,1.1q3.673.729,7.256,1.817t7.043,2.52q3.459,1.433,6.762,3.2t6.416,3.845q3.112,2.08,6.008,4.456t5.542,5.024q2.647,2.648,5.023,5.542t4.456,6.008q2.08,3.113,3.846,6.416t3.2,6.762q1.433,3.459,2.52,7.042t1.817,7.256q.731,3.674,1.1,7.4t.367,7.471q0,3.746-.367,7.471t-1.1,7.4q-.731,3.672-1.817,7.255t-2.52,7.043q-1.434,3.459-3.2,6.762t-3.846,6.416q-2.08,3.112-4.456,6.008t-5.023,5.542q-2.648,2.649-5.542,5.023t-6.008,4.456q-3.114,2.081-6.416,3.846t-6.762,3.2q-3.459,1.433-7.043,2.52t-7.256,1.817q-3.672.732-7.4,1.1t-7.471.367q-3.744,0-7.471-.367t-7.4-1.1q-3.672-.73-7.256-1.817t-7.043-2.52q-3.459-1.434-6.761-3.2t-6.416-3.846q-3.114-2.079-6.008-4.456t-5.543-5.023q-2.647-2.648-5.023-5.542t-4.456-6.008q-2.08-3.114-3.845-6.416t-3.2-6.762q-1.434-3.459-2.52-7.043t-1.818-7.255q-.731-3.674-1.1-7.4t-.367-7.471q0-3.744.367-7.471t1.1-7.4q.731-3.672,1.818-7.256t2.52-7.042q1.433-3.461,3.2-6.762t3.845-6.416q2.081-3.114,4.456-6.008t5.023-5.542q2.649-2.649,5.543-5.024t6.008-4.456q3.113-2.079,6.416-3.845t6.761-3.2q3.461-1.434,7.043-2.52t7.256-1.817q3.672-.732,7.4-1.1T3838.11,4287.674Z" fill="#e6b54a"/>
    <circle id="Elipse_28" data-name="Elipse 28" cx="71.597" cy="71.597" r="71.597" transform="translate(3766.514 4292.299)" fill="#fff"/>
    <circle id="Elipse_29" data-name="Elipse 29" cx="65.13" cy="65.13" r="65.13" transform="translate(3772.98 4298.765)" fill="#35c1d9"/>
    <g id="Grupo_833" data-name="Grupo 833">
      <g id="Grupo_816" data-name="Grupo 816">
        <g id="Grupo_815" data-name="Grupo 815">
          <path id="Trazado_932" data-name="Trazado 932" d="M3835.386,4393.915v-7.488l23.682-2.374v7.488a1.256,1.256,0,0,1-.634,1.1l-11.853,6.844a2.727,2.727,0,0,1-2.725,0l-7.836-4.469a1.258,1.258,0,0,1-.634-1.1Z" fill="url(#linear-gradient)"/>
          <path id="Trazado_933" data-name="Trazado 933" d="M3858.434,4382.955l-7.836-4.469a2.725,2.725,0,0,0-2.725,0l-11.853,6.843a1.268,1.268,0,0,0,0,2.2l7.836,4.469a2.73,2.73,0,0,0,2.725,0l11.853-6.844a1.267,1.267,0,0,0,0-2.2Z" fill="url(#linear-gradient-2)"/>
        </g>
      </g>
      <g id="Grupo_818" data-name="Grupo 818">
        <g id="Grupo_817" data-name="Grupo 817">
          <path id="Trazado_934" data-name="Trazado 934" d="M3810.3,4379.419v-7.488l23.682-2.374v7.488a1.255,1.255,0,0,1-.634,1.1l-11.853,6.844a2.727,2.727,0,0,1-2.725,0l-7.836-4.469A1.256,1.256,0,0,1,3810.3,4379.419Z" fill="url(#linear-gradient-3)"/>
          <path id="Trazado_935" data-name="Trazado 935" d="M3833.348,4368.459l-7.836-4.469a2.722,2.722,0,0,0-2.725,0l-11.853,6.843a1.268,1.268,0,0,0,0,2.2l7.836,4.469a2.73,2.73,0,0,0,2.725,0l11.853-6.844A1.267,1.267,0,0,0,3833.348,4368.459Z" fill="url(#linear-gradient-4)"/>
        </g>
      </g>
      <g id="Grupo_820" data-name="Grupo 820">
        <g id="Grupo_819" data-name="Grupo 819">
          <path id="Trazado_936" data-name="Trazado 936" d="M3787.806,4366.413v-7.488l23.683-2.374v7.487a1.258,1.258,0,0,1-.634,1.1L3799,4371.98a2.723,2.723,0,0,1-2.724,0l-7.837-4.469A1.256,1.256,0,0,1,3787.806,4366.413Z" fill="url(#linear-gradient-5)"/>
          <path id="Trazado_937" data-name="Trazado 937" d="M3810.855,4355.452l-7.837-4.469a2.723,2.723,0,0,0-2.724,0l-11.854,6.844a1.268,1.268,0,0,0,0,2.2l7.837,4.469a2.723,2.723,0,0,0,2.724,0l11.854-6.843A1.269,1.269,0,0,0,3810.855,4355.452Z" fill="url(#linear-gradient-6)"/>
        </g>
      </g>
      <g id="Grupo_822" data-name="Grupo 822">
        <g id="Grupo_821" data-name="Grupo 821">
          <path id="Trazado_938" data-name="Trazado 938" d="M3870.882,4373.512v-7.488l23.682-2.374v7.487a1.256,1.256,0,0,1-.634,1.1l-11.853,6.843a2.725,2.725,0,0,1-2.725,0l-7.836-4.469a1.254,1.254,0,0,1-.634-1.1Z" fill="url(#linear-gradient-7)"/>
          <path id="Trazado_939" data-name="Trazado 939" d="M3893.93,4362.551l-7.836-4.469a2.73,2.73,0,0,0-2.725,0l-11.853,6.844a1.267,1.267,0,0,0,0,2.2l7.836,4.469a2.722,2.722,0,0,0,2.725,0l11.853-6.843A1.269,1.269,0,0,0,3893.93,4362.551Z" fill="url(#linear-gradient-8)"/>
        </g>
      </g>
      <g id="Grupo_824" data-name="Grupo 824">
        <g id="Grupo_823" data-name="Grupo 823">
          <path id="Trazado_940" data-name="Trazado 940" d="M3787.806,4359.047v-3.334l71.262,25.1v3.334a1.257,1.257,0,0,1-.634,1.1l-11.853,6.843a2.723,2.723,0,0,1-2.725,0l-55.416-31.948a1.256,1.256,0,0,1-.634-1.1Z" fill="url(#linear-gradient-9)"/>
          <path id="Trazado_941" data-name="Trazado 941" d="M3858.434,4379.718l-55.416-31.947a2.723,2.723,0,0,0-2.724,0l-11.854,6.843a1.269,1.269,0,0,0,0,2.2l55.416,31.948a2.727,2.727,0,0,0,2.725,0l11.853-6.844A1.268,1.268,0,0,0,3858.434,4379.718Z" fill="url(#linear-gradient-10)"/>
        </g>
      </g>
      <g id="Grupo_826" data-name="Grupo 826">
        <g id="Grupo_825" data-name="Grupo 825">
          <path id="Trazado_942" data-name="Trazado 942" d="M3823.3,4338.5v-3.334l71.262,25.1v3.335a1.255,1.255,0,0,1-.634,1.1l-11.853,6.844a2.727,2.727,0,0,1-2.725,0l-55.416-31.948a1.257,1.257,0,0,1-.634-1.1Z" fill="url(#linear-gradient-11)"/>
          <path id="Trazado_943" data-name="Trazado 943" d="M3893.93,4359.176l-55.416-31.948a2.729,2.729,0,0,0-2.725,0l-11.853,6.844a1.268,1.268,0,0,0,0,2.2l55.416,31.948a2.722,2.722,0,0,0,2.725,0l11.853-6.843A1.269,1.269,0,0,0,3893.93,4359.176Z" fill="url(#linear-gradient-12)"/>
        </g>
      </g>
      <g id="Grupo_828" data-name="Grupo 828">
        <g id="Grupo_827" data-name="Grupo 827">
          <path id="Trazado_944" data-name="Trazado 944" d="M3851.163,4335.184v-3.335l-63.357,20.585v3.334a1.258,1.258,0,0,0,.634,1.1l11.854,6.843a2.723,2.723,0,0,0,2.724,0l47.511-27.428a1.256,1.256,0,0,0,.634-1.1Z" fill="url(#linear-gradient-13)"/>
          <path id="Trazado_945" data-name="Trazado 945" d="M3788.44,4351.336l47.511-27.428a2.723,2.723,0,0,1,2.725,0l11.853,6.843a1.268,1.268,0,0,1,0,2.2l-47.511,27.428a2.723,2.723,0,0,1-2.724,0l-11.854-6.844a1.268,1.268,0,0,1,0-2.2Z" fill="url(#linear-gradient-14)"/>
        </g>
      </g>
      <g id="Grupo_830" data-name="Grupo 830">
        <g id="Grupo_829" data-name="Grupo 829">
          <path id="Trazado_946" data-name="Trazado 946" d="M3872.867,4347.773v-3.335l-63.357,20.585v3.334a1.258,1.258,0,0,0,.635,1.1L3822,4376.3a2.72,2.72,0,0,0,2.724,0l47.511-27.428a1.255,1.255,0,0,0,.634-1.1Z" fill="url(#linear-gradient-15)"/>
          <path id="Trazado_947" data-name="Trazado 947" d="M3810.145,4363.925l47.51-27.429a2.727,2.727,0,0,1,2.725,0l11.853,6.844a1.267,1.267,0,0,1,0,2.2l-47.511,27.429a2.725,2.725,0,0,1-2.724,0l-11.853-6.844a1.268,1.268,0,0,1,0-2.2Z" fill="url(#linear-gradient-16)"/>
        </g>
      </g>
      <g id="Grupo_832" data-name="Grupo 832">
        <g id="Grupo_831" data-name="Grupo 831">
          <path id="Trazado_948" data-name="Trazado 948" d="M3894.572,4360.361v-3.334l-63.357,20.585v3.334a1.258,1.258,0,0,0,.634,1.1l11.853,6.843a2.725,2.725,0,0,0,2.725,0l47.51-27.428a1.257,1.257,0,0,0,.635-1.1Z" fill="url(#linear-gradient-17)"/>
          <path id="Trazado_949" data-name="Trazado 949" d="M3831.849,4376.513l47.511-27.428a2.727,2.727,0,0,1,2.724,0l11.853,6.844a1.267,1.267,0,0,1,0,2.2l-47.51,27.428a2.725,2.725,0,0,1-2.725,0l-11.853-6.843a1.268,1.268,0,0,1,0-2.2Z" fill="url(#linear-gradient-18)"/>
        </g>
      </g>
    </g>
  </g>
</svg>
