<svg xmlns="http://www.w3.org/2000/svg" width="127.466" height="86.57" viewBox="0 0 127.466 86.57">
  <g id="Grupo_6757" data-name="Grupo 6757" transform="translate(-3459.127 -9214.516)">
    <g id="Grupo_1023" data-name="Grupo 1023">
      <path id="Trazado_1259" data-name="Trazado 1259" d="M3474.651,9276l-1.06,25.086,32.54-.524-.28-18.384.022-.683s1.7-16.751,2.039-20.517c.148-1.592.426-9.644.325-12.09h0l.346-19.939v-.007a2.677,2.677,0,0,0-2.89-2.628,3.007,3.007,0,0,0-3.062,2.725v0h0L3501.4,9249l-.471.008.316-27.392h-.018v-.007c.05-1.48-1.452-2.653-3.354-2.621s-3.48,1.253-3.527,2.731v.007L3493,9249.134l-.442.008.6-32c.049-1.479-1.456-2.652-3.362-2.622s-3.491,1.253-3.539,2.733l-1.408,32.016-.287.006.26-29.135c.048-1.479-1.459-2.651-3.362-2.621s-3.488,1.253-3.536,2.732h0s-1.175,35.454-1.165,37.74c0,0-9.274-13.817-9.3-13.85-1.25-1.513-4.369-1.657-6.464-.012-2.065,1.624-2.351,4.4-1.166,5.913l0,0Z" fill="#4a967e"/>
    </g>
    <g id="Grupo_1024" data-name="Grupo 1024">
      <path id="Trazado_1260" data-name="Trazado 1260" d="M3571.069,9276l1.061,25.086-32.541-.524.28-18.384-.022-.683s-1.695-16.751-2.039-20.517c-.148-1.592-.426-9.644-.325-12.09h0l-.346-19.939v-.007a2.677,2.677,0,0,1,2.89-2.628,3.007,3.007,0,0,1,3.062,2.725v0h0l1.233,19.955.471.008-.316-27.392h.018v-.007c-.05-1.48,1.452-2.653,3.354-2.621s3.48,1.253,3.527,2.731v.007l1.341,27.407.442.008-.6-32c-.049-1.479,1.456-2.652,3.362-2.622s3.491,1.253,3.539,2.733l1.408,32.016.287.006-.26-29.135c-.048-1.479,1.459-2.651,3.363-2.621s3.488,1.253,3.535,2.732h0s1.175,35.454,1.165,37.74c0,0,9.274-13.817,9.3-13.85,1.25-1.513,4.369-1.657,6.464-.012,2.066,1.624,2.351,4.4,1.166,5.913l0,0Z" fill="#4a967e"/>
    </g>
  </g>
</svg>
