<svg xmlns="http://www.w3.org/2000/svg" width="152.443" height="152.443" viewBox="0 0 152.443 152.443">
  <g id="Grupo_6753" data-name="Grupo 6753" transform="translate(-4127.423 -5602.834)">
    <path id="Trazado_912" data-name="Trazado 912" d="M4203.645,5602.834q3.744,0,7.47.367t7.4,1.1q3.672.731,7.255,1.817t7.043,2.52q3.461,1.432,6.762,3.2t6.416,3.846q3.112,2.079,6.008,4.456t5.542,5.023q2.648,2.647,5.024,5.542t4.455,6.008q2.081,3.114,3.846,6.416t3.2,6.762q1.433,3.458,2.52,7.043t1.817,7.255q.731,3.673,1.1,7.4t.367,7.472q0,3.743-.367,7.47t-1.1,7.4q-.729,3.672-1.817,7.256t-2.52,7.042q-1.433,3.46-3.2,6.762t-3.846,6.416q-2.081,3.113-4.455,6.008t-5.024,5.542q-2.648,2.648-5.542,5.024t-6.008,4.455q-3.114,2.08-6.416,3.846t-6.762,3.2q-3.459,1.433-7.043,2.52t-7.255,1.817q-3.674.732-7.4,1.1t-7.47.367q-3.746,0-7.471-.367t-7.4-1.1q-3.672-.729-7.255-1.817t-7.043-2.52q-3.461-1.433-6.762-3.2t-6.416-3.846q-3.114-2.079-6.008-4.455t-5.542-5.024q-2.649-2.648-5.024-5.542t-4.455-6.008q-2.081-3.114-3.846-6.416t-3.2-6.762q-1.433-3.459-2.52-7.042t-1.817-7.256q-.732-3.673-1.1-7.4t-.367-7.47q0-3.746.367-7.472t1.1-7.4q.73-3.672,1.817-7.255t2.52-7.043q1.433-3.459,3.2-6.762t3.846-6.416q2.079-3.114,4.455-6.008t5.024-5.542q2.648-2.649,5.542-5.023t6.008-4.456q3.114-2.081,6.416-3.846t6.762-3.2q3.459-1.433,7.043-2.52t7.255-1.817q3.674-.73,7.4-1.1T4203.645,5602.834Z" fill="#600"/>
    <circle id="Elipse_43" data-name="Elipse 43" cx="71.597" cy="71.597" r="71.597" transform="translate(4132.048 5607.459)" fill="#fff"/>
    <circle id="Elipse_44" data-name="Elipse 44" cx="65.13" cy="65.13" r="65.13" transform="translate(4138.514 5613.925)" fill="#bf0811"/>
    <g id="Grupo_880" data-name="Grupo 880">
      <g id="Grupo_871" data-name="Grupo 871">
        <g id="Grupo_844" data-name="Grupo 844">
          <g id="Grupo_843" data-name="Grupo 843">
            <rect id="Rectángulo_100" data-name="Rectángulo 100" width="6.516" height="4.272" transform="translate(4200.321 5645.365)" fill="#377f67"/>
          </g>
        </g>
        <g id="Grupo_846" data-name="Grupo 846">
          <g id="Grupo_845" data-name="Grupo 845">
            <path id="Trazado_969" data-name="Trazado 969" d="M4211.609,5652.477a5.373,5.373,0,0,0-5.277-4.487h-5.45a5.372,5.372,0,0,0-5.277,4.487Z" fill="#333"/>
          </g>
        </g>
        <g id="Grupo_863" data-name="Grupo 863">
          <g id="Grupo_855" data-name="Grupo 855">
            <g id="Grupo_848" data-name="Grupo 848">
              <g id="Grupo_847" data-name="Grupo 847">
                <rect id="Rectángulo_101" data-name="Rectángulo 101" width="23.402" height="53.83" transform="translate(4188.642 5666.774)" fill="#edeafe"/>
              </g>
            </g>
            <g id="Grupo_850" data-name="Grupo 850">
              <g id="Grupo_849" data-name="Grupo 849">
                <path id="Trazado_970" data-name="Trazado 970" d="M4188.642,5720.6v9.2h23.4v-9.2Z" fill="#424242"/>
              </g>
            </g>
            <g id="Grupo_852" data-name="Grupo 852">
              <g id="Grupo_851" data-name="Grupo 851">
                <rect id="Rectángulo_102" data-name="Rectángulo 102" width="6.604" height="53.83" transform="translate(4212.044 5666.774)" fill="#aaa"/>
              </g>
            </g>
            <g id="Grupo_854" data-name="Grupo 854">
              <g id="Grupo_853" data-name="Grupo 853">
                <path id="Trazado_971" data-name="Trazado 971" d="M4212.044,5720.6v9.2h6.6v-9.2Z" fill="#333"/>
              </g>
            </g>
          </g>
          <g id="Grupo_862" data-name="Grupo 862">
            <g id="Grupo_857" data-name="Grupo 857">
              <g id="Grupo_856" data-name="Grupo 856">
                <path id="Trazado_972" data-name="Trazado 972" d="M4209.681,5652.209h-12.073c-10.5,0-8.925,15.706-8.925,15.706h23.361v-15.391A8.76,8.76,0,0,0,4209.681,5652.209Z" fill="#300"/>
              </g>
            </g>
            <g id="Grupo_859" data-name="Grupo 859">
              <g id="Grupo_858" data-name="Grupo 858">
                <path id="Trazado_973" data-name="Trazado 973" d="M4218.648,5664.239v3.092A28.816,28.816,0,0,0,4218.648,5664.239Z" fill="#300"/>
              </g>
            </g>
            <g id="Grupo_861" data-name="Grupo 861">
              <g id="Grupo_860" data-name="Grupo 860">
                <path id="Trazado_974" data-name="Trazado 974" d="M4218.648,5667.331v-3.092c-.217-4.08-1.426-10.274-6.6-11.715v15.391h6.562S4218.627,5667.7,4218.648,5667.331Z" fill="#300"/>
              </g>
            </g>
          </g>
        </g>
        <g id="Grupo_865" data-name="Grupo 865">
          <g id="Grupo_864" data-name="Grupo 864">
            <rect id="Rectángulo_103" data-name="Rectángulo 103" width="19.134" height="1.839" transform="translate(4192.91 5670.287)" fill="#fff"/>
          </g>
        </g>
        <g id="Grupo_867" data-name="Grupo 867">
          <g id="Grupo_866" data-name="Grupo 866">
            <rect id="Rectángulo_104" data-name="Rectángulo 104" width="19.134" height="1.838" transform="translate(4192.91 5675.278)" fill="#fff"/>
          </g>
        </g>
        <g id="Grupo_870" data-name="Grupo 870">
          <g id="Grupo_869" data-name="Grupo 869">
            <g id="Grupo_868" data-name="Grupo 868">
              <path id="Trazado_975" data-name="Trazado 975" d="M4211.12,5645.538h-15.081a5.33,5.33,0,0,1-5.323-5.323v-5.464a5.329,5.329,0,0,1,5.323-5.323h15.081a5.328,5.328,0,0,1,5.323,5.323v5.464A5.328,5.328,0,0,1,4211.12,5645.538Zm-15.081-12.819a2.035,2.035,0,0,0-2.032,2.032v5.464a2.035,2.035,0,0,0,2.032,2.032h15.081a2.034,2.034,0,0,0,2.032-2.032v-5.464a2.034,2.034,0,0,0-2.032-2.032Z" fill="#300"/>
            </g>
          </g>
        </g>
      </g>
      <g id="Grupo_873" data-name="Grupo 873">
        <g id="Grupo_872" data-name="Grupo 872">
          <ellipse id="Elipse_45" data-name="Elipse 45" cx="10.706" cy="10.672" rx="10.706" ry="10.672" transform="translate(4192.03 5695.862)" fill="#424242"/>
        </g>
      </g>
      <g id="Grupo_876" data-name="Grupo 876">
        <g id="Grupo_875" data-name="Grupo 875">
          <g id="Grupo_874" data-name="Grupo 874">
            <path id="Trazado_976" data-name="Trazado 976" d="M4202.727,5717.664a11.355,11.355,0,1,1,11.355-11.356A11.368,11.368,0,0,1,4202.727,5717.664Zm0-21.614a10.259,10.259,0,1,0,10.257,10.258A10.269,10.269,0,0,0,4202.727,5696.05Z" fill="#fff"/>
          </g>
        </g>
      </g>
      <g id="Grupo_879" data-name="Grupo 879">
        <g id="Grupo_878" data-name="Grupo 878">
          <g id="Grupo_877" data-name="Grupo 877">
            <rect id="Rectángulo_105" data-name="Rectángulo 105" width="21.608" height="1.097" transform="translate(4194.719 5713.576) rotate(-44.491)" fill="#fff"/>
          </g>
        </g>
      </g>
    </g>
  </g>
</svg>
