<svg xmlns="http://www.w3.org/2000/svg" width="492.148" height="240.62" viewBox="0 0 492.148 240.62">
  <g id="Grupo_6759" data-name="Grupo 6759" transform="translate(-3339.45 -7769.971)">
    <rect id="Rectángulo_156" data-name="Rectángulo 156" width="127.11" height="107.859" rx="12" transform="translate(3704.489 7781.946)" fill="#00b050"/>
    <text id="No_clasificados_" data-name="No clasificados





" transform="translate(3708.315 7812.772)" fill="#fff" font-size="16" font-family="OpenSans-Bold, Open Sans" font-weight="700"><tspan x="48.272" y="17">No </tspan><tspan x="13.452" y="39">clasificados</tspan></text>
    <rect id="Rectángulo_158" data-name="Rectángulo 158" width="127.11" height="107.859" rx="12" transform="translate(3516.746 7902.599)" fill="#ddd"/>
    <text id="Sustancias_corrosivas_" data-name="Sustancias corrosivas





" transform="translate(3520.572 7959.591)" fill="#444242" font-size="16" font-family="OpenSans, Open Sans"><tspan x="20.331" y="17">Sustancias </tspan><tspan x="21.612" y="39">corrosivas</tspan></text>
    <rect id="Rectángulo_160" data-name="Rectángulo 160" width="127.11" height="107.859" rx="12" transform="translate(3339.45 7769.971)" fill="#ff0"/>
    <path id="Trazado_1053" data-name="Trazado 1053" d="M3407.261,7793.508a16.4,16.4,0,0,0-.3-6.253,9.262,9.262,0,0,1,2.59,2.853,15.644,15.644,0,0,1,2.015,6.579c.211,1.85.481,3.693.728,5.538a2.733,2.733,0,0,0,.117.362,10.494,10.494,0,0,0,1.453-6.559,3.734,3.734,0,0,1,.36.278,10.335,10.335,0,0,1,2.778,6.336,20.787,20.787,0,0,1-.315,5.953c-.034.194-.041.393-.061.589l.155.107,1.669-1.588c.937,5.236-1.755,14.474-9.215,16.781h4.123v2.573H3392.8V7824.5h3.706l.085-.192a2.208,2.208,0,0,0-.612-.359,8.468,8.468,0,0,1-3.926-1.746,8.017,8.017,0,0,1-2.72-5.653c-.2-2.361-.27-4.736-.329-7.107a8.386,8.386,0,0,0-.627-2.9c-.317-.8-.621-1.613-.923-2.422a2.189,2.189,0,0,1-.069-.374l.13-.136c.574.422,1.156.833,1.72,1.268.582.449,1.146.921,1.639,1.32.949-3.674.372-7.569-.508-11.56,2.259.646,3.285,2.364,4.344,4.272.225-.891.439-1.65.6-2.42a20.018,20.018,0,0,0,.416-2.386,14.908,14.908,0,0,0,.009-2.426,21.693,21.693,0,0,0-.358-2.4c-.149-.785-.349-1.56-.547-2.429,2.093.321,3.1,1.883,4.191,3.327l.179-.012a23.126,23.126,0,0,0,.451-2.9c.058-1.691-.018-3.387-.05-5.081a7.336,7.336,0,0,1,.79-3.82c.1-.177.213-.345.388-.627a46.7,46.7,0,0,0,2.831,8.094c1.124,2.6,2.319,5.164,3.483,7.744Zm1.832,15.923a13.9,13.9,0,0,1-3.366,4.882c1.325-4.116,1-7.971-1.662-11.491a1.878,1.878,0,0,0-.054.539c-.007,1.338.066,2.681-.042,4.01-.133,1.644-.391,3.279-.654,4.908a2.936,2.936,0,0,1-.557,1.09c-.261.382-.638.445-.913.031a8.687,8.687,0,0,1-.993-1.751c-.327-.885-.516-1.822-.783-2.8a9.7,9.7,0,0,0,.752,9.3,3.641,3.641,0,0,1-2.551-1.737,19.264,19.264,0,0,1-1.033-2.308c-.375-.926-.714-1.866-1.068-2.8a2.638,2.638,0,0,0-.27.89,15.112,15.112,0,0,0-.337,4.375,9.822,9.822,0,0,0,4.2,6.754c.4.3.77.548.534,1.128h5.02l-1.625-.919c.237-.219.415-.411.619-.566,1.334-1.014,2.709-1.977,4-3.044a13.941,13.941,0,0,0,2.1-2.176,2.45,2.45,0,0,0,.169-2.623c-1.411,1.551-1.659,1.7-2.45,1.453A8,8,0,0,0,3409.093,7809.431Zm-6.852-12.2a7.169,7.169,0,0,0,.546-.81,5.925,5.925,0,0,0,.477-4.162c-.225-.872-.484-1.736-.751-2.6-.257-.831-.543-1.652-.825-2.5-.085.067-.131.084-.138.112a18.7,18.7,0,0,0-.57,7.089A4.832,4.832,0,0,0,3402.241,7797.229Z" fill="#7d7d7f"/>
    <text id="Sustancias_comburentes_" data-name="Sustancias comburentes





" transform="translate(3343.277 7826.963)" fill="#444242" font-size="16" font-family="OpenSans, Open Sans"><tspan x="20.331" y="17">Sustancias </tspan><tspan x="10.042" y="39">comburentes</tspan></text>
    <rect id="Rectángulo_161" data-name="Rectángulo 161" width="192.329" height="107.859" rx="12" transform="translate(3483.323 7776.324)" fill="#4aa8e7"/>
    <text id="_Diferentes_de_los_plaguicidas_" data-name="(Diferentes de los plaguicidas)




" transform="translate(3490.396 7830.12)" fill="#fff" font-size="16" font-family="OpenSans, Open Sans"><tspan x="24.472" y="17">(Diferentes de los </tspan><tspan x="45.847" y="39">plaguicidas)</tspan></text>
    <g id="Grupo_982" data-name="Grupo 982">
      <text id="Sustancias_toxicas_" data-name="Sustancias toxicas




" transform="translate(3540.995 7782.915)" fill="#fff" font-size="16" font-family="OpenSans-Bold, Open Sans" font-weight="700"><tspan x="0" y="17">Sustancias </tspan><tspan x="0" y="39">toxicas</tspan></text>
      <path id="Trazado_1055" data-name="Trazado 1055" d="M3508.656,7807.231c1.431,0,2.215-.692,2.56-.616.375.083.464.571.464,1.272h.018v3.393a.793.793,0,0,0,1.551,0v-1.291h.683v1.291a.793.793,0,0,0,1.551,0v-1.291h.684v1.291a.781.781,0,0,0,.758.622h0l.008,0v0h.009a.833.833,0,0,0,.548-.217.6.6,0,0,0,.228-.41v-1.291h.683v1.291a.6.6,0,0,0,.227.41.839.839,0,0,0,.549.217.785.785,0,0,0,.775-.627v-1.291h.684v1.291a.6.6,0,0,0,.227.41.8.8,0,0,0,1.1,0,.6.6,0,0,0,.227-.41v-3.393a1.832,1.832,0,0,1,.234-1.137.428.428,0,0,1,.231-.135.662.662,0,0,1,.344.064,5.423,5.423,0,0,0,2.216.552c1.39,0,3.092-1.5,4.02-3.883.084-.217.162-.442.233-.673a10.237,10.237,0,0,0,.331-1.469,10.872,10.872,0,0,0,.119-1.613c0-.867.016-1.721.016-2.551a14.814,14.814,0,0,0-.753-5.594,6.366,6.366,0,0,0-.47-.919c-1.726-2.774-5.609-4.325-11.765-4.325h-.017c-6.156,0-10.039,1.551-11.765,4.325-1.456,2.34-1.207,5.6-1.207,9.064C3503.953,7804.069,3506.634,7807.231,3508.656,7807.231Zm13.5-10.232c3.007-.545,4.682-.871,4.937,1.421a8.656,8.656,0,0,1-.033,2.173,7.884,7.884,0,0,1-.188.911,6.558,6.558,0,0,1-.455,1.221,3.333,3.333,0,0,1-2.2,1.966,2.37,2.37,0,0,1-.873-.09c-.255-.06-.543-.146-.849-.251a13.878,13.878,0,0,1-1.447-.6c-1.3-.629-2.524-1.478-2.692-2.267C3517.44,7797.18,3518.832,7797.6,3522.157,7797Zm-4.726,6.72c.6,0,2.569,2.379,2.569,3.116s-2.569,1.19-2.569,0Zm-.995,3.116c0,1.19-2.569.737-2.569,0s1.966-3.116,2.569-3.116Zm-9.663-8.415c.255-2.292,1.929-1.966,4.936-1.421,3.326.6,4.717.181,3.8,4.485-.335,1.578-4.891,3.4-5.861,3.207C3507.673,7804.3,3506.444,7801.377,3506.773,7798.42Zm12.412,18.249c-.246.03-.5.057-.762.077-.468.036-.963.054-1.481.054h-.017c-4.137,0-6.746-1.2-6.668-2.728l.195-6.5.528-.32.479,7.27.239.182v-1.291a.793.793,0,0,1,1.551,0v1.291h.683v-1.291a.793.793,0,0,1,1.551,0v1.291h.684v-1.291a.782.782,0,0,1,.761-.624l.014,0a.852.852,0,0,1,.715.421.435.435,0,0,1,.061.206v1.291h.683v-1.291a.438.438,0,0,1,.061-.206.852.852,0,0,1,.715-.421.827.827,0,0,1,.622.309.546.546,0,0,1,.153.318v1.291h.684v-1.291a.425.425,0,0,1,.061-.206.816.816,0,0,1,1.428,0,.425.425,0,0,1,.061.206v1.291l.239-.182.479-7.27.528.32.2,6.5h0a1.435,1.435,0,0,1-.385,1.017c-.016.019-.027.038-.043.056a4.854,4.854,0,0,1-2.3,1.2c-.2.056-.424.107-.65.153Q3519.749,7816.6,3519.185,7816.669Zm12.023,3.814a1.14,1.14,0,0,1-.267.3,1.406,1.406,0,0,1-.248.154c-.493.238-.968.09-1.184.231a.241.241,0,0,0-.086.1c-.062.128,0,.252.1.4.069.1.155.21.235.34a1.689,1.689,0,0,1,.111.211,1.357,1.357,0,0,1,.114.537h0a1.626,1.626,0,0,1-1.361,1.444,1.552,1.552,0,0,1-1.316-.3q-.152-.122-.282-.246a6.146,6.146,0,0,1-1.348-2.382c-.03-.065-.06-.126-.092-.185a1.517,1.517,0,0,0-.222-.311,1.019,1.019,0,0,0-.3-.223l-5.493-2.654h0a8.223,8.223,0,0,0,3.405-1.139l3.179,1.535a1.193,1.193,0,0,0,.745.08,5.91,5.91,0,0,0,.723-.2,4.971,4.971,0,0,1,1.836-.3,4.1,4.1,0,0,1,.715.1,1.51,1.51,0,0,1,.9.622A1.777,1.777,0,0,1,3531.208,7820.483Zm-20.306-3.728a8.172,8.172,0,0,0,3.4,1.142l-5.5,2.656c-.953.46-.63,2.048-2.248,3.347a1.692,1.692,0,0,1-2.677-1.144c.006-.835.73-1.147.565-1.489s-.86.031-1.518-.483a1.693,1.693,0,0,1,.768-2.809c2.024-.46,3.066.781,4.019.32Zm-9.5-5.37a1.692,1.692,0,0,1-.768-2.809c.658-.514,1.352-.142,1.517-.483s-.558-.655-.564-1.489a1.692,1.692,0,0,1,2.677-1.145c1.618,1.3,1.294,2.887,2.247,3.348l2.9,1.4-.082,2.745-3.908-1.888C3504.467,7810.6,3503.424,7811.844,3501.4,7811.385Zm32.317-1.7a1.767,1.767,0,0,1-.8,1.525,1.534,1.534,0,0,1-.45.18,5.019,5.019,0,0,1-2.862-.3,1.552,1.552,0,0,0-1.157-.02l-3.89,1.879-.083-2.744,2.883-1.392a1.2,1.2,0,0,0,.525-.535,7.332,7.332,0,0,1,1.441-2.566c.086-.083.18-.166.281-.247a1.692,1.692,0,0,1,2.677,1.145c-.006.834-.73,1.147-.564,1.489s.859-.031,1.517.483a1.167,1.167,0,0,1,.268.3A1.541,1.541,0,0,1,3533.718,7809.68Z" fill="#fff"/>
    </g>
    <path id="Trazado_1056" data-name="Trazado 1056" d="M3566.9,7924.075a2.023,2.023,0,0,0,2.579,1.229l16.147-5.724.029.081a.9.9,0,1,0,1.691-.6l-2.215-6.247a.911.911,0,0,0-1.163-.555.882.882,0,0,0-.537,1.127l.033.094-16.147,5.724a2.022,2.022,0,0,0-1.229,2.579Zm.71-4.044,16.147-5.724,1.576,4.446-16.147,5.724a1.145,1.145,0,0,1-1.459-.7l-.812-2.291A1.144,1.144,0,0,1,3567.612,7920.031Zm-.38,1.347a.809.809,0,0,1,.491-1.032l4.77-1.69h12.117l-15.534,5.506a.827.827,0,0,1-.269.046.811.811,0,0,1-.763-.538Zm17.911,8.207c0-1.262,2.285-4.478,2.285-4.478s2.284,3.216,2.284,4.478a2.284,2.284,0,0,1-4.569,0Zm15.38,14.887a2.012,2.012,0,0,1-2.013,2.013h-14.591v1.348H3596.5a2.013,2.013,0,1,1,0,4.026h-12.578v1.347h8.088a2.013,2.013,0,0,1,0,4.027h-30.071v.306h-.005a.925.925,0,0,1-1.848,0h0v-20.76h0a.925.925,0,0,1,1.848,0h.005v.307h3.312l12.434-8.477a2.829,2.829,0,0,1,3.187,4.675l-5.576,3.8h9.983a2.271,2.271,0,0,0,4.3,0h6.917a2.013,2.013,0,1,1,0,4.026h-12.578v1.347h14.591A2.013,2.013,0,0,1,3600.523,7944.472Z" fill="#5f5f60"/>
  </g>
</svg>
