<svg xmlns="http://www.w3.org/2000/svg" xmlns:xlink="http://www.w3.org/1999/xlink" width="803.392" height="322.22" viewBox="0 0 803.392 322.22">
  <defs>
    <clipPath id="clip-path">
      <rect id="Rectángulo_3170" data-name="Rectángulo 3170" width="803.392" height="322.22" transform="translate(318.304 3410.2)" fill="none"/>
    </clipPath>
  </defs>
  <g id="Grupo_4225" data-name="Grupo 4225" transform="translate(-318.304 -3410.2)">
    <g id="Grupo_4224" data-name="Grupo 4224" clip-path="url(#clip-path)">
      <g id="Grupo_4223" data-name="Grupo 4223">
        <rect id="Rectángulo_3143" data-name="Rectángulo 3143" width="803.392" height="322.22" transform="translate(318.304 3410.2)" fill="#92cdea"/>
        <g id="Grupo_4191" data-name="Grupo 4191">
          <path id="Trazado_5707" data-name="Trazado 5707" d="M774.249,3483.756l-8.107,8.344v-7.266h-3.413l-23.85,32.914H710.643l-55.914,84.888h126.14V3496.3Z" fill="#70d4cd"/>
          <path id="Trazado_5708" data-name="Trazado 5708" d="M766.142,3492.1l8.107-8.344,6.62,12.547v-37.266l.028-.031-18.167,25.827h3.413Z" fill="#fff"/>
          <path id="Trazado_5709" data-name="Trazado 5709" d="M806.105,3487.163l-4.83,1.115,6.865,18.073-10.65-7.993-11.052,9.384-5.57-11.438v106.333H909.257Z" fill="#4bc4bc"/>
          <path id="Trazado_5710" data-name="Trazado 5710" d="M780.869,3496.3l5.57,11.438,11.144-9.384,10.605,7.993-6.889-18.073,4.817-1.115L780.9,3458.731l-.033.307Z" fill="#bdd9d7"/>
          <path id="Trazado_5711" data-name="Trazado 5711" d="M797.582,3506.641l-9.66,6.316s35.173,23.635,35.668,23.29S797.582,3506.641,797.582,3506.641Z" fill="#70d4cd"/>
          <path id="Trazado_5712" data-name="Trazado 5712" d="M829.039,3523.561l1.982,16.856,10.4,0,8.917,21.9,25.264,10.427L854.8,3555.363l-2.476-10.462Z" fill="#70d4cd"/>
          <path id="Trazado_5713" data-name="Trazado 5713" d="M734.6,3543.829l-20.952,8.365,4.381,6.621-24.541,14.9-2.832,20.471,13.7-20.565,12.476-5.983Z" fill="#4bc4bc"/>
          <path id="Trazado_5714" data-name="Trazado 5714" d="M715.1,3525.818c-1.982,3.128-17.34,33.716-17.34,33.716l14.862-2.779-1.981-8.6,16.176-7.039Z" fill="#4bc4bc"/>
          <path id="Trazado_5715" data-name="Trazado 5715" d="M741.414,3527.379l-30.333-8.307,14.591,11.283Z" fill="#fff"/>
        </g>
        <g id="Grupo_4192" data-name="Grupo 4192">
          <path id="Trazado_5716" data-name="Trazado 5716" d="M690.148,3522.253l-29.7-28.361,29.063,28.235Z" fill="#70d4cd"/>
          <path id="Trazado_5717" data-name="Trazado 5717" d="M644.042,3526.916l8.932-4.287,7.527,7.529v-36.266l-26.235,27.939,4.631-1.074Z" fill="#fff"/>
          <path id="Trazado_5718" data-name="Trazado 5718" d="M652.974,3522.629l-8.921,4.287-5.162-6.159-4.648,1.074-72.933,77.738H660.5v-69.41Z" fill="#70d4cd"/>
          <path id="Trazado_5719" data-name="Trazado 5719" d="M682.706,3520.765l-4.437,6.909-7.478-7.469-10.291,9.954v69.41H769.229l-79.714-77.442Z" fill="#4bc4bc"/>
          <path id="Trazado_5720" data-name="Trazado 5720" d="M670.791,3520.2l7.49,7.469,4.431-6.909,6.829,1.362L660.5,3493.892v36.266Z" fill="#bdd9d7"/>
        </g>
        <g id="Grupo_4193" data-name="Grupo 4193">
          <path id="Trazado_5721" data-name="Trazado 5721" d="M1013.991,3685.369a540.921,540.921,0,0,0-343-121.984c-130.08,0-285.066,15.856-343,121.984Z" fill="#859f00"/>
          <path id="Trazado_5722" data-name="Trazado 5722" d="M668.11,3685.369h345.881c-53.445-100.777-212.92-121.984-343-121.984-.965,0-1.925.011-2.885.018Z" fill="#667a00"/>
          <path id="Trazado_5723" data-name="Trazado 5723" d="M696.4,3591.834a10.412,10.412,0,0,0,.053-1.064,10.583,10.583,0,1,0-21.167,0,10.412,10.412,0,0,0,.053,1.064Z" fill="#859f00"/>
          <path id="Trazado_5724" data-name="Trazado 5724" d="M727.745,3591.834c.035-.351.054-.705.054-1.064a10.584,10.584,0,0,0-21.168,0c0,.359.019.713.053,1.064Z" fill="#859f00"/>
          <path id="Trazado_5725" data-name="Trazado 5725" d="M760.38,3591.834a10.411,10.411,0,0,0,.055-1.064,10.584,10.584,0,1,0-21.168,0,10.41,10.41,0,0,0,.056,1.064Z" fill="#859f00"/>
          <path id="Trazado_5726" data-name="Trazado 5726" d="M715.459,3617.871c.034-.351.053-.7.053-1.063a10.584,10.584,0,0,0-21.167,0c0,.36.018.712.053,1.063Z" fill="#859f00"/>
          <path id="Trazado_5727" data-name="Trazado 5727" d="M746.8,3617.871c.034-.351.052-.7.052-1.063a10.583,10.583,0,0,0-21.166,0,10.394,10.394,0,0,0,.055,1.063Z" fill="#859f00"/>
          <path id="Trazado_5728" data-name="Trazado 5728" d="M782.38,3617.871c.034-.351.053-.7.053-1.063a10.584,10.584,0,0,0-21.168,0,10.376,10.376,0,0,0,.056,1.063Z" fill="#859f00"/>
          <path id="Trazado_5729" data-name="Trazado 5729" d="M792.963,3591.834c.034-.351.053-.705.053-1.064a10.583,10.583,0,1,0-21.167,0c0,.359.019.713.054,1.064Z" fill="#859f00"/>
          <path id="Trazado_5730" data-name="Trazado 5730" d="M813.726,3617.871c.034-.351.052-.7.052-1.063a10.583,10.583,0,0,0-21.166,0,10.376,10.376,0,0,0,.056,1.063Z" fill="#859f00"/>
          <path id="Trazado_5731" data-name="Trazado 5731" d="M849.3,3617.871c.034-.351.054-.7.054-1.063a10.584,10.584,0,0,0-21.168,0c0,.36.018.712.052,1.063Z" fill="#859f00"/>
          <path id="Trazado_5732" data-name="Trazado 5732" d="M886.573,3617.871a9.833,9.833,0,0,0,.057-1.063,10.584,10.584,0,0,0-21.168,0,10.378,10.378,0,0,0,.054,1.063Z" fill="#859f00"/>
          <path id="Trazado_5733" data-name="Trazado 5733" d="M696.4,3643.668a10.407,10.407,0,0,0,.053-1.063,10.583,10.583,0,1,0-21.167,0,10.407,10.407,0,0,0,.053,1.063Z" fill="#859f00"/>
          <path id="Trazado_5734" data-name="Trazado 5734" d="M727.745,3643.668c.035-.351.054-.705.054-1.063a10.584,10.584,0,1,0-21.168,0c0,.358.019.712.053,1.063Z" fill="#859f00"/>
          <path id="Trazado_5735" data-name="Trazado 5735" d="M763.317,3643.668a10.406,10.406,0,0,0,.056-1.063,10.583,10.583,0,1,0-21.167,0,10.407,10.407,0,0,0,.052,1.063Z" fill="#859f00"/>
          <path id="Trazado_5736" data-name="Trazado 5736" d="M794.666,3643.668c.032-.351.051-.705.051-1.063a10.583,10.583,0,1,0-21.167,0,10.406,10.406,0,0,0,.056,1.063Z" fill="#859f00"/>
          <path id="Trazado_5737" data-name="Trazado 5737" d="M830.238,3643.668a10.406,10.406,0,0,0,.054-1.063,10.584,10.584,0,1,0-21.168,0,10.406,10.406,0,0,0,.055,1.063Z" fill="#859f00"/>
          <path id="Trazado_5738" data-name="Trazado 5738" d="M861.584,3643.668a10.407,10.407,0,0,0,.052-1.063,10.582,10.582,0,1,0-21.164,0,10.423,10.423,0,0,0,.055,1.063Z" fill="#859f00"/>
          <path id="Trazado_5739" data-name="Trazado 5739" d="M897.159,3643.668a10.406,10.406,0,0,0,.056-1.063,10.584,10.584,0,1,0-21.168,0c0,.358.02.712.052,1.063Z" fill="#859f00"/>
          <path id="Trazado_5740" data-name="Trazado 5740" d="M928.5,3643.668a9.876,9.876,0,0,0,.056-1.063,10.583,10.583,0,1,0-21.166,0c0,.358.016.712.051,1.063Z" fill="#859f00"/>
          <path id="Trazado_5741" data-name="Trazado 5741" d="M670.591,3671.223q.047-.469.047-.947a9.414,9.414,0,0,0-18.828,0,9.024,9.024,0,0,0,.049.947Z" fill="#859f00"/>
          <path id="Trazado_5742" data-name="Trazado 5742" d="M698.476,3671.223c.031-.313.048-.629.048-.947a9.414,9.414,0,0,0-18.829,0q0,.477.047.947Z" fill="#859f00"/>
          <path id="Trazado_5743" data-name="Trazado 5743" d="M730.121,3671.223c.031-.313.048-.629.048-.947a9.415,9.415,0,0,0-18.83,0c0,.318.017.634.047.947Z" fill="#859f00"/>
          <path id="Trazado_5744" data-name="Trazado 5744" d="M758.007,3671.223c.028-.313.046-.629.046-.947a9.414,9.414,0,0,0-18.829,0,9.04,9.04,0,0,0,.048.947Z" fill="#859f00"/>
          <path id="Trazado_5745" data-name="Trazado 5745" d="M789.649,3671.223a9.024,9.024,0,0,0,.049-.947,9.414,9.414,0,0,0-18.828,0q0,.477.047.947Z" fill="#859f00"/>
          <path id="Trazado_5746" data-name="Trazado 5746" d="M815.65,3671.223q.047-.469.047-.947a9.413,9.413,0,1,0-18.826,0c0,.318.017.634.047.947Z" fill="#859f00"/>
          <path id="Trazado_5747" data-name="Trazado 5747" d="M847.295,3671.223q.047-.469.047-.947a9.414,9.414,0,0,0-18.828,0c0,.318.019.634.047.947Z" fill="#859f00"/>
          <path id="Trazado_5748" data-name="Trazado 5748" d="M875.181,3671.223c.028-.313.049-.629.049-.947a9.414,9.414,0,0,0-18.829,0,8.3,8.3,0,0,0,.048.947Z" fill="#859f00"/>
          <path id="Trazado_5749" data-name="Trazado 5749" d="M901.883,3671.223c.03-.313.044-.629.044-.947a9.415,9.415,0,0,0-18.83,0,9.04,9.04,0,0,0,.052.947Z" fill="#859f00"/>
        </g>
        <path id="Trazado_5750" data-name="Trazado 5750" d="M1149.927,3707.15a25.374,25.374,0,0,1-7.354,17.921,24.623,24.623,0,0,1-17.672,7.349H310.807a25.075,25.075,0,0,1-24.88-25.367c0-7.05,2.283-13.366,6.776-17.968a25.446,25.446,0,0,1,17.486-7.394v0H1124.9A25.258,25.258,0,0,1,1149.927,3707.15Z" fill="#a8a8a8" fill-rule="evenodd"/>
        <g id="Grupo_4194" data-name="Grupo 4194">
          <path id="Trazado_5751" data-name="Trazado 5751" d="M927.134,3560.887h194.287l-18.968-10s9.982-14.24-2.947-26.531c-14.558-13.841-31.975,2.114-31.975,2.114s7.751-58.784-41.657-55.711-37.994,53.707-37.994,53.707-15.634-17.421-31.652-4.094c-11.392,9.48,0,28.462,0,28.462Z" fill="#8df7ea"/>
          <path id="Trazado_5752" data-name="Trazado 5752" d="M1025.708,3560.887V3470.77c-49.213,3.183-37.828,53.693-37.828,53.693s-15.634-17.421-31.652-4.094c-11.392,9.48,0,28.462,0,28.462l-29.094,12.056Z" fill="#b3fff5"/>
        </g>
        <g id="Grupo_4195" data-name="Grupo 4195">
          <path id="Trazado_5753" data-name="Trazado 5753" d="M941.994,3548.781l-19.546-28.362,19.13,28.235Z" fill="#70d4cd"/>
          <path id="Trazado_5754" data-name="Trazado 5754" d="M911.647,3553.443l5.877-4.287,4.956,7.529v-36.266l-17.268,27.939,3.048-1.074Z" fill="#fff"/>
          <path id="Trazado_5755" data-name="Trazado 5755" d="M917.524,3549.156l-5.869,4.287-3.4-6.159-3.059,1.074-48,77.738H922.48v-69.41Z" fill="#70d4cd"/>
          <path id="Trazado_5756" data-name="Trazado 5756" d="M937.1,3547.292l-2.922,6.909-4.921-7.469-6.774,9.954v69.41h71.566l-52.468-77.442Z" fill="#4bc4bc"/>
          <path id="Trazado_5757" data-name="Trazado 5757" d="M929.254,3546.731l4.929,7.469,2.917-6.909,4.495,1.362-19.115-28.235v36.266Z" fill="#bdd9d7"/>
        </g>
        <g id="Grupo_4196" data-name="Grupo 4196">
          <path id="Trazado_5758" data-name="Trazado 5758" d="M1001.271,3588.621l-19.548-28.362,19.128,28.234Z" fill="#70d4cd"/>
          <path id="Trazado_5759" data-name="Trazado 5759" d="M970.923,3593.283,976.8,3589l4.951,7.528v-36.266l-17.267,27.94,3.048-1.076Z" fill="#fff"/>
          <path id="Trazado_5760" data-name="Trazado 5760" d="M976.8,3589l-5.873,4.287-3.4-6.16-3.059,1.076-48.006,77.737h65.286v-69.411Z" fill="#70d4cd"/>
          <path id="Trazado_5761" data-name="Trazado 5761" d="M996.371,3587.131l-2.919,6.909-4.924-7.469-6.774,9.954v69.411h71.568l-52.47-77.442Z" fill="#4bc4bc"/>
          <path id="Trazado_5762" data-name="Trazado 5762" d="M988.528,3586.571l4.932,7.469,2.915-6.909,4.5,1.362-19.117-28.234v36.266Z" fill="#bdd9d7"/>
        </g>
        <path id="Trazado_5763" data-name="Trazado 5763" d="M1090.013,3680.338c-19.936-51.825-101.436-92.474-164.91-94.7-78.843-2.761-158.9,37.051-170.112,94.7Z" fill="#438c1c"/>
        <g id="Grupo_4199" data-name="Grupo 4199">
          <rect id="Rectángulo_3144" data-name="Rectángulo 3144" width="1.791" height="14.729" transform="translate(898.665 3619.218)" fill="#966b2a"/>
          <g id="Grupo_4197" data-name="Grupo 4197">
            <path id="Trazado_5764" data-name="Trazado 5764" d="M899.4,3633.947v-41.292c-.451,1.543-7.038,7.239-9.1,21.359-1.059,7.262.633,14.786,1.723,19.933Z" fill="#00ba54"/>
          </g>
          <g id="Grupo_4198" data-name="Grupo 4198">
            <path id="Trazado_5765" data-name="Trazado 5765" d="M906.933,3633.947c1.128-5.23,2.855-12.36,1.757-19.772-2.186-14.792-9.13-21.656-9.13-21.656a.435.435,0,0,0-.081.087c-.012.014-.082.029-.082.049v41.292Z" fill="#02803f"/>
          </g>
        </g>
        <g id="Grupo_4202" data-name="Grupo 4202">
          <rect id="Rectángulo_3145" data-name="Rectángulo 3145" width="3.123" height="21.463" transform="translate(872.075 3602.913)" fill="#966b2a"/>
          <g id="Grupo_4200" data-name="Grupo 4200">
            <path id="Trazado_5766" data-name="Trazado 5766" d="M873.352,3624.376v-60.167c-.787,2.252-12.283,10.549-15.88,31.122-1.849,10.584,1.105,21.546,3.013,29.045Z" fill="#00ba54"/>
          </g>
          <g id="Grupo_4201" data-name="Grupo 4201">
            <path id="Trazado_5767" data-name="Trazado 5767" d="M886.5,3624.376c1.97-7.621,4.978-18.007,3.068-28.809-3.816-21.554-15.933-31.554-15.933-31.554a.746.746,0,0,0-.144.127c-.017.021-.14.044-.14.069v60.167Z" fill="#02803f"/>
          </g>
        </g>
        <g id="Grupo_4203" data-name="Grupo 4203">
          <path id="Trazado_5768" data-name="Trazado 5768" d="M875.25,3648.341a3.858,3.858,0,1,0-7.712,0h0v27.481h7.852v-27.481Z" fill="#ffeabd"/>
          <path id="Trazado_5769" data-name="Trazado 5769" d="M891.232,3648.341a3.857,3.857,0,1,0-7.71,0h-.28v27.481h7.85v-27.481Z" fill="#ffeabd"/>
          <path id="Trazado_5770" data-name="Trazado 5770" d="M907.213,3648.341a3.858,3.858,0,1,0-7.711,0h.423v27.481H906.8v-27.481Z" fill="#ffeabd"/>
          <path id="Trazado_5771" data-name="Trazado 5771" d="M923.2,3648.341a3.858,3.858,0,1,0-7.711,0h.144v27.481h7.854v-27.481Z" fill="#ffeabd"/>
          <path id="Trazado_5772" data-name="Trazado 5772" d="M939.185,3648.648c0-1.852-1.747-4.143-3.86-4.143a3.984,3.984,0,0,0-3.861,3.836h-.131v27.481h7.852v-27.174Z" fill="#ffeabd"/>
          <rect id="Rectángulo_3146" data-name="Rectángulo 3146" width="71.648" height="1.963" transform="translate(867.536 3666.008)" fill="#ffeabd"/>
          <rect id="Rectángulo_3147" data-name="Rectángulo 3147" width="71.648" height="1.964" transform="translate(867.536 3656.19)" fill="#ffeabd"/>
        </g>
        <g id="Grupo_4206" data-name="Grupo 4206">
          <rect id="Rectángulo_3148" data-name="Rectángulo 3148" width="2.93" height="24.135" transform="translate(364.59 3635.662)" fill="#966b2a"/>
          <g id="Grupo_4204" data-name="Grupo 4204">
            <path id="Trazado_5773" data-name="Trazado 5773" d="M365.788,3659.8v-67.652c-.739,2.527-11.532,11.859-14.907,34.992-1.735,11.9,1.036,24.227,2.826,32.66Z" fill="#008d54"/>
          </g>
          <g id="Grupo_4205" data-name="Grupo 4205">
            <path id="Trazado_5774" data-name="Trazado 5774" d="M378.134,3659.8c1.849-8.572,4.677-20.249,2.88-32.392-3.581-24.238-14.958-35.481-14.958-35.481a.758.758,0,0,0-.134.141c-.018.022-.134.048-.134.08V3659.8Z" fill="#02623f"/>
          </g>
        </g>
        <g id="Grupo_4209" data-name="Grupo 4209">
          <path id="Trazado_5775" data-name="Trazado 5775" d="M967.976,3684.4l-33.587-2.358,8.166-21.627,25.421-9.829Z" fill="#006f98"/>
          <path id="Trazado_5776" data-name="Trazado 5776" d="M954.026,3656.628s-2.816.487-7.6,6.019c-7.151,8.251-8.821,13.9-8.821,13.9h26.91v-19.922Z" fill="none"/>
          <path id="Trazado_5777" data-name="Trazado 5777" d="M934.407,3693.8c-7.477,0-13.537,5.6-13.537,13.076,0,.062,0-.01.005-.01h27.069C947.933,3699.939,941.875,3693.8,934.407,3693.8Z" fill="#5e4a17"/>
          <path id="Trazado_5778" data-name="Trazado 5778" d="M973.171,3690.409v16.459h63.235v-16.459Z" fill="#5e4a17"/>
          <path id="Trazado_5779" data-name="Trazado 5779" d="M947.944,3707.311v-.019h-.025C947.924,3707.292,947.944,3707.464,947.944,3707.311Z" fill="#ff8905"/>
          <path id="Trazado_5780" data-name="Trazado 5780" d="M920.892,3706.868h-.017C920.881,3707.733,920.889,3706.868,920.892,3706.868Z" fill="#ff8905"/>
          <path id="Trazado_5781" data-name="Trazado 5781" d="M973.171,3690.409H908.215a69.484,69.484,0,0,0-2.551,16.459h15.211s-.005.178-.005.115a13.327,13.327,0,0,1,13.537-13.288,13.6,13.6,0,0,1,13.537,13.173h25.227v-16.459Z" fill="#7a7a7a"/>
          <path id="Trazado_5782" data-name="Trazado 5782" d="M1084.913,3690.409H973.171v16.459h111.742Z" fill="#7a7a7a"/>
          <path id="Trazado_5783" data-name="Trazado 5783" d="M975.771,3682.954c0,4.1,2.878,7.455,6.976,7.455h88.333c4.1,0,6.037-3.359,6.037-7.455v-45.117c0-4.1-1.939-9.793-6.037-9.793H982.747c-4.1,0-6.976,5.7-6.976,9.793Z" fill="#80641f"/>
          <g id="Grupo_4207" data-name="Grupo 4207">
            <path id="Trazado_5784" data-name="Trazado 5784" d="M949.153,3708.631a14.967,14.967,0,1,1-14.966-14.968A14.968,14.968,0,0,1,949.153,3708.631Z" fill="#404040"/>
            <path id="Trazado_5785" data-name="Trazado 5785" d="M943.091,3708.631a8.9,8.9,0,1,1-8.9-8.905A8.9,8.9,0,0,1,943.091,3708.631Z" fill="#6b6b6b"/>
            <path id="Trazado_5786" data-name="Trazado 5786" d="M934.187,3699.726c-.089,0-.177.012-.266.014v17.784c.089,0,.177.012.266.012a8.9,8.9,0,0,0,0-17.81Z" fill="#4f4f4f"/>
          </g>
          <g id="Grupo_4208" data-name="Grupo 4208">
            <path id="Trazado_5787" data-name="Trazado 5787" d="M1056.1,3708.631a14.968,14.968,0,1,1-14.965-14.968A14.968,14.968,0,0,1,1056.1,3708.631Z" fill="#404040"/>
            <path id="Trazado_5788" data-name="Trazado 5788" d="M1050.035,3708.631a8.9,8.9,0,1,1-8.9-8.905A8.9,8.9,0,0,1,1050.035,3708.631Z" fill="#6b6b6b"/>
            <path id="Trazado_5789" data-name="Trazado 5789" d="M1041.133,3699.726c-.09,0-.178.012-.268.014v17.784c.09,0,.178.012.268.012a8.9,8.9,0,0,0,0-17.81Z" fill="#4f4f4f"/>
          </g>
          <path id="Trazado_5790" data-name="Trazado 5790" d="M975.565,3659.65v23.3a7.159,7.159,0,0,0,7.182,7.346h88.333c4.1,0,6.433-3.25,6.433-7.346v-23.3Z" fill="#5e4a17"/>
          <rect id="Rectángulo_3149" data-name="Rectángulo 3149" width="4.332" height="62.366" transform="translate(989.63 3628.043)" fill="#737373"/>
          <rect id="Rectángulo_3150" data-name="Rectángulo 3150" width="4.332" height="62.366" transform="translate(1024.278 3628.043)" fill="#737373"/>
          <rect id="Rectángulo_3151" data-name="Rectángulo 3151" width="3.465" height="62.366" transform="translate(1059.793 3628.043)" fill="#737373"/>
          <path id="Trazado_5791" data-name="Trazado 5791" d="M946.422,3662.647c-7.151,8.251-8.821,13.9-8.821,13.9h26.91v-19.922H954.026S951.21,3657.115,946.422,3662.647Z" fill="none"/>
          <path id="Trazado_5792" data-name="Trazado 5792" d="M952.506,3646.233s-14.754,14.394-19.013,20.138c-1.821,2.457-5.119,4.142-8.72,5.912-.167,3.822-2.531,8.325-6.632,11.845a19.889,19.889,0,0,1-9.506,4.718,7.765,7.765,0,0,0-.42,1.563h64.956v-44.176Zm12.005,30.317H937.6s1.67-5.652,8.821-13.9c4.788-5.532,7.6-6.019,7.6-6.019h10.485Z" fill="#ff8905"/>
          <path id="Trazado_5793" data-name="Trazado 5793" d="M924.773,3672.307c-4.826,2.369-10.2,4.93-13.334,9.846a26.664,26.664,0,0,0-2.8,6.645,19.779,19.779,0,0,0,9.506-4.658C922.242,3680.619,924.606,3676.127,924.773,3672.307Z" fill="#bababa"/>
        </g>
        <g id="Grupo_4210" data-name="Grupo 4210">
          <rect id="Rectángulo_3152" data-name="Rectángulo 3152" width="4.755" height="118.886" transform="translate(564.152 3530.421)" fill="#966b2a"/>
          <path id="Trazado_5794" data-name="Trazado 5794" d="M546.341,3550.937v9.735c0,2.944,3.1,5.333,6.046,5.333H566.67v2.275H551.034a6.825,6.825,0,0,1-6.824-6.825v-10.518Z" fill="#966b2a"/>
          <path id="Trazado_5795" data-name="Trazado 5795" d="M566.1,3557.048h5.468c2.946,0,5.335-3.1,5.335-6.043v-14.284h2.273v15.639a6.824,6.824,0,0,1-6.821,6.821H566.1Z" fill="#966b2a"/>
          <path id="Trazado_5796" data-name="Trazado 5796" d="M559.847,3593.582v5.469c0,2.947,3.1,5.336,6.043,5.336h.213v2.274h-1.566a6.823,6.823,0,0,1-6.822-6.826v-6.253Z" fill="#966b2a"/>
          <path id="Trazado_5797" data-name="Trazado 5797" d="M588.694,3495.516c1.939,0,3.512-2.04,3.512-3.981v-5.419H593.7v6.312a4.491,4.491,0,0,1-4.489,4.49h-6.927v-1.4Z" fill="#966b2a"/>
          <path id="Trazado_5798" data-name="Trazado 5798" d="M540.088,3521.795v9.735c0,2.945,3.1,5.334,6.044,5.334h14.284v2.274H544.779a6.823,6.823,0,0,1-6.823-6.824v-10.519Z" fill="#966b2a"/>
          <path id="Trazado_5799" data-name="Trazado 5799" d="M564.621,3596.261h10.6c3.208,0,5.806-3.376,5.806-6.583V3574.13H583.5v17.023a7.428,7.428,0,0,1-7.429,7.426h-11.45Z" fill="#966b2a"/>
          <path id="Trazado_5800" data-name="Trazado 5800" d="M530.206,3543.233a8.122,8.122,0,0,0,2.318,5.691,7.89,7.89,0,0,0,5.579,2.3h48.149a8.166,8.166,0,0,0,5.716-13.669,8.247,8.247,0,0,0-5.517-2.382h-3.433a3.358,3.358,0,0,1-2.412-.862,3.042,3.042,0,0,1-1-2.246c0-1.688,1.253-2.835,2.878-3.43h33.005a6.6,6.6,0,0,0,6.633-6.586,6.244,6.244,0,0,0-1.8-4.576,6.863,6.863,0,0,0-4.661-1.913H600.645a5.274,5.274,0,0,1-3.73-1.541,5.38,5.38,0,0,1,3.73-9.16h8.569a9.865,9.865,0,0,0,10-9.843,9.651,9.651,0,0,0-9.884-9.846v-.524h-25.85a4.177,4.177,0,0,1-2.877-1.37,5.909,5.909,0,0,1-1.848-4.289,6.263,6.263,0,0,1,6.288-6.229h2.013a6.24,6.24,0,0,0,6.242-6.324,6.481,6.481,0,0,0-1.864-4.556,5.784,5.784,0,0,0-4.692-1.777v.174H548.145a6.351,6.351,0,0,0-6.379,6.323,5.836,5.836,0,0,0,1.875,4.284,6.421,6.421,0,0,0,4.5,1.876h2.235a6.386,6.386,0,0,1,4.4,1.717,5.735,5.735,0,0,1,1.7,4.244,6.016,6.016,0,0,1-4.685,5.927h-3.866a11.07,11.07,0,0,0-10.049,10.407,9.706,9.706,0,0,0,2.952,6.978,9.959,9.959,0,0,0,7.1,2.828H558.01a5.5,5.5,0,0,1,3.692,1.6,5.39,5.39,0,0,1,1.432,3.81,5.289,5.289,0,0,1-5.25,5.295h-3.95a6.592,6.592,0,0,0-4.71,11.277,5.769,5.769,0,0,0,4.71,1.8h2.189c.688.595,1.386.405,1.876.9a3.345,3.345,0,0,1,.927,2.409,3.255,3.255,0,0,1-3.389,3.231H538.1A8.061,8.061,0,0,0,530.206,3543.233Zm52.028-48.953a4.869,4.869,0,0,1,4.723-4.877h8.061a4.942,4.942,0,0,1,4.582,5.157,4.918,4.918,0,0,1-4.694,4.949h-7.949a5,5,0,0,1-3.336-1.648A5.325,5.325,0,0,1,582.234,3494.28Z" fill="#038555"/>
          <path id="Trazado_5801" data-name="Trazado 5801" d="M574.061,3568.8a7.469,7.469,0,0,0,2.042,5.13,7.163,7.163,0,0,0,4.9,2.263H592.7a7.128,7.128,0,0,0,6.9-7.164,7.008,7.008,0,0,0-1.886-4.983,7.236,7.236,0,0,0-4.852-2.119H581.007A6.9,6.9,0,0,0,574.061,3568.8Z" fill="#038555" fill-rule="evenodd"/>
          <path id="Trazado_5802" data-name="Trazado 5802" d="M522.6,3521.578a6.552,6.552,0,0,0,1.747,4.455,6.2,6.2,0,0,0,4.2,2.008h10a6.1,6.1,0,0,0,5.9-6.128,6.1,6.1,0,0,0-5.763-6.352H528.542A6.024,6.024,0,0,0,522.6,3521.578Z" fill="#038555" fill-rule="evenodd"/>
          <path id="Trazado_5803" data-name="Trazado 5803" d="M538.1,3535.583h17.434A3.508,3.508,0,0,0,558,3529.7a3.465,3.465,0,0,0-1.876-.939h-2.189a7.127,7.127,0,0,1-.792-.046,6.6,6.6,0,0,1-3.918-1.847,6.5,6.5,0,0,1-1.955-4.639,6.576,6.576,0,0,1,6.665-6.546h3.95a5.34,5.34,0,0,0,5.25-5.354,5.444,5.444,0,0,0-1.432-3.833,5.525,5.525,0,0,0-3.692-1.615H547.924a9.976,9.976,0,0,1-7.1-2.839,9.723,9.723,0,0,1-2.952-6.982,10.058,10.058,0,0,1,10.049-10.082h3.866a6.447,6.447,0,0,0,2.985-10.565,6.632,6.632,0,0,0-4.4-1.942h-2.235a6.3,6.3,0,0,1-4.5-1.733,6.037,6.037,0,0,1-1.875-4.371,6.423,6.423,0,0,1,6.379-6.408h18.242v90.978H538.1a7.775,7.775,0,0,1-5.579-2.157,7.467,7.467,0,0,1-2.318-5.414A7.823,7.823,0,0,1,538.1,3535.583Z" fill="#02623f"/>
          <path id="Trazado_5804" data-name="Trazado 5804" d="M522.6,3521.578a6.552,6.552,0,0,0,1.747,4.455,6.2,6.2,0,0,0,4.2,2.008h10a6.1,6.1,0,0,0,5.9-6.128,6.1,6.1,0,0,0-5.763-6.352H528.542A6.024,6.024,0,0,0,522.6,3521.578Z" fill="#02623f" fill-rule="evenodd"/>
          <path id="Trazado_5805" data-name="Trazado 5805" d="M577.743,3519.875a3.955,3.955,0,0,0,1.248,2.879,4.153,4.153,0,0,0,3,1.127h7.142a4.085,4.085,0,0,0,4.217-4.063,4.183,4.183,0,0,0-1.152-3,4.381,4.381,0,0,0-2.965-1.255h-7.242A4.316,4.316,0,0,0,577.743,3519.875Z" fill="#02623f" fill-rule="evenodd"/>
          <path id="Trazado_5806" data-name="Trazado 5806" d="M551.443,3494.869a5.843,5.843,0,0,0,1.668,4.084,5.754,5.754,0,0,0,4.01,1.747h9.547a5.794,5.794,0,0,0,5.638-5.822,5.344,5.344,0,0,0-1.538-3.908,5.757,5.757,0,0,0-3.964-1.567h-9.683A5.519,5.519,0,0,0,551.443,3494.869Z" fill="#038555" fill-rule="evenodd"/>
        </g>
        <g id="Grupo_4212" data-name="Grupo 4212">
          <path id="Trazado_5807" data-name="Trazado 5807" d="M750.284,3681.592H690.516v-45.908l29.884-21.656,29.885,21.656Z" fill="#ffa138"/>
          <rect id="Rectángulo_3153" data-name="Rectángulo 3153" width="19.057" height="22.52" transform="translate(711.304 3640.015)" fill="#b8643d"/>
          <rect id="Rectángulo_3154" data-name="Rectángulo 3154" width="14.725" height="17.324" transform="translate(713.037 3642.613)" fill="#21406e"/>
          <g id="Grupo_4211" data-name="Grupo 4211">
            <path id="Trazado_5808" data-name="Trazado 5808" d="M753.963,3640.015a1.717,1.717,0,0,1-1.012-.329l-32.538-23.511-31.681,23.5a1.732,1.732,0,1,1-2.063-2.782l33.718-25.009,34.594,25a1.733,1.733,0,0,1-1.018,3.136Z" fill="#8c421f"/>
          </g>
        </g>
        <g id="Grupo_4219" data-name="Grupo 4219">
          <g id="Grupo_4213" data-name="Grupo 4213">
            <path id="Trazado_5809" data-name="Trazado 5809" d="M361.531,3629.707" fill="#737373"/>
            <path id="Trazado_5810" data-name="Trazado 5810" d="M517.83,3630.542h0Z" fill="#737373"/>
            <path id="Trazado_5811" data-name="Trazado 5811" d="M512.132,3626c-3.129-5-3.427-25.369-7.9-42.848a73.462,73.462,0,0,0-20.962-34.9h11.887V3517.07H439.723v.791c-.867,1.786-5.1,7.19-25.563,17.452-21.909,10.985-34.522,29.925-38.992,47.405s-4.79,38.29-7.919,43.286c-1.922,3.068-4.234,3.672-5.718,4.538h9.76v51.1H508.152v-51.1h9.678C516.347,3629.676,514.055,3629.072,512.132,3626Z" fill="#737373"/>
          </g>
          <g id="Grupo_4214" data-name="Grupo 4214">
            <path id="Trazado_5812" data-name="Trazado 5812" d="M517.83,3630.542h0Z" fill="#8f8f8f"/>
            <path id="Trazado_5813" data-name="Trazado 5813" d="M512.132,3626.071c-3.129-4.993-3.427-25.319-7.9-42.8a71.46,71.46,0,0,0-17.855-31.877H392.5a72.764,72.764,0,0,0-17.369,31.324,169.6,169.6,0,0,0-3.416,18.453h75.6v54.845H371.608v25.631h136.81V3630.68h9.412C516.347,3629.784,514.055,3629.14,512.132,3626.071Z" fill="#8f8f8f"/>
          </g>
          <g id="Grupo_4215" data-name="Grupo 4215">
            <path id="Trazado_5814" data-name="Trazado 5814" d="M573.271,3629.707" fill="#a85033"/>
            <path id="Trazado_5815" data-name="Trazado 5815" d="M567.572,3626.071c-3.13-4.993-3.427-25.628-7.9-43.107a74.447,74.447,0,0,0-38.953-47.529c-20.518-10.293-24.656-15.76-25.493-17.53l0-.7a1.412,1.412,0,0,1-.109.407,1.4,1.4,0,0,1-.109-.43l0,.667a6.485,6.485,0,0,1-.605.99v162.809h69.449V3630.68h9.412C571.786,3629.784,569.495,3629.14,567.572,3626.071Z" fill="#a85033"/>
          </g>
          <rect id="Rectángulo_3155" data-name="Rectángulo 3155" width="55.438" height="51.105" transform="translate(371.291 3630.542)" fill="#ad5334"/>
          <path id="Trazado_5816" data-name="Trazado 5816" d="M430.445,3582.718c-1.09,4.263-1.983,8.728-2.85,13.115v85.814h13.86V3559.5A73.49,73.49,0,0,0,430.445,3582.718Z" fill="#d46540"/>
          <path id="Trazado_5817" data-name="Trazado 5817" d="M524.609,3537.471v144.176h13.859V3548.053C535,3544.135,529.806,3540.553,524.609,3537.471Z" fill="#c25c3b"/>
          <path id="Trazado_5818" data-name="Trazado 5818" d="M451.849,3547.292v134.355h13.859V3537.481A88,88,0,0,0,451.849,3547.292Z" fill="#d46540"/>
          <path id="Trazado_5819" data-name="Trazado 5819" d="M476.1,3531.814v149.833h13.859V3523.391C486.5,3525.562,482.165,3528.348,476.1,3531.814Z" fill="#d46540"/>
          <path id="Trazado_5820" data-name="Trazado 5820" d="M500.356,3523.3v158.347h13.859V3531.806C507.286,3528.294,502.955,3525.482,500.356,3523.3Z" fill="#c25c3b"/>
          <path id="Trazado_5821" data-name="Trazado 5821" d="M416.971,3630.68h.24v-.138Q417.088,3630.611,416.971,3630.68Z" fill="#d46540"/>
          <path id="Trazado_5822" data-name="Trazado 5822" d="M559.656,3582.964a75.243,75.243,0,0,0-10.793-23.6v122.278h13.86v-81.188C561.856,3594.727,561.118,3588.678,559.656,3582.964Z" fill="#c25c3b"/>
          <path id="Trazado_5823" data-name="Trazado 5823" d="M422.49,3626.071a10.507,10.507,0,0,1-5.29,4.471h9.529v51.1h.866v-85.814C425.862,3609.437,424.856,3622.295,422.49,3626.071Z" fill="#ad5334"/>
          <path id="Trazado_5824" data-name="Trazado 5824" d="M441.455,3559.5v122.146h10.394V3547.292A52.286,52.286,0,0,0,441.455,3559.5Z" fill="#ad5334"/>
          <path id="Trazado_5825" data-name="Trazado 5825" d="M469.564,3535.314a21.282,21.282,0,0,0-3.856,2.167v144.166H476.1V3531.814C474.37,3532.912,472.031,3534.077,469.564,3535.314Z" fill="#ad5334"/>
          <path id="Trazado_5826" data-name="Trazado 5826" d="M495.22,3517.905l.005-.7a1.315,1.315,0,0,1-.106.407,1.38,1.38,0,0,1-.107-.43l.162.667c-.419.885-1.747,2.681-5.212,5.543v158.256h10.394V3523.3C496.891,3520.528,495.63,3518.77,495.22,3517.905Z" fill="#ad5334"/>
          <path id="Trazado_5827" data-name="Trazado 5827" d="M520.984,3535.435a75.665,75.665,0,0,1-6.769-3.629v149.841h10.394V3537.471A35.022,35.022,0,0,1,520.984,3535.435Z" fill="#ad5334"/>
          <path id="Trazado_5828" data-name="Trazado 5828" d="M538.468,3548.053v133.594h10.395V3559.369A50.535,50.535,0,0,0,538.468,3548.053Z" fill="#ad5334"/>
          <path id="Trazado_5829" data-name="Trazado 5829" d="M563.589,3630.542h9.682c-1.485-.866-3.9-1.47-5.82-4.538-2.106-3.36-3-13.742-4.728-25.545v81.188h.866Z" fill="#ad5334"/>
          <g id="Grupo_4216" data-name="Grupo 4216">
            <rect id="Rectángulo_3156" data-name="Rectángulo 3156" width="19.056" height="29.452" transform="translate(449.25 3552.583)" fill="#fff"/>
            <rect id="Rectángulo_3157" data-name="Rectángulo 3157" width="15.592" height="24.255" transform="translate(450.982 3555.182)" fill="#545454"/>
          </g>
          <g id="Grupo_4217" data-name="Grupo 4217">
            <rect id="Rectángulo_3158" data-name="Rectángulo 3158" width="18.189" height="29.452" transform="translate(518.547 3552.583)" fill="#fff"/>
            <rect id="Rectángulo_3159" data-name="Rectángulo 3159" width="14.725" height="24.255" transform="translate(520.279 3555.182)" fill="#545454"/>
          </g>
          <path id="Trazado_5830" data-name="Trazado 5830" d="M472.638,3647h-1.732V3534.635l1.732-.92Z" fill="#fff"/>
          <path id="Trazado_5831" data-name="Trazado 5831" d="M515.947,3647h-1.732V3531.806l1.732.966Z" fill="#fff"/>
          <rect id="Rectángulo_3160" data-name="Rectángulo 3160" width="19.923" height="39.845" transform="translate(483.898 3641.802)" fill="#545454"/>
          <rect id="Rectángulo_3161" data-name="Rectángulo 3161" width="19.056" height="39.845" transform="translate(431.926 3641.802)" fill="#545454"/>
          <rect id="Rectángulo_3162" data-name="Rectángulo 3162" width="12.127" height="39.845" transform="translate(406.806 3641.802)" fill="#545454"/>
          <rect id="Rectángulo_3163" data-name="Rectángulo 3163" width="43.311" height="1.734" transform="translate(471.771 3594.161)" fill="#fff"/>
          <g id="Grupo_4218" data-name="Grupo 4218">
            <path id="Trazado_5832" data-name="Trazado 5832" d="M573.732,3630.807c-.167-.1-.345-.2-.53-.312a12.5,12.5,0,0,1-4.872-4.45c-1.492-2.381-2.367-9.242-3.381-17.187-.34-2.673-.693-5.436-1.1-8.3a168.911,168.911,0,0,0-3.31-17.706,73.566,73.566,0,0,0-11.154-23.945,76.265,76.265,0,0,0-9.957-11.48,77.085,77.085,0,0,0-14.483-10.719c-1.368-.783-2.637-1.46-3.851-2.068-2.4-1.205-4.753-2.421-6.936-3.615a100.542,100.542,0,0,1-13.346-8.429,35.231,35.231,0,0,1-4.912-4.9v-.488l-.088-.014c0-.014.014-.018.025-.028l-.308,0-1.188-.075c0,.015-.008.032-.016.032h-.212v.519c0,.818-1.65,2.446-5.022,5.047a103.263,103.263,0,0,1-13.29,8.346c-2.089,1.137-4.337,2.311-6.68,3.484-1.37.688-2.738,1.427-4.069,2.193a77.248,77.248,0,0,0-13.57,9.925,75.791,75.791,0,0,0-10.858,12.356A72.91,72.91,0,0,0,429.7,3582.5c-.977,3.816-1.841,8.133-2.645,13.194-.556,3.513-1.042,6.931-1.513,10.237-1.3,9.136-2.423,17.026-4.079,19.67a9.535,9.535,0,0,1-4.85,3.827c-.232.1-.457.2-.674.3l-.518.24v1.008h.679c1.892,0,1.892,0,3.305-.936a10.154,10.154,0,0,0,3.573-3.493c1.858-2.965,2.952-10.645,4.334-20.367.47-3.3.956-6.713,1.511-10.208.793-5.007,1.647-9.27,2.609-13.032a71.148,71.148,0,0,1,10.653-22.929,73.828,73.828,0,0,1,10.6-12.062,75.49,75.49,0,0,1,13.255-9.7c1.3-.748,2.637-1.469,3.979-2.141,2.361-1.185,4.626-2.366,6.733-3.514a104.96,104.96,0,0,0,13.531-8.5,26.152,26.152,0,0,0,4.745-4.464l.189.5.173-.458a25.548,25.548,0,0,0,4.525,4.325,100.7,100.7,0,0,0,13.535,8.591c2.2,1.208,4.544,2.434,6.965,3.648,1.184.591,2.411,1.254,3.751,2.02a75.094,75.094,0,0,1,14.137,10.471,74.1,74.1,0,0,1,9.72,11.209,71.816,71.816,0,0,1,10.881,23.355,167.083,167.083,0,0,1,3.27,17.512c.406,2.853.762,5.643,1.1,8.277,1.083,8.489,1.939,15.2,3.64,17.909a13.432,13.432,0,0,0,2.652,3.11,2.579,2.579,0,0,1,.279.1,7.1,7.1,0,0,1,1.2.776h3.071Z" fill="#fff"/>
          </g>
        </g>
        <g id="Grupo_4220" data-name="Grupo 4220">
          <rect id="Rectángulo_3164" data-name="Rectángulo 3164" width="51.107" height="30.317" transform="translate(538.468 3653.293)" fill="#d1d1d1"/>
          <path id="Trazado_5833" data-name="Trazado 5833" d="M567.752,3640.67H560.58l-22.111,12.509h51.4Z" fill="#dbdbdb"/>
          <rect id="Rectángulo_3165" data-name="Rectángulo 3165" width="26.036" height="30.432" transform="translate(563.828 3653.178)" fill="#b8b8b8"/>
          <path id="Trazado_5834" data-name="Trazado 5834" d="M563.828,3653.178h26.036l-22.112-12.509h-3.924Z" fill="#cfcfcf"/>
        </g>
        <g id="Grupo_4221" data-name="Grupo 4221">
          <rect id="Rectángulo_3166" data-name="Rectángulo 3166" width="38.978" height="38.98" transform="translate(593.906 3644.63)" fill="#d1d1d1"/>
          <path id="Trazado_5835" data-name="Trazado 5835" d="M615.788,3628.581h-5.356l-16.51,16.033H632.3Z" fill="#dbdbdb"/>
          <rect id="Rectángulo_3167" data-name="Rectángulo 3167" width="19.441" height="38.997" transform="translate(612.857 3644.614)" fill="#b8b8b8"/>
          <path id="Trazado_5836" data-name="Trazado 5836" d="M612.857,3644.614H632.3l-16.51-16.033h-2.93Z" fill="#cfcfcf"/>
        </g>
        <g id="Grupo_4222" data-name="Grupo 4222">
          <rect id="Rectángulo_3168" data-name="Rectángulo 3168" width="38.112" height="38.98" transform="translate(635.483 3644.63)" fill="#d1d1d1"/>
          <path id="Trazado_5837" data-name="Trazado 5837" d="M657.039,3628.581h-5.355l-16.512,16.033H673.55Z" fill="#dbdbdb"/>
          <rect id="Rectángulo_3169" data-name="Rectángulo 3169" width="19.442" height="38.997" transform="translate(654.108 3644.614)" fill="#b8b8b8"/>
          <path id="Trazado_5838" data-name="Trazado 5838" d="M654.108,3644.614H673.55l-16.511-16.033h-2.931Z" fill="#cfcfcf"/>
        </g>
      </g>
    </g>
  </g>
</svg>
