<svg xmlns="http://www.w3.org/2000/svg" width="152.443" height="152.443" viewBox="0 0 152.443 152.443">
  <g id="Grupo_6731" data-name="Grupo 6731" transform="translate(-2205.346 -1330.531)">
    <path id="Trazado_1612" data-name="Trazado 1612" d="M2281.568,1330.531q3.744,0,7.471.367t7.4,1.1q3.672.731,7.256,1.817t7.042,2.52q3.46,1.434,6.762,3.2t6.416,3.846q3.114,2.081,6.008,4.456t5.542,5.023q2.649,2.648,5.024,5.542t4.456,6.008q2.079,3.114,3.845,6.416t3.2,6.762q1.434,3.459,2.52,7.043t1.818,7.256q.731,3.672,1.1,7.4t.367,7.471q0,3.744-.367,7.471t-1.1,7.4q-.731,3.672-1.818,7.256t-2.52,7.043q-1.433,3.459-3.2,6.761t-3.845,6.416q-2.081,3.114-4.456,6.008t-5.024,5.542q-2.648,2.649-5.542,5.024t-6.008,4.456q-3.114,2.08-6.416,3.845t-6.762,3.2q-3.459,1.434-7.042,2.52t-7.256,1.818q-3.673.73-7.4,1.1t-7.471.367q-3.746,0-7.471-.367t-7.4-1.1q-3.673-.731-7.256-1.818t-7.043-2.52q-3.459-1.432-6.762-3.2t-6.416-3.845q-3.112-2.081-6.008-4.456t-5.542-5.024q-2.647-2.646-5.023-5.542t-4.456-6.008q-2.08-3.114-3.846-6.416t-3.2-6.761q-1.432-3.461-2.52-7.043t-1.817-7.256q-.731-3.672-1.1-7.4t-.367-7.471q0-3.744.367-7.471t1.1-7.4q.731-3.674,1.817-7.256t2.52-7.043q1.433-3.459,3.2-6.762t3.846-6.416q2.081-3.112,4.456-6.008t5.023-5.542q2.648-2.648,5.542-5.023t6.008-4.456q3.114-2.08,6.416-3.846t6.762-3.2q3.459-1.432,7.043-2.52T2266.7,1332q3.672-.73,7.4-1.1T2281.568,1330.531Z" fill="#e6b54a"/>
    <circle id="Elipse_70" data-name="Elipse 70" cx="71.597" cy="71.597" r="71.597" transform="translate(2209.971 1335.777)" fill="#fff"/>
    <circle id="Elipse_71" data-name="Elipse 71" cx="65.13" cy="65.13" r="65.13" transform="translate(2216.438 1342.243)" fill="#f1f1f1"/>
    <g id="Grupo_2023" data-name="Grupo 2023">
      <rect id="Rectángulo_1847" data-name="Rectángulo 1847" width="65.065" height="17.126" rx="2.875" transform="translate(2269.856 1417.653)" fill="#241530"/>
      <path id="Rectángulo_1848" data-name="Rectángulo 1848" d="M2.875,0h29.7a2.875,2.875,0,0,1,2.875,2.875V14.251a2.876,2.876,0,0,1-2.876,2.876H2.876A2.876,2.876,0,0,1,0,14.251V2.875A2.875,2.875,0,0,1,2.875,0Z" transform="translate(2227.658 1417.653)" fill="#241530"/>
      <path id="Rectángulo_1849" data-name="Rectángulo 1849" d="M2.427,0H67.493A2.427,2.427,0,0,1,69.92,2.427V39.41a2.427,2.427,0,0,1-2.427,2.427H2.428A2.428,2.428,0,0,1,0,39.41V2.427A2.427,2.427,0,0,1,2.427,0Z" transform="translate(2267.429 1378.296)" fill="#d05155"/>
      <path id="Trazado_1922" data-name="Trazado 1922" d="M2269.856,1380.1h65.066a.62.62,0,0,1,.437.182v0a.62.62,0,0,1,.182.437v36.983a.621.621,0,0,1-.62.62h-65.066a.614.614,0,0,1-.437-.182h0a.614.614,0,0,1-.182-.437v-36.983a.621.621,0,0,1,.62-.621Zm65.066.575h-65.066a.046.046,0,0,0-.032.013.045.045,0,0,0-.014.033v36.983a.044.044,0,0,0,.046.046h65.066a.045.045,0,0,0,.032-.014.048.048,0,0,0,.014-.032v-36.983a.048.048,0,0,0-.013-.033h0A.049.049,0,0,0,2334.922,1380.678Z" fill="#a8252b" fill-rule="evenodd"/>
      <rect id="Rectángulo_1850" data-name="Rectángulo 1850" width="7.284" height="8.241" rx="1.111" transform="translate(2263.381 1423.66)" fill="#241530"/>
      <path id="Trazado_1923" data-name="Trazado 1923" d="M2335.578,1433.583h-3.106c.036-.4.056-.8.056-1.209a13.089,13.089,0,0,0-5.123-10.4h8.173a1.776,1.776,0,0,1,1.771,1.77v8.064a1.776,1.776,0,0,1-1.771,1.771Zm-29.213,0h-1.879c.037-.4.056-.8.056-1.209a13.089,13.089,0,0,0-5.123-10.4h12.013a13.088,13.088,0,0,0-5.123,10.4c0,.408.019.81.056,1.209Zm-27.986,0h-9.18a1.776,1.776,0,0,1-1.77-1.771v-8.064a1.775,1.775,0,0,1,1.77-1.77h14.247a13.089,13.089,0,0,0-5.123,10.4C2278.323,1432.782,2278.343,1433.184,2278.379,1433.583Z" fill="#fff" fill-rule="evenodd"/>
      <path id="Trazado_1924" data-name="Trazado 1924" d="M2336.914,1429.2h-4.773a12.994,12.994,0,0,0-1.074-2.849h5.847a.436.436,0,0,1,.435.434v1.98a.436.436,0,0,1-.435.435Zm-30.219,0h-2.539a13.058,13.058,0,0,0-1.075-2.849h4.689a13.045,13.045,0,0,0-1.075,2.849Zm-27.985,0h-10.847a.435.435,0,0,1-.434-.435v-1.98a.435.435,0,0,1,.434-.434h11.921A13.005,13.005,0,0,0,2278.71,1429.2Z" fill="#ecdeeb" fill-rule="evenodd"/>
      <path id="Trazado_1925" data-name="Trazado 1925" d="M2263.112,1422.293h-8.01a13.107,13.107,0,0,0-16.76,0h-11.7v-11.3h36.471Z" fill="#8d2340" fill-rule="evenodd"/>
      <path id="Trazado_1926" data-name="Trazado 1926" d="M2264.4,1433.583h-4.628c.037-.4.057-.8.057-1.209a13.09,13.09,0,0,0-5.124-10.4h9.7a1.776,1.776,0,0,1,1.771,1.77v8.064a1.776,1.776,0,0,1-1.771,1.771Zm-30.734,0h-8.32a1.776,1.776,0,0,1-1.77-1.771v-8.064a1.775,1.775,0,0,1,1.77-1.77h13.387a13.089,13.089,0,0,0-5.123,10.4C2233.613,1432.782,2233.632,1433.184,2233.669,1433.583Z" fill="#fff" fill-rule="evenodd"/>
      <path id="Trazado_1927" data-name="Trazado 1927" d="M2263.558,1421.246h-9.9a13.114,13.114,0,0,0-13.864,0H2226.2a1.721,1.721,0,0,1-1.716-1.715v-9.665a13.975,13.975,0,0,1,1.261-4.593c1.171-2.612,10.355-22.513,10.355-22.513s1.531-2.926,4.188-2.926h21.972a3.011,3.011,0,0,1,3.018,2.971v36.726A1.72,1.72,0,0,1,2263.558,1421.246Z" fill="#e29a30" fill-rule="evenodd"/>
      <path id="Trazado_1928" data-name="Trazado 1928" d="M2224.48,1416.876v-7.01a13.956,13.956,0,0,1,1.26-4.593c1-2.237,7.882-17.152,9.837-21.39h18.936v29.689a3.313,3.313,0,0,1-3.3,3.3Z" fill="#eab331" fill-rule="evenodd"/>
      <path id="Trazado_1929" data-name="Trazado 1929" d="M2233.946,1387.419l2.149-4.659s1.531-2.926,4.188-2.926h21.972a3.011,3.011,0,0,1,3.018,2.971v4.614Z" fill="#eab331" fill-rule="evenodd"/>
      <path id="Trazado_1930" data-name="Trazado 1930" d="M2258.434,1389.7h3.176a1.665,1.665,0,0,1,1.806,1.461v10.17a1.666,1.666,0,0,1-1.806,1.461h-3.176a1.666,1.666,0,0,1-1.806-1.461v-10.17A1.665,1.665,0,0,1,2258.434,1389.7Z" fill="#eab331" fill-rule="evenodd"/>
      <path id="Trazado_1931" data-name="Trazado 1931" d="M2250.492,1389.216a2.7,2.7,0,0,1,.743.021,2.764,2.764,0,0,1,.73.225,2.476,2.476,0,0,1,1.149,1.117,3.9,3.9,0,0,1,.389,1.794v10.037a2.674,2.674,0,0,1-.141.871,3.591,3.591,0,0,1-.431.884,4.148,4.148,0,0,1-1.462,1.294,7.092,7.092,0,0,1-2.191.726c-1.023.178-2.073.319-3.113.46l-.184.024c-.739.1-1.508.2-2.294.3-.925.119-1.655.211-2.295.291q-1.95.245-3.956.487-1.947.235-3.956.473c-.15.018-.3.04-.459.063a3.467,3.467,0,0,1-2.609-.283,2.026,2.026,0,0,1-.811-1.5,5.233,5.233,0,0,1,.146-1.653c.389-1.736.815-3.448,1.24-5.153l.278-1.118c.535-2.152,1.07-4.306,1.642-6.528a3.986,3.986,0,0,1,.25-.677,4.922,4.922,0,0,1,.38-.673,3.51,3.51,0,0,1,1.16-1.1,2.94,2.94,0,0,1,1.465-.383Zm.674.445a2.246,2.246,0,0,0-.628-.017l-.033,0h-14.343a2.51,2.51,0,0,0-1.253.327,3.084,3.084,0,0,0-1.017.966,4.464,4.464,0,0,0-.346.613,3.536,3.536,0,0,0-.223.6c-.546,2.12-1.094,4.324-1.641,6.524l-.278,1.118c-.428,1.718-.858,3.443-1.239,5.144a4.82,4.82,0,0,0-.136,1.514,1.615,1.615,0,0,0,.633,1.2,3.168,3.168,0,0,0,2.3.2c.162-.023.32-.047.47-.064h0q1.949-.231,3.956-.473,1.952-.237,3.954-.487c.889-.111,1.689-.212,2.293-.29.742-.1,1.5-.2,2.291-.3l.184-.025c1.028-.139,2.066-.279,3.1-.458a6.631,6.631,0,0,0,2.057-.679,3.72,3.72,0,0,0,1.314-1.158,3.112,3.112,0,0,0,.377-.776,2.269,2.269,0,0,0,.121-.727v-10.048a3.476,3.476,0,0,0-.341-1.6,2.062,2.062,0,0,0-.952-.929A2.292,2.292,0,0,0,2251.166,1389.661Z" fill="#d2792f" fill-rule="evenodd"/>
      <path id="Trazado_1932" data-name="Trazado 1932" d="M2236.162,1390.347h14.409s1.8-.315,1.8,2.026v10.041s.09,2.071-3.287,2.657c-2.892.5-12.921,1.7-15.738,2.029-1.573.185-3.11.732-2.5-2.006.676-3.017,3.152-12.765,3.152-12.765S2234.531,1390.353,2236.162,1390.347Z" fill="#ecdeeb" fill-rule="evenodd"/>
      <path id="Trazado_1933" data-name="Trazado 1933" d="M2236.845,1406.682l-3.07.367-1.676-1.677a.889.889,0,0,1,0-1.255l.464-.464a.892.892,0,0,1,1.255,0Z" fill="#beaacf" fill-rule="evenodd"/>
      <path id="Trazado_1934" data-name="Trazado 1934" d="M2234.328,1406.984l-.981.116c-1.573.185-3.11.732-2.5-2.006.085-.38.2-.865.332-1.425Z" fill="#241530" fill-rule="evenodd"/>
      <path id="Trazado_1935" data-name="Trazado 1935" d="M2245.589,1409.637h3.984a.53.53,0,0,1,.529.529h0a.53.53,0,0,1-.529.529h-3.984a.53.53,0,0,1-.529-.529h0A.531.531,0,0,1,2245.589,1409.637Z" fill="#241530" fill-rule="evenodd"/>
      <g id="Grupo_2007" data-name="Grupo 2007">
        <path id="Trazado_1936" data-name="Trazado 1936" d="M2245.953,1397.963l-.32-2.668a8.335,8.335,0,0,0,.962-.526,7.884,7.884,0,0,1,1.451-.314l.414,2.629-.953.67Z" fill="#d2827c" fill-rule="evenodd"/>
        <path id="Trazado_1937" data-name="Trazado 1937" d="M2244.276,1391.687a2.715,2.715,0,0,0-.208,1.458c.116.856.1,1.244-.2,1.49a.16.16,0,0,0-.017.168.6.6,0,0,0,.425.3s.078.5.13.844a.747.747,0,0,0,.827.68c.592.022,2.142-.4,2.2-1.677s-.09-1.257-.09-1.257-1.7-2.2-1.822-2.232-1.121-.441-1.121-.441Z" fill="#e7b3a2" fill-rule="evenodd"/>
        <path id="Trazado_1938" data-name="Trazado 1938" d="M2246.928,1393.941c-.628-.225-.557-.359-.643-.916a1.763,1.763,0,0,1-1.311-1.008l-.733.069a1.415,1.415,0,0,1-.273.008,50.044,50.044,0,0,1,5.22-1.021,1.367,1.367,0,0,1,.186.407c.482,1.747-1.153,3.164-1.188,3.8l0,.049-.046-.024-.343-.526Z" fill="#241530" fill-rule="evenodd"/>
        <path id="Trazado_1939" data-name="Trazado 1939" d="M2246.928,1393.941c.3-1.422,1.5-.962,1.43-.088a1.279,1.279,0,0,1-.93,1.094l-.67-.418Z" fill="#e7b3a2" fill-rule="evenodd"/>
        <path id="Trazado_1940" data-name="Trazado 1940" d="M2245.412,1393.779a.444.444,0,1,1-.342.527A.443.443,0,0,1,2245.412,1393.779Z" fill="#cf8577" fill-rule="evenodd"/>
        <path id="Trazado_1941" data-name="Trazado 1941" d="M2245,1393.2a.07.07,0,0,0,.089-.04.068.068,0,0,0-.039-.088.849.849,0,0,0-.769.075.068.068,0,1,0,.081.11A.707.707,0,0,1,2245,1393.2Z" fill="#241530" fill-rule="evenodd"/>
        <path id="Trazado_1942" data-name="Trazado 1942" d="M2247.151,1393.983a.047.047,0,0,0,.033.057.047.047,0,0,0,.058-.032.85.85,0,0,1,.173-.349.319.319,0,0,1-.065.542.047.047,0,0,0-.013.065.048.048,0,0,0,.065.013.4.4,0,0,0,.081-.684.385.385,0,0,1,.1-.053.311.311,0,0,1,.162-.013.327.327,0,0,1,.142.068.389.389,0,0,1,.127.36.743.743,0,0,1-.559.584.047.047,0,1,0,.023.091.838.838,0,0,0,.63-.662.482.482,0,0,0-.161-.444.421.421,0,0,0-.185-.089.4.4,0,0,0-.21.017.467.467,0,0,0-.165.1h0l0,0h0A.915.915,0,0,0,2247.151,1393.983Z" fill="#cf8577" fill-rule="evenodd"/>
        <path id="Trazado_1943" data-name="Trazado 1943" d="M2247.256,1402.931c3.478-2.763.8-5.9-.626-4.244l-3.361,3.9s-6.41.415-6.541.422a.369.369,0,0,1-.216-.05l-.1-.132a.63.63,0,0,0-.858-.17,2.345,2.345,0,0,0-.47.214.421.421,0,0,0-.226.282.715.715,0,0,0,.09.41l.982.6s.148.152.239.145a.3.3,0,0,0,.2-.119l.143-.163a.056.056,0,0,0,.069-.012c.033-.033,6.221.624,6.595.664a2.433,2.433,0,0,0,1.531-.3C2245.3,1404.036,2247.256,1402.931,2247.256,1402.931Z" fill="#e7b3a2" fill-rule="evenodd"/>
        <path id="Trazado_1944" data-name="Trazado 1944" d="M2245.735,1398.5l-.068-.323.178-.333a1.224,1.224,0,0,1,.044-.419.605.605,0,0,0,.311-.057c.158-.077,2.153-.966,2.153-.966a.2.2,0,0,1,.132.083,1.382,1.382,0,0,1,.078.325,16.207,16.207,0,0,1,2.468,2.687,17.809,17.809,0,0,1,.819,4.215,4.38,4.38,0,0,1-2.765,1.355c-.585.1-1.462.231-2.512.376a.793.793,0,0,1,.189-.3l-.92-3.483Z" fill="#fff" fill-rule="evenodd"/>
        <path id="Trazado_1945" data-name="Trazado 1945" d="M2244.6,1393.355c.088.029.145.178.129.334s-.1.257-.189.228-.146-.179-.129-.334S2244.517,1393.325,2244.6,1393.355Z" fill="#241530" fill-rule="evenodd"/>
        <path id="Trazado_1946" data-name="Trazado 1946" d="M2244.1,1394.271a.625.625,0,0,0-.152.117,2.724,2.724,0,0,0-.27.846,4.592,4.592,0,0,0,1.061,1.423,1.388,1.388,0,0,0,1.343-.042,8.656,8.656,0,0,0,.794-.531c.205-.152.094-.434-.142-.708s-.56-.642-.56-.642a1.042,1.042,0,0,0-.546-.266C2245.277,1394.409,2244.1,1394.271,2244.1,1394.271Z" fill="#fff" fill-rule="evenodd"/>
        <path id="Trazado_1947" data-name="Trazado 1947" d="M2246,1394.7a.043.043,0,0,1-.056.026.045.045,0,0,1-.026-.056c0-.005.494-1.369,1.285-1.384a.947.947,0,0,0-.066.092c-.691.089-1.135,1.318-1.137,1.322Zm1.859.026a1.13,1.13,0,0,1-.108.07,1.738,1.738,0,0,1-.077.234,1.555,1.555,0,0,1-.8.877.043.043,0,0,0-.022.057.042.042,0,0,0,.057.023,1.644,1.644,0,0,0,.845-.924A2.2,2.2,0,0,0,2247.864,1394.73Z" fill="#fff" fill-rule="evenodd"/>
        <path id="Trazado_1948" data-name="Trazado 1948" d="M2246.429,1398.808l-2.712,3.047a.3.3,0,0,0-.027.246,6.828,6.828,0,0,0,1.594,2.288.327.327,0,0,0,.246.048,27.3,27.3,0,0,0,3.6-2.658C2250.96,1399.93,2248.549,1396.426,2246.429,1398.808Z" fill="#d05155" fill-rule="evenodd"/>
        <path id="Trazado_1949" data-name="Trazado 1949" d="M2245.676,1392.009c-2.2,1.165-2.811-.529-2.456-1.662h5.855a1.7,1.7,0,0,1,.113.726C2249.118,1392.27,2245.676,1392.009,2245.676,1392.009Z" fill="#241530" fill-rule="evenodd"/>
      </g>
      <rect id="Rectángulo_1851" data-name="Rectángulo 1851" width="1.257" height="7.519" rx="0.459" transform="translate(2231.937 1401.266) rotate(-45.003)" fill="#beaacf"/>
      <path id="Trazado_1950" data-name="Trazado 1950" d="M2231.616,1405.393h2.322a1.046,1.046,0,0,0,1.043-1.043v-2.475H2236v2.475a2.069,2.069,0,0,1-2.064,2.064h-2.322Z" fill="#241530" fill-rule="evenodd"/>
      <path id="Rectángulo_1852" data-name="Rectángulo 1852" d="M1.036,0H1.8A1.035,1.035,0,0,1,2.837,1.035V6.484A1.036,1.036,0,0,1,1.8,7.519H1.036A1.036,1.036,0,0,1,0,6.484V1.036A1.036,1.036,0,0,1,1.036,0Z" transform="translate(2234.073 1396.175)" fill="#3e2055"/>
      <path id="Trazado_1951" data-name="Trazado 1951" d="M2265.739,1429.2h-6.294a13.005,13.005,0,0,0-1.074-2.849h7.368a.436.436,0,0,1,.435.434v1.98a.436.436,0,0,1-.435.435Zm-31.74,0h-9.985a.436.436,0,0,1-.435-.435v-1.98a.436.436,0,0,1,.435-.434h11.059A13.005,13.005,0,0,0,2234,1429.2Z" fill="#ecdeeb" fill-rule="evenodd"/>
      <g id="Grupo_2008" data-name="Grupo 2008">
        <path id="Trazado_1952" data-name="Trazado 1952" d="M2246.722,1444.095a11.615,11.615,0,1,0-11.615-11.615A11.637,11.637,0,0,0,2246.722,1444.095Z" fill="#3e2055" fill-rule="evenodd"/>
        <path id="Trazado_1953" data-name="Trazado 1953" d="M2246.722,1423.055a9.425,9.425,0,1,0,9.425,9.425A9.425,9.425,0,0,0,2246.722,1423.055Z" fill="#241530" fill-rule="evenodd"/>
        <path id="Trazado_1954" data-name="Trazado 1954" d="M2246.722,1439.8a7.315,7.315,0,1,0-7.315-7.316A7.33,7.33,0,0,0,2246.722,1439.8Z" fill="#fff" fill-rule="evenodd"/>
        <path id="Trazado_1955" data-name="Trazado 1955" d="M2246.722,1427.312a5.169,5.169,0,1,0,5.168,5.168A5.168,5.168,0,0,0,2246.722,1427.312Z" fill="#ecdeeb" fill-rule="evenodd"/>
        <path id="Trazado_1956" data-name="Trazado 1956" d="M2246.722,1435.062a2.581,2.581,0,1,0-2.581-2.582A2.586,2.586,0,0,0,2246.722,1435.062Z" fill="#3e2055" fill-rule="evenodd"/>
        <path id="Trazado_1957" data-name="Trazado 1957" d="M2257.928,1434.6a.213.213,0,1,0,.418.078c.016-.082.031-.167.045-.252s.028-.174.039-.251a.213.213,0,1,0-.422-.06c-.013.088-.025.169-.037.243s-.028.161-.043.242Zm.174-1.411a.213.213,0,0,0,.426.025c.007-.116.012-.238.016-.368s.007-.26.007-.366a11.834,11.834,0,0,0-8.83-11.444.213.213,0,0,0-.107.412,11.4,11.4,0,0,1,8.51,11.032c0,.136,0,.254-.005.355s-.009.23-.017.354Zm-11.38-12.11a.214.214,0,1,0,0-.427c-.093,0-.2,0-.334.005s-.229.008-.334.014a.213.213,0,0,0,.023.425c.113-.006.221-.011.323-.013s.2,0,.322,0Zm-1.643.117a.213.213,0,1,0-.061-.422,11.832,11.832,0,0,0-10.125,11.706q0,.335.02.682c.013.23.033.457.058.679a.213.213,0,1,0,.424-.048c-.025-.219-.044-.437-.056-.655s-.019-.431-.019-.658a11.4,11.4,0,0,1,9.759-11.284Zm-9.593,13.232a.214.214,0,1,0-.421.072c.016.092.036.2.06.319s.047.225.069.32a.213.213,0,1,0,.415-.1c-.026-.113-.048-.216-.067-.307S2235.506,1434.545,2235.486,1434.428Z" fill="#fff" fill-rule="evenodd"/>
      </g>
      <g id="Grupo_2009" data-name="Grupo 2009">
        <path id="Trazado_1958" data-name="Trazado 1958" d="M2291.433,1444.095a11.615,11.615,0,1,0-11.616-11.615A11.637,11.637,0,0,0,2291.433,1444.095Z" fill="#3e2055" fill-rule="evenodd"/>
        <path id="Trazado_1959" data-name="Trazado 1959" d="M2291.433,1423.055a9.425,9.425,0,1,0,9.425,9.425A9.425,9.425,0,0,0,2291.433,1423.055Z" fill="#241530" fill-rule="evenodd"/>
        <path id="Trazado_1960" data-name="Trazado 1960" d="M2291.433,1439.8a7.315,7.315,0,1,0-7.316-7.316A7.329,7.329,0,0,0,2291.433,1439.8Z" fill="#fff" fill-rule="evenodd"/>
        <path id="Trazado_1961" data-name="Trazado 1961" d="M2291.433,1427.312a5.169,5.169,0,1,0,5.168,5.168A5.168,5.168,0,0,0,2291.433,1427.312Z" fill="#ecdeeb" fill-rule="evenodd"/>
        <path id="Trazado_1962" data-name="Trazado 1962" d="M2291.433,1435.062a2.581,2.581,0,1,0-2.581-2.582A2.587,2.587,0,0,0,2291.433,1435.062Z" fill="#3e2055" fill-rule="evenodd"/>
        <path id="Trazado_1963" data-name="Trazado 1963" d="M2302.638,1434.6a.213.213,0,0,0,.419.078c.015-.082.03-.167.045-.252s.027-.174.038-.251a.213.213,0,1,0-.422-.06c-.012.088-.025.169-.037.243s-.028.161-.043.242Zm.175-1.411a.213.213,0,0,0,.426.025c.007-.116.012-.238.016-.368s.007-.26.007-.366a11.834,11.834,0,0,0-8.83-11.444.213.213,0,1,0-.107.412,11.405,11.405,0,0,1,8.509,11.032c0,.136,0,.254,0,.355s-.008.23-.016.354Zm-11.38-12.11a.214.214,0,0,0,0-.427c-.093,0-.205,0-.334.005s-.229.008-.335.014a.213.213,0,0,0,.024.425c.113-.006.22-.011.322-.013s.2,0,.323,0Zm-1.644.117a.213.213,0,0,0-.06-.422,11.832,11.832,0,0,0-10.125,11.706c0,.223.007.45.02.682s.032.457.058.679a.213.213,0,1,0,.423-.048c-.025-.219-.044-.437-.056-.655s-.018-.431-.018-.658a11.4,11.4,0,0,1,9.758-11.284Zm-9.593,13.232a.213.213,0,1,0-.42.072c.016.092.036.2.06.319s.047.225.068.32a.213.213,0,0,0,.416-.1c-.027-.113-.048-.216-.067-.307S2280.217,1434.545,2280.2,1434.428Z" fill="#fff" fill-rule="evenodd"/>
      </g>
      <g id="Grupo_2010" data-name="Grupo 2010">
        <path id="Trazado_1964" data-name="Trazado 1964" d="M2319.419,1444.095a11.615,11.615,0,1,0-11.616-11.615A11.637,11.637,0,0,0,2319.419,1444.095Z" fill="#3e2055" fill-rule="evenodd"/>
        <path id="Trazado_1965" data-name="Trazado 1965" d="M2319.419,1423.055a9.425,9.425,0,1,0,9.424,9.425A9.425,9.425,0,0,0,2319.419,1423.055Z" fill="#241530" fill-rule="evenodd"/>
        <path id="Trazado_1966" data-name="Trazado 1966" d="M2319.419,1439.8a7.315,7.315,0,1,0-7.316-7.316A7.329,7.329,0,0,0,2319.419,1439.8Z" fill="#fff" fill-rule="evenodd"/>
        <path id="Trazado_1967" data-name="Trazado 1967" d="M2319.419,1427.312a5.169,5.169,0,1,0,5.168,5.168A5.168,5.168,0,0,0,2319.419,1427.312Z" fill="#ecdeeb" fill-rule="evenodd"/>
        <path id="Trazado_1968" data-name="Trazado 1968" d="M2319.419,1435.062a2.581,2.581,0,1,0-2.581-2.582A2.587,2.587,0,0,0,2319.419,1435.062Z" fill="#3e2055" fill-rule="evenodd"/>
        <path id="Trazado_1969" data-name="Trazado 1969" d="M2330.624,1434.6a.213.213,0,0,0,.419.078c.015-.082.03-.167.044-.252s.028-.174.039-.251a.213.213,0,1,0-.422-.06c-.012.088-.025.169-.037.243s-.028.161-.043.242Zm.175-1.411a.213.213,0,0,0,.425.025c.007-.116.013-.238.017-.368s.006-.26.006-.366a11.835,11.835,0,0,0-8.829-11.444.213.213,0,0,0-.107.412,11.406,11.406,0,0,1,8.509,11.032c0,.136,0,.254-.005.355s-.009.23-.016.354Zm-11.38-12.11a.214.214,0,0,0,0-.427c-.093,0-.2,0-.334.005s-.23.008-.334.014a.213.213,0,0,0,.023.425c.113-.006.22-.011.322-.013s.2,0,.323,0Zm-1.644.117a.213.213,0,1,0-.06-.422,11.832,11.832,0,0,0-10.125,11.706q0,.335.02.682c.013.23.032.457.058.679a.213.213,0,1,0,.423-.048c-.025-.219-.043-.437-.056-.655s-.018-.431-.018-.658a11.4,11.4,0,0,1,9.758-11.284Zm-9.593,13.232a.213.213,0,1,0-.42.072c.016.092.036.2.06.319s.046.225.068.32a.213.213,0,0,0,.416-.1c-.026-.113-.049-.216-.067-.307S2308.2,1434.545,2308.182,1434.428Z" fill="#fff" fill-rule="evenodd"/>
      </g>
      <path id="Trazado_1970" data-name="Trazado 1970" d="M2236.162,1390.347h14.409s1.8-.315,1.8,2.026v10.041a2.091,2.091,0,0,1-.521,1.3,4.377,4.377,0,0,1-2.766,1.355c-.585.1-1.462.231-2.512.376-3.651.505-9.4,1.2-12.245,1.537l-.981.116c-1.573.185-3.11.732-2.5-2.006.085-.38.2-.865.332-1.425.331-1.389.786-3.234,1.233-5.031.8-3.232,1.587-6.309,1.587-6.309s.529-1.976,2.16-1.982Zm16.911,12.05v-10.024a3.476,3.476,0,0,0-.341-1.6,2.062,2.062,0,0,0-.952-.929,2.292,2.292,0,0,0-.614-.188,2.246,2.246,0,0,0-.628-.017l-.033,0h-14.343a2.51,2.51,0,0,0-1.253.327,3.084,3.084,0,0,0-1.017.966,4.464,4.464,0,0,0-.346.613,3.536,3.536,0,0,0-.223.6c-.543,2.107-1.087,4.3-1.631,6.484l-.01.04-.278,1.118c-.428,1.718-.858,3.443-1.239,5.144a4.82,4.82,0,0,0-.136,1.514,1.615,1.615,0,0,0,.633,1.2,3.168,3.168,0,0,0,2.3.2c.162-.023.32-.047.47-.064h0q1.949-.231,3.956-.473,1.952-.237,3.954-.487c.889-.111,1.689-.212,2.293-.29.742-.1,1.5-.2,2.291-.3l.184-.025c1.028-.139,2.066-.279,3.1-.458a6.631,6.631,0,0,0,2.057-.679,3.72,3.72,0,0,0,1.314-1.158,3.112,3.112,0,0,0,.377-.776,2.269,2.269,0,0,0,.121-.727Z" fill="#3e2055" fill-rule="evenodd"/>
      <path id="Trazado_1971" data-name="Trazado 1971" d="M2265.273,1387.2a.216.216,0,1,1,0,.431h-31.327a.216.216,0,0,1,0-.431Z" fill="#d2792f" fill-rule="evenodd"/>
      <path id="Trazado_1972" data-name="Trazado 1972" d="M2234.7,1403.7l.055.056a.106.106,0,0,1,0,.149l-1.077,1.077a.106.106,0,0,1-.149,0l-.056-.055a.107.107,0,0,1,0-.15l1.077-1.077A.107.107,0,0,1,2234.7,1403.7Z" fill="#beaacf" fill-rule="evenodd"/>
      <path id="Trazado_1973" data-name="Trazado 1973" d="M2248.563,1396.814a1.382,1.382,0,0,0-.078-.325.2.2,0,0,0-.132-.083s-2,.889-2.153.966a.605.605,0,0,1-.311.057,1.224,1.224,0,0,0-.044.419l-.178.333.531-.251,2.229-1.052Z" fill="#d05155" fill-rule="evenodd"/>
      <g id="Grupo_2014" data-name="Grupo 2014">
        <g id="Grupo_2011" data-name="Grupo 2011">
          <path id="Trazado_1974" data-name="Trazado 1974" d="M2246.722,1428.257a.945.945,0,1,0-.945-.945A.947.947,0,0,0,2246.722,1428.257Z" fill="#a590b9" fill-rule="evenodd"/>
          <path id="Trazado_1975" data-name="Trazado 1975" d="M2246.722,1438.594a.945.945,0,1,0-.945-.945A.947.947,0,0,0,2246.722,1438.594Z" fill="#a590b9" fill-rule="evenodd"/>
        </g>
        <g id="Grupo_2012" data-name="Grupo 2012">
          <path id="Trazado_1976" data-name="Trazado 1976" d="M2252.016,1429.424a.945.945,0,1,1-1.291-.346A.944.944,0,0,1,2252.016,1429.424Z" fill="#a590b9" fill-rule="evenodd"/>
          <path id="Trazado_1977" data-name="Trazado 1977" d="M2243.064,1434.592a.945.945,0,1,1-1.29-.346A.944.944,0,0,1,2243.064,1434.592Z" fill="#a590b9" fill-rule="evenodd"/>
        </g>
        <g id="Grupo_2013" data-name="Grupo 2013">
          <path id="Trazado_1978" data-name="Trazado 1978" d="M2252.016,1435.537a.945.945,0,1,1-.346-1.291A.945.945,0,0,1,2252.016,1435.537Z" fill="#a590b9" fill-rule="evenodd"/>
          <path id="Trazado_1979" data-name="Trazado 1979" d="M2243.064,1430.369a.945.945,0,1,1-.346-1.291A.945.945,0,0,1,2243.064,1430.369Z" fill="#a590b9" fill-rule="evenodd"/>
        </g>
      </g>
      <g id="Grupo_2018" data-name="Grupo 2018">
        <g id="Grupo_2015" data-name="Grupo 2015">
          <path id="Trazado_1980" data-name="Trazado 1980" d="M2291.357,1428.187a.945.945,0,1,0-.945-.945A.947.947,0,0,0,2291.357,1428.187Z" fill="#a590b9" fill-rule="evenodd"/>
          <path id="Trazado_1981" data-name="Trazado 1981" d="M2291.357,1438.524a.945.945,0,1,0-.945-.945A.947.947,0,0,0,2291.357,1438.524Z" fill="#a590b9" fill-rule="evenodd"/>
        </g>
        <g id="Grupo_2016" data-name="Grupo 2016">
          <path id="Trazado_1982" data-name="Trazado 1982" d="M2296.652,1429.354a.945.945,0,1,1-1.291-.346A.945.945,0,0,1,2296.652,1429.354Z" fill="#a590b9" fill-rule="evenodd"/>
          <path id="Trazado_1983" data-name="Trazado 1983" d="M2287.7,1434.522a.945.945,0,1,1-1.291-.346A.945.945,0,0,1,2287.7,1434.522Z" fill="#a590b9" fill-rule="evenodd"/>
        </g>
        <g id="Grupo_2017" data-name="Grupo 2017">
          <path id="Trazado_1984" data-name="Trazado 1984" d="M2296.652,1435.467a.945.945,0,1,1-.346-1.291A.945.945,0,0,1,2296.652,1435.467Z" fill="#a590b9" fill-rule="evenodd"/>
          <path id="Trazado_1985" data-name="Trazado 1985" d="M2287.7,1430.3a.945.945,0,1,1-.346-1.29A.945.945,0,0,1,2287.7,1430.3Z" fill="#a590b9" fill-rule="evenodd"/>
        </g>
      </g>
      <g id="Grupo_2022" data-name="Grupo 2022">
        <g id="Grupo_2019" data-name="Grupo 2019">
          <path id="Trazado_1986" data-name="Trazado 1986" d="M2319.374,1428.257a.945.945,0,1,0-.945-.945A.947.947,0,0,0,2319.374,1428.257Z" fill="#a590b9" fill-rule="evenodd"/>
          <path id="Trazado_1987" data-name="Trazado 1987" d="M2319.374,1438.594a.945.945,0,1,0-.945-.945A.947.947,0,0,0,2319.374,1438.594Z" fill="#a590b9" fill-rule="evenodd"/>
        </g>
        <g id="Grupo_2020" data-name="Grupo 2020">
          <path id="Trazado_1988" data-name="Trazado 1988" d="M2324.668,1429.424a.945.945,0,1,1-1.29-.346A.945.945,0,0,1,2324.668,1429.424Z" fill="#a590b9" fill-rule="evenodd"/>
          <path id="Trazado_1989" data-name="Trazado 1989" d="M2315.716,1434.592a.945.945,0,1,1-1.291-.346A.945.945,0,0,1,2315.716,1434.592Z" fill="#a590b9" fill-rule="evenodd"/>
        </g>
        <g id="Grupo_2021" data-name="Grupo 2021">
          <path id="Trazado_1990" data-name="Trazado 1990" d="M2324.668,1435.537a.945.945,0,1,1-.346-1.291A.944.944,0,0,1,2324.668,1435.537Z" fill="#a590b9" fill-rule="evenodd"/>
          <path id="Trazado_1991" data-name="Trazado 1991" d="M2315.716,1430.369a.945.945,0,1,1-.346-1.291A.946.946,0,0,1,2315.716,1430.369Z" fill="#a590b9" fill-rule="evenodd"/>
        </g>
      </g>
    </g>
  </g>
</svg>
