<svg xmlns="http://www.w3.org/2000/svg" xmlns:xlink="http://www.w3.org/1999/xlink" width="152.443" height="152.443" viewBox="0 0 152.443 152.443">
  <defs>
    <clipPath id="clip-path">
      <circle id="Elipse_157" data-name="Elipse 157" cx="65.13" cy="65.13" r="65.13" transform="translate(2216.662 5928.465)" fill="none"/>
    </clipPath>
  </defs>
  <g id="Grupo_6738" data-name="Grupo 6738" transform="translate(-2205.571 -5916.753)">
    <path id="Trazado_2606" data-name="Trazado 2606" d="M2281.792,5916.753q3.746,0,7.471.367t7.4,1.1q3.673.731,7.256,1.817t7.043,2.52q3.459,1.432,6.762,3.2t6.416,3.846q3.113,2.08,6.008,4.456t5.542,5.023q2.648,2.647,5.023,5.542t4.456,6.008q2.08,3.114,3.846,6.416t3.2,6.762q1.433,3.458,2.52,7.043t1.817,7.256q.73,3.672,1.1,7.4t.367,7.471q0,3.744-.367,7.471t-1.1,7.4q-.731,3.672-1.817,7.256t-2.52,7.043q-1.434,3.459-3.2,6.761t-3.846,6.416q-2.08,3.114-4.456,6.008t-5.023,5.542q-2.647,2.649-5.542,5.024t-6.008,4.455q-3.114,2.082-6.416,3.846t-6.762,3.2q-3.459,1.433-7.043,2.52t-7.256,1.818q-3.672.731-7.4,1.1t-7.471.367q-3.744,0-7.471-.367t-7.4-1.1q-3.672-.73-7.256-1.818t-7.043-2.52q-3.459-1.433-6.761-3.2t-6.416-3.846q-3.114-2.079-6.008-4.455t-5.543-5.024q-2.648-2.648-5.023-5.542t-4.456-6.008q-2.08-3.114-3.845-6.416t-3.2-6.761q-1.434-3.461-2.52-7.043t-1.818-7.256q-.73-3.672-1.1-7.4t-.367-7.471q0-3.746.367-7.471t1.1-7.4q.731-3.674,1.818-7.256t2.52-7.043q1.432-3.459,3.2-6.762t3.845-6.416q2.08-3.112,4.456-6.008t5.023-5.542q2.649-2.648,5.543-5.023t6.008-4.456q3.112-2.081,6.416-3.846t6.761-3.2q3.46-1.433,7.043-2.52t7.256-1.817q3.673-.73,7.4-1.1T2281.792,5916.753Z" fill="#e6b54a"/>
    <circle id="Elipse_153" data-name="Elipse 153" cx="71.597" cy="71.597" r="71.597" transform="translate(2210.196 5921.999)" fill="#fff"/>
    <g id="Grupo_2817" data-name="Grupo 2817">
      <g id="Grupo_2816" data-name="Grupo 2816" clip-path="url(#clip-path)">
        <circle id="Elipse_154" data-name="Elipse 154" cx="67.285" cy="67.285" r="67.285" transform="translate(2214.979 5926.311)" fill="#c5e5ff"/>
        <g id="Grupo_2713" data-name="Grupo 2713">
          <g id="Grupo_2690" data-name="Grupo 2690">
            <g id="Grupo_2689" data-name="Grupo 2689">
              <path id="Trazado_2607" data-name="Trazado 2607" d="M2313.96,5933.7l-10.329,1.492v4.638l9.677,1.766Z" fill="#ffc013"/>
            </g>
          </g>
          <g id="Grupo_2692" data-name="Grupo 2692">
            <g id="Grupo_2691" data-name="Grupo 2691">
              <rect id="Rectángulo_2640" data-name="Rectángulo 2640" width="4.88" height="11.177" transform="translate(2322.562 5941.028)" fill="#ffc013"/>
            </g>
          </g>
          <g id="Grupo_2697" data-name="Grupo 2697">
            <g id="Grupo_2694" data-name="Grupo 2694">
              <g id="Grupo_2693" data-name="Grupo 2693">
                <path id="Trazado_2608" data-name="Trazado 2608" d="M2339.546,6033.733c0-3.772.359-36.045,0-46.216-.25-7.084-4.748-15.574-7.457-20.079h-14.175c-2.709,4.5-7.206,13-7.457,20.079-.359,10.171,0,42.444,0,46.216a9.245,9.245,0,0,0,.1,1.366h28.883A9.278,9.278,0,0,0,2339.546,6033.733Z" fill="#ffc013"/>
              </g>
            </g>
            <g id="Grupo_2696" data-name="Grupo 2696">
              <g id="Grupo_2695" data-name="Grupo 2695">
                <path id="Trazado_2609" data-name="Trazado 2609" d="M2318.594,6041.666h12.816c5.155,0,7.536-3.222,8.033-6.567H2310.56C2311.057,6038.444,2313.439,6041.666,2318.594,6041.666Z" fill="#eaa906"/>
              </g>
            </g>
          </g>
          <g id="Grupo_2699" data-name="Grupo 2699">
            <g id="Grupo_2698" data-name="Grupo 2698">
              <rect id="Rectángulo_2641" data-name="Rectángulo 2641" width="9.76" height="6.127" transform="translate(2320.122 5951.341)" fill="#ce8f02"/>
            </g>
          </g>
          <g id="Grupo_2701" data-name="Grupo 2701">
            <g id="Grupo_2700" data-name="Grupo 2700">
              <rect id="Rectángulo_2642" data-name="Rectángulo 2642" width="14.061" height="10.61" transform="translate(2317.971 5956.827)" fill="#eaa906"/>
            </g>
          </g>
          <g id="Grupo_2706" data-name="Grupo 2706">
            <g id="Grupo_2703" data-name="Grupo 2703">
              <g id="Grupo_2702" data-name="Grupo 2702">
                <path id="Trazado_2610" data-name="Trazado 2610" d="M2336.7,5936.869c-2.61-4.135-7.1-7.706-16.522-6.61s-10.5,11.413-13.271,19.044-5.771,9.145-8.523,11.575a6.825,6.825,0,0,0-1.411,2.817,22.235,22.235,0,0,0,7.838-4.048c3.473-3.1,6.756-10.23,9.15-14.642s5.961-9.389,13.094-7.043,7.7,6.387,5.631,11.361a18.459,18.459,0,0,1-2.872,4.785l-.068,2.719h2.287s2.519-1.4,5.012-7.524C2338.333,5946.137,2338.82,5940.229,2336.7,5936.869Z" fill="#eaa906"/>
              </g>
            </g>
            <g id="Grupo_2705" data-name="Grupo 2705">
              <g id="Grupo_2704" data-name="Grupo 2704">
                <path id="Trazado_2611" data-name="Trazado 2611" d="M2327.054,5937.962c-7.133-2.346-10.7,2.632-13.094,7.043s-5.677,11.544-9.15,14.642a22.235,22.235,0,0,1-7.838,4.048c-.06.21-.093.348-.093.348s4.63.308,10.067-4.282,7.913-15.537,11.856-17.634c4.352-2.315,10.344-.853,11.869,1.736,1.889,3.208-.789,7.478-.789,7.478l-.069,2.767a18.459,18.459,0,0,0,2.872-4.785C2334.75,5944.349,2334.187,5940.308,2327.054,5937.962Z" fill="#ce8f02"/>
              </g>
            </g>
          </g>
          <g id="Grupo_2708" data-name="Grupo 2708">
            <g id="Grupo_2707" data-name="Grupo 2707">
              <rect id="Rectángulo_2643" data-name="Rectángulo 2643" width="24.402" height="34.103" transform="translate(2313.069 5990.478)" fill="#fff"/>
            </g>
          </g>
          <g id="Grupo_2710" data-name="Grupo 2710">
            <g id="Grupo_2709" data-name="Grupo 2709">
              <path id="Trazado_2612" data-name="Trazado 2612" d="M2335.285,6007.819c-.553-.909-1.9-1.324-2.892-1.622-1.013-.3-2.012-.654-3.006-1.017a18.84,18.84,0,0,1-2.281-.941l-.036-.038a2.935,2.935,0,0,0,.024-.486c.156-.137.366-.316.583-.482a11.084,11.084,0,0,0,1.726-1.907c.251-.377.266-.6.237-.716.33-.537.045-.762.836-1.738a.909.909,0,0,0,.258-.519c.393-.291,1.321-.829,1.976-1.22a12.619,12.619,0,0,0,2.748-1.866c.349-.454.011-.41-.618.109a25.821,25.821,0,0,1-3.116,1.9,2.419,2.419,0,0,0-1.024.954l0,0a6.3,6.3,0,0,0-.767.9,2.469,2.469,0,0,0-.357,1.376,10.41,10.41,0,0,1-1.743,2.115,5.417,5.417,0,0,0-.752.9.642.642,0,0,0-.136-.361c-.033-.031-.068-.056-.1-.083a2.1,2.1,0,0,0-.791-.375,1.212,1.212,0,0,0,.342-.261v0s.764-.39.711-1.074-.937-.775-.937-.775h0a1.182,1.182,0,0,0-.147-.08,16.006,16.006,0,0,1,1.379-2.164c.736-.928.847-1.215.215-.8a6.934,6.934,0,0,0-1.66,2.927,1.2,1.2,0,0,0-.241-.069l-.134-6.063-.309,6.062a1.223,1.223,0,0,0-.236.068,6.959,6.959,0,0,0-1.66-2.925c-.632-.419-.521-.132.215.8a16,16,0,0,1,1.377,2.161,1.3,1.3,0,0,0-.156.085c-.107.014-.866.136-.916.772a1.22,1.22,0,0,0,.674,1.053v-.007a1.236,1.236,0,0,0,.347.277,2.087,2.087,0,0,0-.542.219,2.016,2.016,0,0,0-.336.247.773.773,0,0,0-.146.461,5.251,5.251,0,0,0-.816-1,10.4,10.4,0,0,1-1.743-2.115,2.471,2.471,0,0,0-.357-1.376,6.3,6.3,0,0,0-.767-.9l0,0a2.419,2.419,0,0,0-1.024-.954,25.821,25.821,0,0,1-3.116-1.9c-.629-.519-.967-.563-.618-.109a12.607,12.607,0,0,0,2.748,1.866c.655.391,1.583.929,1.976,1.22a.91.91,0,0,0,.258.519c.791.976.5,1.2.835,1.738-.028.12-.012.339.238.716a11.064,11.064,0,0,0,1.726,1.907c.254.2.5.405.656.547a3.024,3.024,0,0,0,.028.447,18.621,18.621,0,0,1-2.3.953c-.994.363-1.993.712-3.007,1.017-.992.3-2.339.713-2.892,1.622a1.274,1.274,0,0,0-.162.427.935.935,0,0,0-.018.112v.008a.666.666,0,0,0,.02.215.89.89,0,0,0,.063.16c.013.024.028.046.043.069l.017.024c.558.8,2.668.781,4.783-.319a9.254,9.254,0,0,0,1.3-.821c-.084.178-.187.413-.3.715-.248.639-1.071,2.279-1.34,2.811a2.158,2.158,0,0,0-.7,1.47,17.742,17.742,0,0,0-.354,3.8c.142.564.309.775.329.5.026-.344-.041-.915-.011-1.436a11.8,11.8,0,0,1,.365-2.708c.178-.716.3-1.192.375-1.453.1-.037.28-.178.6-.668a14.14,14.14,0,0,0,.958-2.1,4.015,4.015,0,0,0,.311-1.087,8.955,8.955,0,0,0,1.872-2.02c.108-.164.2-.325.292-.485l.008.016c-.415.7-1.226,2.084-1.465,2.639a1.68,1.68,0,0,0-.1.96,9.759,9.759,0,0,0-.092,1c-.033.7-.308,2.593-.387,3.132a2.121,2.121,0,0,0-.566,1.321,41.927,41.927,0,0,0,.209,6.426c.141.563.308.775.329.5.026-.343-.041-.915-.012-1.436.081-1.4-.418-4.443-.2-5.336.176-.712.3-1.186.373-1.448a2.412,2.412,0,0,0,.278-.73,14.212,14.212,0,0,0,.242-2.3,3.782,3.782,0,0,0-.058-1.16,7.464,7.464,0,0,1,.527-1.181c.363-.674.905-1.514,1.137-2.044a.875.875,0,0,0,.618.339c.064.005.171.008.291.01a1.084,1.084,0,0,0-.9.421,4.3,4.3,0,0,0-.376,1.188l-.008.019.005,0a8.343,8.343,0,0,0-.136,1.218l-.005.011.005,0a10.284,10.284,0,0,0,.033,1.364l0,0h0c.024.256.054.519.1.795.022.133.051.247.076.373l-.006.013h.009a9.918,9.918,0,0,0,.254,1.009l0,.006.006,0a6.639,6.639,0,0,0,1.073,2.168,6.083,6.083,0,0,0,1.267-2.23l.011-.006-.007-.006a8,8,0,0,0,.338-1.331,10.634,10.634,0,0,0,.131-2.161l.005,0-.005-.009a8.377,8.377,0,0,0-.118-1.116l.007.009s0-.019-.014-.051a4.484,4.484,0,0,0-.389-1.266,1.087,1.087,0,0,0-.9-.421c.12,0,.227,0,.291-.01a.878.878,0,0,0,.621-.342c.231.529.775,1.372,1.139,2.047a7.348,7.348,0,0,1,.526,1.181,3.82,3.82,0,0,0-.057,1.16,14.212,14.212,0,0,0,.242,2.3,2.419,2.419,0,0,0,.278.73c.071.262.2.736.373,1.448.221.893-.278,3.932-.2,5.336.029.521-.038,1.093-.012,1.436.021.278.188.066.329-.5a41.9,41.9,0,0,0,.209-6.426,2.126,2.126,0,0,0-.566-1.321c-.079-.539-.354-2.431-.387-3.132a9.759,9.759,0,0,0-.092-1,1.68,1.68,0,0,0-.1-.96c-.239-.556-1.053-1.946-1.468-2.644l.013-.026c.09.165.188.331.3.5a9.038,9.038,0,0,0,2.153,2.231,5.167,5.167,0,0,0,.28.876,14.227,14.227,0,0,0,.957,2.1c.317.49.5.631.6.668.072.261.2.737.375,1.453a11.793,11.793,0,0,1,.366,2.708c.029.521-.038,1.092-.012,1.436.021.277.188.066.329-.5a17.76,17.76,0,0,0-.354-3.8,2.158,2.158,0,0,0-.7-1.47c-.269-.532-1.092-2.172-1.339-2.811-.067-.172-.129-.32-.185-.451a9.135,9.135,0,0,0,.927.557c2.115,1.1,4.225,1.118,4.784.319l.017-.024a.774.774,0,0,0,.042-.069.794.794,0,0,0,.063-.16.646.646,0,0,0,.02-.215v-.008a.708.708,0,0,0-.017-.112A1.275,1.275,0,0,0,2335.285,6007.819Z" fill="#315376"/>
            </g>
          </g>
          <g id="Grupo_2712" data-name="Grupo 2712">
            <g id="Grupo_2711" data-name="Grupo 2711">
              <rect id="Rectángulo_2644" data-name="Rectángulo 2644" width="24.402" height="2.219" transform="translate(2313.069 6027.479)" fill="#fff"/>
            </g>
          </g>
        </g>
        <g id="Grupo_2743" data-name="Grupo 2743">
          <g id="Grupo_2724" data-name="Grupo 2724">
            <g id="Grupo_2715" data-name="Grupo 2715">
              <g id="Grupo_2714" data-name="Grupo 2714">
                <path id="Trazado_2613" data-name="Trazado 2613" d="M2304.659,5989.294a12.614,12.614,0,1,1-12.611-12.327A12.471,12.471,0,0,1,2304.659,5989.294Z" fill="#d8d8d8"/>
              </g>
            </g>
            <g id="Grupo_2717" data-name="Grupo 2717">
              <g id="Grupo_2716" data-name="Grupo 2716">
                <rect id="Rectángulo_2645" data-name="Rectángulo 2645" width="25.222" height="52.372" transform="translate(2279.437 5989.294)" fill="#315376"/>
              </g>
            </g>
            <g id="Grupo_2719" data-name="Grupo 2719">
              <g id="Grupo_2718" data-name="Grupo 2718">
                <path id="Trazado_2614" data-name="Trazado 2614" d="M2289.484,5968.5l-3.72,1.144v1.679l3.72,1.167Z" fill="#315376"/>
              </g>
            </g>
            <g id="Grupo_2721" data-name="Grupo 2721">
              <g id="Grupo_2720" data-name="Grupo 2720">
                <rect id="Rectángulo_2646" data-name="Rectángulo 2646" width="5.14" height="7.093" transform="translate(2288.875 5967.861)" fill="#d8d8d8"/>
              </g>
            </g>
            <g id="Grupo_2723" data-name="Grupo 2723">
              <g id="Grupo_2722" data-name="Grupo 2722">
                <rect id="Rectángulo_2647" data-name="Rectángulo 2647" width="9.002" height="3.384" transform="translate(2286.945 5974.518)" fill="#315376"/>
              </g>
            </g>
          </g>
          <g id="Grupo_2726" data-name="Grupo 2726">
            <g id="Grupo_2725" data-name="Grupo 2725">
              <rect id="Rectángulo_2648" data-name="Rectángulo 2648" width="5.385" height="52.372" transform="translate(2299.274 5989.294)" fill="#1d3d5b"/>
            </g>
          </g>
          <g id="Grupo_2728" data-name="Grupo 2728">
            <g id="Grupo_2727" data-name="Grupo 2727">
              <path id="Trazado_2615" data-name="Trazado 2615" d="M2291.365,5993.963l-7.553,11.207a1.892,1.892,0,0,0,1.568,2.949h15.107a1.892,1.892,0,0,0,1.568-2.949l-7.553-11.207A1.892,1.892,0,0,0,2291.365,5993.963Z" fill="#ffc013"/>
            </g>
          </g>
          <g id="Grupo_2730" data-name="Grupo 2730">
            <g id="Grupo_2729" data-name="Grupo 2729">
              <path id="Trazado_2616" data-name="Trazado 2616" d="M2299.37,6002.991c-.006-.013-.01-.027-.017-.04a1.055,1.055,0,0,0-.045-.106,3.263,3.263,0,0,0-1.874-1.051c-.657-.2-1.305-.424-1.949-.659a12.217,12.217,0,0,1-1.479-.61l-.025-.027a2.019,2.019,0,0,0,.016-.312c.1-.089.238-.205.379-.313a7.192,7.192,0,0,0,1.119-1.236c.164-.247.171-.383.152-.461.218-.351.029-.495.543-1.13a.58.58,0,0,0,.167-.336c.254-.189.857-.537,1.282-.791a8.169,8.169,0,0,0,1.781-1.21c.226-.295.008-.266-.4.071a16.753,16.753,0,0,1-2.02,1.232,1.564,1.564,0,0,0-.663.619l0,0a4.023,4.023,0,0,0-.5.58,1.612,1.612,0,0,0-.232.892,6.712,6.712,0,0,1-1.129,1.371,3.506,3.506,0,0,0-.492.591.454.454,0,0,0-.084-.243c-.021-.019-.044-.035-.066-.053a1.369,1.369,0,0,0-.521-.245.8.8,0,0,0,.23-.172v.007s.5-.253.46-.7-.607-.5-.607-.5l0,.019a.829.829,0,0,0-.1-.066,10.3,10.3,0,0,1,.9-1.406c.477-.6.549-.788.139-.516a4.49,4.49,0,0,0-1.073,1.9.734.734,0,0,0-.159-.032l-.087-3.945-.2,3.944a.773.773,0,0,0-.155.032,4.486,4.486,0,0,0-1.073-1.9c-.41-.272-.338-.086.139.516a10.306,10.306,0,0,1,.894,1.4.807.807,0,0,0-.09.061v-.011s-.572.06-.607.5a.79.79,0,0,0,.437.683v-.013a.8.8,0,0,0,.234.186,1.334,1.334,0,0,0-.361.144,1.25,1.25,0,0,0-.218.159.517.517,0,0,0-.093.3,3.329,3.329,0,0,0-.53-.651,6.7,6.7,0,0,1-1.13-1.371,1.6,1.6,0,0,0-.232-.892,4.023,4.023,0,0,0-.5-.58l0,0a1.564,1.564,0,0,0-.664-.619,16.753,16.753,0,0,1-2.02-1.232c-.408-.337-.627-.366-.4-.071a8.192,8.192,0,0,0,1.781,1.21c.425.254,1.028.6,1.282.791a.58.58,0,0,0,.167.336c.514.635.326.779.544,1.131-.02.077-.013.213.151.46a7.221,7.221,0,0,0,1.119,1.236c.17.13.325.265.428.357a1.943,1.943,0,0,0,.019.286,12.025,12.025,0,0,1-1.5.619c-.644.235-1.292.462-1.949.659a3.268,3.268,0,0,0-1.875,1.051c-.018.031-.028.071-.044.106-.007.013-.011.027-.017.04a.637.637,0,0,0-.039.144.421.421,0,0,0-.016.06.5.5,0,0,0,.013.144.388.388,0,0,0,.1.178c.38.5,1.727.485,3.083-.22a6,6,0,0,0,.847-.545c-.056.117-.124.268-.205.476-.161.417-.7,1.485-.868,1.822a1.4,1.4,0,0,0-.456.953,11.5,11.5,0,0,0-.23,2.461c.092.365.2.5.214.322.016-.222-.027-.593-.008-.93a7.611,7.611,0,0,1,.237-1.756c.119-.479.2-.777.243-.942.062-.024.182-.115.387-.433a9.232,9.232,0,0,0,.621-1.364,2.47,2.47,0,0,0,.2-.719,5.848,5.848,0,0,0,1.213-1.295c.074-.111.126-.219.185-.328l.012.021c-.269.451-.8,1.353-.952,1.714a1.049,1.049,0,0,0-.065.615,5.929,5.929,0,0,0-.062.654c-.021.456-.2,1.685-.251,2.03a1.387,1.387,0,0,0-.367.856,27.194,27.194,0,0,0,.136,4.166c.091.365.2.5.213.322.017-.222-.026-.593-.007-.931.052-.91-.272-2.88-.128-3.459.118-.477.2-.773.242-.939a1.57,1.57,0,0,0,.18-.473,9.29,9.29,0,0,0,.157-1.49,2.5,2.5,0,0,0-.037-.749,4.631,4.631,0,0,1,.341-.768c.236-.438.589-.986.739-1.328a.567.567,0,0,0,.4.223c.045,0,.125,0,.211.006a.717.717,0,0,0-.609.273,2.808,2.808,0,0,0-.243.771l-.005.012,0,0a5.526,5.526,0,0,0-.088.79l0,.007h0a6.706,6.706,0,0,0,.021.883v0h0c.015.166.035.337.064.515.014.086.033.161.049.242l0,.008h.006a6.467,6.467,0,0,0,.165.655l0,0h0a4.281,4.281,0,0,0,.7,1.405,3.94,3.94,0,0,0,.821-1.446l.007,0,0,0a5.2,5.2,0,0,0,.218-.863,6.839,6.839,0,0,0,.085-1.4h0l0,0a5.331,5.331,0,0,0-.076-.723l0,.005a.23.23,0,0,0-.009-.033,2.9,2.9,0,0,0-.252-.821.716.716,0,0,0-.609-.273c.087,0,.166,0,.212-.006a.566.566,0,0,0,.4-.226c.149.343.5.892.74,1.331a4.579,4.579,0,0,1,.34.768,2.471,2.471,0,0,0-.036.749,9.152,9.152,0,0,0,.157,1.49,1.561,1.561,0,0,0,.179.473c.046.166.125.462.243.939.143.579-.18,2.549-.128,3.459.019.338-.025.709-.008.931.014.18.122.043.214-.322a27.265,27.265,0,0,0,.135-4.166,1.378,1.378,0,0,0-.367-.856c-.051-.344-.229-1.574-.251-2.03a5.973,5.973,0,0,0-.061-.654,1.047,1.047,0,0,0-.065-.615c-.156-.362-.686-1.266-.954-1.717,0-.009.011-.017.015-.026.061.112.114.222.189.336a5.878,5.878,0,0,0,1.4,1.439,3.193,3.193,0,0,0,.183.575,8.993,8.993,0,0,0,.62,1.364c.205.318.324.409.387.433.045.165.125.463.243.942a7.681,7.681,0,0,1,.237,1.756c.019.337-.024.708-.008.93.014.18.122.043.214-.322a11.537,11.537,0,0,0-.229-2.461,1.408,1.408,0,0,0-.457-.953c-.17-.337-.707-1.4-.868-1.822-.045-.115-.085-.212-.123-.3a6.045,6.045,0,0,0,.6.367c1.356.705,2.7.721,3.082.22a.386.386,0,0,0,.1-.178.465.465,0,0,0,.014-.144.608.608,0,0,0-.016-.06A.8.8,0,0,0,2299.37,6002.991Z" fill="#fff"/>
            </g>
          </g>
          <g id="Grupo_2732" data-name="Grupo 2732">
            <g id="Grupo_2731" data-name="Grupo 2731">
              <rect id="Rectángulo_2649" data-name="Rectángulo 2649" width="18.481" height="1.628" transform="translate(2283.485 6013.852)" fill="#fff"/>
            </g>
          </g>
          <g id="Grupo_2734" data-name="Grupo 2734">
            <g id="Grupo_2733" data-name="Grupo 2733">
              <rect id="Rectángulo_2650" data-name="Rectángulo 2650" width="18.481" height="1.628" transform="translate(2283.485 6025.22)" fill="#fff"/>
            </g>
          </g>
          <g id="Grupo_2736" data-name="Grupo 2736">
            <g id="Grupo_2735" data-name="Grupo 2735">
              <rect id="Rectángulo_2651" data-name="Rectángulo 2651" width="18.481" height="1.628" transform="translate(2283.485 6029.186)" fill="#fff"/>
            </g>
          </g>
          <g id="Grupo_2738" data-name="Grupo 2738">
            <g id="Grupo_2737" data-name="Grupo 2737">
              <rect id="Rectángulo_2652" data-name="Rectángulo 2652" width="18.481" height="1.628" transform="translate(2283.485 6033.154)" fill="#fff"/>
            </g>
          </g>
          <g id="Grupo_2740" data-name="Grupo 2740">
            <g id="Grupo_2739" data-name="Grupo 2739">
              <rect id="Rectángulo_2653" data-name="Rectángulo 2653" width="18.481" height="5.188" transform="translate(2283.485 6017.605)" fill="#ffc013"/>
            </g>
          </g>
          <g id="Grupo_2742" data-name="Grupo 2742">
            <g id="Grupo_2741" data-name="Grupo 2741">
              <rect id="Rectángulo_2654" data-name="Rectángulo 2654" width="1.29" height="6.475" transform="translate(2292.726 5967.861)" fill="#c1c1c1"/>
            </g>
          </g>
        </g>
        <g id="Grupo_2815" data-name="Grupo 2815">
          <g id="Grupo_2745" data-name="Grupo 2745">
            <g id="Grupo_2744" data-name="Grupo 2744">
              <path id="Trazado_2617" data-name="Trazado 2617" d="M2239.6,5928.412l-6.6-.074a15.234,15.234,0,0,0,1.651,7.405c1.945,3.324,4.4,3.957,4.4,3.957l6.05,1.416Z" fill="#333"/>
            </g>
          </g>
          <g id="Grupo_2747" data-name="Grupo 2747">
            <g id="Grupo_2746" data-name="Grupo 2746">
              <rect id="Rectángulo_2655" data-name="Rectángulo 2655" width="10.591" height="1.902" transform="translate(2239.047 5939.7)" fill="#424242"/>
            </g>
          </g>
          <g id="Grupo_2749" data-name="Grupo 2749">
            <g id="Grupo_2748" data-name="Grupo 2748">
              <rect id="Rectángulo_2656" data-name="Rectángulo 2656" width="9.031" height="5.352" transform="translate(2278.152 5931.165)" fill="#424242"/>
            </g>
          </g>
          <g id="Grupo_2751" data-name="Grupo 2751">
            <g id="Grupo_2750" data-name="Grupo 2750">
              <rect id="Rectángulo_2657" data-name="Rectángulo 2657" width="3.01" height="8.081" transform="translate(2276.646 5929.831)" fill="#6d6d6d"/>
            </g>
          </g>
          <g id="Grupo_2753" data-name="Grupo 2753">
            <g id="Grupo_2752" data-name="Grupo 2752">
              <rect id="Rectángulo_2658" data-name="Rectángulo 2658" width="24.333" height="7.711" transform="translate(2247.129 5930.201)" fill="#333"/>
            </g>
          </g>
          <g id="Grupo_2755" data-name="Grupo 2755">
            <g id="Grupo_2754" data-name="Grupo 2754">
              <circle id="Elipse_155" data-name="Elipse 155" cx="7.547" cy="7.547" r="7.547" transform="translate(2237.55 5926.022)" fill="#4d4d4d"/>
            </g>
          </g>
          <g id="Grupo_2757" data-name="Grupo 2757">
            <g id="Grupo_2756" data-name="Grupo 2756">
              <rect id="Rectángulo_2659" data-name="Rectángulo 2659" width="3.261" height="11.288" transform="translate(2264.188 5928.412)" fill="#6d6d6d"/>
            </g>
          </g>
          <g id="Grupo_2759" data-name="Grupo 2759">
            <g id="Grupo_2758" data-name="Grupo 2758">
              <rect id="Rectángulo_2660" data-name="Rectángulo 2660" width="10.034" height="15.093" transform="translate(2267.448 5926.509)" fill="#333"/>
            </g>
          </g>
          <g id="Grupo_2761" data-name="Grupo 2761">
            <g id="Grupo_2760" data-name="Grupo 2760">
              <rect id="Rectángulo_2661" data-name="Rectángulo 2661" width="10.034" height="1.492" transform="translate(2267.448 5928.338)" fill="#4d4d4d"/>
            </g>
          </g>
          <g id="Grupo_2763" data-name="Grupo 2763">
            <g id="Grupo_2762" data-name="Grupo 2762">
              <rect id="Rectángulo_2662" data-name="Rectángulo 2662" width="10.034" height="1.492" transform="translate(2267.448 5933.31)" fill="#4d4d4d"/>
            </g>
          </g>
          <g id="Grupo_2765" data-name="Grupo 2765">
            <g id="Grupo_2764" data-name="Grupo 2764">
              <rect id="Rectángulo_2663" data-name="Rectángulo 2663" width="10.034" height="1.492" transform="translate(2267.448 5937.912)" fill="#4d4d4d"/>
            </g>
          </g>
          <g id="Grupo_2767" data-name="Grupo 2767">
            <g id="Grupo_2766" data-name="Grupo 2766">
              <rect id="Rectángulo_2664" data-name="Rectángulo 2664" width="1.631" height="11.362" transform="translate(2265.818 5928.338)" fill="#424242"/>
            </g>
          </g>
          <g id="Grupo_2769" data-name="Grupo 2769">
            <g id="Grupo_2768" data-name="Grupo 2768">
              <circle id="Elipse_156" data-name="Elipse 156" cx="5.41" cy="5.41" r="5.41" transform="translate(2239.687 5927.941)" fill="#6d6d6d"/>
            </g>
          </g>
          <g id="Grupo_2771" data-name="Grupo 2771">
            <g id="Grupo_2770" data-name="Grupo 2770">
              <rect id="Rectángulo_2665" data-name="Rectángulo 2665" width="3.01" height="8.081" transform="translate(2284.172 5929.831)" fill="#6d6d6d"/>
            </g>
          </g>
          <g id="Grupo_2773" data-name="Grupo 2773">
            <g id="Grupo_2772" data-name="Grupo 2772">
              <path id="Trazado_2618" data-name="Trazado 2618" d="M2239.047,5941.6l-1.5,2.556h6.793V5941.6Z" fill="#333"/>
            </g>
          </g>
          <g id="Grupo_2775" data-name="Grupo 2775">
            <g id="Grupo_2774" data-name="Grupo 2774">
              <path id="Trazado_2619" data-name="Trazado 2619" d="M2249.638,5941.6l1.5,2.556h-6.793V5941.6Z" fill="#333"/>
            </g>
          </g>
          <g id="Grupo_2777" data-name="Grupo 2777">
            <g id="Grupo_2776" data-name="Grupo 2776">
              <rect id="Rectángulo_2666" data-name="Rectángulo 2666" width="13.586" height="2.647" transform="translate(2237.55 5944.159)" fill="#4d4d4d"/>
            </g>
          </g>
          <g id="Grupo_2779" data-name="Grupo 2779">
            <g id="Grupo_2778" data-name="Grupo 2778">
              <rect id="Rectángulo_2667" data-name="Rectángulo 2667" width="16.802" height="8.827" transform="translate(2235.841 5946.806)" fill="#333"/>
            </g>
          </g>
          <g id="Grupo_2781" data-name="Grupo 2781">
            <g id="Grupo_2780" data-name="Grupo 2780">
              <rect id="Rectángulo_2668" data-name="Rectángulo 2668" width="1.349" height="6.8" transform="translate(2237.55 5946.806)" fill="#5b5b5b"/>
            </g>
          </g>
          <g id="Grupo_2783" data-name="Grupo 2783">
            <g id="Grupo_2782" data-name="Grupo 2782">
              <rect id="Rectángulo_2669" data-name="Rectángulo 2669" width="1.349" height="6.8" transform="translate(2249.786 5946.806)" fill="#5b5b5b"/>
            </g>
          </g>
          <g id="Grupo_2785" data-name="Grupo 2785">
            <g id="Grupo_2784" data-name="Grupo 2784">
              <rect id="Rectángulo_2670" data-name="Rectángulo 2670" width="1.349" height="6.8" transform="translate(2240.609 5946.806)" fill="#5b5b5b"/>
            </g>
          </g>
          <g id="Grupo_2787" data-name="Grupo 2787">
            <g id="Grupo_2786" data-name="Grupo 2786">
              <rect id="Rectángulo_2671" data-name="Rectángulo 2671" width="1.349" height="6.8" transform="translate(2243.673 5946.806)" fill="#5b5b5b"/>
            </g>
          </g>
          <g id="Grupo_2789" data-name="Grupo 2789">
            <g id="Grupo_2788" data-name="Grupo 2788">
              <rect id="Rectángulo_2672" data-name="Rectángulo 2672" width="1.349" height="6.8" transform="translate(2246.727 5946.806)" fill="#5b5b5b"/>
            </g>
          </g>
          <g id="Grupo_2797" data-name="Grupo 2797">
            <g id="Grupo_2791" data-name="Grupo 2791">
              <g id="Grupo_2790" data-name="Grupo 2790">
                <path id="Trazado_2620" data-name="Trazado 2620" d="M2231.118,6041.666h39.564a3.02,3.02,0,0,0,3.01-3.011v-.376h-45.584v.376A3.019,3.019,0,0,0,2231.118,6041.666Z" fill="#333"/>
              </g>
            </g>
            <g id="Grupo_2796" data-name="Grupo 2796">
              <g id="Grupo_2793" data-name="Grupo 2793">
                <g id="Grupo_2792" data-name="Grupo 2792">
                  <path id="Trazado_2621" data-name="Trazado 2621" d="M2270.626,5989.864c-.167-6.856-1-8.361-4.808-11.372-3.594-2.843-7.646-4.6-10.578-7.107-4.1-3.512-.167-8.195-1.5-10.887a22.874,22.874,0,0,0-4.1-4.865h-13.8s-1.293,1.531-2.5,3.019c-1.789,2.216.407,4.346,1.331,7.543s-1.672,6.08-2.939,9.27-3.422,5.78-3.422,11.619c0,6-.186,46.875-.206,51.195h42.538C2270.685,6024.841,2270.755,5995.138,2270.626,5989.864Z" fill="#424242"/>
                </g>
              </g>
              <g id="Grupo_2795" data-name="Grupo 2795">
                <g id="Grupo_2794" data-name="Grupo 2794">
                  <path id="Trazado_2622" data-name="Trazado 2622" d="M2273.469,5990.366c-.5-6.773-1.328-9.421-3.345-11.874-2.479-3.014-9.6-5.948-12.375-8.127-1.408-1.108-2.753-4.5-1.84-6.757.947-2.34.92-2.759-.418-5.017a10.1,10.1,0,0,0-2.848-2.958h-3.005a22.874,22.874,0,0,1,4.1,4.865c1.338,2.692-2.6,7.375,1.5,10.887,2.932,2.508,6.984,4.264,10.578,7.107,3.8,3.011,4.641,4.516,4.808,11.372.129,5.274.059,34.977.021,48.415h3.046C2273.7,6034.027,2273.768,5994.4,2273.469,5990.366Z" fill="#6d6d6d"/>
                </g>
              </g>
            </g>
          </g>
          <g id="Grupo_2799" data-name="Grupo 2799">
            <g id="Grupo_2798" data-name="Grupo 2798">
              <rect id="Rectángulo_2673" data-name="Rectángulo 2673" width="33.363" height="17.56" rx="1.68" transform="translate(2234.085 5987.523)" fill="#333"/>
            </g>
          </g>
          <g id="Grupo_2801" data-name="Grupo 2801">
            <g id="Grupo_2800" data-name="Grupo 2800">
              <rect id="Rectángulo_2674" data-name="Rectángulo 2674" width="33.363" height="17.56" rx="1.68" transform="translate(2234.085 6015.368)" fill="#333"/>
            </g>
          </g>
          <g id="Grupo_2803" data-name="Grupo 2803">
            <g id="Grupo_2802" data-name="Grupo 2802">
              <rect id="Rectángulo_2675" data-name="Rectángulo 2675" width="33.363" height="37.326" rx="1.68" transform="translate(2234.085 5991.755)" fill="#ffc013"/>
            </g>
          </g>
          <g id="Grupo_2805" data-name="Grupo 2805">
            <g id="Grupo_2804" data-name="Grupo 2804">
              <rect id="Rectángulo_2676" data-name="Rectángulo 2676" width="10.358" height="1.738" transform="translate(2239.168 5962.097)" fill="#333"/>
            </g>
          </g>
          <g id="Grupo_2807" data-name="Grupo 2807">
            <g id="Grupo_2806" data-name="Grupo 2806">
              <rect id="Rectángulo_2677" data-name="Rectángulo 2677" width="10.358" height="1.738" transform="translate(2239.168 5965.853)" fill="#333"/>
            </g>
          </g>
          <g id="Grupo_2809" data-name="Grupo 2809">
            <g id="Grupo_2808" data-name="Grupo 2808">
              <path id="Trazado_2623" data-name="Trazado 2623" d="M2259.241,6010.43a.925.925,0,0,0-.707-.268,7.56,7.56,0,0,0-2.31.243,2.725,2.725,0,0,0-.872.428.362.362,0,0,0-.326.031,13.317,13.317,0,0,0-1.025.9l-1-.063a13.69,13.69,0,0,0-1.4.06,3.023,3.023,0,0,0-.207-.674,1.139,1.139,0,0,0,.08-.429,10.227,10.227,0,0,0,1.741-.622.578.578,0,0,0,.279-.411.75.75,0,0,0,.563-.515l.392-1.019a1,1,0,0,0,.373-.136c.2-.128.523-.353.909-.582a12.225,12.225,0,0,1,1.655-.809c.471-.175.557-.369.435-.474a.926.926,0,0,0-.756.029,7.6,7.6,0,0,0-2.031,1.128,2.561,2.561,0,0,0-.667.8,1.208,1.208,0,0,0-.548.659c-.178.4-.315.7-.38.844a.54.54,0,0,0-.325.106,10.761,10.761,0,0,1-1.7.494c-.019-.077-.039-.152-.063-.219a2.036,2.036,0,0,0-.26-.5.681.681,0,0,0-.266-.409,2.467,2.467,0,0,0,1.324-.334,6.178,6.178,0,0,0,.431-2.326,2.207,2.207,0,0,0-.438-1.667,3.786,3.786,0,0,0,.83-.717,11.519,11.519,0,0,0,1.37-3.217c.229-.734-.205-1.169-.532-.134a21.6,21.6,0,0,1-1.121,2.851,3.67,3.67,0,0,1-.92.988c-.02,0-.038-.014-.058-.018a5.2,5.2,0,0,0,.17-2.269c-.3-.753-.822-.628-.822-.628a.968.968,0,0,1,.4.878c-.07.333-.489.333-.489.333s.5.255.339.553a.737.737,0,0,1-.453.3,1.036,1.036,0,0,1,.236.828h-1.308a1.041,1.041,0,0,1,.236-.828.733.733,0,0,1-.452-.3c-.162-.3.338-.553.338-.553s-.418,0-.488-.333a.967.967,0,0,1,.4-.878s-.526-.125-.822.628a5.177,5.177,0,0,0,.17,2.268h-.012a3.674,3.674,0,0,1-.894-.969,21.573,21.573,0,0,1-1.121-2.851c-.326-1.035-.761-.6-.532.134a11.525,11.525,0,0,0,1.37,3.217,3.812,3.812,0,0,0,.765.675l-.008.006a2.165,2.165,0,0,0-.468,1.7,6.164,6.164,0,0,0,.431,2.326,2.369,2.369,0,0,0,1.264.332.684.684,0,0,0-.266.4h0a2.091,2.091,0,0,0-.327.7,9.563,9.563,0,0,1-1.563-.462.537.537,0,0,0-.324-.106c-.065-.141-.2-.442-.381-.844a1.2,1.2,0,0,0-.547-.659,2.573,2.573,0,0,0-.667-.8,7.581,7.581,0,0,0-2.032-1.128.923.923,0,0,0-.755-.029c-.122.1-.036.3.434.474a12.155,12.155,0,0,1,1.655.809c.387.229.706.454.91.582a.991.991,0,0,0,.373.136l.392,1.019a.748.748,0,0,0,.563.515.575.575,0,0,0,.279.411,9.359,9.359,0,0,0,1.6.581,1.607,1.607,0,0,0,.015.237.908.908,0,0,0,.1.3,2.894,2.894,0,0,0-.174.6,12.841,12.841,0,0,0-1.325-.054l-1,.063a13.213,13.213,0,0,0-1.024-.9.361.361,0,0,0-.326-.031,2.728,2.728,0,0,0-.872-.428,7.565,7.565,0,0,0-2.31-.243.924.924,0,0,0-.707.268c-.072.144.084.289.585.267a12.174,12.174,0,0,1,1.84.1c.445.059.827.142,1.064.18a.944.944,0,0,0,.3,0c.156.147.639.6,1.011.891a.423.423,0,0,0,.4,0,1.5,1.5,0,0,0,.891.264,8.4,8.4,0,0,1,1.442.147,1.869,1.869,0,0,0,.071.488c.012.039.026.075.041.111-.375.126-1.706.576-2.047.727a.8.8,0,0,0-.416.566,2.785,2.785,0,0,0-1.01.979,1.091,1.091,0,0,0-.136.73c-.118.162-.428.594-.857,1.254a10.118,10.118,0,0,1-1.884,2.14c-.407.3-.295.453.116.378.918-.166,2.278-2.235,2.485-2.634a1.542,1.542,0,0,0,.25-1.1c.09-.119.257-.33.512-.621.6-.682.656-.974.633-1.09a4.576,4.576,0,0,1,1-.47,16.2,16.2,0,0,1,1.656-.471.884.884,0,0,0,.115.07h0l-.054.366v0a2.041,2.041,0,0,0-.761.838,5.621,5.621,0,0,0-.364,1.414c-.023.142-.055.412-.08.638h0c0,.043-.007.089-.011.133l-.013.122h0a8.108,8.108,0,0,0,.042,1.9,3.316,3.316,0,0,0,.176.672,1.734,1.734,0,0,0,.251.455,2.186,2.186,0,0,0,1.375.955l.032,0s.647,0,1.406-.957c.942-1.187.348-4.675,0-5.329a2.086,2.086,0,0,0-.7-.8h0v-.354h0a.882.882,0,0,0,.224-.128,16.23,16.23,0,0,1,1.7.481,4.555,4.555,0,0,1,1,.47c-.023.116.034.408.633,1.09.255.291.422.5.512.621a1.538,1.538,0,0,0,.25,1.1c.207.4,1.567,2.468,2.484,2.634.412.075.524-.079.117-.378a10.125,10.125,0,0,1-1.884-2.14c-.43-.66-.739-1.092-.857-1.254a1.092,1.092,0,0,0-.136-.73,2.779,2.779,0,0,0-1.011-.979.8.8,0,0,0-.415-.566c-.364-.162-1.856-.663-2.109-.747a1.713,1.713,0,0,0,.1-.566,8.762,8.762,0,0,1,1.517-.16,1.494,1.494,0,0,0,.89-.264.426.426,0,0,0,.4,0c.372-.295.855-.744,1.011-.891a.942.942,0,0,0,.295,0c.237-.038.619-.121,1.064-.18a12.175,12.175,0,0,1,1.84-.1C2259.157,6010.719,2259.313,6010.574,2259.241,6010.43Zm-8.648,9.17a.836.836,0,0,0-.077-.059A.836.836,0,0,1,2250.593,6019.6Zm-.117-.09a1.674,1.674,0,0,0-.149-.085A1.674,1.674,0,0,1,2250.476,6019.51Zm-.078,1.223.015-.014-.01.01Zm.04-.039.027-.026Zm.36-.621a.45.45,0,0,0,0-.051A.45.45,0,0,1,2250.8,6020.073Zm-.305.566.028-.032Zm.056-.064.03-.036Zm.057-.071.029-.04Zm.054-.077.027-.043Zm.049-.083c.008-.015.015-.03.023-.046C2250.724,6020.314,2250.717,6020.329,2250.709,6020.344Zm.041-.087a.43.43,0,0,0,.017-.048A.43.43,0,0,1,2250.75,6020.257Zm.031-.091c0-.016.007-.033.01-.05C2250.788,6020.133,2250.785,6020.15,2250.781,6020.166Zm-.151-.529c.018.019.037.037.052.055C2250.667,6019.674,2250.648,6019.656,2250.63,6019.637Zm.079.1a.52.52,0,0,1,.035.054A.52.52,0,0,0,2250.709,6019.733Zm.053.1a.457.457,0,0,1,.02.054A.457.457,0,0,0,2250.762,6019.829Zm.029.1c0,.018.007.036.008.053C2250.8,6019.961,2250.794,6019.943,2250.791,6019.925Z" fill="#424242"/>
            </g>
          </g>
          <g id="Grupo_2812" data-name="Grupo 2812">
            <g id="Grupo_2811" data-name="Grupo 2811">
              <g id="Grupo_2810" data-name="Grupo 2810">
                <path id="Trazado_2624" data-name="Trazado 2624" d="M2250.461,6025.75a14.944,14.944,0,1,1,14.943-14.944A14.96,14.96,0,0,1,2250.461,6025.75Zm0-28.232a13.289,13.289,0,1,0,13.288,13.288A13.3,13.3,0,0,0,2250.461,5997.518Z" fill="#fff"/>
              </g>
            </g>
          </g>
          <g id="Grupo_2814" data-name="Grupo 2814">
            <g id="Grupo_2813" data-name="Grupo 2813">
              <rect id="Rectángulo_2678" data-name="Rectángulo 2678" width="33.363" height="2.337" transform="translate(2234.085 5982.619)" fill="#fff"/>
            </g>
          </g>
        </g>
      </g>
    </g>
  </g>
</svg>
