<svg xmlns="http://www.w3.org/2000/svg" width="143.546" height="121.901" viewBox="0 0 143.546 121.901">
  <g id="Grupo_2852" data-name="Grupo 2852" transform="translate(-1909.92 -6973.221)">
    <g id="Grupo_2844" data-name="Grupo 2844">
      <path id="Trazado_2837" data-name="Trazado 2837" d="M1955.667,7007.669l.694,9.578,1.176-2.051,1.161.631,1.51.812,1.115.608.248-2.918.541-6.458a7.884,7.884,0,0,1-1.769.339,8.944,8.944,0,0,1-1.645.011,12.43,12.43,0,0,1-1.69-.226C1956.545,7007.9,1956.106,7007.793,1955.667,7007.669Z" fill="#ffc990"/>
      <path id="Trazado_2838" data-name="Trazado 2838" d="M1958.861,6995.109l.062,0a3.117,3.117,0,0,1,3.208,3.023l-.1,11.208a11.226,11.226,0,0,1-6.433.163l-.3-8.4C1955.018,6997.753,1957.14,6995.16,1958.861,6995.109Z" fill="#ededed"/>
      <path id="Trazado_2839" data-name="Trazado 2839" d="M1945.342,7008.772l-1.151,2.678-.1.233,13.923,5.591c.8-.482,4.708-.1,4.808-1.148.064-.7,1.894-2.468,1.735-3.128-.277-1.147-2.676-1.7-3.4-1.8C1958.607,7010.864,1945.342,7008.772,1945.342,7008.772Z" fill="#edbb86"/>
      <path id="Trazado_2840" data-name="Trazado 2840" d="M1956.258,7028.84l-1.284,6.619,6.068-16.15a15.622,15.622,0,0,0,.281-2.062L1958.7,7000v17.635Z" fill="#131313" opacity="0.1"/>
      <g id="Grupo_2840" data-name="Grupo 2840">
        <path id="Trazado_2841" data-name="Trazado 2841" d="M1947.29,7090.228c-.259,1.025,3.832.947,4.271.947l7.869-.181c2.3-.49.767-4.383.676-4.575a1.6,1.6,0,0,0-.924-.935l-.011-.012c-.372-.124-1.408-.191-3.572.722h-.011c-.023.011-.057.022-.113.045-2.22.924-3.824,1.42-5.841,2.231A4.15,4.15,0,0,0,1947.29,7090.228Z" fill="#16191e"/>
        <path id="Trazado_2842" data-name="Trazado 2842" d="M1950.731,7088.039c1.713,1.239,4.1.867,6.581-.631a7.236,7.236,0,0,1,2.783-.924.145.145,0,0,1,.011-.068c.305-3.719.677-6.908,1.06-9.669.642-4.552,1.318-7.967,1.7-10.807.091-.62.158-1.217.214-1.78.045-.406.068-.789.09-1.172a14.135,14.135,0,0,0-1.476-7.528c1.8-4.631,3.336-13.015,4.418-18.65.011.18.011.361.022.541.045,1.059.079,2.1.124,3.121.158,4.148.3,7.878.654,12.363.079,1.048.169,2.141.282,3.29.371,1.5.867,3.91,1.4,6.739.079.428.169.856.248,1.3.124.62.248,1.262.36,1.916.046.236.091.462.136.7,1.194,6.559,2.456,14,3.042,17.467h.012l2.186,1.183,1.848.992c0-.293,0-.575.011-.856v-.136c.022-3.369.169-6.333.338-8.97.293-4.474.676-8.023.7-11.055,0-.428,0-.834-.011-1.239a15.847,15.847,0,0,0-2.525-8.869c-.011-.022-.022-.034-.033-.056.011-.045.011-.079.022-.124.9-4.53,1.127-9.173,1.713-18.808.18-1.9-2.04-15.81-2.051-15.923l-.3-.011-3.077-.158-5.972-.316-1.86-.09-3.651-.191h-.033l-.1.3c-.023.068-.056.135-.079.2a88.49,88.49,0,0,0-5.116,26.482,57.235,57.235,0,0,0-.18,8.08l.473,7.5.124,1.972.068,1.093.033.552,1.161,18.47a1.547,1.547,0,0,1-.958,1.577C1953.672,7086.427,1952.139,7087.475,1950.731,7088.039Z" fill="#ffc990"/>
        <g id="Grupo_2839" data-name="Grupo 2839">
          <path id="Trazado_2843" data-name="Trazado 2843" d="M1963.611,7090.228c-.259,1.025,3.832.947,4.271.947l7.869-.181c2.3-.49.767-4.383.676-4.575a1.608,1.608,0,0,0-.924-.935l-.011-.012c-.372-.124-1.409-.191-3.572.722h-.011c-.023.011-.057.022-.113.045-2.22.924-3.824,1.42-5.841,2.231A4.147,4.147,0,0,0,1963.611,7090.228Z" fill="#16191e"/>
          <path id="Trazado_2844" data-name="Trazado 2844" d="M1972.393,7084.275l-.336-3.524h3.868c-.2,1.742.667,3.619.5,5.668a.147.147,0,0,0-.011.068,7.122,7.122,0,0,0-2.783.924c-2.478,1.494-4.867,1.864-6.576.629a23.208,23.208,0,0,0,4.378-2.19A1.72,1.72,0,0,0,1972.393,7084.275Z" fill="#ffc990"/>
        </g>
      </g>
      <path id="Trazado_2845" data-name="Trazado 2845" d="M1977.461,7064.16h-8.621c.169.845.327,1.724.5,2.614,3.752.5,6.029,2.479,7.437,9.68C1977.111,7071.361,1977.562,7067.473,1977.461,7064.16Z" fill="#131313" opacity="0.1"/>
      <path id="Trazado_2846" data-name="Trazado 2846" d="M1954.81,7064.16l.1,1.645c2.953.417,5.567,3.91,6.255,10.942.788-5.544,1.611-9.421,1.915-12.587Z" fill="#131313" opacity="0.1"/>
      <path id="Trazado_2847" data-name="Trazado 2847" d="M1979.815,7064.642a9.568,9.568,0,0,1-2.339.757h-.005a44.494,44.494,0,0,1-8.264.677h-.005c-2.054.032-4.211-.024-6.33-.136h-.005c-2.862-.145-5.635-.383-7.988-.686-1.634-.206-3.054-.439-4.146-.677.112-1.107.233-2.176.359-3.222.8-7.124,1.611-13,2.409-17.872.453-2.754.9-5.191,1.336-7.344.046-.238.1-.471.144-.705v0c1.882-9.1,3.549-13.008,4.529-15.309.023-.066.056-.136.079-.2.042-.1.089-.205.136-.308.112-.28.215-.528.3-.766-.112-.611-.224-1.232-.331-1.863-.042-.224-.08-.453-.112-.681-.252-1.5-.486-3.054-.687-4.618v0c-.037-.271-.074-.547-.107-.822-.033-.257-.065-.509-.093-.766v-.019c-.01-.06-.019-.121-.024-.182q-.1-.846-.186-1.685c-.154-1.541-.281-3.067-.365-4.543a49.978,49.978,0,0,1,.1-8.427v-.009a18.783,18.783,0,0,1,3.511-1.261l.009,0c.523-.164,1.056-.337,1.583-.528l.294-.042q.322-.05.645-.084h0a30.944,30.944,0,0,1,6.438.009h.005c.14.019.22.028.22.028.07.028.3.089.653.192.439.121,1.06.3,1.765.551l.009,0c2.293.8,5.467,2.26,6.116,4.515a10.973,10.973,0,0,1-.074,1.12,89.288,89.288,0,0,1-2.974,13.951,34.139,34.139,0,0,1-2.125,5.542c0,.046.257.756.677,2.143a.1.1,0,0,1,.01.056c.383,1.284.938,3.3,1.545,6.083a.123.123,0,0,1,.009.056c.043.191.085.383.127.584a.018.018,0,0,0,0,.009c.374,1.765.756,3.791,1.111,6.088.1.612.2,1.247.29,1.9.583,4.03,1.1,8.838,1.419,14.422C1979.74,7054.805,1979.866,7059.5,1979.815,7064.642Z" fill="#ededed"/>
      <path id="Trazado_2848" data-name="Trazado 2848" d="M1965.683,7007.81a4.862,4.862,0,0,0,4.675,5.03c2.581,0,4.346-1.295,4.507-4.539.167-3.36-3.316-5.521-3.985-8.485C1970.281,6997.164,1965.683,7005.032,1965.683,7007.81Z" fill="#ededed"/>
      <g id="Grupo_2841" data-name="Grupo 2841">
        <path id="Trazado_2849" data-name="Trazado 2849" d="M1965.916,7007.139a4.862,4.862,0,0,1-4.674,5.03c-2.581,0-4.346-1.294-4.507-4.538-.167-3.36,3.315-5.522,3.984-8.485C1961.318,6996.493,1965.916,7004.361,1965.916,7007.139Z" fill="#ededed"/>
        <path id="Trazado_2850" data-name="Trazado 2850" d="M1961.891,7011.047c-2.724,0-4.587-1.354-4.757-4.749a4.854,4.854,0,0,1,.063-1,5.113,5.113,0,0,0-.462,2.335c.161,3.244,1.926,4.538,4.507,4.538a4.639,4.639,0,0,0,4.114-2.64A4.766,4.766,0,0,1,1961.891,7011.047Z" fill="#1d1d1b" opacity="0.07"/>
      </g>
      <path id="Trazado_2851" data-name="Trazado 2851" d="M1976.546,7027.558c.043.191.085.383.127.584-.1-.276-.2-.551-.295-.822-.014-.009-.014-.019-.014-.033a33.291,33.291,0,0,0-1.484-3.38,14.515,14.515,0,0,0-2.988-4.08c-.215-.192-.43-.369-.654-.542a15.413,15.413,0,0,0,2.983-8.413,4.055,4.055,0,0,1-3.865,1.97,4.647,4.647,0,0,1-4.114-2.643,4.765,4.765,0,0,0,3.465,1.518c2.726,0,4.589-1.354,4.757-4.748a4.769,4.769,0,0,0-.06-1c.042.1.074.2.112.294.079-1.639.168-3.38.354-5.252l4.534-1.28a89.288,89.288,0,0,1-2.974,13.951,34.139,34.139,0,0,1-2.125,5.542c0,.046.257.756.677,2.143a.1.1,0,0,1,.01.056c.383,1.284.938,3.3,1.545,6.083A.123.123,0,0,1,1976.546,7027.558Z" fill="#1d1d1b" opacity="0.07"/>
      <g id="Grupo_2843" data-name="Grupo 2843">
        <path id="Trazado_2852" data-name="Trazado 2852" d="M1958.865,6983.822l2.658-2.838-.084-6.931C1955.725,6974.934,1953.5,6981.233,1958.865,6983.822Z" fill="#362a2b"/>
        <path id="Trazado_2853" data-name="Trazado 2853" d="M1963.625,6993.393l.623-3.191c3.064-4.442,4.124-4.617,7.341-4.587v7.964l-5.345,3.2Z" fill="#edbb86"/>
        <g id="Grupo_2842" data-name="Grupo 2842">
          <path id="Trazado_2854" data-name="Trazado 2854" d="M1973.073,6985.582a15.708,15.708,0,0,0,.158-5.379c-1.613-7.905-7.128-6.568-10.074-6.063-7.6,1.674-5.008,9.825-5.008,9.825l-.486,2.829c-.138.614.467.905.94,1.037a.842.842,0,0,1,.614.692,13.392,13.392,0,0,0,.752,2.424,2.917,2.917,0,0,0,3.576,1.616s3.957-1.06,4.288-6.269C1969.064,6985.93,1972.8,6986.836,1973.073,6985.582Z" fill="#ffc990"/>
          <path id="Trazado_2855" data-name="Trazado 2855" d="M1973.692,6990.867c-9.053,4.206-4.138-8.023-5.068-7.89-6.092.87-4.649-6-10.749-4.145-.372-1.63.145-4.689,6.859-5.512,4.467-.547,7.975,1.191,9.355,4.984C1975.434,6982,1979.387,6987.553,1973.692,6990.867Z" fill="#362a2b"/>
          <path id="Trazado_2856" data-name="Trazado 2856" d="M1969.622,6983.345c.209,1.246-.6,2.861-1.416,3s-.894-.889-1.116-2.132c-.146-.824-.551-1.96.3-2.37C1968.133,6981.481,1969.316,6981.517,1969.622,6983.345Z" fill="#ffc990"/>
        </g>
        <path id="Trazado_2857" data-name="Trazado 2857" d="M1963.142,6979.971a3.718,3.718,0,0,0-2.419-1.977,8.75,8.75,0,0,0-2.977-.137,1.2,1.2,0,0,0-.468.1.493.493,0,0,0-.278.4.808.808,0,0,0,.332.607,7.116,7.116,0,0,0,4.191,2.022,2.878,2.878,0,0,1,1.9,1.96A5.681,5.681,0,0,0,1963.142,6979.971Z" fill="#362a2b"/>
      </g>
    </g>
    <path id="Trazado_2858" data-name="Trazado 2858" d="M1979.5,7050.561q-1.842-1.042-3.683-1.937a54.97,54.97,0,0,0-9.371-3.614c-.616-.168-1.232-.327-1.844-.471a40.273,40.273,0,0,0-10.043-1.093c-.35.009-.7.019-1.055.037.453-2.754.9-5.191,1.336-7.344h23.241C1978.661,7040.169,1979.18,7044.977,1979.5,7050.561Z" fill="#1d1d1b" opacity="0.1"/>
    <path id="Trazado_2859" data-name="Trazado 2859" d="M1932.651,7016.092a.782.782,0,0,1-.191-.024.749.749,0,0,1-.532-.915l.534-2.019a4.732,4.732,0,0,1,4.43-3.636l2.3-.152a.759.759,0,0,1,.8.7.747.747,0,0,1-.7.8l-2.3.152a3.211,3.211,0,0,0-3.082,2.525l-.535,2.019A.748.748,0,0,1,1932.651,7016.092Z" fill="#9d9d9c"/>
    <path id="Trazado_2860" data-name="Trazado 2860" d="M2051.249,7092.016a3.107,3.107,0,0,1-3.106,3.106H1913.025a3.106,3.106,0,0,1-3.1-3.106h0a3.1,3.1,0,0,1,3.1-3.1h135.118a3.105,3.105,0,0,1,3.106,3.1Z" fill="#131313" opacity="0.1"/>
    <g id="Grupo_2845" data-name="Grupo 2845">
      <path id="Trazado_2861" data-name="Trazado 2861" d="M1919.116,7089.14a3.29,3.29,0,1,1-3.29-3.29A3.289,3.289,0,0,1,1919.116,7089.14Z" fill="#3c3c3b"/>
      <rect id="Rectángulo_2682" data-name="Rectángulo 2682" width="2.575" height="47.875" transform="translate(1917.829 7038.404)" fill="#878787"/>
      <path id="Trazado_2862" data-name="Trazado 2862" d="M1915.834,7089.9h-.015a1.094,1.094,0,0,1-1.018-.694l-1.317-3.358h4.685l-1.318,3.358A1.092,1.092,0,0,1,1915.834,7089.9Z" fill="#575756"/>
      <path id="Trazado_2863" data-name="Trazado 2863" d="M1920.618,7086.63h-7.855v-1.973a.84.84,0,0,1,.84-.84h6.175a.84.84,0,0,1,.84.84Z" fill="#706f6f"/>
      <path id="Trazado_2864" data-name="Trazado 2864" d="M1916.408,7088.961a.581.581,0,1,1-.582-.581A.582.582,0,0,1,1916.408,7088.961Z" fill="#3c3c3b"/>
    </g>
    <g id="Grupo_2846" data-name="Grupo 2846">
      <circle id="Elipse_158" data-name="Elipse 158" cx="3.29" cy="3.29" r="3.29" transform="translate(1923.551 7085.85)" fill="#3c3c3b"/>
      <rect id="Rectángulo_2683" data-name="Rectángulo 2683" width="2.575" height="47.875" transform="translate(1928.844 7038.404)" fill="#878787"/>
      <path id="Trazado_2865" data-name="Trazado 2865" d="M1926.848,7089.9h-.015a1.093,1.093,0,0,1-1.017-.694l-1.317-3.358h4.684l-1.317,3.358A1.094,1.094,0,0,1,1926.848,7089.9Z" fill="#575756"/>
      <path id="Trazado_2866" data-name="Trazado 2866" d="M1931.633,7086.63h-7.856v-1.973a.84.84,0,0,1,.841-.84h6.174a.841.841,0,0,1,.841.84Z" fill="#706f6f"/>
      <path id="Trazado_2867" data-name="Trazado 2867" d="M1927.422,7088.961a.581.581,0,1,1-.581-.581A.581.581,0,0,1,1927.422,7088.961Z" fill="#3c3c3b"/>
    </g>
    <g id="Grupo_2847" data-name="Grupo 2847">
      <circle id="Elipse_159" data-name="Elipse 159" cx="3.29" cy="3.29" r="3.29" transform="translate(2039.748 7085.85)" fill="#3c3c3b"/>
      <rect id="Rectángulo_2684" data-name="Rectángulo 2684" width="2.575" height="47.875" transform="translate(2045.04 7038.404)" fill="#878787"/>
      <path id="Trazado_2868" data-name="Trazado 2868" d="M2043.045,7089.9h-.015a1.094,1.094,0,0,1-1.017-.694l-1.318-3.358h4.685l-1.317,3.358A1.094,1.094,0,0,1,2043.045,7089.9Z" fill="#575756"/>
      <path id="Trazado_2869" data-name="Trazado 2869" d="M2047.83,7086.63h-7.856v-1.973a.84.84,0,0,1,.841-.84h6.174a.841.841,0,0,1,.841.84Z" fill="#706f6f"/>
      <path id="Trazado_2870" data-name="Trazado 2870" d="M2043.619,7088.961a.581.581,0,1,1-.581-.581A.581.581,0,0,1,2043.619,7088.961Z" fill="#3c3c3b"/>
    </g>
    <path id="Trazado_2871" data-name="Trazado 2871" d="M2053.466,7038.4H1911.422v-4.572a3.572,3.572,0,0,1,3.571-3.572h134.9a3.572,3.572,0,0,1,3.571,3.572Z" fill="#ededed"/>
    <path id="Trazado_2872" data-name="Trazado 2872" d="M2049.856,7033a2.465,2.465,0,0,1-2.2,2.664H1918.672a2.465,2.465,0,0,1-2.2-2.664h0a2.464,2.464,0,0,1,2.2-2.663h128.987a2.464,2.464,0,0,1,2.2,2.663Z" fill="#131313" opacity="0.1"/>
    <path id="Trazado_2873" data-name="Trazado 2873" d="M2047.3,7032.558l-2.258.278c-.632.073-1.218.13-1.752.165a19.224,19.224,0,0,1-2.77.01c-.93-.073-1.432-.235-1.5-.382a5.95,5.95,0,0,1-.421-1.5,10.842,10.842,0,0,1,1.468-7.408c.07-.1.136-.2.2-.309,1.408-2.268,2.012-5.652,2.647-6.558.955-1.358,3.346-1.106,3.346-1.106l.035.5.758,10.726-1.091,2.1,1.183.414.028.583Z" fill="#2e2e2d"/>
    <path id="Trazado_2874" data-name="Trazado 2874" d="M1990.581,7030.73c-4.008,3.218-11.029,2.809-14.481.059-.759-4.754-.959-9.139,0-12.76,5.418-.26,13.078,1.236,17.144,1.871Z" fill="#006080"/>
    <path id="Trazado_2875" data-name="Trazado 2875" d="M2048.364,7027.394l-1.289,1.991,1.138.526-.144,3.069-2.275.056c-.944.021-1.78.007-2.5-.035a14.368,14.368,0,0,1-2.612-.348c-.537-.137-.821-.284-.863-.4a5.43,5.43,0,0,1-.246-1.211,10.886,10.886,0,0,1,2.145-7.552c1.766-2.1,2.746-5.68,3.5-6.558a2.338,2.338,0,0,1,1.085-.685,5.37,5.37,0,0,1,2.352-.1Z" fill="#3c3c3b"/>
    <g id="Grupo_2849" data-name="Grupo 2849">
      <path id="Trazado_2876" data-name="Trazado 2876" d="M1939.479,7021.294v9.072l-3.8.12h0l-.773.027-3.184.1-.015-.616v-.123l-.054-2.435,0-.169-.031-1.408-.077-3.473,2.3-.315,2.3-.319,1.385-.192Z" fill="#ffc990"/>
      <g id="Grupo_2848" data-name="Grupo 2848">
        <path id="Trazado_2877" data-name="Trazado 2877" d="M1934.541,7017.083a1.926,1.926,0,0,1,1.341,1.381l.363,1.6a4.72,4.72,0,0,1-.145,1.83s0,0,0,0a6.051,6.051,0,0,1-4.342,4.374.55.55,0,0,1,.018.085.042.042,0,0,0,.005.024c.254,1.18,1.883,2.722.777,3.134-1.222.456-2.7,2.314-4.318,2.893-7.413,1.731-8.213-2.933-8.938-5.662a6.475,6.475,0,0,1,1.945-6.375,8.263,8.263,0,0,1,2.125-1.379,11.915,11.915,0,0,1,1.418-.538,9.648,9.648,0,0,1,.972.127l.341-.272,1.515-1.215a.814.814,0,0,1,1.2.287l.381.651c.493-.12,3.2-1.036,3.2-1.036A3.991,3.991,0,0,1,1934.541,7017.083Z" fill="#ffc990"/>
        <path id="Trazado_2878" data-name="Trazado 2878" d="M1934.906,7030.513c-.142.946-.992,1.523-2.135,1.876-.192.066-.4.116-.611.166a33.5,33.5,0,0,1-6.038.457c-.158,0-.311.012-.465.016-.112,0-.22.008-.327.008-3.842.08-5.419-.654-6.423-2.685a15.349,15.349,0,0,1-.927-2.692c-.842-3.173-.3-5.857.908-6.973a1.972,1.972,0,0,1,2.357-.319v0c.023.377.047.727.077,1.054.577,6.022,3.119,4.188,9.119,2.88a15.118,15.118,0,0,1,.477,1.52.222.222,0,0,1-.039.053c-.43.562-1.753,1.985-1.838,2.073a8.127,8.127,0,0,1,2.608-.68,1.053,1.053,0,0,1,.111,0h0a2.314,2.314,0,0,1,.377,0h0a2.75,2.75,0,0,1,1.707.6l0,0a2.313,2.313,0,0,1,.415.446A4.035,4.035,0,0,1,1934.906,7030.513Z" fill="#3c3c3b"/>
        <path id="Trazado_2879" data-name="Trazado 2879" d="M1929.98,7028.677c1.151-.311,2.217-1.643,2.014-2.395s-1.115-.417-2.269-.117c-.764.2-1.9.3-1.916,1.189C1927.794,7028.133,1928.291,7029.134,1929.98,7028.677Z" fill="#ffc990"/>
      </g>
      <path id="Trazado_2880" data-name="Trazado 2880" d="M1934.541,7017.083a1.926,1.926,0,0,1,1.341,1.381l.363,1.6a4.72,4.72,0,0,1-.145,1.83s0,0,0,0a5.236,5.236,0,0,1-1.976,1.381,15.925,15.925,0,0,1-2.4.736,3.9,3.9,0,0,0,1.735-1.356,6.88,6.88,0,0,0,.986-1.989,6.561,6.561,0,0,0,.379-2.18A3.909,3.909,0,0,0,1934.541,7017.083Z" fill="#050504" opacity="0.1"/>
    </g>
    <path id="Trazado_2881" data-name="Trazado 2881" d="M1977.687,7028.547c-.269.9-.573,1.816-.9,2.727l-.07.2c-.18.489-.365.981-.557,1.465h-.443c-1.715-.011-6.822.012-12.776.047-.4,0-.792,0-1.192.007-1.873.016-3.815.027-5.742.043-.7,0-1.392.007-2.08.015-7.492.058-11.346.769-15.28-1.346l0,0a12,12,0,0,1-1.042-.619l-.265-.081-1.65-.515h0c.123-.489.235-.981.342-1.477l.15-.739v0c.423-2.123.735-4.2,1.119-5.835.074-.3.147-.6.227-.865a25.724,25.724,0,0,1,6.984-4.611,22.152,22.152,0,0,1,5.927-1.327c.392-.038.8-.061,1.211-.077q1.252-.051,2.639.023c4.3-.973,24.447,1.372,24.852,2.465A27.041,27.041,0,0,1,1977.687,7028.547Z" fill="#e69f56"/>
    <path id="Trazado_2882" data-name="Trazado 2882" d="M2013.021,7020.2l-.727,9.339-.266,3.444c-.257,0-.506.01-.759.014-5.522.116-10.181.372-15.4.014a69.545,69.545,0,0,1-7.587-.938q-1.169-.205-2.408-.463l-.035-.256-.232-1.742-1.257-9.412c2.608-.274,5.027-.453,7.281-.562C2000.92,7019.193,2007.411,7019.951,2013.021,7020.2Z" fill="#006080"/>
    <path id="Trazado_2883" data-name="Trazado 2883" d="M2041.718,7023.49l-.839,7.418-.2,1.745-.042.358h-.116c-14.274.106-20.039.214-29.258,0l0-.017.471-3.434,1.281-9.363a219.924,219.924,0,0,0,27.254,3.219Z" fill="#006080"/>
    <path id="Trazado_2884" data-name="Trazado 2884" d="M1995,7032.784l-46.67-1.148-3.217-7.358c4.727.333,6.457-.526,8.8-2.984,1.192,1.907,11.169,3.86,17.7,5.285C1982.337,7028.921,1982.021,7030.482,1995,7032.784Z" fill="#1d1d1b" opacity="0.1"/>
    <path id="Trazado_2885" data-name="Trazado 2885" d="M1963.959,7026.344l-.826,5.361-.2,1.282-.018.112-.649-.007h-.011l-6.256-.056-10.413-.1c-3.208-.566-4.427-2.131-4.873-3.441a4.405,4.405,0,0,1-.2-2.015c.72-3.371,4.757-3.55,6.99-3.153,4,.706,14.608,1.822,16.24,1.994h.007c.081.007.137.014.172.018A.129.129,0,0,1,1963.959,7026.344Z" fill="#ffc990"/>
    <path id="Trazado_2886" data-name="Trazado 2886" d="M1991.992,7029c-.075-.558-.727-.547-1.1-.43-.653.205-1.8.372-3.05.6-.27.11-.528.147-.8.244a5.7,5.7,0,0,0-.756.314c-.191.237-.316.431-.53.744a15.435,15.435,0,0,0,4.91-.548C1991.049,7029.765,1992.059,7029.5,1991.992,7029Z" fill="#ffc990"/>
    <path id="Trazado_2887" data-name="Trazado 2887" d="M1996.24,7032.579v.007a.425.425,0,0,1-.372.422.467.467,0,0,1-.071,0l-6.14-.017h-5.691v-.007l.127-1.815.1-1.419c0,.042.095.053.26.042a11.2,11.2,0,0,0,1.155-.186c1.183-.231,2.787-.6,3.479-.677a1.25,1.25,0,0,1,.165-.011,1.413,1.413,0,0,1,.509.1l1.134.443.477.186,1.545.6a1.451,1.451,0,0,1,.295.155l1.805,1.158,1.028.66A.424.424,0,0,1,1996.24,7032.579Z" fill="#ffc990"/>
    <path id="Trazado_2888" data-name="Trazado 2888" d="M1984.451,7029.795l-.348,3.185v.014l0,.017h-18.239a19.6,19.6,0,0,1-3.591.081h-.011c-.123-.011-.249-.025-.379-.042a.269.269,0,0,1-.133-.056c-.232-.158-.348-.657-.351-1.31-.028-1.962.888-5.35,2.348-5.361h.007c.081.007.137.014.172.018a.129.129,0,0,1,.036,0l11.789,1.893,1.256.2.685.109,2.261.362Z" fill="#ffc990"/>
    <path id="Trazado_2889" data-name="Trazado 2889" d="M2048.213,7029.913l-.142,3.065-2.277.058c-.946.023-1.781.007-2.5-.035a19.526,19.526,0,0,1-2.769.011c-14.276.1-20.041.212-29.259,0l0-.019c-5.523.116-10.18.373-15.4.016a.439.439,0,0,1-.069,0l-6.142-.019H1984.1l0,.019h-18.237a19.7,19.7,0,0,1-3.592.081h-.011l-6.254-.057c-.7,0-1.392.007-2.08.015-7.492.058-11.346.769-15.28-1.346l0,0a12,12,0,0,1-1.042-.619l-.265-.081-1.65-.515h0l-.773.027c-.142.946-.992,1.523-2.135,1.876-.192.066-.4.116-.611.166a33.5,33.5,0,0,1-6.038.457c-.158,0-.311.012-.465.016-.112,0-.22.008-.327.008-3.842.08-5.419-.654-6.423-2.685.685.212,1.365.392,2.042.531h0a14.924,14.924,0,0,0,7.942-.269,11.589,11.589,0,0,0,2.811-.739,9.879,9.879,0,0,0,1.119-.53l0,0a4.572,4.572,0,0,0,3.527-2.031c.019.781,3.961,2.258,4.361,2.188a94.517,94.517,0,0,0,20.679,2.189c.577.007,1.154.015,1.739.019,4.169.031,8.545-.058,13.06-.216.169,0,.342-.007.519-.015.123,0,.246-.008.374-.015.788-.027,1.576-.054,2.372-.089q2.3-.092,4.631-.2c.073,0,.142,0,.211-.007.508.073,1.019.134,1.535.188,1.115.123,2.253.2,3.426.25h0c1.831.069,3.735.054,5.746-.038a148.545,148.545,0,0,0,16.726-2c.123-.019.25-.042.377-.062.057.016.119.027.18.039a80.751,80.751,0,0,0,26.306,1.6c.323-.027.646-.054.969-.089.435-.038.87-.084,1.308-.134,2.034-.223,4.126-.5,6.3-.835C2047.521,7030.02,2047.867,7029.967,2048.213,7029.913Z" fill="#1d1d1b" opacity="0.1"/>
    <rect id="Rectángulo_2685" data-name="Rectángulo 2685" width="142.044" height="2.253" transform="translate(1911.422 7036.902)" fill="#706f6f"/>
    <g id="Grupo_2850" data-name="Grupo 2850">
      <path id="Trazado_2890" data-name="Trazado 2890" d="M2034.757,7089.14a3.29,3.29,0,1,1-3.29-3.29A3.29,3.29,0,0,1,2034.757,7089.14Z" fill="#3c3c3b"/>
      <rect id="Rectángulo_2686" data-name="Rectángulo 2686" width="2.575" height="47.875" transform="translate(2033.469 7038.404)" fill="#878787"/>
      <path id="Trazado_2891" data-name="Trazado 2891" d="M2031.474,7089.9h-.015a1.093,1.093,0,0,1-1.017-.694l-1.318-3.358h4.685l-1.317,3.358A1.094,1.094,0,0,1,2031.474,7089.9Z" fill="#575756"/>
      <path id="Trazado_2892" data-name="Trazado 2892" d="M2036.259,7086.63H2028.4v-1.973a.84.84,0,0,1,.841-.84h6.174a.841.841,0,0,1,.841.84Z" fill="#706f6f"/>
      <path id="Trazado_2893" data-name="Trazado 2893" d="M2032.048,7088.961a.581.581,0,1,1-.581-.581A.581.581,0,0,1,2032.048,7088.961Z" fill="#3c3c3b"/>
    </g>
    <rect id="Rectángulo_2687" data-name="Rectángulo 2687" width="126.427" height="2.575" transform="translate(1919.901 7078.099)" fill="#878787"/>
    <path id="Trazado_2894" data-name="Trazado 2894" d="M1926.951,7017.63l3.949,1.984,4.982-1.15a5.5,5.5,0,0,0-1.881-3.918l-1.982-.611C1929.324,7014.371,1928.042,7016.132,1926.951,7017.63Z" fill="#e94e1b"/>
    <path id="Trazado_2895" data-name="Trazado 2895" d="M1930.805,7020.4l-4.191-2.1a.748.748,0,1,1,.673-1.337l3.708,1.862,4.719-1.089a.748.748,0,0,1,.336,1.458Z" fill="#d14618"/>
    <path id="Trazado_2896" data-name="Trazado 2896" d="M1944.4,7006.45c-3.3,0-6.448,1.171-7.625,2.613v2.368c1.137,1.343,4.117,2.306,7.392,2.306,4.176,0,7.236-1.562,7.236-3.488S1948.576,7006.45,1944.4,7006.45Z" fill="#e94e1b"/>
    <path id="Trazado_2897" data-name="Trazado 2897" d="M1948.532,7010.832a.83.83,0,0,0,1.1-.41v0a.707.707,0,0,0-.354-.94,7.3,7.3,0,0,1-3.251-1.278c-.47-.367-1.249-.732-1.079.366a1.952,1.952,0,0,0,1.127,1.072Z" fill="#edbb86"/>
    <path id="Trazado_2898" data-name="Trazado 2898" d="M1950,7009.782l-.16,3.248,17.707,2.219a2.54,2.54,0,0,0,2.175-2.772v-.063a3.116,3.116,0,0,0-3.082-3.15Z" fill="#ffc990"/>
    <g id="Grupo_2851" data-name="Grupo 2851">
      <path id="Trazado_2899" data-name="Trazado 2899" d="M1942.862,7010.755a.715.715,0,0,1-.8-.46c-.052-.471.251-.642.674-.681l2.933-.427a.733.733,0,0,1,.791.611v.008a.761.761,0,0,1-.7.869Z" fill="#edbb86"/>
      <path id="Trazado_2900" data-name="Trazado 2900" d="M1942.733,7011.877a.716.716,0,0,1-.745-.551c-.044-.435.325-.608.75-.6l2.963-.079a.731.731,0,0,1,.713.7v.008a.762.762,0,0,1-.8.781Z" fill="#edbb86"/>
      <path id="Trazado_2901" data-name="Trazado 2901" d="M1943.08,7012.955a.68.68,0,0,1-.662-.583c-.029-.449.357-.551.76-.506l2.818.166a.7.7,0,0,1,.62.723v.007a.726.726,0,0,1-.819.676Z" fill="#edbb86"/>
      <path id="Trazado_2902" data-name="Trazado 2902" d="M1943.479,7014.058a.638.638,0,0,1-.58-.589c-.036-.419.37-.491.744-.423l2.623.342a.654.654,0,0,1,.532.716v.007a.68.68,0,0,1-.81.578Z" fill="#edbb86"/>
      <path id="Trazado_2903" data-name="Trazado 2903" d="M1945.245,7009.24l.463-.04a7.2,7.2,0,0,1,4.763.706l.054,0,.668-.086c.742.562,1.167.882,1.91,1.444l.218,1.459.01.059a.117.117,0,0,1-.106.129l-2.327.3a.082.082,0,0,0-.045.02.074.074,0,0,0-.06.078c-1.335,1.216-4.273,1.375-4.273,1.375l-.269.026a.63.63,0,0,1-.668-.587l0-.013a.616.616,0,0,1,.574-.676l-.235.022a.732.732,0,0,1-.8-.638l0-.012a.688.688,0,0,1,.642-.758l-.214.015a.73.73,0,0,1-.8-.632l0-.013a.7.7,0,0,1,.65-.763.728.728,0,0,1-.8-.638l0-.013A.693.693,0,0,1,1945.245,7009.24Z" fill="#ffc990"/>
    </g>
    <path id="Trazado_2904" data-name="Trazado 2904" d="M1967.281,7006.426l-5,6.635.612.206,5.525,1.842,3.914-4.667a10.39,10.39,0,0,1-4.17-2.951C1967.846,7007.146,1967.557,7006.787,1967.281,7006.426Z" fill="#ffc990"/>
    <path id="Trazado_2905" data-name="Trazado 2905" d="M1969.085,7004.034l-1.3,1.719-.508.673c.276.361.565.72.878,1.065a10.39,10.39,0,0,0,4.17,2.951l6.361-7.567c1.647-2.386.915-5.093.142-5.7C1974.565,6994.626,1971.853,7000.88,1969.085,7004.034Z" fill="#ededed"/>
  </g>
</svg>
