<svg xmlns="http://www.w3.org/2000/svg" width="168.75" height="120.187" viewBox="0 0 168.75 120.187">
  <g id="Grupo_2838" data-name="Grupo 2838" transform="translate(-1890.261 -6780.895)">
    <path id="Trazado_2667" data-name="Trazado 2667" d="M1951.06,6834.718l.133,1.639c.017-2.446,2.041-1.681,3.424-2.188a5.5,5.5,0,0,1,.156,1.135c-.087,1.114-.042,2.063,1.445,2.152.26.016.494.477.741.733-.279.23-.555.653-.837.658-2.33.042-4.662.025-6.992-.033-.244-.006-.558-.351-.68-.613-.053-.112.287-.588.475-.6C1950.753,6837.434,1950.961,6836.173,1951.06,6834.718Z" fill="#630013"/>
    <path id="Trazado_2668" data-name="Trazado 2668" d="M2011.315,6822.46l-2.617-.328s-21.937,3.707-24.9,2.418c0,0-26.7-3.63-28.852-4.978h-3.486s-13.723,4.331-21.109,3.862l-32.4-1.237.043,3.061,7.216,1.012s23.566,1.151,27.822.207l17.749-3.173s23.962,3.19,32.543,3.648c0,0,25.932-.951,27.714-1.261Z" fill="#e6b54a"/>
    <path id="Trazado_2669" data-name="Trazado 2669" d="M2011.039,6825.691s8.336,9.767,30.453,10.829l7.764-4.727s-36.014-3.715-37.941-9.333Z" fill="#e6b54a"/>
    <path id="Trazado_2670" data-name="Trazado 2670" d="M1897.309,6827.142l.227-3.66-.289-.018a9.184,9.184,0,0,1-.269,1.785c-.115.329-.542.549-.828.819a16.836,16.836,0,0,1-.378-2.411c-.007-.251.469-.59.791-.764,2.734-1.477,5.25.774,7.875.3l.773,3.078-7.216-1.012-.335,1.953Z"/>
    <path id="Trazado_2671" data-name="Trazado 2671" d="M2043.922,6831.608c-.664,1.454-.358,3.318-2.41,3.741C2041.339,6833.114,2042.3,6831.474,2043.922,6831.608Z"/>
    <path id="Trazado_2672" data-name="Trazado 2672" d="M2037.355,6835.067c.517-3.236.756-3.6,2.129-3.357C2039.056,6834.669,2038.7,6835.266,2037.355,6835.067Z"/>
    <path id="Trazado_2673" data-name="Trazado 2673" d="M1908.879,6823.97c-.654,2.317-.975,2.6-2.458,2.241C1906.622,6824.2,1907.224,6823.625,1908.879,6823.97Z"/>
    <path id="Trazado_2674" data-name="Trazado 2674" d="M1910.5,6826.577c.685-2.391.876-2.563,2.393-2.227C1912.317,6826.655,1912.1,6826.87,1910.5,6826.577Z"/>
    <path id="Trazado_2675" data-name="Trazado 2675" d="M2033.835,6834.641c.487-3.025.592-3.2,1.844-3.138C2035.5,6833.952,2035.043,6834.765,2033.835,6834.641Z"/>
    <path id="Trazado_2676" data-name="Trazado 2676" d="M1916.981,6824.6c-.688,1.022-.505,2.7-2.4,2.241C1915.067,6824.648,1915.382,6824.327,1916.981,6824.6Z"/>
    <path id="Trazado_2677" data-name="Trazado 2677" d="M2032.477,6831.263c-.218.829-.4,1.672-.678,2.479-.079.227-.462.347-.7.516-.112-.268-.351-.557-.313-.8a6.524,6.524,0,0,1,.519-1.811c.141-.294.577-.446.88-.663Z"/>
    <path id="Trazado_2678" data-name="Trazado 2678" d="M1920.838,6824.608c-.747.96-.443,2.619-2.273,2.3C1918.788,6825.06,1919.264,6824.514,1920.838,6824.608Z"/>
    <path id="Trazado_2679" data-name="Trazado 2679" d="M2009.625,6822.232l1.69.228a18.769,18.769,0,0,1-.639,1.843c-.052.118-.723.108-.728.083C2009.811,6823.674,2009.722,6822.952,2009.625,6822.232Z"/>
    <path id="Trazado_2680" data-name="Trazado 2680" d="M1953.6,6821.475c.511-1.089.938-2.117,2.431-1.145C1955.495,6821.2,1955.251,6822.475,1953.6,6821.475Z"/>
    <path id="Trazado_2681" data-name="Trazado 2681" d="M2028.987,6830.568c.153.138.426.294.4.381q-.292,1.276-.7,2.52a6.675,6.675,0,0,1-.788-.165c.227-.844.445-1.691.693-2.529C2028.62,6830.686,2028.823,6830.65,2028.987,6830.568Z"/>
    <path id="Trazado_2682" data-name="Trazado 2682" d="M2017.627,6826.667c.153.138.426.293.406.381-.195.85-.432,1.692-.7,2.52a6.42,6.42,0,0,1-.787-.165c.226-.845.444-1.691.692-2.529C2017.26,6826.785,2017.463,6826.749,2017.627,6826.667Z"/>
    <path id="Trazado_2683" data-name="Trazado 2683" d="M1968.127,6823.172c-.558.9-.8,2.139-2.38,1.331C1966.276,6823.557,1966.55,6822.375,1968.127,6823.172Z"/>
    <path id="Trazado_2684" data-name="Trazado 2684" d="M1924.5,6824.548c-.731,1.01-.441,2.577-2.448,2.293C1922.761,6825.917,1922.39,6824.344,1924.5,6824.548Z"/>
    <path id="Trazado_2685" data-name="Trazado 2685" d="M1957.584,6822.641c.6-1.025.961-2.166,2.405-1.181C1959.507,6822.458,1959.134,6823.539,1957.584,6822.641Z"/>
    <path id="Trazado_2686" data-name="Trazado 2686" d="M1980.386,6824.546c-.617.809-.673,2.224-2.4,1.509C1978.612,6825.215,1978.689,6823.83,1980.386,6824.546Z"/>
    <path id="Trazado_2687" data-name="Trazado 2687" d="M1969.77,6825.206c.637-.905.818-2.191,2.41-1.418C1971.62,6824.6,1971.526,6825.935,1969.77,6825.206Z"/>
    <path id="Trazado_2688" data-name="Trazado 2688" d="M2000.77,6823.53c-.592.941-.588,2.339-2.313,2.02C1998.946,6824.539,1999.1,6823.309,2000.77,6823.53Z"/>
    <path id="Trazado_2689" data-name="Trazado 2689" d="M2006.415,6823.94l1.857-2.178.426.37c-.356.961-.529,2.079-1.884,2.173Z"/>
    <path id="Trazado_2690" data-name="Trazado 2690" d="M1961.654,6823.608c.6-.827.822-2.189,2.408-1.237C1963.535,6823.311,1963.26,6824.577,1961.654,6823.608Z"/>
    <path id="Trazado_2691" data-name="Trazado 2691" d="M1992.73,6824.358c-.7.933-.7,2.318-2.4,1.965C1990.816,6825.355,1990.886,6824.107,1992.73,6824.358Z"/>
    <path id="Trazado_2692" data-name="Trazado 2692" d="M1973.894,6825.688c.61-.817.736-2.142,2.346-1.488C1975.7,6825.063,1975.636,6826.477,1973.894,6825.688Z"/>
    <path id="Trazado_2693" data-name="Trazado 2693" d="M1925.52,6826.7c.886-.933.576-2.454,2.407-2.292C1927.344,6825.414,1927.631,6826.885,1925.52,6826.7Z"/>
    <path id="Trazado_2694" data-name="Trazado 2694" d="M1994.409,6825.888c.531-.817.564-2.218,2.559-1.73l-2.09,2.19Z"/>
    <path id="Trazado_2695" data-name="Trazado 2695" d="M1988.59,6824.974l-1.9,1.813-.4-.413c.368-.881.478-2.025,1.9-1.835Z"/>
    <path id="Trazado_2696" data-name="Trazado 2696" d="M2004.932,6822.817c-.751,1-.709,2.4-2.4,2.146C2002.97,6823.922,2003.126,6822.76,2004.932,6822.817Z"/>
    <path id="Trazado_2697" data-name="Trazado 2697" d="M1984.522,6824.67c-.671.931-.8,2.2-2.393,1.689C1982.625,6825.444,1982.7,6824.147,1984.522,6824.67Z"/>
    <path id="Trazado_2698" data-name="Trazado 2698" d="M1931.444,6824.1c-.726,1-.393,2.456-2.177,2.32C1929.81,6825.5,1929.528,6824.146,1931.444,6824.1Z"/>
    <path id="Trazado_2699" data-name="Trazado 2699" d="M1932.564,6826.234c.53-1.138.406-2.374,2.037-2.576C1934.168,6824.771,1934.247,6825.973,1932.564,6826.234Z"/>
    <path id="Trazado_2700" data-name="Trazado 2700" d="M1937.633,6823.434c-.424.793-.043,2.187-1.717,2.2C1936.323,6824.657,1936.154,6823.462,1937.633,6823.434Z"/>
    <path id="Trazado_2701" data-name="Trazado 2701" d="M1939.25,6825.018c.227-.9-.034-2.14,1.537-2.311C1940.514,6823.758,1940.487,6824.769,1939.25,6825.018Z"/>
    <path id="Trazado_2702" data-name="Trazado 2702" d="M2025.287,6832.763l.683-2.751C2026.955,6830.643,2026.754,6832,2025.287,6832.763Z"/>
    <path id="Trazado_2703" data-name="Trazado 2703" d="M1943.91,6822.01c-.531,1.073-.381,2.244-1.956,2.589C1942.451,6823.482,1942.212,6822.29,1943.91,6822.01Z"/>
    <path id="Trazado_2704" data-name="Trazado 2704" d="M1949.367,6820.73c-.219.883-.218,1.907-1.27,2.251l-.422-.243,1.175-2.314Z"/>
    <path id="Trazado_2705" data-name="Trazado 2705" d="M2024.323,6829.524l-.593,2.589-.7-.149.572-2.55Z"/>
    <path id="Trazado_2706" data-name="Trazado 2706" d="M2014.824,6825.548l-.592,2.589-.7-.15.571-2.549Z"/>
    <path id="Trazado_2707" data-name="Trazado 2707" d="M2021.57,6828.174l-.593,2.589-.7-.149.571-2.55Z"/>
    <path id="Trazado_2708" data-name="Trazado 2708" d="M1946.739,6821.6l-1.23,2.3-.611-.326,1.173-2.382Z"/>
    <path id="Trazado_2709" data-name="Trazado 2709" d="M1952.122,6819.883l-1.068,2.317-.639-.3,1.05-2.326Z"/>
    <path id="Trazado_2710" data-name="Trazado 2710" d="M1953.7,6823.581v4.771c-1.595.123-1.595.123-1.784-1.811C1951.695,6824.246,1951.948,6823.789,1953.7,6823.581Z" fill="#630013"/>
    <g id="Grupo_2837" data-name="Grupo 2837">
      <g id="Grupo_2832" data-name="Grupo 2832">
        <g id="Grupo_2828" data-name="Grupo 2828">
          <g id="Grupo_2827" data-name="Grupo 2827">
            <g id="Grupo_2825" data-name="Grupo 2825">
              <path id="Trazado_2711" data-name="Trazado 2711" d="M1979.466,6842.981c.189-.114.374-.227.552-.349a9.3,9.3,0,0,0,3,.687c.31,0,.746.135.735.583v.012c.057.586-.687.652-1.015.679a15.389,15.389,0,0,1-4.233-.9A9.526,9.526,0,0,1,1979.466,6842.981Z" fill="#fdda99"/>
              <path id="Trazado_2712" data-name="Trazado 2712" d="M1981.76,6845.307l.009-.007a.58.58,0,0,1,.811.113l2.22,2.817a.578.578,0,0,1-.113.81l-.009.007a.577.577,0,0,1-.81-.112l-2.221-2.817A.58.58,0,0,1,1981.76,6845.307Z" fill="#fdda99"/>
              <path id="Trazado_2713" data-name="Trazado 2713" d="M1980.806,6845.687l.01-.006a.578.578,0,0,1,.785.231l2.154,3.738a.579.579,0,0,1-.231.785l-.01.006a.578.578,0,0,1-.785-.231l-2.153-3.738A.578.578,0,0,1,1980.806,6845.687Z" fill="#fdda99"/>
              <path id="Trazado_2714" data-name="Trazado 2714" d="M1979.919,6846.211l.011,0a.579.579,0,0,1,.754.318l1.507,3.651a.579.579,0,0,1-.318.754l-.01,0a.58.58,0,0,1-.755-.318l-1.506-3.651A.578.578,0,0,1,1979.919,6846.211Z" fill="#fdda99"/>
              <path id="Trazado_2715" data-name="Trazado 2715" d="M1978.891,6846.1l.01,0a.514.514,0,0,1,.638.348l1.11,3.649a.513.513,0,0,1-.348.637l-.01,0a.514.514,0,0,1-.638-.348l-1.11-3.648A.514.514,0,0,1,1978.891,6846.1Z" fill="#fdda99"/>
              <path id="Trazado_2716" data-name="Trazado 2716" d="M1982.775,6845.672l-.715-.947h0l-.84-1.11c-.567-.75-1.591-1.47-2.341-.9l-.72.347a2.382,2.382,0,0,0-.675,2.85l.951,1.558h0l.5.657a.515.515,0,0,0,.72.1l.008-.007a.512.512,0,0,0,.1-.719l.114.15a.577.577,0,0,0,.81.112l.009-.007a.578.578,0,0,0,.113-.81l.1.139a.577.577,0,0,0,.81.112l.01-.007a.579.579,0,0,1,.923-.7l.009-.007A.578.578,0,0,0,1982.775,6845.672Z" fill="#fdda99"/>
            </g>
            <g id="Grupo_2826" data-name="Grupo 2826">
              <path id="Trazado_2717" data-name="Trazado 2717" d="M1979.466,6842.981c.189-.114.374-.227.552-.349a9.3,9.3,0,0,0,3,.687c.31,0,.746.135.735.583v.012c.057.586-.687.652-1.015.679a15.389,15.389,0,0,1-4.233-.9A9.526,9.526,0,0,1,1979.466,6842.981Z" fill="#ffc990"/>
              <path id="Trazado_2718" data-name="Trazado 2718" d="M1981.76,6845.307l.009-.007a.58.58,0,0,1,.811.113l2.22,2.817a.578.578,0,0,1-.113.81l-.009.007a.577.577,0,0,1-.81-.112l-2.221-2.817A.58.58,0,0,1,1981.76,6845.307Z" fill="#ffc990"/>
              <path id="Trazado_2719" data-name="Trazado 2719" d="M1980.806,6845.687l.01-.006a.578.578,0,0,1,.785.231l2.154,3.738a.579.579,0,0,1-.231.785l-.01.006a.578.578,0,0,1-.785-.231l-2.153-3.738A.578.578,0,0,1,1980.806,6845.687Z" fill="#ffc990"/>
              <path id="Trazado_2720" data-name="Trazado 2720" d="M1979.919,6846.211l.011,0a.579.579,0,0,1,.754.318l1.507,3.651a.579.579,0,0,1-.318.754l-.01,0a.58.58,0,0,1-.755-.318l-1.506-3.651A.578.578,0,0,1,1979.919,6846.211Z" fill="#ffc990"/>
              <path id="Trazado_2721" data-name="Trazado 2721" d="M1978.891,6846.1l.01,0a.514.514,0,0,1,.638.348l1.11,3.649a.513.513,0,0,1-.348.637l-.01,0a.514.514,0,0,1-.638-.348l-1.11-3.648A.514.514,0,0,1,1978.891,6846.1Z" fill="#ffc990"/>
              <path id="Trazado_2722" data-name="Trazado 2722" d="M1982.775,6845.672l-.715-.947h0l-.84-1.11c-.567-.75-1.591-1.47-2.341-.9l-.72.347a2.382,2.382,0,0,0-.675,2.85l.951,1.558h0l.5.657a.515.515,0,0,0,.72.1l.008-.007a.512.512,0,0,0,.1-.719l.114.15a.577.577,0,0,0,.81.112l.009-.007a.578.578,0,0,0,.113-.81l.1.139a.577.577,0,0,0,.81.112l.01-.007a.579.579,0,0,1,.923-.7l.009-.007A.578.578,0,0,0,1982.775,6845.672Z" fill="#ffc990"/>
            </g>
          </g>
          <path id="Trazado_2723" data-name="Trazado 2723" d="M1973.754,6834.546c-2.74-4.476-8.305-.431-4.71,3.413l8.567,7.678,2.6-2.431Z" fill="#ffc990"/>
          <path id="Trazado_2724" data-name="Trazado 2724" d="M1963.254,6822.792l2.173,6.758,2.5,7.086,5.121-3.089-1.544-5.708-2.019-6.867C1968.158,6816.459,1961.782,6817.338,1963.254,6822.792Z" fill="#d74819"/>
          <path id="Trazado_2725" data-name="Trazado 2725" d="M1969.08,6838.174c-.5.35-1.09-.4-1.489-1.283-.317-1.058-.762-1.706-.406-1.9l5.421-2.742c.5-.284,1.612,2,1.229,2.123Z" fill="#ba3e16"/>
        </g>
        <path id="Trazado_2726" data-name="Trazado 2726" d="M1942.139,6857.373l1.089,3.7-.4.828a2.333,2.333,0,0,0-.665-.018,1.989,1.989,0,0,0-.214.032,5.9,5.9,0,0,0-1.876.84,15.62,15.62,0,0,0-1.73,1.786c-.144.141-.285.283-.412.417a6,6,0,0,1-1.946,1.668c-.5.251-1.074-.109-1.848-.4a.278.278,0,0,1-.208-.265,10.074,10.074,0,0,1,1.239-4.451l.662-1.147.785-1.357.913-1.577c.028-.047.052-.093.08-.137l.281-.558.084-.155.587-1.129a3.473,3.473,0,0,1,.427-.629l.577-.663a.245.245,0,0,1,.178-.088,9.236,9.236,0,0,1,1.62.98c.77.522,1.555,1.089,1.707,1.241l.022.021c.087.077.293.421.634.781.233.247-2.11.024-1.749.209A1.557,1.557,0,0,0,1942.139,6857.373Z" fill="#3c3c3b"/>
        <path id="Trazado_2727" data-name="Trazado 2727" d="M1962.627,6864.113a4.481,4.481,0,0,1-.342.548.2.2,0,0,0-.025.033,3.785,3.785,0,0,1-.555.609c-.029.027-.055.053-.084.079a4.171,4.171,0,0,1-2.017.948c-2.157.438-3.489-.8-3.995-2.87-.04-.155-.072-.313-.1-.475-.058-.176-.722-2.455-1.473-5.8v0c-.59-2.649-1.233-5.969-1.665-9.45-.084-.67-.161-1.347-.226-2.028-.053-.545-.1-1.093-.139-1.642,0-.258,0-.5.007-.734v0a8.059,8.059,0,0,1,.089-.974,5.588,5.588,0,0,1,.3-1.2,3.711,3.711,0,0,1,.372-.735,2.639,2.639,0,0,1,1.033-.934c2.92-1.467,8.386,2.606,8.386,2.606.055,1.153.1,2.181.143,3.1.01.154.016.305.021.453.032.611.055,1.175.081,1.695.277,6.112.261,6.274.544,12.634.018.446.04.924.063,1.437A4.387,4.387,0,0,1,1962.627,6864.113Z" fill="#00475e"/>
        <path id="Trazado_2728" data-name="Trazado 2728" d="M1962.285,6864.661a.2.2,0,0,0-.025.033c-.08.09-.312.362-.555.609-.029.027-.055.053-.084.079a2.8,2.8,0,0,1-.3.266,4.232,4.232,0,0,1-3,.787c-10.547-1.862-13.426-1.571-16.228-2.082l-.188-2.2-.108-1.282-.5-5.792v0a105.51,105.51,0,0,1,12.744,2.1v0c3.643.808,6.706,1.7,7.551,2.5.023.022.166.953.318,2C1962.1,6863.052,1962.31,6864.623,1962.285,6864.661Z" fill="#00475e"/>
        <path id="Trazado_2729" data-name="Trazado 2729" d="M1965.707,6816.419a4.733,4.733,0,0,0,2.673.872l2.2-7.311c-.472-.126-2.958-1.309-4.8-2.219l-2.047,4.639-.288.645a.274.274,0,0,0-.082.043C1962.831,6813.4,1964.608,6815.714,1965.707,6816.419Z" fill="#f2bf89"/>
        <g id="Grupo_2829" data-name="Grupo 2829">
          <path id="Trazado_2730" data-name="Trazado 2730" d="M1975,6807.937a7.912,7.912,0,0,1-.212,1.115,6.39,6.39,0,0,1-.448.569l.042.321.188,1.435a.608.608,0,0,1-.648.654h-.127l-.436-.006c-.012.03-.024.078-.042.139-.049.2-.133.539-.212.89v.006c-.1.412-.194.854-.261,1.126-.036.17-.06.279-.06.279a3.079,3.079,0,0,1-.817,1.283,1.471,1.471,0,0,1-1.466.37l-1.156-.382a.93.93,0,0,0-.134-.06,4.535,4.535,0,0,1-2.143-5.032,1.748,1.748,0,0,1,.048-.169.515.515,0,0,1-.078-.031.009.009,0,0,0-.012,0,1.656,1.656,0,0,0-.309-.078c-.878-.128-2.126.133-1.974-.63.182-.957-.436-2.622-.176-3.875.878-2.683,2.126-3.718,3.409-4,.091-.018.17-.036.261-.048a8.073,8.073,0,0,1,3.39.533,4.816,4.816,0,0,1,3.313,3.7v.006A6.39,6.39,0,0,1,1975,6807.937Z" fill="#ffc990"/>
          <path id="Trazado_2731" data-name="Trazado 2731" d="M1964.489,6811.026c3.445,1.873,2.6-2.938,2.6-2.938s.869.261,1.059.719c.451.178.739.252,1.111.4,1.564-4.567.885-5.719,5.676-3.154,1.3-.755,1.753-2.849-3.666-4.512-2.716-.834-5.551.053-6.58,2.7C1964.094,6805.78,1963.677,6806.617,1964.489,6811.026Z" fill="#b17f4a"/>
          <path id="Trazado_2732" data-name="Trazado 2732" d="M1966.365,6808.265c-.246.855.191,2.049.75,2.209s.7-.549.951-1.4c.168-.564.542-1.326-.019-1.681C1967.556,6807.082,1966.726,6807.012,1966.365,6808.265Z" fill="#ffc990"/>
        </g>
        <path id="Trazado_2733" data-name="Trazado 2733" d="M1969.632,6825c-.006.012-.006.036-.012.048v.006c-.036.6-.115,1.387-.254,2.307-.164,1.15-.412,2.513-.745,3.972a47.073,47.073,0,0,1-2.373,7.648c-.037.091-.073.175-.115.26-1.684,3.942-4.015,7.2-7.043,7.623a11.373,11.373,0,0,1-4.722-.563l-1.236-.4c-1.459-2.665-2.361-6.025-.866-8.344.085-.3.176-.642.273-1.005,1.465-5.468,4.414-17.294,6.576-19.982a.643.643,0,0,0,.06-.073,11.9,11.9,0,0,1,3.385-3.009c.218-.121.678-.345.83-.418a.239.239,0,0,1,.036-.012.018.018,0,0,1,.012-.006,13.643,13.643,0,0,0,2.731,2.906,6.348,6.348,0,0,0,2.2,1.338c.006,0,.006,0,.006-.006s.163.364.381.981A16.159,16.159,0,0,1,1969.632,6825Z" fill="#e94e1b"/>
        <path id="Trazado_2734" data-name="Trazado 2734" d="M1970.861,6813.975a.819.819,0,0,0,.542.676.8.8,0,0,0,.832-.158c.082-.118.075-.37.216-.4a1.355,1.355,0,0,1,.393.092c.062-.275.162-.712.257-1.127v0a2.538,2.538,0,0,0-.252-.047,3.765,3.765,0,0,0-.917-.056,1.466,1.466,0,0,0-.844.334A.742.742,0,0,0,1970.861,6813.975Z" fill="#fdda99"/>
        <path id="Trazado_2735" data-name="Trazado 2735" d="M1980.54,6866.446a10.369,10.369,0,0,1-4.613,1.169l-1.364-.009-3.5-.014c-.055,0-.11,0-.166,0l-.173.006-.468.022-.184.01-1.308.049a3.283,3.283,0,0,1-.779-.062l-.891-.174a.248.248,0,0,1-.168-.116,11.8,11.8,0,0,1,.076-2.327,16.722,16.722,0,0,1,.209-1.784l.007-.034c.028-.114.225-.475.376-.964a3.5,3.5,0,0,0,.156-1.149c0-.062-.009-.121-.014-.184l1.308-.093,3.307-.231a2.672,2.672,0,0,0,.322.607,5.489,5.489,0,0,0,1.854,1.425,1.382,1.382,0,0,0,.256.114h0c.523.188,1.372.289,2.22.516.2.06.4.112.589.157a6.17,6.17,0,0,1,2.483.888c.481.317.454,1.018.592,1.857A.286.286,0,0,1,1980.54,6866.446Z" fill="#3c3c3b"/>
        <path id="Trazado_2736" data-name="Trazado 2736" d="M1976.7,6842.894c-.024.369-1.5,10.349-1.914,19.812h0l-5.153,1.527-2.628.777V6865a58.605,58.605,0,0,1,.233-18.022c.121-.805.247-1.537.366-2.18.334-1.794.609-2.907.636-3.015a4.075,4.075,0,0,1,.809-1.678,4.193,4.193,0,0,1,2.991-1.594,4.1,4.1,0,0,1,.734,0l.081.01a4.224,4.224,0,0,1,2.817,1.443,4.1,4.1,0,0,1,.8,1.393c.023.069.047.139.066.212A4.186,4.186,0,0,1,1976.7,6842.894Z" fill="#006080"/>
        <path id="Trazado_2737" data-name="Trazado 2737" d="M1972.434,6846.6h-.03l-2.677.194c-.738.06-1.586.121-2.488.187-1.532.115-3.221.243-4.8.358-3.142.23-5.849.423-5.958.411a5.615,5.615,0,0,1-4.335-2.04,6.892,6.892,0,0,1-1.018-4.863v-.006a11.572,11.572,0,0,1,.206-1.247,6.712,6.712,0,0,1,1.2-3.04l.006-.006.024.006,6.292,1.678c3.36-.1,5.885-.188,7.793-.249,6.587-.218,5.746-.205,6.23-.133a4.34,4.34,0,0,1,3.567,3.3,2.7,2.7,0,0,1,.09.424A4.393,4.393,0,0,1,1972.434,6846.6Z" fill="#006080"/>
        <path id="Trazado_2738" data-name="Trazado 2738" d="M1969.048,6860.791a49.5,49.5,0,0,1,.4-12.185s.8-4.631.8-4.638l-.016.005-.14-.175-3.092,1.14a29.342,29.342,0,0,1-4.643.7c-.195.014-.39.028-.589.035h0a37.03,37.03,0,0,1-6.426-.243,5.233,5.233,0,0,1-3.235-3.081,8.638,8.638,0,0,1-.58-2.476l-.192-.282-.2,1.246v0a6.873,6.873,0,0,0,1.017,4.862c.065.681.142,1.358.226,2.028,3.353,2.564,6.074,6.755,8.2,11.339.416.905.8,1.824,1.175,2.747-1.317,1.134-3.45,1.63-6.134,1.642-4.115.025-6.782-.573-12.4-2.173-.474-.133-.948-.27-1.426-.414-1.792-.53-3.6-1.111-5.39-1.714l-.809,1.4-.682,1.183a10.363,10.363,0,0,0-1.277,4.587.287.287,0,0,0,.214.274c.8.3,1.393.668,1.905.41a6.209,6.209,0,0,0,2.006-1.719c.131-.139.276-.285.425-.431a16.088,16.088,0,0,1,1.782-1.84,6.084,6.084,0,0,1,1.934-.866l.188,2.2c2.8.511,5.681.22,16.228,2.082a4.232,4.232,0,0,0,3-.787,2.8,2.8,0,0,0,.3-.266c.029-.026.055-.052.084-.079a3.785,3.785,0,0,0,.555-.609.2.2,0,0,1,.025-.033,4.481,4.481,0,0,0,.342-.548,4.387,4.387,0,0,0,.417-2.708c-.023-.513-.045-.991-.063-1.437v0c-.282-6.362-.265-6.524-.543-12.638,1.58-.116,3.27-.241,4.8-.357a58.605,58.605,0,0,0-.233,18.022,11.8,11.8,0,0,0-.076,2.327.248.248,0,0,0,.168.116l.891.174a3.283,3.283,0,0,0,.779.062l1.308-.049.184-.01.468-.022a20.32,20.32,0,0,1-1.094-3.364A27.1,27.1,0,0,1,1969.048,6860.791Z" fill="#1d1d1b" opacity="0.1"/>
        <path id="Trazado_2739" data-name="Trazado 2739" d="M1964,6813.819c1.862-.01,2.308-1.711,2.916-3.235l3.762,4.111-1.152,6.715C1968.268,6818.347,1965.572,6815.648,1964,6813.819Z" fill="#1d1d1b" opacity="0.1"/>
        <path id="Trazado_2740" data-name="Trazado 2740" d="M1973.937,6810.668l-.084.909-.061.454-.436-.006c-.012.03-.024.078-.042.139-.049.2-.133.539-.212.89v.006c-.1.412-.194.854-.261,1.126-.036.17-.06.279-.06.279a3.079,3.079,0,0,1-.817,1.283h-2.053l.006-1.338a2.254,2.254,0,0,1-.309-.514,6.451,6.451,0,0,0-1.768-1.811c-.708-.5-.684-.957-.357-1.12l-.418-.321-.079-.06-.272-.218-.339-.261a.48.48,0,0,1-.085-.672l.073-.091.769-1,.151-.188.642-.829.036-.049a.488.488,0,0,1,.678-.084l.957.744a.608.608,0,0,1,.115-.127.53.53,0,0,1,.375-.139h.013a.577.577,0,0,1,.563.593.825.825,0,0,1,.738-.042.738.738,0,0,1,.515.775.645.645,0,0,1,.775-.018.823.823,0,0,1,.363.89.757.757,0,0,1,.418.018A.879.879,0,0,1,1973.937,6810.668Z" fill="#1d1d1b" opacity="0.1"/>
        <path id="Trazado_2741" data-name="Trazado 2741" d="M1972.882,6837.846c-.036.079-5.3,1.054-6.5,1.326a3.022,3.022,0,0,1-.624.085l-6.261.254a6.484,6.484,0,0,1-3.657-.95l-3.3-2.011h.03l6.328.055c5.292.333,5.91-1.078,6.539-2.731a6.526,6.526,0,0,0-1.089-6.878l-4.584-5.765,9.6,6.134c-.163,1.15-.412,2.513-.745,3.972a49.765,49.765,0,0,1-1.967,6.642C1973.239,6837.761,1972.4,6837.774,1972.882,6837.846Z" fill="#1d1d1b" opacity="0.1"/>
        <g id="Grupo_2831" data-name="Grupo 2831">
          <path id="Trazado_2742" data-name="Trazado 2742" d="M1974.589,6812.7l-1.668,2.151a.551.551,0,0,1-.772.011l-5.894-4.572a.553.553,0,0,1-.181-.751l1.668-2.15a.551.551,0,0,1,.772-.011l5.894,4.572A.551.551,0,0,1,1974.589,6812.7Z" fill="#3c3c3b"/>
          <g id="Grupo_2830" data-name="Grupo 2830">
            <path id="Trazado_2743" data-name="Trazado 2743" d="M1970.024,6814.54c-.219-.029-.291-.328-.506-.344a6.3,6.3,0,0,0-1.895-2c-1.259-.884-.221-1.618.74-.9a15,15,0,0,1,2.858,3.289A9.589,9.589,0,0,1,1970.024,6814.54Z" fill="#ffc990"/>
            <path id="Trazado_2744" data-name="Trazado 2744" d="M1969.822,6812.521h-.012a.578.578,0,0,1-.562-.594l.027-3.587a.579.579,0,0,1,.594-.562h.012a.579.579,0,0,1,.562.6l-.027,3.586A.579.579,0,0,1,1969.822,6812.521Z" fill="#ffc990"/>
            <path id="Trazado_2745" data-name="Trazado 2745" d="M1970.367,6813.84l-.011,0a.579.579,0,0,1-.469-.671l.656-4.264a.578.578,0,0,1,.671-.468l.011,0a.579.579,0,0,1,.469.67l-.656,4.264A.578.578,0,0,1,1970.367,6813.84Z" fill="#ffc990"/>
            <path id="Trazado_2746" data-name="Trazado 2746" d="M1971.046,6813.99l-.011,0a.578.578,0,0,1-.39-.719l1.106-3.792a.579.579,0,0,1,.719-.391l.011,0a.578.578,0,0,1,.39.719l-1.023,3.8A.664.664,0,0,1,1971.046,6813.99Z" fill="#ffc990"/>
            <path id="Trazado_2747" data-name="Trazado 2747" d="M1969.23,6811.533l-.016,1.478a2.151,2.151,0,0,0,1.879,2.285,2.382,2.382,0,0,0,2.308-1.8l.231-1.811h0l.086-.905a.586.586,0,0,0-.567-.679h-.01c-.284-.008-.516.449-.524.733l.005-.189a.578.578,0,0,0-.562-.594h-.011a.579.579,0,0,0-.595.562l.005-.174a.578.578,0,0,0-.562-.594h-.012a.525.525,0,0,0-.526.565c.009-.319-.088-.6-.59-.6C1969.21,6809.806,1969.23,6811.533,1969.23,6811.533Z" fill="#ffc990"/>
          </g>
          <path id="Trazado_2748" data-name="Trazado 2748" d="M1969.642,6825.953c-.659,5.206,5.74,5.45,5.336.2l-2.182-11.91-3.094.052Z" fill="#ffc990"/>
          <path id="Trazado_2749" data-name="Trazado 2749" d="M1960.387,6822.025l4.281,3.925,4.652,3.989.588-7.271-5.533-5.671C1961.613,6814.3,1957.145,6818.693,1960.387,6822.025Z" fill="#e94e1b"/>
          <path id="Trazado_2750" data-name="Trazado 2750" d="M1973.1,6829.785c.318.8-3.683.931-4.387-.33a17.845,17.845,0,0,1-.022-8.033s1.029-.218.93.174C1970.615,6824.63,1971.481,6827.784,1973.1,6829.785Z" fill="#ba3e16"/>
        </g>
      </g>
      <path id="Trazado_2751" data-name="Trazado 2751" d="M1915.858,6868.3a1.679,1.679,0,0,0,1.5,1.815h110.4a1.679,1.679,0,0,0,1.5-1.815h0a1.679,1.679,0,0,0-1.5-1.815h-110.4a1.68,1.68,0,0,0-1.5,1.815Z" fill="#131313" opacity="0.1"/>
      <g id="Grupo_2835" data-name="Grupo 2835">
        <g id="Grupo_2833" data-name="Grupo 2833">
          <path id="Trazado_2752" data-name="Trazado 2752" d="M2023.751,6867.757c.038-.382-.4-.477-.661-.458-.465.034-1.25-.036-2.115-.085-.2.031-.373.015-.57.037a3.84,3.84,0,0,0-.551.089c-.164.127-.277.236-.468.41a10.554,10.554,0,0,0,3.341.408C2023.006,6868.117,2023.717,6868.1,2023.751,6867.757Z" fill="#ffc990"/>
          <path id="Trazado_2753" data-name="Trazado 2753" d="M2027.414,6868.037v.006a.293.293,0,0,1-.254.284.144.144,0,0,1-.049.006l-4.184-.03-3.784-.012h-.1v-.006l.054-.757.037-.478.072-.963c0,.024.067.036.176.024a6.819,6.819,0,0,0,.787-.121c.805-.157,1.9-.406,2.374-.454a.658.658,0,0,1,.115-.006.959.959,0,0,1,.345.067l.769.3.327.127,1.053.418a1.111,1.111,0,0,1,.2.1l1.223.793.424.273.279.182A.285.285,0,0,1,2027.414,6868.037Z" fill="#ffc990"/>
          <path id="Trazado_2754" data-name="Trazado 2754" d="M2019.385,6866.111l-.157,1.417-.085.757v.006l-.006.012s-3.367.018-6.9.03c-3.706.013-7.593.013-7.969-.024a.006.006,0,0,0-.006-.006c0-.006,0-.006-.006-.012a.734.734,0,0,1-.072-.157,1.067,1.067,0,0,1,.06-.866l.006-.012c.024-.049.049-.1.079-.146a1.524,1.524,0,0,1,.085-.133,3.7,3.7,0,0,1,.515-.587,5.507,5.507,0,0,1,.526-.43h.006a8.418,8.418,0,0,1,1.1-.678c1.514-.794,3.355-1.272,4.4-.915l1.429.3.533.109.17.036.206.043.793.163.545.115.757.152,1.041.218,1.126.23Z" fill="#ffc990"/>
        </g>
        <path id="Trazado_2755" data-name="Trazado 2755" d="M2006.555,6867.253h-5.663l.853-6.91,4.81.687Z" fill="#e6b582"/>
        <path id="Trazado_2756" data-name="Trazado 2756" d="M2004.626,6866.148c.11.1.232.19.369.291.283.212.625.443,1.034.717a6.477,6.477,0,0,0,2.238.8.365.365,0,0,0-.022.078.469.469,0,0,0,.033.262v0h2.98a.237.237,0,0,0-.019-.069l2.1-.02a3.141,3.141,0,0,0,3.081-2.7,2.979,2.979,0,0,0,.032-.474l-.026-3a3.148,3.148,0,0,0-3.175-3.113l-2.1.021a.488.488,0,0,0,.025-.266c-.078-.46-.824-.531-1.657-.388-.675.116-1.2.274-1.331.644a.468.468,0,0,0-.029.263.748.748,0,0,0,.025.077,6.53,6.53,0,0,0-2.224.842c-.4.284-.742.522-1.023.737-.134.1-.252.2-.361.295a2.689,2.689,0,0,0-.937,2.488.106.106,0,0,1,0,.018v0l0,.007a.048.048,0,0,1,0,.017,3.262,3.262,0,0,0,.384,1.811A2.921,2.921,0,0,0,2004.626,6866.148Z" fill="#f2bf89"/>
        <path id="Trazado_2757" data-name="Trazado 2757" d="M2014.226,6861.173c-.033.138-.062.27-.09.392a9.6,9.6,0,0,0-.225,1.759c-.005.077-.006.156-.01.239.015.216.031.409.05.592a8.555,8.555,0,0,0,.175,1.064c.026.111.052.229.085.348s.064.241.1.371a2.727,2.727,0,0,1,.073.333,1.022,1.022,0,0,1-.073.661c-.275.506-1.217.791-3.809.375l0,.433a1.239,1.239,0,0,1,.737.49.17.17,0,0,1,.019.069h2.348c1.826,0,2.074-.176,2.235-.3a5.347,5.347,0,0,0,2-3.256h0a5.571,5.571,0,0,0-2.159-5.687,3.826,3.826,0,0,0-3.209-.384,10.958,10.958,0,0,0-1.322.271c.03.16-.191.369-.725.562l0,.42C2014.416,6859.155,2014.457,6860.222,2014.226,6861.173Z" fill="#61483e"/>
        <path id="Trazado_2758" data-name="Trazado 2758" d="M2016.006,6863.134a2.878,2.878,0,0,1-1.235,1.891,17.779,17.779,0,0,0-2.091,1.354,10.738,10.738,0,0,1,1.618-4.074,1.256,1.256,0,0,1,.921-.661.951.951,0,0,1,.863.839,2.6,2.6,0,0,1-.213,1.281Z" fill="#61483e"/>
        <path id="Trazado_2759" data-name="Trazado 2759" d="M2015.861,6861.64a2.373,2.373,0,0,1-.831,1.552,12.954,12.954,0,0,1-1.463,1.056,3.7,3.7,0,0,0-1.244,1.284,5.275,5.275,0,0,1,1.226-3.507,3.03,3.03,0,0,0,.927-1.478,2.885,2.885,0,0,1,.04-.394.363.363,0,0,1,.253-.279c.217-.04.371.2.458.4l.812,1.872Z" fill="#61483e"/>
        <path id="Trazado_2760" data-name="Trazado 2760" d="M1930.115,6860.274a3.679,3.679,0,0,1-.224.824,7.87,7.87,0,0,1-2.737,3.475,3.725,3.725,0,0,1-.508.309,2.744,2.744,0,0,1-.418.212,7.622,7.622,0,0,0-1.175.654c-1.3.872-2.452,2.071-3.021,2.307a1.7,1.7,0,0,1-.884.085,3.272,3.272,0,0,1-1.169-.467c-.188-.115-.309-.205-.309-.205l1.139-2.132,2.525-4.717,1.417-.829-.539-.678.345-.618.69-1.229,1.423.672c.036.018.067.03.1.048.551.261,1.029.509,1.435.751.345.194.636.382.884.551a7.156,7.156,0,0,1,.624.472C1929.994,6860.008,1930.127,6860.189,1930.115,6860.274Z" fill="#2e2e2d"/>
        <path id="Trazado_2761" data-name="Trazado 2761" d="M1947.431,6867.094l.529-8.247c.175-.014,17.8-1.227,18.367-1.146l1.929,8.411c-1.762.3-3.378.2-4.906.37A156.514,156.514,0,0,1,1947.431,6867.094Z" fill="#4f5050"/>
        <path id="Trazado_2762" data-name="Trazado 2762" d="M1925.6,6864.436c-.628-2.071.939-6.461.939-6.461l.079,0c9.724.237,15.072.525,21.346.87l.833,1.9-1.362,6.345C1941.181,6865.754,1925.923,6864.463,1925.6,6864.436Z" fill="#4f5050"/>
        <path id="Trazado_2763" data-name="Trazado 2763" d="M2015.332,6864.383a1.569,1.569,0,0,1-.388,1.663,2.563,2.563,0,0,1-1.638.679,7.56,7.56,0,0,1-1.8-.151,4.319,4.319,0,0,0,1.665-1.531,6.089,6.089,0,0,1,.553-.85,1.067,1.067,0,0,1,.887-.407A.957.957,0,0,1,2015.332,6864.383Z" fill="#61483e"/>
        <path id="Trazado_2764" data-name="Trazado 2764" d="M1973.015,6868.073c-.4.018-.823.024-1.253.018h-.012c-.448-.006-.9-.03-1.369-.06-.09-.006-.187-.012-.284-.025a73.258,73.258,0,0,1-7.3-1.089h-.007c-.49-.091-.944-.176-1.35-.249l-.115-.018v-7.762a5.484,5.484,0,0,1,.763-.576,5.775,5.775,0,0,1,.793-.448,11.334,11.334,0,0,1,8.774-.163c.151,1.059.388,2.155.63,3.239.109.5.218.987.327,1.478a27.622,27.622,0,0,1,.514,3.076A8.156,8.156,0,0,1,1973.015,6868.073Z" fill="#565858"/>
        <path id="Trazado_2765" data-name="Trazado 2765" d="M1928.172,6861.945c-.152.194-.194.5-.358.769-.557.945-.7,1.423-1.465,1.787a3.647,3.647,0,0,1-.43.169c-.2.067-.436.133-.714.2a1.46,1.46,0,0,0-.158.042,29.589,29.589,0,0,0-5.068,2.761,5.459,5.459,0,0,1-1.09.564,1.619,1.619,0,0,1-.884-.061c-.757-.26-.672-.394-.672-.394a19.168,19.168,0,0,1,.969-2.022,31.139,31.139,0,0,1,2.131-3.348,9.151,9.151,0,0,1,2.138-1.69l-.315-.623,1.635-1.944c.218.1.442.212.666.339a13.206,13.206,0,0,1,1.308.878c.066.048.127.1.193.145C1927.354,6860.522,1928.4,6861.667,1928.172,6861.945Z" fill="#3c3c3b"/>
        <path id="Trazado_2766" data-name="Trazado 2766" d="M2001.747,6865.542a5.274,5.274,0,0,1-.806,1.326.47.47,0,0,1-.072.085c0,.006-.006.012-.019.018v.006a2.057,2.057,0,0,1-1.071.715,59.63,59.63,0,0,1-6.976.454c-1.1.03-2.264.054-3.463.066-.121.006-.242.006-.364.006-7.992.109-17.172-.048-17.22-.084a.108.108,0,0,0-.006-.043,17.854,17.854,0,0,1-.049-2.561,28.15,28.15,0,0,1,.588-4.59,18.487,18.487,0,0,1,.95-3.239c4.148,0,10.185-2.011,14.266-2.041.472-.006.951-.012,1.417-.012,7.218,0,10.82,1.817,12.377,4.045a5.467,5.467,0,0,1,.435.739A6.047,6.047,0,0,1,2001.747,6865.542Z" fill="#006080"/>
        <path id="Trazado_2767" data-name="Trazado 2767" d="M1967.7,6866.547c-1.762.3-3.373.194-4.9.37h-.007a158,158,0,0,1-15.918.611l.036-.545.145-2.271.333-5.255.012-.176c.019,0,.206-.018.533-.036l.194-.018c2.313-.158,9.622-.66,13.963-.915,1.859-.115,3.173-.181,3.324-.157l2.071,7.623.121.43Z" fill="#565858"/>
        <path id="Trazado_2768" data-name="Trazado 2768" d="M1948.238,6861.182l-.611,2.834-.176.83-.46,2.155-.115.527c-6.3-1.059-21.3-.581-21.623-.593a4.277,4.277,0,0,1-.2-1.187c-.012-.26-.018-.545-.006-.836,0-.181.012-.369.024-.551a35.271,35.271,0,0,1,.794-4.989.1.1,0,0,0,.006-.024l.078-.006a1.535,1.535,0,0,0,.164-.006c1.041-.019,2.028-.037,2.973-.049,7.811-.115,12.661-.03,18.238.03l.066.14.467.95Z" fill="#565858"/>
        <path id="Trazado_2769" data-name="Trazado 2769" d="M1973.839,6857.7a.421.421,0,0,1-.018.048c-.115.327-.224.654-.327.987-.037.115-.073.236-.1.351-.17.563-.315,1.139-.448,1.726-.121.527-.23,1.06-.327,1.6-.194,1.011-.358,2.046-.509,3.1-.115.793-.218,1.592-.327,2.4-.006.06-.012.115-.018.175a.108.108,0,0,0-.006.043l-1.375-.1-.278-.018-.006-.007c-.031-.012-.055-.078-.067-.205a13.667,13.667,0,0,1,.133-2.071c.17-1.55.473-3.6.775-5.238.115-.636.224-1.211.333-1.671.061-.273.122-.5.176-.684.085-.279.158-.436.212-.436Z" fill="#00475e"/>
        <path id="Trazado_2770" data-name="Trazado 2770" d="M2002.33,6867.517l-1.381-.1a13.068,13.068,0,0,1,.358-7.745l2.587.977C2002.4,6862.041,2002.04,6865.019,2002.33,6867.517Z" fill="#006080"/>
        <path id="Trazado_2771" data-name="Trazado 2771" d="M2000.554,6863.241a8.434,8.434,0,0,1-1.787,1.684c-.363.26-.708.484-1.005.665-.587.364-1.235.721-1.865,1.048-1.314.7-2.567,1.272-3.094,1.508-.169.072-.26.115-.26.115l-2.622.06-.672.018a.774.774,0,0,1-.273-.121c-1.017-.6-.968-3.063,1.151-4.638,1.241-.92,2.888-2.41,4.572-3.469l.012-.012c2.337-1.466,4.741-2.108,6.212.756.012.019.018.037.03.055A2.166,2.166,0,0,1,2000.554,6863.241Z" fill="#00475e"/>
        <g id="Grupo_2834" data-name="Grupo 2834">
          <path id="Trazado_2772" data-name="Trazado 2772" d="M2009.647,6865.588c-.05-.38-.494-.374-.747-.295-.446.138-1.226.249-2.079.4-.185.074-.361.1-.548.165a3.816,3.816,0,0,0-.515.212c-.131.161-.216.293-.363.505a10.527,10.527,0,0,0,3.346-.361C2009,6866.108,2009.692,6865.928,2009.647,6865.588Z" fill="#ffc990"/>
          <path id="Trazado_2773" data-name="Trazado 2773" d="M2012.533,6868.038v0a.29.29,0,0,1-.254.286.379.379,0,0,1-.048,0l-4.184-.026-3.878-.013v0l.091-1.236.07-.967c0,.029.064.036.177.03a7.654,7.654,0,0,0,.787-.125c.807-.155,1.9-.4,2.373-.453a.784.784,0,0,1,.112-.007.966.966,0,0,1,.347.068l.771.3.325.128,1.051.413a.98.98,0,0,1,.2.106l1.227.793.7.452A.287.287,0,0,1,2012.533,6868.038Z" fill="#ffc990"/>
          <path id="Trazado_2774" data-name="Trazado 2774" d="M2004.508,6866.111l-.1.866-.012.139-.019.14-.115,1.029v.006l-.006.012s-11.619.067-14.338.018c-.278,0-.466-.006-.533-.012a.474.474,0,0,1-.048-.1c-.46-.914.714-2.064,2.264-2.894,1.526-.811,3.415-1.308,4.469-.951l2.694.558,1.841.381.515.1.624.133.5.1Z" fill="#ffc990"/>
        </g>
      </g>
      <path id="Trazado_2775" data-name="Trazado 2775" d="M2027.414,6868.037v.006a.293.293,0,0,1-.254.284.144.144,0,0,1-.049.006l-4.184-.03-3.784-.012-.006.012s-3.367.018-6.9.03c-3.706.013-7.593.013-7.969-.024a.006.006,0,0,0-.006-.006s-11.619.067-14.338.018l-.672.018a.774.774,0,0,1-.273-.121c-7.992.109-17.172-.048-17.22-.084l-1.375-.1-.278-.018-.006-.007a73.258,73.258,0,0,1-7.3-1.089h-.007a158,158,0,0,1-15.918.611c-6.3-1.059-21.3-.581-21.623-.593a4.277,4.277,0,0,1-.2-1.187c-1.3.872-2.452,2.071-3.021,2.307a1.7,1.7,0,0,1-.884.085,3.272,3.272,0,0,1-1.169-.467,5.459,5.459,0,0,1-1.09.564,1.619,1.619,0,0,1-.884-.061c-.757-.26-.672-.394-.672-.394a19.168,19.168,0,0,1,.969-2.022c.823-.109,1.659-.254,2.507-.424,1.4-.278,2.827-.624,4.256-.975h.006a7.7,7.7,0,0,0,.848.309c.23.079.472.151.727.212a38.368,38.368,0,0,0,10.972.763,47.025,47.025,0,0,0,8.689-1.223c.248.1.5.2.75.29.133.043.267.091.394.134.042.012.085.024.121.036.109.03.212.061.315.091,4.123,1.175,9.107.7,13.442-.351.515-.121,1.011-.249,1.5-.388a8.868,8.868,0,0,0,4.656,1.544c.23.018.466.03.7.03a18.322,18.322,0,0,0,1.974-.078c.491-.049,1-.115,1.514-.2h.024c.14,0,.273-.006.406-.012.345,0,.684-.006,1.023-.024a51.577,51.577,0,0,0,21.569-5.383l.012-.012c.012,0,.018-.006.03-.012-1.877,1.919-3.385,3.766-3.137,5.231a1.742,1.742,0,0,0,.212.6c-.048.273,1.526.515,4.081.721,1.393.115,3.076.224,4.947.315h.025a.189.189,0,0,0,.06.006c.442.024.89.042,1.356.067.636.03,1.3.06,1.968.084h.073a.28.28,0,0,0,.073.006c.545.025,1.1.043,1.665.067h.006l.484.018c1.29.043,2.616.085,3.948.127h.133c.364.012.727.024,1.1.031.612.018,1.229.036,1.841.048s1.2.03,1.792.042c.358.013.715.019,1.066.031.908.018,1.8.03,2.67.048h.128c.133.006.266.006.393.012,1.441.018,2.822.043,4.1.049,1.187.018,2.289.024,3.276.024l.279.182A.285.285,0,0,1,2027.414,6868.037Z" fill="#1d1d1b" opacity="0.1"/>
      <path id="Trazado_2776" data-name="Trazado 2776" d="M1981.654,6815.406a3.516,3.516,0,1,1-2.953-3.865A3.442,3.442,0,0,1,1981.654,6815.406Z" fill="#fff" stroke="#93001c" stroke-miterlimit="10" stroke-width="1"/>
      <path id="Trazado_2777" data-name="Trazado 2777" d="M1995.669,6811.768a5.059,5.059,0,1,1-4.25-5.562A4.95,4.95,0,0,1,1995.669,6811.768Z" fill="#fff" stroke="#93001c" stroke-miterlimit="10" stroke-width="1"/>
      <path id="Trazado_2778" data-name="Trazado 2778" d="M2023.035,6797.987c-1.2,7.692-9.162,12.839-17.791,11.5s-14.653-8.667-13.456-16.359,9.162-12.839,17.791-11.5S2024.232,6790.295,2023.035,6797.987Z" fill="#fff" stroke="#93001c" stroke-miterlimit="10" stroke-width="1"/>
      <g id="Grupo_2836" data-name="Grupo 2836">
        <path id="Trazado_2779" data-name="Trazado 2779" d="M1999.448,6801.045h-2.319V6794.7l.023-1.043.037-1.141q-.578.577-.8.758l-1.261,1.013-1.118-1.4,3.535-2.814h1.906Z" fill="#e94e1b"/>
        <path id="Trazado_2780" data-name="Trazado 2780" d="M2010.156,6801.045h-7.669v-1.613l2.754-2.784q1.224-1.252,1.6-1.737a3.812,3.812,0,0,0,.541-.9,2.284,2.284,0,0,0,.165-.855,1.245,1.245,0,0,0-.364-.983,1.41,1.41,0,0,0-.972-.323,2.785,2.785,0,0,0-1.238.293,6.348,6.348,0,0,0-1.253.833l-1.261-1.494a8.242,8.242,0,0,1,1.343-.975,4.914,4.914,0,0,1,1.163-.439,5.944,5.944,0,0,1,1.411-.154,4.176,4.176,0,0,1,1.816.375,2.888,2.888,0,0,1,1.223,1.051,2.783,2.783,0,0,1,.436,1.545,3.77,3.77,0,0,1-.267,1.422,5.448,5.448,0,0,1-.825,1.362,20.121,20.121,0,0,1-1.97,1.989l-1.411,1.328v.105h4.78Z" fill="#e94e1b"/>
        <path id="Trazado_2781" data-name="Trazado 2781" d="M2018.5,6792.528a2.585,2.585,0,0,1-.623,1.749,3.23,3.23,0,0,1-1.748.99v.045a3.493,3.493,0,0,1,2.011.807,2.261,2.261,0,0,1,.683,1.73,2.931,2.931,0,0,1-1.149,2.465,5.29,5.29,0,0,1-3.279.882,7.968,7.968,0,0,1-3.167-.593v-1.974a7.13,7.13,0,0,0,1.4.525,5.892,5.892,0,0,0,1.516.2,2.944,2.944,0,0,0,1.695-.39,1.43,1.43,0,0,0,.548-1.253,1.131,1.131,0,0,0-.63-1.1,4.659,4.659,0,0,0-2.011-.323h-.833v-1.778h.848a3.946,3.946,0,0,0,1.865-.334,1.207,1.207,0,0,0,.589-1.144q0-1.247-1.561-1.246a3.577,3.577,0,0,0-1.1.18,5.349,5.349,0,0,0-1.241.623l-1.074-1.6a5.965,5.965,0,0,1,3.58-1.08,4.623,4.623,0,0,1,2.69.69A2.214,2.214,0,0,1,2018.5,6792.528Z" fill="#e94e1b"/>
      </g>
    </g>
    <path id="Trazado_2782" data-name="Trazado 2782" d="M1974.073,6845.485s25.657,5.673,47.154-1.411c22.923-7.554,28.029-12.281,28.029-12.281v5.958s-25.534,13.517-36.973,14.681c-24.935,2.538-37.743,1.44-37.743,1.44Z" fill="#e6b54a"/>
    <path id="Trazado_2783" data-name="Trazado 2783" d="M1969,6856.3l-43.634,26.029,3.37,6.081,39.415-22.19Z" fill="#e6b54a"/>
    <path id="Trazado_2784" data-name="Trazado 2784" d="M1925.52,6849.631l39.373,33.863.446,7.749-42.064-34.342.25-8.615Z" fill="#e6b54a"/>
    <path id="Trazado_2785" data-name="Trazado 2785" d="M1897.806,6834.819l22.4,12.667.631-6.333-23.078-12.3Z" fill="#e6b54a"/>
    <path id="Trazado_2786" data-name="Trazado 2786" d="M1947.118,6876.906l-5.258,1.552a3.76,3.76,0,0,1,.054-.851c.421-1.537.328-2.851-1.215-3.8-.312-.192-.324-.874-.474-1.33.505.03,1.152-.132,1.491.121C1943.446,6873.881,1945.1,6875.273,1947.118,6876.906Z"/>
    <path id="Trazado_2787" data-name="Trazado 2787" d="M2002.236,6853.048a35.106,35.106,0,0,1,2.1-5.221c.338-.583,1.716-.563,2.887-.894a52.141,52.141,0,0,1-2.3,5.727c-.273.513-1.511.512-2.307.746Z"/>
    <path id="Trazado_2788" data-name="Trazado 2788" d="M1995.966,6853.633a35.137,35.137,0,0,1,2.1-5.22c.339-.583,1.717-.563,2.887-.894a52.183,52.183,0,0,1-2.3,5.727c-.273.513-1.511.511-2.307.746Z"/>
    <path id="Trazado_2789" data-name="Trazado 2789" d="M1985.182,6853.39a34.972,34.972,0,0,1,2.095-5.221c.338-.583,1.716-.563,2.886-.894a52.081,52.081,0,0,1-2.295,5.727c-.273.513-1.511.512-2.307.746Z"/>
    <path id="Trazado_2790" data-name="Trazado 2790" d="M1968.67,6857.129c-.544,2.373-1,4.774-1.7,7.1-.178.591-1.143.946-2.08,1.219.563-2.394,1.037-4.814,1.75-7.163.177-.582,1.124-.93,1.718-1.386Z"/>
    <path id="Trazado_2791" data-name="Trazado 2791" d="M2009.986,6852.044a51.332,51.332,0,0,1,2.092-5.4c.26-.512,1.407-.573,2.5-.969a41.531,41.531,0,0,1-1.9,5.659c-.305.616-1.59.746-2.429,1.1Z"/>
    <path id="Trazado_2792" data-name="Trazado 2792" d="M2017.288,6850.9c.275-3.813,1.861-6.346,4.3-6.824a40.893,40.893,0,0,1-1.808,5.273C2019.452,6850.021,2018.309,6850.3,2017.288,6850.9Z"/>
    <path id="Trazado_2793" data-name="Trazado 2793" d="M1962.653,6860.215c-.625,2.758-1.056,5.071-1.721,7.313-.178.6-1.073.99-1.639,1.477l-.388-.236c.542-2.365,1-4.754,1.69-7.075C1960.751,6861.166,1961.7,6860.873,1962.653,6860.215Z"/>
    <path id="Trazado_2794" data-name="Trazado 2794" d="M1956.59,6864.176c-.512,2.242-.935,4.51-1.593,6.707-.179.6-1.065.985-1.627,1.468l-.334-.225c.506-2.287.931-4.6,1.576-6.845.161-.559,1.039-.911,1.588-1.357Z"/>
    <path id="Trazado_2795" data-name="Trazado 2795" d="M1930.822,6884.689c.509-2.233.944-4.487,1.584-6.681.147-.5,1-.8,1.84-.984-.449,2.194-.8,4.414-1.408,6.564-.16.568-1.087.921-1.661,1.372Z"/>
    <path id="Trazado_2796" data-name="Trazado 2796" d="M1961.41,6888.068a12.437,12.437,0,0,1-1.418-2.638c-.541-2.066-.86-4.19-1.27-6.291l.321-.219c.523.572,1.341,1.066,1.514,1.729.616,2.354,1.011,4.765,1.49,7.155Z"/>
    <path id="Trazado_2797" data-name="Trazado 2797" d="M1936.262,6881.567c.468-2.143.866-4.3,1.447-6.416.174-.631.862-1.12,1.322-1.684.386.357.587.47.573.54-.438,2.11-.81,4.241-1.407,6.306-.178.615-1,1.043-1.528,1.557Z"/>
    <path id="Trazado_2798" data-name="Trazado 2798" d="M1953.291,6874.536a3.2,3.2,0,0,1,2.068,2.461c.318,2.119.8,4.213,1.252,6.5a3.17,3.17,0,0,1-2.118-2.576C1954.173,6878.851,1953.725,6876.8,1953.291,6874.536Z"/>
    <path id="Trazado_2799" data-name="Trazado 2799" d="M1948.524,6870.237a8.931,8.931,0,0,1,1.412,2.256c.55,2.083.878,4.225,1.295,6.344l-.336.253c-.487-.561-1.249-1.051-1.414-1.694-.585-2.273-.966-4.6-1.424-6.9Z"/>
    <path id="Trazado_2800" data-name="Trazado 2800" d="M1943.483,6866.114a10.022,10.022,0,0,1,1.331,2.338c.517,2.029.827,4.112,1.25,6.326a2.836,2.836,0,0,1-1.988-2.413c-.288-2.014-.747-4-1.135-6Z"/>
    <path id="Trazado_2801" data-name="Trazado 2801" d="M2023.995,6848.243a45.289,45.289,0,0,1,1.634-4.859c.27-.594,1.215-.88,1.853-1.306l.353.317a48.451,48.451,0,0,1-1.67,5.062c-.241.547-1.226.767-1.872,1.136Z"/>
    <path id="Trazado_2802" data-name="Trazado 2802" d="M1940.993,6870.665a3.063,3.063,0,0,1-1.978-2.568c-.254-1.936-.717-3.846-1.091-5.766l.432-.268a8.346,8.346,0,0,1,1.393,2.187C1940.271,6866.284,1940.566,6868.376,1940.993,6870.665Z"/>
    <path id="Trazado_2803" data-name="Trazado 2803" d="M1923.688,6850.594c2.767,2.045,1.8,5.263,2.618,7.928C1923.515,6856.511,1924.586,6853.231,1923.688,6850.594Z"/>
    <path id="Trazado_2804" data-name="Trazado 2804" d="M1933.549,6858.083a10.582,10.582,0,0,1,1.277,2.332,29.826,29.826,0,0,1,.893,6.078c-.466-.477-1.213-.884-1.351-1.441-.548-2.218-.906-4.482-1.335-6.729Z"/>
    <path id="Trazado_2805" data-name="Trazado 2805" d="M1928.662,6854.283c2.43,2.183,1.516,5.441,2.552,8.073l-.595.271a13.2,13.2,0,0,1-1.266-2.541c-.478-1.844-.758-3.739-1.12-5.613Z"/>
    <path id="Trazado_2806" data-name="Trazado 2806" d="M2030.249,6845.906a46.821,46.821,0,0,1,1.483-4.729c.247-.586,1.1-.916,1.683-1.362l.386.269c-.512,1.71-.93,3.458-1.593,5.107-.2.485-1.085.691-1.656,1.024Z"/>
    <path id="Trazado_2807" data-name="Trazado 2807" d="M2049.936,6836.872v-4.835l1.7-.258v5.18Z"/>
    <path id="Trazado_2808" data-name="Trazado 2808" d="M2039.345,6837.565a48.33,48.33,0,0,1-1.4,4.732c-.235.59-1.058.944-1.613,1.406l-.321-.275c.472-1.628.85-3.294,1.468-4.864.213-.539,1.029-.839,1.57-1.248Z"/>
    <path id="Trazado_2809" data-name="Trazado 2809" d="M2041.207,6840.876c1.2-2.26.476-4.953,3.041-6.251C2044.48,6837.07,2043.2,6840,2041.207,6840.876Z"/>
    <path id="Trazado_2810" data-name="Trazado 2810" d="M2049.256,6831.793c-.586,4.417-.951,5.217-2.617,5.839C2046.865,6834.359,2047.659,6832.524,2049.256,6831.793Z"/>
    <path id="Trazado_2811" data-name="Trazado 2811" d="M1918.289,6840.552c-.251,1.622-.439,2.985-.691,4.335-.047.25-.356.451-.544.675-.166-.249-.5-.516-.471-.745.164-1.512.385-3.019.64-4.518.034-.2.359-.35.549-.523Z"/>
    <path id="Trazado_2812" data-name="Trazado 2812" d="M1914.6,6844.81c-.8-.744-.706-2.87.133-5.5C1915.519,6839.668,1915.478,6842.067,1914.6,6844.81Z"/>
    <path id="Trazado_2813" data-name="Trazado 2813" d="M1912.513,6838.6c.6,1.744.05,3.418-.269,5.348C1911.513,6842.972,1911.589,6841.455,1912.513,6838.6Z"/>
    <path id="Trazado_2814" data-name="Trazado 2814" d="M1950.782,6867.464l-.76,3.376c-.579-.764-1.367-1.435-1.247-1.72a8.43,8.43,0,0,1,1.581-1.947Z"/>
    <path id="Trazado_2815" data-name="Trazado 2815" d="M1910.342,6837.692c.57,1.687.059,3.3-.363,4.915C1909.427,6840.922,1909.9,6839.308,1910.342,6837.692Z"/>
    <path id="Trazado_2816" data-name="Trazado 2816" d="M1908.792,6836.855l-.4,4.435-.438-.026c-.472-1.514.208-2.962.2-4.45Z"/>
    <path id="Trazado_2817" data-name="Trazado 2817" d="M1906.119,6839.856l.364-4.215.554.036-.334,4.186Z"/>
    <path id="Trazado_2818" data-name="Trazado 2818" d="M1905.518,6834.441l-.362,4.078-.5-.021.292-4.047Z"/>
    <path id="Trazado_2819" data-name="Trazado 2819" d="M1900.92,6831.035l-.362,4.078-.5-.022.292-4.046Z"/>
    <path id="Trazado_2820" data-name="Trazado 2820" d="M1902.74,6832.586l-.362,4.078-.5-.021.292-4.047Z"/>
    <path id="Trazado_2821" data-name="Trazado 2821" d="M1919.749,6871.762v-3.528l.286,0v3.524Z" fill="#fff"/>
    <path id="Trazado_2822" data-name="Trazado 2822" d="M1968.686,6894.076c0-.884.032-1.769-.01-2.652-.037-.783-.188-1.561-.218-2.344-.009-.235.181-.631.354-.678.2-.055.688.161.709.308a13.761,13.761,0,0,1-.066,5.382Z" fill="#fff"/>
    <path id="Trazado_2823" data-name="Trazado 2823" d="M1971.126,6866.81c.644,1.244-.232,2.583-.224,3.867l-.282-3.836Z" fill="#fff"/>
    <path id="Trazado_2824" data-name="Trazado 2824" d="M1929.133,6883.861l.847,1.3-1.084,1.566c.741.244,1.39.442,2.028.671.9.322,1.739.632,1.73,1.88-.008,1.193-.81,1.546-1.673,1.734a47.86,47.86,0,0,1-5.659,1,37.763,37.763,0,0,1-12.344-.718,4.184,4.184,0,0,1-1.647-.6,2.243,2.243,0,0,1-.869-1.482,1.906,1.906,0,0,1,.9-1.456,17.968,17.968,0,0,1,3.537-.972c.846-.164,1.285-.421,1.244-1.408-.082-1.954-.024-3.914-.024-5.9,1.326-.041,1.772.476,1.712,1.578-.057,1.033-.034,2.072,0,3.106a8.485,8.485,0,0,0,.241,1.3l.561-.025c.04-1.076.106-2.152.115-3.228.02-2.324.01-2.272,2.278-2.34a24.136,24.136,0,0,0,4.1-.45c1.283-.263,1.61-1.208,1.291-2.964-.243-1.336-1.2-.755-1.974-.814-1.793-.138-3.58-.355-5.37-.54v-7.515c.95,0,1.824.024,2.7,0,2.011-.065,2.22-.274,2.616-2.272,0,2.683.028,5.367-.016,8.05-.015.937.252,1.53,1.245,1.606.943.072,1.015.684,1.044,1.45.05,1.342.2,2.679.323,4.165l2.117-.81-.816,4.518.275.272-.148-1.112Zm-9.384-12.1.286-.008v-3.524l-.286,0Z" fill="#630013"/>
    <path id="Trazado_2825" data-name="Trazado 2825" d="M1966.927,6894.975c0-1.311.42-2.562-.9-3.562-.435-.33-.45-1.254-.592-1.92-.417-1.957-.8-3.921-1.213-5.962,2.243.578,2.009,2.469,2.564,4.275,2.386.062,4.835.129,7.285.183a6.379,6.379,0,0,0,1.032-.079c2.727-.387,2.931-.633,2.845-3.381a1.14,1.14,0,0,1,.253-.875v11.262c1.593.393,3.018.711,4.423,1.1.935.261,1.665.673,1.7,1.9.033,1.278-.791,1.634-1.686,1.9a36.2,36.2,0,0,1-13.338,1.093,56.226,56.226,0,0,1-6.691-1.1c-.9-.185-1.787-.582-1.817-1.814-.032-1.3.866-1.7,1.828-1.974C1963.985,6895.625,1965.386,6895.342,1966.927,6894.975Zm1.759-.9.769.016a13.761,13.761,0,0,0,.066-5.382c-.021-.147-.505-.363-.709-.308-.173.047-.363.443-.354.678.03.783.181,1.561.218,2.344C1968.718,6892.307,1968.686,6893.192,1968.686,6894.076Z" fill="#630013"/>
    <path id="Trazado_2826" data-name="Trazado 2826" d="M1981.224,6847.659c-.968,2.024-1.839,3.941-2.823,5.8-.144.271-.828.338-1.266.351a22.465,22.465,0,0,0-2.595.064c1.66,1.684,1.007,3.711,1.04,5.5.13,7.052.085,14.107.055,21.161-.005,1.265,0,2.375,1.7,2.567-2.415.939-4.69.314-6.954-.219-.194-.045-.4-.535-.4-.821a60.685,60.685,0,0,1,.217-6.952c1.159,1.383.29,3.137,1.005,4.628,0-1,.044-1.992-.011-2.983-.066-1.187.363-1.656,1.618-1.657,2.218,0,2.633-.485,2.546-2.261-.041-.837-.4-1.065-1.192-1.1-1.35-.068-2.694-.268-4.141-.424v-12.75c1.226,0,2.35.075,3.461-.017,1.7-.141,2.348-1.153,1.763-2.765-.117-.323-.684-.6-1.087-.681-.95-.2-1.927-.267-2.868-.385a10.362,10.362,0,0,1-.245-2.185,3.861,3.861,0,0,1,.677-1.75,1.726,1.726,0,0,0-.769-2.506c2.37.491,2.764-1.061,3.116-2.786,1.435,2.125.018,4.4.6,6.467l.442.19a11.84,11.84,0,0,0,1.075-2.3,13.634,13.634,0,0,0,.066-2.507c.044-1.024,1.1-1.678,1.619-.949C1978.742,6847.6,1979.99,6847.072,1981.224,6847.659Zm-10.1,19.151-.506.031.282,3.836C1970.894,6869.393,1971.77,6868.054,1971.126,6866.81Z" fill="#630013"/>
    <path id="Trazado_2827" data-name="Trazado 2827" d="M2046.626,6861.439c1.63,1.252.235,3.28,1.089,5.07a4.576,4.576,0,0,0,.449-1.083,10.741,10.741,0,0,0,.02-1.923c-.114-1.323.365-1.9,1.772-1.787a14.225,14.225,0,0,0,2.791-.228c.981-.118,1.416-.633,1.407-1.693-.01-1.087-.38-1.573-1.474-1.447a3.844,3.844,0,0,1-.444.008c-3.9.009-4.027-.135-3.8-4.017a5.65,5.65,0,0,1,.316-2.069l.161,2.957.337-.016v-2.937l3.336-.552c0,1.626,0,3.137,0,4.648,0,.728.069,1.3.961,1.587.37.119.73.857.761,1.336.139,2.112.216,4.232.194,6.349-.011,1.038.277,1.538,1.362,1.623a5.332,5.332,0,0,1,2.122.571c.472.261,1.041.894,1.023,1.339a1.842,1.842,0,0,1-1.1,1.292,12.274,12.274,0,0,1-3.747.754c-3.388-.012-6.777-.2-10.163-.373a3.72,3.72,0,0,1-1.675-.523,1.577,1.577,0,0,1-.745-1.1,1.681,1.681,0,0,1,.731-1.248,6.684,6.684,0,0,1,2.391-.688c1.154-.1,1.491-.668,1.455-1.723-.046-1.328-.011-2.659-.011-3.989Z" fill="#630013"/>
    <path id="Trazado_2828" data-name="Trazado 2828" d="M1919.071,6863.756q0-5.613.006-11.227c0-.174.087-.348.471-.533v4.12l.646.038c0-.851.023-1.7-.006-2.554-.036-1.1.226-1.86,1.56-1.7.94.115,1.261-.448,1.147-1.258-.107-.756.563-1.822-.907-2.085a2.893,2.893,0,0,1-2.291-3.582,11.7,11.7,0,0,1,.751-2.571v3.048l.308,0c0-.521.011-1.041,0-1.561-.026-.949.013-1.722,1.323-1.847.427-.04.774-.915.945-1.135.929,2.438-.807,5.65,1.118,8.451l-.614-1.076a12.324,12.324,0,0,0-.373,1.839c-.033,1.725,0,3.451-.009,5.176,0,.933-.141,1.876.9,2.456.217.121.327.594.333.907.026,1.528-.032,3.058.005,4.585.02.841-.352,1.1-1.136,1.156-2.981.208-3.033.168-3.059-2.857-.005-.574-.108-1.147-.166-1.72l-.4.017c0,.655.019,1.311-.005,1.966s-.09,1.308-.137,1.962Z" fill="#630013"/>
    <path id="Trazado_2829" data-name="Trazado 2829" d="M1899.212,6841.806c0,1.2.039,2.723-.015,4.246-.032.876.312,1.258,1.162,1.319a2.33,2.33,0,0,1,1.125.306,1.9,1.9,0,0,1,.825,1.027c.04.237-.465.749-.8.84a19.875,19.875,0,0,1-10.5-.018,1.218,1.218,0,0,1-.742-.885c0-.32.448-.9.72-.91,2.424-.106,2.625-1.643,2.418-3.521-.027-.246.147-.514.538-.771l.384,3.112c.2-.258.333-.348.346-.452.1-.814-.1-1.867.339-2.373.376-.434,1.475-.232,2.252-.329,1.047-.13,1.81-.53,1.63-1.789-.011-.078.062-.167.1-.251Z" fill="#630013"/>
    <path id="Trazado_2830" data-name="Trazado 2830" d="M2052.547,6839.36c0,3.153.01,6.286-.021,9.419a.922.922,0,0,1-.471.654,2.428,2.428,0,0,1-3.579-2.148c-.051-2.016.035-4.036-.026-6.052-.033-1.084.429-1.516,1.449-1.579C2050.721,6839.6,2051.538,6839.475,2052.547,6839.36Z" fill="#630013"/>
    <path id="Trazado_2831" data-name="Trazado 2831" d="M2011.569,6834.889c.247,1.425.493,2.851.755,4.369a.992.992,0,0,0,.127.085q.927.543,1.854,1.084a5.708,5.708,0,0,1-1.892.8c-1.947.044-3.9-.079-5.845-.2a1.062,1.062,0,0,1-.709-.579.8.8,0,0,1,.375-.671c1.663-.228,2.172-1.233,1.709-2.847.928-.091,1.6-.189,2.274-.216,1.249-.051,1.876-.527,1.385-1.857Z" fill="#630013"/>
    <path id="Trazado_2832" data-name="Trazado 2832" d="M1897.806,6834.819c-2.547.155-2.659.069-2.735-2.1-.034-.983.075-1.976-.023-2.95-.135-1.358.554-1.817,1.725-1.686.368.041.974.487.987.769C1897.847,6830.808,1897.806,6832.771,1897.806,6834.819Z" fill="#630013"/>
    <path id="Trazado_2833" data-name="Trazado 2833" d="M1897.722,6836.477l.23,4.626c-1.054-.286-2.558.54-2.921-1.11C1894.508,6837.609,1895.072,6836.978,1897.722,6836.477Z" fill="#630013"/>
    <path id="Trazado_2834" data-name="Trazado 2834" d="M2009.257,6826l1.782-.31v4.8C2008.957,6830.69,2008.926,6830.611,2009.257,6826Z" fill="#630013"/>
    <path id="Trazado_2835" data-name="Trazado 2835" d="M2011.6,6834.862c-2.086.405-2.56-.009-2.426-1.9.1-1.4,1.1-.857,1.718-1.053.235,1.056.451,2.024.671,2.987Z" fill="#630013"/>
    <path id="Trazado_2836" data-name="Trazado 2836" d="M1953.928,6832.881c-.787-.268-1.993.284-2.015-1.152-.018-1.1.039-2.266,1.744-2.022Z" fill="#630013"/>
  </g>
</svg>
