<svg xmlns="http://www.w3.org/2000/svg" xmlns:xlink="http://www.w3.org/1999/xlink" width="129.074" height="94.135" viewBox="0 0 129.074 94.135">
  <defs>
    <linearGradient id="linear-gradient" x1="0.5" y1="1" x2="0.5" gradientUnits="objectBoundingBox">
      <stop offset="0" stop-color="#a39f07"/>
      <stop offset="1" stop-color="#a37807"/>
    </linearGradient>
    <clipPath id="clip-path">
      <path id="Trazado_2915" data-name="Trazado 2915" d="M1986.36,7191.544l-.026-1.763c-1.509,1.9-13.015,2.194-14.47,2.224-1.455.014-12.964.068-14.529-1.788l.026,1.763s.856.291.013.851l.028,1.891s.583.319.012.784l.037,2.432s1.124,2.676,14.388,2.518v0c.052,0,.1,0,.152,0l.152,0v0c13.263-.24,14.307-2.949,14.307-2.949l-.037-2.432a.425.425,0,0,1-.012-.783l-.028-1.892C1985.513,7191.861,1986.36,7191.544,1986.36,7191.544Z" fill="none"/>
    </clipPath>
  </defs>
  <g id="Grupo_2861" data-name="Grupo 2861" transform="translate(-1911.912 -7186.849)">
    <path id="Trazado_2906" data-name="Trazado 2906" d="M1950.42,7254.206c-2.335-.017-5.454-.205-7.674.5-2.836.9-3.937,3.6-7.041,3.862a18.379,18.379,0,0,0-8.44,2.429c-2.956,1.607-5.765,1.131-8.986,1.3-2.293.122-6.123.207-6.358,2.857a8.23,8.23,0,0,0,2.188,5.218c1.493,1.2,4.488,1.082,6.227,1.412a103.137,103.137,0,0,0,12.234,1.9c3.864.261,9.984-1,13.32.61-.344,4.506,7.018,1.4,9.085.921,1.907-.44,4.983-.923,6.6.5.916.8.869,2.278,2.094,3.15,4.258,3.036,14.12,2.033,19.152,1.636,5.434-.429,9.61-5.056,15.044-4.509a2.766,2.766,0,0,0,2.29,3.118c2.93.753,7.16-.933,10.062-1.159,3.1-.241,6.189-.028,9.289-.108,4.415-.115,8.191-2.692,12.471-3.76,3.87-.965,1.909,1.27,4.6,1.894,3.316.77,5.5-5.7,3.84-7.912-2.9-3.862-8.721-2.434-12.756-1.851-2.439.352-5.9,1.07-7.616-1.089-1.965-2.469-1.184-4.684-5.034-5.131-3.125-.363-4.518,1.359-7.186,1.88-2.076.4-1.789-.308-3.129-1.919a9.218,9.218,0,0,0-4.233-3.061c-1.5-.391-2.078.483-3.473.42-.5-.022-1.043-.619-1.634-.8a10.445,10.445,0,0,0-4.474-.234c-2.807.251-6.083.683-8.835-.022-3.3-.845-5.46-2.459-9.048-2.469a50.6,50.6,0,0,0-10.3,1.048c-2.075.409-4.422,1.272-6.545,1.039A25.727,25.727,0,0,1,1950.42,7254.206Z" opacity="0.6" fill="url(#linear-gradient)"/>
    <g id="Grupo_2860" data-name="Grupo 2860">
      <g id="Grupo_2859" data-name="Grupo 2859">
        <g id="Grupo_2854" data-name="Grupo 2854">
          <path id="Trazado_2907" data-name="Trazado 2907" d="M1994.837,7256.723l-.542-36.076c-.105-7.022-1.07-13.136-4.9-16.247s-3.835-5.709-3.835-5.709l-13.6,1.811-13.652-1.4s.072,2.6-3.662,5.822-4.515,9.365-4.409,16.387l.541,36.076s-1.005,14.083,22.021,13.919v0l.224,0h.224v0C1996.264,7270.77,1994.837,7256.723,1994.837,7256.723Z" fill="#75c8da" opacity="0.78"/>
          <g id="Grupo_2853" data-name="Grupo 2853">
            <path id="Trazado_2908" data-name="Trazado 2908" d="M1972.048,7206.566s9.24.828,13.612-1.559c0,0,5.554,3.012,5.584,23.32A25.19,25.19,0,0,0,1972.048,7206.566Z" fill="#b8f5ff"/>
            <path id="Trazado_2909" data-name="Trazado 2909" d="M1985.884,7268.989c-29.228,3.939-32.888-10.468-32.913-12.119l-.45-30.018c-.2-13.493,1.918-19.035,5.187-21.425s3.183-4.738,3.183-4.738l-1.33-1.46-1.255-.129s.072,2.6-3.662,5.822-4.515,9.365-4.409,16.387l.541,36.076s-1.005,14.083,22.021,13.919v0l.224,0h.224v0a34.586,34.586,0,0,0,12.639-2.308Z" fill="#5baebc"/>
          </g>
          <path id="Trazado_2910" data-name="Trazado 2910" d="M1991.823,7228.519c-4.043,1.985-6.91,5.891-11,7.783-2.6,1.2-5.645,1.566-7.852,3.394-2.138,1.772-4.925,1.37-6.933,3.289-1.4,1.339-7.1-.01-8.705,1.077s-4.329,1.483-4.475,3.415c-.085,1.119.566,7.723.1,8.744-.775,1.7,3.142,3.3,2.939,5.162a3.454,3.454,0,0,0,.491,1.832c.591,1.211,1.231,2.4,1.94,3.55,3.048,1.953,7.743,3.407,14.978,3.355v0l.209,0h.21v0c21.52-.493,20.186-13.625,20.186-13.625s-.278-18.489-.43-28.645A14.139,14.139,0,0,0,1991.823,7228.519Z" fill="#a39f07"/>
        </g>
        <g id="Grupo_2858" data-name="Grupo 2858">
          <path id="Trazado_2911" data-name="Trazado 2911" d="M1986.334,7189.781c.026,1.736-6.445,3.24-14.453,3.36s-14.52-1.189-14.546-2.924,6.444-3.24,14.452-3.36S1986.308,7188.046,1986.334,7189.781Z" fill="#5cb5c4"/>
          <path id="Trazado_2912" data-name="Trazado 2912" d="M1986.36,7191.544l-.026-1.763c-1.509,1.9-13.015,2.194-14.47,2.224-1.455.014-12.964.068-14.529-1.788l.026,1.763s.856.291.013.851l.028,1.891s.583.319.012.784l.037,2.432s1.124,2.676,14.388,2.518v0c.052,0,.1,0,.152,0l.152,0v0c13.263-.24,14.307-2.949,14.307-2.949l-.037-2.432a.425.425,0,0,1-.012-.783l-.028-1.892C1985.513,7191.861,1986.36,7191.544,1986.36,7191.544Z" fill="#75c8da"/>
          <g id="Grupo_2857" data-name="Grupo 2857">
            <g id="Grupo_2856" data-name="Grupo 2856" clip-path="url(#clip-path)">
              <g id="Grupo_2855" data-name="Grupo 2855" opacity="0.5">
                <path id="Trazado_2913" data-name="Trazado 2913" d="M1957.361,7191.98a59.086,59.086,0,0,0,29-.436l.013.851a56.14,56.14,0,0,1-29,.436Z" fill="#258e7a"/>
                <path id="Trazado_2914" data-name="Trazado 2914" d="M1957.4,7194.722a59.093,59.093,0,0,0,29-.435l.013.851a56.152,56.152,0,0,1-29,.435Z" fill="#258e7a"/>
              </g>
            </g>
          </g>
        </g>
      </g>
    </g>
  </g>
</svg>
