<svg xmlns="http://www.w3.org/2000/svg" width="747.037" height="289.396" viewBox="0 0 747.037 289.396">
  <g id="Grupo_711" data-name="Grupo 711" transform="translate(-3436.306 -705.836)">
    <path id="Trazado_554" data-name="Trazado 554" d="M4130.847,970.075c-10.4,4.782-20.671,7.173-25.141,7.665l-640.382.15c-.077-.109-.151-.222-.225-.331a97.6,97.6,0,0,1-9.584-17.315,53.22,53.22,0,0,1-3.958-14.968c-4.194-41.57,75.815-21.36,31.287-91.6-68.869-108.63,133.617-193.459,291.617-120.689,161.913,74.574,199.676,45.488,228.8,35.912,22.446-7.38,42.45-10.845,60.17-11.382,22.288-.674,40.956,3.287,56.3,9.935,33.053,14.3,50.71,41.046,55.971,60.716q2.06,7.7,3.531,14.88C4190.314,896.842,4180.506,947.268,4130.847,970.075Z" fill="#ebf3fa"/>
    <path id="Trazado_555" data-name="Trazado 555" d="M3901.6,933.989H3755.74a9.057,9.057,0,0,1-9.057-9.058V914.455l149.465-6.7Z" fill="#c5d9ee"/>
    <path id="Trazado_556" data-name="Trazado 556" d="M3983.375,862.088s4.728.779,5.039,5.454,0,38.185,0,38.185h-97.1V862.088Z" fill="#d7e6f9"/>
    <path id="Trazado_557" data-name="Trazado 557" d="M3892.6,903.575l22.938-23.5a4.535,4.535,0,0,1,3.243-1.366h42.548a4.533,4.533,0,0,1,3.449,1.592l18.9,22.169a4.53,4.53,0,0,0,3.448,1.592h2.9a10.592,10.592,0,0,1,10.592,10.592v11.976a4.532,4.532,0,0,1-4.446,4.531l-28.491.539-71.7,2.146a4.531,4.531,0,0,1-4.667-4.53V906.741A4.535,4.535,0,0,1,3892.6,903.575Z" fill="#c5d9ee"/>
    <path id="Trazado_558" data-name="Trazado 558" d="M3883.959,914.455H3751.67v-109.1h123.636a9.993,9.993,0,0,1,9.984,9.559h0l6.027,31.8V907.1A7.357,7.357,0,0,1,3883.959,914.455Z" fill="#d7e6f9"/>
    <rect id="Rectángulo_61" data-name="Rectángulo 61" width="44.886" height="97.254" transform="translate(3834.17 812.629)" fill="#f1f7fc"/>
    <path id="Rectángulo_62" data-name="Rectángulo 62" d="M24.106,0H211.132a0,0,0,0,1,0,0V24.106a24.106,24.106,0,0,1-24.106,24.106H24.106A24.106,24.106,0,0,1,0,24.106v0A24.106,24.106,0,0,1,24.106,0Z" transform="translate(3540.538 872.894)" fill="#c5d9ee"/>
    <circle id="Elipse_11" data-name="Elipse 11" cx="38.75" cy="38.75" r="38.75" transform="translate(3559.509 940.431) rotate(-45)" fill="#c6d9ee"/>
    <circle id="Elipse_12" data-name="Elipse 12" cx="22.651" cy="22.651" r="22.651" transform="matrix(0.868, -0.497, 0.497, 0.868, 3583.395, 932.04)" fill="#d0e1f7"/>
    <circle id="Elipse_13" data-name="Elipse 13" cx="15.378" cy="15.378" r="15.378" transform="matrix(0.028, -1, 1, 0.028, 3598.513, 955.378)" fill="#c5d9ee"/>
    <circle id="Elipse_14" data-name="Elipse 14" cx="38.75" cy="38.75" r="38.75" transform="translate(3654.438 962.726) rotate(-69.006)" fill="#c6d9ee"/>
    <circle id="Elipse_15" data-name="Elipse 15" cx="22.651" cy="22.651" r="22.651" transform="translate(3675.236 953.463) rotate(-69.006)" fill="#d0e1f7"/>
    <circle id="Elipse_16" data-name="Elipse 16" cx="15.378" cy="15.378" r="15.378" transform="translate(3686.855 953.147) rotate(-80.783)" fill="#c5d9ee"/>
    <circle id="Elipse_17" data-name="Elipse 17" cx="38.75" cy="38.75" r="38.75" transform="translate(3890.21 969.241) rotate(-76.717)" fill="#c6d9ee"/>
    <circle id="Elipse_18" data-name="Elipse 18" cx="22.651" cy="22.651" r="22.651" transform="translate(3908.175 926.105) rotate(-18.435)" fill="#d0e1f7"/>
    <circle id="Elipse_19" data-name="Elipse 19" cx="15.378" cy="15.378" r="15.378" transform="translate(3918.327 951.864) rotate(-76.717)" fill="#c5d9ee"/>
    <path id="Trazado_559" data-name="Trazado 559" d="M3748.761,827.592v83.123h-11.429l-10.183-24.106H3572.541l-11.222,41.146h-41.146V857.516l8.312-6.234v-23.69Z" fill="#d9e8fa"/>
    <rect id="Rectángulo_63" data-name="Rectángulo 63" width="36.782" height="31.171" rx="14.344" transform="translate(3837.702 815.539)" fill="#d0e1f7"/>
    <path id="Rectángulo_64" data-name="Rectángulo 64" d="M15.586,0H32.418A15.585,15.585,0,0,1,48,15.585v0A15.586,15.586,0,0,1,32.418,31.171H15.585A15.585,15.585,0,0,1,0,15.586v0A15.586,15.586,0,0,1,15.586,0Z" transform="translate(3765.385 815.539)" fill="#d0e1f7"/>
    <path id="Trazado_560" data-name="Trazado 560" d="M3885.29,814.915s-2.7.832-2.909,3.014,0,22.858,0,22.858-.727,5.611,4.052,5.923,16.833,0,16.833,0Z" fill="#d0e1f7"/>
    <path id="Trazado_561" data-name="Trazado 561" d="M3891.317,862.088h92.058s.4-8.105-7.8-9.56-72.31-5.818-72.31-5.818h-11.949Z" fill="#d7e6f9"/>
    <path id="Trazado_562" data-name="Trazado 562" d="M3489,805.356l292.177-18.91v13.3l-290.1,20.781Z" fill="#d0e1f7"/>
    <rect id="Rectángulo_65" data-name="Rectángulo 65" width="35.431" height="17.248" rx="8.624" transform="translate(3614.31 810.344)" fill="#d0e2f8"/>
    <rect id="Rectángulo_66" data-name="Rectángulo 66" width="35.431" height="17.248" rx="8.624" transform="translate(3676.028 810.344)" fill="#d0e2f8"/>
    <path id="Trazado_563" data-name="Trazado 563" d="M3730.474,827.592c.156,0,6.078-12.884,6.078-12.884h12.209v12.884Z" fill="#b2bac8"/>
    <g id="Grupo_691" data-name="Grupo 691">
      <path id="Trazado_564" data-name="Trazado 564" d="M3573.167,830.767l-3.955-6.35c5.48-3.414,16.359-5.391,32.333-5.876,11.059-.335,20.622.155,21.8.219h70.395c23.707,0,25.805-3.934,28.026-8.1a17.42,17.42,0,0,1,12.141-9.01l.254-.035h14.6V809.1h-14a9.973,9.973,0,0,0-6.39,5.085c-4.357,8.17-10.65,12.059-34.627,12.059h-70.6l-.1-.006C3612.176,825.62,3582.052,825.233,3573.167,830.767Z" fill="#c6d9ee"/>
    </g>
    <g id="Grupo_697" data-name="Grupo 697">
      <path id="Trazado_565" data-name="Trazado 565" d="M3797.715,933.24a40.152,40.152,0,0,0,6.554,1.584c2.27.184,3.044-2.675,2.844-3.075s-4.723-2.357-6.677-2.157S3797.715,933.24,3797.715,933.24Z" fill="#f9c29d"/>
      <path id="Trazado_566" data-name="Trazado 566" d="M3746.559,929s4.993,45.683.827,49.687c0,0-10.411,1.09-12.216.188s-7.992-27.094-7.216-35.479S3746.559,929,3746.559,929Z" fill="#f27019"/>
      <path id="Trazado_567" data-name="Trazado 567" d="M3778.976,970.9s-.624,7.054.785,7.8l18.1.079s.014-2.2-2.889-2.712-8-2.338-8.836-6.342S3778.976,970.9,3778.976,970.9Z" fill="#233862"/>
      <path id="Trazado_568" data-name="Trazado 568" d="M3702.278,967.381s-6.826-.932-8.133-.479l-12.129,11.786s5.635.92,7.679-.621,4.3-2.082,9.391-3.978C3702.415,972.848,3702.278,967.381,3702.278,967.381Z" fill="#233862"/>
      <g id="Grupo_692" data-name="Grupo 692">
        <path id="Trazado_569" data-name="Trazado 569" d="M3753.262,879.205s5.885,7.861,13.249,8.113c0,0,.53-.92-.449-3.766.694-1.254,1.277-2.349,1.721-3.295a33.89,33.89,0,0,0,1.518-3.45l-3.228-5.048-3.051-4.817C3760.074,876.47,3753.262,879.205,3753.262,879.205Z" fill="#ffb27d"/>
        <path id="Trazado_570" data-name="Trazado 570" d="M3761.691,870.514s1.063,6.325,6.092,9.743a33.89,33.89,0,0,0,1.518-3.45l-3.228-5.048Z" fill="#ed985f"/>
        <path id="Trazado_571" data-name="Trazado 571" d="M3771.382,877.36s-11.623-2.034-10.3-9.153.715-12.177,8.192-11.18,8.409,3.989,8.553,6.477S3774.439,877.705,3771.382,877.36Z" fill="#ffb27d"/>
        <path id="Trazado_572" data-name="Trazado 572" d="M3765.875,857.742c1.52,1.522-3.7,9.818-3.837,11.261a8.243,8.243,0,0,1-1.545,3.28c-1.155-.4-1.478-1.893-.841-3.769C3760.468,866.116,3764.785,856.65,3765.875,857.742Z" fill="#2c3a64"/>
      </g>
      <path id="Trazado_573" data-name="Trazado 573" d="M3800.407,932.074s-1.3,2.205-1.306,2.206a69.287,69.287,0,0,1-27.885-11.426c-.862-.611-1.721-1.262-2.565-1.956-18.031-14.8-.806-34.766-.806-34.766a11.374,11.374,0,0,1,6.189,5.368c2.337,4.269,3.913,14.092,7.957,20.212,3.082,4.664,18.057,16.34,18.057,16.34C3801.137,929.683,3800.407,932.074,3800.407,932.074Z" fill="#f99746"/>
      <path id="Trazado_574" data-name="Trazado 574" d="M3769.745,930.046c-1.445,5.829-2.662,9.851-2.662,9.851-3.578.18-7.378.223-11.226.173q-1.819-.021-3.644-.069c-18.149-.5-36.167-2.8-36.167-2.8.589-1.755,1.184-3.467,1.775-5.151.249-.7.5-1.4.745-2.09.093-.261.186-.519.283-.779.148-.415.3-.829.446-1.234.2-.552.4-1.1.6-1.642.4-1.092.806-2.16,1.207-3.212,2.037-5.335,4.058-10.227,6.021-14.665q1.31-2.957,2.587-5.642c.146-.311.291-.616.435-.911.224-.468.442-.914.651-1.345q.687-1.4,1.362-2.724,1.533-3.036,2.991-5.644a89.238,89.238,0,0,1,6.75-10.579c2-2.62,2.942-3.495,5.52-3.994,2.083-.4,7.164-.042,11.721,1.881,5.938,2.505,12.764,9.221,12.764,9.221C3777.3,895.185,3772.959,917.084,3769.745,930.046Z" fill="#f99746"/>
      <path id="Trazado_575" data-name="Trazado 575" d="M3764.961,879.436s-.076-.766.673-.673a6.777,6.777,0,0,0,2.256-.507.456.456,0,0,1,.478.1,1.9,1.9,0,0,1,.624,1.421c-.061.971-.158,3.469-.158,3.469s-.325,4.666-4.995,3.048S3764.961,879.436,3764.961,879.436Z" fill="#ed7d2b"/>
      <path id="Trazado_576" data-name="Trazado 576" d="M3754.013,877.909c.645-.847,3.958-4.029,4.743-3.728s1.32,3.686,4.513,4.733,3.589.827,3.548,1.716-.9,5.9-2.1,6.132S3750.532,882.479,3754.013,877.909Z" fill="#f99746"/>
      <path id="Trazado_577" data-name="Trazado 577" d="M3799.1,934.28a69.287,69.287,0,0,1-27.885-11.426c.973-3.317.666-10.454.666-10.454C3776.43,925.807,3798.7,934.168,3799.1,934.28Z" fill="#ed7d2b"/>
      <path id="Trazado_578" data-name="Trazado 578" d="M3766.022,861.045s-4.76,10.984-.4,14.347c0,0,1.211.608,2,.89,0,0-4.252-3.226,1.425-13.872Z" fill="#2c3a64"/>
      <g id="Grupo_693" data-name="Grupo 693">
        <path id="Trazado_579" data-name="Trazado 579" d="M3779.582,867.45s-1.955.424-2.185.422-4.668-.718-4.668-.718l-2.559-.848c-5.513,7.507-14.838,3.933-14.838,3.933l4.024-5.885s1.348-8.007,6.664-9.161a11.652,11.652,0,0,1,12.2,4.68c.76,1.233,1.543,6.8,1.543,6.8Z" fill="#f99746"/>
        <path id="Trazado_580" data-name="Trazado 580" d="M3770.17,866.306s7.253,3.444,12.345,2.486a.366.366,0,0,0,.158-.664,16.524,16.524,0,0,0-2.914-1.45S3776.016,868.014,3770.17,866.306Z" fill="#ed7d2b"/>
        <path id="Trazado_581" data-name="Trazado 581" d="M3770.17,866.306c-5.513,7.507-14.838,3.933-14.838,3.933l4.024-5.885S3762.038,866.312,3770.17,866.306Z" fill="#ed7d2b"/>
      </g>
      <path id="Trazado_582" data-name="Trazado 582" d="M3755.857,940.069q-1.819-.021-3.645-.069c3.913-12.113,8.946-28.206,10.02-34.084,1.81-9.9,2.852-19.378,2.852-19.378l2.54-.9s-.914,4.075-1.267,14C3766.137,905.8,3760.279,925.773,3755.857,940.069Z" fill="#ed7d2b"/>
      <path id="Trazado_583" data-name="Trazado 583" d="M3788.773,970.786a32.828,32.828,0,0,1-6.283,2.442,14.443,14.443,0,0,1-4.941.256s-1.678-3.35-3.174-6.621c-.434-.949-.9-1.988-1.368-3.088-.262-.614-.531-1.25-.8-1.9-.412-1.007-.825-2.049-1.221-3.107a55.921,55.921,0,0,1-3.015-10.607c-.434-2.877-46.245,7.327-51.571-9.45a4.412,4.412,0,0,1,.083-2.909,9.784,9.784,0,0,1,3.252-4.533,18.643,18.643,0,0,1,7.285-2.916s40.67-5.128,49.8.16c5.31,3.076,8.532,17.394,10.294,28.842q.254,1.63.464,3.168c.092.665.182,1.317.262,1.947.147,1.125.278,2.19.393,3.174C3788.7,969.676,3788.773,970.786,3788.773,970.786Z" fill="#f98732"/>
      <path id="Trazado_584" data-name="Trazado 584" d="M3756.559,925.065s-17.691,17.288-41.028,14.517a36.974,36.974,0,0,1,1.369-6.1c.172-.588.361-1.221.575-1.9.246-.79.528-1.64.841-2.558q.317-.919.684-1.927a186.4,186.4,0,0,1,8.13-18.67l13.062,11.656,3.091.94,2.615.8,2.583.789h0l1.205.368Z" fill="#f99746"/>
      <path id="Trazado_585" data-name="Trazado 585" d="M3740.86,978.877h-44.132c-.972-5.623,3.1-11.79,3.1-11.79,2.388-.467,4.734-.869,7.017-1.212q1.952-.3,3.836-.537c.994-.128,1.972-.243,2.931-.351q1.971-.22,3.837-.387a161.649,161.649,0,0,1,21.015-.643Z" fill="#f27019"/>
      <g id="Grupo_694" data-name="Grupo 694">
        <path id="Trazado_586" data-name="Trazado 586" d="M3750.211,923.78c-13.088,8.474-24.654,9.8-30.61,9.8-1.1,0-2.011-.048-2.7-.1.172-.588.361-1.221.575-1.9,4.485.246,16.883-.07,31.006-8.974h0c.227-.143.454-.291.684-.438Z" fill="#fff"/>
      </g>
      <g id="Grupo_695" data-name="Grupo 695">
        <path id="Trazado_587" data-name="Trazado 587" d="M3750.211,919.243q-2.187,1.414-4.313,2.574c-11.281,6.182-21.006,7.228-26.3,7.228q-.7,0-1.285-.023.317-.919.684-1.927a53.225,53.225,0,0,0,24.283-6.074,63.337,63.337,0,0,0,5.885-3.386Z" fill="#fff"/>
      </g>
      <path id="Trazado_588" data-name="Trazado 588" d="M3769.745,930.046s-31.3-2.265-39.6-28.173c.224-.468.442-.914.651-1.345q.687-1.4,1.362-2.724,1.533-3.036,2.991-5.644Z" fill="#ed7d2b"/>
      <path id="Trazado_589" data-name="Trazado 589" d="M3787.582,960.524l-15.371,1.352c-.412-1.007-.825-2.049-1.221-3.107l16.128-1.413Q3787.372,958.986,3787.582,960.524Z" fill="#fff"/>
      <path id="Trazado_590" data-name="Trazado 590" d="M3788.237,965.645l-13.862,1.218c-.434-.949-.9-1.988-1.368-3.088l14.837-1.3C3787.991,963.6,3788.122,964.661,3788.237,965.645Z" fill="#fff"/>
      <path id="Trazado_591" data-name="Trazado 591" d="M3710.682,965.338v13.9h-3.836v-13.36Q3708.8,965.578,3710.682,965.338Z" fill="#ebeef2"/>
      <path id="Trazado_592" data-name="Trazado 592" d="M3717.45,964.6v14.635h-3.837V964.987Q3715.584,964.767,3717.45,964.6Z" fill="#ebeef2"/>
      <g id="Grupo_696" data-name="Grupo 696">
        <path id="Trazado_593" data-name="Trazado 593" d="M3638.1,978.822a7.572,7.572,0,0,1,2.219-6.282c3.887-3.922,12.815-5.669,28.091-5.529,12.7.124,28.061,1.56,41.618,2.827,15.709,1.468,30.546,2.856,36.349,1.7,9.658-1.92,16.723-16.1,22.4-27.5,4.533-9.1,8.114-16.291,12.725-18.144,4.456-1.791,10.637-1.178,18.368,1.823a69.729,69.729,0,0,1,10.02,4.861l-2.207,3.625,1.1-1.813-1.1,1.813c-4.479-2.723-17.627-9.174-24.6-6.372-3.114,1.252-6.873,8.8-10.509,16.1-6.408,12.866-13.671,27.448-25.371,29.774-6.409,1.274-20.85-.075-37.571-1.638-25.048-2.341-59.351-5.547-66.3,1.464a3.284,3.284,0,0,0-1.012,2.863Z" fill="#1c468a"/>
      </g>
      <rect id="Rectángulo_67" data-name="Rectángulo 67" width="0.831" height="4.795" transform="translate(3809.539 932.103) rotate(29.996)" fill="#dd530e"/>
      <path id="Trazado_594" data-name="Trazado 594" d="M3774.785,927.97s4.326-.617,5.644-.02a3.013,3.013,0,0,1,.175,5.088c-1.405.984-4.295-1.938-5.233-1.981a2.408,2.408,0,0,1-1.6-1.011Z" fill="#f9c29d"/>
      <path id="Trazado_595" data-name="Trazado 595" d="M3775.823,931.271h-.007a63.728,63.728,0,0,1-29.991-13.135c-.9-.735-1.795-1.51-2.673-2.327-7.034-6.541-10.692-14.484-9.846-20.228,2.2-14.949,12.5-17.546,12.5-17.546s1.769,3.631,4.12,8.3,3.693,14.943,7.8,21.726c3.132,5.169,18.73,19.021,18.73,19.021C3777.566,928.889,3775.823,931.271,3775.823,931.271Z" fill="#f99746"/>
      <path id="Trazado_596" data-name="Trazado 596" d="M3800.963,933.075s2.738-3.2,5.626-2.092c2.033.779.139,3.354-1.487,3.769S3800.444,934.017,3800.963,933.075Z" fill="#f9c29d"/>
    </g>
    <g id="Grupo_698" data-name="Grupo 698">
      <path id="Trazado_597" data-name="Trazado 597" d="M4130.847,970.075a98.994,98.994,0,0,0,12.166-6.628q.775-1.777,1.432-3.5a59.244,59.244,0,0,0,3.807-15.626,51.027,51.027,0,0,0-8.523-10.922c-20.152-19.739-40-14.477-37.376-48.254,1.544-19.832-3.706-33.617-11.319-44.9-5.345-7.935-11.862-14.637-18-21.335a55.826,55.826,0,0,0-34.136-17.547c15.316,13.159,16.194,26.32,19.5,46.5s-25.631,40.794-26.067,78.082c-.4,34.366,22.08,49.626,25.605,51.806l47.773-.011C4110.176,977.248,4120.448,974.857,4130.847,970.075Z" fill="#f99746"/>
      <path id="Trazado_598" data-name="Trazado 598" d="M4105.706,977.74c4.449-.49,14.647-2.862,25-7.6-3.208-8.853-10.3-22.62-24.409-27.525-21.446-7.457-30.2-34.656-30.2-34.656s-11.818,14.478-7,32.024c4.774,17.4,29.875,26.316,24.687,37.759Z" fill="#ffa969"/>
      <path id="Trazado_599" data-name="Trazado 599" d="M4148.252,944.324a59.244,59.244,0,0,1-3.807,15.626L4126.864,947s-26.1-21.932-26.4-29.829-8.617-61.852-8.617-61.852a52.453,52.453,0,0,1-.814-15.074c.562-6.547,4.106-13.4,7.38-21.335,13.06-31.64-9.955-51.993-9.955-51.993s53.915,9.362,40.011,52.317c-.271,10.51-12.2-3.456-15.743,8.144C4094.162,888.135,4152.29,900.925,4148.252,944.324Z" fill="#f99746"/>
      <path id="Trazado_600" data-name="Trazado 600" d="M4049.25,850.787s1.74-26.9-16.928-35.386-20.711-22.811-20.711-22.811a41.644,41.644,0,0,0,2.626,30.415C4022.115,839.089,4045.691,832.023,4049.25,850.787Z" fill="#f27019"/>
    </g>
    <g id="Grupo_703" data-name="Grupo 703">
      <path id="Trazado_601" data-name="Trazado 601" d="M3642.332,869.024s5.992-5.978,7.291-4.293.655,6.416-.755,7.123-6.688,1.218-6.688,1.218Z" fill="#ffb27d"/>
      <path id="Trazado_602" data-name="Trazado 602" d="M3645.257,872.932a84,84,0,0,1-8.907,8.753l0,0c-5.112,4.3-11.6,8.521-17.155,8.246a15.194,15.194,0,0,1-3.742-.589c-6.261-1.919-2.906-7.659-2.906-7.659l3.386-37.332s7.445,7.574,9.43,24.244c0,0,.707,5.256,3.268,4.159s14.682-4.66,14.682-4.66,1.39,1.883,1.766,2.494A3.037,3.037,0,0,1,3645.257,872.932Z" fill="#f99746"/>
      <path id="Trazado_603" data-name="Trazado 603" d="M3538.82,953.477s-5.738,2.5-5.72,3.906l7.59,14.077s1.716-.92.883-3.388-1.567-7.2,1.187-9.539S3538.82,953.477,3538.82,953.477Z" fill="#233862"/>
      <path id="Trazado_604" data-name="Trazado 604" d="M3636.347,881.687c-5.112,4.3-11.6,8.521-17.155,8.246a15.194,15.194,0,0,1-3.742-.589c.732-6.483,4.153-26.5,4.153-26.5s-.025,12.542,2.4,17.614S3635.98,881.967,3636.347,881.687Z" fill="#ed7d2b"/>
      <path id="Trazado_605" data-name="Trazado 605" d="M3607.378,972.1s-.551,6.234.694,6.892l15.993.069s.012-1.947-2.554-2.4-7.068-2.065-7.808-5.6S3607.378,972.1,3607.378,972.1Z" fill="#233862"/>
      <path id="Trazado_606" data-name="Trazado 606" d="M3584.236,898.929s2.465,20.721,5.1,24.484c.517.74,6.043,17.79,10.594,31.99.452,1.41.9,2.791,1.321,4.126.458,1.429.9,2.8,1.31,4.1.474,1.487.917,2.873,1.315,4.126,1.3,4.091,2.144,6.741,2.144,6.741,1.258.849,11.83-1.178,11.83-1.178s-.132-2.8-.337-7.036c-.06-1.249-.129-2.624-.2-4.091l-.009-.16c-.054-1.083-.109-2.218-.169-3.387-.014-.272-.025-.547-.04-.824-.043-.883-.088-1.784-.137-2.7-.026-.515-.051-1.029-.077-1.549-.032-.661-.066-1.33-.1-2-.332-6.406-.684-12.99-.987-17.842-1.232-19.9-4.136-30.321-4.136-30.321Z" fill="#f27019"/>
      <path id="Trazado_607" data-name="Trazado 607" d="M3536.362,953.777l5.526,7.767s3.219-.572,7.945-1.849c1.455-.4,3.053-.858,4.742-1.39,1.027-.323,2.085-.669,3.168-1.046,1.481-.515,3.008-1.078,4.546-1.7,6.667-2.673,13.6-6.338,18.48-11.172,7.741-7.676,22.485-37.834,22.485-37.834l-28.6-16.625s-4.56,25.155-10.66,36.734c-1.279,2.424-6.427,7.656-11.939,12.879-1.17,1.112-2.353,2.219-3.522,3.3-.818.758-1.63,1.5-2.419,2.225-1.255,1.143-2.459,2.232-3.565,3.227C3538.952,951.53,3536.362,953.777,3536.362,953.777Z" fill="#f98732"/>
      <path id="Trazado_608" data-name="Trazado 608" d="M3548.535,942.844l9.208,14.415c1.481-.515,3.008-1.078,4.546-1.7l-10.232-16.018C3550.887,940.657,3549.7,941.764,3548.535,942.844Z" fill="#fff"/>
      <path id="Trazado_609" data-name="Trazado 609" d="M3542.551,948.3l7.282,11.4c1.455-.4,3.053-.858,4.742-1.39l-8.459-13.236C3544.861,946.212,3543.657,947.3,3542.551,948.3Z" fill="#fff"/>
      <path id="Trazado_610" data-name="Trazado 610" d="M3599.931,955.4c.452,1.41.9,2.791,1.321,4.126l15.844-1.71c-.043-.883-.088-1.784-.137-2.7-.026-.515-.051-1.029-.077-1.549Z" fill="#ebeef2"/>
      <path id="Trazado_611" data-name="Trazado 611" d="M3602.562,963.628c.474,1.487.917,2.873,1.315,4.126l13.637-1.473c-.06-1.249-.129-2.624-.2-4.091l-.009-.16Z" fill="#ebeef2"/>
      <g id="Grupo_699" data-name="Grupo 699">
        <path id="Trazado_612" data-name="Trazado 612" d="M3594.087,837.011s7.323,6.541,14.591,5.332c0,0,.338-1.007-1.185-3.6.433-1.366.787-2.555,1.035-3.57a34.008,34.008,0,0,0,.806-3.682l-4.163-4.309-3.943-4.119C3600.223,832.982,3594.087,837.011,3594.087,837.011Z" fill="#ffb27d"/>
        <path id="Trazado_613" data-name="Trazado 613" d="M3600.63,826.824s2.293,5.99,7.9,8.345a34.008,34.008,0,0,0,.806-3.682l-4.163-4.309Z" fill="#ed985f"/>
        <path id="Trazado_614" data-name="Trazado 614" d="M3611.483,831.618s-11.795.3-11.905-6.935S3597.87,812.6,3605.4,812.1s9.032,2.246,9.666,4.656S3614.549,831.352,3611.483,831.618Z" fill="#ffb27d"/>
        <path id="Trazado_615" data-name="Trazado 615" d="M3602.205,813.477c1.791,1.191-1.689,10.356-1.534,11.8a8.243,8.243,0,0,1-.866,3.52c-1.211-.165-1.823-1.563-1.569-3.527C3598.561,822.754,3600.921,812.622,3602.205,813.477Z" fill="#2c3a64"/>
      </g>
      <path id="Trazado_616" data-name="Trazado 616" d="M3614.833,911.124c-20.889,5.316-45.759-9.9-45.759-9.9,1.922-15.334,5.139-33.2,9.822-47.93a89.979,89.979,0,0,1,4.524-11.706c1.442-2.961,2.2-4.005,4.622-5,1.962-.812,7.015-1.461,11.862-.477,6.316,1.283,14.337,6.516,14.337,6.516C3626.6,852.585,3617.955,898.1,3614.833,911.124Z" fill="#f99746"/>
      <path id="Trazado_617" data-name="Trazado 617" d="M3605.6,834.922s-.226-.735.527-.792a6.783,6.783,0,0,0,2.11-.943.457.457,0,0,1,.489,0,1.892,1.892,0,0,1,.892,1.269c.134.964.532,3.432.532,3.432s.6,4.639-4.294,3.977S3605.6,834.922,3605.6,834.922Z" fill="#ed7d2b"/>
      <path id="Trazado_618" data-name="Trazado 618" d="M3594.566,835.592c.465-.958,3.083-4.733,3.912-4.593s2.023,3.352,5.36,3.746,3.682.1,3.818.982.279,5.964-.849,6.426S3592.058,840.759,3594.566,835.592Z" fill="#f99746"/>
      <path id="Trazado_619" data-name="Trazado 619" d="M3603,816.685s-2.493,11.709,2.444,14.144c0,0,1.308.356,2.135.477,0,0-4.807-2.322-1.347-13.88Z" fill="#2c3a64"/>
      <g id="Grupo_700" data-name="Grupo 700">
        <path id="Trazado_620" data-name="Trazado 620" d="M3617.562,820.282s-1.833.8-2.059.846-4.717.219-4.717.219l-2.677-.325c-3.919,8.45-13.767,6.79-13.767,6.79l2.781-6.565s-.262-8.115,4.72-10.3a11.652,11.652,0,0,1,12.881,2.176c.988,1.058,2.858,6.364,2.858,6.364Z" fill="#f99746"/>
        <path id="Trazado_621" data-name="Trazado 621" d="M3608.11,821.022s7.79,1.941,12.592,0a.367.367,0,0,0,.024-.683,16.584,16.584,0,0,0-3.143-.845S3614.177,821.54,3608.11,821.022Z" fill="#ed7d2b"/>
        <path id="Trazado_622" data-name="Trazado 622" d="M3608.109,821.022c-3.919,8.45-13.767,6.79-13.767,6.79l2.781-6.565S3600.139,822.636,3608.109,821.022Z" fill="#ed7d2b"/>
      </g>
      <path id="Trazado_623" data-name="Trazado 623" d="M3615.917,906.27q.276-1.317.568-2.792a86.008,86.008,0,0,1-18.029-.425,66.915,66.915,0,0,1-28.229-10.241q-.227,1.525-.438,3.03a66.892,66.892,0,0,0,14.162,6.75,72.593,72.593,0,0,0,13.927,3.187A88.936,88.936,0,0,0,3615.917,906.27Z" fill="#fff"/>
      <path id="Trazado_624" data-name="Trazado 624" d="M3617.265,899.352q.276-1.52.548-3.132a84.386,84.386,0,0,1-18.84.173,59.421,59.421,0,0,1-27.737-9.968q-.279,1.67-.54,3.327a59,59,0,0,0,13.594,6.708,64.481,64.481,0,0,0,13.988,3.007A87.151,87.151,0,0,0,3617.265,899.352Z" fill="#fff"/>
      <path id="Trazado_625" data-name="Trazado 625" d="M3607.124,841.86s.854,9.5,1.038,19.561-4.908,50.783-4.908,50.783l3.673.019s5.652-47.966,4.036-57.769-1.526-13.976-1.526-13.976Z" fill="#ed7d2b"/>
      <path id="Trazado_626" data-name="Trazado 626" d="M3588.831,853.676c-9.595,7.835-15.892,23.409-15.892,23.409v0q.642-3.249,1.308-6.261.7-3.154,1.42-6.042c.214-.864.422-1.67.62-2.424q.394-1.513.792-2.941c.3-1.091.606-2.15.907-3.169Z" fill="#ed7d2b"/>
      <g id="Grupo_702" data-name="Grupo 702">
        <rect id="Rectángulo_68" data-name="Rectángulo 68" width="21.52" height="19.807" transform="matrix(0.973, 0.233, -0.233, 0.973, 3542.791, 891.148)" fill="#1c468a"/>
        <path id="Trazado_627" data-name="Trazado 627" d="M3563.716,896.177a1.3,1.3,0,0,1-.244.5l-.017.022a2.421,2.421,0,0,1-.877.644,4.718,4.718,0,0,1-.622.236c-2.048.641-5.631.548-9.546-.387a22.522,22.522,0,0,1-8.032-3.407,8.067,8.067,0,0,1-.658-.565,4.786,4.786,0,0,1-.447-.494,2.419,2.419,0,0,1-.49-.97,1.323,1.323,0,0,1,0-.584,1.605,1.605,0,0,1,.735-.943,4.341,4.341,0,0,1,1.286-.532c2.083-.556,5.535-.433,9.285.464s6.883,2.346,8.493,3.785a4.368,4.368,0,0,1,.9,1.056A1.6,1.6,0,0,1,3563.716,896.177Z" fill="#233862"/>
        <g id="Grupo_701" data-name="Grupo 701">
          <path id="Trazado_628" data-name="Trazado 628" d="M3563.486,895a10.552,10.552,0,0,0-19.965-4.774,11.667,11.667,0,0,0-.739,1.526,2.386,2.386,0,0,0,.492.972,11.242,11.242,0,0,1,1.53-3.031,9.694,9.694,0,0,1,17.779,4.251,11.235,11.235,0,0,1-.006,3.4,2.4,2.4,0,0,0,.879-.644A11.73,11.73,0,0,0,3563.486,895Z" fill="#233862"/>
        </g>
        <path id="Trazado_629" data-name="Trazado 629" d="M3559.025,915.792c-.464,1.942-5.525,2.4-11.3,1.013s-10.089-4.075-9.624-6.016,5.525-2.4,11.3-1.013S3559.49,913.851,3559.025,915.792Z" fill="#1c468a"/>
        <path id="Trazado_630" data-name="Trazado 630" d="M3563.472,896.676l-.017.022a2.421,2.421,0,0,1-.877.644,4.718,4.718,0,0,1-.622.236c-2.048.641-5.631.548-9.546-.387a22.522,22.522,0,0,1-8.032-3.407,19.528,19.528,0,0,1,8.83-1.089c4.386.381,8.131,1.9,10.138,3.855Z" fill="#afcdfb"/>
      </g>
      <path id="Trazado_631" data-name="Trazado 631" d="M3556.525,881.3s3.915,6.209,2.243,6.987-5.554-.669-5.884-2,.244-5.89.244-5.89Z" fill="#ffb27d"/>
      <path id="Trazado_632" data-name="Trazado 632" d="M3552.782,881.071s.111-22.576,14.072-34.049c13.89-11.414,24.18-11.161,24.18-11.161s6.555,16.125,2.018,17.49c-4.659,1.4-11.668,5.482-16.766,9-10.231,7.067-19.3,18.716-19.3,18.716C3555.592,882.451,3552.782,881.071,3552.782,881.071Z" fill="#f99746"/>
    </g>
    <path id="Trazado_633" data-name="Trazado 633" d="M4115.86,818.293l-8.076,17.328-4.723,64.349,34.031,59.54-1.963,8.478c45.935-23.693,54.859-72.73,44.112-124.94q-1.478-7.184-3.531-14.88c-5.261-19.67-22.918-46.415-55.971-60.716C4129.2,786.512,4135.151,808.29,4115.86,818.293Z" fill="#f99746"/>
    <path id="Trazado_634" data-name="Trazado 634" d="M4179.241,843.048c-.009-.044-.019-.088-.028-.131-13.795-5.391-34.752-11.936-54.715-14.618-60.71-8.155-139.042,23.919-139.042,23.919l1.286,3.129c59.574-2.5,138.823,37.063,189.227,67.973C4185.111,900.075,4185.211,872.051,4179.241,843.048Z" fill="#fff" opacity="0.5"/>
    <path id="Trazado_635" data-name="Trazado 635" d="M4088.459,816.648s7.115-18.367-1.109-28.236-19.738-7.676-27.14-16.722c0,0-3.015,1.371,3.016,13.707S4089.842,795.54,4088.459,816.648Z" fill="#f27019"/>
    <g id="Grupo_709" data-name="Grupo 709">
      <path id="Trazado_636" data-name="Trazado 636" d="M3971.478,867.347s5.466-1.438,6.854-3.516c1.061-1.588-3.716-3.682-3.716-3.682l-5.36,3.336Z" fill="#f9c29d"/>
      <g id="Grupo_704" data-name="Grupo 704">
        <path id="Trazado_637" data-name="Trazado 637" d="M3905.683,845.234s9.031,3.855,15.53.383c0,0,0-1.062-2.276-3.034-.027-1.433-.072-2.673-.161-3.714a33.954,33.954,0,0,0-.415-3.747l-5.323-2.751-5.053-2.64C3910.207,839.453,3905.683,845.234,3905.683,845.234Z" fill="#ffb27d"/>
        <path id="Trazado_638" data-name="Trazado 638" d="M3908.623,833.489s4.089,4.942,10.153,5.38a33.954,33.954,0,0,0-.415-3.747l-5.323-2.751Z" fill="#ed985f"/>
        <path id="Trazado_639" data-name="Trazado 639" d="M3920.439,834.559s-11.077,4.063-13.5-2.762-5.482-10.9,1.489-13.779,9.275-.762,10.647,1.319S3923.258,833.326,3920.439,834.559Z" fill="#ffb27d"/>
        <path id="Trazado_640" data-name="Trazado 640" d="M3905.844,820.34c2.078.555,1.714,10.352,2.322,11.668a8.243,8.243,0,0,1,.306,3.612c-1.2.232-2.228-.9-2.616-2.84C3905.361,830.3,3904.354,819.941,3905.844,820.34Z" fill="#2c3a64"/>
      </g>
      <path id="Trazado_641" data-name="Trazado 641" d="M3972.323,867.883l-.006,0a53.589,53.589,0,0,1-29.228,6.127c-1.052-.1-2.121-.229-3.2-.407-23.022-3.776-18.117-29.683-18.117-29.683a11.373,11.373,0,0,1,8.046,1.544c4.161,2.523,10.447,10.235,17.013,13.505,5,2.493,23.186,4.608,23.186,4.608C3971.777,864.446,3972.323,867.883,3972.323,867.883Z" fill="#f99746"/>
      <path id="Trazado_642" data-name="Trazado 642" d="M3949.159,972.77s-.487,5.51.614,6.091l14.135.062s.011-1.722-2.257-2.119-6.247-1.825-6.9-4.954S3949.159,972.77,3949.159,972.77Z" fill="#233862"/>
      <path id="Trazado_643" data-name="Trazado 643" d="M3955.791,972.275s-6.475,2.009-7.779,1.236c0,0-1.918-4.141-4.66-10.025-.489-1.047-1-2.15-1.538-3.3-.493-1.058-1-2.153-1.528-3.273-.507-1.078-1.021-2.181-1.545-3.3-6.184-13.188-13.349-28.286-14.317-29.508-2.848-3.6-6.512-24.144-6.512-24.144l27.636,2.879s3.5,10.233,5.892,30.029c.583,4.826,1.319,11.381,2.02,17.757.13,1.188.26,2.368.385,3.531.133,1.191.26,2.365.382,3.5.133,1.222.26,2.4.381,3.533C3955.3,967.6,3955.791,972.275,3955.791,972.275Z" fill="#f27019"/>
      <path id="Trazado_644" data-name="Trazado 644" d="M3916.156,972.347s-.488,5.51.613,6.091l14.135.061s.011-1.721-2.257-2.119-6.247-1.825-6.9-4.953S3916.156,972.347,3916.156,972.347Z" fill="#233862"/>
      <path id="Trazado_645" data-name="Trazado 645" d="M3932.314,914.917c-.532,6.7-1.437,13.731-2.371,20.124-1,6.824-2.025,12.914-2.676,17.078-.178,1.132-.325,2.119-.438,2.942-.079.578-.176,1.18-.286,1.8-.184,1.044-.407,2.136-.653,3.234-.357,1.623-.761,3.253-1.155,4.744-.916,3.5-1.756,6.226-1.756,6.226a5.166,5.166,0,0,1-1.254.824,8.977,8.977,0,0,1-5.219.735h0c-.294-.039-.594-.09-.908-.156a43.9,43.9,0,0,1-2.571-7.629c-.368-1.366-.759-2.942-1.166-4.744q-.339-1.506-.69-3.234-.441-2.188-.894-4.744c-.7-3.994-1.409-8.684-2.068-14.158-.99-8.229-1.442-16.238-1.612-23.16-.312-12.716.328-21.766.328-21.766l21.98,1.341a37.045,37.045,0,0,1,2.32,6.979A44.019,44.019,0,0,1,3932.314,914.917Z" fill="#f98732"/>
      <path id="Trazado_646" data-name="Trazado 646" d="M3949.053,908.815c-18.091,11.72-46.525,5.256-46.525,5.256q-.551-2.721-1.043-5.347c-.136-.733-.272-1.463-.4-2.184-.051-.271-.1-.543-.147-.815-.079-.432-.158-.865-.232-1.292q-.153-.865-.3-1.723-.3-1.719-.563-3.386c-.911-5.638-1.612-10.883-2.136-15.709q-.348-3.213-.588-6.179c-.074-.888-.136-1.717-.19-2.495-.073-1.038-.135-2.054-.189-3.041q-.192-3.395-.238-6.382a90.029,90.029,0,0,1,.54-12.537c.419-3.268.8-4.5,2.779-6.221,1.6-1.4,6.178-3.627,11.086-4.246,6.393-.807,15.666,1.587,15.666,1.587,11.483,4.229,17.661,31.765,20.5,49.528.172,1.089.334,2.142.483,3.149.2,1.326.371,2.577.527,3.734.025.195.053.385.079.574.068.509.13,1,.189,1.465s.116.934.167,1.364C3948.886,906.976,3949.053,908.815,3949.053,908.815Z" fill="#f99746"/>
      <path id="Trazado_647" data-name="Trazado 647" d="M3915.922,839.572a.577.577,0,0,1,.246-.919,6.787,6.787,0,0,0,1.7-1.569.457.457,0,0,1,.465-.153,1.9,1.9,0,0,1,1.251.918c.434.87,1.6,3.081,1.6,3.081s2.057,4.2-2.8,5.141S3915.922,839.572,3915.922,839.572Z" fill="#ed7d2b"/>
      <path id="Trazado_648" data-name="Trazado 648" d="M3905.683,843.737c.134-1.057,1.407-5.471,2.237-5.6s2.989,2.528,6.277,1.834,3.52-1.083,3.931-.292,2.173,5.562,1.251,6.36S3904.96,849.435,3905.683,843.737Z" fill="#f99746"/>
      <path id="Trazado_649" data-name="Trazado 649" d="M3972.317,867.886a53.589,53.589,0,0,1-29.228,6.127c-.82-3.358-4.662-9.38-4.662-9.38C3949.081,873.957,3971.913,867.991,3972.317,867.886Z" fill="#ed7d2b"/>
      <path id="Trazado_650" data-name="Trazado 650" d="M3907.626,823.124s1.384,11.892,6.841,12.619c0,0,1.353-.081,2.175-.231,0,0-5.3-.662-5.717-12.72Z" fill="#2c3a64"/>
      <g id="Grupo_705" data-name="Grupo 705">
        <path id="Trazado_651" data-name="Trazado 651" d="M3922.571,821.874s-1.479,1.347-1.68,1.46-4.4,1.717-4.4,1.717l-2.639.549c-1.01,9.259-10.872,10.837-10.872,10.837l.535-7.109s-2.845-7.6,1.177-11.267a11.651,11.651,0,0,1,12.9-2.06c1.274.686,4.743,5.115,4.743,5.115Z" fill="#f99746"/>
        <path id="Trazado_652" data-name="Trazado 652" d="M3913.852,825.6s8-.653,11.93-4.033a.366.366,0,0,0-.2-.654,16.636,16.636,0,0,0-3.249.205S3919.767,824.148,3913.852,825.6Z" fill="#ed7d2b"/>
        <path id="Trazado_653" data-name="Trazado 653" d="M3913.853,825.6c-1.01,9.259-10.872,10.837-10.872,10.837l.535-7.109S3906.817,829.679,3913.853,825.6Z" fill="#ed7d2b"/>
      </g>
      <path id="Trazado_654" data-name="Trazado 654" d="M3927.267,952.119c-.178,1.132-.325,2.119-.438,2.942-.079.578-.176,1.18-.286,1.8h-15.375q-.441-2.188-.894-4.744Z" fill="#fff"/>
      <path id="Trazado_655" data-name="Trazado 655" d="M3925.89,960.1c-.357,1.623-.761,3.253-1.155,4.744h-11.711c-.368-1.366-.759-2.942-1.166-4.744Z" fill="#fff"/>
      <path id="Trazado_656" data-name="Trazado 656" d="M3953.845,954.165l-13.559,2.752c-.507-1.078-1.021-2.181-1.545-3.3l14.719-2.987C3953.59,951.822,3953.72,953,3953.845,954.165Z" fill="#ebeef2"/>
      <path id="Trazado_657" data-name="Trazado 657" d="M3954.608,961.2l-11.256,2.286c-.489-1.047-1-2.15-1.538-3.3l12.413-2.523C3954.36,958.889,3954.487,960.071,3954.608,961.2Z" fill="#ebeef2"/>
      <g id="Grupo_706" data-name="Grupo 706">
        <path id="Trazado_658" data-name="Trazado 658" d="M3948.512,903.915a86.714,86.714,0,0,1-17.233,5.259,72.573,72.573,0,0,1-14.216,1.437,63.96,63.96,0,0,1-15.578-1.887c-.136-.733-.272-1.463-.4-2.184-.051-.271-.1-.543-.147-.815a65.414,65.414,0,0,0,30.017.682,83.731,83.731,0,0,0,17.2-5.321c.068.509.13,1,.189,1.465S3948.461,903.485,3948.512,903.915Z" fill="#fff"/>
      </g>
      <g id="Grupo_707" data-name="Grupo 707">
        <path id="Trazado_659" data-name="Trazado 659" d="M3947.55,896.778a79,79,0,0,1-17.912,6.288,64.473,64.473,0,0,1-14.215,1.627,56.99,56.99,0,0,1-15.019-1.983q-.3-1.719-.563-3.386a58.228,58.228,0,0,0,29.472.608,76.428,76.428,0,0,0,17.754-6.3C3947.239,894.718,3947.4,895.771,3947.55,896.778Z" fill="#fff"/>
      </g>
      <path id="Trazado_660" data-name="Trazado 660" d="M3919.586,845.657s3.848,8.724,7.243,18.2,11.6,49.683,11.6,49.683l3.486-1.156s-9.992-47.254-14.66-56.024-5.918-12.754-5.918-12.754Z" fill="#ed7d2b"/>
      <g id="Grupo_708" data-name="Grupo 708">
        <path id="Trazado_661" data-name="Trazado 661" d="M3873.218,973.646c3.6-.087,7.418-.148,11.4-.183V977.7c-3.953.038-7.731.1-11.3.183a7.378,7.378,0,0,1-5.573-2.141c-3.632-3.58-4.057-10.787-3.994-17.364.1-10.65-6.429-20.179-15.368-23l.544-4.373a26.409,26.409,0,0,1,13.757,9.916,30.8,30.8,0,0,1,5.31,17.5c-.027,2.842-.112,11.5,2.728,14.3A3.23,3.23,0,0,0,3873.218,973.646Z" fill="#1c468a"/>
        <path id="Trazado_662" data-name="Trazado 662" d="M3944.621,875.065h-.006a28.39,28.39,0,0,0-10.365,4.844c-6.916,5.1-10.82,12.633-11.607,22.375l-.186,2.342c-1.036,13.06-2.459,30.944-7.037,45.759-5.612,18.145-14.826,27.345-27.384,27.345h-.17q-1.644-.009-3.287-.022v-4.244l3.315.022.139,0c10.634,0,18.266-7.969,23.332-24.357,4.441-14.368,5.839-31.981,6.862-44.841l.189-2.346c1.113-13.831,7.945-21.539,13.479-25.572a32.058,32.058,0,0,1,11.964-5.483l.378,2.086Z" fill="#1c468a"/>
      </g>
      <path id="Trazado_663" data-name="Trazado 663" d="M3923.078,886.627c-12.173,4.578-20.589.77-25.373-3.012q-.348-3.213-.588-6.179c-.074-.888-.136-1.717-.19-2.495-.073-1.038-.135-2.054-.189-3.041Z" fill="#ed7d2b"/>
      <path id="Trazado_664" data-name="Trazado 664" d="M3924.354,883.023s6.886-2.54,7.3-.743-1.807,5.293-3.174,5.341-5.711-1.462-5.711-1.462Z" fill="#ffb27d"/>
      <path id="Trazado_665" data-name="Trazado 665" d="M3923.078,886.628s-23.237,3.4-28.6-13.859c-3.706-11.927,3.511-23.793,3.511-23.793s12.746-2.522,13.139,2.2c.405,4.848-4.891,9.138-2.5,14.855,4.789,11.475,16.933,16.215,16.933,16.215C3926.617,883.9,3923.078,886.628,3923.078,886.628Z" fill="#f99746"/>
      <path id="Trazado_666" data-name="Trazado 666" d="M3987.021,855.191a1.135,1.135,0,0,0-.077-.753l-.747-1.563a1.153,1.153,0,0,0-1.534-.541l-.336.161a1.139,1.139,0,0,0-.613.76l-38.7,17.486a1.816,1.816,0,0,0-1.763-.115l-.306.146a1.818,1.818,0,0,0-.853,2.418l1.35,2.824a1.818,1.818,0,0,0,2.418.853l.305-.146a1.813,1.813,0,0,0,1.01-1.369l37.967-19.2a1.146,1.146,0,0,0,.926-.023l.337-.161a1.144,1.144,0,0,0,.614-.765l.01,0Z" fill="#233862"/>
      <path id="Trazado_667" data-name="Trazado 667" d="M3973.325,864.874c.022-.336,1.428-4.739,4-6.119s2.529,1.759,2.424,2.833a5.4,5.4,0,0,1-2.918,3.433C3975.577,865.425,3973.269,865.754,3973.325,864.874Z" fill="#f9c29d"/>
    </g>
    <rect id="Rectángulo_69" data-name="Rectángulo 69" width="725.59" height="1.488" rx="0.744" transform="translate(3436.306 977.755)" fill="#2e3552"/>
    <g id="Grupo_710" data-name="Grupo 710">
      <rect id="Rectángulo_70" data-name="Rectángulo 70" width="22.481" height="54.195" transform="translate(3820.552 919.7)" fill="#f27019"/>
      <path id="Trazado_668" data-name="Trazado 668" d="M3848.252,977.755h-32.919a5.621,5.621,0,0,1,5.621-5.62h21.678a5.62,5.62,0,0,1,5.62,5.62Z" fill="#ef671b"/>
      <rect id="Rectángulo_71" data-name="Rectángulo 71" width="35.193" height="7.627" transform="translate(3814.196 929.736)" fill="#f27019"/>
      <path id="Trazado_669" data-name="Trazado 669" d="M3821.287,912.524a23.7,23.7,0,0,0-.467,4.768h21.946a23.648,23.648,0,0,0-.468-4.768C3839.929,900.966,3823.656,900.966,3821.287,912.524Z" fill="#ef671b"/>
      <path id="Trazado_670" data-name="Trazado 670" d="M3843.167,921.841h-22.749a2.274,2.274,0,0,1-2.274-2.274h0a2.274,2.274,0,0,1,2.274-2.275h22.749a2.275,2.275,0,0,1,2.275,2.275h0A2.275,2.275,0,0,1,3843.167,921.841Z" fill="#ef671b"/>
      <rect id="Rectángulo_72" data-name="Rectángulo 72" width="0.937" height="50.582" transform="translate(3823.178 921.841)" fill="#dd530e"/>
      <rect id="Rectángulo_73" data-name="Rectángulo 73" width="1.712" height="50.582" transform="translate(3826.864 921.841)" fill="#dd530e"/>
      <rect id="Rectángulo_74" data-name="Rectángulo 74" width="0.937" height="50.582" transform="translate(3841.536 972.423) rotate(180)" fill="#dd530e"/>
      <rect id="Rectángulo_75" data-name="Rectángulo 75" width="1.712" height="50.582" transform="translate(3837.85 972.423) rotate(180)" fill="#dd530e"/>
      <rect id="Rectángulo_76" data-name="Rectángulo 76" width="2.622" height="50.582" transform="translate(3830.785 921.841)" fill="#dd530e"/>
    </g>
  </g>
</svg>
