<svg xmlns="http://www.w3.org/2000/svg" width="146.177" height="101.345" viewBox="0 0 146.177 101.345">
  <g id="Grupo_6741" data-name="Grupo 6741" transform="translate(-3454.605 -2007.261)">
    <g id="Grupo_762" data-name="Grupo 762">
      <path id="Rect치ngulo_78" data-name="Rect치ngulo 78" d="M0,0H11.08a1.974,1.974,0,0,1,1.974,1.974V4.019A1.974,1.974,0,0,1,11.08,5.993H0a0,0,0,0,1,0,0V0A0,0,0,0,1,0,0Z" transform="translate(3469.724 2039.158) rotate(-180)" fill="#cc3c1f"/>
      <path id="Trazado_781" data-name="Trazado 781" d="M3468.514,2033.166v3.763h-10.9a2.139,2.139,0,0,1-.941-.217v.295a2.151,2.151,0,0,0,2.151,2.151h10.9v-5.992Z" fill="#aa2f1b"/>
      <path id="Trazado_782" data-name="Trazado 782" d="M3541.265,2024.736l-39.293.076v-.036h-41.307l4.615,75.9s6.193,7.4,35.685,7.4c30.155,0,35.83-7.43,35.83-7.43Z" fill="#cc3c1f"/>
      <path id="Trazado_783" data-name="Trazado 783" d="M3537.52,2068.536c-1.845,4.714-8.653,7.941-19.689,9.332-6.408.808-25.894.808-32.3,0-11.036-1.391-17.549-4.744-19.689-9.332-2.209-4.736-3.21-4.16-3.21-4.16a34.74,34.74,0,0,0,1.467,4.949c2.157,5.51,9.3,9.065,21.235,10.565a104.021,104.021,0,0,0,12.659.739h7.378a104.027,104.027,0,0,0,12.659-.739c10.267-1.291,16.988-4.1,20.039-8.371l.333-5.661A27.558,27.558,0,0,1,3537.52,2068.536Z" fill="#aa2f1b"/>
      <path id="Rect치ngulo_79" data-name="Rect치ngulo 79" d="M0,0H11.08a1.974,1.974,0,0,1,1.974,1.974V4.019A1.974,1.974,0,0,1,11.08,5.993H0a0,0,0,0,1,0,0V0A0,0,0,0,1,0,0Z" transform="translate(3532.947 2033.166)" fill="#cc3c1f"/>
      <path id="Trazado_784" data-name="Trazado 784" d="M3544.791,2033.382v1.4a2.152,2.152,0,0,1-2.152,2.152h-9.692v2.229h10.9a2.151,2.151,0,0,0,2.152-2.151v-1.69A2.154,2.154,0,0,0,3544.791,2033.382Z" fill="#aa2f1b"/>
      <path id="Trazado_785" data-name="Trazado 785" d="M3528.341,2024.761l-4.353,73.934s-5.675,7.43-35.83,7.43c-4.38,0-8.245-.163-11.653-.441,5.416,1.325,13.257,2.392,24.46,2.392,30.155,0,35.83-7.43,35.83-7.43l4.47-75.91Z" fill="#aa2f1b"/>
      <path id="Trazado_786" data-name="Trazado 786" d="M3541.265,2024.736c0,3.592-18.043,6.5-40.3,6.5s-40.3-2.912-40.3-6.5,18.043-6.5,40.3-6.5S3541.265,2021.145,3541.265,2024.736Z" fill="#ff4729"/>
      <path id="Trazado_787" data-name="Trazado 787" d="M3538.732,2023.82c0,3.085-16.909,5.587-37.767,5.587s-37.767-2.5-37.767-5.587,16.909-8.58,37.767-8.58S3538.732,2020.734,3538.732,2023.82Z" fill="#cc3c1f"/>
      <path id="Trazado_788" data-name="Trazado 788" d="M3512.657,2015.812c11.162,1.857,18.654,4.978,18.654,7.032,0,3.086-16.909,5.587-37.767,5.587-7.838,0-15.117-.353-21.152-.958a182,182,0,0,0,28.573,1.934c20.858,0,37.767-2.5,37.767-5.587C3538.732,2021.338,3527.792,2017.3,3512.657,2015.812Z" fill="#aa2f1b"/>
      <path id="Trazado_789" data-name="Trazado 789" d="M3467.677,2038.31c-.786,1.5-.562,3.225-.322,4.855q1.982,13.466,3.964,26.933c.238,1.618.856,3.606,2.722,3.916a3.176,3.176,0,0,0,3.233-1.823,6.7,6.7,0,0,0,.27-3.56c-.775-7.247-1.733-14.563-.615-21.777a16.982,16.982,0,0,0,.371-5.92C3476.565,2037.28,3470.246,2033.419,3467.677,2038.31Z" fill="#ff4729"/>
      <path id="Trazado_790" data-name="Trazado 790" d="M3473.1,2085.587a16.807,16.807,0,0,0,.724,3.087,18.754,18.754,0,0,1,.645,4.245,10.085,10.085,0,0,0,.261,2.606,2.522,2.522,0,0,0,1.727,1.813,2.466,2.466,0,0,0,2.548-1.511,7.225,7.225,0,0,0,.462-3.135q-.006-2.986-.012-5.974c0-1.841-.688-4.256-2.756-4.742C3474.438,2081.444,3472.946,2083.569,3473.1,2085.587Z" fill="#ff4729"/>
      <path id="Trazado_791" data-name="Trazado 791" d="M3503.252,2018.06s-.236,1.454-3.474,1.454c-3.333,0-3.925-1.454-3.925-1.454v-7.4h7.4Z" fill="#cc3c1f"/>
      <path id="Trazado_792" data-name="Trazado 792" d="M3501.89,2009.9v6.821s-.235,1.454-3.474,1.454a8.155,8.155,0,0,1-1.937-.207,5.693,5.693,0,0,0,3.3.785c3.238,0,3.474-1.454,3.474-1.454v-7.4Z" fill="#aa2f1b"/>
      <path id="Trazado_793" data-name="Trazado 793" d="M3495.853,2013.083a7.029,7.029,0,0,1,4.012.657c1.508.986,2.917,1.775,2.917,1.775l-.423-3.5-6.477-1Z" fill="#aa2f1b"/>
      <path id="Trazado_794" data-name="Trazado 794" d="M3506.844,2010.074c0,1.554-3.264,2.814-7.292,2.814s-7.292-1.26-7.292-2.814,3.265-2.813,7.292-2.813S3506.844,2008.52,3506.844,2010.074Z" fill="#cc3c1f"/>
      <path id="Trazado_795" data-name="Trazado 795" d="M3495.479,2008.568a2.961,2.961,0,0,0-1.039.477,1.027,1.027,0,0,0-.393,1.014,1.067,1.067,0,0,0,1.07.671c1.217-.013,2.038-1.286,3.2-1.659a11.6,11.6,0,0,0,2.007-.452c.059-.032.124-.08.123-.147-.009-.617-1.647-.655-2.046-.6A17.954,17.954,0,0,0,3495.479,2008.568Z" fill="#ff4729"/>
      <path id="Trazado_796" data-name="Trazado 796" d="M3471.964,2020.548a5.223,5.223,0,0,0-1.4.909,2.122,2.122,0,0,0-.685,1.478,1.254,1.254,0,0,0,.19.679,1.582,1.582,0,0,0,1.417.564,8,8,0,0,0,3.6-1.573c3.8-2.306,8.244-3.287,12.611-4.133a1.751,1.751,0,0,0,.638-.213.589.589,0,0,0,.287-.57.684.684,0,0,0-.349-.425,2.711,2.711,0,0,0-1.528-.277,14.6,14.6,0,0,0-2.4.45c-1.018.208-2.072.29-3.1.455a41.472,41.472,0,0,0-6.051,1.367A23.762,23.762,0,0,0,3471.964,2020.548Z" fill="#ff4729"/>
      <path id="Trazado_797" data-name="Trazado 797" d="M3490.48,2017.228a.47.47,0,0,0-.093.3c.021.165.186.27.34.333a4.554,4.554,0,0,0,2.71-.051.706.706,0,0,0,.473-.249c.151-.241-.037-.555-.256-.735A2.248,2.248,0,0,0,3490.48,2017.228Z" fill="#ff4729"/>
      <path id="Trazado_798" data-name="Trazado 798" d="M3548.2,2035.914a1.052,1.052,0,0,0-1.08-1h-.016a1.048,1.048,0,0,0-1.065,1.031c0,.159.2,15.99-3.643,24.588-2.108,4.714-9.888,7.941-22.5,9.332-7.323.808-29.59.808-36.913,0-12.611-1.391-20.391-4.618-22.5-9.332-3.846-8.6-3.646-24.429-3.643-24.588a1.048,1.048,0,0,0-1.065-1.031h-.016a1.051,1.051,0,0,0-1.08,1c-.01.665-.209,16.413,3.812,25.406,2.465,5.509,10.629,9.064,24.266,10.565a135.917,135.917,0,0,0,14.466.739h8.431a135.917,135.917,0,0,0,14.466-.739c13.637-1.5,21.8-5.056,24.266-10.565C3548.413,2052.327,3548.214,2036.579,3548.2,2035.914Z" fill="#b8bbcc"/>
      <path id="Trazado_799" data-name="Trazado 799" d="M3545.907,2034.689c.027.1.133,2.664.133,2.664s.239-.326.963.543a10.173,10.173,0,0,0,1.205,1.262s.337-4.2,0-4.469S3545.907,2034.689,3545.907,2034.689Z" fill="#9799a5"/>
      <path id="Trazado_800" data-name="Trazado 800" d="M3454.682,2036.3s-.02-.519.713,0a7.6,7.6,0,0,1,1.462,1.579l.086-3.613s-2.089-.324-2.261,0A7.9,7.9,0,0,0,3454.682,2036.3Z" fill="#9799a5"/>
    </g>
    <g id="Grupo_764" data-name="Grupo 764">
      <path id="Trazado_801" data-name="Trazado 801" d="M3592.852,2065.153c0-1.049,2.38-.312,3.487.03,1.88.58,1.986,1.192,1.986,1.192h0l.37,2.3-6.017.91Z" fill="#18191c"/>
      <path id="Trazado_802" data-name="Trazado 802" d="M3532.02,2038.031l10.746,64.091s3.635,3.635,10.9,5.373c6.194,1.482,17.511,1.482,23.705,0,7.27-1.738,10.9-5.373,10.9-5.373l10.747-64.091Z" fill="#efc13f"/>
      <path id="Trazado_803" data-name="Trazado 803" d="M3533.028,2044.041s5.345,6.445,35.872,10.383a125.382,125.382,0,0,0,27.33.289l2.095-12.494Z" fill="#ddac31"/>
      <g id="Grupo_763" data-name="Grupo 763">
        <path id="Trazado_804" data-name="Trazado 804" d="M3530.285,2038.031l-.02,4.188s2.1,2.9,11.407,3.818,23.851.689,23.851.689v-9.306Z" fill="#efc13f"/>
        <path id="Trazado_805" data-name="Trazado 805" d="M3600.762,2038.031l-35.239-.611v9.306s14.546.23,23.851-.69,11.407-3.817,11.407-3.817Z" fill="#efc13f"/>
      </g>
      <path id="Trazado_806" data-name="Trazado 806" d="M3530.285,2038.031c-.764,4,19.78,5.729,35.238,5.848s34.39-1.512,35.238-5.848c.665-3.4-14.656-4.667-35.238-4.583C3545.677,2033.529,3530.867,2034.989,3530.285,2038.031Z" fill="#ddac31"/>
      <path id="Trazado_807" data-name="Trazado 807" d="M3566.981,2043.008c-4.41-.843-8.9-1.53-13.071-3.017a21.245,21.245,0,0,1-8.54-5.165c-8.91.622-14.6,1.713-14.954,3.313-.764,3.436,19.78,4.925,35.238,5.027q.981.006,1.98.005A5.747,5.747,0,0,0,3566.981,2043.008Z" fill="#c9992f"/>
      <path id="Trazado_808" data-name="Trazado 808" d="M3565.523,2033.448c-19.846.081-34.656,1.541-35.238,4.583-.764,4,19.78,5.729,35.238,5.848s34.39-1.512,35.238-5.848C3601.426,2034.634,3586.1,2033.364,3565.523,2033.448Zm32.269,4.252c-.777,3.348-18.113,4.606-32.269,4.515s-32.968-1.43-32.268-4.515c.532-2.35,14.094-3.477,32.268-3.539C3584.371,2034.1,3598.4,2035.076,3597.792,2037.7Z" fill="#fcde32"/>
      <path id="Trazado_809" data-name="Trazado 809" d="M3549.08,2048.231a3.415,3.415,0,0,0,.828,1.129,4.819,4.819,0,0,0,2.256.912,6.845,6.845,0,0,0,1.9.172,2.807,2.807,0,0,0,1.728-.718,4.345,4.345,0,0,0,.915-3.02q.026-.562.049-1.125a.49.49,0,0,0-.061-.324.469.469,0,0,0-.26-.138,9.337,9.337,0,0,0-2.868-.161q-1.209.06-2.417.128a5.652,5.652,0,0,0-2.045.193C3548.138,2045.774,3548.744,2047.528,3549.08,2048.231Z" fill="#efc13f"/>
      <path id="Trazado_810" data-name="Trazado 810" d="M3551.744,2047.228a1.025,1.025,0,0,0-.074.433,1.664,1.664,0,0,0,.482,1.244.964.964,0,0,0,1.251.056,1.3,1.3,0,0,0,.333-.828,1.659,1.659,0,0,0-.138-.978A1.142,1.142,0,0,0,3551.744,2047.228Z" fill="#c9992f"/>
      <path id="Trazado_811" data-name="Trazado 811" d="M3539.668,2057.5q1.919,9.7,2.914,19.562a14.192,14.192,0,0,0,.857,4.242,4.593,4.593,0,0,0,3.1,2.806,2.253,2.253,0,0,0,1.855-.358,3.09,3.09,0,0,0,.852-2.335,32.924,32.924,0,0,0-.69-7.312c-.844-4.71-1.925-9.422-1.88-14.206.027-2.854-.461-5.529-3.573-6.543C3540.266,2052.434,3539.2,2055.115,3539.668,2057.5Z" fill="#fff" opacity="0.3"/>
      <path id="Trazado_812" data-name="Trazado 812" d="M3544.35,2090.312a6.553,6.553,0,0,0,.487,3.954c.512,1.273,1.443,2.6,2.812,2.7a2.873,2.873,0,0,0,2.722-2.228,6.892,6.892,0,0,0-.289-3.747,5.572,5.572,0,0,0-.93-2C3547.552,2087.044,3544.911,2088.025,3544.35,2090.312Z" fill="#fff" opacity="0.3"/>
      <path id="Trazado_813" data-name="Trazado 813" d="M3555.934,2053.714a28.4,28.4,0,0,0,7.868,9.121c5.145,4.024,13.985,8.432,19.351,9.152a58.742,58.742,0,0,0,10.147.574l.631-3.248-17.584-3.6-14.19-7.506Z" fill="#ddac31"/>
      <path id="Trazado_814" data-name="Trazado 814" d="M3551.769,2048.425s7.455,10.611,14.17,14.2c16.446,8.794,27.635,7.882,30.446,7.717s3.223-.744,3.223-.744l-1.283-3.224a17.337,17.337,0,0,1-4.7.387c-9.355-.425-21.772-3.923-27.016-6.7-4.669-2.47-12.869-11.931-12.869-11.931s-.106-.523-1.069-.523C3551.669,2047.61,3551.769,2048.425,3551.769,2048.425Z" fill="#2c2e35"/>
    </g>
  </g>
</svg>
