<svg xmlns="http://www.w3.org/2000/svg" width="134.338" height="138.653" viewBox="0 0 134.338 138.653">
  <g id="Grupo_6740" data-name="Grupo 6740" transform="translate(-3474.018 -1608.435)">
    <g id="Grupo_712" data-name="Grupo 712">
      <path id="Trazado_677" data-name="Trazado 677" d="M3502.5,1631.384c4.179-2.251,8.485-4.277,12.611-6.621a124.566,124.566,0,0,0,19.648-14.193c1.212-1.045,2.58-2.17,4.2-2.134a6.535,6.535,0,0,1,3.153,1.237l11.377,6.983c18.781,11.527,37.657,21.536,54.283,35.875,0,3.648-9.476,2.68-11.569,6.446a11.384,11.384,0,0,1-1.37,2.411,6.285,6.285,0,0,1-3.7,1.48c-17.286,2.818-34.809,4-52.318,4.767a18.826,18.826,0,0,1-5.813-.356,33.278,33.278,0,0,1-5.385-2.494c-4.356-2.087-9.288-2.643-14.1-3.235q-9.144-1.124-18.245-2.56a28.3,28.3,0,0,1-8.118-2.147c-2.383-1.167-4.458-3-7.04-3.65-1.867-.472-8.04-.024-5.483-3.376,1.972-2.586,6.282-4.653,8.964-6.532A191.083,191.083,0,0,1,3502.5,1631.384Z" fill="#fbbd56"/>
      <path id="Trazado_678" data-name="Trazado 678" d="M3607.772,1652.573c-16.626-14.339-35.5-24.348-54.283-35.875l-11.377-6.983a8.525,8.525,0,0,0-2.388-1.135,5.106,5.106,0,0,1,1.2,2.454c.05,1.565-.641,3.066-.763,4.628-.3,3.77,2.647,6.957,5.385,9.633l6.04,5.9c1.671,1.634,3.45,3.5,3.545,5.8.083,2.006-1.157,3.955-.8,5.932.532,2.957,4.053,4.175,6.709,5.689,3.22,1.837,5.739,4.8,9.2,6.166,3.329,1.316,7.151.995,10.488,2.293,3.039,1.182,5.558,3.662,8.795,4.125,1.559.224,3.285-.015,4.608.8a3.447,3.447,0,0,0,.713-.574,11.388,11.388,0,0,0,1.37-2.411C3598.3,1655.253,3607.772,1656.22,3607.772,1652.573Z" fill="#e0a54f"/>
      <path id="Trazado_679" data-name="Trazado 679" d="M3523.064,1642.921c-1.942,2.308-4.522,4.125-6.029,6.724-.982,1.693-1.461,3.648-2.6,5.247a12.833,12.833,0,0,1-4.08,3.421,34.464,34.464,0,0,1-4.088,2.054q-.195.083-.4.159,3.921.54,7.851,1.024a71.729,71.729,0,0,1,9.511,1.583,13.064,13.064,0,0,0,1.478-3.457,33.764,33.764,0,0,1,2.04-4.807,14.792,14.792,0,0,0,1.832-4.407,19.454,19.454,0,0,0-.328-4.862c-.416-4.164.846-8.326,2.566-12.158C3527.28,1635.6,3525.712,1639.772,3523.064,1642.921Z" fill="#e0a54f"/>
      <path id="Trazado_680" data-name="Trazado 680" d="M3517.671,1625.3c-2.624,1.813-5.388,3.794-6.537,6.726a1.038,1.038,0,0,0-.032.94,1.02,1.02,0,0,0,.874.337,8.572,8.572,0,0,0,3.862-1.4,29.293,29.293,0,0,1,10.192-3.168c2.191-.259,4.609-.209,6.338,1.129.807.624,1.4,1.487,2.25,2.055a4.21,4.21,0,0,0,4.664-.084,3.973,3.973,0,0,0,1.439-4.331,12.28,12.28,0,0,0-1.642-2.748,10.736,10.736,0,0,1-1.45-8.2,3.114,3.114,0,0,0,.039-2.235c-1.562-2.748-6.384,1.471-7.825,2.544C3525.9,1619.815,3521.725,1622.5,3517.671,1625.3Z" fill="#fad093" opacity="0.48"/>
      <path id="Trazado_681" data-name="Trazado 681" d="M3503.255,1635.1c-5.689,2.875-11.387,5.755-16.8,9.1a17.091,17.091,0,0,0-4.587,3.694,1.485,1.485,0,0,0-.376.759c-.054.63.628,1.083,1.258,1.23,2.022.469,4.021-.683,5.816-1.7a64.986,64.986,0,0,1,9.732-4.517c3.129-1.148,6.767-2.221,8.9-4.911C3509.954,1635.281,3506.633,1633.393,3503.255,1635.1Z" fill="#fad093" opacity="0.48"/>
    </g>
    <g id="Grupo_761" data-name="Grupo 761">
      <path id="Trazado_682" data-name="Trazado 682" d="M3484.234,1717.68l10.116-8.346.893.341,3.686-1.509,1.547-5.137,8.981-2.035,6.213-3.28,10.091-6.473,15.129-11.663,2.9-4.8,5.447,4.774,7.631-.907,4.916,2.134,6.023,3.259,8.016,1.4,2.088,5.065,2.874,1.072,5.378,7.174,2.052,4.261,4.711,5.894,6.746,3.756,3.777,4.174,3.389,12.113-12.194,2.153-6.289,5.113-9.111-.357-14.085,2.612-11.121,2.28-9.5,1.146-11.989-5.53-10.664,1.633-11.44,1.627h0l-10.369-1.7-9.369-6.57Z" fill="#c1af8a"/>
      <g id="Grupo_713" data-name="Grupo 713">
        <path id="Trazado_683" data-name="Trazado 683" d="M3500.389,1723.266l-6.38,8.141,5.012,6.577,11.476-.671,3.44-10.969-8.625-6.811Z" fill="#d8c498"/>
        <path id="Trazado_684" data-name="Trazado 684" d="M3494.01,1731.406l-1.264,7.888,10.072,3.768,10.255-2.215.865-14.505-3.44,10.969-8.792-.331Z" fill="#b7a683"/>
      </g>
      <g id="Grupo_714" data-name="Grupo 714">
        <path id="Trazado_685" data-name="Trazado 685" d="M3521.922,1699.018l-10.23,1.524-.883,8.222,8.794,7.4,10.04-5.6-1.58-10.876Z" fill="#d8c498"/>
        <path id="Trazado_686" data-name="Trazado 686" d="M3511.692,1700.543l-6.342,4.858,4.723,9.662,8.969,5.443,10.6-9.937-10.04,5.6-6.156-6.286Z" fill="#b7a683"/>
      </g>
      <g id="Grupo_715" data-name="Grupo 715">
        <path id="Trazado_687" data-name="Trazado 687" d="M3571.833,1736.824l7.7,2.147,3.214-5.528-3.877-8-8.855.79-2.312,8.178Z" fill="#d8c498"/>
        <path id="Trazado_688" data-name="Trazado 688" d="M3579.538,1738.972l6.009-1.432-.29-8.311-4.618-6.67-10.618,3.676,8.855-.79,2.367,6.379Z" fill="#b7a683"/>
      </g>
      <g id="Grupo_716" data-name="Grupo 716">
        <path id="Trazado_689" data-name="Trazado 689" d="M3560.8,1742.249l7.7,2.147,3.214-5.528-3.877-8-8.855.79-2.312,8.178Z" fill="#d8c498"/>
        <path id="Trazado_690" data-name="Trazado 690" d="M3568.5,1744.4l6.009-1.432-.29-8.311-4.618-6.67-10.618,3.676,8.855-.79,2.366,6.379Z" fill="#b7a683"/>
      </g>
      <g id="Grupo_717" data-name="Grupo 717">
        <path id="Trazado_691" data-name="Trazado 691" d="M3526.315,1738.138l7.7,2.147,3.214-5.528-3.877-8-8.854.79-2.312,8.178Z" fill="#d8c498"/>
        <path id="Trazado_692" data-name="Trazado 692" d="M3534.019,1740.285l6.009-1.432-.29-8.311-4.618-6.67-10.618,3.676,8.854-.79,2.367,6.379Z" fill="#b7a683"/>
      </g>
      <g id="Grupo_718" data-name="Grupo 718">
        <path id="Trazado_693" data-name="Trazado 693" d="M3548.937,1722.093l7.7,2.147,3.214-5.528-3.877-8-8.854.79-2.312,8.178Z" fill="#d8c498"/>
        <path id="Trazado_694" data-name="Trazado 694" d="M3556.641,1724.24l6.009-1.432-.29-8.311-4.618-6.67-10.618,3.676,8.854-.79,2.367,6.379Z" fill="#b7a683"/>
      </g>
      <g id="Grupo_719" data-name="Grupo 719">
        <path id="Trazado_695" data-name="Trazado 695" d="M3555.666,1700.495l7.7,2.147,3.214-5.528-3.877-8-8.854.79-2.312,8.178Z" fill="#d8c498"/>
        <path id="Trazado_696" data-name="Trazado 696" d="M3563.37,1702.642l6.009-1.432-.29-8.311-4.618-6.67-10.618,3.676,8.854-.79,2.367,6.379Z" fill="#b7a683"/>
      </g>
      <g id="Grupo_720" data-name="Grupo 720">
        <path id="Trazado_697" data-name="Trazado 697" d="M3526.137,1695.4l7.7,2.147,3.214-5.528-3.877-8-8.854.79-2.312,8.178Z" fill="#d8c498"/>
        <path id="Trazado_698" data-name="Trazado 698" d="M3533.842,1697.551l6.009-1.432-.29-8.311-4.618-6.67-10.618,3.676,8.854-.79,2.367,6.379Z" fill="#b7a683"/>
      </g>
      <g id="Grupo_721" data-name="Grupo 721">
        <path id="Trazado_699" data-name="Trazado 699" d="M3594.642,1731.1l7.7,2.147,3.214-5.528-3.877-8-8.855.79-2.312,8.178Z" fill="#d8c498"/>
        <path id="Trazado_700" data-name="Trazado 700" d="M3602.346,1733.243l6.009-1.432-.29-8.311-4.618-6.67-10.618,3.676,8.855-.79,2.366,6.379Z" fill="#b7a683"/>
      </g>
      <g id="Grupo_722" data-name="Grupo 722">
        <path id="Trazado_701" data-name="Trazado 701" d="M3481.494,1726.612l7.7,2.147,3.214-5.528-3.877-8-8.854.79-2.312,8.178Z" fill="#d8c498"/>
        <path id="Trazado_702" data-name="Trazado 702" d="M3489.2,1728.759l6.009-1.432-.29-8.311-4.618-6.67-10.618,3.676,8.854-.79,2.367,6.379Z" fill="#b7a683"/>
      </g>
      <g id="Grupo_723" data-name="Grupo 723">
        <path id="Trazado_703" data-name="Trazado 703" d="M3577.895,1711.532l7.7,2.147,3.214-5.528-3.877-8-8.854.79-2.312,8.178Z" fill="#d8c498"/>
        <path id="Trazado_704" data-name="Trazado 704" d="M3585.6,1713.679l6.009-1.432-.29-8.311-4.618-6.67-10.618,3.676,8.854-.79,2.367,6.379Z" fill="#b7a683"/>
      </g>
      <g id="Grupo_724" data-name="Grupo 724">
        <path id="Trazado_705" data-name="Trazado 705" d="M3486.185,1711.121l2.483,3.577,4.226-2.958-.3-5.046Z" fill="#efd9ab"/>
        <path id="Trazado_706" data-name="Trazado 706" d="M3486.185,1711.121l1.553,6.569,5.052,2.255,3.354-6.98-3.546-6.272.3,5.046-4.226,2.958Z" fill="#b7a683"/>
      </g>
      <g id="Grupo_725" data-name="Grupo 725">
        <path id="Trazado_707" data-name="Trazado 707" d="M3509.573,1735.94l2.483,3.577,4.226-2.958-.3-5.046Z" fill="#d8c498"/>
        <path id="Trazado_708" data-name="Trazado 708" d="M3509.573,1735.94l1.553,6.569,5.052,2.255,3.355-6.98-3.546-6.272.3,5.046-4.226,2.958Z" fill="#b7a683"/>
      </g>
      <g id="Grupo_726" data-name="Grupo 726">
        <path id="Trazado_709" data-name="Trazado 709" d="M3538.9,1717.256l2.483,3.577,4.225-2.958-.3-5.046Z" fill="#d8c498"/>
        <path id="Trazado_710" data-name="Trazado 710" d="M3538.9,1717.256l1.553,6.569,5.052,2.255,3.355-6.98-3.546-6.272.3,5.046-4.225,2.958Z" fill="#b7a683"/>
      </g>
      <g id="Grupo_727" data-name="Grupo 727">
        <path id="Trazado_711" data-name="Trazado 711" d="M3551.164,1736.049l2.483,3.577,4.225-2.958-.3-5.046Z" fill="#d8c498"/>
        <path id="Trazado_712" data-name="Trazado 712" d="M3551.164,1736.049l1.553,6.569,5.052,2.255,3.355-6.98-3.546-6.272.3,5.046-4.225,2.958Z" fill="#b7a683"/>
      </g>
      <g id="Grupo_728" data-name="Grupo 728">
        <path id="Trazado_713" data-name="Trazado 713" d="M3588.12,1717.07l2.483,3.577,4.225-2.958-.3-5.046Z" fill="#d8c498"/>
        <path id="Trazado_714" data-name="Trazado 714" d="M3588.12,1717.07l1.553,6.569,5.052,2.255,3.355-6.98-3.546-6.272.3,5.046-4.225,2.958Z" fill="#b7a683"/>
      </g>
      <g id="Grupo_729" data-name="Grupo 729">
        <path id="Trazado_715" data-name="Trazado 715" d="M3535.16,1695.677l2.483,3.577,4.225-2.958-.3-5.046Z" fill="#efd9ab"/>
        <path id="Trazado_716" data-name="Trazado 716" d="M3535.16,1695.677l1.553,6.569,5.052,2.255,3.355-6.98-3.546-6.272.3,5.046-4.225,2.958Z" fill="#b7a683"/>
      </g>
      <g id="Grupo_730" data-name="Grupo 730">
        <path id="Trazado_717" data-name="Trazado 717" d="M3532.666,1680.224l2.484,3.577,4.225-2.958-.3-5.046Z" fill="#d8c498"/>
        <path id="Trazado_718" data-name="Trazado 718" d="M3532.666,1680.224l1.553,6.569,5.052,2.255,3.355-6.98-3.546-6.272.3,5.046-4.225,2.958Z" fill="#b7a683"/>
      </g>
      <g id="Grupo_731" data-name="Grupo 731">
        <path id="Trazado_719" data-name="Trazado 719" d="M3565.382,1699.635l2.484,3.577,4.225-2.958-.3-5.046Z" fill="#d8c498"/>
        <path id="Trazado_720" data-name="Trazado 720" d="M3565.382,1699.635l1.553,6.569,5.052,2.255,3.355-6.98-3.546-6.272.3,5.046-4.225,2.958Z" fill="#b7a683"/>
      </g>
      <g id="Grupo_732" data-name="Grupo 732">
        <path id="Trazado_721" data-name="Trazado 721" d="M3513.306,1693.143l2.483,3.577,4.225-2.958-.3-5.046Z" fill="#efd9ab"/>
        <path id="Trazado_722" data-name="Trazado 722" d="M3513.306,1693.143l1.553,6.569,5.052,2.255,3.355-6.98-3.546-6.272.3,5.046-4.225,2.958Z" fill="#b7a683"/>
      </g>
      <g id="Grupo_733" data-name="Grupo 733">
        <path id="Trazado_723" data-name="Trazado 723" d="M3512.1,1720.947l2.484,3.577,4.225-2.958-.3-5.046Z" fill="#efd9ab"/>
        <path id="Trazado_724" data-name="Trazado 724" d="M3512.1,1720.947l1.553,6.569,5.052,2.255,3.354-6.98-3.546-6.272.3,5.046-4.225,2.958Z" fill="#b7a683"/>
      </g>
      <g id="Grupo_734" data-name="Grupo 734">
        <path id="Trazado_725" data-name="Trazado 725" d="M3547.7,1682.507l3.271-.066-.094-3.874-3.279-1.914Z" fill="#d8c498"/>
        <path id="Trazado_726" data-name="Trazado 726" d="M3547.7,1682.507l4.755,1.76,3.511-2.223-2.971-5-5.4-.39,3.279,1.914.094,3.874Z" fill="#b7a683"/>
      </g>
      <g id="Grupo_735" data-name="Grupo 735">
        <path id="Trazado_727" data-name="Trazado 727" d="M3538.986,1690.737l3.271-.066-.094-3.874-3.279-1.914Z" fill="#d8c498"/>
        <path id="Trazado_728" data-name="Trazado 728" d="M3538.986,1690.737l4.755,1.76,3.511-2.223-2.971-5-5.4-.39,3.279,1.914.094,3.874Z" fill="#b7a683"/>
      </g>
      <g id="Grupo_736" data-name="Grupo 736">
        <path id="Trazado_729" data-name="Trazado 729" d="M3559.5,1712.728l3.271-.066-.093-3.874-3.28-1.914Z" fill="#d8c498"/>
        <path id="Trazado_730" data-name="Trazado 730" d="M3559.5,1712.728l4.755,1.76,3.511-2.223-2.971-5-5.4-.39,3.28,1.914.093,3.874Z" fill="#b7a683"/>
      </g>
      <g id="Grupo_737" data-name="Grupo 737">
        <path id="Trazado_731" data-name="Trazado 731" d="M3530.895,1712.489l3.271-.066-.093-3.874-3.28-1.914Z" fill="#d8c498"/>
        <path id="Trazado_732" data-name="Trazado 732" d="M3530.895,1712.489l4.755,1.76,3.511-2.223-2.971-5-5.4-.39,3.28,1.914.093,3.874Z" fill="#b7a683"/>
      </g>
      <g id="Grupo_738" data-name="Grupo 738">
        <path id="Trazado_733" data-name="Trazado 733" d="M3526.322,1700.824l3.271-.066-.094-3.874-3.279-1.914Z" fill="#d8c498"/>
        <path id="Trazado_734" data-name="Trazado 734" d="M3526.322,1700.824l4.755,1.76,3.512-2.223-2.971-5-5.4-.39,3.279,1.914.094,3.874Z" fill="#b7a683"/>
      </g>
      <g id="Grupo_739" data-name="Grupo 739">
        <path id="Trazado_735" data-name="Trazado 735" d="M3497.021,1714.865l3.271-.066-.093-3.874-3.28-1.914Z" fill="#d8c498"/>
        <path id="Trazado_736" data-name="Trazado 736" d="M3497.021,1714.865l4.755,1.76,3.511-2.223-2.971-5-5.4-.39,3.28,1.914.093,3.874Z" fill="#b7a683"/>
      </g>
      <g id="Grupo_740" data-name="Grupo 740">
        <path id="Trazado_737" data-name="Trazado 737" d="M3486.607,1732.182l3.271-.066-.094-3.874-3.28-1.914Z" fill="#d8c498"/>
        <path id="Trazado_738" data-name="Trazado 738" d="M3486.607,1732.182l4.755,1.76,3.511-2.223-2.971-5-5.4-.39,3.28,1.914.094,3.874Z" fill="#b7a683"/>
      </g>
      <g id="Grupo_741" data-name="Grupo 741">
        <path id="Trazado_739" data-name="Trazado 739" d="M3539.88,1744.358l3.04-1.207-1.444-3.6-3.742-.644Z" fill="#d8c498"/>
        <path id="Trazado_740" data-name="Trazado 740" d="M3539.88,1744.358l5.071-.017,2.51-3.312-4.535-3.644-5.192,1.526,3.742.644,1.444,3.6Z" fill="#b7a683"/>
      </g>
      <g id="Grupo_742" data-name="Grupo 742">
        <path id="Trazado_741" data-name="Trazado 741" d="M3567.662,1732.408l3.04-1.207-1.444-3.6-3.742-.644Z" fill="#d8c498"/>
        <path id="Trazado_742" data-name="Trazado 742" d="M3567.662,1732.408l5.071-.017,2.51-3.312-4.535-3.644-5.192,1.526,3.742.644,1.444,3.6Z" fill="#b7a683"/>
      </g>
      <g id="Grupo_743" data-name="Grupo 743">
        <path id="Trazado_743" data-name="Trazado 743" d="M3565.763,1722.127l3.04-1.207-1.444-3.6-3.742-.644Z" fill="#d8c498"/>
        <path id="Trazado_744" data-name="Trazado 744" d="M3565.763,1722.127l5.071-.017,2.51-3.312-4.535-3.644-5.192,1.526,3.742.644,1.444,3.6Z" fill="#b7a683"/>
      </g>
      <g id="Grupo_744" data-name="Grupo 744">
        <path id="Trazado_745" data-name="Trazado 745" d="M3591.168,1734.6l3.826-1.52-1.818-4.525-4.71-.81Z" fill="#d8c498"/>
        <path id="Trazado_746" data-name="Trazado 746" d="M3591.168,1734.6l6.382-.021,3.159-4.168-5.708-4.586-6.535,1.92,4.71.81,1.818,4.525Z" fill="#b7a683"/>
      </g>
      <g id="Grupo_745" data-name="Grupo 745">
        <path id="Trazado_747" data-name="Trazado 747" d="M3585.761,1738.4l3.262-.246-.306-3.863-3.38-1.73Z" fill="#d8c498"/>
        <path id="Trazado_748" data-name="Trazado 748" d="M3585.761,1738.4l4.845,1.5,3.384-2.412-3.242-4.83-5.411-.092,3.38,1.73.306,3.863Z" fill="#b7a683"/>
      </g>
      <g id="Grupo_746" data-name="Grupo 746">
        <path id="Trazado_749" data-name="Trazado 749" d="M3567.012,1681.505a38.668,38.668,0,0,1-2.887,2.619l3.188,2.52,9.338-4.344-6.374-.986Z" fill="#d8c498"/>
        <path id="Trazado_750" data-name="Trazado 750" d="M3564.125,1684.124l-.555,2.739,4.734,2.833,6.855-1.765,1.492-5.631-9.338,4.344Z" fill="#b7a683"/>
      </g>
      <g id="Grupo_747" data-name="Grupo 747">
        <path id="Trazado_751" data-name="Trazado 751" d="M3519.169,1733.975a38.646,38.646,0,0,1-2.887,2.619l3.187,2.521,9.339-4.344-6.374-.987Z" fill="#efd9ab"/>
        <path id="Trazado_752" data-name="Trazado 752" d="M3516.282,1736.594l-.555,2.739,4.734,2.833,6.855-1.765,1.492-5.631-9.338,4.344Z" fill="#b7a683"/>
      </g>
      <g id="Grupo_748" data-name="Grupo 748">
        <path id="Trazado_753" data-name="Trazado 753" d="M3545.807,1738.9a38.668,38.668,0,0,1-2.887,2.619l3.188,2.52,9.338-4.344-6.374-.987Z" fill="#efd9ab"/>
        <path id="Trazado_754" data-name="Trazado 754" d="M3542.92,1741.516l-.555,2.739,4.734,2.833,6.855-1.765,1.492-5.631-9.338,4.344Z" fill="#b7a683"/>
      </g>
      <g id="Grupo_749" data-name="Grupo 749">
        <path id="Trazado_755" data-name="Trazado 755" d="M3529.876,1715.839a38.453,38.453,0,0,1-2.887,2.619l3.188,2.521,9.338-4.344-6.374-.987Z" fill="#efd9ab"/>
        <path id="Trazado_756" data-name="Trazado 756" d="M3526.989,1718.458l-.555,2.739,4.734,2.833,6.855-1.765,1.491-5.631-9.338,4.344Z" fill="#b7a683"/>
      </g>
      <g id="Grupo_750" data-name="Grupo 750">
        <path id="Trazado_757" data-name="Trazado 757" d="M3576.93,1714.62a38.453,38.453,0,0,1-2.887,2.619l3.188,2.52,9.338-4.343-6.374-.987Z" fill="#d8c498"/>
        <path id="Trazado_758" data-name="Trazado 758" d="M3574.043,1717.239l-.555,2.739,4.734,2.833,6.855-1.765,1.492-5.631-9.338,4.344Z" fill="#b7a683"/>
      </g>
      <g id="Grupo_751" data-name="Grupo 751">
        <path id="Trazado_759" data-name="Trazado 759" d="M3543.628,1701.637a38.684,38.684,0,0,1-2.887,2.62l3.187,2.52,9.338-4.344-6.374-.987Z" fill="#d8c498"/>
        <path id="Trazado_760" data-name="Trazado 760" d="M3540.74,1704.257l-.555,2.739,4.734,2.833,6.855-1.765,1.492-5.631-9.338,4.344Z" fill="#b7a683"/>
      </g>
      <g id="Grupo_752" data-name="Grupo 752">
        <path id="Trazado_761" data-name="Trazado 761" d="M3501.358,1704.3a38.6,38.6,0,0,1-.582,3.855l4.063-.062,4.491-9.268-5.563,3.264Z" fill="#d8c498"/>
        <path id="Trazado_762" data-name="Trazado 762" d="M3500.776,1708.157l1.3,2.474,5.459-.8,4.2-5.7-2.4-5.307-4.491,9.268Z" fill="#b7a683"/>
      </g>
      <path id="Trazado_763" data-name="Trazado 763" d="M3503.974,1722.127l-3.682,4.631,1.855,3.2,4.962.25,3.7-2.593Z" fill="#efd9ab"/>
      <g id="Grupo_753" data-name="Grupo 753">
        <path id="Trazado_764" data-name="Trazado 764" d="M3494.244,1721.106a25.452,25.452,0,0,1-.382,2.529l2.666-.04,2.947-6.083-3.65,2.142Z" fill="#efd9ab"/>
        <path id="Trazado_765" data-name="Trazado 765" d="M3493.862,1723.635l.854,1.623,3.583-.522,2.754-3.741-1.577-3.482-2.948,6.082Z" fill="#b7a683"/>
      </g>
      <g id="Grupo_754" data-name="Grupo 754">
        <path id="Trazado_766" data-name="Trazado 766" d="M3544.559,1729.2a25.419,25.419,0,0,1-1.465,2.1l2.406,1.149,5.343-4.14-4.222.3Z" fill="#efd9ab"/>
        <path id="Trazado_767" data-name="Trazado 767" d="M3543.094,1731.3l.044,1.834,3.442,1.124,4.129-2.128.134-3.821-5.343,4.14Z" fill="#b7a683"/>
      </g>
      <g id="Grupo_755" data-name="Grupo 755">
        <path id="Trazado_768" data-name="Trazado 768" d="M3554.326,1705.012a25.275,25.275,0,0,1-1.466,2.1l2.407,1.148,5.342-4.14-4.222.3Z" fill="#d8c498"/>
        <path id="Trazado_769" data-name="Trazado 769" d="M3552.86,1707.109l.044,1.834,3.442,1.123,4.129-2.128.134-3.821-5.343,4.14Z" fill="#b7a683"/>
      </g>
      <g id="Grupo_756" data-name="Grupo 756">
        <path id="Trazado_770" data-name="Trazado 770" d="M3543.986,1697.919a25.455,25.455,0,0,1-1.465,2.1l2.406,1.148,5.343-4.14-4.222.3Z" fill="#d8c498"/>
        <path id="Trazado_771" data-name="Trazado 771" d="M3542.521,1700.016l.044,1.833,3.442,1.124,4.129-2.128.134-3.821-5.343,4.14Z" fill="#b7a683"/>
      </g>
      <g id="Grupo_757" data-name="Grupo 757">
        <path id="Trazado_772" data-name="Trazado 772" d="M3553.851,1685.839a25.288,25.288,0,0,1-1.465,2.1l2.406,1.148,5.343-4.14-4.222.3Z" fill="#d8c498"/>
        <path id="Trazado_773" data-name="Trazado 773" d="M3552.385,1687.936l.044,1.834,3.442,1.124,4.13-2.128.134-3.821-5.343,4.14Z" fill="#b7a683"/>
      </g>
      <g id="Grupo_758" data-name="Grupo 758">
        <path id="Trazado_774" data-name="Trazado 774" d="M3541.158,1681.842a25.288,25.288,0,0,1-1.465,2.1l2.406,1.148,5.343-4.14-4.222.3Z" fill="#efd9ab"/>
        <path id="Trazado_775" data-name="Trazado 775" d="M3539.693,1683.939l.044,1.834,3.442,1.124,4.129-2.128.134-3.821-5.343,4.14Z" fill="#b7a683"/>
      </g>
      <g id="Grupo_759" data-name="Grupo 759">
        <path id="Trazado_776" data-name="Trazado 776" d="M3567.595,1693.29a25.4,25.4,0,0,1-1.466,2.1l2.407,1.149,5.342-4.14-4.222.3Z" fill="#d8c498"/>
        <path id="Trazado_777" data-name="Trazado 777" d="M3566.129,1695.386l.044,1.834,3.442,1.123,4.129-2.128.134-3.821-5.343,4.14Z" fill="#b7a683"/>
      </g>
      <g id="Grupo_760" data-name="Grupo 760">
        <path id="Trazado_778" data-name="Trazado 778" d="M3520.642,1724.6a25.267,25.267,0,0,1-1.466,2.1l2.407,1.148,5.342-4.14-4.222.3Z" fill="#d8c498"/>
        <path id="Trazado_779" data-name="Trazado 779" d="M3519.176,1726.694l.044,1.833,3.442,1.124,4.129-2.128.134-3.821-5.343,4.14Z" fill="#b7a683"/>
      </g>
      <path id="Trazado_780" data-name="Trazado 780" d="M3559.855,1690.737l-4.408,4.188,1.554,3.418,3.609,1.519,2.041-3.984Z" fill="#efd9ab"/>
    </g>
  </g>
</svg>
