<svg xmlns="http://www.w3.org/2000/svg" width="467.005" height="471.757" viewBox="0 0 467.005 471.757">
  <g id="Grupo_6758" data-name="Grupo 6758" transform="translate(-3903.527 -7442.343)">
    <rect id="Rectángulo_165" data-name="Rectángulo 165" width="337.428" height="347.857" transform="translate(3904.527 7443.343)" fill="#fff" stroke="#3f63aa" stroke-miterlimit="10" stroke-width="2"/>
    <rect id="Rectángulo_166" data-name="Rectángulo 166" width="337.428" height="32.828" transform="translate(3904.527 7791.316)" fill="#fff" stroke="#3f63aa" stroke-miterlimit="10" stroke-width="2"/>
    <rect id="Rectángulo_167" data-name="Rectángulo 167" width="56.314" height="347.857" transform="translate(4241.955 7443.343)" fill="#fff" stroke="#3f63aa" stroke-miterlimit="10" stroke-width="2"/>
    <rect id="Rectángulo_168" data-name="Rectángulo 168" width="36.262" height="347.857" transform="translate(4297.007 7443.343)" fill="#fff" stroke="#3f63aa" stroke-miterlimit="10" stroke-width="2"/>
    <rect id="Rectángulo_169" data-name="Rectángulo 169" width="36.262" height="347.857" transform="translate(4333.27 7443.343)" fill="#fff" stroke="#3f63aa" stroke-miterlimit="10" stroke-width="2"/>
    <rect id="Rectángulo_170" data-name="Rectángulo 170" width="337.428" height="32.828" transform="translate(3904.527 7824.144)" fill="#fff" stroke="#3f63aa" stroke-miterlimit="10" stroke-width="2"/>
    <rect id="Rectángulo_171" data-name="Rectángulo 171" width="337.428" height="56.034" transform="translate(3904.527 7857.066)" fill="#fff" stroke="#3f63aa" stroke-miterlimit="10" stroke-width="2"/>
    <rect id="Rectángulo_172" data-name="Rectángulo 172" width="55.016" height="33.291" transform="translate(4241.992 7791.084)" fill="#f7ec45" stroke="#3f63aa" stroke-miterlimit="10" stroke-width="2"/>
    <rect id="Rectángulo_173" data-name="Rectángulo 173" width="36.262" height="33.291" transform="translate(4297.007 7791.084)" fill="#bf0811" stroke="#3f63aa" stroke-miterlimit="10" stroke-width="2"/>
    <rect id="Rectángulo_174" data-name="Rectángulo 174" width="36.262" height="33.291" transform="translate(4297.007 7823.901)" fill="#70a83b" stroke="#3f63aa" stroke-miterlimit="10" stroke-width="2"/>
    <rect id="Rectángulo_175" data-name="Rectángulo 175" width="36.262" height="33.291" transform="translate(4333.27 7791.084)" fill="#70a83b" stroke="#3f63aa" stroke-miterlimit="10" stroke-width="2"/>
    <rect id="Rectángulo_176" data-name="Rectángulo 176" width="54.61" height="33.291" transform="translate(4242.398 7823.912)" fill="#f7ec45" stroke="#3f63aa" stroke-miterlimit="10" stroke-width="2"/>
    <rect id="Rectángulo_177" data-name="Rectángulo 177" width="54.61" height="55.774" transform="translate(4242.398 7857.326)" fill="#70a83b" stroke="#3f63aa" stroke-miterlimit="10" stroke-width="2"/>
    <text id="Sólidos_" data-name="Sólidos






" transform="translate(4037.932 7513.49)" fill="#3f3f3f" font-size="20" font-family="OpenSans-Bold, Open Sans" font-weight="700"><tspan x="4.558" y="21">Sólidos</tspan></text>
    <g id="Grupo_983" data-name="Grupo 983">
      <path id="Trazado_1060" data-name="Trazado 1060" d="M4257.427,7771.63a7.218,7.218,0,0,1,5.039,1.535,6.022,6.022,0,0,1,1.664,4.648,9.269,9.269,0,0,1-.11,1.661h-1.937a6.591,6.591,0,0,0,.164-1.485,5.562,5.562,0,0,0-.356-2.15,2.64,2.64,0,0,0-1.117-1.291,4.627,4.627,0,0,0-2.1-.514v.1a2.779,2.779,0,0,1,1.031,1.131,3.806,3.806,0,0,1,.3,1.6,3.369,3.369,0,0,1-.957,2.538,3.659,3.659,0,0,1-2.66.928,3.807,3.807,0,0,1-2.9-1.126,4.274,4.274,0,0,1-1.066-3.065,4.686,4.686,0,0,1,.594-2.392,3.9,3.9,0,0,1,1.722-1.572A6.1,6.1,0,0,1,4257.427,7771.63Zm-3.071,4.462a1.594,1.594,0,0,0,.516,1.264,2.171,2.171,0,0,0,1.484.457,1.951,1.951,0,0,0,1.313-.414,1.558,1.558,0,0,0,.484-1.256,2.028,2.028,0,0,0-.48-1.359,1.425,1.425,0,0,0-1.106-.564,2.4,2.4,0,0,0-1.57.526A1.668,1.668,0,0,0,4254.356,7776.092Z" fill="#3f3f3f"/>
      <path id="Trazado_1061" data-name="Trazado 1061" d="M4255.88,7757.03a3.1,3.1,0,0,1,2.668,1.278,6.123,6.123,0,0,1,.933,3.657v1.45h4.493v1.434h-11.422v-3.2Q4252.552,7757.03,4255.88,7757.03Zm2.461,6.385v-1.29a5.1,5.1,0,0,0-.571-2.759,2.039,2.039,0,0,0-1.828-.851,1.914,1.914,0,0,0-1.687.8,4.461,4.461,0,0,0-.555,2.5v1.6Z" fill="#3f3f3f"/>
      <path id="Trazado_1062" data-name="Trazado 1062" d="M4264.13,7750.755a4.433,4.433,0,0,1-1.156,3.235,4.282,4.282,0,0,1-3.211,1.185,4.721,4.721,0,0,1-3.289-1.1,3.785,3.785,0,0,1-1.219-2.956,3.628,3.628,0,0,1,1.058-2.75,3.872,3.872,0,0,1,2.793-1.012h.821v6.369a3.243,3.243,0,0,0,2.289-.824,2.964,2.964,0,0,0,.781-2.2,7.937,7.937,0,0,0-.578-2.952h1.156a7.83,7.83,0,0,1,.426,1.4A8.5,8.5,0,0,1,4264.13,7750.755Zm-7.789.38a2.378,2.378,0,0,0,.672,1.775,2.974,2.974,0,0,0,1.859.78v-4.833a2.714,2.714,0,0,0-1.879.591A2.157,2.157,0,0,0,4256.341,7751.135Z" fill="#3f3f3f"/>
      <path id="Trazado_1063" data-name="Trazado 1063" d="M4263.974,7743.569v1.4h-12.157v-1.4Z" fill="#3f3f3f"/>
      <path id="Trazado_1064" data-name="Trazado 1064" d="M4253.091,7740.719a.825.825,0,0,1-.653-.237.926.926,0,0,1,0-1.172.813.813,0,0,1,.649-.245.822.822,0,0,1,.652.245.849.849,0,0,1,.215.582.782.782,0,0,1-.867.827Zm10.883-1.519v1.4h-8.563v-1.4Z" fill="#3f3f3f"/>
      <path id="Trazado_1065" data-name="Trazado 1065" d="M4255.411,7728.666h.82l.188,1.712a2.7,2.7,0,0,1,.715-.422,2.551,2.551,0,0,1,1-.185,2.45,2.45,0,0,1,2.008.927,3.94,3.94,0,0,1,.75,2.547,4.555,4.555,0,0,1-.063.777q.438.893,1.1.893a.55.55,0,0,0,.519-.311,2.438,2.438,0,0,0,.168-1.072V7731.9a3.878,3.878,0,0,1,.586-2.307,1.974,1.974,0,0,1,1.7-.806,2.387,2.387,0,0,1,2.168,1.232,7.021,7.021,0,0,1,.746,3.593,5.213,5.213,0,0,1-.625,2.8,1.977,1.977,0,0,1-1.765.983,1.9,1.9,0,0,1-1.352-.54,2.813,2.813,0,0,1-.773-1.518,1.438,1.438,0,0,1-.461.594,1.152,1.152,0,0,1-.727.241,1.306,1.306,0,0,1-.82-.27,2.787,2.787,0,0,1-.68-.852,2.447,2.447,0,0,1-.93,1.168,2.578,2.578,0,0,1-1.5.451,2.67,2.67,0,0,1-2.168-.911,3.913,3.913,0,0,1-.761-2.58,5.058,5.058,0,0,1,.156-1.308Zm10,7.371a1.146,1.146,0,0,0,1.055-.633,3.722,3.722,0,0,0,.359-1.813,5.407,5.407,0,0,0-.488-2.611,1.481,1.481,0,0,0-1.324-.847,1.021,1.021,0,0,0-.965.464,3.848,3.848,0,0,0-.27,1.746v1.679a2.331,2.331,0,0,0,.422,1.484A1.455,1.455,0,0,0,4265.411,7736.037Zm-7.258-.759a1.674,1.674,0,0,0,1.36-.548,2.309,2.309,0,0,0,.461-1.527q0-2.049-1.844-2.05-1.928,0-1.93,2.076a2.152,2.152,0,0,0,.492,1.518A1.9,1.9,0,0,0,4258.153,7735.278Z" fill="#3f3f3f"/>
      <path id="Trazado_1066" data-name="Trazado 1066" d="M4255.255,7722.551a5.884,5.884,0,0,1,.094-1.106l1.2.2a5.158,5.158,0,0,0-.118,1.011,2.546,2.546,0,0,0,.844,1.919,2.941,2.941,0,0,0,2.1.8h4.594v1.4h-8.563v-1.156l1.586-.16v-.067a3.9,3.9,0,0,1-1.289-1.24A2.95,2.95,0,0,1,4255.255,7722.551Z" fill="#3f3f3f"/>
      <path id="Trazado_1067" data-name="Trazado 1067" d="M4259.684,7711.737a4.5,4.5,0,0,1,3.27,1.139,4.18,4.18,0,0,1,1.176,3.146,4.426,4.426,0,0,1-.539,2.2,3.678,3.678,0,0,1-1.547,1.484,5.049,5.049,0,0,1-2.36.523,4.5,4.5,0,0,1-3.261-1.13,4.161,4.161,0,0,1-1.168-3.138,4.062,4.062,0,0,1,1.2-3.082A4.482,4.482,0,0,1,4259.684,7711.737Zm0,7.043a3.844,3.844,0,0,0,2.5-.708,2.964,2.964,0,0,0,0-4.171,3.823,3.823,0,0,0-2.5-.712,3.767,3.767,0,0,0-2.48.712,2.6,2.6,0,0,0-.848,2.1,2.558,2.558,0,0,0,.836,2.074A3.808,3.808,0,0,0,4259.684,7718.78Z" fill="#3f3f3f"/>
      <path id="Trazado_1068" data-name="Trazado 1068" d="M4261.638,7703.32a2.092,2.092,0,0,1,1.843.962,4.782,4.782,0,0,1,.649,2.7,6.27,6.27,0,0,1-.539,2.869h-1.2a7.2,7.2,0,0,0,.492-1.43,6.4,6.4,0,0,0,.179-1.472,3.548,3.548,0,0,0-.324-1.687,1.072,1.072,0,0,0-1.844-.122,7.648,7.648,0,0,0-.839,1.826,10.228,10.228,0,0,1-.778,1.835,2.4,2.4,0,0,1-.754.809,1.85,1.85,0,0,1-1.007.266,1.887,1.887,0,0,1-1.653-.92,4.548,4.548,0,0,1-.6-2.521,7.882,7.882,0,0,1,.562-2.918l1.055.5a7.146,7.146,0,0,0-.531,2.522,3.1,3.1,0,0,0,.289,1.5.887.887,0,0,0,.8.506.927.927,0,0,0,.586-.189,1.849,1.849,0,0,0,.461-.612,14.074,14.074,0,0,0,.632-1.62,6.2,6.2,0,0,1,1.118-2.222A1.892,1.892,0,0,1,4261.638,7703.32Z" fill="#3f3f3f"/>
      <path id="Trazado_1069" data-name="Trazado 1069" d="M4259.684,7693.064a4.5,4.5,0,0,1,3.27,1.139,4.176,4.176,0,0,1,1.176,3.146,4.42,4.42,0,0,1-.539,2.2,3.667,3.667,0,0,1-1.547,1.485,5.055,5.055,0,0,1-2.36.523,4.5,4.5,0,0,1-3.261-1.13,4.165,4.165,0,0,1-1.168-3.138,4.064,4.064,0,0,1,1.2-3.083A4.484,4.484,0,0,1,4259.684,7693.064Zm0,7.043a3.838,3.838,0,0,0,2.5-.709,2.962,2.962,0,0,0,0-4.17,3.823,3.823,0,0,0-2.5-.713,3.767,3.767,0,0,0-2.48.713,2.6,2.6,0,0,0-.848,2.1,2.558,2.558,0,0,0,.836,2.075A3.808,3.808,0,0,0,4259.684,7700.107Z" fill="#3f3f3f"/>
      <path id="Trazado_1070" data-name="Trazado 1070" d="M4261.638,7684.647a2.093,2.093,0,0,1,1.843.961,4.792,4.792,0,0,1,.649,2.7,6.262,6.262,0,0,1-.539,2.867h-1.2a7.148,7.148,0,0,0,.492-1.43,6.4,6.4,0,0,0,.179-1.472,3.544,3.544,0,0,0-.324-1.686,1.071,1.071,0,0,0-1.844-.122,7.635,7.635,0,0,0-.839,1.826,10.2,10.2,0,0,1-.778,1.834,2.408,2.408,0,0,1-.754.81,1.854,1.854,0,0,1-1.007.265,1.883,1.883,0,0,1-1.653-.919,4.55,4.55,0,0,1-.6-2.522,7.885,7.885,0,0,1,.562-2.918l1.055.5a7.154,7.154,0,0,0-.531,2.521,3.088,3.088,0,0,0,.289,1.5.886.886,0,0,0,.8.507.922.922,0,0,0,.586-.19,1.841,1.841,0,0,0,.461-.612,13.961,13.961,0,0,0,.632-1.619,6.2,6.2,0,0,1,1.118-2.222A1.89,1.89,0,0,1,4261.638,7684.647Z" fill="#3f3f3f"/>
      <path id="Trazado_1071" data-name="Trazado 1071" d="M4263.974,7675.858l-8.563,3.509v-1.5l5.078-1.99a22.61,22.61,0,0,1,2.313-.793v-.067a17.007,17.007,0,0,1-1.715-.587q-1.3-.492-5.676-2.214v-1.5l8.563,3.509Z" fill="#3f3f3f"/>
      <path id="Trazado_1072" data-name="Trazado 1072" d="M4263.974,7663.545l-1.219.278v.068a3.832,3.832,0,0,1,1.09,1.379,4.5,4.5,0,0,1,.285,1.715,3.254,3.254,0,0,1-.656,2.156,2.306,2.306,0,0,1-1.868.78q-2.592,0-2.718-4.479l-.047-1.569h-.532a2.06,2.06,0,0,0-1.488.469,2.015,2.015,0,0,0-.48,1.5,6.477,6.477,0,0,0,.656,2.614l-.992.431a7.161,7.161,0,0,1-.735-3.13,3.712,3.712,0,0,1,.68-2.45,2.712,2.712,0,0,1,2.18-.8h5.844Zm-.915,3.162a2.978,2.978,0,0,0-.664-2.054,2.358,2.358,0,0,0-1.859-.746h-.773l.054,1.4a5.444,5.444,0,0,0,.481,2.407,1.423,1.423,0,0,0,1.324.738,1.286,1.286,0,0,0,1.07-.46A2.006,2.006,0,0,0,4263.059,7666.707Z" fill="#3f3f3f"/>
      <path id="Trazado_1073" data-name="Trazado 1073" d="M4255.255,7655.4a5.855,5.855,0,0,1,.094-1.1l1.2.194a5.167,5.167,0,0,0-.118,1.012,2.546,2.546,0,0,0,.844,1.919,2.945,2.945,0,0,0,2.1.8h4.594v1.4h-8.563v-1.156l1.586-.16v-.068a3.884,3.884,0,0,1-1.289-1.239A2.951,2.951,0,0,1,4255.255,7655.4Z" fill="#3f3f3f"/>
      <path id="Trazado_1074" data-name="Trazado 1074" d="M4253.091,7652.689a.826.826,0,0,1-.653-.236.927.927,0,0,1,0-1.172.815.815,0,0,1,.649-.245.824.824,0,0,1,.652.245.849.849,0,0,1,.215.582.78.78,0,0,1-.867.826Zm10.883-1.518v1.4h-8.563v-1.4Z" fill="#3f3f3f"/>
      <path id="Trazado_1075" data-name="Trazado 1075" d="M4259.684,7640.224a4.507,4.507,0,0,1,3.27,1.138,4.177,4.177,0,0,1,1.176,3.146,4.422,4.422,0,0,1-.539,2.2,3.657,3.657,0,0,1-1.547,1.485,5.049,5.049,0,0,1-2.36.523,4.5,4.5,0,0,1-3.261-1.13,4.163,4.163,0,0,1-1.168-3.138,4.063,4.063,0,0,1,1.2-3.083A4.488,4.488,0,0,1,4259.684,7640.224Zm0,7.043a3.847,3.847,0,0,0,2.5-.709,2.964,2.964,0,0,0,0-4.171,3.823,3.823,0,0,0-2.5-.713,3.767,3.767,0,0,0-2.48.713,2.6,2.6,0,0,0-.848,2.1,2.555,2.555,0,0,0,.836,2.075A3.805,3.805,0,0,0,4259.684,7647.267Z" fill="#3f3f3f"/>
      <path id="Trazado_1076" data-name="Trazado 1076" d="M4261.638,7631.807a2.091,2.091,0,0,1,1.843.961,4.788,4.788,0,0,1,.649,2.7,6.264,6.264,0,0,1-.539,2.867h-1.2a7.121,7.121,0,0,0,.492-1.43,6.387,6.387,0,0,0,.179-1.471,3.548,3.548,0,0,0-.324-1.687,1.071,1.071,0,0,0-1.844-.122,7.644,7.644,0,0,0-.839,1.826,10.179,10.179,0,0,1-.778,1.834,2.4,2.4,0,0,1-.754.81,1.845,1.845,0,0,1-1.007.265,1.883,1.883,0,0,1-1.653-.919,4.551,4.551,0,0,1-.6-2.522,7.884,7.884,0,0,1,.562-2.918l1.055.5a7.157,7.157,0,0,0-.531,2.522,3.088,3.088,0,0,0,.289,1.5.887.887,0,0,0,.8.506.922.922,0,0,0,.586-.19,1.844,1.844,0,0,0,.461-.611,14.15,14.15,0,0,0,.632-1.62,6.21,6.21,0,0,1,1.118-2.222A1.891,1.891,0,0,1,4261.638,7631.807Z" fill="#3f3f3f"/>
      <path id="Trazado_1077" data-name="Trazado 1077" d="M4253.091,7625.16a.824.824,0,0,1-.653-.236.926.926,0,0,1,0-1.172.813.813,0,0,1,.649-.245.822.822,0,0,1,.652.245.906.906,0,0,1,0,1.172A.836.836,0,0,1,4253.091,7625.16Zm10.883-1.518v1.4h-8.563v-1.4Z" fill="#3f3f3f"/>
      <path id="Trazado_1078" data-name="Trazado 1078" d="M4263.974,7614.348h-5.54a2.132,2.132,0,0,0-1.562.513,2.2,2.2,0,0,0-.516,1.612,2.782,2.782,0,0,0,.727,2.126,3.478,3.478,0,0,0,2.4.673h4.493v1.4h-8.563v-1.139l1.172-.227v-.068a2.807,2.807,0,0,1-.981-1.206,4.2,4.2,0,0,1-.347-1.729,3.692,3.692,0,0,1,.746-2.513,3.037,3.037,0,0,1,2.387-.844h5.586Z" fill="#3f3f3f"/>
      <path id="Trazado_1079" data-name="Trazado 1079" d="M4264.13,7606.377a4.1,4.1,0,0,1-1.145,3.107,4.473,4.473,0,0,1-3.238,1.1,4.621,4.621,0,0,1-3.32-1.118,4.188,4.188,0,0,1-1.172-3.184,6.823,6.823,0,0,1,.133-1.333,4.652,4.652,0,0,1,.312-1.046l1.1.431a7.07,7.07,0,0,0-.286,1.012,4.879,4.879,0,0,0-.113.969q0,2.818,3.328,2.818a3.747,3.747,0,0,0,2.422-.688,2.469,2.469,0,0,0,.844-2.037,6.649,6.649,0,0,0-.461-2.37h1.148A5.4,5.4,0,0,1,4264.13,7606.377Z" fill="#3f3f3f"/>
      <path id="Trazado_1080" data-name="Trazado 1080" d="M4263.974,7600.447v1.4h-12.157v-1.4Z" fill="#3f3f3f"/>
      <path id="Trazado_1081" data-name="Trazado 1081" d="M4255.411,7596.162h5.555a2.124,2.124,0,0,0,1.562-.514,2.194,2.194,0,0,0,.516-1.611,2.738,2.738,0,0,0-.735-2.121,3.506,3.506,0,0,0-2.4-.671h-4.5v-1.4h8.563V7591l-1.149.2v.076a2.734,2.734,0,0,1,.969,1.194,4.291,4.291,0,0,1,.336,1.741,3.719,3.719,0,0,1-.742,2.526,3.02,3.02,0,0,1-2.375.839h-5.6Z" fill="#3f3f3f"/>
      <path id="Trazado_1082" data-name="Trazado 1082" d="M4253.091,7586.994a.824.824,0,0,1-.653-.236.926.926,0,0,1,0-1.172.813.813,0,0,1,.649-.245.822.822,0,0,1,.652.245.906.906,0,0,1,0,1.172A.836.836,0,0,1,4253.091,7586.994Zm10.883-1.518v1.4h-8.563v-1.4Z" fill="#3f3f3f"/>
      <path id="Trazado_1083" data-name="Trazado 1083" d="M4262.825,7576.215v.076a3.384,3.384,0,0,1,1.3,2.9,3.557,3.557,0,0,1-1.149,2.822,4.793,4.793,0,0,1-3.265,1.008,4.874,4.874,0,0,1-3.289-1.012,3.523,3.523,0,0,1-1.172-2.818,3.466,3.466,0,0,1,1.265-2.884v-.11l-.617.059-.6.034h-3.485v-1.4h12.157v1.138Zm.219,2.8a2.652,2.652,0,0,0-.723-2.079,3.447,3.447,0,0,0-2.332-.646h-.273a4.06,4.06,0,0,0-2.6.653,2.584,2.584,0,0,0-.777,2.088,2.2,2.2,0,0,0,.886,1.885,4.157,4.157,0,0,0,2.5.654,3.981,3.981,0,0,0,2.477-.65A2.262,2.262,0,0,0,4263.044,7579.016Z" fill="#3f3f3f"/>
      <path id="Trazado_1084" data-name="Trazado 1084" d="M4263.974,7566.237l-1.219.279v.067a3.832,3.832,0,0,1,1.09,1.379,4.507,4.507,0,0,1,.285,1.717,3.25,3.25,0,0,1-.656,2.155,2.305,2.305,0,0,1-1.868.779q-2.592,0-2.718-4.478l-.047-1.569h-.532a2.069,2.069,0,0,0-1.488.468,2.021,2.021,0,0,0-.48,1.5,6.481,6.481,0,0,0,.656,2.616l-.992.429a7.165,7.165,0,0,1-.735-3.129,3.712,3.712,0,0,1,.68-2.45,2.715,2.715,0,0,1,2.18-.8h5.844Zm-.915,3.163a2.971,2.971,0,0,0-.664-2.053,2.356,2.356,0,0,0-1.859-.747h-.773l.054,1.4a5.457,5.457,0,0,0,.481,2.408,1.424,1.424,0,0,0,1.324.739,1.287,1.287,0,0,0,1.07-.46A2.013,2.013,0,0,0,4263.059,7569.4Z" fill="#3f3f3f"/>
      <path id="Trazado_1085" data-name="Trazado 1085" d="M4261.638,7556.353a2.091,2.091,0,0,1,1.843.961,4.788,4.788,0,0,1,.649,2.7,6.268,6.268,0,0,1-.539,2.868h-1.2a7.17,7.17,0,0,0,.492-1.43,6.4,6.4,0,0,0,.179-1.471,3.553,3.553,0,0,0-.324-1.688,1.072,1.072,0,0,0-1.844-.122,7.644,7.644,0,0,0-.839,1.826,10.261,10.261,0,0,1-.778,1.835,2.417,2.417,0,0,1-.754.81,1.862,1.862,0,0,1-1.007.265,1.884,1.884,0,0,1-1.653-.92,4.546,4.546,0,0,1-.6-2.521,7.885,7.885,0,0,1,.562-2.918l1.055.5a7.159,7.159,0,0,0-.531,2.522,3.088,3.088,0,0,0,.289,1.5.887.887,0,0,0,.8.506.927.927,0,0,0,.586-.189,1.844,1.844,0,0,0,.461-.612,14,14,0,0,0,.632-1.62,6.192,6.192,0,0,1,1.118-2.221A1.887,1.887,0,0,1,4261.638,7556.353Z" fill="#3f3f3f"/>
      <path id="Trazado_1086" data-name="Trazado 1086" d="M4261.638,7543.626a2.091,2.091,0,0,1,1.843.961,4.79,4.79,0,0,1,.649,2.7,6.256,6.256,0,0,1-.539,2.867h-1.2a7.139,7.139,0,0,0,.492-1.429,6.4,6.4,0,0,0,.179-1.472,3.551,3.551,0,0,0-.324-1.687,1.072,1.072,0,0,0-1.844-.122,7.637,7.637,0,0,0-.839,1.827,10.227,10.227,0,0,1-.778,1.834,2.4,2.4,0,0,1-.754.809,1.846,1.846,0,0,1-1.007.266,1.885,1.885,0,0,1-1.653-.919,4.551,4.551,0,0,1-.6-2.523,7.889,7.889,0,0,1,.562-2.918l1.055.5a7.159,7.159,0,0,0-.531,2.522,3.088,3.088,0,0,0,.289,1.5.886.886,0,0,0,.8.507.92.92,0,0,0,.586-.191,1.839,1.839,0,0,0,.461-.611,13.961,13.961,0,0,0,.632-1.619,6.2,6.2,0,0,1,1.118-2.223A1.889,1.889,0,0,1,4261.638,7543.626Z" fill="#3f3f3f"/>
      <path id="Trazado_1087" data-name="Trazado 1087" d="M4255.411,7540.032h5.555a2.13,2.13,0,0,0,1.562-.513,2.2,2.2,0,0,0,.516-1.612,2.738,2.738,0,0,0-.735-2.121,3.5,3.5,0,0,0-2.4-.671h-4.5v-1.4h8.563v1.156l-1.149.2v.076a2.741,2.741,0,0,1,.969,1.194,4.3,4.3,0,0,1,.336,1.741,3.717,3.717,0,0,1-.742,2.526,3.018,3.018,0,0,1-2.375.839h-5.6Z" fill="#3f3f3f"/>
      <path id="Trazado_1088" data-name="Trazado 1088" d="M4261.638,7524.783a2.092,2.092,0,0,1,1.843.962,4.784,4.784,0,0,1,.649,2.7,6.27,6.27,0,0,1-.539,2.869h-1.2a7.185,7.185,0,0,0,.492-1.43,6.4,6.4,0,0,0,.179-1.472,3.548,3.548,0,0,0-.324-1.687,1.072,1.072,0,0,0-1.844-.122,7.648,7.648,0,0,0-.839,1.826,10.285,10.285,0,0,1-.778,1.835,2.4,2.4,0,0,1-.754.809,1.85,1.85,0,0,1-1.007.266,1.887,1.887,0,0,1-1.653-.92,4.547,4.547,0,0,1-.6-2.521,7.88,7.88,0,0,1,.562-2.918l1.055.5a7.148,7.148,0,0,0-.531,2.522,3.093,3.093,0,0,0,.289,1.5.887.887,0,0,0,.8.506.927.927,0,0,0,.586-.19,1.844,1.844,0,0,0,.461-.611,14.074,14.074,0,0,0,.632-1.62,6.2,6.2,0,0,1,1.118-2.222A1.892,1.892,0,0,1,4261.638,7524.783Z" fill="#3f3f3f"/>
      <path id="Trazado_1089" data-name="Trazado 1089" d="M4263.059,7519.521a4.863,4.863,0,0,0-.05-.717,4.785,4.785,0,0,0-.106-.549h.992a2.668,2.668,0,0,1,.168.671,5.471,5.471,0,0,1,.067.8q0,2.682-2.617,2.682h-5.094v1.325h-.625l-.539-1.325-1.828-.591V7521h1.984v-2.683h1.008V7521h5.039a1.643,1.643,0,0,0,1.187-.4A1.43,1.43,0,0,0,4263.059,7519.521Z" fill="#3f3f3f"/>
      <path id="Trazado_1090" data-name="Trazado 1090" d="M4263.974,7510.724l-1.219.278v.067a3.833,3.833,0,0,1,1.09,1.379,4.5,4.5,0,0,1,.285,1.716,3.248,3.248,0,0,1-.656,2.155,2.3,2.3,0,0,1-1.868.781q-2.592,0-2.718-4.479l-.047-1.569h-.532a2.061,2.061,0,0,0-1.488.469,2.015,2.015,0,0,0-.48,1.5,6.473,6.473,0,0,0,.656,2.614l-.992.431a7.174,7.174,0,0,1-.735-3.13,3.72,3.72,0,0,1,.68-2.451,2.717,2.717,0,0,1,2.18-.8h5.844Zm-.915,3.162a2.978,2.978,0,0,0-.664-2.054,2.359,2.359,0,0,0-1.859-.746h-.773l.054,1.4a5.452,5.452,0,0,0,.481,2.408,1.422,1.422,0,0,0,1.324.738,1.284,1.284,0,0,0,1.07-.46A2.005,2.005,0,0,0,4263.059,7513.886Z" fill="#3f3f3f"/>
      <path id="Trazado_1091" data-name="Trazado 1091" d="M4263.974,7500.476h-5.54a2.126,2.126,0,0,0-1.562.514,2.195,2.195,0,0,0-.516,1.612,2.78,2.78,0,0,0,.727,2.125,3.473,3.473,0,0,0,2.4.674h4.493v1.4h-8.563v-1.139l1.172-.227v-.069a2.8,2.8,0,0,1-.981-1.206,4.189,4.189,0,0,1-.347-1.728,3.7,3.7,0,0,1,.746-2.514,3.033,3.033,0,0,1,2.387-.844h5.586Z" fill="#3f3f3f"/>
      <path id="Trazado_1092" data-name="Trazado 1092" d="M4264.13,7492.5a4.1,4.1,0,0,1-1.145,3.108,4.477,4.477,0,0,1-3.238,1.1,4.623,4.623,0,0,1-3.32-1.117,4.192,4.192,0,0,1-1.172-3.185,6.817,6.817,0,0,1,.133-1.332,4.647,4.647,0,0,1,.312-1.046l1.1.43a7.048,7.048,0,0,0-.286,1.013,4.871,4.871,0,0,0-.113.969q0,2.818,3.328,2.818a3.747,3.747,0,0,0,2.422-.688,2.473,2.473,0,0,0,.844-2.037,6.641,6.641,0,0,0-.461-2.37h1.148A5.39,5.39,0,0,1,4264.13,7492.5Z" fill="#3f3f3f"/>
      <path id="Trazado_1093" data-name="Trazado 1093" d="M4253.091,7488.094a.821.821,0,0,1-.653-.237.924.924,0,0,1,0-1.171.811.811,0,0,1,.649-.246.82.82,0,0,1,.652.246.847.847,0,0,1,.215.582.782.782,0,0,1-.867.826Zm10.883-1.519v1.4h-8.563v-1.4Z" fill="#3f3f3f"/>
      <path id="Trazado_1094" data-name="Trazado 1094" d="M4263.974,7477.922l-1.219.278v.068a3.832,3.832,0,0,1,1.09,1.379,4.5,4.5,0,0,1,.285,1.716,3.256,3.256,0,0,1-.656,2.156,2.308,2.308,0,0,1-1.868.779q-2.592,0-2.718-4.479l-.047-1.568h-.532a2.065,2.065,0,0,0-1.488.468,2.016,2.016,0,0,0-.48,1.5,6.481,6.481,0,0,0,.656,2.615l-.992.43a7.165,7.165,0,0,1-.735-3.129,3.709,3.709,0,0,1,.68-2.45,2.712,2.712,0,0,1,2.18-.8h5.844Zm-.915,3.163a2.974,2.974,0,0,0-.664-2.054,2.357,2.357,0,0,0-1.859-.747h-.773l.054,1.4a5.452,5.452,0,0,0,.481,2.408,1.423,1.423,0,0,0,1.324.738,1.284,1.284,0,0,0,1.07-.46A2.01,2.01,0,0,0,4263.059,7481.085Z" fill="#3f3f3f"/>
      <path id="Trazado_1095" data-name="Trazado 1095" d="M4261.638,7468.037a2.09,2.09,0,0,1,1.843.962,4.784,4.784,0,0,1,.649,2.7,6.263,6.263,0,0,1-.539,2.868h-1.2a7.16,7.16,0,0,0,.492-1.429,6.406,6.406,0,0,0,.179-1.472,3.548,3.548,0,0,0-.324-1.687,1.072,1.072,0,0,0-1.844-.122,7.625,7.625,0,0,0-.839,1.826,10.293,10.293,0,0,1-.778,1.835,2.413,2.413,0,0,1-.754.809,1.854,1.854,0,0,1-1.007.266,1.886,1.886,0,0,1-1.653-.92,4.548,4.548,0,0,1-.6-2.522,7.887,7.887,0,0,1,.562-2.918l1.055.5a7.148,7.148,0,0,0-.531,2.522,3.093,3.093,0,0,0,.289,1.5.887.887,0,0,0,.8.506.927.927,0,0,0,.586-.19,1.854,1.854,0,0,0,.461-.611,14.036,14.036,0,0,0,.632-1.62,6.2,6.2,0,0,1,1.118-2.222A1.89,1.89,0,0,1,4261.638,7468.037Z" fill="#3f3f3f"/>
      <path id="Trazado_1096" data-name="Trazado 1096" d="M4286.13,7775.1a4.27,4.27,0,0,1-.309,1.649,3.041,3.041,0,0,1-.949,1.252v.1a10.761,10.761,0,0,1,1.422-.1h3.523v1.4h-12.406v-1.138l1.172-.194v-.068a3.186,3.186,0,0,1-1.016-1.256,4.087,4.087,0,0,1-.312-1.645,3.538,3.538,0,0,1,1.164-2.838,5.817,5.817,0,0,1,6.543.016A3.54,3.54,0,0,1,4286.13,7775.1Zm-7.774.2a2.582,2.582,0,0,0,.727,2.048,3.533,3.533,0,0,0,2.312.65h.289a4.03,4.03,0,0,0,2.582-.65,2.561,2.561,0,0,0,.778-2.083,2.22,2.22,0,0,0-.9-1.876,4.015,4.015,0,0,0-2.476-.679,3.871,3.871,0,0,0-2.457.679A2.3,2.3,0,0,0,4278.356,7775.308Z" fill="#3f3f3f"/>
      <path id="Trazado_1097" data-name="Trazado 1097" d="M4286.13,7764.916a4.432,4.432,0,0,1-1.156,3.235,4.28,4.28,0,0,1-3.211,1.185,4.719,4.719,0,0,1-3.289-1.1,3.782,3.782,0,0,1-1.219-2.956,3.629,3.629,0,0,1,1.058-2.75,3.878,3.878,0,0,1,2.793-1.011h.821v6.368a3.247,3.247,0,0,0,2.289-.823,2.967,2.967,0,0,0,.781-2.2,7.937,7.937,0,0,0-.578-2.952h1.156a7.838,7.838,0,0,1,.426,1.4A8.505,8.505,0,0,1,4286.13,7764.916Zm-7.789.38a2.377,2.377,0,0,0,.672,1.775,2.978,2.978,0,0,0,1.859.781v-4.833a2.713,2.713,0,0,0-1.879.59A2.159,2.159,0,0,0,4278.341,7765.3Z" fill="#3f3f3f"/>
      <path id="Trazado_1098" data-name="Trazado 1098" d="M4285.974,7757.73v1.4h-12.157v-1.4Z" fill="#3f3f3f"/>
      <path id="Trazado_1099" data-name="Trazado 1099" d="M4275.091,7754.88a.829.829,0,0,1-.653-.236.927.927,0,0,1,0-1.173.813.813,0,0,1,.649-.244.822.822,0,0,1,.652.244.825.825,0,0,1-.652,1.409Zm10.883-1.519v1.4h-8.563v-1.4Z" fill="#3f3f3f"/>
      <path id="Trazado_1100" data-name="Trazado 1100" d="M4277.411,7742.827h.82l.188,1.712a2.691,2.691,0,0,1,.715-.422,2.551,2.551,0,0,1,1-.185,2.451,2.451,0,0,1,2.008.927,3.944,3.944,0,0,1,.75,2.547,4.557,4.557,0,0,1-.063.777q.438.892,1.1.893a.55.55,0,0,0,.519-.311,2.439,2.439,0,0,0,.168-1.072v-1.636a3.878,3.878,0,0,1,.586-2.307,1.975,1.975,0,0,1,1.7-.806,2.388,2.388,0,0,1,2.168,1.232,7.024,7.024,0,0,1,.746,3.594,5.209,5.209,0,0,1-.625,2.795,1.977,1.977,0,0,1-1.765.983,1.9,1.9,0,0,1-1.352-.54,2.806,2.806,0,0,1-.773-1.518,1.435,1.435,0,0,1-.461.594,1.152,1.152,0,0,1-.727.241,1.309,1.309,0,0,1-.82-.27,2.793,2.793,0,0,1-.68-.852,2.449,2.449,0,0,1-.93,1.168,2.582,2.582,0,0,1-1.5.451,2.667,2.667,0,0,1-2.168-.911,3.914,3.914,0,0,1-.761-2.58,5.058,5.058,0,0,1,.156-1.308Zm10,7.371a1.147,1.147,0,0,0,1.055-.633,3.719,3.719,0,0,0,.359-1.813,5.4,5.4,0,0,0-.488-2.61,1.481,1.481,0,0,0-1.324-.848,1.021,1.021,0,0,0-.965.464,3.852,3.852,0,0,0-.27,1.746v1.679a2.33,2.33,0,0,0,.422,1.484A1.452,1.452,0,0,0,4287.411,7750.2Zm-7.258-.759a1.675,1.675,0,0,0,1.36-.548,2.308,2.308,0,0,0,.461-1.527q0-2.049-1.844-2.05-1.928,0-1.93,2.076a2.153,2.153,0,0,0,.492,1.518A1.9,1.9,0,0,0,4280.153,7749.439Z" fill="#3f3f3f"/>
      <path id="Trazado_1101" data-name="Trazado 1101" d="M4277.255,7736.712a5.88,5.88,0,0,1,.094-1.106l1.2.195a5.184,5.184,0,0,0-.118,1.012,2.544,2.544,0,0,0,.844,1.918,2.941,2.941,0,0,0,2.1.8h4.594v1.4h-8.563v-1.156l1.586-.16v-.067a3.9,3.9,0,0,1-1.289-1.24A2.951,2.951,0,0,1,4277.255,7736.712Z" fill="#3f3f3f"/>
      <path id="Trazado_1102" data-name="Trazado 1102" d="M4281.684,7725.9a4.5,4.5,0,0,1,3.27,1.139,4.18,4.18,0,0,1,1.176,3.147,4.423,4.423,0,0,1-.539,2.2,3.67,3.67,0,0,1-1.547,1.484,5.055,5.055,0,0,1-2.36.524,4.5,4.5,0,0,1-3.261-1.131,4.162,4.162,0,0,1-1.168-3.138,4.062,4.062,0,0,1,1.2-3.082A4.48,4.48,0,0,1,4281.684,7725.9Zm0,7.043a3.844,3.844,0,0,0,2.5-.708,2.962,2.962,0,0,0,0-4.17,3.817,3.817,0,0,0-2.5-.713,3.761,3.761,0,0,0-2.48.713,2.594,2.594,0,0,0-.848,2.1,2.558,2.558,0,0,0,.836,2.074A3.808,3.808,0,0,0,4281.684,7732.941Z" fill="#3f3f3f"/>
      <path id="Trazado_1103" data-name="Trazado 1103" d="M4283.638,7717.481a2.092,2.092,0,0,1,1.843.962,4.786,4.786,0,0,1,.649,2.7,6.265,6.265,0,0,1-.539,2.868h-1.2a7.191,7.191,0,0,0,.492-1.43,6.406,6.406,0,0,0,.179-1.472,3.548,3.548,0,0,0-.324-1.687,1.072,1.072,0,0,0-1.844-.122,7.654,7.654,0,0,0-.839,1.826,10.244,10.244,0,0,1-.778,1.835,2.417,2.417,0,0,1-.754.81,1.862,1.862,0,0,1-1.007.265,1.885,1.885,0,0,1-1.653-.92,4.548,4.548,0,0,1-.6-2.521,7.886,7.886,0,0,1,.562-2.918l1.055.5a7.155,7.155,0,0,0-.531,2.522,3.093,3.093,0,0,0,.289,1.5.887.887,0,0,0,.8.506.927.927,0,0,0,.586-.189,1.846,1.846,0,0,0,.461-.612,14,14,0,0,0,.632-1.62,6.192,6.192,0,0,1,1.118-2.221A1.887,1.887,0,0,1,4283.638,7717.481Z" fill="#3f3f3f"/>
      <path id="Trazado_1104" data-name="Trazado 1104" d="M4285.974,7709.52l-1.219.278v.067a3.832,3.832,0,0,1,1.09,1.379,4.5,4.5,0,0,1,.285,1.717,3.251,3.251,0,0,1-.656,2.155,2.306,2.306,0,0,1-1.868.78q-2.592,0-2.718-4.479l-.047-1.568h-.532a2.069,2.069,0,0,0-1.488.467,2.022,2.022,0,0,0-.48,1.5,6.481,6.481,0,0,0,.656,2.615l-.992.429a7.165,7.165,0,0,1-.735-3.128,3.716,3.716,0,0,1,.68-2.451,2.717,2.717,0,0,1,2.18-.8h5.844Zm-.915,3.163a2.974,2.974,0,0,0-.664-2.054,2.356,2.356,0,0,0-1.859-.747h-.773l.054,1.4a5.449,5.449,0,0,0,.481,2.408,1.422,1.422,0,0,0,1.324.739,1.289,1.289,0,0,0,1.07-.46A2.013,2.013,0,0,0,4285.059,7712.683Z" fill="#3f3f3f"/>
      <path id="Trazado_1105" data-name="Trazado 1105" d="M4283.638,7699.635a2.09,2.09,0,0,1,1.843.962,4.781,4.781,0,0,1,.649,2.7,6.263,6.263,0,0,1-.539,2.868h-1.2a7.164,7.164,0,0,0,.492-1.43,6.394,6.394,0,0,0,.179-1.471,3.551,3.551,0,0,0-.324-1.688,1.072,1.072,0,0,0-1.844-.122,7.667,7.667,0,0,0-.839,1.826,10.2,10.2,0,0,1-.778,1.835,2.4,2.4,0,0,1-.754.81,1.85,1.85,0,0,1-1.007.266,1.887,1.887,0,0,1-1.653-.92,4.554,4.554,0,0,1-.6-2.522,7.882,7.882,0,0,1,.562-2.918l1.055.5a7.157,7.157,0,0,0-.531,2.523,3.093,3.093,0,0,0,.289,1.5.886.886,0,0,0,.8.5.927.927,0,0,0,.586-.189,1.854,1.854,0,0,0,.461-.611,14.228,14.228,0,0,0,.632-1.62,6.2,6.2,0,0,1,1.118-2.222A1.888,1.888,0,0,1,4283.638,7699.635Z" fill="#3f3f3f"/>
      <path id="Trazado_1106" data-name="Trazado 1106" d="M4286.13,7688.569a4.265,4.265,0,0,1-.309,1.649,3.048,3.048,0,0,1-.949,1.253v.1a10.757,10.757,0,0,1,1.422-.1h3.523v1.4h-12.406v-1.139l1.172-.194v-.067a3.2,3.2,0,0,1-1.016-1.257,4.087,4.087,0,0,1-.312-1.645,3.538,3.538,0,0,1,1.164-2.838,5.81,5.81,0,0,1,6.543.017A3.54,3.54,0,0,1,4286.13,7688.569Zm-7.774.2a2.586,2.586,0,0,0,.727,2.049,3.533,3.533,0,0,0,2.312.65h.289a4.036,4.036,0,0,0,2.582-.65,2.562,2.562,0,0,0,.778-2.083,2.219,2.219,0,0,0-.9-1.877,4.024,4.024,0,0,0-2.476-.678,3.88,3.88,0,0,0-2.457.678A2.3,2.3,0,0,0,4278.356,7688.772Z" fill="#3f3f3f"/>
      <path id="Trazado_1107" data-name="Trazado 1107" d="M4285.974,7676.6l-1.219.278v.067a3.837,3.837,0,0,1,1.09,1.379,4.5,4.5,0,0,1,.285,1.716,3.248,3.248,0,0,1-.656,2.155,2.3,2.3,0,0,1-1.868.781q-2.592,0-2.718-4.479l-.047-1.569h-.532a2.065,2.065,0,0,0-1.488.468,2.019,2.019,0,0,0-.48,1.5,6.473,6.473,0,0,0,.656,2.614l-.992.43a7.165,7.165,0,0,1-.735-3.129,3.72,3.72,0,0,1,.68-2.451,2.717,2.717,0,0,1,2.18-.8h5.844Zm-.915,3.162a2.978,2.978,0,0,0-.664-2.054,2.359,2.359,0,0,0-1.859-.746h-.773l.054,1.4a5.452,5.452,0,0,0,.481,2.408,1.422,1.422,0,0,0,1.324.738,1.287,1.287,0,0,0,1.07-.46A2.007,2.007,0,0,0,4285.059,7679.764Z" fill="#3f3f3f"/>
      <path id="Trazado_1108" data-name="Trazado 1108" d="M4277.255,7668.462a5.869,5.869,0,0,1,.094-1.1l1.2.195a5.176,5.176,0,0,0-.118,1.012,2.544,2.544,0,0,0,.844,1.918,2.941,2.941,0,0,0,2.1.8h4.594v1.4h-8.563v-1.157l1.586-.16v-.067a3.894,3.894,0,0,1-1.289-1.239A2.953,2.953,0,0,1,4277.255,7668.462Z" fill="#3f3f3f"/>
      <path id="Trazado_1109" data-name="Trazado 1109" d="M4285.974,7659.943l-1.219.279v.067a3.832,3.832,0,0,1,1.09,1.379,4.506,4.506,0,0,1,.285,1.717,3.251,3.251,0,0,1-.656,2.155,2.305,2.305,0,0,1-1.868.779q-2.592,0-2.718-4.478l-.047-1.569h-.532a2.069,2.069,0,0,0-1.488.468,2.02,2.02,0,0,0-.48,1.5,6.481,6.481,0,0,0,.656,2.616l-.992.429a7.165,7.165,0,0,1-.735-3.129,3.711,3.711,0,0,1,.68-2.45,2.715,2.715,0,0,1,2.18-.8h5.844Zm-.915,3.163a2.97,2.97,0,0,0-.664-2.053,2.356,2.356,0,0,0-1.859-.747h-.773l.054,1.4a5.452,5.452,0,0,0,.481,2.408,1.423,1.423,0,0,0,1.324.739,1.287,1.287,0,0,0,1.07-.46A2.013,2.013,0,0,0,4285.059,7663.106Z" fill="#3f3f3f"/>
      <path id="Trazado_1110" data-name="Trazado 1110" d="M4286.13,7647.63a4.43,4.43,0,0,1-1.156,3.234,4.28,4.28,0,0,1-3.211,1.186,4.717,4.717,0,0,1-3.289-1.1,3.783,3.783,0,0,1-1.219-2.956,3.626,3.626,0,0,1,1.058-2.749,3.873,3.873,0,0,1,2.793-1.013h.821v6.369a3.242,3.242,0,0,0,2.289-.823,2.968,2.968,0,0,0,.781-2.2,7.941,7.941,0,0,0-.578-2.952h1.156a7.862,7.862,0,0,1,.426,1.4A8.52,8.52,0,0,1,4286.13,7647.63Zm-7.789.38a2.378,2.378,0,0,0,.672,1.775,2.968,2.968,0,0,0,1.859.779v-4.832a2.716,2.716,0,0,0-1.879.59A2.16,2.16,0,0,0,4278.341,7648.01Z" fill="#3f3f3f"/>
      <path id="Trazado_1111" data-name="Trazado 1111" d="M4285.974,7640.443v1.4h-12.157v-1.4Z" fill="#3f3f3f"/>
      <path id="Trazado_1112" data-name="Trazado 1112" d="M4285.974,7621.205H4280.4a2.19,2.19,0,0,0-1.535.473,1.9,1.9,0,0,0-.512,1.468,2.469,2.469,0,0,0,.7,1.93,3.127,3.127,0,0,0,2.14.625h4.782v1.4H4280.4a2.2,2.2,0,0,0-1.535.472,1.917,1.917,0,0,0-.512,1.476,2.378,2.378,0,0,0,.731,1.928,3.736,3.736,0,0,0,2.394.611h4.493v1.4h-8.563v-1.138l1.172-.228v-.068a2.688,2.688,0,0,1-.977-1.117,3.645,3.645,0,0,1-.351-1.616,2.788,2.788,0,0,1,1.453-2.834v-.067a2.872,2.872,0,0,1-1.063-1.2,3.983,3.983,0,0,1-.39-1.788,3.287,3.287,0,0,1,.746-2.35,3.18,3.18,0,0,1,2.387-.78h5.586Z" fill="#3f3f3f"/>
      <path id="Trazado_1113" data-name="Trazado 1113" d="M4286.13,7613.016a4.432,4.432,0,0,1-1.156,3.234,4.28,4.28,0,0,1-3.211,1.186,4.722,4.722,0,0,1-3.289-1.1,3.783,3.783,0,0,1-1.219-2.956,3.627,3.627,0,0,1,1.058-2.749,3.875,3.875,0,0,1,2.793-1.013h.821v6.368a3.235,3.235,0,0,0,2.289-.822,2.968,2.968,0,0,0,.781-2.2,7.935,7.935,0,0,0-.578-2.952h1.156a7.85,7.85,0,0,1,.426,1.4A8.509,8.509,0,0,1,4286.13,7613.016Zm-7.789.38a2.377,2.377,0,0,0,.672,1.775,2.974,2.974,0,0,0,1.859.779v-4.832a2.709,2.709,0,0,0-1.879.59A2.16,2.16,0,0,0,4278.341,7613.4Z" fill="#3f3f3f"/>
      <path id="Trazado_1114" data-name="Trazado 1114" d="M4284.825,7600.938v.076a3.383,3.383,0,0,1,1.3,2.9,3.553,3.553,0,0,1-1.149,2.821,4.79,4.79,0,0,1-3.265,1.008,4.874,4.874,0,0,1-3.289-1.012,3.521,3.521,0,0,1-1.172-2.817,3.468,3.468,0,0,1,1.265-2.885v-.109l-.617.059-.6.034h-3.485v-1.4h12.157v1.139Zm.219,2.8a2.652,2.652,0,0,0-.723-2.079,3.452,3.452,0,0,0-2.332-.645h-.273a4.054,4.054,0,0,0-2.6.653,2.583,2.583,0,0,0-.777,2.088,2.2,2.2,0,0,0,.886,1.885,4.164,4.164,0,0,0,2.5.654,3.988,3.988,0,0,0,2.477-.65A2.264,2.264,0,0,0,4285.044,7603.738Z" fill="#3f3f3f"/>
      <path id="Trazado_1115" data-name="Trazado 1115" d="M4275.091,7596.763a.821.821,0,0,1-.653-.237.924.924,0,0,1,0-1.171.811.811,0,0,1,.649-.246.82.82,0,0,1,.652.246.847.847,0,0,1,.215.582.782.782,0,0,1-.867.826Zm10.883-1.519v1.4h-8.563v-1.4Z" fill="#3f3f3f"/>
      <path id="Trazado_1116" data-name="Trazado 1116" d="M4281.684,7584.3a4.5,4.5,0,0,1,3.27,1.139,4.172,4.172,0,0,1,1.176,3.145,4.42,4.42,0,0,1-.539,2.2,3.671,3.671,0,0,1-1.547,1.486,5.06,5.06,0,0,1-2.36.522,4.5,4.5,0,0,1-3.261-1.13,4.165,4.165,0,0,1-1.168-3.138,4.066,4.066,0,0,1,1.2-3.083A4.49,4.49,0,0,1,4281.684,7584.3Zm0,7.043a3.838,3.838,0,0,0,2.5-.709,2.964,2.964,0,0,0,0-4.171,3.823,3.823,0,0,0-2.5-.713,3.767,3.767,0,0,0-2.48.713,2.6,2.6,0,0,0-.848,2.1,2.561,2.561,0,0,0,.836,2.076A3.814,3.814,0,0,0,4281.684,7591.34Z" fill="#3f3f3f"/>
      <path id="Trazado_1117" data-name="Trazado 1117" d="M4285.974,7571.671l-1.219.278v.068a3.832,3.832,0,0,1,1.09,1.379,4.5,4.5,0,0,1,.285,1.716,3.256,3.256,0,0,1-.656,2.156,2.308,2.308,0,0,1-1.868.779q-2.592,0-2.718-4.479l-.047-1.568h-.532a2.065,2.065,0,0,0-1.488.468,2.018,2.018,0,0,0-.48,1.5,6.481,6.481,0,0,0,.656,2.615l-.992.43a7.161,7.161,0,0,1-.735-3.129,3.709,3.709,0,0,1,.68-2.45,2.712,2.712,0,0,1,2.18-.8h5.844Zm-.915,3.163a2.974,2.974,0,0,0-.664-2.054,2.357,2.357,0,0,0-1.859-.747h-.773l.054,1.4a5.452,5.452,0,0,0,.481,2.408,1.423,1.423,0,0,0,1.324.738,1.286,1.286,0,0,0,1.07-.46A2.009,2.009,0,0,0,4285.059,7574.834Z" fill="#3f3f3f"/>
      <path id="Trazado_1118" data-name="Trazado 1118" d="M4285.974,7555.967H4280.4a2.2,2.2,0,0,0-1.535.472,1.906,1.906,0,0,0-.512,1.467,2.472,2.472,0,0,0,.7,1.932,3.132,3.132,0,0,0,2.14.624h4.782v1.4H4280.4a2.2,2.2,0,0,0-1.535.472,1.921,1.921,0,0,0-.512,1.477,2.371,2.371,0,0,0,.731,1.926,3.72,3.72,0,0,0,2.394.612h4.493v1.4h-8.563v-1.139l1.172-.227v-.068a2.681,2.681,0,0,1-.977-1.117,3.646,3.646,0,0,1-.351-1.615,2.787,2.787,0,0,1,1.453-2.834v-.067a2.876,2.876,0,0,1-1.063-1.2,3.977,3.977,0,0,1-.39-1.788,3.28,3.28,0,0,1,.746-2.348,3.176,3.176,0,0,1,2.387-.781h5.586Z" fill="#3f3f3f"/>
      <path id="Trazado_1119" data-name="Trazado 1119" d="M4277.27,7547.38a3.561,3.561,0,0,1,1.153-2.829,5.788,5.788,0,0,1,6.539.008,3.538,3.538,0,0,1,1.168,2.821,4.27,4.27,0,0,1-.309,1.649,3.041,3.041,0,0,1-.949,1.252v.1l1.1.3v1h-12.157v-1.4h2.953c.662,0,1.256.024,1.782.069v-.069A3.422,3.422,0,0,1,4277.27,7547.38Zm1.086.2a2.538,2.538,0,0,0,.762,2.066,5.493,5.493,0,0,0,5.148-.017,2.563,2.563,0,0,0,.778-2.083,2.219,2.219,0,0,0-.871-1.923,4.215,4.215,0,0,0-2.5-.633,4.058,4.058,0,0,0-2.492.633A2.316,2.316,0,0,0,4278.356,7547.583Z" fill="#3f3f3f"/>
      <path id="Trazado_1120" data-name="Trazado 1120" d="M4275.091,7541.215a.824.824,0,0,1-.653-.236.926.926,0,0,1,0-1.172.813.813,0,0,1,.649-.245.822.822,0,0,1,.652.245.906.906,0,0,1,0,1.172A.835.835,0,0,1,4275.091,7541.215Zm10.883-1.519v1.4h-8.563v-1.4Z" fill="#3f3f3f"/>
      <path id="Trazado_1121" data-name="Trazado 1121" d="M4286.13,7532.822a4.435,4.435,0,0,1-1.156,3.236,4.279,4.279,0,0,1-3.211,1.184,4.726,4.726,0,0,1-3.289-1.1,3.786,3.786,0,0,1-1.219-2.956,3.625,3.625,0,0,1,1.058-2.75,3.874,3.874,0,0,1,2.793-1.012h.821v6.368a3.242,3.242,0,0,0,2.289-.823,2.968,2.968,0,0,0,.781-2.2,7.937,7.937,0,0,0-.578-2.952h1.156a7.827,7.827,0,0,1,.426,1.405A8.485,8.485,0,0,1,4286.13,7532.822Zm-7.789.38a2.382,2.382,0,0,0,.672,1.776,2.977,2.977,0,0,0,1.859.78v-4.833a2.709,2.709,0,0,0-1.879.591A2.157,2.157,0,0,0,4278.341,7533.2Z" fill="#3f3f3f"/>
      <path id="Trazado_1122" data-name="Trazado 1122" d="M4285.974,7520.711h-5.54a2.126,2.126,0,0,0-1.562.515,2.191,2.191,0,0,0-.516,1.611,2.775,2.775,0,0,0,.727,2.125,3.47,3.47,0,0,0,2.4.675h4.493v1.4h-8.563V7525.9l1.172-.227v-.068a2.814,2.814,0,0,1-.981-1.206,4.192,4.192,0,0,1-.347-1.729,3.7,3.7,0,0,1,.746-2.514,3.036,3.036,0,0,1,2.387-.843h5.586Z" fill="#3f3f3f"/>
      <path id="Trazado_1123" data-name="Trazado 1123" d="M4285.059,7513.449a4.889,4.889,0,0,0-.05-.717,4.728,4.728,0,0,0-.106-.548h.992a2.662,2.662,0,0,1,.168.671,5.452,5.452,0,0,1,.067.8q0,2.682-2.617,2.683h-5.094v1.324h-.625l-.539-1.324-1.828-.591v-.809h1.984v-2.683h1.008v2.683h5.039a1.645,1.645,0,0,0,1.187-.4A1.433,1.433,0,0,0,4285.059,7513.449Z" fill="#3f3f3f"/>
      <path id="Trazado_1124" data-name="Trazado 1124" d="M4286.13,7506.432a4.432,4.432,0,0,1-1.156,3.234,4.28,4.28,0,0,1-3.211,1.186,4.722,4.722,0,0,1-3.289-1.1,3.784,3.784,0,0,1-1.219-2.956,3.627,3.627,0,0,1,1.058-2.749,3.875,3.875,0,0,1,2.793-1.013h.821v6.368a3.235,3.235,0,0,0,2.289-.822,2.968,2.968,0,0,0,.781-2.2,7.935,7.935,0,0,0-.578-2.952h1.156a7.85,7.85,0,0,1,.426,1.4A8.509,8.509,0,0,1,4286.13,7506.432Zm-7.789.38a2.377,2.377,0,0,0,.672,1.775,2.974,2.974,0,0,0,1.859.779v-4.832a2.709,2.709,0,0,0-1.879.59A2.16,2.16,0,0,0,4278.341,7506.812Z" fill="#3f3f3f"/>
      <path id="Trazado_1125" data-name="Trazado 1125" d="M4285.145,7500.848a1.1,1.1,0,0,1-.793-.257.973.973,0,0,1-.269-.738,1.041,1.041,0,0,1,.269-.763,1.067,1.067,0,0,1,.793-.275,1.068,1.068,0,0,1,.809,1.75A1.021,1.021,0,0,1,4285.145,7500.848Z" fill="#3f3f3f"/>
    </g>
    <g id="Grupo_984" data-name="Grupo 984">
      <path id="Trazado_1126" data-name="Trazado 1126" d="M3928.419,7873.5a7.217,7.217,0,0,1-1.535,5.039,6.022,6.022,0,0,1-4.647,1.664,9.433,9.433,0,0,1-1.662-.109v-1.938a6.534,6.534,0,0,0,1.485.164,5.571,5.571,0,0,0,2.15-.355,2.648,2.648,0,0,0,1.291-1.117,4.626,4.626,0,0,0,.514-2.1h-.1a2.783,2.783,0,0,1-1.131,1.031,3.8,3.8,0,0,1-1.6.3,3.366,3.366,0,0,1-2.538-.957,3.658,3.658,0,0,1-.928-2.66,3.8,3.8,0,0,1,1.126-2.9,4.277,4.277,0,0,1,3.066-1.067,4.682,4.682,0,0,1,2.391.594,3.91,3.91,0,0,1,1.572,1.723A6.083,6.083,0,0,1,3928.419,7873.5Zm-4.462-3.07a1.6,1.6,0,0,0-1.264.515,2.172,2.172,0,0,0-.456,1.485,1.952,1.952,0,0,0,.413,1.312,1.561,1.561,0,0,0,1.257.485,2.031,2.031,0,0,0,1.358-.481,1.421,1.421,0,0,0,.564-1.1,2.393,2.393,0,0,0-.526-1.571A1.671,1.671,0,0,0,3923.957,7870.433Z" fill="#3f3f3f"/>
      <path id="Trazado_1127" data-name="Trazado 1127" d="M3943.019,7871.956a3.105,3.105,0,0,1-1.278,2.668,6.124,6.124,0,0,1-3.657.934h-1.45v4.492H3935.2v-11.422h3.2Q3943.019,7868.628,3943.019,7871.956Zm-6.385,2.461h1.29a5.1,5.1,0,0,0,2.759-.57,2.042,2.042,0,0,0,.851-1.828,1.915,1.915,0,0,0-.8-1.688,4.451,4.451,0,0,0-2.5-.555h-1.6Z" fill="#3f3f3f"/>
      <path id="Trazado_1128" data-name="Trazado 1128" d="M3949.294,7880.206a4.432,4.432,0,0,1-3.235-1.156,4.279,4.279,0,0,1-1.185-3.211,4.721,4.721,0,0,1,1.1-3.289,3.783,3.783,0,0,1,2.956-1.219,3.628,3.628,0,0,1,2.75,1.059,3.871,3.871,0,0,1,1.012,2.793v.82h-6.369a3.239,3.239,0,0,0,.824,2.289,2.96,2.96,0,0,0,2.2.781,7.941,7.941,0,0,0,2.952-.578v1.156a7.718,7.718,0,0,1-1.4.426A8.507,8.507,0,0,1,3949.294,7880.206Zm-.38-7.789a2.384,2.384,0,0,0-1.775.672,2.982,2.982,0,0,0-.78,1.859h4.833a2.715,2.715,0,0,0-.591-1.879A2.162,2.162,0,0,0,3948.914,7872.417Z" fill="#3f3f3f"/>
      <path id="Trazado_1129" data-name="Trazado 1129" d="M3956.48,7880.05h-1.4v-12.156h1.4Z" fill="#3f3f3f"/>
      <path id="Trazado_1130" data-name="Trazado 1130" d="M3959.33,7869.167a.821.821,0,0,1,.237-.652.928.928,0,0,1,1.173,0,.809.809,0,0,1,.244.648.819.819,0,0,1-.244.652.853.853,0,0,1-.583.215.782.782,0,0,1-.827-.867Zm1.519,10.883h-1.4v-8.563h1.4Z" fill="#3f3f3f"/>
      <path id="Trazado_1131" data-name="Trazado 1131" d="M3971.383,7871.487v.821l-1.712.187a2.713,2.713,0,0,1,.422.715,2.547,2.547,0,0,1,.186,1,2.451,2.451,0,0,1-.928,2.008,3.942,3.942,0,0,1-2.547.75,4.542,4.542,0,0,1-.776-.063q-.894.438-.894,1.1a.554.554,0,0,0,.312.52,2.444,2.444,0,0,0,1.071.167h1.637a3.884,3.884,0,0,1,2.306.586,1.976,1.976,0,0,1,.806,1.7,2.389,2.389,0,0,1-1.232,2.168,7.022,7.022,0,0,1-3.593.746,5.213,5.213,0,0,1-2.8-.625,1.979,1.979,0,0,1-.983-1.766,1.9,1.9,0,0,1,.54-1.352,2.828,2.828,0,0,1,1.518-.773,1.444,1.444,0,0,1-.594-.461,1.154,1.154,0,0,1-.241-.727,1.3,1.3,0,0,1,.271-.82,2.781,2.781,0,0,1,.851-.68,2.452,2.452,0,0,1-1.168-.929,2.584,2.584,0,0,1-.451-1.5,2.67,2.67,0,0,1,.911-2.168,3.912,3.912,0,0,1,2.58-.762,5.093,5.093,0,0,1,1.308.156Zm-7.371,10a1.145,1.145,0,0,0,.633,1.055,3.728,3.728,0,0,0,1.813.359,5.415,5.415,0,0,0,2.611-.488,1.481,1.481,0,0,0,.847-1.324,1.021,1.021,0,0,0-.464-.965,3.847,3.847,0,0,0-1.746-.269h-1.678a2.336,2.336,0,0,0-1.485.421A1.457,1.457,0,0,0,3964.012,7881.487Zm.759-7.257a1.669,1.669,0,0,0,.549,1.359,2.3,2.3,0,0,0,1.526.461q2.049,0,2.05-1.844,0-1.929-2.075-1.93a2.151,2.151,0,0,0-1.519.493A1.9,1.9,0,0,0,3964.771,7874.23Z" fill="#3f3f3f"/>
      <path id="Trazado_1132" data-name="Trazado 1132" d="M3977.5,7871.331a5.875,5.875,0,0,1,1.106.094l-.2,1.2a5.115,5.115,0,0,0-1.011-.117,2.543,2.543,0,0,0-1.919.844,2.942,2.942,0,0,0-.8,2.1v4.594h-1.4v-8.563h1.155l.16,1.586h.067a3.894,3.894,0,0,1,1.241-1.289A2.943,2.943,0,0,1,3977.5,7871.331Z" fill="#3f3f3f"/>
      <path id="Trazado_1133" data-name="Trazado 1133" d="M3988.312,7875.761a4.5,4.5,0,0,1-1.139,3.269,4.176,4.176,0,0,1-3.146,1.176,4.431,4.431,0,0,1-2.2-.539,3.669,3.669,0,0,1-1.484-1.547,5.047,5.047,0,0,1-.523-2.359,4.5,4.5,0,0,1,1.131-3.262,4.161,4.161,0,0,1,3.137-1.168,4.065,4.065,0,0,1,3.082,1.195A4.483,4.483,0,0,1,3988.312,7875.761Zm-7.043,0a3.844,3.844,0,0,0,.708,2.5,2.966,2.966,0,0,0,4.171,0,3.828,3.828,0,0,0,.713-2.5,3.771,3.771,0,0,0-.713-2.481,2.6,2.6,0,0,0-2.1-.847,2.552,2.552,0,0,0-2.074.836A3.8,3.8,0,0,0,3981.269,7875.761Z" fill="#3f3f3f"/>
      <path id="Trazado_1134" data-name="Trazado 1134" d="M3996.729,7877.714a2.1,2.1,0,0,1-.962,1.844,4.793,4.793,0,0,1-2.7.648,6.277,6.277,0,0,1-2.869-.539v-1.2a7.231,7.231,0,0,0,1.43.492,6.407,6.407,0,0,0,1.472.18,3.566,3.566,0,0,0,1.687-.324,1.073,1.073,0,0,0,.122-1.844,7.618,7.618,0,0,0-1.826-.84,10.41,10.41,0,0,1-1.835-.777,2.424,2.424,0,0,1-.809-.754,1.856,1.856,0,0,1-.266-1.008,1.884,1.884,0,0,1,.92-1.652,4.539,4.539,0,0,1,2.521-.606,7.88,7.88,0,0,1,2.918.563l-.5,1.054a7.171,7.171,0,0,0-2.522-.531,3.106,3.106,0,0,0-1.5.289.886.886,0,0,0-.506.8.923.923,0,0,0,.19.586,1.836,1.836,0,0,0,.611.461,14.137,14.137,0,0,0,1.62.633,6.2,6.2,0,0,1,2.222,1.117A1.893,1.893,0,0,1,3996.729,7877.714Z" fill="#3f3f3f"/>
      <path id="Trazado_1135" data-name="Trazado 1135" d="M4006.985,7875.761a4.5,4.5,0,0,1-1.139,3.269,4.174,4.174,0,0,1-3.146,1.176,4.426,4.426,0,0,1-2.2-.539,3.666,3.666,0,0,1-1.485-1.547,5.05,5.05,0,0,1-.523-2.359,4.5,4.5,0,0,1,1.13-3.262,4.167,4.167,0,0,1,3.138-1.168,4.069,4.069,0,0,1,3.083,1.195A4.487,4.487,0,0,1,4006.985,7875.761Zm-7.043,0a3.84,3.84,0,0,0,.709,2.5,2.966,2.966,0,0,0,4.171,0,3.835,3.835,0,0,0,.712-2.5,3.778,3.778,0,0,0-.712-2.481,2.6,2.6,0,0,0-2.1-.847,2.553,2.553,0,0,0-2.075.836A3.8,3.8,0,0,0,3999.942,7875.761Z" fill="#3f3f3f"/>
      <path id="Trazado_1136" data-name="Trazado 1136" d="M4015.4,7877.714a2.1,2.1,0,0,1-.961,1.844,4.8,4.8,0,0,1-2.7.648,6.27,6.27,0,0,1-2.867-.539v-1.2a7.182,7.182,0,0,0,1.43.492,6.4,6.4,0,0,0,1.472.18,3.561,3.561,0,0,0,1.686-.324,1.071,1.071,0,0,0,.122-1.844,7.6,7.6,0,0,0-1.826-.84,10.31,10.31,0,0,1-1.834-.777,2.414,2.414,0,0,1-.809-.754,1.848,1.848,0,0,1-.266-1.008,1.883,1.883,0,0,1,.919-1.652,4.542,4.542,0,0,1,2.522-.606,7.885,7.885,0,0,1,2.918.563l-.5,1.054a7.175,7.175,0,0,0-2.521-.531,3.1,3.1,0,0,0-1.5.289.886.886,0,0,0-.507.8.916.916,0,0,0,.19.586,1.83,1.83,0,0,0,.612.461,14.109,14.109,0,0,0,1.619.633,6.194,6.194,0,0,1,2.222,1.117A1.893,1.893,0,0,1,4015.4,7877.714Z" fill="#3f3f3f"/>
      <path id="Trazado_1137" data-name="Trazado 1137" d="M4024.191,7880.05l-3.509-8.563h1.5l1.99,5.078a22.633,22.633,0,0,1,.793,2.313h.067a16.944,16.944,0,0,1,.587-1.715q.493-1.3,2.214-5.676h1.5l-3.509,8.563Z" fill="#3f3f3f"/>
      <path id="Trazado_1138" data-name="Trazado 1138" d="M4036.5,7880.05l-.278-1.219h-.068a3.814,3.814,0,0,1-1.378,1.09,4.5,4.5,0,0,1-1.716.285,3.253,3.253,0,0,1-2.156-.656,2.3,2.3,0,0,1-.78-1.867q0-2.594,4.479-2.719l1.569-.047v-.531a2.057,2.057,0,0,0-.469-1.488,2.011,2.011,0,0,0-1.5-.481,6.492,6.492,0,0,0-2.614.656l-.431-.992a7.146,7.146,0,0,1,3.13-.734,3.718,3.718,0,0,1,2.45.679,2.716,2.716,0,0,1,.8,2.18v5.844Zm-3.162-.914a2.982,2.982,0,0,0,2.054-.664,2.363,2.363,0,0,0,.746-1.86v-.773l-1.4.055a5.441,5.441,0,0,0-2.407.48,1.424,1.424,0,0,0-.738,1.324,1.289,1.289,0,0,0,.46,1.071A2.007,2.007,0,0,0,4033.342,7879.136Z" fill="#3f3f3f"/>
      <path id="Trazado_1139" data-name="Trazado 1139" d="M4044.644,7871.331a5.853,5.853,0,0,1,1.1.094l-.194,1.2a5.124,5.124,0,0,0-1.012-.117,2.544,2.544,0,0,0-1.919.844,2.942,2.942,0,0,0-.8,2.1v4.594h-1.4v-8.563h1.156l.16,1.586h.068a3.9,3.9,0,0,1,1.239-1.289A2.95,2.95,0,0,1,4044.644,7871.331Z" fill="#3f3f3f"/>
      <path id="Trazado_1140" data-name="Trazado 1140" d="M4047.36,7869.167a.821.821,0,0,1,.236-.652.926.926,0,0,1,1.172,0,.81.81,0,0,1,.245.648.821.821,0,0,1-.245.652.849.849,0,0,1-.582.215.781.781,0,0,1-.826-.867Zm1.518,10.883h-1.4v-8.563h1.4Z" fill="#3f3f3f"/>
      <path id="Trazado_1141" data-name="Trazado 1141" d="M4059.825,7875.761a4.5,4.5,0,0,1-1.138,3.269,4.175,4.175,0,0,1-3.146,1.176,4.426,4.426,0,0,1-2.2-.539,3.659,3.659,0,0,1-1.485-1.547,5.05,5.05,0,0,1-.523-2.359,4.5,4.5,0,0,1,1.13-3.262,4.168,4.168,0,0,1,3.138-1.168,4.069,4.069,0,0,1,3.083,1.195A4.487,4.487,0,0,1,4059.825,7875.761Zm-7.043,0a3.845,3.845,0,0,0,.709,2.5,2.966,2.966,0,0,0,4.171,0,3.829,3.829,0,0,0,.713-2.5,3.772,3.772,0,0,0-.713-2.481,2.6,2.6,0,0,0-2.1-.847,2.552,2.552,0,0,0-2.075.836A3.8,3.8,0,0,0,4052.782,7875.761Z" fill="#3f3f3f"/>
      <path id="Trazado_1142" data-name="Trazado 1142" d="M4068.242,7877.714a2.094,2.094,0,0,1-.96,1.844,4.8,4.8,0,0,1-2.7.648,6.269,6.269,0,0,1-2.867-.539v-1.2a7.156,7.156,0,0,0,1.43.492,6.4,6.4,0,0,0,1.471.18,3.566,3.566,0,0,0,1.687-.324,1.071,1.071,0,0,0,.122-1.844,7.608,7.608,0,0,0-1.826-.84,10.323,10.323,0,0,1-1.834-.777,2.429,2.429,0,0,1-.81-.754,1.856,1.856,0,0,1-.265-1.008,1.881,1.881,0,0,1,.919-1.652,4.543,4.543,0,0,1,2.522-.606,7.885,7.885,0,0,1,2.918.563l-.5,1.054a7.179,7.179,0,0,0-2.521-.531,3.094,3.094,0,0,0-1.5.289.885.885,0,0,0-.507.8.917.917,0,0,0,.19.586,1.831,1.831,0,0,0,.612.461,14.109,14.109,0,0,0,1.619.633,6.2,6.2,0,0,1,2.222,1.117A1.892,1.892,0,0,1,4068.242,7877.714Z" fill="#3f3f3f"/>
      <path id="Trazado_1143" data-name="Trazado 1143" d="M4074.889,7869.167a.821.821,0,0,1,.236-.652.926.926,0,0,1,1.172,0,.81.81,0,0,1,.245.648.821.821,0,0,1-.245.652.905.905,0,0,1-1.172,0A.834.834,0,0,1,4074.889,7869.167Zm1.518,10.883h-1.4v-8.563h1.4Z" fill="#3f3f3f"/>
      <path id="Trazado_1144" data-name="Trazado 1144" d="M4085.7,7880.05v-5.539a2.129,2.129,0,0,0-.513-1.563,2.2,2.2,0,0,0-1.612-.515,2.78,2.78,0,0,0-2.126.726,3.479,3.479,0,0,0-.673,2.4v4.492h-1.4v-8.563h1.139l.227,1.172h.068a2.8,2.8,0,0,1,1.206-.98,4.172,4.172,0,0,1,1.729-.348,3.691,3.691,0,0,1,2.513.746,3.033,3.033,0,0,1,.844,2.387v5.586Z" fill="#3f3f3f"/>
      <path id="Trazado_1145" data-name="Trazado 1145" d="M4093.672,7880.206a4.106,4.106,0,0,1-3.107-1.144,4.479,4.479,0,0,1-1.1-3.239,4.623,4.623,0,0,1,1.118-3.32,4.192,4.192,0,0,1,3.184-1.172,6.854,6.854,0,0,1,1.333.133,4.75,4.75,0,0,1,1.046.312l-.431,1.1a7.1,7.1,0,0,0-1.012-.285,4.914,4.914,0,0,0-.969-.113q-2.818,0-2.818,3.328a3.751,3.751,0,0,0,.688,2.422,2.474,2.474,0,0,0,2.037.843,6.644,6.644,0,0,0,2.37-.461v1.149A5.394,5.394,0,0,1,4093.672,7880.206Z" fill="#3f3f3f"/>
      <path id="Trazado_1146" data-name="Trazado 1146" d="M4099.6,7880.05h-1.4v-12.156h1.4Z" fill="#3f3f3f"/>
      <path id="Trazado_1147" data-name="Trazado 1147" d="M4103.887,7871.487v5.555a2.129,2.129,0,0,0,.514,1.563,2.2,2.2,0,0,0,1.611.515,2.741,2.741,0,0,0,2.121-.734,3.505,3.505,0,0,0,.671-2.4v-4.5h1.4v8.563h-1.156l-.2-1.149h-.076a2.726,2.726,0,0,1-1.194.969,4.275,4.275,0,0,1-1.741.336,3.715,3.715,0,0,1-2.526-.742,3.014,3.014,0,0,1-.839-2.375v-5.6Z" fill="#3f3f3f"/>
      <path id="Trazado_1148" data-name="Trazado 1148" d="M4113.055,7869.167a.82.82,0,0,1,.236-.652.926.926,0,0,1,1.172,0,.81.81,0,0,1,.245.648.82.82,0,0,1-.245.652.9.9,0,0,1-1.172,0A.833.833,0,0,1,4113.055,7869.167Zm1.519,10.883h-1.4v-8.563h1.4Z" fill="#3f3f3f"/>
      <path id="Trazado_1149" data-name="Trazado 1149" d="M4123.834,7878.9h-.076a3.38,3.38,0,0,1-2.9,1.305,3.558,3.558,0,0,1-2.822-1.148,4.8,4.8,0,0,1-1.007-3.266,4.881,4.881,0,0,1,1.011-3.289,3.527,3.527,0,0,1,2.818-1.172,3.462,3.462,0,0,1,2.884,1.266h.11l-.059-.617-.034-.6v-3.484h1.4v12.156h-1.138Zm-2.8.219a2.658,2.658,0,0,0,2.08-.722,3.455,3.455,0,0,0,.645-2.333v-.273a4.062,4.062,0,0,0-.653-2.6,2.586,2.586,0,0,0-2.088-.777,2.2,2.2,0,0,0-1.885.887,4.164,4.164,0,0,0-.654,2.5,3.985,3.985,0,0,0,.65,2.476A2.265,2.265,0,0,0,4121.033,7879.12Z" fill="#3f3f3f"/>
      <path id="Trazado_1150" data-name="Trazado 1150" d="M4133.812,7880.05l-.279-1.219h-.067a3.825,3.825,0,0,1-1.379,1.09,4.5,4.5,0,0,1-1.717.285,3.253,3.253,0,0,1-2.155-.656,2.307,2.307,0,0,1-.779-1.867q0-2.594,4.478-2.719l1.569-.047v-.531a2.066,2.066,0,0,0-.468-1.488,2.017,2.017,0,0,0-1.5-.481,6.49,6.49,0,0,0-2.615.656l-.43-.992a7.146,7.146,0,0,1,3.129-.734,3.714,3.714,0,0,1,2.45.679,2.719,2.719,0,0,1,.8,2.18v5.844Zm-3.163-.914a2.977,2.977,0,0,0,2.053-.664,2.361,2.361,0,0,0,.747-1.86v-.773l-1.4.055a5.448,5.448,0,0,0-2.408.48,1.424,1.424,0,0,0-.738,1.324,1.29,1.29,0,0,0,.46,1.071A2.009,2.009,0,0,0,4130.649,7879.136Z" fill="#3f3f3f"/>
      <path id="Trazado_1151" data-name="Trazado 1151" d="M4143.7,7877.714a2.094,2.094,0,0,1-.962,1.844,4.793,4.793,0,0,1-2.7.648,6.275,6.275,0,0,1-2.868-.539v-1.2a7.217,7.217,0,0,0,1.43.492,6.4,6.4,0,0,0,1.472.18,3.566,3.566,0,0,0,1.687-.324,1.072,1.072,0,0,0,.122-1.844,7.624,7.624,0,0,0-1.826-.84,10.377,10.377,0,0,1-1.835-.777,2.435,2.435,0,0,1-.81-.754,1.862,1.862,0,0,1-.265-1.008,1.882,1.882,0,0,1,.92-1.652,4.539,4.539,0,0,1,2.521-.606,7.885,7.885,0,0,1,2.918.563l-.5,1.054a7.174,7.174,0,0,0-2.522-.531,3.1,3.1,0,0,0-1.5.289.886.886,0,0,0-.506.8.922.922,0,0,0,.189.586,1.842,1.842,0,0,0,.612.461,14.185,14.185,0,0,0,1.62.633,6.2,6.2,0,0,1,2.221,1.117A1.891,1.891,0,0,1,4143.7,7877.714Z" fill="#3f3f3f"/>
      <path id="Trazado_1152" data-name="Trazado 1152" d="M4156.423,7877.714a2.093,2.093,0,0,1-.961,1.844,4.8,4.8,0,0,1-2.7.648,6.265,6.265,0,0,1-2.867-.539v-1.2a7.165,7.165,0,0,0,1.429.492,6.4,6.4,0,0,0,1.472.18,3.566,3.566,0,0,0,1.687-.324,1.072,1.072,0,0,0,.122-1.844,7.621,7.621,0,0,0-1.826-.84,10.3,10.3,0,0,1-1.834-.777,2.416,2.416,0,0,1-.81-.754,1.846,1.846,0,0,1-.266-1.008,1.883,1.883,0,0,1,.919-1.652,4.546,4.546,0,0,1,2.523-.606,7.885,7.885,0,0,1,2.918.563l-.5,1.054a7.179,7.179,0,0,0-2.522-.531,3.1,3.1,0,0,0-1.5.289.886.886,0,0,0-.507.8.918.918,0,0,0,.191.586,1.837,1.837,0,0,0,.611.461,14.147,14.147,0,0,0,1.619.633,6.211,6.211,0,0,1,2.223,1.117A1.893,1.893,0,0,1,4156.423,7877.714Z" fill="#3f3f3f"/>
      <path id="Trazado_1153" data-name="Trazado 1153" d="M4160.017,7871.487v5.555a2.129,2.129,0,0,0,.514,1.563,2.2,2.2,0,0,0,1.611.515,2.743,2.743,0,0,0,2.121-.734,3.508,3.508,0,0,0,.671-2.4v-4.5h1.4v8.563h-1.156l-.2-1.149h-.076a2.726,2.726,0,0,1-1.194.969,4.275,4.275,0,0,1-1.741.336,3.715,3.715,0,0,1-2.526-.742,3.014,3.014,0,0,1-.839-2.375v-5.6Z" fill="#3f3f3f"/>
      <path id="Trazado_1154" data-name="Trazado 1154" d="M4175.266,7877.714a2.093,2.093,0,0,1-.962,1.844,4.793,4.793,0,0,1-2.7.648,6.27,6.27,0,0,1-2.868-.539v-1.2a7.208,7.208,0,0,0,1.429.492,6.406,6.406,0,0,0,1.472.18,3.566,3.566,0,0,0,1.687-.324,1.073,1.073,0,0,0,.123-1.844,7.643,7.643,0,0,0-1.827-.84,10.4,10.4,0,0,1-1.835-.777,2.429,2.429,0,0,1-.809-.754,1.854,1.854,0,0,1-.266-1.008,1.884,1.884,0,0,1,.92-1.652,4.541,4.541,0,0,1,2.522-.606,7.887,7.887,0,0,1,2.918.563l-.5,1.054a7.172,7.172,0,0,0-2.522-.531,3.107,3.107,0,0,0-1.5.289.886.886,0,0,0-.506.8.923.923,0,0,0,.19.586,1.845,1.845,0,0,0,.611.461,14.128,14.128,0,0,0,1.62.633,6.2,6.2,0,0,1,2.222,1.117A1.889,1.889,0,0,1,4175.266,7877.714Z" fill="#3f3f3f"/>
      <path id="Trazado_1155" data-name="Trazado 1155" d="M4180.529,7879.136a4.864,4.864,0,0,0,.716-.051,4.68,4.68,0,0,0,.549-.1v.992a2.705,2.705,0,0,1-.671.168,5.453,5.453,0,0,1-.8.066q-2.682,0-2.682-2.617V7872.5h-1.324v-.625l1.324-.539.591-1.828h.809v1.984h2.683v1.008h-2.683v5.039a1.648,1.648,0,0,0,.4,1.188A1.435,1.435,0,0,0,4180.529,7879.136Z" fill="#3f3f3f"/>
      <path id="Trazado_1156" data-name="Trazado 1156" d="M4189.325,7880.05l-.278-1.219h-.067a3.825,3.825,0,0,1-1.379,1.09,4.5,4.5,0,0,1-1.716.285,3.248,3.248,0,0,1-2.155-.656,2.3,2.3,0,0,1-.781-1.867q0-2.594,4.479-2.719l1.569-.047v-.531a2.062,2.062,0,0,0-.468-1.488,2.014,2.014,0,0,0-1.5-.481,6.493,6.493,0,0,0-2.615.656l-.43-.992a7.146,7.146,0,0,1,3.129-.734,3.721,3.721,0,0,1,2.451.679,2.718,2.718,0,0,1,.8,2.18v5.844Zm-3.162-.914a2.98,2.98,0,0,0,2.054-.664,2.363,2.363,0,0,0,.746-1.86v-.773l-1.4.055a5.44,5.44,0,0,0-2.407.48,1.423,1.423,0,0,0-.739,1.324,1.291,1.291,0,0,0,.46,1.071A2.008,2.008,0,0,0,4186.163,7879.136Z" fill="#3f3f3f"/>
      <path id="Trazado_1157" data-name="Trazado 1157" d="M4199.574,7880.05v-5.539a2.131,2.131,0,0,0-.515-1.563,2.2,2.2,0,0,0-1.611-.515,2.773,2.773,0,0,0-2.125.726,3.467,3.467,0,0,0-.675,2.4v4.492h-1.4v-8.563h1.139l.228,1.172h.068a2.788,2.788,0,0,1,1.206-.98,4.165,4.165,0,0,1,1.728-.348,3.7,3.7,0,0,1,2.514.746,3.033,3.033,0,0,1,.844,2.387v5.586Z" fill="#3f3f3f"/>
      <path id="Trazado_1158" data-name="Trazado 1158" d="M4207.544,7880.206a4.106,4.106,0,0,1-3.108-1.144,4.483,4.483,0,0,1-1.1-3.239,4.622,4.622,0,0,1,1.117-3.32,4.2,4.2,0,0,1,3.185-1.172,6.857,6.857,0,0,1,1.332.133,4.751,4.751,0,0,1,1.046.312l-.43,1.1a7.147,7.147,0,0,0-1.012-.285,4.929,4.929,0,0,0-.97-.113q-2.817,0-2.818,3.328a3.751,3.751,0,0,0,.688,2.422,2.476,2.476,0,0,0,2.037.843,6.634,6.634,0,0,0,2.37-.461v1.149A5.389,5.389,0,0,1,4207.544,7880.206Z" fill="#3f3f3f"/>
      <path id="Trazado_1159" data-name="Trazado 1159" d="M4211.955,7869.167a.818.818,0,0,1,.237-.652.926.926,0,0,1,1.172,0,.81.81,0,0,1,.245.648.82.82,0,0,1-.245.652.85.85,0,0,1-.582.215.782.782,0,0,1-.827-.867Zm1.519,10.883h-1.4v-8.563h1.4Z" fill="#3f3f3f"/>
      <path id="Trazado_1160" data-name="Trazado 1160" d="M4222.127,7880.05l-.278-1.219h-.067a3.83,3.83,0,0,1-1.379,1.09,4.507,4.507,0,0,1-1.717.285,3.251,3.251,0,0,1-2.155-.656,2.306,2.306,0,0,1-.78-1.867q0-2.594,4.479-2.719l1.568-.047v-.531a2.062,2.062,0,0,0-.468-1.488,2.014,2.014,0,0,0-1.5-.481,6.5,6.5,0,0,0-2.615.656l-.43-.992a7.146,7.146,0,0,1,3.129-.734,3.714,3.714,0,0,1,2.45.679,2.717,2.717,0,0,1,.8,2.18v5.844Zm-3.163-.914a2.979,2.979,0,0,0,2.054-.664,2.361,2.361,0,0,0,.747-1.86v-.773l-1.4.055a5.455,5.455,0,0,0-2.409.48,1.424,1.424,0,0,0-.738,1.324,1.289,1.289,0,0,0,.46,1.071A2.009,2.009,0,0,0,4218.964,7879.136Z" fill="#3f3f3f"/>
      <path id="Trazado_1161" data-name="Trazado 1161" d="M4232.012,7877.714a2.092,2.092,0,0,1-.962,1.844,4.791,4.791,0,0,1-2.7.648,6.27,6.27,0,0,1-2.868-.539v-1.2a7.218,7.218,0,0,0,1.429.492,6.4,6.4,0,0,0,1.472.18,3.574,3.574,0,0,0,1.688-.324,1.073,1.073,0,0,0,.122-1.844,7.636,7.636,0,0,0-1.827-.84,10.385,10.385,0,0,1-1.835-.777,2.429,2.429,0,0,1-.809-.754,1.854,1.854,0,0,1-.266-1.008,1.884,1.884,0,0,1,.92-1.652,4.541,4.541,0,0,1,2.522-.606,7.887,7.887,0,0,1,2.918.563l-.5,1.054a7.179,7.179,0,0,0-2.523-.531,3.1,3.1,0,0,0-1.5.289.886.886,0,0,0-.506.8.923.923,0,0,0,.19.586,1.848,1.848,0,0,0,.611.461,14.185,14.185,0,0,0,1.62.633,6.2,6.2,0,0,1,2.222,1.117A1.891,1.891,0,0,1,4232.012,7877.714Z" fill="#3f3f3f"/>
      <path id="Trazado_1162" data-name="Trazado 1162" d="M3924.945,7902.206a4.273,4.273,0,0,1-1.65-.308,3.057,3.057,0,0,1-1.252-.95h-.1a10.714,10.714,0,0,1,.1,1.422v3.524h-1.4v-12.407h1.139l.193,1.172h.068a3.2,3.2,0,0,1,1.256-1.015,4.091,4.091,0,0,1,1.646-.313,3.54,3.54,0,0,1,2.837,1.164,5.813,5.813,0,0,1-.016,6.543A3.543,3.543,0,0,1,3924.945,7902.206Zm-.2-7.773a2.582,2.582,0,0,0-2.048.726,3.536,3.536,0,0,0-.65,2.313v.289a4.032,4.032,0,0,0,.65,2.582,2.565,2.565,0,0,0,2.083.777,2.222,2.222,0,0,0,1.876-.9,4.022,4.022,0,0,0,.679-2.477,3.874,3.874,0,0,0-.679-2.457A2.3,2.3,0,0,0,3924.741,7894.433Z" fill="#3f3f3f"/>
      <path id="Trazado_1163" data-name="Trazado 1163" d="M3935.133,7902.206a4.433,4.433,0,0,1-3.235-1.156,4.279,4.279,0,0,1-1.185-3.211,4.722,4.722,0,0,1,1.1-3.289,3.782,3.782,0,0,1,2.956-1.219,3.629,3.629,0,0,1,2.75,1.059,3.871,3.871,0,0,1,1.012,2.793v.82h-6.369a3.238,3.238,0,0,0,.824,2.289,2.96,2.96,0,0,0,2.2.781,7.946,7.946,0,0,0,2.952-.578v1.156a7.714,7.714,0,0,1-1.4.426A8.5,8.5,0,0,1,3935.133,7902.206Zm-.38-7.789a2.383,2.383,0,0,0-1.775.672,2.976,2.976,0,0,0-.78,1.859h4.833a2.714,2.714,0,0,0-.591-1.879A2.162,2.162,0,0,0,3934.753,7894.417Z" fill="#3f3f3f"/>
      <path id="Trazado_1164" data-name="Trazado 1164" d="M3942.319,7902.05h-1.4v-12.156h1.4Z" fill="#3f3f3f"/>
      <path id="Trazado_1165" data-name="Trazado 1165" d="M3945.169,7891.167a.821.821,0,0,1,.237-.652.926.926,0,0,1,1.172,0,.81.81,0,0,1,.245.648.82.82,0,0,1-.245.652.848.848,0,0,1-.582.215.783.783,0,0,1-.827-.867Zm1.519,10.883h-1.4v-8.563h1.4Z" fill="#3f3f3f"/>
      <path id="Trazado_1166" data-name="Trazado 1166" d="M3957.222,7893.487v.821l-1.712.187a2.707,2.707,0,0,1,.422.715,2.547,2.547,0,0,1,.185,1,2.449,2.449,0,0,1-.927,2.008,3.941,3.941,0,0,1-2.547.75,4.554,4.554,0,0,1-.777-.063q-.892.438-.893,1.1a.553.553,0,0,0,.311.52,2.449,2.449,0,0,0,1.072.167h1.636a3.889,3.889,0,0,1,2.307.586,1.977,1.977,0,0,1,.806,1.7,2.389,2.389,0,0,1-1.232,2.168,7.022,7.022,0,0,1-3.593.746,5.214,5.214,0,0,1-2.8-.625,1.977,1.977,0,0,1-.983-1.766,1.9,1.9,0,0,1,.54-1.352,2.827,2.827,0,0,1,1.518-.773,1.443,1.443,0,0,1-.594-.461,1.152,1.152,0,0,1-.241-.727,1.309,1.309,0,0,1,.27-.82,2.8,2.8,0,0,1,.852-.68,2.449,2.449,0,0,1-1.168-.929,2.584,2.584,0,0,1-.451-1.5,2.67,2.67,0,0,1,.911-2.168,3.911,3.911,0,0,1,2.58-.762,5.1,5.1,0,0,1,1.308.156Zm-7.371,10a1.145,1.145,0,0,0,.633,1.055,3.73,3.73,0,0,0,1.813.359,5.407,5.407,0,0,0,2.61-.488,1.48,1.48,0,0,0,.848-1.324,1.021,1.021,0,0,0-.464-.965,3.849,3.849,0,0,0-1.746-.269h-1.679a2.335,2.335,0,0,0-1.484.421A1.457,1.457,0,0,0,3949.851,7903.487Zm.759-7.257a1.672,1.672,0,0,0,.548,1.359,2.3,2.3,0,0,0,1.527.461q2.049,0,2.05-1.844,0-1.929-2.076-1.93a2.148,2.148,0,0,0-1.518.493A1.9,1.9,0,0,0,3950.61,7896.23Z" fill="#3f3f3f"/>
      <path id="Trazado_1167" data-name="Trazado 1167" d="M3963.337,7893.331a5.885,5.885,0,0,1,1.106.094l-.2,1.2a5.125,5.125,0,0,0-1.011-.117,2.543,2.543,0,0,0-1.919.844,2.937,2.937,0,0,0-.8,2.1v4.594h-1.4v-8.563h1.156l.16,1.586h.067a3.9,3.9,0,0,1,1.24-1.289A2.95,2.95,0,0,1,3963.337,7893.331Z" fill="#3f3f3f"/>
      <path id="Trazado_1168" data-name="Trazado 1168" d="M3974.151,7897.761a4.5,4.5,0,0,1-1.139,3.269,4.178,4.178,0,0,1-3.147,1.176,4.429,4.429,0,0,1-2.2-.539,3.67,3.67,0,0,1-1.484-1.547,5.05,5.05,0,0,1-.523-2.359,4.494,4.494,0,0,1,1.13-3.262,4.164,4.164,0,0,1,3.138-1.168,4.067,4.067,0,0,1,3.082,1.195A4.483,4.483,0,0,1,3974.151,7897.761Zm-7.043,0a3.845,3.845,0,0,0,.708,2.5,2.966,2.966,0,0,0,4.171,0,3.829,3.829,0,0,0,.712-2.5,3.772,3.772,0,0,0-.712-2.481,2.6,2.6,0,0,0-2.1-.847,2.552,2.552,0,0,0-2.074.836A3.8,3.8,0,0,0,3967.108,7897.761Z" fill="#3f3f3f"/>
      <path id="Trazado_1169" data-name="Trazado 1169" d="M3982.568,7899.714a2.094,2.094,0,0,1-.962,1.844,4.793,4.793,0,0,1-2.7.648,6.274,6.274,0,0,1-2.868-.539v-1.2a7.22,7.22,0,0,0,1.43.492,6.407,6.407,0,0,0,1.472.18,3.566,3.566,0,0,0,1.687-.324,1.072,1.072,0,0,0,.122-1.844,7.622,7.622,0,0,0-1.826-.84,10.36,10.36,0,0,1-1.835-.777,2.424,2.424,0,0,1-.809-.754,1.856,1.856,0,0,1-.266-1.008,1.884,1.884,0,0,1,.92-1.652,4.538,4.538,0,0,1,2.521-.606,7.885,7.885,0,0,1,2.918.563l-.5,1.054a7.171,7.171,0,0,0-2.522-.531,3.1,3.1,0,0,0-1.5.289.887.887,0,0,0-.506.8.922.922,0,0,0,.189.586,1.844,1.844,0,0,0,.612.461,14.147,14.147,0,0,0,1.62.633,6.2,6.2,0,0,1,2.222,1.117A1.893,1.893,0,0,1,3982.568,7899.714Z" fill="#3f3f3f"/>
      <path id="Trazado_1170" data-name="Trazado 1170" d="M3990.53,7902.05l-.279-1.219h-.067a3.827,3.827,0,0,1-1.379,1.09,4.5,4.5,0,0,1-1.717.285,3.25,3.25,0,0,1-2.155-.656,2.3,2.3,0,0,1-.779-1.867q0-2.594,4.478-2.719l1.568-.047v-.531a2.066,2.066,0,0,0-.467-1.488,2.017,2.017,0,0,0-1.5-.481,6.5,6.5,0,0,0-2.616.656l-.429-.992a7.146,7.146,0,0,1,3.129-.734,3.715,3.715,0,0,1,2.45.679,2.719,2.719,0,0,1,.8,2.18v5.844Zm-3.164-.914a2.976,2.976,0,0,0,2.054-.664,2.361,2.361,0,0,0,.747-1.86v-.773l-1.4.055a5.451,5.451,0,0,0-2.408.48,1.423,1.423,0,0,0-.739,1.324,1.291,1.291,0,0,0,.46,1.071A2.011,2.011,0,0,0,3987.366,7901.136Z" fill="#3f3f3f"/>
      <path id="Trazado_1171" data-name="Trazado 1171" d="M4000.414,7899.714a2.092,2.092,0,0,1-.962,1.844,4.789,4.789,0,0,1-2.7.648,6.275,6.275,0,0,1-2.868-.539v-1.2a7.2,7.2,0,0,0,1.43.492,6.4,6.4,0,0,0,1.471.18,3.571,3.571,0,0,0,1.688-.324,1.073,1.073,0,0,0,.122-1.844,7.642,7.642,0,0,0-1.826-.84,10.336,10.336,0,0,1-1.835-.777,2.437,2.437,0,0,1-.81-.754,1.856,1.856,0,0,1-.265-1.008,1.882,1.882,0,0,1,.92-1.652,4.539,4.539,0,0,1,2.521-.606,7.884,7.884,0,0,1,2.918.563l-.5,1.054a7.179,7.179,0,0,0-2.523-.531,3.106,3.106,0,0,0-1.5.289.887.887,0,0,0-.5.8.922.922,0,0,0,.189.586,1.845,1.845,0,0,0,.611.461,14.262,14.262,0,0,0,1.621.633,6.205,6.205,0,0,1,2.221,1.117A1.89,1.89,0,0,1,4000.414,7899.714Z" fill="#3f3f3f"/>
      <path id="Trazado_1172" data-name="Trazado 1172" d="M4011.48,7902.206a4.265,4.265,0,0,1-1.649-.308,3.061,3.061,0,0,1-1.253-.95h-.1a10.753,10.753,0,0,1,.1,1.422v3.524h-1.4v-12.407h1.139l.194,1.172h.067a3.2,3.2,0,0,1,1.257-1.015,4.091,4.091,0,0,1,1.645-.313,3.541,3.541,0,0,1,2.838,1.164,5.81,5.81,0,0,1-.017,6.543A3.542,3.542,0,0,1,4011.48,7902.206Zm-.2-7.773a2.585,2.585,0,0,0-2.05.726,3.537,3.537,0,0,0-.65,2.313v.289a4.038,4.038,0,0,0,.65,2.582,2.565,2.565,0,0,0,2.083.777,2.222,2.222,0,0,0,1.877-.9,4.029,4.029,0,0,0,.678-2.477,3.88,3.88,0,0,0-.678-2.457A2.3,2.3,0,0,0,4011.278,7894.433Z" fill="#3f3f3f"/>
      <path id="Trazado_1173" data-name="Trazado 1173" d="M4023.448,7902.05l-.279-1.219h-.067a3.825,3.825,0,0,1-1.379,1.09,4.5,4.5,0,0,1-1.716.285,3.249,3.249,0,0,1-2.155-.656,2.3,2.3,0,0,1-.78-1.867q0-2.594,4.478-2.719l1.569-.047v-.531a2.062,2.062,0,0,0-.468-1.488,2.013,2.013,0,0,0-1.5-.481,6.492,6.492,0,0,0-2.615.656l-.43-.992a7.146,7.146,0,0,1,3.13-.734,3.718,3.718,0,0,1,2.45.679,2.719,2.719,0,0,1,.8,2.18v5.844Zm-3.163-.914a2.981,2.981,0,0,0,2.054-.664,2.364,2.364,0,0,0,.746-1.86v-.773l-1.4.055a5.441,5.441,0,0,0-2.407.48,1.423,1.423,0,0,0-.739,1.324,1.292,1.292,0,0,0,.46,1.071A2.008,2.008,0,0,0,4020.285,7901.136Z" fill="#3f3f3f"/>
      <path id="Trazado_1174" data-name="Trazado 1174" d="M4031.587,7893.331a5.87,5.87,0,0,1,1.1.094l-.195,1.2a5.117,5.117,0,0,0-1.011-.117,2.544,2.544,0,0,0-1.919.844,2.938,2.938,0,0,0-.8,2.1v4.594h-1.4v-8.563h1.157l.16,1.586h.067a3.9,3.9,0,0,1,1.239-1.289A2.954,2.954,0,0,1,4031.587,7893.331Z" fill="#3f3f3f"/>
      <path id="Trazado_1175" data-name="Trazado 1175" d="M4040.106,7902.05l-.279-1.219h-.067a3.825,3.825,0,0,1-1.379,1.09,4.5,4.5,0,0,1-1.717.285,3.252,3.252,0,0,1-2.155-.656,2.307,2.307,0,0,1-.779-1.867q0-2.594,4.478-2.719l1.569-.047v-.531a2.066,2.066,0,0,0-.468-1.488,2.017,2.017,0,0,0-1.5-.481,6.488,6.488,0,0,0-2.615.656l-.43-.992a7.144,7.144,0,0,1,3.129-.734,3.715,3.715,0,0,1,2.45.679,2.719,2.719,0,0,1,.8,2.18v5.844Zm-3.163-.914a2.976,2.976,0,0,0,2.053-.664,2.361,2.361,0,0,0,.747-1.86v-.773l-1.4.055a5.449,5.449,0,0,0-2.408.48,1.424,1.424,0,0,0-.738,1.324,1.289,1.289,0,0,0,.46,1.071A2.008,2.008,0,0,0,4036.943,7901.136Z" fill="#3f3f3f"/>
      <path id="Trazado_1176" data-name="Trazado 1176" d="M4052.419,7902.206a4.432,4.432,0,0,1-3.234-1.156,4.28,4.28,0,0,1-1.186-3.211,4.717,4.717,0,0,1,1.1-3.289,3.783,3.783,0,0,1,2.956-1.219,3.626,3.626,0,0,1,2.749,1.059,3.871,3.871,0,0,1,1.013,2.793v.82h-6.369a3.238,3.238,0,0,0,.823,2.289,2.964,2.964,0,0,0,2.2.781,7.951,7.951,0,0,0,2.952-.578v1.156a7.749,7.749,0,0,1-1.4.426A8.518,8.518,0,0,1,4052.419,7902.206Zm-.38-7.789a2.384,2.384,0,0,0-1.775.672,2.975,2.975,0,0,0-.779,1.859h4.832a2.714,2.714,0,0,0-.59-1.879A2.163,2.163,0,0,0,4052.039,7894.417Z" fill="#3f3f3f"/>
      <path id="Trazado_1177" data-name="Trazado 1177" d="M4059.606,7902.05h-1.4v-12.156h1.4Z" fill="#3f3f3f"/>
      <path id="Trazado_1178" data-name="Trazado 1178" d="M4078.844,7902.05v-5.57a2.194,2.194,0,0,0-.473-1.536,1.908,1.908,0,0,0-1.467-.511,2.469,2.469,0,0,0-1.931.695,3.129,3.129,0,0,0-.625,2.141v4.781h-1.4v-5.57a2.2,2.2,0,0,0-.473-1.536,1.924,1.924,0,0,0-1.476-.511,2.375,2.375,0,0,0-1.927.73,3.728,3.728,0,0,0-.612,2.4v4.492h-1.4v-8.563h1.138l.228,1.172h.068a2.674,2.674,0,0,1,1.118-.976,3.625,3.625,0,0,1,1.615-.352,2.788,2.788,0,0,1,2.834,1.453h.067a2.868,2.868,0,0,1,1.2-1.062,3.969,3.969,0,0,1,1.789-.391,3.286,3.286,0,0,1,2.349.746,3.18,3.18,0,0,1,.78,2.387v5.586Z" fill="#3f3f3f"/>
      <path id="Trazado_1179" data-name="Trazado 1179" d="M4087.033,7902.206a4.432,4.432,0,0,1-3.234-1.156,4.279,4.279,0,0,1-1.185-3.211,4.721,4.721,0,0,1,1.1-3.289,3.785,3.785,0,0,1,2.956-1.219,3.626,3.626,0,0,1,2.749,1.059,3.871,3.871,0,0,1,1.013,2.793v.82h-6.368a3.234,3.234,0,0,0,.822,2.289,2.964,2.964,0,0,0,2.2.781,7.945,7.945,0,0,0,2.952-.578v1.156a7.718,7.718,0,0,1-1.4.426A8.511,8.511,0,0,1,4087.033,7902.206Zm-.379-7.789a2.386,2.386,0,0,0-1.776.672,2.975,2.975,0,0,0-.779,1.859h4.832a2.709,2.709,0,0,0-.59-1.879A2.161,2.161,0,0,0,4086.654,7894.417Z" fill="#3f3f3f"/>
      <path id="Trazado_1180" data-name="Trazado 1180" d="M4099.112,7900.9h-.077a3.381,3.381,0,0,1-2.9,1.305,3.556,3.556,0,0,1-2.821-1.148,4.8,4.8,0,0,1-1.008-3.266,4.876,4.876,0,0,1,1.012-3.289,3.525,3.525,0,0,1,2.817-1.172,3.465,3.465,0,0,1,2.885,1.266h.109l-.058-.617-.035-.6v-3.484h1.4v12.156H4099.3Zm-2.8.219a2.659,2.659,0,0,0,2.079-.722,3.452,3.452,0,0,0,.645-2.333v-.273a4.056,4.056,0,0,0-.653-2.6,2.585,2.585,0,0,0-2.088-.777,2.2,2.2,0,0,0-1.885.887,4.166,4.166,0,0,0-.654,2.5,3.979,3.979,0,0,0,.651,2.476A2.262,2.262,0,0,0,4096.311,7901.12Z" fill="#3f3f3f"/>
      <path id="Trazado_1181" data-name="Trazado 1181" d="M4103.286,7891.167a.822.822,0,0,1,.237-.652.926.926,0,0,1,1.172,0,.81.81,0,0,1,.245.648.82.82,0,0,1-.245.652.848.848,0,0,1-.582.215.782.782,0,0,1-.827-.867Zm1.519,10.883h-1.4v-8.563h1.4Z" fill="#3f3f3f"/>
      <path id="Trazado_1182" data-name="Trazado 1182" d="M4115.752,7897.761a4.5,4.5,0,0,1-1.138,3.269,4.174,4.174,0,0,1-3.146,1.176,4.424,4.424,0,0,1-2.2-.539,3.651,3.651,0,0,1-1.485-1.547,5.047,5.047,0,0,1-.523-2.359,4.5,4.5,0,0,1,1.13-3.262,4.167,4.167,0,0,1,3.138-1.168,4.069,4.069,0,0,1,3.083,1.195A4.49,4.49,0,0,1,4115.752,7897.761Zm-7.043,0a3.844,3.844,0,0,0,.709,2.5,2.966,2.966,0,0,0,4.171,0,3.828,3.828,0,0,0,.713-2.5,3.771,3.771,0,0,0-.713-2.481,2.6,2.6,0,0,0-2.1-.847,2.554,2.554,0,0,0-2.076.836A3.807,3.807,0,0,0,4108.709,7897.761Z" fill="#3f3f3f"/>
      <path id="Trazado_1183" data-name="Trazado 1183" d="M4128.378,7902.05l-.278-1.219h-.068a3.82,3.82,0,0,1-1.378,1.09,4.507,4.507,0,0,1-1.717.285,3.249,3.249,0,0,1-2.155-.656,2.3,2.3,0,0,1-.78-1.867q0-2.594,4.479-2.719l1.568-.047v-.531a2.062,2.062,0,0,0-.468-1.488,2.014,2.014,0,0,0-1.5-.481,6.493,6.493,0,0,0-2.615.656l-.43-.992a7.146,7.146,0,0,1,3.129-.734,3.714,3.714,0,0,1,2.45.679,2.717,2.717,0,0,1,.8,2.18v5.844Zm-3.163-.914a2.979,2.979,0,0,0,2.054-.664,2.361,2.361,0,0,0,.747-1.86v-.773l-1.4.055a5.45,5.45,0,0,0-2.408.48,1.423,1.423,0,0,0-.738,1.324,1.288,1.288,0,0,0,.46,1.071A2.009,2.009,0,0,0,4125.215,7901.136Z" fill="#3f3f3f"/>
      <path id="Trazado_1184" data-name="Trazado 1184" d="M4144.082,7902.05v-5.57a2.2,2.2,0,0,0-.471-1.536,1.914,1.914,0,0,0-1.468-.511,2.471,2.471,0,0,0-1.932.695,3.134,3.134,0,0,0-.624,2.141v4.781h-1.4v-5.57a2.2,2.2,0,0,0-.472-1.536,1.924,1.924,0,0,0-1.476-.511,2.375,2.375,0,0,0-1.927.73,3.727,3.727,0,0,0-.612,2.4v4.492h-1.4v-8.563h1.139l.227,1.172h.068a2.673,2.673,0,0,1,1.117-.976,3.63,3.63,0,0,1,1.615-.352,2.786,2.786,0,0,1,2.834,1.453h.067a2.86,2.86,0,0,1,1.2-1.062,3.958,3.958,0,0,1,1.788-.391,3.282,3.282,0,0,1,2.348.746,3.176,3.176,0,0,1,.781,2.387v5.586Z" fill="#3f3f3f"/>
      <path id="Trazado_1185" data-name="Trazado 1185" d="M4152.669,7893.347a3.56,3.56,0,0,1,2.829,1.152,5.789,5.789,0,0,1-.008,6.539,3.542,3.542,0,0,1-2.821,1.168,4.27,4.27,0,0,1-1.649-.308,3.055,3.055,0,0,1-1.252-.95h-.1l-.295,1.1h-1v-12.156h1.4v2.953q0,.992-.069,1.781h.069A3.421,3.421,0,0,1,4152.669,7893.347Zm-.2,1.086a2.544,2.544,0,0,0-2.066.761,5.5,5.5,0,0,0,.017,5.149,2.567,2.567,0,0,0,2.083.777,2.218,2.218,0,0,0,1.923-.871,4.212,4.212,0,0,0,.633-2.5,4.052,4.052,0,0,0-.633-2.492A2.315,2.315,0,0,0,4152.466,7894.433Z" fill="#3f3f3f"/>
      <path id="Trazado_1186" data-name="Trazado 1186" d="M4158.834,7891.167a.818.818,0,0,1,.237-.652.925.925,0,0,1,1.171,0,.808.808,0,0,1,.246.648.818.818,0,0,1-.246.652.847.847,0,0,1-.582.215.782.782,0,0,1-.826-.867Zm1.519,10.883h-1.4v-8.563h1.4Z" fill="#3f3f3f"/>
      <path id="Trazado_1187" data-name="Trazado 1187" d="M4167.227,7902.206a4.436,4.436,0,0,1-3.236-1.156,4.279,4.279,0,0,1-1.184-3.211,4.724,4.724,0,0,1,1.1-3.289,3.785,3.785,0,0,1,2.957-1.219,3.628,3.628,0,0,1,2.75,1.059,3.873,3.873,0,0,1,1.011,2.793v.82h-6.368a3.24,3.24,0,0,0,.823,2.289,2.963,2.963,0,0,0,2.2.781,7.947,7.947,0,0,0,2.952-.578v1.156a7.709,7.709,0,0,1-1.4.426A8.49,8.49,0,0,1,4167.227,7902.206Zm-.38-7.789a2.384,2.384,0,0,0-1.775.672,2.977,2.977,0,0,0-.781,1.859h4.833a2.712,2.712,0,0,0-.591-1.879A2.16,2.16,0,0,0,4166.847,7894.417Z" fill="#3f3f3f"/>
      <path id="Trazado_1188" data-name="Trazado 1188" d="M4179.338,7902.05v-5.539a2.134,2.134,0,0,0-.514-1.563,2.2,2.2,0,0,0-1.612-.515,2.775,2.775,0,0,0-2.125.726,3.474,3.474,0,0,0-.675,2.4v4.492h-1.4v-8.563h1.139l.227,1.172h.069a2.79,2.79,0,0,1,1.206-.98,4.162,4.162,0,0,1,1.728-.348,3.7,3.7,0,0,1,2.514.746,3.036,3.036,0,0,1,.844,2.387v5.586Z" fill="#3f3f3f"/>
      <path id="Trazado_1189" data-name="Trazado 1189" d="M4186.6,7901.136a4.88,4.88,0,0,0,.717-.051,4.689,4.689,0,0,0,.548-.1v.992a2.7,2.7,0,0,1-.67.168,5.464,5.464,0,0,1-.8.066q-2.682,0-2.683-2.617V7894.5h-1.324v-.625l1.324-.539.591-1.828h.809v1.984h2.683v1.008h-2.683v5.039a1.648,1.648,0,0,0,.4,1.188A1.436,1.436,0,0,0,4186.6,7901.136Z" fill="#3f3f3f"/>
      <path id="Trazado_1190" data-name="Trazado 1190" d="M4193.617,7902.206a4.432,4.432,0,0,1-3.234-1.156,4.279,4.279,0,0,1-1.185-3.211,4.722,4.722,0,0,1,1.1-3.289,3.784,3.784,0,0,1,2.956-1.219,3.626,3.626,0,0,1,2.749,1.059,3.87,3.87,0,0,1,1.013,2.793v.82h-6.368a3.233,3.233,0,0,0,.822,2.289,2.964,2.964,0,0,0,2.2.781,7.947,7.947,0,0,0,2.952-.578v1.156a7.74,7.74,0,0,1-1.4.426A8.5,8.5,0,0,1,4193.617,7902.206Zm-.379-7.789a2.385,2.385,0,0,0-1.776.672,2.976,2.976,0,0,0-.779,1.859h4.832a2.709,2.709,0,0,0-.59-1.879A2.159,2.159,0,0,0,4193.238,7894.417Z" fill="#3f3f3f"/>
      <path id="Trazado_1191" data-name="Trazado 1191" d="M4199.2,7901.222a1.1,1.1,0,0,1,.257-.793.971.971,0,0,1,.739-.27,1.036,1.036,0,0,1,.762.27,1.061,1.061,0,0,1,.275.793,1.043,1.043,0,0,1-.279.781,1.03,1.03,0,0,1-.758.273,1.044,1.044,0,0,1-.713-.246A1.017,1.017,0,0,1,4199.2,7901.222Z" fill="#3f3f3f"/>
    </g>
    <g id="Grupo_985" data-name="Grupo 985">
      <path id="Trazado_1192" data-name="Trazado 1192" d="M4348.921,7778.053a4.165,4.165,0,0,1,.93-2.847,3.217,3.217,0,0,1,2.547-1.058,3.57,3.57,0,0,1,2.945,1.273,5.661,5.661,0,0,1,1.031,3.644,7.615,7.615,0,0,1-.617,3.323h-2.086a7.2,7.2,0,0,0,.535-1.552,7.314,7.314,0,0,0,.207-1.678q0-2.388-1.812-2.387-1.725,0-1.727,2.471a6.68,6.68,0,0,0,.082.987,7.944,7.944,0,0,0,.176.877l-.515,1.038-5.821-.464v-6.689h2.047v4.4l2.242.228-.054-.3A6.257,6.257,0,0,1,4348.921,7778.053Z" fill="#3f3f3f"/>
      <path id="Trazado_1193" data-name="Trazado 1193" d="M4355.1,7772.385a1.255,1.255,0,0,1-.992-.38,1.617,1.617,0,0,1-.336-1.1,1.572,1.572,0,0,1,.344-1.084,1.435,1.435,0,0,1,1.957,0,1.539,1.539,0,0,1,.355,1.079,1.588,1.588,0,0,1-.348,1.1A1.249,1.249,0,0,1,4355.1,7772.385Z" fill="#3f3f3f"/>
      <path id="Trazado_1194" data-name="Trazado 1194" d="M4356.218,7761.311v2.606h-6.609l-1.086-.026-1.188-.042q.6.65.789.9l1.055,1.417-1.453,1.257-2.93-3.972v-2.142Z" fill="#3f3f3f"/>
      <path id="Trazado_1195" data-name="Trazado 1195" d="M4345.82,7747.124a4.186,4.186,0,0,0,1.254,3.209,4.811,4.811,0,0,0,3.433,1.177,4.906,4.906,0,0,0,3.465-1.134,4.2,4.2,0,0,0,1.223-3.235,11.854,11.854,0,0,0-.43-2.944h1.164a9.729,9.729,0,0,1,.445,3.163,5.569,5.569,0,0,1-1.531,4.2,6,6,0,0,1-4.351,1.481,6.45,6.45,0,0,1-3.094-.713,4.909,4.909,0,0,1-2.047-2.058,6.628,6.628,0,0,1-.719-3.167,8.175,8.175,0,0,1,.656-3.391l1.141.608A6.96,6.96,0,0,0,4345.82,7747.124Z" fill="#3f3f3f"/>
      <path id="Trazado_1196" data-name="Trazado 1196" d="M4351.929,7733.739a4.509,4.509,0,0,1,3.27,1.138,4.179,4.179,0,0,1,1.175,3.146,4.421,4.421,0,0,1-.539,2.2,3.666,3.666,0,0,1-1.547,1.485,5.056,5.056,0,0,1-2.359.522,4.5,4.5,0,0,1-3.262-1.13,4.164,4.164,0,0,1-1.168-3.138,4.064,4.064,0,0,1,1.2-3.082A4.487,4.487,0,0,1,4351.929,7733.739Zm0,7.043a3.847,3.847,0,0,0,2.5-.709,2.967,2.967,0,0,0,0-4.171,3.824,3.824,0,0,0-2.5-.713,3.764,3.764,0,0,0-2.48.713,2.6,2.6,0,0,0-.848,2.1,2.555,2.555,0,0,0,.836,2.075A3.812,3.812,0,0,0,4351.929,7740.782Z" fill="#3f3f3f"/>
      <path id="Trazado_1197" data-name="Trazado 1197" d="M4356.218,7719.5h-5.57a2.195,2.195,0,0,0-1.535.472,1.907,1.907,0,0,0-.512,1.468,2.469,2.469,0,0,0,.695,1.931,3.129,3.129,0,0,0,2.141.625h4.781v1.4h-5.57a2.195,2.195,0,0,0-1.535.473,1.919,1.919,0,0,0-.512,1.476,2.377,2.377,0,0,0,.73,1.927,3.731,3.731,0,0,0,2.4.611h4.492v1.4h-8.562v-1.139l1.171-.228v-.067a2.682,2.682,0,0,1-.976-1.118,3.644,3.644,0,0,1-.352-1.615,2.789,2.789,0,0,1,1.453-2.834v-.067a2.869,2.869,0,0,1-1.062-1.2,3.961,3.961,0,0,1-.391-1.788,3.284,3.284,0,0,1,.746-2.349,3.179,3.179,0,0,1,2.387-.78h5.586Z" fill="#3f3f3f"/>
      <path id="Trazado_1198" data-name="Trazado 1198" d="M4347.515,7710.916a3.564,3.564,0,0,1,1.152-2.83,5.788,5.788,0,0,1,6.539.008,3.539,3.539,0,0,1,1.168,2.822,4.261,4.261,0,0,1-.308,1.648,3.05,3.05,0,0,1-.949,1.253v.1l1.1.295v1h-12.156v-1.4h2.953q.992,0,1.781.068v-.068A3.424,3.424,0,0,1,4347.515,7710.916Zm1.086.2a2.543,2.543,0,0,0,.762,2.067,5.494,5.494,0,0,0,5.148-.017,2.565,2.565,0,0,0,.777-2.083,2.217,2.217,0,0,0-.871-1.923,4.215,4.215,0,0,0-2.5-.633,4.056,4.056,0,0,0-2.492.633A2.312,2.312,0,0,0,4348.6,7711.118Z" fill="#3f3f3f"/>
      <path id="Trazado_1199" data-name="Trazado 1199" d="M4347.656,7703.316h5.554a2.125,2.125,0,0,0,1.563-.514,2.193,2.193,0,0,0,.515-1.611,2.743,2.743,0,0,0-.734-2.121,3.507,3.507,0,0,0-2.4-.671h-4.5V7697h8.562v1.156l-1.148.2v.076a2.732,2.732,0,0,1,.968,1.193,4.283,4.283,0,0,1,.336,1.742,3.715,3.715,0,0,1-.742,2.526,3.014,3.014,0,0,1-2.375.839h-5.6Z" fill="#3f3f3f"/>
      <path id="Trazado_1200" data-name="Trazado 1200" d="M4347.5,7689.813a5.947,5.947,0,0,1,.094-1.1l1.2.194a5.138,5.138,0,0,0-.117,1.012,2.543,2.543,0,0,0,.844,1.919,2.943,2.943,0,0,0,2.1.8h4.594v1.4h-8.562v-1.155l1.586-.161v-.067a3.885,3.885,0,0,1-1.29-1.24A2.957,2.957,0,0,1,4347.5,7689.813Z" fill="#3f3f3f"/>
      <path id="Trazado_1201" data-name="Trazado 1201" d="M4356.374,7683.074a4.428,4.428,0,0,1-1.156,3.235,4.277,4.277,0,0,1-3.211,1.185,4.729,4.729,0,0,1-3.289-1.1,3.788,3.788,0,0,1-1.219-2.956,3.627,3.627,0,0,1,1.059-2.75,3.874,3.874,0,0,1,2.793-1.012h.82v6.368a3.233,3.233,0,0,0,2.289-.823,2.964,2.964,0,0,0,.782-2.2,7.952,7.952,0,0,0-.579-2.952h1.157a7.807,7.807,0,0,1,.425,1.405A8.5,8.5,0,0,1,4356.374,7683.074Zm-7.789.38a2.383,2.383,0,0,0,.672,1.775,2.982,2.982,0,0,0,1.86.78v-4.833a2.706,2.706,0,0,0-1.879.591A2.16,2.16,0,0,0,4348.585,7683.454Z" fill="#3f3f3f"/>
      <path id="Trazado_1202" data-name="Trazado 1202" d="M4356.218,7670.962h-5.539a2.125,2.125,0,0,0-1.562.515,2.194,2.194,0,0,0-.516,1.611,2.773,2.773,0,0,0,.726,2.125,3.473,3.473,0,0,0,2.4.675h4.492v1.4h-8.562v-1.139l1.171-.227v-.068a2.8,2.8,0,0,1-.98-1.206,4.192,4.192,0,0,1-.348-1.729,3.7,3.7,0,0,1,.746-2.513,3.033,3.033,0,0,1,2.387-.844h5.586Z" fill="#3f3f3f"/>
      <path id="Trazado_1203" data-name="Trazado 1203" d="M4355.3,7663.7a4.9,4.9,0,0,0-.051-.717,4.6,4.6,0,0,0-.1-.548h.992a2.707,2.707,0,0,1,.168.67,5.487,5.487,0,0,1,.066.8q0,2.682-2.617,2.682h-5.094v1.324h-.625l-.539-1.324-1.828-.591v-.809h1.985V7662.5h1.007v2.683h5.039a1.646,1.646,0,0,0,1.188-.4A1.435,1.435,0,0,0,4355.3,7663.7Z" fill="#3f3f3f"/>
      <path id="Trazado_1204" data-name="Trazado 1204" d="M4356.374,7656.683a4.43,4.43,0,0,1-1.156,3.235,4.277,4.277,0,0,1-3.211,1.185,4.725,4.725,0,0,1-3.289-1.1,3.785,3.785,0,0,1-1.219-2.956,3.628,3.628,0,0,1,1.059-2.749,3.873,3.873,0,0,1,2.793-1.012h.82v6.368a3.233,3.233,0,0,0,2.289-.823,2.963,2.963,0,0,0,.782-2.2,7.95,7.95,0,0,0-.579-2.952h1.157a7.791,7.791,0,0,1,.425,1.4A8.5,8.5,0,0,1,4356.374,7656.683Zm-7.789.38a2.382,2.382,0,0,0,.672,1.775,2.985,2.985,0,0,0,1.86.78v-4.833a2.706,2.706,0,0,0-1.879.591A2.16,2.16,0,0,0,4348.585,7657.063Z" fill="#3f3f3f"/>
    </g>
    <g id="Grupo_986" data-name="Grupo 986">
      <path id="Trazado_1205" data-name="Trazado 1205" d="M3924.051,7806.4a4.164,4.164,0,0,1,2.846.93,3.214,3.214,0,0,1,1.058,2.547,3.57,3.57,0,0,1-1.273,2.945,5.658,5.658,0,0,1-3.644,1.031,7.621,7.621,0,0,1-3.323-.617v-2.086a7.2,7.2,0,0,0,1.552.536,7.377,7.377,0,0,0,1.679.207q2.387,0,2.386-1.813,0-1.725-2.471-1.727a6.624,6.624,0,0,0-.987.083,7.714,7.714,0,0,0-.877.175l-1.037-.515.464-5.821h6.688v2.047h-4.4l-.227,2.242.3-.054A6.219,6.219,0,0,1,3924.051,7806.4Z" fill="#3f3f3f"/>
      <path id="Trazado_1206" data-name="Trazado 1206" d="M3929.719,7812.585a1.256,1.256,0,0,1,.379-.992,1.621,1.621,0,0,1,1.1-.336,1.571,1.571,0,0,1,1.084.344,1.432,1.432,0,0,1-.005,1.957,1.537,1.537,0,0,1-1.079.355,1.589,1.589,0,0,1-1.1-.347A1.248,1.248,0,0,1,3929.719,7812.585Z" fill="#3f3f3f"/>
      <path id="Trazado_1207" data-name="Trazado 1207" d="M3940.793,7813.7h-2.606v-6.609l.025-1.086.042-1.188c-.433.4-.734.664-.9.789l-1.417,1.055-1.257-1.453,3.973-2.93h2.142Z" fill="#3f3f3f"/>
      <path id="Trazado_1208" data-name="Trazado 1208" d="M3954.979,7803.3a4.187,4.187,0,0,0-3.209,1.254,4.818,4.818,0,0,0-1.176,3.433,4.9,4.9,0,0,0,1.134,3.465,4.191,4.191,0,0,0,3.235,1.223,11.826,11.826,0,0,0,2.943-.43v1.164a9.728,9.728,0,0,1-3.163.445,5.571,5.571,0,0,1-4.2-1.531,6,6,0,0,1-1.481-4.351,6.45,6.45,0,0,1,.713-3.094,4.913,4.913,0,0,1,2.058-2.047,6.641,6.641,0,0,1,3.167-.719,8.154,8.154,0,0,1,3.391.657l-.607,1.14A6.97,6.97,0,0,0,3954.979,7803.3Z" fill="#3f3f3f"/>
      <path id="Trazado_1209" data-name="Trazado 1209" d="M3968.365,7809.413a4.5,4.5,0,0,1-1.139,3.27,4.176,4.176,0,0,1-3.146,1.175,4.409,4.409,0,0,1-2.2-.539,3.663,3.663,0,0,1-1.485-1.546,5.049,5.049,0,0,1-.523-2.36,4.5,4.5,0,0,1,1.13-3.262,4.168,4.168,0,0,1,3.138-1.168,4.061,4.061,0,0,1,3.082,1.2A4.481,4.481,0,0,1,3968.365,7809.413Zm-7.043,0a3.845,3.845,0,0,0,.708,2.5,2.964,2.964,0,0,0,4.171,0,3.823,3.823,0,0,0,.713-2.5,3.765,3.765,0,0,0-.713-2.48,2.594,2.594,0,0,0-2.1-.848,2.552,2.552,0,0,0-2.074.836A3.807,3.807,0,0,0,3961.322,7809.413Z" fill="#3f3f3f"/>
      <path id="Trazado_1210" data-name="Trazado 1210" d="M3982.6,7813.7v-5.57a2.194,2.194,0,0,0-.472-1.535,1.906,1.906,0,0,0-1.468-.512,2.47,2.47,0,0,0-1.931.695,3.135,3.135,0,0,0-.624,2.141v4.781h-1.4v-5.57a2.2,2.2,0,0,0-.472-1.535,1.918,1.918,0,0,0-1.476-.512,2.376,2.376,0,0,0-1.928.731,3.734,3.734,0,0,0-.611,2.394v4.492h-1.4v-8.562h1.138l.228,1.172h.068a2.674,2.674,0,0,1,1.117-.977,3.643,3.643,0,0,1,1.615-.352,2.788,2.788,0,0,1,2.834,1.454h.067a2.867,2.867,0,0,1,1.2-1.063,3.96,3.96,0,0,1,1.788-.391,3.284,3.284,0,0,1,2.349.747,3.179,3.179,0,0,1,.781,2.386v5.586Z" fill="#3f3f3f"/>
      <path id="Trazado_1211" data-name="Trazado 1211" d="M3991.188,7805a3.563,3.563,0,0,1,2.829,1.152,5.79,5.79,0,0,1-.008,6.54,3.54,3.54,0,0,1-2.821,1.167,4.265,4.265,0,0,1-1.649-.308,3.054,3.054,0,0,1-1.253-.949h-.1l-.3,1.1h-1v-12.156h1.4v2.953q0,.993-.067,1.781h.067A3.427,3.427,0,0,1,3991.188,7805Zm-.2,1.086a2.54,2.54,0,0,0-2.066.762,5.484,5.484,0,0,0,.017,5.148,2.562,2.562,0,0,0,2.083.778,2.218,2.218,0,0,0,1.923-.872,4.212,4.212,0,0,0,.632-2.5,4.058,4.058,0,0,0-.632-2.493A2.315,2.315,0,0,0,3990.985,7806.085Z" fill="#3f3f3f"/>
      <path id="Trazado_1212" data-name="Trazado 1212" d="M3998.787,7805.14v5.554a2.126,2.126,0,0,0,.514,1.563,2.194,2.194,0,0,0,1.611.516,2.742,2.742,0,0,0,2.121-.735,3.5,3.5,0,0,0,.671-2.4v-4.5h1.4v8.562h-1.155l-.2-1.148h-.076a2.729,2.729,0,0,1-1.193.969,4.3,4.3,0,0,1-1.742.335,3.72,3.72,0,0,1-2.526-.742,3.019,3.019,0,0,1-.839-2.375v-5.6Z" fill="#3f3f3f"/>
      <path id="Trazado_1213" data-name="Trazado 1213" d="M4012.29,7804.983a5.944,5.944,0,0,1,1.1.094l-.194,1.2a5.161,5.161,0,0,0-1.012-.117,2.544,2.544,0,0,0-1.919.844,2.944,2.944,0,0,0-.8,2.1v4.594h-1.4v-8.562h1.156l.16,1.586h.067a3.883,3.883,0,0,1,1.24-1.289A2.948,2.948,0,0,1,4012.29,7804.983Z" fill="#3f3f3f"/>
      <path id="Trazado_1214" data-name="Trazado 1214" d="M4019.03,7813.858a4.429,4.429,0,0,1-3.235-1.156,4.278,4.278,0,0,1-1.185-3.211,4.723,4.723,0,0,1,1.1-3.289,3.786,3.786,0,0,1,2.956-1.219,3.627,3.627,0,0,1,2.749,1.059,3.873,3.873,0,0,1,1.012,2.793v.82h-6.368a3.242,3.242,0,0,0,.823,2.289,2.965,2.965,0,0,0,2.2.782,7.96,7.96,0,0,0,2.952-.578v1.156a7.852,7.852,0,0,1-1.4.426A8.51,8.51,0,0,1,4019.03,7813.858Zm-.38-7.789a2.383,2.383,0,0,0-1.776.672,2.979,2.979,0,0,0-.779,1.86h4.832a2.71,2.71,0,0,0-.59-1.879A2.159,2.159,0,0,0,4018.65,7806.069Z" fill="#3f3f3f"/>
      <path id="Trazado_1215" data-name="Trazado 1215" d="M4031.141,7813.7v-5.539a2.125,2.125,0,0,0-.514-1.562,2.2,2.2,0,0,0-1.612-.516,2.775,2.775,0,0,0-2.125.727,3.471,3.471,0,0,0-.674,2.4v4.492h-1.4v-8.562h1.139l.227,1.172h.068a2.813,2.813,0,0,1,1.206-.981,4.2,4.2,0,0,1,1.729-.348,3.7,3.7,0,0,1,2.514.747,3.036,3.036,0,0,1,.843,2.386v5.586Z" fill="#3f3f3f"/>
      <path id="Trazado_1216" data-name="Trazado 1216" d="M4038.4,7812.788a4.758,4.758,0,0,0,.717-.051,4.606,4.606,0,0,0,.548-.1v.992a2.7,2.7,0,0,1-.67.168,5.479,5.479,0,0,1-.8.066q-2.682,0-2.682-2.617v-5.093h-1.324v-.625l1.324-.54.591-1.828h.81v1.985h2.682v1.008h-2.682v5.039a1.649,1.649,0,0,0,.4,1.187A1.436,1.436,0,0,0,4038.4,7812.788Z" fill="#3f3f3f"/>
      <path id="Trazado_1217" data-name="Trazado 1217" d="M4045.421,7813.858a4.428,4.428,0,0,1-3.235-1.156,4.278,4.278,0,0,1-1.185-3.211,4.722,4.722,0,0,1,1.1-3.289,3.787,3.787,0,0,1,2.956-1.219,3.624,3.624,0,0,1,2.749,1.059,3.874,3.874,0,0,1,1.013,2.793v.82h-6.369a3.242,3.242,0,0,0,.823,2.289,2.965,2.965,0,0,0,2.2.782,7.957,7.957,0,0,0,2.952-.578v1.156a7.864,7.864,0,0,1-1.4.426A8.515,8.515,0,0,1,4045.421,7813.858Zm-.38-7.789a2.386,2.386,0,0,0-1.776.672,2.977,2.977,0,0,0-.779,1.86h4.832a2.71,2.71,0,0,0-.59-1.879A2.16,2.16,0,0,0,4045.041,7806.069Z" fill="#3f3f3f"/>
    </g>
    <g id="Grupo_987" data-name="Grupo 987">
      <path id="Trazado_1218" data-name="Trazado 1218" d="M4264.742,7841.394a7.17,7.17,0,0,1,1.547-5.047,6.047,6.047,0,0,1,4.635-1.656,9.088,9.088,0,0,1,1.654.117v1.93a7.231,7.231,0,0,0-1.485-.156,5.456,5.456,0,0,0-2.189.375,2.653,2.653,0,0,0-1.27,1.109,4.808,4.808,0,0,0-.5,2.086h.109a2.923,2.923,0,0,1,2.674-1.328,3.449,3.449,0,0,1,2.59.961,3.643,3.643,0,0,1,.936,2.656,3.813,3.813,0,0,1-1.114,2.894,4.279,4.279,0,0,1-3.087,1.067,4.679,4.679,0,0,1-2.382-.586,3.9,3.9,0,0,1-1.569-1.711A6.1,6.1,0,0,1,4264.742,7841.394Zm4.453,3.078a1.6,1.6,0,0,0,1.282-.519,2.208,2.208,0,0,0,.447-1.481,1.935,1.935,0,0,0-.418-1.316,1.578,1.578,0,0,0-1.261-.481,2.024,2.024,0,0,0-1.353.477,1.421,1.421,0,0,0-.561,1.109,2.389,2.389,0,0,0,.527,1.571A1.661,1.661,0,0,0,4269.195,7844.472Z" fill="#3f3f3f"/>
    </g>
    <g id="Grupo_988" data-name="Grupo 988">
      <path id="Trazado_1219" data-name="Trazado 1219" d="M4271.076,7811.759h-2.606v-6.609l.025-1.086.042-1.188q-.65.6-.9.79l-1.417,1.054-1.257-1.453,3.972-2.93h2.143Z" fill="#3f3f3f"/>
    </g>
    <g id="Grupo_989" data-name="Grupo 989">
      <path id="Trazado_1220" data-name="Trazado 1220" d="M4316.251,7780.739a7.172,7.172,0,0,1-5.047-1.548,6.046,6.046,0,0,1-1.656-4.634,9.084,9.084,0,0,1,.117-1.654h1.93a7.293,7.293,0,0,0-.156,1.485,5.452,5.452,0,0,0,.375,2.189,2.65,2.65,0,0,0,1.109,1.269,4.807,4.807,0,0,0,2.086.5v-.11a2.924,2.924,0,0,1-1.328-2.674,3.446,3.446,0,0,1,.961-2.589,3.644,3.644,0,0,1,2.656-.936,3.82,3.82,0,0,1,2.9,1.113,4.279,4.279,0,0,1,1.066,3.087,4.686,4.686,0,0,1-.586,2.383,3.912,3.912,0,0,1-1.711,1.569A6.1,6.1,0,0,1,4316.251,7780.739Zm3.078-4.453a1.6,1.6,0,0,0-.519-1.283,2.21,2.21,0,0,0-1.481-.446,1.939,1.939,0,0,0-1.316.417,1.581,1.581,0,0,0-.481,1.261,2.025,2.025,0,0,0,.477,1.354,1.422,1.422,0,0,0,1.109.56,2.39,2.39,0,0,0,1.571-.526A1.659,1.659,0,0,0,4319.329,7776.286Z" fill="#3f3f3f"/>
      <path id="Trazado_1221" data-name="Trazado 1221" d="M4319.986,7770.5a1.257,1.257,0,0,1-.993-.38,1.621,1.621,0,0,1-.336-1.1,1.574,1.574,0,0,1,.344-1.084,1.431,1.431,0,0,1,1.957,0,1.533,1.533,0,0,1,.356,1.079,1.582,1.582,0,0,1-.348,1.1A1.245,1.245,0,0,1,4319.986,7770.5Z" fill="#3f3f3f"/>
      <path id="Trazado_1222" data-name="Trazado 1222" d="M4321.1,7759.425v2.606h-6.61l-1.086-.025-1.187-.042q.6.65.789.9l1.055,1.417-1.453,1.257-2.93-3.973v-2.142Z" fill="#3f3f3f"/>
      <path id="Trazado_1223" data-name="Trazado 1223" d="M4321.1,7746.723v1.434h-10.242v3.9h-1.18v-9.244h1.18v3.905Z" fill="#3f3f3f"/>
      <path id="Trazado_1224" data-name="Trazado 1224" d="M4316.814,7733.194a4.5,4.5,0,0,1,3.269,1.139,4.174,4.174,0,0,1,1.176,3.146,4.424,4.424,0,0,1-.539,2.2,3.67,3.67,0,0,1-1.547,1.485,5.047,5.047,0,0,1-2.359.523,4.5,4.5,0,0,1-3.262-1.13,4.168,4.168,0,0,1-1.168-3.138,4.066,4.066,0,0,1,1.2-3.083A4.487,4.487,0,0,1,4316.814,7733.194Zm0,7.043a3.846,3.846,0,0,0,2.5-.708,2.966,2.966,0,0,0,0-4.171,3.826,3.826,0,0,0-2.5-.713,3.769,3.769,0,0,0-2.481.713,2.6,2.6,0,0,0-.847,2.1,2.555,2.555,0,0,0,.836,2.075A3.8,3.8,0,0,0,4316.814,7740.237Zm-5.6-1.619q-.483-.405-1.172-.873a13.176,13.176,0,0,0-1.195-.738v-1.7h.164a11.488,11.488,0,0,1,1.25,1.1,11.952,11.952,0,0,1,1.148,1.274v.936Z" fill="#3f3f3f"/>
      <path id="Trazado_1225" data-name="Trazado 1225" d="M4316.72,7728.514l-4.18,3.213v-1.594l3.282-2.438-3.282-2.429v-1.577l4.18,3.213,4.383-3.381v1.585l-3.469,2.589,3.469,2.615v1.586Z" fill="#3f3f3f"/>
      <path id="Trazado_1226" data-name="Trazado 1226" d="M4310.22,7721.809a.821.821,0,0,1-.652-.237.926.926,0,0,1,0-1.172.811.811,0,0,1,.648-.245.82.82,0,0,1,.652.245.849.849,0,0,1,.215.582.782.782,0,0,1-.867.827Zm10.883-1.519v1.4h-8.563v-1.4Z" fill="#3f3f3f"/>
      <path id="Trazado_1227" data-name="Trazado 1227" d="M4321.259,7713.627a4.111,4.111,0,0,1-1.144,3.108,4.482,4.482,0,0,1-3.239,1.1,4.621,4.621,0,0,1-3.32-1.118,4.19,4.19,0,0,1-1.172-3.184,6.843,6.843,0,0,1,.133-1.332,4.688,4.688,0,0,1,.312-1.046l1.1.43a7.071,7.071,0,0,0-.285,1.012,4.884,4.884,0,0,0-.114.97q0,2.817,3.329,2.817a3.75,3.75,0,0,0,2.421-.687,2.473,2.473,0,0,0,.844-2.037,6.641,6.641,0,0,0-.461-2.37h1.149A5.391,5.391,0,0,1,4321.259,7713.627Z" fill="#3f3f3f"/>
      <path id="Trazado_1228" data-name="Trazado 1228" d="M4316.814,7701.119a4.506,4.506,0,0,1,3.269,1.138,4.176,4.176,0,0,1,1.176,3.146,4.431,4.431,0,0,1-.539,2.2,3.656,3.656,0,0,1-1.547,1.484,5.047,5.047,0,0,1-2.359.523,4.5,4.5,0,0,1-3.262-1.13,4.164,4.164,0,0,1-1.168-3.138,4.061,4.061,0,0,1,1.2-3.082A4.485,4.485,0,0,1,4316.814,7701.119Zm0,7.043a3.849,3.849,0,0,0,2.5-.709,2.966,2.966,0,0,0,0-4.171,3.826,3.826,0,0,0-2.5-.713,3.769,3.769,0,0,0-2.481.713,2.6,2.6,0,0,0-.847,2.1,2.552,2.552,0,0,0,.836,2.074A3.8,3.8,0,0,0,4316.814,7708.162Z" fill="#3f3f3f"/>
    </g>
    <g id="Grupo_990" data-name="Grupo 990">
      <path id="Trazado_1229" data-name="Trazado 1229" d="M3919.715,7839.743a7.178,7.178,0,0,1,1.547-5.047,6.051,6.051,0,0,1,4.635-1.656,9.079,9.079,0,0,1,1.654.117v1.93a7.292,7.292,0,0,0-1.485-.156,5.453,5.453,0,0,0-2.189.375,2.647,2.647,0,0,0-1.269,1.109,4.791,4.791,0,0,0-.5,2.086h.11a2.924,2.924,0,0,1,2.674-1.328,3.448,3.448,0,0,1,2.589.961,3.645,3.645,0,0,1,.936,2.656,3.817,3.817,0,0,1-1.113,2.894,4.281,4.281,0,0,1-3.087,1.067,4.685,4.685,0,0,1-2.383-.586,3.906,3.906,0,0,1-1.569-1.711A6.1,6.1,0,0,1,3919.715,7839.743Zm4.453,3.078a1.6,1.6,0,0,0,1.282-.519,2.2,2.2,0,0,0,.447-1.481,1.942,1.942,0,0,0-.417-1.316,1.581,1.581,0,0,0-1.261-.481,2.02,2.02,0,0,0-1.354.477,1.421,1.421,0,0,0-.561,1.109,2.394,2.394,0,0,0,.527,1.571A1.659,1.659,0,0,0,3924.168,7842.821Z" fill="#3f3f3f"/>
      <path id="Trazado_1230" data-name="Trazado 1230" d="M3929.954,7843.477a1.258,1.258,0,0,1,.38-.992,1.624,1.624,0,0,1,1.1-.336,1.575,1.575,0,0,1,1.084.344,1.432,1.432,0,0,1,0,1.957,1.538,1.538,0,0,1-1.079.356,1.59,1.59,0,0,1-1.1-.348A1.249,1.249,0,0,1,3929.954,7843.477Z" fill="#3f3f3f"/>
      <path id="Trazado_1231" data-name="Trazado 1231" d="M3941.029,7844.6h-2.606v-6.61l.025-1.086.042-1.187q-.65.6-.9.789l-1.417,1.055-1.257-1.454,3.972-2.929h2.143Z" fill="#3f3f3f"/>
      <path id="Trazado_1232" data-name="Trazado 1232" d="M3953.731,7844.6H3952.3v-10.243h-3.905v-1.179h9.244v1.179h-3.905Z" fill="#3f3f3f"/>
      <path id="Trazado_1233" data-name="Trazado 1233" d="M3967.26,7840.306a4.5,4.5,0,0,1-1.139,3.269,4.176,4.176,0,0,1-3.146,1.176,4.425,4.425,0,0,1-2.2-.539,3.666,3.666,0,0,1-1.485-1.547,5.047,5.047,0,0,1-.523-2.359,4.5,4.5,0,0,1,1.13-3.262,4.168,4.168,0,0,1,3.138-1.168,4.062,4.062,0,0,1,3.082,1.195A4.483,4.483,0,0,1,3967.26,7840.306Zm-7.043,0a3.848,3.848,0,0,0,.708,2.5,2.965,2.965,0,0,0,4.171,0,3.823,3.823,0,0,0,.713-2.5,3.769,3.769,0,0,0-.713-2.481,2.6,2.6,0,0,0-2.1-.848,2.555,2.555,0,0,0-2.074.836A3.808,3.808,0,0,0,3960.217,7840.306Zm1.619-5.6q.405-.483.873-1.172a13.111,13.111,0,0,0,.738-1.2h1.7v.164a11.635,11.635,0,0,1-1.1,1.25,11.987,11.987,0,0,1-1.274,1.148h-.936Z" fill="#3f3f3f"/>
      <path id="Trazado_1234" data-name="Trazado 1234" d="M3971.94,7840.212l-3.213-4.18h1.594l2.438,3.281,2.429-3.281h1.577l-3.213,4.18,3.381,4.383h-1.585l-2.589-3.469-2.615,3.469h-1.586Z" fill="#3f3f3f"/>
      <path id="Trazado_1235" data-name="Trazado 1235" d="M3978.645,7833.712a.825.825,0,0,1,.237-.653.926.926,0,0,1,1.172,0,.985.985,0,0,1,0,1.3.849.849,0,0,1-.582.215.783.783,0,0,1-.827-.867Zm1.519,10.883h-1.4v-8.563h1.4Z" fill="#3f3f3f"/>
      <path id="Trazado_1236" data-name="Trazado 1236" d="M3986.827,7844.751a4.1,4.1,0,0,1-3.108-1.145,4.478,4.478,0,0,1-1.1-3.238,4.617,4.617,0,0,1,1.118-3.32,4.189,4.189,0,0,1,3.184-1.172,6.844,6.844,0,0,1,1.332.133,4.737,4.737,0,0,1,1.046.312l-.43,1.1a6.979,6.979,0,0,0-1.012-.285,4.827,4.827,0,0,0-.97-.114q-2.817,0-2.817,3.328a3.747,3.747,0,0,0,.687,2.422,2.473,2.473,0,0,0,2.037.844,6.652,6.652,0,0,0,2.37-.461v1.149A5.406,5.406,0,0,1,3986.827,7844.751Z" fill="#3f3f3f"/>
      <path id="Trazado_1237" data-name="Trazado 1237" d="M3999.335,7840.306a4.505,4.505,0,0,1-1.138,3.269,4.179,4.179,0,0,1-3.146,1.176,4.43,4.43,0,0,1-2.2-.539,3.662,3.662,0,0,1-1.484-1.547,5.05,5.05,0,0,1-.523-2.359,4.5,4.5,0,0,1,1.13-3.262,4.165,4.165,0,0,1,3.138-1.168,4.063,4.063,0,0,1,3.082,1.195A4.486,4.486,0,0,1,3999.335,7840.306Zm-7.043,0a3.849,3.849,0,0,0,.709,2.5,2.965,2.965,0,0,0,4.171,0,3.825,3.825,0,0,0,.713-2.5,3.77,3.77,0,0,0-.713-2.481,2.6,2.6,0,0,0-2.105-.848,2.557,2.557,0,0,0-2.075.836A3.813,3.813,0,0,0,3992.292,7840.306Z" fill="#3f3f3f"/>
    </g>
    <g id="Grupo_991" data-name="Grupo 991">
      <path id="Trazado_1238" data-name="Trazado 1238" d="M4006.931,7599.2c.665.341,1.212.591,1.731.892q32.214,18.673,64.44,37.331a2.775,2.775,0,0,1,1.617,2.777q-.062,43.924-.031,87.848v1.98c-.8-.524-1.367-.856-1.892-1.238q-32.317-23.526-64.6-47.1a3.455,3.455,0,0,1-1.335-2.354q-.1-39.334-.052-78.67C4006.81,7600.249,4006.877,7599.827,4006.931,7599.2Z" fill="#7f7f7f"/>
      <path id="Trazado_1239" data-name="Trazado 1239" d="M4148.73,7599.125v2.224q0,38.681.029,77.359a3.5,3.5,0,0,1-1.616,3.235q-32.133,23.3-64.2,46.7c-.584.425-1.184.829-2.1,1.467v-2.356q0-43.737-.029-87.474a2.778,2.778,0,0,1,1.552-2.816q32.326-18.667,64.6-37.423C4147.442,7599.763,4147.937,7599.534,4148.73,7599.125Z" fill="#7f7f7f"/>
      <path id="Trazado_1240" data-name="Trazado 1240" d="M4010.013,7593.6c.778-.478,1.294-.812,1.825-1.12q32.118-18.634,64.221-37.3a2.988,2.988,0,0,1,3.5.061q32.088,18.688,64.23,37.285c.519.3,1.009.652,1.677,1.088-.675.438-1.166.787-1.684,1.088q-32.283,18.726-64.562,37.457a2.292,2.292,0,0,1-2.685.144q-32.656-19.014-65.363-37.94C4010.862,7594.185,4010.569,7593.969,4010.013,7593.6Z" fill="#7f7f7f"/>
    </g>
  </g>
</svg>
