<svg xmlns="http://www.w3.org/2000/svg" width="779.089" height="107.993" viewBox="0 0 779.089 107.993">
  <g id="Grupo_6757" data-name="Grupo 6757" transform="translate(-3456.202 -7139.599)">
    <g id="Grupo_6756" data-name="Grupo 6756">
      <rect id="Rectángulo_147" data-name="Rectángulo 147" width="127.11" height="107.859" rx="12" transform="translate(3456.202 7139.599)" fill="#bf0811"/>
      <path id="Trazado_1051" data-name="Trazado 1051" d="M3524.012,7163.136a16.385,16.385,0,0,0-.3-6.253,9.259,9.259,0,0,1,2.59,2.853,15.648,15.648,0,0,1,2.015,6.579c.211,1.85.481,3.692.728,5.538a2.744,2.744,0,0,0,.117.362,10.5,10.5,0,0,0,1.453-6.559,3.589,3.589,0,0,1,.359.278,10.324,10.324,0,0,1,2.778,6.336,20.743,20.743,0,0,1-.314,5.953c-.034.194-.042.393-.061.589l.155.107,1.668-1.588c.938,5.236-1.754,14.474-9.214,16.781h4.122v2.573h-20.561v-2.559h3.707l.085-.192a2.213,2.213,0,0,0-.612-.359,8.483,8.483,0,0,1-3.926-1.746,8.017,8.017,0,0,1-2.72-5.653c-.205-2.361-.271-4.736-.329-7.107a8.365,8.365,0,0,0-.628-2.9c-.316-.8-.62-1.613-.922-2.422a2.1,2.1,0,0,1-.069-.374l.13-.136c.574.421,1.156.833,1.72,1.268.581.449,1.146.921,1.639,1.32.949-3.674.372-7.569-.508-11.56,2.259.646,3.285,2.364,4.344,4.272.225-.891.439-1.65.6-2.42a20.026,20.026,0,0,0,.416-2.386,15.013,15.013,0,0,0,.009-2.426,21.659,21.659,0,0,0-.358-2.4c-.149-.785-.349-1.56-.547-2.429,2.093.321,3.1,1.882,4.191,3.327l.179-.012a23.11,23.11,0,0,0,.451-2.9c.058-1.691-.018-3.387-.05-5.081a7.333,7.333,0,0,1,.79-3.82c.1-.177.213-.345.388-.628a46.67,46.67,0,0,0,2.831,8.1c1.123,2.6,2.319,5.164,3.483,7.744Zm1.833,15.923a13.9,13.9,0,0,1-3.366,4.882c1.325-4.116,1-7.971-1.662-11.491a1.872,1.872,0,0,0-.054.539c-.007,1.338.066,2.681-.042,4.01-.133,1.643-.391,3.279-.654,4.908a2.937,2.937,0,0,1-.557,1.09c-.262.382-.638.445-.914.031a8.728,8.728,0,0,1-.992-1.751c-.327-.885-.516-1.822-.783-2.806a9.706,9.706,0,0,0,.752,9.3,3.638,3.638,0,0,1-2.551-1.737,19.271,19.271,0,0,1-1.033-2.308c-.375-.926-.714-1.866-1.068-2.8a2.638,2.638,0,0,0-.27.89,15.112,15.112,0,0,0-.337,4.375,9.824,9.824,0,0,0,4.2,6.754c.4.3.771.547.535,1.128h5.02l-1.625-.92c.237-.218.415-.41.619-.565,1.334-1.014,2.709-1.977,4-3.044a13.93,13.93,0,0,0,2.1-2.176,2.452,2.452,0,0,0,.169-2.623c-1.411,1.551-1.66,1.7-2.45,1.453A8,8,0,0,0,3525.845,7179.059Zm-6.852-12.2a7.148,7.148,0,0,0,.545-.81,5.921,5.921,0,0,0,.478-4.162c-.225-.872-.484-1.736-.751-2.6-.257-.831-.544-1.653-.825-2.5-.085.067-.132.084-.138.112a18.683,18.683,0,0,0-.57,7.089A4.832,4.832,0,0,0,3518.993,7166.857Z" fill="#fff"/>
      <text id="Liquidos_inflamables_" data-name="Liquidos 
inflamables





" transform="translate(3460.028 7196.592)" fill="#fff" font-size="16" font-family="OpenSans-Bold, Open Sans" font-weight="700"><tspan x="26.014" y="17">Liquidos </tspan><tspan x="12.768" y="39">inflamables</tspan></text>
    </g>
    <g id="Grupo_6754" data-name="Grupo 6754">
      <rect id="Rectángulo_159" data-name="Rectángulo 159" width="127.11" height="107.859" rx="12" transform="translate(4108.181 7139.599)" fill="#ff0"/>
      <path id="Trazado_1052" data-name="Trazado 1052" d="M4175.991,7163.136a16.385,16.385,0,0,0-.3-6.253,9.263,9.263,0,0,1,2.59,2.853,15.644,15.644,0,0,1,2.015,6.579c.21,1.85.481,3.692.728,5.538a2.744,2.744,0,0,0,.117.362,10.5,10.5,0,0,0,1.453-6.559,3.611,3.611,0,0,1,.359.278,10.324,10.324,0,0,1,2.778,6.336,20.743,20.743,0,0,1-.314,5.953c-.034.194-.042.393-.061.589l.155.107,1.668-1.588c.938,5.236-1.754,14.474-9.214,16.781h4.122v2.573h-20.561v-2.559h3.707l.085-.192a2.208,2.208,0,0,0-.612-.359,8.485,8.485,0,0,1-3.926-1.746,8.014,8.014,0,0,1-2.72-5.653c-.205-2.361-.271-4.736-.329-7.107a8.359,8.359,0,0,0-.628-2.9c-.316-.8-.62-1.613-.922-2.422a2.1,2.1,0,0,1-.069-.374l.13-.136c.574.421,1.156.833,1.72,1.268.581.449,1.145.921,1.639,1.32.949-3.674.372-7.569-.508-11.56,2.259.646,3.285,2.364,4.344,4.272.225-.891.439-1.65.6-2.42a19.877,19.877,0,0,0,.415-2.386,14.9,14.9,0,0,0,.01-2.426,21.716,21.716,0,0,0-.358-2.4c-.149-.785-.349-1.56-.547-2.429,2.093.321,3.1,1.882,4.191,3.327l.178-.012a22.978,22.978,0,0,0,.452-2.9c.058-1.691-.018-3.387-.05-5.081a7.336,7.336,0,0,1,.79-3.82c.1-.177.213-.345.388-.628a46.711,46.711,0,0,0,2.831,8.1c1.123,2.6,2.319,5.164,3.483,7.744Zm1.833,15.923a13.905,13.905,0,0,1-3.366,4.882c1.325-4.116,1-7.971-1.662-11.491a1.881,1.881,0,0,0-.054.539c-.007,1.338.066,2.681-.042,4.01-.133,1.643-.391,3.279-.654,4.908a2.945,2.945,0,0,1-.557,1.09c-.262.382-.638.445-.914.031a8.717,8.717,0,0,1-.992-1.751c-.327-.885-.516-1.822-.783-2.806a9.7,9.7,0,0,0,.752,9.3,3.638,3.638,0,0,1-2.551-1.737,19.35,19.35,0,0,1-1.033-2.308c-.375-.926-.714-1.866-1.068-2.8a2.632,2.632,0,0,0-.27.89,15.112,15.112,0,0,0-.337,4.375,9.823,9.823,0,0,0,4.2,6.754c.4.3.771.547.535,1.128h5.02l-1.625-.92c.237-.218.415-.41.619-.565,1.334-1.014,2.709-1.977,4-3.044a13.941,13.941,0,0,0,2.1-2.176,2.451,2.451,0,0,0,.169-2.623c-1.411,1.551-1.66,1.7-2.45,1.453A8,8,0,0,0,4177.824,7179.059Zm-6.852-12.2a7.143,7.143,0,0,0,.545-.81,5.924,5.924,0,0,0,.478-4.162c-.225-.872-.484-1.736-.751-2.6-.257-.831-.544-1.653-.825-2.5-.085.067-.132.084-.138.112a18.687,18.687,0,0,0-.57,7.089A4.831,4.831,0,0,0,4170.972,7166.857Z" fill="#7d7d7f"/>
      <text id="Sustancias_comburentes_" data-name="Sustancias comburentes





" transform="translate(4112.007 7196.592)" fill="#444242" font-size="16" font-family="OpenSans, Open Sans"><tspan x="20.331" y="17">Sustancias </tspan><tspan x="10.042" y="39">comburentes</tspan></text>
    </g>
    <g id="Grupo_6755" data-name="Grupo 6755">
      <rect id="Rectángulo_157" data-name="Rectángulo 157" width="192.329" height="107.859" rx="12" transform="translate(3751.218 7139.599)" fill="#4aa8e7"/>
      <text id="_Diferentes_de_los_plaguicidas_" data-name="(Diferentes de los plaguicidas)




" transform="translate(3758.291 7193.396)" fill="#fff" font-size="16" font-family="OpenSans, Open Sans"><tspan x="24.472" y="17">(Diferentes de los </tspan><tspan x="45.847" y="39">plaguicidas)</tspan></text>
      <g id="Grupo_981" data-name="Grupo 981">
        <text id="Sustancias_toxicas_" data-name="Sustancias toxicas




" transform="translate(3808.89 7146.19)" fill="#fff" font-size="16" font-family="OpenSans-Bold, Open Sans" font-weight="700"><tspan x="0" y="17">Sustancias </tspan><tspan x="0" y="39">toxicas</tspan></text>
        <path id="Trazado_1054" data-name="Trazado 1054" d="M3776.551,7170.507c1.431,0,2.216-.692,2.56-.616.375.083.465.571.465,1.272h.017v3.393a.793.793,0,0,0,1.551,0v-1.291h.684v1.291a.793.793,0,0,0,1.55,0v-1.291h.684v1.291a.782.782,0,0,0,.758.622h0l.009,0h.008a.838.838,0,0,0,.549-.217.606.606,0,0,0,.227-.41v-1.291h.683v1.291a.6.6,0,0,0,.228.41.834.834,0,0,0,.548.217.785.785,0,0,0,.775-.627v-1.291h.684v1.291a.605.605,0,0,0,.227.41.8.8,0,0,0,1.1,0,.605.605,0,0,0,.227-.41v-3.393a1.834,1.834,0,0,1,.233-1.137.435.435,0,0,1,.231-.135.659.659,0,0,1,.344.064,5.422,5.422,0,0,0,2.216.552c1.39,0,3.092-1.495,4.02-3.883.084-.218.162-.442.233-.673a10.226,10.226,0,0,0,.332-1.469,10.885,10.885,0,0,0,.119-1.613c0-.867.015-1.721.016-2.551a14.812,14.812,0,0,0-.754-5.594,6.31,6.31,0,0,0-.47-.919c-1.726-2.774-5.608-4.325-11.765-4.325h-.017c-6.156,0-10.039,1.551-11.765,4.325-1.455,2.34-1.207,5.595-1.207,9.064C3771.848,7167.345,3774.53,7170.507,3776.551,7170.507Zm13.5-10.232c3.007-.545,4.681-.871,4.936,1.421a8.661,8.661,0,0,1-.033,2.173,7.786,7.786,0,0,1-.188.911,6.539,6.539,0,0,1-.455,1.22,3.331,3.331,0,0,1-2.2,1.967,2.363,2.363,0,0,1-.872-.09c-.255-.061-.544-.146-.85-.252a13.54,13.54,0,0,1-1.446-.6c-1.3-.629-2.525-1.478-2.693-2.267C3785.336,7160.456,3786.727,7160.877,3790.053,7160.275Zm-4.727,6.72c.6,0,2.569,2.379,2.569,3.116s-2.569,1.189-2.569,0Zm-.994,3.116c0,1.189-2.57.736-2.57,0s1.966-3.116,2.57-3.116Zm-9.664-8.415c.255-2.292,1.93-1.966,4.937-1.421,3.325.6,4.717.181,3.8,4.485-.335,1.577-4.89,3.4-5.86,3.207C3775.568,7167.578,3774.34,7164.653,3774.668,7161.7Zm12.412,18.249c-.246.03-.5.057-.762.077-.468.035-.962.054-1.481.054h-.017c-4.136,0-6.745-1.2-6.668-2.728l.2-6.505.527-.32.479,7.27.239.182v-1.291a.793.793,0,0,1,1.551,0v1.291h.684v-1.291a.793.793,0,0,1,1.55,0v1.291h.684v-1.291a.783.783,0,0,1,.761-.624l.014,0a.852.852,0,0,1,.715.42.442.442,0,0,1,.061.207v1.291h.683v-1.291a.445.445,0,0,1,.061-.207.854.854,0,0,1,.715-.42.833.833,0,0,1,.623.308.551.551,0,0,1,.152.319v1.291h.684v-1.291a.442.442,0,0,1,.061-.207.818.818,0,0,1,1.429,0,.442.442,0,0,1,.061.207v1.291l.239-.182.479-7.27.527.32.2,6.505h0a1.445,1.445,0,0,1-.385,1.017c-.016.018-.027.038-.044.056a4.849,4.849,0,0,1-2.3,1.2c-.2.056-.424.106-.649.153C3787.812,7179.839,3787.456,7179.9,3787.08,7179.945Zm12.024,3.813a1.161,1.161,0,0,1-.268.3,1.352,1.352,0,0,1-.247.155c-.494.238-.968.09-1.185.231a.227.227,0,0,0-.085.1c-.062.128,0,.252.1.4.069.1.156.21.235.34a1.649,1.649,0,0,1,.111.211,1.343,1.343,0,0,1,.114.537h0a1.627,1.627,0,0,1-1.361,1.444,1.552,1.552,0,0,1-1.316-.3c-.1-.081-.2-.164-.281-.247a6.135,6.135,0,0,1-1.349-2.382c-.029-.064-.06-.125-.092-.184a1.478,1.478,0,0,0-.222-.312,1.02,1.02,0,0,0-.3-.222l-5.494-2.654h0a8.226,8.226,0,0,0,3.405-1.14l3.179,1.536a1.2,1.2,0,0,0,.746.08,5.659,5.659,0,0,0,.722-.2,5.023,5.023,0,0,1,1.837-.3,4.1,4.1,0,0,1,.714.1,1.5,1.5,0,0,1,.9.622A1.776,1.776,0,0,1,3799.1,7183.758Zm-20.307-3.727a8.193,8.193,0,0,0,3.4,1.142l-5.5,2.656c-.953.46-.63,2.047-2.247,3.347a1.693,1.693,0,0,1-2.678-1.144c.007-.835.73-1.148.565-1.489s-.86.03-1.517-.484a1.691,1.691,0,0,1,.767-2.808c2.024-.46,3.066.78,4.019.32Zm-9.5-5.371a1.692,1.692,0,0,1-.768-2.808c.658-.514,1.353-.142,1.518-.484s-.559-.654-.565-1.488a1.692,1.692,0,0,1,2.677-1.145c1.618,1.3,1.295,2.887,2.248,3.347l2.9,1.4-.083,2.745-3.908-1.888C3772.362,7173.88,3771.32,7175.12,3769.3,7174.66Zm32.318-1.705a1.767,1.767,0,0,1-.8,1.525,1.485,1.485,0,0,1-.45.18,5.012,5.012,0,0,1-2.862-.3,1.552,1.552,0,0,0-1.157-.02l-3.89,1.879-.082-2.745,2.882-1.392a1.186,1.186,0,0,0,.525-.534,7.348,7.348,0,0,1,1.441-2.566c.087-.084.18-.166.281-.247a1.692,1.692,0,0,1,2.677,1.145c-.006.834-.729,1.147-.564,1.488s.859-.03,1.517.484a1.145,1.145,0,0,1,.268.3A1.556,1.556,0,0,1,3801.614,7172.955Z" fill="#fff"/>
      </g>
    </g>
  </g>
</svg>
