<svg xmlns="http://www.w3.org/2000/svg" width="152.444" height="152.443" viewBox="0 0 152.444 152.443">
  <g id="Grupo_6751" data-name="Grupo 6751" transform="translate(-3396.354 -5602.834)">
    <path id="Trazado_908" data-name="Trazado 908" d="M3472.576,5602.834q3.744,0,7.471.367t7.4,1.1q3.672.731,7.256,1.817t7.043,2.52q3.459,1.432,6.761,3.2t6.416,3.846q3.114,2.079,6.008,4.456t5.543,5.023q2.648,2.647,5.023,5.542t4.456,6.008q2.081,3.114,3.845,6.416t3.2,6.762q1.434,3.458,2.52,7.043t1.818,7.255q.731,3.673,1.1,7.4t.368,7.472q0,3.743-.368,7.47t-1.1,7.4q-.731,3.672-1.818,7.256t-2.52,7.042q-1.433,3.46-3.2,6.762t-3.845,6.416q-2.08,3.113-4.456,6.008t-5.023,5.542q-2.649,2.648-5.543,5.024t-6.008,4.455q-3.113,2.08-6.416,3.846t-6.761,3.2q-3.461,1.433-7.043,2.52t-7.256,1.817q-3.672.732-7.4,1.1t-7.471.367q-3.744,0-7.471-.367t-7.4-1.1q-3.673-.729-7.256-1.817t-7.043-2.52q-3.459-1.433-6.762-3.2t-6.416-3.846q-3.112-2.079-6.008-4.455t-5.542-5.024q-2.647-2.648-5.023-5.542t-4.456-6.008q-2.08-3.114-3.846-6.416t-3.2-6.762q-1.433-3.459-2.52-7.042t-1.817-7.256q-.731-3.673-1.1-7.4t-.367-7.47q0-3.746.367-7.472t1.1-7.4q.73-3.672,1.817-7.255t2.52-7.043q1.434-3.459,3.2-6.762t3.846-6.416q2.08-3.114,4.456-6.008t5.023-5.542q2.648-2.649,5.542-5.023t6.008-4.456q3.114-2.081,6.416-3.846t6.762-3.2q3.459-1.433,7.043-2.52t7.256-1.817q3.672-.73,7.4-1.1T3472.576,5602.834Z" fill="#336535"/>
    <circle id="Elipse_39" data-name="Elipse 39" cx="71.597" cy="71.597" r="71.597" transform="translate(3400.979 5607.459)" fill="#fff"/>
    <circle id="Elipse_40" data-name="Elipse 40" cx="65.13" cy="65.13" r="65.13" transform="translate(3407.446 5613.925)" fill="#70a83b"/>
    <g id="Grupo_950" data-name="Grupo 950">
      <g id="Grupo_882" data-name="Grupo 882">
        <g id="Grupo_881" data-name="Grupo 881">
          <path id="Trazado_977" data-name="Trazado 977" d="M3459.153,5628.56l-6.031-.066a13.926,13.926,0,0,0,1.509,6.767,7.449,7.449,0,0,0,4.02,3.616l5.528,1.294Z" fill="#333"/>
        </g>
      </g>
      <g id="Grupo_884" data-name="Grupo 884">
        <g id="Grupo_883" data-name="Grupo 883">
          <rect id="Rectángulo_106" data-name="Rectángulo 106" width="9.679" height="1.739" transform="translate(3458.651 5638.876)" fill="#424242"/>
        </g>
      </g>
      <g id="Grupo_886" data-name="Grupo 886">
        <g id="Grupo_885" data-name="Grupo 885">
          <rect id="Rectángulo_107" data-name="Rectángulo 107" width="8.253" height="4.891" transform="translate(3494.388 5631.077)" fill="#424242"/>
        </g>
      </g>
      <g id="Grupo_888" data-name="Grupo 888">
        <g id="Grupo_887" data-name="Grupo 887">
          <rect id="Rectángulo_108" data-name="Rectángulo 108" width="2.75" height="7.386" transform="translate(3493.012 5629.857)" fill="#6d6d6d"/>
        </g>
      </g>
      <g id="Grupo_890" data-name="Grupo 890">
        <g id="Grupo_889" data-name="Grupo 889">
          <rect id="Rectángulo_109" data-name="Rectángulo 109" width="22.236" height="7.048" transform="translate(3466.038 5630.194)" fill="#333"/>
        </g>
      </g>
      <g id="Grupo_892" data-name="Grupo 892">
        <g id="Grupo_891" data-name="Grupo 891">
          <circle id="Elipse_46" data-name="Elipse 46" cx="6.897" cy="6.897" r="6.897" transform="translate(3457.282 5626.377)" fill="#4d4d4d"/>
        </g>
      </g>
      <g id="Grupo_894" data-name="Grupo 894">
        <g id="Grupo_893" data-name="Grupo 893">
          <rect id="Rectángulo_110" data-name="Rectángulo 110" width="2.98" height="10.316" transform="translate(3481.626 5628.561)" fill="#6d6d6d"/>
        </g>
      </g>
      <g id="Grupo_896" data-name="Grupo 896">
        <g id="Grupo_895" data-name="Grupo 895">
          <rect id="Rectángulo_111" data-name="Rectángulo 111" width="9.17" height="13.794" transform="translate(3484.606 5626.822)" fill="#333"/>
        </g>
      </g>
      <g id="Grupo_898" data-name="Grupo 898">
        <g id="Grupo_897" data-name="Grupo 897">
          <rect id="Rectángulo_112" data-name="Rectángulo 112" width="9.17" height="1.363" transform="translate(3484.606 5628.494)" fill="#4d4d4d"/>
        </g>
      </g>
      <g id="Grupo_900" data-name="Grupo 900">
        <g id="Grupo_899" data-name="Grupo 899">
          <rect id="Rectángulo_113" data-name="Rectángulo 113" width="9.17" height="1.363" transform="translate(3484.606 5633.037)" fill="#4d4d4d"/>
        </g>
      </g>
      <g id="Grupo_902" data-name="Grupo 902">
        <g id="Grupo_901" data-name="Grupo 901">
          <rect id="Rectángulo_114" data-name="Rectángulo 114" width="9.17" height="1.363" transform="translate(3484.606 5637.243)" fill="#4d4d4d"/>
        </g>
      </g>
      <g id="Grupo_904" data-name="Grupo 904">
        <g id="Grupo_903" data-name="Grupo 903">
          <rect id="Rectángulo_115" data-name="Rectángulo 115" width="1.49" height="10.383" transform="translate(3483.116 5628.494)" fill="#424242"/>
        </g>
      </g>
      <g id="Grupo_906" data-name="Grupo 906">
        <g id="Grupo_905" data-name="Grupo 905">
          <path id="Trazado_978" data-name="Trazado 978" d="M3469.123,5633.073a4.944,4.944,0,1,1-4.944-4.942A4.943,4.943,0,0,1,3469.123,5633.073Z" fill="#6d6d6d"/>
        </g>
      </g>
      <g id="Grupo_908" data-name="Grupo 908">
        <g id="Grupo_907" data-name="Grupo 907">
          <rect id="Rectángulo_116" data-name="Rectángulo 116" width="2.75" height="7.386" transform="translate(3499.89 5629.857)" fill="#6d6d6d"/>
        </g>
      </g>
      <g id="Grupo_910" data-name="Grupo 910">
        <g id="Grupo_909" data-name="Grupo 909">
          <path id="Trazado_979" data-name="Trazado 979" d="M3458.651,5640.615l-1.368,2.336h6.208v-2.336Z" fill="#333"/>
        </g>
      </g>
      <g id="Grupo_912" data-name="Grupo 912">
        <g id="Grupo_911" data-name="Grupo 911">
          <path id="Trazado_980" data-name="Trazado 980" d="M3468.329,5640.615l1.368,2.336h-6.208v-2.336Z" fill="#333"/>
        </g>
      </g>
      <g id="Grupo_914" data-name="Grupo 914">
        <g id="Grupo_913" data-name="Grupo 913">
          <rect id="Rectángulo_117" data-name="Rectángulo 117" width="12.415" height="2.419" transform="translate(3457.282 5642.951)" fill="#4d4d4d"/>
        </g>
      </g>
      <g id="Grupo_916" data-name="Grupo 916">
        <g id="Grupo_915" data-name="Grupo 915">
          <rect id="Rectángulo_118" data-name="Rectángulo 118" width="15.356" height="8.067" transform="translate(3455.72 5645.37)" fill="#333"/>
        </g>
      </g>
      <g id="Grupo_918" data-name="Grupo 918">
        <g id="Grupo_917" data-name="Grupo 917">
          <rect id="Rectángulo_119" data-name="Rectángulo 119" width="1.232" height="6.215" transform="translate(3457.282 5645.37)" fill="#5b5b5b"/>
        </g>
      </g>
      <g id="Grupo_920" data-name="Grupo 920">
        <g id="Grupo_919" data-name="Grupo 919">
          <rect id="Rectángulo_120" data-name="Rectángulo 120" width="1.232" height="6.215" transform="translate(3468.465 5645.37)" fill="#5b5b5b"/>
        </g>
      </g>
      <g id="Grupo_922" data-name="Grupo 922">
        <g id="Grupo_921" data-name="Grupo 921">
          <rect id="Rectángulo_121" data-name="Rectángulo 121" width="1.232" height="6.215" transform="translate(3460.078 5645.37)" fill="#5b5b5b"/>
        </g>
      </g>
      <g id="Grupo_924" data-name="Grupo 924">
        <g id="Grupo_923" data-name="Grupo 923">
          <rect id="Rectángulo_122" data-name="Rectángulo 122" width="1.234" height="6.215" transform="translate(3462.878 5645.37)" fill="#5b5b5b"/>
        </g>
      </g>
      <g id="Grupo_926" data-name="Grupo 926">
        <g id="Grupo_925" data-name="Grupo 925">
          <rect id="Rectángulo_123" data-name="Rectángulo 123" width="1.232" height="6.215" transform="translate(3465.67 5645.37)" fill="#5b5b5b"/>
        </g>
      </g>
      <g id="Grupo_934" data-name="Grupo 934">
        <g id="Grupo_928" data-name="Grupo 928">
          <g id="Grupo_927" data-name="Grupo 927">
            <path id="Trazado_981" data-name="Trazado 981" d="M3450.133,5731.734h11.727q13.5,0,27-.016a2.745,2.745,0,0,0,1.45-2.407v-.344h-41.658c0,.221,0,.344,0,.344A2.747,2.747,0,0,0,3450.133,5731.734Z" fill="#333"/>
          </g>
        </g>
        <g id="Grupo_933" data-name="Grupo 933">
          <g id="Grupo_930" data-name="Grupo 930">
            <g id="Grupo_929" data-name="Grupo 929">
              <path id="Trazado_982" data-name="Trazado 982" d="M3487.51,5684.721c-.152-6.265-.917-7.641-4.394-10.393-3.285-2.6-6.987-4.2-9.666-6.5-3.752-3.21-.154-7.489-1.376-9.949a20.932,20.932,0,0,0-3.745-4.447H3455.72s-1.182,1.4-2.28,2.76c-1.636,2.026.371,3.971,1.215,6.893s-1.528,5.556-2.685,8.472-3.127,5.282-3.127,10.619c0,5.48-.17,42.839-.189,46.786h38.875C3487.565,5716.687,3487.627,5689.541,3487.51,5684.721Z" fill="#424242"/>
            </g>
          </g>
          <g id="Grupo_932" data-name="Grupo 932">
            <g id="Grupo_931" data-name="Grupo 931">
              <path id="Trazado_983" data-name="Trazado 983" d="M3490.108,5685.18c-.458-6.19-1.213-8.61-3.056-10.852-2.266-2.754-8.779-5.435-11.311-7.427-1.286-1.013-2.514-4.112-1.68-6.175.865-2.139.84-2.521-.382-4.585a9.227,9.227,0,0,0-2.6-2.7h-2.747a20.932,20.932,0,0,1,3.745,4.447c1.222,2.46-2.376,6.739,1.376,9.949,2.679,2.292,6.381,3.9,9.666,6.5,3.477,2.752,4.242,4.128,4.394,10.393.117,4.82.055,31.966.019,44.246h2.783C3490.32,5725.082,3490.382,5688.868,3490.108,5685.18Z" fill="#6d6d6d"/>
            </g>
          </g>
        </g>
      </g>
      <g id="Grupo_936" data-name="Grupo 936">
        <g id="Grupo_935" data-name="Grupo 935">
          <path id="Rectángulo_124" data-name="Rectángulo 124" d="M2.132,0H28.358A2.132,2.132,0,0,1,30.49,2.132V13.915a2.133,2.133,0,0,1-2.133,2.133H2.132A2.132,2.132,0,0,1,0,13.916V2.132A2.132,2.132,0,0,1,2.132,0Z" transform="translate(3454.116 5682.582)" fill="#333"/>
        </g>
      </g>
      <g id="Grupo_938" data-name="Grupo 938">
        <g id="Grupo_937" data-name="Grupo 937">
          <path id="Rectángulo_125" data-name="Rectángulo 125" d="M2.133,0H28.358A2.132,2.132,0,0,1,30.49,2.132V13.916a2.132,2.132,0,0,1-2.132,2.132H2.132A2.132,2.132,0,0,1,0,13.916V2.133A2.133,2.133,0,0,1,2.133,0Z" transform="translate(3454.116 5708.029)" fill="#333"/>
        </g>
      </g>
      <g id="Grupo_940" data-name="Grupo 940">
        <g id="Grupo_939" data-name="Grupo 939">
          <path id="Rectángulo_126" data-name="Rectángulo 126" d="M2.132,0H28.358A2.132,2.132,0,0,1,30.49,2.132V31.98a2.133,2.133,0,0,1-2.133,2.133H2.132A2.132,2.132,0,0,1,0,31.981V2.132A2.132,2.132,0,0,1,2.132,0Z" transform="translate(3454.116 5686.449)" fill="#70a83b"/>
        </g>
      </g>
      <g id="Grupo_942" data-name="Grupo 942">
        <g id="Grupo_941" data-name="Grupo 941">
          <rect id="Rectángulo_127" data-name="Rectángulo 127" width="9.466" height="1.588" transform="translate(3458.761 5659.345)" fill="#333"/>
        </g>
      </g>
      <g id="Grupo_944" data-name="Grupo 944">
        <g id="Grupo_943" data-name="Grupo 943">
          <rect id="Rectángulo_128" data-name="Rectángulo 128" width="9.466" height="1.589" transform="translate(3458.761 5662.777)" fill="#333"/>
        </g>
      </g>
      <g id="Grupo_947" data-name="Grupo 947">
        <g id="Grupo_946" data-name="Grupo 946">
          <g id="Grupo_945" data-name="Grupo 945">
            <path id="Trazado_984" data-name="Trazado 984" d="M3469.081,5717.517a13.657,13.657,0,1,1,13.657-13.657A13.672,13.672,0,0,1,3469.081,5717.517Zm0-25.8a12.144,12.144,0,1,0,12.145,12.144A12.158,12.158,0,0,0,3469.081,5691.716Z" fill="#fff"/>
          </g>
        </g>
      </g>
      <g id="Grupo_949" data-name="Grupo 949">
        <g id="Grupo_948" data-name="Grupo 948">
          <rect id="Rectángulo_129" data-name="Rectángulo 129" width="30.49" height="2.136" transform="translate(3454.116 5678.101)" fill="#fff"/>
        </g>
      </g>
    </g>
  </g>
</svg>
