<svg xmlns="http://www.w3.org/2000/svg" width="71.113" height="130.859" viewBox="0 0 71.113 130.859">
  <g id="Grupo_1007" data-name="Grupo 1007" transform="translate(-3499.361 -8819.315)">
    <g id="Grupo_992" data-name="Grupo 992">
      <path id="Trazado_1241" data-name="Trazado 1241" d="M3559.931,8822.6l-8.959-2.653-33.939,27,6.128,4.868Z" fill="#565656"/>
    </g>
    <g id="Grupo_993" data-name="Grupo 993">
      <path id="Trazado_1242" data-name="Trazado 1242" d="M3509.9,8822.6l8.967-2.653,34.742,27.647-6.127,4.87Z" fill="#686868"/>
    </g>
    <g id="Grupo_994" data-name="Grupo 994">
      <path id="Trazado_1243" data-name="Trazado 1243" d="M3518.863,8819.942l-9.479,2.156v21.59h9.479Z" fill="#fff" stroke="#a0a2a3" stroke-miterlimit="10" stroke-width="1"/>
    </g>
    <g id="Grupo_995" data-name="Grupo 995">
      <path id="Trazado_1244" data-name="Trazado 1244" d="M3560.449,8822.05l-9.477-2.107v24.087h9.477Z" fill="#e8e8e8" stroke="#a0a2a3" stroke-miterlimit="10" stroke-width="1"/>
    </g>
    <g id="Grupo_998" data-name="Grupo 998">
      <g id="Grupo_996" data-name="Grupo 996">
        <path id="Trazado_1245" data-name="Trazado 1245" d="M3509.383,8843.688v26.076c0,4.446-4.139,8.121-9.522,8.726v71.185h30.007l.335-19.742,4.268-33.893h.446v-52.352Z" fill="#fff" stroke="#a0a2a3" stroke-miterlimit="10" stroke-width="1"/>
      </g>
      <g id="Grupo_997" data-name="Grupo 997">
        <path id="Trazado_1246" data-name="Trazado 1246" d="M3560.449,8869.765v-26.076h-25.532v52.352h.447l4.269,33.893.331,19.742h30.01V8878.49C3564.591,8877.886,3560.449,8874.211,3560.449,8869.765Z" fill="#e8e8e8" stroke="#a0a2a3" stroke-miterlimit="10" stroke-width="1"/>
      </g>
    </g>
    <g id="Grupo_999" data-name="Grupo 999">
      <path id="Trazado_1247" data-name="Trazado 1247" d="M3499.861,8894.021v-14.015h19Z" fill="#bfbfbf" stroke="#a0a2a3" stroke-miterlimit="10" stroke-width="1"/>
    </g>
    <g id="Grupo_1000" data-name="Grupo 1000">
      <path id="Trazado_1248" data-name="Trazado 1248" d="M3569.974,8894.021v-14.015h-19Z" fill="#bfbfbf" stroke="#a0a2a3" stroke-miterlimit="10" stroke-width="1"/>
    </g>
    <g id="Grupo_1001" data-name="Grupo 1001">
      <path id="Trazado_1249" data-name="Trazado 1249" d="M3515.73,8883.1l3.133-3.1h-19v3.1Z" fill="#00754e"/>
    </g>
    <g id="Grupo_1002" data-name="Grupo 1002">
      <path id="Trazado_1250" data-name="Trazado 1250" d="M3569.974,8883.1v-3.1h-19l3.133,3.1Z" fill="#00754e"/>
    </g>
    <g id="Grupo_1003" data-name="Grupo 1003">
      <rect id="Rectángulo_178" data-name="Rectángulo 178" width="9.479" height="2.077" transform="translate(3509.383 8841.611)" fill="#ffca00"/>
    </g>
    <g id="Grupo_1004" data-name="Grupo 1004">
      <rect id="Rectángulo_179" data-name="Rectángulo 179" width="9.479" height="2.076" transform="translate(3509.383 8839.876)" fill="#00754e"/>
    </g>
    <g id="Grupo_1005" data-name="Grupo 1005">
      <rect id="Rectángulo_180" data-name="Rectángulo 180" width="9.477" height="2.077" transform="translate(3550.972 8841.952)" fill="#ffca00"/>
    </g>
    <g id="Grupo_1006" data-name="Grupo 1006">
      <rect id="Rectángulo_181" data-name="Rectángulo 181" width="9.477" height="2.076" transform="translate(3550.972 8839.876)" fill="#00754e"/>
    </g>
  </g>
</svg>
