<svg xmlns="http://www.w3.org/2000/svg" width="115.516" height="105.691" viewBox="0 0 115.516 105.691">
  <g id="Grupo_6758" data-name="Grupo 6758" transform="translate(-3470.254 -9387.497)">
    <g id="Grupo_1080" data-name="Grupo 1080">
      <g id="Grupo_1079" data-name="Grupo 1079">
        <g id="Grupo_1069" data-name="Grupo 1069">
          <path id="Trazado_1293" data-name="Trazado 1293" d="M3585.654,9454.3c-.487,4.063-7.021,8.137-15.6,8.8-17.533,1.356-17.555-2.524-27.946-2.9-1.839-.066-3.522-.171-5.037-.191l.3-4.354c0-.413-2.416,0-2.936,0h-10.725a.861.861,0,0,0-.942.747v.293h-.073c-1.885,0-4-1.618-4.822-.887-.026-.525-.046-.976-.048-1-.417.031-.187,3.193-.042,3.969v.01a23,23,0,0,0,.858,3.876,5.064,5.064,0,0,0,3.845,3.526.581.581,0,0,1,.6-.387l.056,0a.538.538,0,0,1,.582.488v0h2.408a.782.782,0,0,1,.708-.38h.906a.78.78,0,0,1,.708.38h2.874a.788.788,0,0,1,.71-.38h.907a.782.782,0,0,1,.709.38h2.088a.864.864,0,0,0,.943-.749l.265-3.847a22.539,22.539,0,0,1,5.156-.367c6.835.249,6.8,1.676,12.054,4.045a15.146,15.146,0,0,0,4.651.895.792.792,0,0,1,.7-.356h.908a.751.751,0,0,1,.742.463c1.387.033,2.859.015,4.346-.037a.765.765,0,0,1,.73-.426h.908a.812.812,0,0,1,.676.321c.757-.042,1.5-.094,2.235-.15.419-.031.833-.071,1.243-.123a.7.7,0,0,1,.561-.446l.882-.17a.871.871,0,0,1,.818.256,25.96,25.96,0,0,0,3.949-1.111.575.575,0,0,1,.412-.713l.821-.307a.929.929,0,0,1,.862.115c3.786-1.876,6.135-4.518,6.171-7.056A12.961,12.961,0,0,0,3585.654,9454.3Z" fill="#0e1c2d"/>
        </g>
        <g id="Grupo_1070" data-name="Grupo 1070">
          <path id="Trazado_1294" data-name="Trazado 1294" d="M3585.557,9453.674c-.487,4.061-7.022,7.987-15.6,8.652-17.536,1.354-17.555-2.657-27.948-3.038-8.939-.327-11.341,2.238-18.856,1.136a6.227,6.227,0,0,1-5.3-5.5c0-.054,0-.108,0-.163-.441.036-.283,1-.144,1.5a7.245,7.245,0,0,0,5.747,5.279c7.513,1.1,9.617-1.445,18.556-1.116,10.393.379,10.412,4.394,27.948,3.037,9.023-.7,15.66-5.277,15.716-9.556C3585.676,9453.708,3585.676,9453.674,3585.557,9453.674Z" fill="#ffcd00"/>
        </g>
        <g id="Grupo_1072" data-name="Grupo 1072">
          <g id="Grupo_1071" data-name="Grupo 1071">
            <path id="Trazado_1295" data-name="Trazado 1295" d="M3585.672,9452.988c-.241-6.608-5.034-8.323-10.412-7.879-11.249.921-15.44-.268-19.015-4-4.014-4.191-.469-35.375,1.565-50.769h-42.667c.992,7.26,2.329,17.521,2.892,24.051.472,5.473.842,10.71,1.152,15.116.429,6.09,1.2,12.6,1.234,12.9.454,4.046-2.815,5.652-2.569,12.512a6.227,6.227,0,0,0,5.3,5.5c7.515,1.1,9.917-1.463,18.856-1.136,10.393.381,10.412,4.392,27.948,3.038C3578.979,9461.627,3585.828,9457.263,3585.672,9452.988Z" fill="#ffb800"/>
          </g>
        </g>
        <g id="Grupo_1074" data-name="Grupo 1074">
          <g id="Grupo_1073" data-name="Grupo 1073">
            <path id="Trazado_1296" data-name="Trazado 1296" d="M3569.956,9462.326c-17.536,1.354-17.555-2.66-27.948-3.038-8.939-.327-11.341,2.238-18.856,1.136a6.227,6.227,0,0,1-5.3-5.5c-.295-8.1,3.022-8.466,2.568-12.512-.012-.105-.114-.962-.259-2.287-.269-2.489-.7-6.639-.975-10.616-.31-4.406-.677-9.644-1.152-15.116-.363-4.211-1.047-9.972-1.754-15.479-.388-3.034-.786-5.993-1.138-8.572h42.667c-2.034,15.394-5.577,46.573-1.563,50.769,3.572,3.735,7.764,4.924,19.013,4,5.378-.444,10.171,1.271,10.414,7.879C3585.828,9457.263,3578.979,9461.627,3569.956,9462.326Z" fill="#272729"/>
          </g>
        </g>
        <g id="Grupo_1076" data-name="Grupo 1076">
          <g id="Grupo_1075" data-name="Grupo 1075">
            <path id="Trazado_1297" data-name="Trazado 1297" d="M3555.554,9409.969c.687-7.249,1.559-14.365,2.256-19.631h-42.667c.789,5.776,1.795,13.446,2.459,19.631Z" fill="#161a17"/>
          </g>
        </g>
        <g id="Grupo_1077" data-name="Grupo 1077">
          <path id="Trazado_1298" data-name="Trazado 1298" d="M3557.81,9390.321v-1.7a1.3,1.3,0,0,0-1.424-1.127h-39.818a1.3,1.3,0,0,0-1.425,1.127v1.7Z" fill="#ffcd00"/>
        </g>
        <g id="Grupo_1078" data-name="Grupo 1078">
          <path id="Trazado_1299" data-name="Trazado 1299" d="M3533.71,9404.742v29.546c0,3.222-3.294,5.833-7.356,5.833h-6.192c-.269-2.489-.7-6.639-.975-10.616-.31-4.406-.677-9.644-1.152-15.116-.363-4.211-1.047-9.972-1.754-15.479h10.073C3530.416,9398.91,3533.71,9401.52,3533.71,9404.742Z" fill="#161a17"/>
        </g>
      </g>
    </g>
    <g id="Grupo_1092" data-name="Grupo 1092">
      <g id="Grupo_1091" data-name="Grupo 1091">
        <g id="Grupo_1081" data-name="Grupo 1081">
          <path id="Trazado_1300" data-name="Trazado 1300" d="M3540.765,9481.1c-.487,4.063-7.022,8.136-15.6,8.8-17.533,1.355-17.555-2.524-27.945-2.9-1.84-.066-3.522-.171-5.037-.192l.3-4.353c0-.414-2.416,0-2.936,0h-10.725a.861.861,0,0,0-.942.746v.293h-.073c-1.885,0-4-1.617-4.822-.886-.026-.525-.046-.976-.048-1-.417.031-.187,3.194-.042,3.97v.01a23.032,23.032,0,0,0,.858,3.876,5.06,5.06,0,0,0,3.845,3.526.58.58,0,0,1,.6-.387h.056a.541.541,0,0,1,.582.489v0h2.408a.783.783,0,0,1,.707-.379h.907a.779.779,0,0,1,.707.379h2.875a.788.788,0,0,1,.71-.379h.907a.78.78,0,0,1,.708.379h2.089a.863.863,0,0,0,.943-.749l.265-3.846a22.533,22.533,0,0,1,5.156-.367c6.835.249,6.8,1.676,12.054,4.045a15.146,15.146,0,0,0,4.651.895.793.793,0,0,1,.7-.356h.908a.753.753,0,0,1,.742.462c1.387.034,2.859.016,4.345-.036a.766.766,0,0,1,.731-.426h.908a.814.814,0,0,1,.676.321c.757-.043,1.5-.094,2.234-.15q.63-.047,1.244-.123a.7.7,0,0,1,.56-.446l.882-.17a.873.873,0,0,1,.819.256,25.888,25.888,0,0,0,3.949-1.112.575.575,0,0,1,.412-.713l.821-.306a.924.924,0,0,1,.861.115c3.787-1.877,6.136-4.518,6.172-7.056A12.929,12.929,0,0,0,3540.765,9481.1Z" fill="#0e1c2d"/>
        </g>
        <g id="Grupo_1082" data-name="Grupo 1082">
          <path id="Trazado_1301" data-name="Trazado 1301" d="M3540.668,9480.467c-.488,4.061-7.022,7.987-15.6,8.652-17.535,1.354-17.555-2.657-27.947-3.038-8.939-.327-11.342,2.238-18.856,1.136a6.229,6.229,0,0,1-5.3-5.5c0-.055,0-.107,0-.164-.442.037-.283,1-.144,1.5a7.246,7.246,0,0,0,5.747,5.279c7.513,1.1,9.617-1.445,18.556-1.116,10.392.379,10.412,4.394,27.947,3.037,9.024-.7,15.661-5.278,15.717-9.556C3540.787,9480.5,3540.787,9480.467,3540.668,9480.467Z" fill="#ffcd00"/>
        </g>
        <g id="Grupo_1084" data-name="Grupo 1084">
          <g id="Grupo_1083" data-name="Grupo 1083">
            <path id="Trazado_1302" data-name="Trazado 1302" d="M3540.783,9479.78c-.241-6.607-5.035-8.322-10.412-7.879-11.249.922-15.44-.268-19.015-4-4.014-4.191-.469-35.375,1.564-50.77h-42.666c.992,7.261,2.329,17.521,2.892,24.052.472,5.473.842,10.709,1.152,15.116.429,6.09,1.2,12.6,1.234,12.9.454,4.047-2.815,5.653-2.569,12.513a6.229,6.229,0,0,0,5.3,5.5c7.514,1.1,9.917-1.463,18.856-1.136,10.392.381,10.412,4.392,27.947,3.038C3534.09,9488.42,3540.939,9484.056,3540.783,9479.78Z" fill="#ffb800"/>
          </g>
        </g>
        <g id="Grupo_1086" data-name="Grupo 1086">
          <g id="Grupo_1085" data-name="Grupo 1085">
            <path id="Trazado_1303" data-name="Trazado 1303" d="M3525.066,9489.119c-17.535,1.354-17.555-2.66-27.947-3.038-8.939-.327-11.342,2.238-18.856,1.136a6.228,6.228,0,0,1-5.3-5.5c-.3-8.1,3.022-8.466,2.568-12.513-.013-.105-.114-.961-.259-2.286-.27-2.49-.7-6.64-.975-10.616-.31-4.407-.677-9.644-1.152-15.116-.363-4.211-1.047-9.972-1.755-15.479-.388-3.035-.785-5.993-1.137-8.573h42.666c-2.033,15.395-5.576,46.574-1.563,50.77,3.572,3.734,7.765,4.924,19.014,4,5.377-.443,10.171,1.271,10.414,7.879C3540.939,9484.056,3534.09,9488.42,3525.066,9489.119Z" fill="#272729"/>
          </g>
        </g>
        <g id="Grupo_1088" data-name="Grupo 1088">
          <g id="Grupo_1087" data-name="Grupo 1087">
            <path id="Trazado_1304" data-name="Trazado 1304" d="M3510.665,9436.762c.687-7.249,1.559-14.365,2.255-19.632h-42.666c.789,5.777,1.8,13.447,2.458,19.632Z" fill="#161a17"/>
          </g>
        </g>
        <g id="Grupo_1089" data-name="Grupo 1089">
          <path id="Trazado_1305" data-name="Trazado 1305" d="M3512.92,9417.114v-1.7a1.3,1.3,0,0,0-1.424-1.128h-39.817a1.3,1.3,0,0,0-1.425,1.128v1.7Z" fill="#ffcd00"/>
        </g>
        <g id="Grupo_1090" data-name="Grupo 1090">
          <path id="Trazado_1306" data-name="Trazado 1306" d="M3488.821,9431.535v29.545c0,3.222-3.294,5.834-7.356,5.834h-6.192c-.27-2.49-.7-6.64-.975-10.616-.31-4.407-.677-9.644-1.152-15.116-.363-4.211-1.047-9.972-1.755-15.479h10.074C3485.527,9425.7,3488.821,9428.313,3488.821,9431.535Z" fill="#161a17"/>
        </g>
      </g>
    </g>
  </g>
</svg>
