<svg xmlns="http://www.w3.org/2000/svg" width="123.863" height="79.547" viewBox="0 0 123.863 79.547">
  <g id="Grupo_1068" data-name="Grupo 1068" transform="translate(-3463.959 -9590.207)">
    <g id="Grupo_1067" data-name="Grupo 1067">
      <g id="Grupo_1025" data-name="Grupo 1025">
        <rect id="Rect치ngulo_186" data-name="Rect치ngulo 186" width="25.237" height="9.533" transform="translate(3513.273 9648.75)" fill="#005aa0"/>
      </g>
      <g id="Grupo_1026" data-name="Grupo 1026">
        <rect id="Rect치ngulo_187" data-name="Rect치ngulo 187" width="28.14" height="9.533" transform="translate(3511.822 9646.913)" fill="#002239"/>
      </g>
      <g id="Grupo_1029" data-name="Grupo 1029">
        <g id="Grupo_1027" data-name="Grupo 1027">
          <path id="Trazado_1261" data-name="Trazado 1261" d="M3515.438,9595.041l-39.479,44.264c-5.749,6.443-1.047,11.717,10.45,11.717h39.484v-60.814A13.968,13.968,0,0,0,3515.438,9595.041Z" fill="#75c8da"/>
        </g>
        <g id="Grupo_1028" data-name="Grupo 1028">
          <path id="Trazado_1262" data-name="Trazado 1262" d="M3575.824,9639.3l-39.484-44.264a13.958,13.958,0,0,0-10.447-4.834v60.814h39.481C3576.871,9651.021,3581.571,9645.748,3575.824,9639.3Z" fill="#5baebc"/>
        </g>
      </g>
      <g id="Grupo_1030" data-name="Grupo 1030">
        <path id="Trazado_1263" data-name="Trazado 1263" d="M3486.409,9652.668c-11.5,0-16.2-3.491-10.45-7.756l39.479-29.306c5.753-4.268,15.154-4.268,20.9,0l39.484,29.306c5.747,4.265,1.047,7.756-10.45,7.756Z" fill="#0e1c2d"/>
      </g>
      <g id="Grupo_1045" data-name="Grupo 1045">
        <g id="Grupo_1037" data-name="Grupo 1037">
          <g id="Grupo_1031" data-name="Grupo 1031">
            <path id="Trazado_1264" data-name="Trazado 1264" d="M3544.55,9659.23c-3.458-1.882-1.136-11.766,5.187-22.077s14.247-17.152,17.7-15.271,1.134,11.765-5.185,22.077S3548.008,9661.111,3544.55,9659.23Z" fill="#002239"/>
          </g>
          <g id="Grupo_1032" data-name="Grupo 1032">
            <path id="Trazado_1265" data-name="Trazado 1265" d="M3544.55,9659.229l22.89-37.348,18.782,10.213-22.892,37.348Z" fill="#002239"/>
          </g>
          <g id="Grupo_1033" data-name="Grupo 1033">
            <path id="Trazado_1266" data-name="Trazado 1266" d="M3563.33,9669.442c-3.46-1.881-1.137-11.766,5.185-22.077s14.247-17.151,17.706-15.271,1.131,11.765-5.188,22.076S3566.786,9671.323,3563.33,9669.442Z" fill="#002239"/>
          </g>
          <g id="Grupo_1034" data-name="Grupo 1034">
            <path id="Trazado_1267" data-name="Trazado 1267" d="M3547.68,9660.933c-3.456-1.882-1.136-11.766,5.185-22.08s14.251-17.148,17.707-15.269,1.131,11.765-5.185,22.078S3551.136,9662.811,3547.68,9660.933Z" fill="#002239"/>
          </g>
          <g id="Grupo_1035" data-name="Grupo 1035">
            <path id="Trazado_1268" data-name="Trazado 1268" d="M3564.731,9667.153c-2.517-1.371-.063-9.818,5.483-18.866s12.084-15.272,14.6-13.9.067,9.816-5.48,18.865S3567.252,9668.521,3564.731,9667.153Z" fill="#005aa0"/>
          </g>
          <g id="Grupo_1036" data-name="Grupo 1036">
            <path id="Trazado_1269" data-name="Trazado 1269" d="M3552.856,9638.848c6.107-9.966,13.71-16.687,17.347-15.463l-2.763-1.5c-3.456-1.881-11.384,4.956-17.7,15.271s-8.645,20.2-5.187,22.077l2.761,1.5C3544.366,9658.376,3546.745,9648.813,3552.856,9638.848Z" fill="#005aa0"/>
          </g>
        </g>
        <g id="Grupo_1044" data-name="Grupo 1044">
          <g id="Grupo_1038" data-name="Grupo 1038">
            <path id="Trazado_1270" data-name="Trazado 1270" d="M3507.233,9659.23c3.458-1.882,1.136-11.766-5.187-22.077s-14.247-17.152-17.7-15.271-1.136,11.765,5.185,22.077S3503.775,9661.111,3507.233,9659.23Z" fill="#002239"/>
          </g>
          <g id="Grupo_1039" data-name="Grupo 1039">
            <path id="Trazado_1271" data-name="Trazado 1271" d="M3507.233,9659.229l-22.89-37.348-18.782,10.213,22.892,37.348Z" fill="#002239"/>
          </g>
          <g id="Grupo_1040" data-name="Grupo 1040">
            <path id="Trazado_1272" data-name="Trazado 1272" d="M3488.453,9669.442c3.46-1.881,1.137-11.766-5.185-22.077s-14.247-17.151-17.707-15.271-1.136,11.765,5.187,22.076S3485,9671.323,3488.453,9669.442Z" fill="#002239"/>
          </g>
          <g id="Grupo_1041" data-name="Grupo 1041">
            <path id="Trazado_1273" data-name="Trazado 1273" d="M3504.1,9660.933c3.456-1.882,1.136-11.766-5.185-22.08s-14.251-17.148-17.707-15.269-1.136,11.765,5.185,22.078S3500.647,9662.811,3504.1,9660.933Z" fill="#002239"/>
          </g>
          <g id="Grupo_1042" data-name="Grupo 1042">
            <path id="Trazado_1274" data-name="Trazado 1274" d="M3487.05,9667.153c2.519-1.371.065-9.818-5.479-18.866s-12.086-15.272-14.6-13.9-.067,9.816,5.479,18.865S3484.531,9668.521,3487.05,9667.153Z" fill="#005aa0"/>
          </g>
          <g id="Grupo_1043" data-name="Grupo 1043">
            <path id="Trazado_1275" data-name="Trazado 1275" d="M3498.927,9638.848c-6.107-9.966-13.71-16.687-17.351-15.463l2.767-1.5c3.456-1.881,11.382,4.956,17.7,15.271s8.645,20.2,5.187,22.077l-2.761,1.5C3507.415,9658.376,3505.034,9648.813,3498.927,9638.848Z" fill="#005aa0"/>
          </g>
        </g>
      </g>
      <g id="Grupo_1066" data-name="Grupo 1066">
        <g id="Grupo_1046" data-name="Grupo 1046">
          <path id="Trazado_1276" data-name="Trazado 1276" d="M3543.594,9633.375c0-9.208-7.927-16.673-17.7-16.673s-17.7,7.465-17.7,16.673,7.925,16.676,17.7,16.676S3543.594,9642.584,3543.594,9633.375Z" fill="#fff"/>
        </g>
        <g id="Grupo_1047" data-name="Grupo 1047">
          <ellipse id="Elipse_51" data-name="Elipse 51" cx="16.125" cy="15.188" rx="16.125" ry="15.188" transform="translate(3509.768 9618.188)" fill="#010616"/>
        </g>
        <g id="Grupo_1048" data-name="Grupo 1048">
          <path id="Trazado_1277" data-name="Trazado 1277" d="M3540.265,9633.375c0-7.475-6.439-13.536-14.372-13.536s-14.375,6.062-14.375,13.536,6.435,13.538,14.375,13.538S3540.265,9640.851,3540.265,9633.375Z" fill="#fff"/>
        </g>
        <g id="Grupo_1049" data-name="Grupo 1049">
          <path id="Trazado_1278" data-name="Trazado 1278" d="M3527.453,9633.375a1.564,1.564,0,1,0-1.56,1.471A1.517,1.517,0,0,0,3527.453,9633.375Z" fill="#010616"/>
        </g>
        <g id="Grupo_1050" data-name="Grupo 1050">
          <path id="Trazado_1279" data-name="Trazado 1279" d="M3527.453,9628.167a1.564,1.564,0,1,0-1.56,1.472A1.517,1.517,0,0,0,3527.453,9628.167Z" fill="#010616"/>
        </g>
        <g id="Grupo_1051" data-name="Grupo 1051">
          <path id="Trazado_1280" data-name="Trazado 1280" d="M3527.453,9622.958a1.564,1.564,0,1,0-1.56,1.473A1.518,1.518,0,0,0,3527.453,9622.958Z" fill="#010616"/>
        </g>
        <g id="Grupo_1052" data-name="Grupo 1052">
          <path id="Trazado_1281" data-name="Trazado 1281" d="M3527.453,9643.792a1.564,1.564,0,1,0-1.56,1.471A1.518,1.518,0,0,0,3527.453,9643.792Z" fill="#010616"/>
        </g>
        <g id="Grupo_1053" data-name="Grupo 1053">
          <path id="Trazado_1282" data-name="Trazado 1282" d="M3519.175,9624.97a1.632,1.632,0,0,0-2.208,0,1.411,1.411,0,0,0,0,2.079,1.626,1.626,0,0,0,2.208,0A1.412,1.412,0,0,0,3519.175,9624.97Z" fill="#010616"/>
        </g>
        <g id="Grupo_1054" data-name="Grupo 1054">
          <ellipse id="Elipse_52" data-name="Elipse 52" cx="1.56" cy="1.471" rx="1.56" ry="1.471" transform="translate(3532.15 9639.271)" fill="#010616"/>
        </g>
        <g id="Grupo_1055" data-name="Grupo 1055">
          <path id="Trazado_1283" data-name="Trazado 1283" d="M3514.834,9631.906a1.472,1.472,0,1,0,1.56,1.469A1.516,1.516,0,0,0,3514.834,9631.906Z" fill="#010616"/>
        </g>
        <g id="Grupo_1056" data-name="Grupo 1056">
          <path id="Trazado_1284" data-name="Trazado 1284" d="M3536.949,9631.906a1.472,1.472,0,1,0,1.561,1.469A1.517,1.517,0,0,0,3536.949,9631.906Z" fill="#010616"/>
        </g>
        <g id="Grupo_1057" data-name="Grupo 1057">
          <path id="Trazado_1285" data-name="Trazado 1285" d="M3516.967,9639.7a1.412,1.412,0,0,0,0,2.08,1.63,1.63,0,0,0,2.208,0,1.413,1.413,0,0,0,0-2.08A1.63,1.63,0,0,0,3516.967,9639.7Z" fill="#010616"/>
        </g>
        <g id="Grupo_1058" data-name="Grupo 1058">
          <path id="Trazado_1286" data-name="Trazado 1286" d="M3532.608,9624.97a1.405,1.405,0,0,0,0,2.079,1.624,1.624,0,0,0,2.206,0,1.408,1.408,0,0,0,0-2.079A1.63,1.63,0,0,0,3532.608,9624.97Z" fill="#010616"/>
        </g>
        <g id="Grupo_1059" data-name="Grupo 1059">
          <path id="Trazado_1287" data-name="Trazado 1287" d="M3527.453,9638.584a1.564,1.564,0,1,0-1.56,1.47A1.518,1.518,0,0,0,3527.453,9638.584Z" fill="#010616"/>
        </g>
        <g id="Grupo_1060" data-name="Grupo 1060">
          <path id="Trazado_1288" data-name="Trazado 1288" d="M3523.086,9628.654a1.633,1.633,0,0,0-2.21,0,1.41,1.41,0,0,0,0,2.078,1.631,1.631,0,0,0,2.21,0A1.41,1.41,0,0,0,3523.086,9628.654Z" fill="#010616"/>
        </g>
        <g id="Grupo_1061" data-name="Grupo 1061">
          <path id="Trazado_1289" data-name="Trazado 1289" d="M3530.907,9636.018a1.637,1.637,0,0,0-2.212,0,1.416,1.416,0,0,0,0,2.081,1.637,1.637,0,0,0,2.212,0A1.42,1.42,0,0,0,3530.907,9636.018Z" fill="#010616"/>
        </g>
        <g id="Grupo_1062" data-name="Grupo 1062">
          <path id="Trazado_1290" data-name="Trazado 1290" d="M3520.362,9631.906a1.472,1.472,0,1,0,1.561,1.469A1.517,1.517,0,0,0,3520.362,9631.906Z" fill="#010616"/>
        </g>
        <g id="Grupo_1063" data-name="Grupo 1063">
          <path id="Trazado_1291" data-name="Trazado 1291" d="M3531.419,9631.906a1.473,1.473,0,1,0,1.563,1.469A1.516,1.516,0,0,0,3531.419,9631.906Z" fill="#010616"/>
        </g>
        <g id="Grupo_1064" data-name="Grupo 1064">
          <ellipse id="Elipse_53" data-name="Elipse 53" cx="1.562" cy="1.471" rx="1.562" ry="1.471" transform="translate(3520.419 9635.587)" fill="#010616"/>
        </g>
        <g id="Grupo_1065" data-name="Grupo 1065">
          <path id="Trazado_1292" data-name="Trazado 1292" d="M3528.7,9628.654a1.413,1.413,0,0,0,0,2.078,1.633,1.633,0,0,0,2.212,0,1.417,1.417,0,0,0,0-2.078A1.635,1.635,0,0,0,3528.7,9628.654Z" fill="#010616"/>
        </g>
      </g>
    </g>
  </g>
</svg>
