<svg xmlns="http://www.w3.org/2000/svg" width="142.37" height="49.869" viewBox="0 0 142.37 49.869">
  <g id="Grupo_2824" data-name="Grupo 2824" transform="translate(-1904.988 -6633.602)">
    <path id="Trazado_2625" data-name="Trazado 2625" d="M2047.358,6680.739a2.528,2.528,0,0,1-2.253,2.732H1907.242a2.528,2.528,0,0,1-2.254-2.732h0a2.527,2.527,0,0,1,2.254-2.731H2045.1a2.527,2.527,0,0,1,2.253,2.731Z" fill="#131313" opacity="0.1"/>
    <g id="Grupo_2818" data-name="Grupo 2818">
      <path id="Trazado_2626" data-name="Trazado 2626" d="M1912.5,6676.392c.077-.573.745-.561,1.126-.441.67.21,1.845.382,3.128.61.277.113.542.151.823.251a5.911,5.911,0,0,1,.775.321c.2.244.324.443.543.763a15.829,15.829,0,0,1-5.035-.561C1913.47,6677.178,1912.434,6676.9,1912.5,6676.392Z" fill="#ffc990"/>
      <path id="Trazado_2627" data-name="Trazado 2627" d="M1908.146,6680.064v.007a.435.435,0,0,0,.382.432.428.428,0,0,0,.072,0l6.3-.018h5.836v-.007l-.13-1.862-.1-1.454c0,.043-.1.054-.267.043a11.779,11.779,0,0,1-1.184-.191c-1.214-.238-2.859-.616-3.569-.695a1.3,1.3,0,0,0-.169-.011,1.448,1.448,0,0,0-.522.1l-1.163.454-.49.191-1.584.615a1.524,1.524,0,0,0-.3.159l-1.851,1.188-1.055.677A.436.436,0,0,0,1908.146,6680.064Z" fill="#e8b783"/>
      <path id="Trazado_2628" data-name="Trazado 2628" d="M1920.219,6677.047l.018.162.152,1.4.2,1.866v.014l0,.018h18.7a20.028,20.028,0,0,0,3.684.083H1943c.126-.011.255-.025.389-.043a.277.277,0,0,0,.136-.058c.238-.162.357-.673.36-1.343.029-2.013-.911-5.487-2.408-5.5h-.008c-.082.007-.14.014-.176.018a.15.15,0,0,0-.036,0l-12.091,1.941-1.289.209-.7.112-2.319.37Z" fill="#e8b783"/>
    </g>
    <path id="Trazado_2629" data-name="Trazado 2629" d="M1940.7,6670.617c-2.175-.194-4.354-.426-6.545-.751-.417-.059-.831-.126-1.248-.193l-.042-.763-.038-.784-.046-.8-.337-6.381c-.005-.063-.005-.126-.005-.189a3.874,3.874,0,0,1,.831-2.386,3.819,3.819,0,0,1,.349-.383,3.54,3.54,0,0,1,.384-.325,3.8,3.8,0,0,1,1.007-.531,3.84,3.84,0,0,1,1.062-.21l.08,0a3.84,3.84,0,0,1,4.025,3.625l.013.215.055,1.091.063,1.193,0,.118.009.1.033.67.114,2.179.017.324.055,1.067.033.623Z" fill="#cc4418"/>
    <g id="Grupo_2819" data-name="Grupo 2819">
      <path id="Trazado_2630" data-name="Trazado 2630" d="M1985.238,6668l-1.455,4.935.533,1.107a3.1,3.1,0,0,1,.888-.025c.1.011.191.022.286.042a7.926,7.926,0,0,1,2.505,1.122,20.935,20.935,0,0,1,2.308,2.384c.193.189.382.379.551.558,1.02,1.061,1.789,1.98,2.6,2.226.663.335,1.434-.145,2.467-.531a.37.37,0,0,0,.277-.354,13.429,13.429,0,0,0-1.653-5.942l-.884-1.532-1.048-1.811-1.219-2.1c-.037-.063-.07-.125-.107-.183l-.376-.746-.111-.207-.784-1.506a4.49,4.49,0,0,0-.57-.84l-.77-.886a.331.331,0,0,0-.237-.118,12.347,12.347,0,0,0-2.164,1.31c-1.028.7-2.075,1.453-2.279,1.656l-.029.028c-.116.1-.391.562-.847,1.043-.31.329,2.817.032,2.336.278A2.1,2.1,0,0,1,1985.238,6668Z" fill="#61483e"/>
      <path id="Trazado_2631" data-name="Trazado 2631" d="M1975.476,6650.712c.005.177.005.358-.008.548v0c0,.232-.021.468-.042.716v0c-.025.308-.068.616-.114.944q-.215,1.05-.455,2.087-.3,1.3-.628,2.566c-.586,2.263-1.235,4.459-1.888,6.512-.139.438-.278.864-.421,1.285-.186.565-.371,1.117-.553,1.648-.134.388-.265.767-.4,1.138-.156.438-.307.864-.459,1.277v0c-.11.3-.219.6-.329.889-.809,2.175-1.513,3.916-1.976,5.016-.317.762-.519,1.217-.557,1.3-.063.207-.13.4-.206.6-.106.269-.22.527-.342.767-.071.13-.143.261-.219.383a.032.032,0,0,1-.008.017,4.94,4.94,0,0,1-.717.94,3.742,3.742,0,0,1-1.462.978,3.526,3.526,0,0,1-1.256.219,5.007,5.007,0,0,1-1.61-.287,5.346,5.346,0,0,1-1.652-.843,5.444,5.444,0,0,1-.78-.712c-.033-.038-.063-.076-.092-.114a4.152,4.152,0,0,1-.435-.581,3.152,3.152,0,0,1-.177-.295.08.08,0,0,0-.012-.021.138.138,0,0,0-.017-.026,6.352,6.352,0,0,1-.346-.758,5.579,5.579,0,0,1-.3-2.419,5,5,0,0,1,.106-.7c.029-.147.067-.29.109-.434.114-.653.223-1.264.32-1.837.295-1.678.527-3.014.725-4.152.375-2.132.62-3.561.9-5.183.282-1.648.6-3.5,1.134-6.486.016-.106.038-.211.054-.316.123-.662.245-1.383.388-2.162.03-.186.063-.38.1-.578.118-.657.241-1.357.371-2.111h0q.152-.873.329-1.842s5.281-2.959,9.087-2.63h0a4.459,4.459,0,0,1,2.115.687,3.411,3.411,0,0,1,1.168,1.37c.046.093.088.189.126.286a4.458,4.458,0,0,1,.194.578c.013.046.025.093.038.143A7.576,7.576,0,0,1,1975.476,6650.712Z" fill="#3c3c3b"/>
      <path id="Trazado_2632" data-name="Trazado 2632" d="M1959.165,6678.1a.276.276,0,0,1,.033.043c.1.117.4.47.719.79.038.034.071.068.108.1a4,4,0,0,0,.4.345,5.485,5.485,0,0,0,3.891,1.018c13.661-2.411,17.389-2.035,21.019-2.7l.243-2.847.14-1.66-.1-7.837s-8.01,1.335-15.762,3.057v0c-4.719,1.046-8.686,2.2-9.781,3.238-.029.028-.214,1.234-.411,2.592C1959.4,6676.015,1959.133,6678.05,1959.165,6678.1Z" fill="#3c3c3b"/>
      <path id="Trazado_2633" data-name="Trazado 2633" d="M1992.786,6668l-1.454,4.935.533,1.107a3.1,3.1,0,0,1,.888-.025c.1.011.191.022.286.042a7.925,7.925,0,0,1,2.505,1.122,20.934,20.934,0,0,1,2.308,2.384c.193.189.382.379.551.558,1.02,1.061,1.789,1.98,2.6,2.226.663.335,1.434-.145,2.467-.531a.37.37,0,0,0,.277-.354,13.442,13.442,0,0,0-1.653-5.942l-.884-1.532-1.048-1.811-1.219-2.1c-.037-.063-.07-.125-.107-.183l-.376-.746-.111-.207-.785-1.506a4.386,4.386,0,0,0-.57-.84l-.769-.886a.333.333,0,0,0-.237-.118,12.305,12.305,0,0,0-2.164,1.31c-1.028.7-2.076,1.453-2.279,1.656l-.029.028c-.116.1-.391.562-.847,1.043-.31.329,2.817.032,2.336.278A2.021,2.021,0,0,1,1992.786,6668Z" fill="#61483e"/>
      <path id="Trazado_2634" data-name="Trazado 2634" d="M1979.944,6651.42c-.055.708-.11,1.42-.181,2.124q-.127,1.328-.291,2.63c-.418,3.359-.986,6.6-1.568,9.457-.08.4-.16.788-.244,1.167-.114.557-.232,1.1-.346,1.614v0c-.358,1.6-.7,3.026-1,4.18-.5,1.964-.86,3.187-.906,3.33-.03.19-.068.379-.114.56,0,.017-.008.038-.013.055a6.976,6.976,0,0,1-.522,1.467,5.071,5.071,0,0,1-.527.864,2.849,2.849,0,0,1-.2.24,3.618,3.618,0,0,1-.481.464,3.574,3.574,0,0,1-1.631.733,3.959,3.959,0,0,1-.489.055,5.051,5.051,0,0,1-1.323-.106,5.366,5.366,0,0,1-1.639-.56,4.674,4.674,0,0,1-.62-.388c-.122-.088-.24-.181-.354-.278-.038-.034-.072-.068-.11-.1a5.332,5.332,0,0,1-.505-.523c-.072-.088-.144-.177-.211-.27l-.034-.042c-.021-.029-.042-.059-.059-.088a5.478,5.478,0,0,1-.383-.62,5.611,5.611,0,0,1-.611-2.461,5.476,5.476,0,0,1,.071-1.045c.03-.666.059-1.286.08-1.863.043-.982.08-1.854.114-2.634.03-.636.055-1.214.08-1.749.085-2.027.139-3.426.207-4.982.071-1.753.156-3.712.3-7,.034-.674.063-1.4.106-2.195,0-.135.012-.279.021-.422,0-.055,0-.11.008-.164.034-.793.072-1.652.118-2.584.021-.459.042-.931.063-1.424a26.792,26.792,0,0,1,4.9-2.8c2.04-.868,4.315-1.4,5.963-.573a3.348,3.348,0,0,1,1.231,1.054c.033.05.072.1.1.156.055.08.1.16.152.244v0a3.586,3.586,0,0,1,.2.388,3.347,3.347,0,0,1,.135.316,7.67,7.67,0,0,1,.388,1.547,11.016,11.016,0,0,1,.113,1.264v0C1979.948,6650.775,1979.948,6651.083,1979.944,6651.42Z" fill="#575756"/>
      <path id="Trazado_2635" data-name="Trazado 2635" d="M1966.63,6678.1a.267.267,0,0,1,.033.043c.1.117.4.47.719.79.037.034.07.068.108.1a3.887,3.887,0,0,0,.4.345,5.484,5.484,0,0,0,3.891,1.018c13.66-2.411,19.3-2.479,22.928-3.141l-1.543-11.9s-8.094,1.335-15.847,3.057v0c-4.719,1.046-8.686,2.2-9.781,3.238-.029.028-.214,1.234-.411,2.592C1966.867,6676.015,1966.6,6678.05,1966.63,6678.1Z" fill="#575756"/>
    </g>
    <g id="Grupo_2823" data-name="Grupo 2823">
      <path id="Trazado_2636" data-name="Trazado 2636" d="M2044.741,6680.287l-2.316.285c-.648.075-1.249.133-1.8.169a19.794,19.794,0,0,1-2.841.011c-.954-.076-1.469-.242-1.538-.393a6.1,6.1,0,0,1-.432-1.534,11.126,11.126,0,0,1,1.505-7.6c.073-.1.141-.209.209-.317,1.444-2.326,2.063-5.8,2.715-6.726.979-1.393,3.432-1.134,3.432-1.134l.035.508.778,11-1.119,2.156,1.213.425.029.6Z" fill="#2e2e2d"/>
      <path id="Trazado_2637" data-name="Trazado 2637" d="M1986.566,6678.412c-4.11,3.3-11.311,2.88-14.852.06-.778-4.875-.983-9.373,0-13.086,5.557-.266,13.413,1.267,17.583,1.919Z" fill="#006080"/>
      <path id="Trazado_2638" data-name="Trazado 2638" d="M2045.828,6674.991l-1.321,2.041,1.166.54-.147,3.147-2.334.058c-.968.021-1.825.007-2.563-.036a14.729,14.729,0,0,1-2.679-.357c-.551-.14-.843-.291-.886-.41a5.56,5.56,0,0,1-.252-1.242,11.162,11.162,0,0,1,2.2-7.745c1.811-2.15,2.816-5.826,3.59-6.726a2.39,2.39,0,0,1,1.112-.7,5.517,5.517,0,0,1,2.413-.1Z" fill="#3c3c3b"/>
      <g id="Grupo_2821" data-name="Grupo 2821">
        <path id="Trazado_2639" data-name="Trazado 2639" d="M1934.156,6668.734v9.3l-3.893.123h0l-.793.027-3.266.1-.016-.631v-.126l-.055-2.5,0-.173-.032-1.444-.079-3.562,2.355-.324,2.355-.327,1.42-.2Z" fill="#f0b87d"/>
        <g id="Grupo_2820" data-name="Grupo 2820">
          <path id="Trazado_2640" data-name="Trazado 2640" d="M1930.723,6669.209h0a.776.776,0,0,1-.03.139c.005.009.005.009,0,.009a6.245,6.245,0,0,1-4.231,4.433c-.071.017-.143.034-.219.051a.7.7,0,0,1,.017.088.032.032,0,0,0,0,.021,2.641,2.641,0,0,0,.169.5c.063.135.13.274.2.413h0c.194.366.417.729.582,1.058.219.438.328.821.118,1.062l0,0a.669.669,0,0,1-.274.177,4,4,0,0,0-.873.493v0c-.152.106-.3.219-.459.346a12.45,12.45,0,0,1-3.094,2.124,15.188,15.188,0,0,1-1.9.324l-.139.013c-.063.008-.122.013-.181.017a8.751,8.751,0,0,1-1.45,0,5.029,5.029,0,0,1-3.806-1.918h0a5.227,5.227,0,0,1-.379-.56c-.1-.16-.186-.325-.266-.489a7.826,7.826,0,0,1-.366-.856c-.081-.21-.148-.421-.211-.628-.19-.6-.329-1.192-.468-1.711a6.7,6.7,0,0,1,1.184-5.672,6.953,6.953,0,0,1,.8-.86v0h0a8.46,8.46,0,0,1,2.179-1.416,11.937,11.937,0,0,1,1.454-.548,9.6,9.6,0,0,1,1,.126l.35-.278,1.551-1.243a.837.837,0,0,1,1.235.295l.387.666c.506-.123,3.283-1.062,3.283-1.062a4.1,4.1,0,0,1,2.2.088,1.972,1.972,0,0,1,1.374,1.416l.316,1.383.059.257A4.719,4.719,0,0,1,1930.723,6669.209Z" fill="#f0b87d"/>
          <path id="Trazado_2641" data-name="Trazado 2641" d="M1929.467,6678.19c-.147.969-1.02,1.559-2.191,1.926-.2.063-.409.118-.628.169-.4.092-.835.168-1.273.223-1.838.24-3.835.2-4.918.244-.16,0-.321.013-.476.017-.114,0-.224.009-.338.009a13.732,13.732,0,0,1-3.561-.291,4.274,4.274,0,0,1-3.026-2.466l0-.012a8.1,8.1,0,0,1-.337-.788c-.215-.574-.409-1.223-.607-1.96-.83-3.127-.346-5.787.788-7,.046-.051.093-.1.143-.144a2.017,2.017,0,0,1,2.415-.329v.009c.021.333.042.645.068.935l.012.14c.594,6.178,3.2,4.294,9.352,2.954a15.059,15.059,0,0,1,.489,1.559.2.2,0,0,1-.038.055c-.442.577-1.8,2.036-1.888,2.124a8.468,8.468,0,0,1,2.676-.695.989.989,0,0,1,.114,0h0a2.288,2.288,0,0,1,.388,0h0a2.817,2.817,0,0,1,1.749.615l0,0a2.837,2.837,0,0,1,.228.215,2.029,2.029,0,0,1,.2.241,2.731,2.731,0,0,1,.316.585,4.676,4.676,0,0,1,.325,1.484C1929.459,6678.068,1929.463,6678.127,1929.467,6678.19Z" fill="#3c3c3b"/>
          <path id="Trazado_2642" data-name="Trazado 2642" d="M1924.414,6676.307c1.18-.32,2.274-1.685,2.065-2.457s-1.143-.428-2.327-.12c-.783.2-1.947.306-1.965,1.22C1922.172,6675.749,1922.682,6676.775,1924.414,6676.307Z" fill="#f0b87d"/>
        </g>
        <path id="Trazado_2643" data-name="Trazado 2643" d="M1930.723,6669.209h0a.776.776,0,0,1-.03.139c.005.009.005.009,0,.009a5.384,5.384,0,0,1-2.022,1.416,16.907,16.907,0,0,1-2.466.754,4.014,4.014,0,0,0,1.779-1.391,5.2,5.2,0,0,0,.391-.6,8.19,8.19,0,0,0,.62-1.438,9.222,9.222,0,0,0,.257-.948,5.554,5.554,0,0,0,.131-1.29,4.034,4.034,0,0,0-.287-1.441,1.972,1.972,0,0,1,1.374,1.416l.316,1.383.059.257A4.719,4.719,0,0,1,1930.723,6669.209Z" fill="#050504" opacity="0.1"/>
      </g>
      <path id="Trazado_2644" data-name="Trazado 2644" d="M1974.916,6667.342c0,.539-.03,1.087-.08,1.652a35.53,35.53,0,0,1-1.492,7.181q-.272.911-.59,1.834-.165.48-.337.961v0l-.051.139c-.008.021-.012.042-.021.063-.139.379-.282.759-.43,1.134l-.025.063c-.038.1-.076.2-.118.3h-.451c-1.231,0-4.151,0-7.881.021-1.614.008-3.38.016-5.226.029-.4,0-.809,0-1.222,0h0c-1.918.017-3.907.03-5.884.047l-2.132.012c-5.871.047-9.567.485-12.783-.282a11.663,11.663,0,0,1-2.891-1.1l0,0a12.369,12.369,0,0,1-1.066-.636l-.274-.081-1.69-.531h0l.037-.151c.11-.451.215-.9.312-1.362l.156-.758v0c.038-.182.072-.367.106-.548.029-.143.054-.287.08-.43l0,0c.341-1.825.619-3.574.957-5,.075-.307.151-.611.231-.885v0c.03-.1.055-.186.085-.278a2.037,2.037,0,0,1,.6-.607,10.416,10.416,0,0,1,1.113-.7l.025-.025c.067-.063.278-.257.624-.527a18.168,18.168,0,0,1,4.72-2.583c.333-.127.679-.249,1.045-.363q.625-.2,1.315-.379c.649-.165,1.34-.308,2.069-.422.527-.08,1.079-.147,1.648-.2l.152-.012c.156-.017.316-.03.476-.038.2-.013.409-.021.615-.03q1.1-.044,2.3.009c.134,0,.269.008.4.016a50.591,50.591,0,0,1,10.844-.682,56.317,56.317,0,0,1,5.951.467c.632.085,1.251.182,1.862.3a26.436,26.436,0,0,1,4.35,1.142,14.507,14.507,0,0,1,2.09.952c.131.072.253.148.375.223.005.043.013.085.017.131A15.38,15.38,0,0,1,1974.916,6667.342Z" fill="#e69f56"/>
      <path id="Trazado_2645" data-name="Trazado 2645" d="M1959.262,6673.914l-.846,5.5-.2,1.314-.017.116-.667-.008h-.01l-6.417-.057-10.679-.1c-3.291-.58-4.54-2.186-5-3.529a4.532,4.532,0,0,1-.209-2.066c.739-3.457,4.879-3.641,7.169-3.234,4.1.724,14.982,1.869,16.657,2.046h.007c.083.007.14.014.176.017A.113.113,0,0,1,1959.262,6673.914Z" fill="#e69f56"/>
      <path id="Trazado_2646" data-name="Trazado 2646" d="M2009.581,6667.609l-.746,9.578-.273,3.532c-.263,0-.519.011-.778.015-5.664.118-10.442.381-15.8.014a71.585,71.585,0,0,1-7.781-.961q-1.2-.212-2.47-.476l-.036-.263-.237-1.785-1.289-9.654c2.675-.28,5.156-.464,7.467-.576C1997.169,6666.58,2003.827,6667.357,2009.581,6667.609Z" fill="#006080"/>
      <path id="Trazado_2647" data-name="Trazado 2647" d="M2039.012,6670.987l-.86,7.608-.2,1.789-.043.368h-.119c-14.64.108-20.552.219-30.008,0l0-.018.483-3.522,1.314-9.6a225.547,225.547,0,0,0,27.951,3.3Z" fill="#006080"/>
      <path id="Trazado_2648" data-name="Trazado 2648" d="M1975.663,6676.546c-.173.961-.346,1.829-.5,2.524-.094.407-.184.756-.266,1.026-.126.418-.238.656-.321.656H1971.3c.007-.026.018-.051.025-.076.176-.486.338-.979.489-1.483.058-.177.112-.353.159-.53.252-.846.471-1.714.673-2.6.778-3.385,1.26-7.014,1.746-10.683l.044-.335,2.484.183c.054.008.09.119.108.321A76.384,76.384,0,0,1,1975.663,6676.546Z" fill="#cc8d4c"/>
      <g id="Grupo_2822" data-name="Grupo 2822">
        <path id="Trazado_2649" data-name="Trazado 2649" d="M1988.013,6676.637c-.077-.573-.745-.561-1.126-.441-.67.21-1.845.381-3.127.609-.278.113-.542.152-.823.252a5.8,5.8,0,0,0-.776.321c-.2.243-.323.442-.543.763a15.846,15.846,0,0,0,5.035-.562C1987.046,6677.422,1988.082,6677.148,1988.013,6676.637Z" fill="#ffc990"/>
        <path id="Trazado_2650" data-name="Trazado 2650" d="M1992.37,6680.309v.007a.436.436,0,0,1-.382.432.421.421,0,0,1-.072,0l-6.3-.018h-5.837v-.008l.13-1.861.1-1.455c0,.043.1.054.266.043a11.918,11.918,0,0,0,1.185-.19c1.213-.238,2.858-.616,3.568-.7a1.218,1.218,0,0,1,.169-.011,1.438,1.438,0,0,1,.522.1l1.163.453.49.191,1.584.616a1.52,1.52,0,0,1,.3.158l1.851,1.189,1.055.676A.438.438,0,0,1,1992.37,6680.309Z" fill="#ffc990"/>
        <path id="Trazado_2651" data-name="Trazado 2651" d="M1980.3,6677.291l-.018.162-.151,1.4-.205,1.865v.015l0,.018h-18.7a20.061,20.061,0,0,1-3.684.082h-.01c-.126-.01-.256-.025-.389-.043a.271.271,0,0,1-.137-.057c-.238-.162-.357-.674-.36-1.343-.029-2.013.911-5.488,2.409-5.5h.007c.083.007.14.014.176.017a.113.113,0,0,1,.036,0l12.091,1.941,1.289.209.7.111,2.319.371Z" fill="#ffc990"/>
      </g>
    </g>
    <path id="Trazado_2652" data-name="Trazado 2652" d="M2045.673,6677.574l-.146,3.143-2.335.06c-.97.023-1.826.007-2.563-.036a20.1,20.1,0,0,1-2.84.012c-14.642.106-20.554.217-30.009,0l0-.02c-5.664.119-10.44.383-15.8.016a.4.4,0,0,1-.071,0l-6.3-.02h-5.695l0,.02h-18.7a20.249,20.249,0,0,1-3.684.083h-.012l-6.414-.059c-.713,0-1.427.007-2.133.015-7.684.06-11.636.789-15.671-1.38l0,0a12.15,12.15,0,0,1-1.069-.635l-.272-.083-1.692-.528h0l-.793.027c-.146.97-1.018,1.562-2.189,1.925-.2.067-.41.118-.627.169a34.381,34.381,0,0,1-6.193.47c-.161,0-.319.012-.477.016-.114,0-.225.008-.335.008-3.941.082-5.558-.671-6.587-2.754.7.217,1.4.4,2.094.545h0a15.32,15.32,0,0,0,8.145-.276,11.886,11.886,0,0,0,2.883-.758,9.908,9.908,0,0,0,1.148-.544l0,0a4.685,4.685,0,0,0,3.617-2.083c.02.8,4.063,2.316,4.473,2.245,6.027,1.5,13.233,2.11,21.208,2.244.592.008,1.184.016,1.783.02,4.276.031,8.765-.059,13.4-.221.174,0,.351-.008.533-.016.126,0,.252-.008.382-.016.809-.027,1.617-.055,2.434-.09q2.355-.094,4.749-.205c.075,0,.146,0,.217-.008.52.075,1.045.138,1.573.193,1.144.126,2.312.209,3.515.256h0c1.877.071,3.83.056,5.893-.039a152.2,152.2,0,0,0,17.153-2.055c.127-.02.257-.044.387-.063.059.016.122.027.185.039a82.835,82.835,0,0,0,26.979,1.637c.332-.028.663-.055.994-.091.446-.039.892-.086,1.341-.138,2.087-.228,4.233-.516,6.465-.856Z" fill="#1d1d1b" opacity="0.1"/>
    <path id="Trazado_2653" data-name="Trazado 2653" d="M1946.06,6649.131l-.274.2-.152.11-10.625,7.691-.906.658a1.119,1.119,0,0,0-.1-.127,7.138,7.138,0,0,0-.775-.784c-.506-.45-1.02-.863-1.02-.863l-.885.164-1.661.312-1.024.189c-.089-.429-.169-.813-.24-1.159-.476-2.309-.573-2.764-.586-2.857s-.131-.691-.729-4.033l1.028-.207,2.091-.413s.139-.371.316-.859h0c.27-.755.636-1.8.712-2.171l13.92,3.9.54.152Z" fill="#e8b783"/>
    <path id="Trazado_2654" data-name="Trazado 2654" d="M1979.1,6646.944v0l-3.848,2.036-.333.177a32.048,32.048,0,0,1-8.361,3.877,13.891,13.891,0,0,0-5.247,2.664,36.278,36.278,0,0,1-9.045,4.627c-.016,0-1.095.367-2.667.843-1.446.434-3.309.961-5.146,1.378l-.034.013h-.008c-.207.046-.409.088-.616.13a29.063,29.063,0,0,1-3.089.523c-.13.017-.261.025-.387.038-.106.008-.207.017-.3.021h0c-.148.008-.287.013-.422.017-2.153.417-5.672,1.3-6.776-1.475-.131-.329-.258-.687-.376-1.062a43.77,43.77,0,0,1-1.116-4.577,3.853,3.853,0,0,0,1.774-1.264c1.934-2.42,1.247-7-2.575-7.763h-.009s1.054-5.648,1.6-7.886a6.629,6.629,0,0,1,1.294-2.773,4.6,4.6,0,0,1,2.781-1.58.069.069,0,0,1,.03,0l.973-.152s0,0,.009,0a.008.008,0,0,1,.012,0c22.847-3.465,39.11,1,41.778,11.7C1979.029,6646.615,1979.067,6646.78,1979.1,6646.944Z" fill="#e94e1b"/>
    <path id="Trazado_2655" data-name="Trazado 2655" d="M1930.782,6654.842a4.264,4.264,0,0,1-.674,1.121c-.131.168-.278.341-.447.527-.346.387-.771.822-1.281,1.336a9.566,9.566,0,0,1-2.992,1.808.46.46,0,0,1,.054.1.706.706,0,0,1,.03.388c-.1.573-.809.94-1.758,1.285-1.167.426-2.263.523-2.5-.126a.541.541,0,0,1-.038-.2.238.238,0,0,1,0-.076.339.339,0,0,1,.009-.114l-3.039.586a4.619,4.619,0,0,1-5.23-2.988,4.51,4.51,0,0,1-.186-.675l-.838-4.332a4.626,4.626,0,0,1,3.666-5.415l3.039-.586a.719.719,0,0,1-.114-.375c-.021-.687,1.033-1.008,2.276-1.046,1.007-.029,1.8.047,2.107.54a.7.7,0,0,1,.118.371.948.948,0,0,1-.013.118,9.567,9.567,0,0,1,3.452.564c.666.291,1.222.536,1.69.763.224.11.422.215.607.321,1.3.746,1.724,1.487,2.078,3.312,0,.009,0,.017,0,.025v0l0,.008a.055.055,0,0,0,0,.025A4.786,4.786,0,0,1,1930.782,6654.842Z" fill="#ffc990"/>
    <path id="Trazado_2656" data-name="Trazado 2656" d="M1921.182,6660.9a.269.269,0,0,0-.009.114.19.19,0,0,0,.013.072l-.013,0c-.093.021-.632.151-1.943.607-1.441.5-2.9,1.1-4.749.219a7.861,7.861,0,0,1-3.831-4.109h-.005a8.2,8.2,0,0,1,1.45-8.83c1.412-1.487,2.993-1.441,4.514-1.491a16.234,16.234,0,0,1,1.985,0c0,.24.383.476,1.21.6l.117.607c-5.971.051-5.719,1.6-5.107,2.9.088.189.168.371.244.539a14.093,14.093,0,0,1,.839,2.47c.029.109.054.223.084.341.042.316.076.6.1.868a12.638,12.638,0,0,1,.059,1.585c0,.169-.008.346-.021.527s-.021.367-.034.565a4.172,4.172,0,0,0-.008.5,1.5,1.5,0,0,0,.3.932c.544.649,1.985.783,5.6-.574l.122.624C1921.515,6660.325,1921.236,6660.658,1921.182,6660.9Z" fill="#61483e"/>
    <path id="Trazado_2657" data-name="Trazado 2657" d="M1912.876,6656.384a2.361,2.361,0,0,0,.584,2.5,3.867,3.867,0,0,0,2.466,1.022,11.307,11.307,0,0,0,2.71-.227,6.506,6.506,0,0,1-2.506-2.3,9.242,9.242,0,0,0-.831-1.28,1.611,1.611,0,0,0-1.336-.613A1.446,1.446,0,0,0,1912.876,6656.384Z" fill="#61483e"/>
    <path id="Trazado_2658" data-name="Trazado 2658" d="M1912.451,6655.031a4.336,4.336,0,0,0,2.387,2.421c1.043.522,2.539.7,3.491,1.37a16.192,16.192,0,0,0-3.607-5.525,1.893,1.893,0,0,0-1.556-.7,1.434,1.434,0,0,0-1.022,1.5,3.909,3.909,0,0,0,.7,1.826Z" fill="#61483e"/>
    <path id="Trazado_2659" data-name="Trazado 2659" d="M1912.218,6652.784a3.574,3.574,0,0,0,1.691,2.041,19.7,19.7,0,0,0,2.474,1.12,5.565,5.565,0,0,1,2.218,1.522,7.926,7.926,0,0,0-2.857-4.807c-.7-.553-1.541-1.054-1.811-1.9a3.958,3.958,0,0,0-.176-.57.542.542,0,0,0-.457-.335c-.331,0-.486.4-.555.73q-.318,1.5-.637,3Z" fill="#61483e"/>
    <path id="Trazado_2660" data-name="Trazado 2660" d="M1930.466,6665.833l.316,1.383c-.514-.03-1.024-.051-1.534-.068a26.5,26.5,0,0,0-8.513.822,15.475,15.475,0,0,1-5.213.758c-.3-.012-.59-.037-.873-.075a8.82,8.82,0,0,1-1.753-.4c.046-.051.093-.1.143-.144a2.017,2.017,0,0,1,2.415-.329v0h0a8.46,8.46,0,0,1,2.179-1.416,11.937,11.937,0,0,1,1.454-.548,9.6,9.6,0,0,1,1,.126l.35-.278,1.551-1.243a.837.837,0,0,1,1.235.295l.387.666c.506-.123,3.283-1.062,3.283-1.062a4.1,4.1,0,0,1,2.2.088A1.972,1.972,0,0,1,1930.466,6665.833Z" fill="#1d1d1b" opacity="0.1"/>
    <path id="Trazado_2661" data-name="Trazado 2661" d="M1979.1,6646.948v0c-.034-.164-.072-.329-.114-.489-.046.03-.093.059-.143.089a21.119,21.119,0,0,1-3.785,1.862c-2.663,1.016-21.019,8.505-22.364-1.951-.019-.141-16.94-3.458-16.837-3.36,2.092,1.983,7.322,5.024,8.025,7.259-.038.008.516,10.536-7.171,10.182-1.471-.068-2.491-1.324-3.094-2.55a5.226,5.226,0,0,1-.391-1.109,5.636,5.636,0,0,1-.127-1.963h0a6.392,6.392,0,0,0-2.314-.072,10.356,10.356,0,0,0-2.385.678c-2.782,1.121-5.462,3.14-8.189,3.423a23.418,23.418,0,0,1-2.537.118c-.531,0-1.066-.026-1.593-.068a20.146,20.146,0,0,1-2.891-.434c-.093-.017-.182-.038-.274-.063a17.6,17.6,0,0,1-2.263-.691,7.861,7.861,0,0,0,3.831,4.109c1.85.885,3.308.278,4.749-.219,1.311-.456,1.85-.586,1.943-.607a.541.541,0,0,0,.038.2c.24.649,1.336.552,2.5.126.949-.345,1.661-.712,1.758-1.285a.706.706,0,0,0-.03-.388.46.46,0,0,0-.054-.1,9.566,9.566,0,0,0,2.992-1.808c.51-.514.935-.949,1.281-1.336l1.661-.312a43.77,43.77,0,0,0,1.116,4.577c0,.063,0,.126.005.189l.383,7.182c.4.025.746-.755,1.138-.729,2,.114,6.049-.419,7.89-.5.257-.013,7.371-.26,9.661-1.852,4.643-3.228,14.06,1.058,16.476-2.095.877-1.144.8-2.761,1.455-4.038,1.4-2.731,3.645-4.922,5.66-7.24.118-.135.24-.274.362-.409v0c1.151-1.26,2.546-2.567,3.831-3.924A3.586,3.586,0,0,0,1979.1,6646.948Zm-29.767,15.922c-.135-.008-.27-.012-.4-.016.227-.553.451-1.117.67-1.682,1.572-.476,2.651-.839,2.667-.843a36.278,36.278,0,0,0,9.045-4.627c-.531,2.988-.852,4.838-1.134,6.486A50.591,50.591,0,0,0,1949.334,6662.87Z" fill="#1d1d1b" opacity="0.1"/>
    <path id="Trazado_2662" data-name="Trazado 2662" d="M1950.75,6657.969c-.354,1.066-.742,2.141-1.15,3.2-.219.565-.443,1.129-.67,1.682-.139.328-.279.653-.413.977-.156.359-.317.713-.472,1.058l-1.29-.889,0,0-.076-.051-.063-.025-.831.13-2.221.354.072-.5.105-.776.059-.43.034-.236,0-.029.342-2.474,1.458-10.515.029-.194.03-.215.025-.185.068-.329c.362-1.909,6.566-2,6.566-2a2.171,2.171,0,0,1,.341.856C1953.119,6649.41,1952.2,6653.6,1950.75,6657.969Z" fill="#ffc990"/>
    <path id="Trazado_2663" data-name="Trazado 2663" d="M1939.746,6662.375c.085-.629.819-.616,1.238-.484.736.231,2.027.419,3.437.67.3.123.595.166.9.276a6.218,6.218,0,0,1,.852.353c.216.267.356.486.6.839a17.414,17.414,0,0,1-5.533-.618C1940.808,6663.238,1939.67,6662.937,1939.746,6662.375Z" fill="#ffc990"/>
    <path id="Trazado_2664" data-name="Trazado 2664" d="M1934.267,6666.411v.008a.48.48,0,0,0,.42.475.5.5,0,0,0,.079,0l6.988-.973,2.9.4c1.96,0,4.028-1.1,3.892-3.06l0-.037c0,.048-.107.06-.293.048a12.981,12.981,0,0,1-1.3-.21c-1.334-.261-3.142-.677-3.922-.764a1.473,1.473,0,0,0-.186-.012,1.6,1.6,0,0,0-.573.111l-1.278.5-.539.21-1.741.676a1.691,1.691,0,0,0-.332.174l-2.725,1.306-1.159.744A.479.479,0,0,0,1934.267,6666.411Z" fill="#ffc990"/>
    <path id="Trazado_2665" data-name="Trazado 2665" d="M1939.573,6644.785c2.211,1.638,4.513,3.339,6.909,5.045.191.136.382.272.58.409a3.508,3.508,0,0,0,4.869-.712.186.186,0,0,0,.04-.049l.041-.056a3.5,3.5,0,0,0,.362-3.544l-.007-.009c-.893-1.741-4.213-4.858-7.257-7.331A19.834,19.834,0,0,0,1939.573,6644.785Z" fill="#ffc990"/>
    <path id="Trazado_2666" data-name="Trazado 2666" d="M1933.483,6636.868l-.042.064a3.831,3.831,0,0,0,1.108,5.31c1.872,1.213,3.818,2.5,5.828,3.837a21.638,21.638,0,0,1,5.671-7.12,41.687,41.687,0,0,0-5.237-3.371C1937.174,6633.821,1934.642,6635.1,1933.483,6636.868Z" fill="#cc4418"/>
  </g>
</svg>
