<svg xmlns="http://www.w3.org/2000/svg" xmlns:xlink="http://www.w3.org/1999/xlink" width="124.516" height="158.553" viewBox="0 0 124.516 158.553">
  <defs>
    <clipPath id="clip-path">
      <rect id="Rectángulo_2849" data-name="Rectángulo 2849" width="124.516" height="158.553" transform="translate(1903.51 7729.456)" fill="none"/>
    </clipPath>
    <clipPath id="clip-path-2">
      <path id="Trazado_3510" data-name="Trazado 3510" d="M1958.645,7763.051l-.636,33.509s20.458,9.255,37.6.5l1.672-33.2S1986.673,7752.586,1958.645,7763.051Z" fill="none"/>
    </clipPath>
    <clipPath id="clip-path-3">
      <path id="Trazado_3523" data-name="Trazado 3523" d="M1999.569,7798.092a22.23,22.23,0,0,0,.259-3.378c-.077-1.249-.542-1.289-1.109-1.383-1.58-.264-8.209-1.266-8.209-1.266s-.7,5.338-.775,5.529c-.071.166-.587.283-.7.307-.021-.131-.041-.263-.066-.393l-.008-.077-.009,0a12.486,12.486,0,0,0-24.677,1.242c-.2-.036-.538-.114-.6-.242-.091-.185-1.127-5.468-1.127-5.468s-6.551,1.424-8.111,1.789c-.559.13-1.021.2-1.018,1.45a22.2,22.2,0,0,0,.475,3.355s-.819-.939.358,4.993c1.2,6.031,1.832,5.161,1.832,5.161a9.715,9.715,0,0,0,.41,1.861c.42,1.565,1.4.982,1.4.982l8.331-1.223-.757-5.392.278-.1a12.487,12.487,0,0,0,22.306-.747l.389.111-.411,5.43,8.392.687s1.012.519,1.331-1.07a9.682,9.682,0,0,0,.29-1.883s.69.828,1.5-5.267C2000.326,7797.1,1999.569,7798.092,1999.569,7798.092Z" fill="none"/>
    </clipPath>
    <clipPath id="clip-path-4">
      <path id="Trazado_3541" data-name="Trazado 3541" d="M2011.757,7818.106l.617-.778c-1.336.291-6.455-3.688-7.1-4.194s-5.675-4.6-5.7-5.965l-.617.778s.269.432-.3.376l-.662.834s.14.347-.275.346l-.852,1.073s-.464,1.568,5.373,6.232h0l.067.053.067.053h0c5.866,4.628,7.288,3.82,7.288,3.82l.851-1.073c-.119-.4.275-.346.275-.346l.663-.834C2011.275,7817.942,2011.757,7818.106,2011.757,7818.106Z" fill="none"/>
    </clipPath>
    <clipPath id="clip-path-5">
      <path id="Trazado_3559" data-name="Trazado 3559" d="M1967.114,7813.765l.015-1.125c-1,1.186-8.338,1.165-9.266,1.158s-8.268-.19-9.233-1.4l-.015,1.125s.541.2-.007.543l-.016,1.206s.366.214-.006.5l-.021,1.552s.669,1.726,9.13,1.864h.1l.1,0h0c8.461.085,9.175-1.624,9.175-1.624l.021-1.551a.272.272,0,0,1,.006-.5l.016-1.206C1966.569,7813.951,1967.114,7813.765,1967.114,7813.765Z" fill="none"/>
    </clipPath>
  </defs>
  <g id="Grupo_3235" data-name="Grupo 3235" transform="translate(-1903.51 -7729.456)">
    <g id="Grupo_3234" data-name="Grupo 3234" clip-path="url(#clip-path)">
      <g id="Grupo_3233" data-name="Grupo 3233">
        <g id="Grupo_3229" data-name="Grupo 3229">
          <g id="Grupo_3063" data-name="Grupo 3063">
            <path id="Trazado_3464" data-name="Trazado 3464" d="M1961.774,7908.991a60.925,60.925,0,0,0,5.68-7c1.443-2.449.106-4.777.938-5.5s12.7,2.949,20.893,2.231c6.26-.551,9.037-2.651,10.175-1.93a8.342,8.342,0,0,1,2.671,2.677c.858,1.261,1.358,2.127,1.358,2.127,1.377,9.73,2.5,20.388,2.27,30.257-.143,6,.54,35.432.878,43.491.363,8.644-2.165,12.3-.731,20.062,1.443,7.824.126,13.154-1.9,14.284-3.835,2.143-3.411,12.477-3.411,12.477l-18.406,1.128c-3.072-8.251-.724-7.48-1.132-11.744-.145-1.51-2.019-2.083-1.964-3.618.3-8.387,1.281-33.683.721-33.649s-1.493,27.021-3.638,36.5a7.72,7.72,0,0,1-1.981,3.086c-2.173,2.946-1.321,8.458-1.835,9.522s-7.317,2.416-11.8,1.26a20.007,20.007,0,0,0-6.81-.849s-.336-4.963-.927-9.431c-.228-1.716-1.611-.732-2.635-3.221s-1.29-8.98.951-14.278c1.611-3.808,1.206-14.865,1.611-18.891.776-7.744,2.538-15.939,2.79-19.238.386-5.018.586-21.179.675-24.122s-.235-7.617-.235-7.617l4.183-5.28-.628-3.774Z" fill="#e4cc31"/>
          </g>
          <g id="Grupo_3064" data-name="Grupo 3064">
            <path id="Trazado_3465" data-name="Trazado 3465" d="M2003.844,8008.722c-1.677,1.548-2.709.516-4.645,1.29a16.283,16.283,0,0,1-6.451.9c-1.806-.129-.774-1.161-.774-1.161s-2.708,1.806-5.418,1.032l-.754-.215c-1.209-2.836-3.18-7.644-3.18-8.862,0-1.757,2.2-1.9,2.2-1.9s-3.076-8.053-2.49-11.423.148-11.067.293-13.032c.293-3.955-.586-12.74-.586-12.74s-3.4,7.58-4.085,14.3c-.18,1.773-1.773,21-2.212,23.924s.147,8.346-.439,9.957c-.043.118-.094.246-.148.379a22.824,22.824,0,0,0-2.787.651c-1.42.517-2.58,1.291-5.031,2.194s-3.871.386-6.192-.645-2.581-2.322-2.581-2.322.258,1.935-2.452,1.806c-2.516-.12-5.808-2.465-6.266-2.8a7.371,7.371,0,0,0,.344,1.1c1.024,2.489,2.407,1.505,2.635,3.221.2,1.532.375,3.122.515,4.55,1.933.515,4.033,1.013,4.579,1.15a51.445,51.445,0,0,0,9.934-.516c.6-.224,2.877-.75,4.893-1.2a9.3,9.3,0,0,1,1.454-4.482c.159-.216.576-.614.993-1.149.272-.14.435-.357.508-.241a3.611,3.611,0,0,0,1.433-1.769c2.144-9.478,2.123-36.39,2.685-36.425s-.853,26.484-1.152,34.873c-.048,1.38,2.182,1.709,2.182,1.709l.121.26a1.855,1.855,0,0,1,.092.425,11.668,11.668,0,0,1-.371,3.935,40.108,40.108,0,0,0,6.127,1.487,53.478,53.478,0,0,0,9.8.645,11.613,11.613,0,0,0,4.192-.457c.343-2.96,3.085-7.061,3.085-7.061s2.358-1.062,2.182-4.659A7.878,7.878,0,0,1,2003.844,8008.722Z" fill="#d3bb2f"/>
            <path id="Trazado_3466" data-name="Trazado 3466" d="M1959.526,8020.442a9.454,9.454,0,0,1-1.679-.092c-.126-.032-.335-.083-.606-.149-.931-.226-2.489-.6-3.978-1l-.19-.05-.019-.2c-.162-1.665-.335-3.192-.513-4.539a1.2,1.2,0,0,0-.8-1.071,3.623,3.623,0,0,1-1.813-2.08,7.742,7.742,0,0,1-.357-1.144l-.18-.748.623.453c.369.269,3.679,2.628,6.113,2.743a2.277,2.277,0,0,0,1.831-.509,1.339,1.339,0,0,0,.326-.977l.559-.092c0,.009.285,1.171,2.418,2.119,2.232.991,3.61,1.51,5.979.637a32.726,32.726,0,0,0,3.165-1.369,20.1,20.1,0,0,1,1.867-.824,12.543,12.543,0,0,1,1.987-.492c.242-.046.472-.09.689-.137.032-.08.062-.157.089-.231a19.228,19.228,0,0,0,.254-4.749,36.541,36.541,0,0,1,.171-5.154c.318-2.113,1.242-12.795,1.794-19.176.213-2.464.367-4.245.417-4.735.682-6.685,4.074-14.308,4.108-14.384l.435-.971.106,1.058c.009.089.878,8.856.587,12.79-.049.662-.03,2.032-.008,3.619a65.012,65.012,0,0,1-.288,9.441c-.566,3.254,2.444,11.193,2.475,11.273l.136.357-.381.027c-.079,0-1.933.153-1.933,1.621,0,.846,1.13,3.988,3.1,8.626l.623.179c2.549.728,5.157-.978,5.184-1l.357.437c-.107.109-.242.323-.2.425.008.02.1.2.8.252a16.033,16.033,0,0,0,6.325-.883,5.584,5.584,0,0,1,2.133-.363,3.057,3.057,0,0,0,2.424-.871h0a7.586,7.586,0,0,0,2.158-3.158l.478-1.434.074,1.51c.167,3.416-1.836,4.663-2.27,4.893-.34.522-2.689,4.211-3,6.874l-.021.183-.177.055a11.881,11.881,0,0,1-4.276.47,53.958,53.958,0,0,1-9.847-.649,38.18,38.18,0,0,1-5.679-1.347l-.486-.149-.239-.071.041-.247c.044-.265.1-.518.151-.773a9.015,9.015,0,0,0,.217-3.087,1.535,1.535,0,0,0-.079-.362h0c-.015-.029-.031-.061-.048-.1-.546-.11-2.319-.575-2.27-1.973.082-2.315.247-5.943.437-10.143l.012-.265a89.644,89.644,0,0,1-1.422,12.034,3.558,3.558,0,0,1-1.392,1.809l-.383.325-.059-.094a2.1,2.1,0,0,1-.2.128c-.236.3-.466.55-.652.753-.13.142-.242.264-.3.343a8.865,8.865,0,0,0-1.4,4.344l-.022.2-.2.044c-1.953.44-4.271.974-4.855,1.194A52.627,52.627,0,0,1,1959.526,8020.442Zm-5.926-1.741c1.424.377,2.886.733,3.775.949l.61.15a53.543,53.543,0,0,0,9.766-.507c.594-.223,2.7-.712,4.733-1.171a9.182,9.182,0,0,1,1.484-4.417c.076-.1.192-.23.338-.39.19-.206.426-.464.661-.765l.038-.05.056-.029a1.69,1.69,0,0,0,.22-.142.659.659,0,0,1,.352-.163l.017-.014a3.056,3.056,0,0,0,1.2-1.5c1.37-6.057,1.853-19.275,2.172-28.022.314-8.595.358-8.6.772-8.624l.127-.008.107.1c.366.361.233,5.489-.648,24.939-.19,4.2-.354,7.826-.436,10.138-.039,1.11,1.92,1.416,1.94,1.419l.152.023.064.14.044.1h.023l.065.193a2.155,2.155,0,0,1,.106.489,9.5,9.5,0,0,1-.227,3.258c-.035.168-.071.334-.1.5l.248.076a36.882,36.882,0,0,0,5.6,1.329,52.822,52.822,0,0,0,9.76.643,11.679,11.679,0,0,0,3.935-.392c.431-2.972,2.995-6.834,3.106-7l.045-.068.074-.033a3.886,3.886,0,0,0,1.934-2.93,9.014,9.014,0,0,1-1.677,2.013h0a3.6,3.6,0,0,1-2.8,1.021,5.031,5.031,0,0,0-1.934.323,16.654,16.654,0,0,1-6.577.922c-.731-.052-1.153-.255-1.289-.62a.669.669,0,0,1-.04-.176,7.074,7.074,0,0,1-4.921.657l-.884-.253-.053-.124c-1.461-3.427-3.2-7.766-3.2-8.973a2.285,2.285,0,0,1,2.09-2.139c-.583-1.583-2.91-8.185-2.379-11.236a64.89,64.89,0,0,0,.28-9.336c-.023-1.666-.041-2.982.009-3.67a94.744,94.744,0,0,0-.481-11.568,53.087,53.087,0,0,0-3.625,13.175c-.049.486-.2,2.265-.416,4.727-.553,6.388-1.478,17.08-1.8,19.211a36.09,36.09,0,0,0-.164,5.064,18.74,18.74,0,0,1-.289,4.947c-.043.121-.1.253-.152.39l-.055.135-.142.034c-.27.063-.555.117-.856.174a11.945,11.945,0,0,0-1.9.468,19.74,19.74,0,0,0-1.815.8,33.329,33.329,0,0,1-3.215,1.391c-2.57.946-4.109.369-6.405-.652a5.666,5.666,0,0,1-2.323-1.7,1.725,1.725,0,0,1-.327.514,2.79,2.79,0,0,1-2.281.7c-2.04-.1-4.532-1.578-5.763-2.4.037.11.076.213.115.308a3.069,3.069,0,0,0,1.563,1.8,1.728,1.728,0,0,1,1.092,1.492C1953.275,8015.639,1953.442,8017.1,1953.6,8018.7Z" fill="#d3bb2f"/>
          </g>
          <g id="Grupo_3068" data-name="Grupo 3068">
            <g id="Grupo_3065" data-name="Grupo 3065">
              <path id="Trazado_3467" data-name="Trazado 3467" d="M1981.905,8043.927l.143,2.337,8.575,1.094.823-.932a37.92,37.92,0,0,0,12.191,2.632c6.466.194,12.991-1.083,15.705-2.275a8.847,8.847,0,0,0,3.788-2.873l-.418-2.028-.438.027s-4.3,4.077-12.4,3.543-17.141-2.038-21.415-2.363A13.2,13.2,0,0,0,1981.905,8043.927Z" fill="#e9d639"/>
            </g>
            <g id="Grupo_3066" data-name="Grupo 3066">
              <path id="Trazado_3468" data-name="Trazado 3468" d="M1980.27,8010.752c.927-.758,6.6,3.824,13.258,2.393s10.086-3.8,10.294-2.79c.124.6-1.1,7.805-1.358,14.343a27.408,27.408,0,0,0,1.212,8.654,31.5,31.5,0,0,0,10.467,2.744c5.3.264,7.877,4.067,8.131,5.813,0,0-.82,3.424-10.439,4.45a56.6,56.6,0,0,1-21.1-1.944c-3.433-.963-8.832-.488-8.832-.488s-2.313-4.261-.539-11.264C1982.448,8028.393,1979.34,8011.51,1980.27,8010.752Z" fill="#272729"/>
            </g>
            <g id="Grupo_3067" data-name="Grupo 3067">
              <path id="Trazado_3469" data-name="Trazado 3469" d="M1980.27,8010.752c-.93.758,2.178,17.641,1.1,21.911-1.774,7,.539,11.264.539,11.264s.708-.062,1.772-.1c-.057-.125-.109-.244-.154-.356-.815-2.036-1.568-4.044-.754-6.183s2.078-6.649,1.467-8.685c-.5-1.657-.388-12.668-.33-16.731C1981.994,8011.113,1980.676,8010.42,1980.27,8010.752Z" fill="#161a17"/>
            </g>
          </g>
          <g id="Grupo_3069" data-name="Grupo 3069">
            <path id="Trazado_3470" data-name="Trazado 3470" d="M1951.653,8013c.875-.679,6.731,3.311,13.535,2.948,7.623-.406,10.343-4.492,10.51-3.469.1.6-1.266,6.353-1.789,12.875a59.445,59.445,0,0,0,.112,9.225s1.58,2.936,6.505,4.9c6.567,2.627,9.23,9.269,6.142,12.345,0,0-2.871,3.062-15.672,2.628-9.669-.327-18.667-8.222-18.667-8.222a24.156,24.156,0,0,1,.5-12.388C1954.085,8029.628,1950.778,8013.686,1951.653,8013Z" fill="#272729"/>
          </g>
          <g id="Grupo_3070" data-name="Grupo 3070">
            <path id="Trazado_3471" data-name="Trazado 3471" d="M1952.749,8044.029c-.147-2.342,1.318-7.468,2.343-10.4.878-2.508-.286-16.082-.637-19.924-1.477-.568-2.478-.953-2.8-.7-.875.682,2.432,16.624,1.179,20.847a24.156,24.156,0,0,0-.5,12.388s.28.245.793.652C1952.942,8045.8,1952.8,8044.764,1952.749,8044.029Z" fill="#161a17"/>
          </g>
          <g id="Grupo_3071" data-name="Grupo 3071">
            <path id="Trazado_3472" data-name="Trazado 3472" d="M1970.376,8051.863c-9.651-.756-16.924-6.945-18.486-8.378a23.3,23.3,0,0,0,.439,2.754s9,7.9,18.667,8.222c12.8.434,15.672-2.628,15.672-2.628a4.372,4.372,0,0,0,1.241-2.628C1985.93,8050.661,1981.223,8052.713,1970.376,8051.863Z" fill="#e9d639"/>
          </g>
          <g id="Grupo_3074" data-name="Grupo 3074">
            <g id="Grupo_3072" data-name="Grupo 3072">
              <path id="Trazado_3473" data-name="Trazado 3473" d="M1954.372,7961.382a63.2,63.2,0,0,1,12.153-2.131c4.574-.345,9.311-.156,13.514,1.851.4.191.894.389,1.241.1a1.4,1.4,0,0,0,.339-1l.286-4.121a1.411,1.411,0,0,0-.107-.818,1.164,1.164,0,0,0-.76-.444l-8.82-2.354a13.271,13.271,0,0,0-4.034-.643,13.516,13.516,0,0,0-4.707,1.434l-7.893,3.5C1954.1,7957.413,1954.645,7961.306,1954.372,7961.382Z" fill="#d3bb2f"/>
              <path id="Trazado_3474" data-name="Trazado 3474" d="M1954.448,7961.655l-.152-.546a.23.23,0,0,0-.15.123,5.253,5.253,0,0,0,.044-.766c.027-1.286.073-3.438,1.279-3.974l7.893-3.5a13.918,13.918,0,0,1,4.808-1.458,13.543,13.543,0,0,1,4.122.653l8.819,2.355a1.428,1.428,0,0,1,.931.572,1.656,1.656,0,0,1,.146.983l-.286,4.121a1.63,1.63,0,0,1-.44,1.2c-.516.431-1.211.1-1.545-.061-4.593-2.193-9.83-2.091-13.37-1.824a62.98,62.98,0,0,0-12.1,2.121Zm15.488-2.827a23.791,23.791,0,0,1,10.226,2.018c.363.174.729.311.936.137a1.213,1.213,0,0,0,.238-.8l.286-4.121a1.192,1.192,0,0,0-.067-.653.936.936,0,0,0-.59-.314l-8.82-2.355a13.033,13.033,0,0,0-3.947-.634,13.272,13.272,0,0,0-4.606,1.41l-7.893,3.5c-.877.39-.919,2.393-.942,3.468-.005.2-.008.368-.015.509a63.391,63.391,0,0,1,11.762-2.018C1967.526,7958.891,1968.688,7958.828,1969.936,7958.828Z" fill="#d3bb2f"/>
            </g>
            <g id="Grupo_3073" data-name="Grupo 3073">
              <path id="Trazado_3475" data-name="Trazado 3475" d="M1984.183,7961.657a1.3,1.3,0,0,0,.182,1.033,1.016,1.016,0,0,0,.911.168l12.995-1.833c2.066-.291,4.133-.583,6.195-.911a1.894,1.894,0,0,0,1.437-.713,2.209,2.209,0,0,0,.231-1.006,27.058,27.058,0,0,0-.077-4.326,1.562,1.562,0,0,0-.218-.77,1.258,1.258,0,0,0-1.127-.362c-5.819.224-11.358,3.575-17.166,3.127C1983.951,7955.786,1984.523,7958.454,1984.183,7961.657Z" fill="#d3bb2f"/>
              <path id="Trazado_3476" data-name="Trazado 3476" d="M1984.924,7963.173a1.014,1.014,0,0,1-.764-.287,1.563,1.563,0,0,1-.259-1.259h0c.057-.533.088-1.05.118-1.549.094-1.583.176-2.95,1.052-3.713a3.285,3.285,0,0,1,2.5-.584c3.126.243,6.256-.66,9.283-1.532a33.412,33.412,0,0,1,7.85-1.6,1.514,1.514,0,0,1,1.367.479,1.8,1.8,0,0,1,.271.909,27.388,27.388,0,0,1,.078,4.372,2.461,2.461,0,0,1-.271,1.135,2.129,2.129,0,0,1-1.635.846c-2.08.331-4.175.626-6.2.912l-12.994,1.833A2.782,2.782,0,0,1,1984.924,7963.173Zm-.459-1.486a1.1,1.1,0,0,0,.1.807c.124.13.357.127.667.083l12.995-1.833c2.024-.285,4.116-.58,6.191-.91a1.651,1.651,0,0,0,1.238-.579,1.969,1.969,0,0,0,.191-.878,26.835,26.835,0,0,0-.076-4.28,1.348,1.348,0,0,0-.166-.631c-.138-.191-.4-.265-.886-.246a32.927,32.927,0,0,0-7.715,1.574c-3.075.886-6.255,1.8-9.484,1.553a2.772,2.772,0,0,0-2.08.445c-.7.608-.772,1.865-.859,3.32-.031.506-.062,1.029-.12,1.575Z" fill="#d3bb2f"/>
            </g>
          </g>
          <g id="Grupo_3077" data-name="Grupo 3077">
            <g id="Grupo_3075" data-name="Grupo 3075">
              <path id="Trazado_3477" data-name="Trazado 3477" d="M2009.023,7851.7c-.056-5.912-2.822-12.53-3.3-18.422a19.519,19.519,0,0,0-4.77-11.535,14.948,14.948,0,0,0-11.254-5.012c-3.257.1-6.349,1.39-9.3,2.765-4.563,2.124-9.01,4.49-13.453,6.855l-5.155,2.744c.693-5.416.008-11.513-1.047-12.8,0,0-3.546.886-18.4,7.067a71.175,71.175,0,0,0-27.674,20.324s-.47,4.913-.017,6.465c.405,1.385.759,3.284,2.056,3.918,3.413,1.669,9.876.966,16.017-1.8,2.6-1.171,7.036-4.135,10.778-5.956a8.136,8.136,0,0,0,1.541-1c.3,2.857,1.483,5.87,1.8,9.358q.481,5.257.963,10.512c.456,4.975.909,10.023.025,14.94-.7,3.89-2.091,8.371.406,11.436,2.587,3.175,7.507,2.55,11.516,1.715a294.6,294.6,0,0,1,42.094-5.644c.82-.05-2.066,6.712-1.337,6.332,1.461-.763,7.917,2.47,8.225.851.966-5.064-2.434-18.434-3.12-23.542C2004.872,7865.707,2009.076,7857.319,2009.023,7851.7Z" fill="#fefefe"/>
            </g>
            <g id="Grupo_3076" data-name="Grupo 3076">
              <path id="Trazado_3478" data-name="Trazado 3478" d="M2007.861,7895.559a14.944,14.944,0,0,1-3.4-.719c-1.527-.43-3.258-.918-3.821-.624a.349.349,0,0,1-.4-.031c-.275-.232-.144-.74.589-3a19.662,19.662,0,0,0,.885-3.257,295.232,295.232,0,0,0-41.905,5.629c-4.361.91-9.172,1.4-11.794-1.813-2.239-2.747-1.464-6.622-.78-10.04.11-.549.219-1.093.315-1.625.883-4.914.42-9.972-.029-14.865l-.963-10.511a35.6,35.6,0,0,0-.983-5.211,37.11,37.11,0,0,1-.759-3.646,7.773,7.773,0,0,1-1.2.726c-1.884.917-3.909,2.1-5.867,3.252-1.862,1.092-3.62,2.123-4.919,2.708-6.206,2.793-12.74,3.514-16.258,1.794-1.244-.609-1.689-2.233-2.048-3.539-.052-.191-.1-.377-.155-.555-.463-1.585-.013-6.368.007-6.571l.007-.079.048-.064a72.138,72.138,0,0,1,27.792-20.416c14.7-6.119,18.294-7.044,18.44-7.08l.174-.044.114.14c1.052,1.286,1.775,7.045,1.173,12.477l4.675-2.488c4.376-2.329,8.9-4.736,13.468-6.862,2.917-1.358,6.046-2.691,9.413-2.791a15.222,15.222,0,0,1,11.472,5.1,19.758,19.758,0,0,1,4.843,11.7,55.323,55.323,0,0,0,1.592,8.3,46.335,46.335,0,0,1,1.708,10.143c.025,2.6-.821,5.685-1.718,8.952-1.026,3.741-2.087,7.611-1.688,10.584.195,1.452.608,3.561,1.086,6,1.217,6.219,2.731,13.96,2.032,17.629a.755.755,0,0,1-.354.513A1.527,1.527,0,0,1,2007.861,7895.559Zm-6.708-1.994a15.192,15.192,0,0,1,3.467.729c1.447.407,3.248.914,3.746.606a.187.187,0,0,0,.1-.138c.679-3.561-.888-11.567-2.032-17.413-.479-2.451-.894-4.569-1.091-6.038-.414-3.087.662-7.013,1.7-10.809.886-3.228,1.722-6.277,1.7-8.8a45.94,45.94,0,0,0-1.693-10.014,55.917,55.917,0,0,1-1.6-8.387,19.2,19.2,0,0,0-4.7-11.367,14.646,14.646,0,0,0-11.036-4.919c-3.259.1-6.328,1.406-9.191,2.738-4.556,2.12-9.071,4.523-13.438,6.847l-5.642,3,.07-.544c.655-5.115.07-10.93-.88-12.441-.9.261-5.3,1.644-18.175,7a71.736,71.736,0,0,0-27.508,20.17c-.058.64-.422,4.9-.019,6.277.052.181.1.37.158.564.345,1.258.736,2.683,1.749,3.179,3.375,1.65,9.715.927,15.776-1.8,1.271-.572,3.017-1.6,4.865-2.679,1.967-1.153,4-2.346,5.906-3.273a7.9,7.9,0,0,0,1.487-.964l.405-.326.055.517a31.748,31.748,0,0,0,.806,4.069,36.04,36.04,0,0,1,1,5.294l.963,10.511c.452,4.929.919,10.027.022,15.016-.1.536-.206,1.083-.317,1.636-.691,3.456-1.406,7.03.664,9.57,2.429,2.983,7.045,2.491,11.238,1.617a295.737,295.737,0,0,1,42.134-5.649.386.386,0,0,1,.339.152c.274.353.053,1.227-.8,3.854-.249.767-.571,1.763-.669,2.248A2.3,2.3,0,0,1,2001.153,7893.565Z" fill="#5e5e5e"/>
            </g>
          </g>
          <g id="Grupo_3078" data-name="Grupo 3078">
            <path id="Trazado_3479" data-name="Trazado 3479" d="M1960.742,7816.294s-3.546.886-18.4,7.067a71.175,71.175,0,0,0-27.674,20.324l8.813,10.277s11.1-4,34.384-16.325C1963.27,7834.764,1962.546,7818.5,1960.742,7816.294Z" fill="#fcfcfb"/>
          </g>
          <g id="Grupo_3079" data-name="Grupo 3079">
            <path id="Trazado_3480" data-name="Trazado 3480" d="M1951.862,7856.388c-.564,3.23-1.023,6.572-2.429,9.412-1.43,2.886-3.71,5-5.8,7.234a3.37,3.37,0,0,0-.937,1.475c-.266,1.114.433,2.191,1.042,3.092,3.88,5.738,5.813,12.953,7.667,19.985,1.288,4.889-3.416,6.571-3.361,11.695.038,3.523.447,12.968,0,16.451-1.292,10.065-3.581,24.152-3.12,34.32,8.555-2.315,24.66-7.642,32.594-3.176a17.292,17.292,0,0,0,4.608,2.162,12.9,12.9,0,0,0,4.729-.16l22.467-3.552a16.714,16.714,0,0,0,6.361-1.913,11.55,11.55,0,0,0,4.972-7.887,7.376,7.376,0,0,1-6.263-4.279,5.535,5.535,0,0,1-.586-1.8,11.971,11.971,0,0,1,.33-2.89c1.1-8.761,1.047-23.348,1.7-36.352.208-4.164-10.086-15.3-11.345-19.288-5.784-18.313-3.873-28.286-6.24-47.651-.642-5.251-5.1-8.957-8.793-11.912-.859-.688-5.492-1.792-6.524-1.7s-2.793-.609-3.687,0c-5.027,3.422-2.289,3.753-7.942,2.269-3.144-.826-2.457-3.779-5.673-3.971C1951.922,7817.132,1954,7844.135,1951.862,7856.388Z" fill="#f5e52e"/>
            <path id="Trazado_3481" data-name="Trazado 3481" d="M1944.386,7960.784l-.032-.706c-.385-8.5,1.161-19.882,2.4-29.025.258-1.9.5-3.7.72-5.393a124.487,124.487,0,0,0,.069-13.009c-.034-1.353-.064-2.523-.073-3.364a10.5,10.5,0,0,1,2-5.867c1.077-1.77,2.008-3.3,1.378-5.689-1.739-6.6-3.71-14.077-7.588-19.812-.58-.857-1.456-2.153-1.124-3.541a3.87,3.87,0,0,1,1.075-1.731c.34-.364.685-.724,1.031-1.085a24.959,24.959,0,0,0,4.677-6.014,30.013,30.013,0,0,0,2.2-8.212q.088-.524.179-1.045l.559.1-.559-.1c.487-2.786.756-6.387,1.042-10.2.979-13.085,2.2-29.373,13.315-28.707a4.055,4.055,0,0,1,3.378,2.1,3.982,3.982,0,0,0,2.405,1.883c.443.117.834.222,1.182.315a9.845,9.845,0,0,0,2.371.5c.28-.022.451-.17,1-.678a22.893,22.893,0,0,1,2.924-2.327,3.922,3.922,0,0,1,2.751-.207,5.843,5.843,0,0,0,1.206.111c1.1-.1,5.918,1.016,6.927,1.824,3.31,2.647,8.312,6.649,9,12.287.811,6.636,1.115,12.062,1.409,17.308.549,9.795,1.023,18.254,4.809,30.24.495,1.569,2.566,4.443,4.758,7.488,3.316,4.6,6.744,9.365,6.613,12-.235,4.7-.379,9.612-.518,14.366-.246,8.438-.479,16.409-1.183,22.029-.041.323-.1.642-.162.951a5.917,5.917,0,0,0-.168,1.8,4.981,4.981,0,0,0,.53,1.614,6.811,6.811,0,0,0,5.762,3.966l.663.007-.11.654a12.037,12.037,0,0,1-5.233,8.276,17.342,17.342,0,0,1-6.571,1.99l-22.466,3.552a13.473,13.473,0,0,1-4.938.154,14.411,14.411,0,0,1-4.057-1.815c-.236-.136-.473-.273-.71-.406-6.888-3.879-20.321-.1-29.21,2.406-1.058.3-2.05.577-2.957.822Zm20.659-142.284c-9.5,0-10.644,15.32-11.569,27.676-.288,3.841-.559,7.47-1.055,10.31h0c-.061.346-.12.693-.179,1.041a30.818,30.818,0,0,1-2.3,8.524,25.844,25.844,0,0,1-4.875,6.3c-.343.357-.685.714-1.022,1.075a2.871,2.871,0,0,0-.8,1.219c-.2.835.317,1.691.961,2.642,3.986,5.9,5.983,13.473,7.745,20.159.753,2.857-.395,4.744-1.506,6.568a9.449,9.449,0,0,0-1.836,5.265c.009.833.039,2,.074,3.347a122.359,122.359,0,0,1-.078,13.182q-.328,2.55-.722,5.4c-1.2,8.843-2.69,19.789-2.422,28.11.71-.195,1.466-.408,2.258-.631,9.07-2.553,22.776-6.411,30.075-2.3.24.135.48.274.721.413a13.357,13.357,0,0,0,3.728,1.688,12.474,12.474,0,0,0,4.522-.165l22.466-3.553a16.193,16.193,0,0,0,6.152-1.835,10.92,10.92,0,0,0,4.59-6.879,8.1,8.1,0,0,1-6.09-4.55,6.061,6.061,0,0,1-.642-1.986,6.85,6.85,0,0,1,.18-2.152c.059-.3.114-.59.15-.877.7-5.566.929-13.51,1.175-21.921.139-4.759.283-9.681.519-14.389.111-2.237-3.5-7.251-6.4-11.279-2.344-3.256-4.369-6.067-4.919-7.809-3.829-12.122-4.306-20.647-4.86-30.518-.292-5.229-.595-10.635-1.4-17.235-.634-5.178-5.229-8.854-8.584-11.538a19.832,19.832,0,0,0-6.12-1.58,6.509,6.509,0,0,1-1.477-.119,3.341,3.341,0,0,0-1.941.023,21.844,21.844,0,0,0-2.792,2.222c-1.369,1.264-1.659,1.186-4.437.44-.346-.093-.735-.2-1.176-.313a5.042,5.042,0,0,1-3.039-2.32,2.935,2.935,0,0,0-2.523-1.634C1965.408,7818.5,1965.224,7818.5,1965.045,7818.5Z" fill="#c4b316"/>
          </g>
          <g id="Grupo_3081" data-name="Grupo 3081" opacity="0.42">
            <g id="Grupo_3080" data-name="Grupo 3080">
              <path id="Trazado_3482" data-name="Trazado 3482" d="M1953.805,7820.412a2.956,2.956,0,0,0-1.209.8,2.194,2.194,0,0,0-.081,2.3,6.439,6.439,0,0,0,1.59,1.816l6.227,5.528a14.062,14.062,0,0,0,3.07,2.263,4.747,4.747,0,0,0,3.7.34,12.7,12.7,0,0,0,2.939-2.159c.969-.743,2.35-1.25,3.386-.6a4.246,4.246,0,0,1,1.123,1.27,16.3,16.3,0,0,0,3.307,3.508,6.576,6.576,0,0,0,3.258,1.542,5.542,5.542,0,0,0,2.746-.5,4.815,4.815,0,0,0,1.928-1.378c1.26-1.613.755-4.062-.512-5.669s-3.119-2.617-4.815-3.762a39.565,39.565,0,0,0-3.609-2.369,29.119,29.119,0,0,0-7.267-2.174,67.326,67.326,0,0,1-6.689-1.882c-1.546-.522-3.527-1.246-5.14-.578C1956.458,7819.245,1955.126,7819.843,1953.805,7820.412Z" fill="#9d9fa2"/>
            </g>
          </g>
          <g id="Grupo_3082" data-name="Grupo 3082">
            <path id="Trazado_3483" data-name="Trazado 3483" d="M1970.283,7813.313a56.857,56.857,0,0,1,20.029.47,10.135,10.135,0,0,1-20.029-.47Z" fill="#5d1f1f"/>
          </g>
          <g id="Grupo_3083" data-name="Grupo 3083">
            <path id="Trazado_3484" data-name="Trazado 3484" d="M1988.8,7812.773l-.033-.008h0Z" fill="#dbdcdd"/>
          </g>
          <g id="Grupo_3084" data-name="Grupo 3084">
            <path id="Trazado_3485" data-name="Trazado 3485" d="M1970.661,7813.209l.037-.008h0Z" fill="#dbdcdd"/>
          </g>
          <g id="Grupo_3087" data-name="Grupo 3087">
            <g id="Grupo_3085" data-name="Grupo 3085">
              <path id="Trazado_3486" data-name="Trazado 3486" d="M2001.262,7817.612a3.713,3.713,0,0,1,4.641.338c.59.518,2.452-.971,3.12-.284s2.119.831,2.836,1.7c.937,1.139,2.441,5.325,3.4,6.807,1.589,2.447.84,5.571,2.269,9.077.557,1.374,1.8,6.677,2.269,7.942,6.413,17.414,2.857,22.649,2.857,22.649l-12.957.632s-1.3-9.67-12.089-37.693C1995.076,7822.243,1998.052,7818.173,2001.262,7817.612Z" fill="#fefefe"/>
            </g>
            <g id="Grupo_3086" data-name="Grupo 3086">
              <path id="Trazado_3487" data-name="Trazado 3487" d="M2009.454,7866.771l-.034-.259c-.013-.1-1.426-9.98-12.073-37.628-1.288-3.323-1.292-6.4-.009-8.677a5.638,5.638,0,0,1,3.814-2.863,4.008,4.008,0,0,1,4.938.393c.152.134.721-.07,1.137-.219.712-.255,1.518-.544,2-.049a3.719,3.719,0,0,0,1.171.66,4.177,4.177,0,0,1,1.681,1.059,20.628,20.628,0,0,1,1.893,3.7,27.966,27.966,0,0,0,1.53,3.134,10.327,10.327,0,0,1,1.274,4.555,16.994,16.994,0,0,0,1.02,4.569c.312.771.819,2.682,1.308,4.531.39,1.472.759,2.862.964,3.42,6.39,17.351,2.974,22.687,2.826,22.906l-.08.117Zm-6.044-49.538a3.665,3.665,0,0,0-1.98.607l-.054.04-.065.011a5.071,5.071,0,0,0-3.479,2.594c-1.2,2.122-1.182,5.033.044,8.2,9.743,25.3,11.774,35.78,12.065,37.5l12.547-.612c.441-.86,2.809-6.628-2.953-22.275-.215-.583-.586-1.986-.98-3.471-.462-1.746-.987-3.725-1.286-4.463a17.708,17.708,0,0,1-1.057-4.713,9.761,9.761,0,0,0-1.187-4.315,27.682,27.682,0,0,1-1.572-3.212,21.182,21.182,0,0,0-1.813-3.57,3.769,3.769,0,0,0-1.465-.9,4.068,4.068,0,0,1-1.356-.787c-.226-.233-.85-.009-1.4.188-.668.239-1.3.465-1.7.111A3.429,3.429,0,0,0,2003.41,7817.233Z" fill="#5e5e5e"/>
            </g>
          </g>
          <g id="Grupo_3088" data-name="Grupo 3088">
            <path id="Trazado_3488" data-name="Trazado 3488" d="M1984.346,7828.72c-.5-.628-1.118-1.16-1.155-2.029,0-.112-.15.062-.167.1a2,2,0,0,0,.416,1.908,4.812,4.812,0,0,0,.969.894,8.153,8.153,0,0,1,1.168.719c.062.05.212-.129.174-.191C1985.386,7829.559,1984.762,7829.235,1984.346,7828.72Z" fill="#69b0e3"/>
          </g>
          <g id="Grupo_3089" data-name="Grupo 3089">
            <path id="Trazado_3489" data-name="Trazado 3489" d="M1990.607,7823.789a10.405,10.405,0,0,1-.732-1.459c-.137-.324-.133-.711-.291-1.01-.037-.066-.12.071-.12.1a3.9,3.9,0,0,0,.711,2.793c.469.728,1.18,1.189,1.708,1.859.042.054.154-.1.137-.154A10.71,10.71,0,0,0,1990.607,7823.789Z" fill="#69b0e3"/>
          </g>
          <g id="Grupo_3091" data-name="Grupo 3091">
            <g id="Grupo_3090" data-name="Grupo 3090">
              <path id="Trazado_3490" data-name="Trazado 3490" d="M1928.35,7851.983l.416-.416c3.28-3.126,6.884-6.506,9.4-10.293a47.987,47.987,0,0,0,6.128-12.471c.71-2.336,1.309-4.7,1.928-7.067-1.2.494-2.494,1.027-3.895,1.609a71.161,71.161,0,0,0-27.674,20.324l8.813,10.276S1925.091,7853.376,1928.35,7851.983Z" fill="#dbdcdd"/>
            </g>
          </g>
          <g id="Grupo_3094" data-name="Grupo 3094">
            <g id="Grupo_3092" data-name="Grupo 3092">
              <path id="Trazado_3491" data-name="Trazado 3491" d="M1931,7825.382c-7.944,6.9-16.6,18.332-16.6,18.332-3.3,8.2,3.346,13.7,9.079,10.239,4.573-2.76,12.3-13.805,15.381-18.05C1937.3,7831.538,1934.91,7827.593,1931,7825.382Z" fill="#fefefe"/>
            </g>
            <g id="Grupo_3093" data-name="Grupo 3093">
              <path id="Trazado_3492" data-name="Trazado 3492" d="M1919.862,7855.3a6.3,6.3,0,0,1-4.119-1.53c-2.049-1.745-3.546-5.329-1.6-10.158l.037-.065c.086-.114,8.76-11.539,16.635-18.376l.151-.131.175.1c3.525,1.992,6.139,5.484,7.992,10.673l.051.141-.088.121-.817,1.132c-3.631,5.041-10.388,14.423-14.647,16.994A7.3,7.3,0,0,1,1919.862,7855.3Zm-5.21-11.44c-1.81,4.531-.435,7.866,1.458,9.478a6.043,6.043,0,0,0,7.226.377c4.159-2.511,11.13-12.189,14.479-16.84l.731-1.013c-1.771-4.892-4.231-8.209-7.514-10.13C1923.44,7832.368,1915.148,7843.2,1914.652,7843.856Z" fill="#5e5e5e"/>
            </g>
          </g>
          <g id="Grupo_3095" data-name="Grupo 3095">
            <path id="Trazado_3493" data-name="Trazado 3493" d="M1926.932,7841.378a49.88,49.88,0,0,0,4.968,3.9c2.827-3.576,5.458-7.292,6.967-9.375-1.563-4.365-3.957-8.314-7.869-10.521a105.988,105.988,0,0,0-9.9,10.151A66.708,66.708,0,0,0,1926.932,7841.378Z" fill="#dbdcdd"/>
          </g>
          <g id="Grupo_3164" data-name="Grupo 3164">
            <g id="Grupo_3100" data-name="Grupo 3100">
              <g id="Grupo_3097" data-name="Grupo 3097">
                <g id="Grupo_3096" data-name="Grupo 3096">
                  <path id="Trazado_3494" data-name="Trazado 3494" d="M2014.005,7815.042a46.3,46.3,0,0,0-1.387-5.253c-1.317-4.461-1.359-8.786-1.412-13.391a63.373,63.373,0,0,0-5.248-24.041,21.684,21.684,0,0,1-1.944-6.428c-.172-1.973.331-3.917.144-5.894-.207-2.185-.762-4.241-.137-6.423.532-1.852,2.268-3.32,2.516-5.231.456-3.515-5.012-3.151-7.118-3.483-4.287-.676-6.443-4.89-10.465-6.182a10.6,10.6,0,0,0-5.165-.33c-2.136.4-4.011,1.611-6.135,2.037-2.366.476-4.286-.876-6.579-1.053a8.91,8.91,0,0,0-4.935,1.1.109.109,0,0,0-.08.02c-.065.045-.132.088-.2.132-.044.026-.09.048-.134.074a.123.123,0,0,0-.044.046c-2.326,1.574-4.8,2.884-7.244,4.27-1.592.9-3.442,1.807-4.567,3.312a4.83,4.83,0,0,0-.364,4.979c.944,2.178,3.723,3.917,3.821,6.356a.108.108,0,0,0-.037.067q-.568,3.588-1.139,7.176a42.245,42.245,0,0,1-1.194,6.462c-.741,2.276-2.469,3.762-4,5.5a30.56,30.56,0,0,0-3.428,4.848c-4.626,7.911-1.489,18.009-5.022,26.439a50.271,50.271,0,0,0,1.135,5.1c1.569-.492,1.248-4.092,2.552-5.1,1.435-1.114,2.245-.586,3.972-1.135,2.509-.8,2.024-.941,2.836,1.135.669,1.71-1.9.1-1.584,1.892a25.064,25.064,0,0,0,3.959,9.677c1.064,1.6,2.253,3.107,3.469,4.589a17.4,17.4,0,0,0,3.137,3.447c2.9,2.01,6.136-.225,8.735-1.607,1.189-.633,2.164-1.311,3.433-.739,1.192.537,1.681,1.711,2.384,2.79.778,1.2,1.555,3.008,2.983,3.58,2.429.973,6.414-.4,8.662-1.32a21.086,21.086,0,0,0,7.974-5.694c2.734-3.167,4.444-6.776,8.732-8.114a11.179,11.179,0,0,1,5.757-.261c.9.2,2.49,3.673,3.133.127A11.615,11.615,0,0,0,2014.005,7815.042Z" fill="#fefefe"/>
                </g>
              </g>
              <g id="Grupo_3099" data-name="Grupo 3099">
                <g id="Grupo_3098" data-name="Grupo 3098">
                  <path id="Trazado_3495" data-name="Trazado 3495" d="M1981.5,7834.392a5.62,5.62,0,0,1-2.086-.35,6.191,6.191,0,0,1-2.628-2.886c-.169-.287-.328-.558-.487-.8-.143-.219-.276-.441-.409-.662a4.484,4.484,0,0,0-1.853-2.024c-1.01-.455-1.809-.019-2.82.533l-.364.2c-.284.151-.575.312-.872.476-2.42,1.338-5.431,3-8.157,1.115a12.47,12.47,0,0,1-2.553-2.689c-.216-.278-.429-.551-.642-.812-1.088-1.326-2.352-2.91-3.486-4.611a25.358,25.358,0,0,1-4-9.785,1.131,1.131,0,0,1,.151-.933,1.355,1.355,0,0,1,1.046-.379c.155-.011.443-.03.482-.092,0,0,.054-.091-.08-.435-.111-.281-.2-.523-.271-.727-.145-.4-.259-.724-.361-.761a3.042,3.042,0,0,0-1.095.272c-.218.073-.469.156-.76.249a7.782,7.782,0,0,1-1.729.321,3.523,3.523,0,0,0-2.154.767,4.557,4.557,0,0,0-1.009,2.331c-.311,1.233-.633,2.508-1.632,2.821l-.173.054-.13-.138a34.551,34.551,0,0,1-1.179-5.4c1.613-3.846,1.824-8.128,2.028-12.269.239-4.86.487-9.885,3.011-14.2a30.853,30.853,0,0,1,3.46-4.893c.306-.346.62-.683.932-1.018a11.94,11.94,0,0,0,3.012-4.379,28.049,28.049,0,0,0,.948-4.787c.076-.548.151-1.094.236-1.631l1.139-7.177a.381.381,0,0,1,.029-.1c-.091-1.321-1.024-2.43-2.011-3.6a11.126,11.126,0,0,1-1.782-2.562,5.1,5.1,0,0,1,.4-5.262,12.382,12.382,0,0,1,4.051-3.052c.2-.113.406-.225.6-.337q.781-.444,1.566-.88c1.873-1.047,3.81-2.13,5.619-3.351a.4.4,0,0,1,.1-.082c.028-.017.056-.032.084-.046l.23-.149a.4.4,0,0,1,.164-.067,9.154,9.154,0,0,1,5.035-1.1,12.711,12.711,0,0,1,2.661.588,7.677,7.677,0,0,0,3.84.47,16.714,16.714,0,0,0,2.958-.992,16.7,16.7,0,0,1,3.181-1.046,10.879,10.879,0,0,1,5.3.339,14.854,14.854,0,0,1,4.823,3.039c1.722,1.429,3.349,2.778,5.6,3.133.368.058.842.094,1.39.136,1.848.141,4.379.334,5.464,1.668a2.527,2.527,0,0,1,.5,2,7.544,7.544,0,0,1-1.353,3,9.046,9.046,0,0,0-1.171,2.268,11.372,11.372,0,0,0-.038,4.793c.067.5.135,1.009.184,1.525a17.2,17.2,0,0,1-.068,3.034,16.985,16.985,0,0,0-.076,2.863,21.644,21.644,0,0,0,1.924,6.342,63.229,63.229,0,0,1,5.269,24.148v.1c.053,4.539.1,8.826,1.4,13.218.086.29.173.579.26.869a37.539,37.539,0,0,1,1.135,4.417h0a11.936,11.936,0,0,1-.227,3.574c-.2,1.084-.5,1.653-.968,1.79-.6.178-1.163-.419-1.708-1a2.837,2.837,0,0,0-.8-.694,10.868,10.868,0,0,0-5.61.254c-3.172.991-4.91,3.276-6.749,5.7-.586.771-1.191,1.567-1.854,2.334a21.4,21.4,0,0,1-8.08,5.772A19.625,19.625,0,0,1,1981.5,7834.392Zm-8.3-7.483a2.577,2.577,0,0,1,1.074.242,4.984,4.984,0,0,1,2.106,2.249c.129.215.26.431.4.644.166.255.329.532.5.825a5.814,5.814,0,0,0,2.35,2.647c1.725.69,4.647.234,8.45-1.319a20.84,20.84,0,0,0,7.866-5.617c.651-.754,1.251-1.543,1.831-2.307,1.9-2.494,3.687-4.849,7.032-5.893a11.43,11.43,0,0,1,5.9-.266,2.664,2.664,0,0,1,1.087.857c.366.389.868.923,1.134.843.1-.031.367-.224.571-1.348a11.465,11.465,0,0,0,.226-3.376,37.315,37.315,0,0,0-1.119-4.35c-.088-.29-.175-.581-.261-.871-1.32-4.468-1.37-8.793-1.423-13.373v-.094a62.673,62.673,0,0,0-5.225-23.935,22.072,22.072,0,0,1-1.966-6.513,17.429,17.429,0,0,1,.075-2.959,16.7,16.7,0,0,0,.07-2.934c-.048-.5-.116-1.012-.182-1.5a11.953,11.953,0,0,1,.055-5.024,9.414,9.414,0,0,1,1.238-2.418,7.02,7.02,0,0,0,1.268-2.771,1.958,1.958,0,0,0-.378-1.565c-.932-1.145-3.322-1.327-5.067-1.46-.561-.043-1.044-.08-1.435-.142-2.4-.379-4.168-1.842-5.873-3.256a14.4,14.4,0,0,0-4.634-2.935,10.313,10.313,0,0,0-5.027-.323,16.238,16.238,0,0,0-3.071,1.015,17.316,17.316,0,0,1-3.06,1.023,8.25,8.25,0,0,1-4.115-.483,12.154,12.154,0,0,0-2.542-.566,8.6,8.6,0,0,0-4.779,1.068l-.079.043-.027,0-.233.147-.024.013-.011.02-.056.038c-1.84,1.245-3.8,2.342-5.7,3.4-.521.292-1.043.583-1.563.878-.2.113-.4.226-.607.34a11.782,11.782,0,0,0-3.873,2.9,4.553,4.553,0,0,0-.33,4.7,10.5,10.5,0,0,0,1.695,2.423c1.025,1.22,2.086,2.481,2.149,4.034l.005.136-.056.049-1.128,7.115c-.085.534-.16,1.075-.235,1.619a28.394,28.394,0,0,1-.971,4.886,12.538,12.538,0,0,1-3.136,4.59c-.309.332-.619.664-.922,1.007a30.258,30.258,0,0,0-3.4,4.8c-2.455,4.2-2.688,8.932-2.935,13.945-.205,4.168-.417,8.478-2.045,12.4.064.5.741,3.712,1,4.665a4.3,4.3,0,0,0,1.011-2.3,4.85,4.85,0,0,1,1.211-2.64,4.075,4.075,0,0,1,2.446-.883,7.2,7.2,0,0,0,1.614-.3c.288-.091.536-.174.751-.246,1.481-.494,1.689-.5,2.17.835.072.2.157.437.265.713a1.076,1.076,0,0,1,.031.945,1.089,1.089,0,0,1-.923.354c-.252.017-.538.036-.637.162a.692.692,0,0,0-.039.484,24.789,24.789,0,0,0,3.915,9.57c1.12,1.68,2.374,3.251,3.452,4.567.217.264.433.541.652.822a12.014,12.014,0,0,0,2.428,2.571c2.437,1.689,5.158.184,7.559-1.144.3-.166.594-.329.88-.481l.359-.194A4.814,4.814,0,0,1,1973.2,7826.909Zm-6.975-86.184,0,0Z" fill="#5e5e5e"/>
                </g>
              </g>
            </g>
            <g id="Grupo_3117" data-name="Grupo 3117">
              <g id="Grupo_3116" data-name="Grupo 3116" clip-path="url(#clip-path-2)">
                <g id="Grupo_3113" data-name="Grupo 3113">
                  <g id="Grupo_3101" data-name="Grupo 3101">
                    <path id="Trazado_3496" data-name="Trazado 3496" d="M1993.2,7744.492c5.284,2.582,25.679,39.227,11.395,58.1a31.286,31.286,0,0,0,0-10.363c.2,4.8-2.262,9.37-5.77,13.069a11.288,11.288,0,0,0-.15-6.734c-11.32,14.55-30.966,11.32-36.167,3.371a11.3,11.3,0,0,0,1.1,6.652,19.871,19.871,0,0,1-8.09-11.781,35.368,35.368,0,0,0,1.912,10.184c-17.522-15.905-3.617-56.262,1.1-59.775Z" fill="#4e3017"/>
                  </g>
                  <g id="Grupo_3102" data-name="Grupo 3102">
                    <path id="Trazado_3497" data-name="Trazado 3497" d="M1973.979,7788.724h12.255a.046.046,0,0,1,.045.046h0v23.255a6.164,6.164,0,0,1-6.148,6.148h0a6.165,6.165,0,0,1-6.152-6.148Z" fill="#ca9f7a"/>
                  </g>
                  <g id="Grupo_3103" data-name="Grupo 3103">
                    <path id="Trazado_3498" data-name="Trazado 3498" d="M1975.325,7740.572c23.841-2.22,28.019,25.587,24.906,44.789-1.58,9.728-11.7,19.081-18.89,19.75-7.392.691-19.077-7.482-23-17.418C1951.285,7769.759,1951.975,7742.751,1975.325,7740.572Z" fill="#e3b78c"/>
                  </g>
                  <g id="Grupo_3104" data-name="Grupo 3104">
                    <path id="Trazado_3499" data-name="Trazado 3499" d="M1968.612,7769.389c.943-.087,1.883,1.75,2.1,4.107s-.366,4.336-1.309,4.423-1.883-1.75-2.079-4.107S1967.672,7769.476,1968.612,7769.389Z" fill="#4e4e4e"/>
                  </g>
                  <g id="Grupo_3105" data-name="Grupo 3105">
                    <path id="Trazado_3500" data-name="Trazado 3500" d="M1986.4,7767.734c.944-.087,1.883,1.751,2.1,4.1s-.365,4.335-1.305,4.423-1.887-1.75-2.1-4.1S1985.46,7767.822,1986.4,7767.734Z" fill="#4e4e4e"/>
                  </g>
                  <g id="Grupo_3106" data-name="Grupo 3106">
                    <path id="Trazado_3501" data-name="Trazado 3501" d="M1952.877,7772.316c1.513-.457,3.5,1.688,4.444,4.789s.47,6-1.048,6.452-3.5-1.688-4.444-4.789S1951.368,7772.777,1952.877,7772.316Z" fill="#e3b78c"/>
                  </g>
                  <g id="Grupo_3107" data-name="Grupo 3107">
                    <path id="Trazado_3502" data-name="Trazado 3502" d="M2002.613,7767.685c-1.576-.171-3.135,2.3-3.484,5.529s.64,5.974,2.216,6.144,3.134-2.3,3.483-5.529S2004.184,7767.872,2002.613,7767.685Z" fill="#e3b78c"/>
                  </g>
                  <g id="Grupo_3108" data-name="Grupo 3108">
                    <path id="Trazado_3503" data-name="Trazado 3503" d="M1977.367,7783.669c4.331.486,5.82-2.27,5.657-4.448C1984.471,7783.12,1981.781,7785.561,1977.367,7783.669Z" fill="#bf978a"/>
                  </g>
                  <g id="Grupo_3109" data-name="Grupo 3109">
                    <path id="Trazado_3504" data-name="Trazado 3504" d="M1982.471,7763.96c1.63-.911,4.249-2.565,8.074-.832,1.721.778,1.638,1.426-.217.765-3.151-1.118-4.689.029-7.275,1.393C1982.052,7765.818,1981.366,7764.575,1982.471,7763.96Z" fill="#6a5238"/>
                  </g>
                  <g id="Grupo_3110" data-name="Grupo 3110">
                    <path id="Trazado_3505" data-name="Trazado 3505" d="M1971.609,7764.97c-1.767-.59-4.648-1.734-8.086.673-1.546,1.085-1.342,1.705.354.715,2.91-1.683,4.614-.831,7.408.025C1972.37,7766.72,1972.831,7765.373,1971.609,7764.97Z" fill="#6a5238"/>
                  </g>
                  <g id="Grupo_3111" data-name="Grupo 3111">
                    <path id="Trazado_3506" data-name="Trazado 3506" d="M1954.515,7773.409c.324,2.041,2.611,6.1,2.054,1.314s-1.036-16.89,3.508-22.365,10.563-3.135,15.8-3.621h.25c5.221-.487,10.708-3.9,16.183.64s7.238,16.525,7.579,21.33,1.833.416,1.779-1.663c-.067-2.444,1.018-9.241-3.808-18.241-3.48-6.485-7.591-11.154-20.137-11.615-3.642-.112-8.975.374-12.118,4.128-7.321.69-10.368,8.493-11.786,12.97C1950.736,7766.022,1954.124,7770.99,1954.515,7773.409Z" fill="#4e3017"/>
                  </g>
                  <g id="Grupo_3112" data-name="Grupo 3112">
                    <path id="Trazado_3507" data-name="Trazado 3507" d="M1998.518,7758.1a113.19,113.19,0,0,1-12.737,2.448,49.645,49.645,0,0,0-4.536-9.84c.536,3.659,1.089,7.3,1.414,10.289-4.7.649-9.761,1.226-14.372,1.6-.174-2.32-.274-5.134-.39-7.961a38.255,38.255,0,0,0-2.046,8.139,65.237,65.237,0,0,1-10.559.075c1.247-12.226,7.8-18.216,18.483-19.214S1994.822,7745.39,1998.518,7758.1Z" fill="#442d19"/>
                  </g>
                </g>
                <g id="Grupo_3114" data-name="Grupo 3114" opacity="0.39">
                  <path id="Trazado_3508" data-name="Trazado 3508" d="M1956.55,7759.521a48.487,48.487,0,0,1,5.106,1.985l-3.12,36.589-3.971.568-2.837-18.437Z" fill="#442d19"/>
                </g>
                <g id="Grupo_3115" data-name="Grupo 3115" opacity="0.39">
                  <path id="Trazado_3509" data-name="Trazado 3509" d="M2000.324,7758.512a48.478,48.478,0,0,0-5.287,1.432l-.787,36.713,3.888.986,4.78-18.03Z" fill="#442d19"/>
                </g>
              </g>
            </g>
            <g id="Grupo_3119" data-name="Grupo 3119" opacity="0.33">
              <g id="Grupo_3118" data-name="Grupo 3118">
                <path id="Trazado_3511" data-name="Trazado 3511" d="M1957.685,7770.131l.366,11.939s10.766,11.592,20.093,10.194,15.533-2.692,18.487-8.223l1.614-15.265s-4.36-6.373-20.967-4.732C1977.278,7764.044,1964.8,7764.461,1957.685,7770.131Z" fill="#fefefe"/>
              </g>
            </g>
            <g id="Grupo_3121" data-name="Grupo 3121" opacity="0.65">
              <g id="Grupo_3120" data-name="Grupo 3120">
                <path id="Trazado_3512" data-name="Trazado 3512" d="M1996.631,7784.041l.093-.885c-7.936,7.771-11.254,6.468-19.717,7.848-8.423,1.374-18.376-9.491-18.994-10.176l.038,1.242s10.766,11.592,20.093,10.194S1993.677,7789.572,1996.631,7784.041Z" fill="#424242"/>
              </g>
            </g>
            <g id="Grupo_3123" data-name="Grupo 3123" opacity="0.42">
              <g id="Grupo_3122" data-name="Grupo 3122">
                <path id="Trazado_3513" data-name="Trazado 3513" d="M1973.035,7815.816a2.359,2.359,0,0,0-1.961-.4,3.6,3.6,0,0,0,1.3,1.587c.274.185.621.456.5.761-.1.249-.436.279-.7.268l-3.263-.126a12.811,12.811,0,0,1-2.483-.258,17.487,17.487,0,0,0-2.555-.659.442.442,0,0,0-.358.081.368.368,0,0,0-.09.25c-.031.634.6,1.1,1.207,1.286a6.121,6.121,0,0,1,1.8.588c.311.218.54.535.848.756,1.594,1.147,4.144-.791,5.686.425.435.343.863.941,1.384.752a1.119,1.119,0,0,0,.444-.38c.6-.734,2.075-1.851,1.468-2.734S1973.95,7816.336,1973.035,7815.816Z" fill="#9d9fa2"/>
              </g>
            </g>
            <g id="Grupo_3125" data-name="Grupo 3125" opacity="0.42">
              <g id="Grupo_3124" data-name="Grupo 3124">
                <path id="Trazado_3514" data-name="Trazado 3514" d="M1976.468,7823.393a5.1,5.1,0,0,0,1.761,1.234,4.186,4.186,0,0,1,1.085.425c.63.458.753,1.456,1.46,1.784.632.293,1.373-.116,2.065-.029.832.1,1.551.916,2.365.714a1.206,1.206,0,0,0,.8-1.4,1.668,1.668,0,0,0-1.215-1.188,8.118,8.118,0,0,1-1.7-.334c-.446-.234-.733-.7-1.166-.954a9.016,9.016,0,0,0-1.849-.48c-1.171-.392-1.866-2.163-2.987-2.364C1975.457,7820.5,1975.674,7822.648,1976.468,7823.393Z" fill="#9d9fa2"/>
              </g>
            </g>
            <g id="Grupo_3127" data-name="Grupo 3127" opacity="0.42">
              <g id="Grupo_3126" data-name="Grupo 3126">
                <path id="Trazado_3515" data-name="Trazado 3515" d="M1996.367,7821.431c1.6-.2,2.886-1.345,4.184-2.3a10.235,10.235,0,0,1,4.675-2.114c1.75-.219,3.533.261,5.283.033.378-.049.82-.193.918-.561.121-.459-.394-.835-.857-.94-1.15-.263-2.354.18-3.526.04-1.4-.168-2.837-1.141-4.091-.5-.685.348-1.077,1.1-1.712,1.53-.969.661-2.291.525-2.949,1.574C1997.9,7818.809,1997.26,7821.318,1996.367,7821.431Z" fill="#9d9fa2"/>
              </g>
            </g>
            <g id="Grupo_3129" data-name="Grupo 3129" opacity="0.42">
              <g id="Grupo_3128" data-name="Grupo 3128">
                <path id="Trazado_3516" data-name="Trazado 3516" d="M2002.912,7753.632a.8.8,0,0,0,.062-.517.643.643,0,0,0-.329-.332c-.854-.456-1.9-.065-2.863-.183a7.219,7.219,0,0,1-1.572-.487,10.721,10.721,0,0,0-5.684-.46c.254.556.948.714,1.526.913,1.012.348,1.887,1,2.86,1.446a14.623,14.623,0,0,0,3.127.891C2001.917,7755.29,2002.242,7755.519,2002.912,7753.632Z" fill="#9d9fa2"/>
              </g>
            </g>
            <g id="Grupo_3132" data-name="Grupo 3132">
              <g id="Grupo_3130" data-name="Grupo 3130">
                <path id="Trazado_3517" data-name="Trazado 3517" d="M1953.826,7762.281a1.861,1.861,0,0,0-.768.8,1.942,1.942,0,0,0,.547,1.731c.614.83,1.4,1.747,2.433,1.7a3.382,3.382,0,0,0,1.756-.864,26.667,26.667,0,0,1,11.526-4.92,52.62,52.62,0,0,1,5.264-.522l8.148-.535a16.578,16.578,0,0,1,4.712.139,16.174,16.174,0,0,1,5.416,2.747,18.1,18.1,0,0,0,5.365,2.858,5.91,5.91,0,0,0,5.705-1.2,3.254,3.254,0,0,0,.984-2.1,4.379,4.379,0,0,0-1.747-3.2c-4.471-4.034-11.024-4.609-17.044-4.47a107.264,107.264,0,0,0-15.585,1.5A44.179,44.179,0,0,0,1953.826,7762.281Z" fill="#fefefe"/>
              </g>
              <g id="Grupo_3131" data-name="Grupo 3131">
                <path id="Trazado_3518" data-name="Trazado 3518" d="M1955.957,7766.791c-1.088,0-1.914-.914-2.58-1.814a2.168,2.168,0,0,1-.584-2,2.1,2.1,0,0,1,.874-.93h0a44.494,44.494,0,0,1,16.823-6.378,107.688,107.688,0,0,1,15.626-1.507c5.541-.13,12.509.272,17.241,4.542a4.546,4.546,0,0,1,1.84,3.424,3.5,3.5,0,0,1-1.065,2.284,6.2,6.2,0,0,1-5.98,1.272,18.055,18.055,0,0,1-5.359-2.835l-.093-.064a15.824,15.824,0,0,0-5.318-2.7,16.381,16.381,0,0,0-4.631-.133l-8.148.535c-1.725.113-3.509.23-5.237.518a26.389,26.389,0,0,0-11.4,4.868l-.045.034a3.523,3.523,0,0,1-1.867.886Zm31.746-12.082q-.8,0-1.574.019a107.192,107.192,0,0,0-15.544,1.5,43.883,43.883,0,0,0-16.6,6.288h0a1.618,1.618,0,0,0-.662.663c-.171.448.162.99.51,1.46.626.847,1.326,1.625,2.191,1.583a3.076,3.076,0,0,0,1.555-.774l.045-.034a26.954,26.954,0,0,1,11.649-4.973c1.756-.293,3.554-.411,5.293-.525l8.147-.536a16.811,16.811,0,0,1,4.793.146,16.315,16.315,0,0,1,5.514,2.789l.093.064a17.584,17.584,0,0,0,5.185,2.755,5.634,5.634,0,0,0,5.429-1.12,2.947,2.947,0,0,0,.9-1.909,4.026,4.026,0,0,0-1.653-2.98C1998.826,7755.379,1992.834,7754.709,1987.7,7754.709Z" fill="#5e5e5e"/>
              </g>
            </g>
            <g id="Grupo_3134" data-name="Grupo 3134" opacity="0.42">
              <g id="Grupo_3133" data-name="Grupo 3133">
                <path id="Trazado_3519" data-name="Trazado 3519" d="M1976.235,7812.569c.074.05-.883,1.9-.8,2.3.108.5.591.731.858,1.138.932,1.416-.4,2.933-1.243,4.027s-2.441,2.347-2.73,3.743c-.232,1.117.489,2.39,1.018,3.318a.425.425,0,0,0,.734-.429,3.891,3.891,0,0,1-.8-2.849c.289-1.011,1.313-1.848,1.966-2.65.9-1.106,2.427-2.675,2.355-4.215a2.7,2.7,0,0,0-.636-1.519c-.282-.361-.659-.5-.641-.97.01-.26.289-.584.407-.822.316-.644.653-1.322-.06-1.811-.453-.31-.879.427-.43.735Z" fill="#9d9fa2"/>
              </g>
            </g>
            <g id="Grupo_3136" data-name="Grupo 3136" opacity="0.76">
              <g id="Grupo_3135" data-name="Grupo 3135">
                <path id="Trazado_3520" data-name="Trazado 3520" d="M1977.278,7764.044s-12.48.417-19.593,6.087l.039,1.286c2.534-1.209,12.194-5.586,19.8-5.84,8.014-.267,15.306,2.3,20.561,4.691l.158-1.492S1993.885,7762.4,1977.278,7764.044Z" fill="#193181"/>
              </g>
            </g>
            <g id="Grupo_3139" data-name="Grupo 3139">
              <g id="Grupo_3137" data-name="Grupo 3137">
                <path id="Trazado_3521" data-name="Trazado 3521" d="M1965.432,7793.589s4.85-19.292,10.3-19.808c4.137-.392,13.021,15.008,12.046,20.312S1965.432,7793.589,1965.432,7793.589Z" fill="#fefefe"/>
              </g>
              <g id="Grupo_3138" data-name="Grupo 3138">
                <path id="Trazado_3522" data-name="Trazado 3522" d="M1967.32,7792.132s4.014-15.965,8.525-16.392c3.423-.325,10.776,12.42,9.969,16.81S1967.32,7792.132,1967.32,7792.132Z" fill="#2e6da0"/>
              </g>
            </g>
            <g id="Grupo_3157" data-name="Grupo 3157">
              <g id="Grupo_3145" data-name="Grupo 3145">
                <g id="Grupo_3144" data-name="Grupo 3144">
                  <g id="Grupo_3142" data-name="Grupo 3142">
                    <g id="Grupo_3141" data-name="Grupo 3141">
                      <g id="Grupo_3140" data-name="Grupo 3140" clip-path="url(#clip-path-3)">
                        <rect id="Rectángulo_2706" data-name="Rectángulo 2706" width="0.344" height="25.953" transform="translate(1953.068 7787.182)" fill="#2f2f2d"/>
                        <rect id="Rectángulo_2707" data-name="Rectángulo 2707" width="0.303" height="25.953" transform="translate(1953.412 7787.182)" fill="#2f2f2d"/>
                        <rect id="Rectángulo_2708" data-name="Rectángulo 2708" width="0.303" height="25.953" transform="translate(1953.715 7787.182)" fill="#30302e"/>
                        <rect id="Rectángulo_2709" data-name="Rectángulo 2709" width="0.303" height="25.953" transform="translate(1954.018 7787.182)" fill="#31312f"/>
                        <rect id="Rectángulo_2710" data-name="Rectángulo 2710" width="0.303" height="25.953" transform="translate(1954.321 7787.182)" fill="#323230"/>
                        <rect id="Rectángulo_2711" data-name="Rectángulo 2711" width="0.303" height="25.953" transform="translate(1954.624 7787.182)" fill="#333331"/>
                        <rect id="Rectángulo_2712" data-name="Rectángulo 2712" width="0.303" height="25.953" transform="translate(1954.927 7787.182)" fill="#343432"/>
                        <rect id="Rectángulo_2713" data-name="Rectángulo 2713" width="0.303" height="25.953" transform="translate(1955.23 7787.182)" fill="#353533"/>
                        <rect id="Rectángulo_2714" data-name="Rectángulo 2714" width="0.303" height="25.953" transform="translate(1955.533 7787.182)" fill="#363634"/>
                        <rect id="Rectángulo_2715" data-name="Rectángulo 2715" width="0.303" height="25.953" transform="translate(1955.836 7787.182)" fill="#373735"/>
                        <rect id="Rectángulo_2716" data-name="Rectángulo 2716" width="0.303" height="25.953" transform="translate(1956.14 7787.182)" fill="#383836"/>
                        <rect id="Rectángulo_2717" data-name="Rectángulo 2717" width="0.303" height="25.953" transform="translate(1956.443 7787.182)" fill="#393937"/>
                        <rect id="Rectángulo_2718" data-name="Rectángulo 2718" width="0.303" height="25.953" transform="translate(1956.746 7787.182)" fill="#3a3a38"/>
                        <rect id="Rectángulo_2719" data-name="Rectángulo 2719" width="0.303" height="25.953" transform="translate(1957.049 7787.182)" fill="#3a3b39"/>
                        <rect id="Rectángulo_2720" data-name="Rectángulo 2720" width="0.303" height="25.953" transform="translate(1957.352 7787.182)" fill="#3b3c3a"/>
                        <rect id="Rectángulo_2721" data-name="Rectángulo 2721" width="0.303" height="25.953" transform="translate(1957.655 7787.182)" fill="#3c3d3b"/>
                        <rect id="Rectángulo_2722" data-name="Rectángulo 2722" width="0.303" height="25.953" transform="translate(1957.958 7787.182)" fill="#3d3e3c"/>
                        <rect id="Rectángulo_2723" data-name="Rectángulo 2723" width="0.303" height="25.953" transform="translate(1958.261 7787.182)" fill="#3e3f3d"/>
                        <rect id="Rectángulo_2724" data-name="Rectángulo 2724" width="0.303" height="25.953" transform="translate(1958.564 7787.182)" fill="#3f403e"/>
                        <rect id="Rectángulo_2725" data-name="Rectángulo 2725" width="0.303" height="25.953" transform="translate(1958.867 7787.182)" fill="#40403f"/>
                        <rect id="Rectángulo_2726" data-name="Rectángulo 2726" width="0.303" height="25.953" transform="translate(1959.17 7787.182)" fill="#414140"/>
                        <rect id="Rectángulo_2727" data-name="Rectángulo 2727" width="0.303" height="25.953" transform="translate(1959.473 7787.182)" fill="#424241"/>
                        <rect id="Rectángulo_2728" data-name="Rectángulo 2728" width="0.303" height="25.953" transform="translate(1959.776 7787.182)" fill="#434342"/>
                        <rect id="Rectángulo_2729" data-name="Rectángulo 2729" width="0.303" height="25.953" transform="translate(1960.079 7787.182)" fill="#444443"/>
                        <rect id="Rectángulo_2730" data-name="Rectángulo 2730" width="0.303" height="25.953" transform="translate(1960.383 7787.182)" fill="#454544"/>
                        <rect id="Rectángulo_2731" data-name="Rectángulo 2731" width="0.303" height="25.953" transform="translate(1960.686 7787.182)" fill="#464645"/>
                        <rect id="Rectángulo_2732" data-name="Rectángulo 2732" width="0.303" height="25.953" transform="translate(1960.989 7787.182)" fill="#474746"/>
                        <rect id="Rectángulo_2733" data-name="Rectángulo 2733" width="0.303" height="25.953" transform="translate(1961.292 7787.182)" fill="#484847"/>
                        <rect id="Rectángulo_2734" data-name="Rectángulo 2734" width="0.303" height="25.953" transform="translate(1961.595 7787.182)" fill="#494948"/>
                        <rect id="Rectángulo_2735" data-name="Rectángulo 2735" width="0.303" height="25.953" transform="translate(1961.898 7787.182)" fill="#4a4a49"/>
                        <rect id="Rectángulo_2736" data-name="Rectángulo 2736" width="0.303" height="25.953" transform="translate(1962.201 7787.182)" fill="#4b4b4a"/>
                        <rect id="Rectángulo_2737" data-name="Rectángulo 2737" width="0.303" height="25.953" transform="translate(1962.504 7787.182)" fill="#4c4c4b"/>
                        <rect id="Rectángulo_2738" data-name="Rectángulo 2738" width="0.303" height="25.953" transform="translate(1962.807 7787.182)" fill="#4d4d4c"/>
                        <rect id="Rectángulo_2739" data-name="Rectángulo 2739" width="0.303" height="25.953" transform="translate(1963.11 7787.182)" fill="#4e4e4d"/>
                        <rect id="Rectángulo_2740" data-name="Rectángulo 2740" width="0.303" height="25.953" transform="translate(1963.413 7787.182)" fill="#4f4f4e"/>
                        <rect id="Rectángulo_2741" data-name="Rectángulo 2741" width="0.303" height="25.953" transform="translate(1963.716 7787.182)" fill="#50504f"/>
                        <rect id="Rectángulo_2742" data-name="Rectángulo 2742" width="0.303" height="25.953" transform="translate(1964.019 7787.182)" fill="#505151"/>
                        <rect id="Rectángulo_2743" data-name="Rectángulo 2743" width="0.303" height="25.953" transform="translate(1964.322 7787.182)" fill="#515252"/>
                        <rect id="Rectángulo_2744" data-name="Rectángulo 2744" width="0.303" height="25.953" transform="translate(1964.625 7787.182)" fill="#525353"/>
                        <rect id="Rectángulo_2745" data-name="Rectángulo 2745" width="0.303" height="25.953" transform="translate(1964.929 7787.182)" fill="#535454"/>
                        <rect id="Rectángulo_2746" data-name="Rectángulo 2746" width="0.303" height="25.953" transform="translate(1965.232 7787.182)" fill="#545555"/>
                        <rect id="Rectángulo_2747" data-name="Rectángulo 2747" width="0.303" height="25.953" transform="translate(1965.535 7787.182)" fill="#555656"/>
                        <rect id="Rectángulo_2748" data-name="Rectángulo 2748" width="0.303" height="25.953" transform="translate(1965.838 7787.182)" fill="#565757"/>
                        <rect id="Rectángulo_2749" data-name="Rectángulo 2749" width="0.303" height="25.953" transform="translate(1966.141 7787.182)" fill="#575858"/>
                        <rect id="Rectángulo_2750" data-name="Rectángulo 2750" width="0.303" height="25.953" transform="translate(1966.444 7787.182)" fill="#585959"/>
                        <rect id="Rectángulo_2751" data-name="Rectángulo 2751" width="0.303" height="25.953" transform="translate(1966.747 7787.182)" fill="#595a5a"/>
                        <rect id="Rectángulo_2752" data-name="Rectángulo 2752" width="0.303" height="25.953" transform="translate(1967.05 7787.182)" fill="#5a5b5b"/>
                        <rect id="Rectángulo_2753" data-name="Rectángulo 2753" width="0.303" height="25.953" transform="translate(1967.353 7787.182)" fill="#5b5c5c"/>
                        <rect id="Rectángulo_2754" data-name="Rectángulo 2754" width="0.303" height="25.953" transform="translate(1967.656 7787.182)" fill="#5c5d5d"/>
                        <rect id="Rectángulo_2755" data-name="Rectángulo 2755" width="0.303" height="25.953" transform="translate(1967.959 7787.182)" fill="#5d5e5e"/>
                        <rect id="Rectángulo_2756" data-name="Rectángulo 2756" width="0.303" height="25.953" transform="translate(1968.262 7787.182)" fill="#5e5f5f"/>
                        <rect id="Rectángulo_2757" data-name="Rectángulo 2757" width="0.303" height="25.953" transform="translate(1968.565 7787.182)" fill="#5f6060"/>
                        <rect id="Rectángulo_2758" data-name="Rectángulo 2758" width="0.303" height="25.953" transform="translate(1968.869 7787.182)" fill="#606161"/>
                        <rect id="Rectángulo_2759" data-name="Rectángulo 2759" width="0.303" height="25.953" transform="translate(1969.172 7787.182)" fill="#616162"/>
                        <rect id="Rectángulo_2760" data-name="Rectángulo 2760" width="0.303" height="25.953" transform="translate(1969.475 7787.182)" fill="#626263"/>
                        <rect id="Rectángulo_2761" data-name="Rectángulo 2761" width="0.303" height="25.953" transform="translate(1969.778 7787.182)" fill="#636364"/>
                        <rect id="Rectángulo_2762" data-name="Rectángulo 2762" width="0.303" height="25.953" transform="translate(1970.081 7787.182)" fill="#646465"/>
                        <rect id="Rectángulo_2763" data-name="Rectángulo 2763" width="0.303" height="25.953" transform="translate(1970.384 7787.182)" fill="#656566"/>
                        <rect id="Rectángulo_2764" data-name="Rectángulo 2764" width="0.303" height="25.953" transform="translate(1970.687 7787.182)" fill="#666667"/>
                        <rect id="Rectángulo_2765" data-name="Rectángulo 2765" width="0.303" height="25.953" transform="translate(1970.99 7787.182)" fill="#666768"/>
                        <rect id="Rectángulo_2766" data-name="Rectángulo 2766" width="0.303" height="25.953" transform="translate(1971.293 7787.182)" fill="#676869"/>
                        <rect id="Rectángulo_2767" data-name="Rectángulo 2767" width="0.303" height="25.953" transform="translate(1971.596 7787.182)" fill="#68696a"/>
                        <rect id="Rectángulo_2768" data-name="Rectángulo 2768" width="0.303" height="25.953" transform="translate(1971.899 7787.182)" fill="#696a6b"/>
                        <rect id="Rectángulo_2769" data-name="Rectángulo 2769" width="0.303" height="25.953" transform="translate(1972.202 7787.182)" fill="#6a6b6c"/>
                        <rect id="Rectángulo_2770" data-name="Rectángulo 2770" width="0.303" height="25.953" transform="translate(1972.505 7787.182)" fill="#6b6c6d"/>
                        <rect id="Rectángulo_2771" data-name="Rectángulo 2771" width="0.303" height="25.953" transform="translate(1972.808 7787.182)" fill="#6c6d6e"/>
                        <rect id="Rectángulo_2772" data-name="Rectángulo 2772" width="0.303" height="25.953" transform="translate(1973.112 7787.182)" fill="#6d6e6f"/>
                        <rect id="Rectángulo_2773" data-name="Rectángulo 2773" width="0.303" height="25.953" transform="translate(1973.415 7787.182)" fill="#6e6f70"/>
                        <rect id="Rectángulo_2774" data-name="Rectángulo 2774" width="0.303" height="25.953" transform="translate(1973.718 7787.182)" fill="#6f7071"/>
                        <rect id="Rectángulo_2775" data-name="Rectángulo 2775" width="0.303" height="25.953" transform="translate(1974.021 7787.182)" fill="#707172"/>
                        <rect id="Rectángulo_2776" data-name="Rectángulo 2776" width="0.303" height="25.953" transform="translate(1974.324 7787.182)" fill="#717273"/>
                        <rect id="Rectángulo_2777" data-name="Rectángulo 2777" width="6.913" height="25.953" transform="translate(1974.627 7787.182)" fill="#717273"/>
                        <rect id="Rectángulo_2778" data-name="Rectángulo 2778" width="0.25" height="25.953" transform="translate(1981.54 7787.182)" fill="#717273"/>
                        <rect id="Rectángulo_2779" data-name="Rectángulo 2779" width="0.25" height="25.953" transform="translate(1981.79 7787.182)" fill="#707172"/>
                        <rect id="Rectángulo_2780" data-name="Rectángulo 2780" width="0.25" height="25.953" transform="translate(1982.04 7787.182)" fill="#6f7071"/>
                        <rect id="Rectángulo_2781" data-name="Rectángulo 2781" width="0.25" height="25.953" transform="translate(1982.291 7787.182)" fill="#6e6f70"/>
                        <rect id="Rectángulo_2782" data-name="Rectángulo 2782" width="0.25" height="25.953" transform="translate(1982.541 7787.182)" fill="#6d6e6f"/>
                        <rect id="Rectángulo_2783" data-name="Rectángulo 2783" width="0.25" height="25.953" transform="translate(1982.791 7787.182)" fill="#6c6d6e"/>
                        <rect id="Rectángulo_2784" data-name="Rectángulo 2784" width="0.25" height="25.953" transform="translate(1983.041 7787.182)" fill="#6b6c6d"/>
                        <rect id="Rectángulo_2785" data-name="Rectángulo 2785" width="0.25" height="25.953" transform="translate(1983.292 7787.182)" fill="#6a6b6c"/>
                        <rect id="Rectángulo_2786" data-name="Rectángulo 2786" width="0.25" height="25.953" transform="translate(1983.542 7787.182)" fill="#696a6b"/>
                        <rect id="Rectángulo_2787" data-name="Rectángulo 2787" width="0.25" height="25.953" transform="translate(1983.792 7787.182)" fill="#68696a"/>
                        <rect id="Rectángulo_2788" data-name="Rectángulo 2788" width="0.25" height="25.953" transform="translate(1984.042 7787.182)" fill="#676869"/>
                        <rect id="Rectángulo_2789" data-name="Rectángulo 2789" width="0.25" height="25.953" transform="translate(1984.293 7787.182)" fill="#666768"/>
                        <rect id="Rectángulo_2790" data-name="Rectángulo 2790" width="0.25" height="25.953" transform="translate(1984.543 7787.182)" fill="#666667"/>
                        <rect id="Rectángulo_2791" data-name="Rectángulo 2791" width="0.25" height="25.953" transform="translate(1984.793 7787.182)" fill="#656566"/>
                        <rect id="Rectángulo_2792" data-name="Rectángulo 2792" width="0.25" height="25.953" transform="translate(1985.044 7787.182)" fill="#646465"/>
                        <rect id="Rectángulo_2793" data-name="Rectángulo 2793" width="0.25" height="25.953" transform="translate(1985.294 7787.182)" fill="#636364"/>
                        <rect id="Rectángulo_2794" data-name="Rectángulo 2794" width="0.25" height="25.953" transform="translate(1985.544 7787.182)" fill="#626263"/>
                        <rect id="Rectángulo_2795" data-name="Rectángulo 2795" width="0.25" height="25.953" transform="translate(1985.795 7787.182)" fill="#616162"/>
                        <rect id="Rectángulo_2796" data-name="Rectángulo 2796" width="0.25" height="25.953" transform="translate(1986.045 7787.182)" fill="#606161"/>
                        <rect id="Rectángulo_2797" data-name="Rectángulo 2797" width="0.25" height="25.953" transform="translate(1986.295 7787.182)" fill="#5f6060"/>
                        <rect id="Rectángulo_2798" data-name="Rectángulo 2798" width="0.25" height="25.953" transform="translate(1986.545 7787.182)" fill="#5e5f5f"/>
                        <rect id="Rectángulo_2799" data-name="Rectángulo 2799" width="0.25" height="25.953" transform="translate(1986.796 7787.182)" fill="#5d5e5e"/>
                        <rect id="Rectángulo_2800" data-name="Rectángulo 2800" width="0.25" height="25.953" transform="translate(1987.046 7787.182)" fill="#5c5d5d"/>
                        <rect id="Rectángulo_2801" data-name="Rectángulo 2801" width="0.25" height="25.953" transform="translate(1987.296 7787.182)" fill="#5b5c5c"/>
                        <rect id="Rectángulo_2802" data-name="Rectángulo 2802" width="0.25" height="25.953" transform="translate(1987.547 7787.182)" fill="#5a5b5b"/>
                        <rect id="Rectángulo_2803" data-name="Rectángulo 2803" width="0.25" height="25.953" transform="translate(1987.797 7787.182)" fill="#595a5a"/>
                        <rect id="Rectángulo_2804" data-name="Rectángulo 2804" width="0.25" height="25.953" transform="translate(1988.047 7787.182)" fill="#585959"/>
                        <rect id="Rectángulo_2805" data-name="Rectángulo 2805" width="0.25" height="25.953" transform="translate(1988.297 7787.182)" fill="#575858"/>
                        <rect id="Rectángulo_2806" data-name="Rectángulo 2806" width="0.25" height="25.953" transform="translate(1988.548 7787.182)" fill="#565757"/>
                        <rect id="Rectángulo_2807" data-name="Rectángulo 2807" width="0.25" height="25.953" transform="translate(1988.798 7787.182)" fill="#555656"/>
                        <rect id="Rectángulo_2808" data-name="Rectángulo 2808" width="0.25" height="25.953" transform="translate(1989.048 7787.182)" fill="#545555"/>
                        <rect id="Rectángulo_2809" data-name="Rectángulo 2809" width="0.25" height="25.953" transform="translate(1989.299 7787.182)" fill="#535454"/>
                        <rect id="Rectángulo_2810" data-name="Rectángulo 2810" width="0.25" height="25.953" transform="translate(1989.549 7787.182)" fill="#525353"/>
                        <rect id="Rectángulo_2811" data-name="Rectángulo 2811" width="0.25" height="25.953" transform="translate(1989.799 7787.182)" fill="#515252"/>
                        <rect id="Rectángulo_2812" data-name="Rectángulo 2812" width="0.25" height="25.953" transform="translate(1990.049 7787.182)" fill="#505151"/>
                        <rect id="Rectángulo_2813" data-name="Rectángulo 2813" width="0.25" height="25.953" transform="translate(1990.3 7787.182)" fill="#50504f"/>
                        <rect id="Rectángulo_2814" data-name="Rectángulo 2814" width="0.25" height="25.953" transform="translate(1990.55 7787.182)" fill="#4f4f4e"/>
                        <rect id="Rectángulo_2815" data-name="Rectángulo 2815" width="0.25" height="25.953" transform="translate(1990.8 7787.182)" fill="#4e4e4d"/>
                        <rect id="Rectángulo_2816" data-name="Rectángulo 2816" width="0.25" height="25.953" transform="translate(1991.051 7787.182)" fill="#4d4d4c"/>
                        <rect id="Rectángulo_2817" data-name="Rectángulo 2817" width="0.25" height="25.953" transform="translate(1991.301 7787.182)" fill="#4c4c4b"/>
                        <rect id="Rectángulo_2818" data-name="Rectángulo 2818" width="0.25" height="25.953" transform="translate(1991.551 7787.182)" fill="#4b4b4a"/>
                        <rect id="Rectángulo_2819" data-name="Rectángulo 2819" width="0.25" height="25.953" transform="translate(1991.802 7787.182)" fill="#4a4a49"/>
                        <rect id="Rectángulo_2820" data-name="Rectángulo 2820" width="0.25" height="25.953" transform="translate(1992.052 7787.182)" fill="#494948"/>
                        <rect id="Rectángulo_2821" data-name="Rectángulo 2821" width="0.25" height="25.953" transform="translate(1992.302 7787.182)" fill="#484847"/>
                        <rect id="Rectángulo_2822" data-name="Rectángulo 2822" width="0.25" height="25.953" transform="translate(1992.552 7787.182)" fill="#474746"/>
                        <rect id="Rectángulo_2823" data-name="Rectángulo 2823" width="0.25" height="25.953" transform="translate(1992.803 7787.182)" fill="#464645"/>
                        <rect id="Rectángulo_2824" data-name="Rectángulo 2824" width="0.25" height="25.953" transform="translate(1993.053 7787.182)" fill="#454544"/>
                        <rect id="Rectángulo_2825" data-name="Rectángulo 2825" width="0.25" height="25.953" transform="translate(1993.303 7787.182)" fill="#444443"/>
                        <rect id="Rectángulo_2826" data-name="Rectángulo 2826" width="0.25" height="25.953" transform="translate(1993.553 7787.182)" fill="#434342"/>
                        <rect id="Rectángulo_2827" data-name="Rectángulo 2827" width="0.25" height="25.953" transform="translate(1993.804 7787.182)" fill="#424241"/>
                        <rect id="Rectángulo_2828" data-name="Rectángulo 2828" width="0.25" height="25.953" transform="translate(1994.054 7787.182)" fill="#414140"/>
                        <rect id="Rectángulo_2829" data-name="Rectángulo 2829" width="0.25" height="25.953" transform="translate(1994.304 7787.182)" fill="#40403f"/>
                        <rect id="Rectángulo_2830" data-name="Rectángulo 2830" width="0.25" height="25.953" transform="translate(1994.555 7787.182)" fill="#3f403e"/>
                        <rect id="Rectángulo_2831" data-name="Rectángulo 2831" width="0.25" height="25.953" transform="translate(1994.805 7787.182)" fill="#3e3f3d"/>
                        <rect id="Rectángulo_2832" data-name="Rectángulo 2832" width="0.25" height="25.953" transform="translate(1995.055 7787.182)" fill="#3d3e3c"/>
                        <rect id="Rectángulo_2833" data-name="Rectángulo 2833" width="0.25" height="25.953" transform="translate(1995.306 7787.182)" fill="#3c3d3b"/>
                        <rect id="Rectángulo_2834" data-name="Rectángulo 2834" width="0.25" height="25.953" transform="translate(1995.556 7787.182)" fill="#3b3c3a"/>
                        <rect id="Rectángulo_2835" data-name="Rectángulo 2835" width="0.25" height="25.953" transform="translate(1995.806 7787.182)" fill="#3a3b39"/>
                        <rect id="Rectángulo_2836" data-name="Rectángulo 2836" width="0.25" height="25.953" transform="translate(1996.056 7787.182)" fill="#3a3a38"/>
                        <rect id="Rectángulo_2837" data-name="Rectángulo 2837" width="0.25" height="25.953" transform="translate(1996.307 7787.182)" fill="#393937"/>
                        <rect id="Rectángulo_2838" data-name="Rectángulo 2838" width="0.25" height="25.953" transform="translate(1996.557 7787.182)" fill="#383836"/>
                        <rect id="Rectángulo_2839" data-name="Rectángulo 2839" width="0.25" height="25.953" transform="translate(1996.807 7787.182)" fill="#373735"/>
                        <rect id="Rectángulo_2840" data-name="Rectángulo 2840" width="0.25" height="25.953" transform="translate(1997.058 7787.182)" fill="#363634"/>
                        <rect id="Rectángulo_2841" data-name="Rectángulo 2841" width="0.25" height="25.953" transform="translate(1997.308 7787.182)" fill="#353533"/>
                        <rect id="Rectángulo_2842" data-name="Rectángulo 2842" width="0.25" height="25.953" transform="translate(1997.558 7787.182)" fill="#343432"/>
                        <rect id="Rectángulo_2843" data-name="Rectángulo 2843" width="0.25" height="25.953" transform="translate(1997.808 7787.182)" fill="#333331"/>
                        <rect id="Rectángulo_2844" data-name="Rectángulo 2844" width="0.25" height="25.953" transform="translate(1998.059 7787.182)" fill="#323230"/>
                        <rect id="Rectángulo_2845" data-name="Rectángulo 2845" width="0.25" height="25.953" transform="translate(1998.309 7787.182)" fill="#31312f"/>
                        <rect id="Rectángulo_2846" data-name="Rectángulo 2846" width="0.25" height="25.953" transform="translate(1998.559 7787.182)" fill="#30302e"/>
                        <rect id="Rectángulo_2847" data-name="Rectángulo 2847" width="0.25" height="25.953" transform="translate(1998.81 7787.182)" fill="#2f2f2d"/>
                        <rect id="Rectángulo_2848" data-name="Rectángulo 2848" width="1.266" height="25.953" transform="translate(1999.06 7787.182)" fill="#2f2f2d"/>
                      </g>
                    </g>
                  </g>
                  <g id="Grupo_3143" data-name="Grupo 3143">
                    <path id="Trazado_3524" data-name="Trazado 3524" d="M1957.468,7812.94a1.027,1.027,0,0,1-.385-.074,1.669,1.669,0,0,1-.87-1.224c-.234-.868-.338-1.359-.384-1.632-.292-.086-.9-.539-1.862-5.408-.9-4.512-.658-5.136-.423-5.3a19.969,19.969,0,0,1-.416-3.095c0-1.338.514-1.563,1.19-1.72l.048-.011c1.544-.361,8.05-1.775,8.115-1.789l.283-.061.056.284c.369,1.885.975,4.912,1.1,5.371a.668.668,0,0,0,.106.042,12.77,12.77,0,0,1,25.169-1.109l.018.006.036.264.013.068a1.063,1.063,0,0,0,.22-.09c.078-.375.5-3.5.749-5.429l.037-.287.287.043c.066.01,6.649,1,8.213,1.266l.048.008c.685.113,1.215.3,1.3,1.638a20,20,0,0,1-.216,3.118c.245.152.522.76-.084,5.32-.652,4.921-1.226,5.411-1.512,5.516-.029.275-.1.772-.278,1.653a1.67,1.67,0,0,1-.791,1.277,1.123,1.123,0,0,1-.891.015l-8.624-.706.4-5.3a12.77,12.77,0,0,1-22.283.984l.7,5-8.561,1.256A1.171,1.171,0,0,1,1957.468,7812.94Zm-1.077-4.073-.03.851a11.059,11.059,0,0,0,.4,1.777c.123.458.307.75.531.844a.568.568,0,0,0,.449-.033l.047-.026.055-.01,8.052-1.181-.75-5.343.724-.257.116.212a12.2,12.2,0,0,0,21.8-.73l.1-.22.845.24-.407,5.38,8.168.669.05.025h0a.559.559,0,0,0,.448,0,1.194,1.194,0,0,0,.475-.875,10.823,10.823,0,0,0,.285-1.809l-.033-.834.421.5c.174-.252.614-1.234,1.112-4.99a23.057,23.057,0,0,0,.342-4.53l-.469.612.166-1.093a21.874,21.874,0,0,0,.257-3.32c-.061-.985-.316-1.026-.823-1.11l-.049-.008c-1.373-.23-6.63-1.027-7.919-1.222-.312,2.391-.682,5.135-.757,5.314-.034.08-.135.315-.909.476l-.291.06-.055-.348c-.018-.11-.035-.221-.056-.33l-.016-.078a12.2,12.2,0,0,0-24.116,1.214l-.029.307-.3-.055c-.592-.107-.742-.266-.806-.393-.087-.176-.632-2.891-1.1-5.257-1.274.277-6.469,1.409-7.824,1.726l-.049.011c-.5.116-.753.174-.751,1.163a22.093,22.093,0,0,0,.469,3.295l.235,1.08-.506-.581a23.007,23.007,0,0,0,.631,4.5c.743,3.746,1.247,4.683,1.432,4.914Zm41.857-.685,0,0Z" fill="#424242"/>
                  </g>
                </g>
              </g>
              <g id="Grupo_3148" data-name="Grupo 3148">
                <g id="Grupo_3146" data-name="Grupo 3146">
                  <circle id="Elipse_163" data-name="Elipse 163" cx="9.26" cy="9.26" r="9.26" transform="translate(1967.44 7790.602)" fill="#d8d8d8"/>
                </g>
                <g id="Grupo_3147" data-name="Grupo 3147">
                  <path id="Trazado_3525" data-name="Trazado 3525" d="M1976.7,7809.406a9.544,9.544,0,1,1,9.543-9.849h0a9.544,9.544,0,0,1-9.234,9.845C1976.9,7809.4,1976.8,7809.406,1976.7,7809.406Zm.011-18.521c-.1,0-.2,0-.294.005a8.977,8.977,0,0,0,.283,17.949c.1,0,.194,0,.291,0a8.977,8.977,0,0,0,8.685-9.259h0a8.976,8.976,0,0,0-8.965-8.69Z" fill="#424242"/>
                </g>
              </g>
              <g id="Grupo_3153" data-name="Grupo 3153">
                <g id="Grupo_3150" data-name="Grupo 3150">
                  <g id="Grupo_3149" data-name="Grupo 3149">
                    <path id="Trazado_3526" data-name="Trazado 3526" d="M1976.92,7806.728a6.869,6.869,0,1,1,6.646-7.086A6.877,6.877,0,0,1,1976.92,7806.728Zm-.418-13.049a6.186,6.186,0,1,0,6.381,5.985A6.193,6.193,0,0,0,1976.5,7793.679Z" fill="#717273"/>
                  </g>
                </g>
                <g id="Grupo_3152" data-name="Grupo 3152">
                  <g id="Grupo_3151" data-name="Grupo 3151">
                    <path id="Trazado_3527" data-name="Trazado 3527" d="M1976.86,7804.85a4.991,4.991,0,1,1,4.828-5.148A5,5,0,0,1,1976.86,7804.85Zm-.3-9.294a4.308,4.308,0,1,0,4.444,4.168A4.312,4.312,0,0,0,1976.562,7795.556Z" fill="#717273"/>
                  </g>
                </g>
              </g>
              <g id="Grupo_3156" data-name="Grupo 3156">
                <g id="Grupo_3154" data-name="Grupo 3154">
                  <path id="Trazado_3528" data-name="Trazado 3528" d="M1985.679,7798.509l-7.858.175-.176-7.878-2.39.077.176,7.858-7.878.176.076,2.39,7.858-.176.176,7.878,2.39-.077-.175-7.858,7.878-.176Z" fill="#717273"/>
                </g>
                <g id="Grupo_3155" data-name="Grupo 3155">
                  <path id="Trazado_3529" data-name="Trazado 3529" d="M1975.386,7809.3l-.176-7.881-7.856.176-.094-2.957,7.881-.176-.176-7.855,2.957-.095.176,7.881,7.855-.175.095,2.956-7.881.177.175,7.855Zm.378-8.46.176,7.875,1.823-.058-.176-7.861,7.876-.176-.059-1.822-7.86.175-.176-7.876-1.823.059.176,7.861-7.876.175.058,1.823Z" fill="#424242"/>
                </g>
              </g>
            </g>
            <g id="Grupo_3159" data-name="Grupo 3159" opacity="0.42">
              <g id="Grupo_3158" data-name="Grupo 3158">
                <path id="Trazado_3530" data-name="Trazado 3530" d="M1947.146,7786.863a24.267,24.267,0,0,0-2.111,8.212c-.338,4.474.527,9.223-1.383,13.283l2.177-3.418a9.583,9.583,0,0,0,1.261-2.484,11.79,11.79,0,0,0,.234-3.166,25.833,25.833,0,0,1,5.061-15.172c.741-1,4.532-7.948.9-5.976C1950.593,7779.6,1948.367,7784.186,1947.146,7786.863Z" fill="#9d9fa2"/>
              </g>
            </g>
            <g id="Grupo_3161" data-name="Grupo 3161" opacity="0.42">
              <g id="Grupo_3160" data-name="Grupo 3160">
                <path id="Trazado_3531" data-name="Trazado 3531" d="M2002.815,7770.675a37.189,37.189,0,0,1,2.661,3.78c1.039,2.093.961,4.554,1.617,6.8.354,1.209.92,2.349,1.252,3.564a20.841,20.841,0,0,1,.427,5.8q-.043,3.308.064,6.618a20.307,20.307,0,0,0,.722,5.5c.4,1.245,1.012,2.416,1.331,3.683.488,1.94.256,4.026.893,5.923a3.125,3.125,0,0,1,.275,1.227c-.035.421-.377.856-.8.81-.464-.051-.677-.592-.793-1.045-1.623-6.342-3.257-12.768-3.23-19.315.012-3.107.4-6.257-.254-9.3a27.834,27.834,0,0,0-1.775-5.028,60.726,60.726,0,0,0-2.573-5.508,18.218,18.218,0,0,1-1.534-3.1,14.051,14.051,0,0,1-.513-3.487c-.072-1.169.413-1.748,1.09-.6C2002.272,7768,2002.055,7769.53,2002.815,7770.675Z" fill="#9d9fa2"/>
              </g>
            </g>
            <g id="Grupo_3163" data-name="Grupo 3163" opacity="0.42">
              <g id="Grupo_3162" data-name="Grupo 3162">
                <path id="Trazado_3532" data-name="Trazado 3532" d="M1976.508,7751.37a3.765,3.765,0,0,0-3.371-.5,34.1,34.1,0,0,0-3.283,1.322,37.7,37.7,0,0,1-5.875,1.306,30.955,30.955,0,0,0-7.9,2.587c2.716.493,6.551-1.5,9.19-2.178q2.831-.732,5.682-1.374C1971.7,7752.364,1975.993,7750.937,1976.508,7751.37Z" fill="#9d9fa2"/>
              </g>
            </g>
          </g>
          <g id="Grupo_3181" data-name="Grupo 3181">
            <g id="Grupo_3180" data-name="Grupo 3180">
              <g id="Grupo_3179" data-name="Grupo 3179">
                <g id="Grupo_3170" data-name="Grupo 3170">
                  <g id="Grupo_3165" data-name="Grupo 3165" opacity="0.78">
                    <path id="Trazado_3533" data-name="Trazado 3533" d="M1992.191,7849.538l12.638-15.916c2.46-3.1,4.222-6.107,3.663-8.829s.366-3.858.366-3.858l-6.575-4.065-5.45-5.483s-.9,1.159-3.673,1.231-5.31,2.47-7.77,5.569l-12.638,15.916s-5.464,5.779,4.63,13.925v0l.1.077.1.08,0,0C1987.8,7856.17,1992.191,7849.538,1992.191,7849.538Z" fill="#75c8da"/>
                  </g>
                  <g id="Grupo_3168" data-name="Grupo 3168">
                    <g id="Grupo_3166" data-name="Grupo 3166">
                      <path id="Trazado_3534" data-name="Trazado 3534" d="M2000.159,7819.546s3.731,3.658,6.488,4.178c0,0,1.346,3.294-5.888,12.156A14.19,14.19,0,0,0,2000.159,7819.546Z" fill="#b8f5ff"/>
                    </g>
                    <g id="Grupo_3167" data-name="Grupo 3167">
                      <path id="Trazado_3535" data-name="Trazado 3535" d="M1983.912,7851.689c-14.144-8.714-10.6-16.3-10.019-17.027l10.515-13.243c4.727-5.954,7.629-7.612,9.907-7.487s3.078-.929,3.078-.929l-.059-1.111-.5-.5s-.9,1.159-3.673,1.231-5.31,2.47-7.77,5.569l-12.638,15.916s-5.464,5.779,4.63,13.925v0l.1.077.1.08,0,0a19.469,19.469,0,0,0,6.332,3.5Z" fill="#5baebc"/>
                    </g>
                  </g>
                  <g id="Grupo_3169" data-name="Grupo 3169">
                    <path id="Trazado_3536" data-name="Trazado 3536" d="M2000.943,7836.17c-2.471-.577-5.114.1-7.571-.532-1.563-.4-3.019-1.332-4.633-1.323-1.565.009-3,.9-4.564,1.024a19.543,19.543,0,0,1-3.252-.312,3.7,3.7,0,0,0-3.047.841c-.437.457-.7,1.109-1.267,1.388-.946.467-2.3-.32-3.05.419a1.942,1.942,0,0,0-.44.973c-.174.739-.321,1.487-.421,2.24.631,1.939,2.158,4.248,5.33,6.807v0c.031.025.062.048.093.072l.092.075v0c9.555,7.465,13.66,1.265,13.66,1.265l10.035-12.638A8.162,8.162,0,0,0,2000.943,7836.17Z" fill="#fffad2"/>
                  </g>
                </g>
                <g id="Grupo_3178" data-name="Grupo 3178">
                  <g id="Grupo_3171" data-name="Grupo 3171">
                    <path id="Trazado_3537" data-name="Trazado 3537" d="M2012.374,7817.328c-.608.766-3.964-.888-7.5-3.693s-5.9-5.7-5.3-6.466,3.965.888,7.5,3.693S2012.982,7816.563,2012.374,7817.328Z" fill="#5cb5c4"/>
                  </g>
                  <g id="Grupo_3172" data-name="Grupo 3172">
                    <path id="Trazado_3538" data-name="Trazado 3538" d="M2011.757,7818.106l.617-.778c-1.336.291-6.455-3.688-7.1-4.194s-5.675-4.6-5.7-5.965l-.617.778s.269.432-.3.376l-.662.834s.14.347-.275.346l-.852,1.073s-.464,1.568,5.373,6.232h0l.067.053.067.053h0c5.866,4.628,7.288,3.82,7.288,3.82l.851-1.073c-.119-.4.275-.346.275-.346l.663-.834C2011.275,7817.942,2011.757,7818.106,2011.757,7818.106Z" fill="#75c8da"/>
                  </g>
                  <g id="Grupo_3177" data-name="Grupo 3177">
                    <g id="Grupo_3176" data-name="Grupo 3176" clip-path="url(#clip-path-4)">
                      <g id="Grupo_3175" data-name="Grupo 3175" opacity="0.5">
                        <g id="Grupo_3173" data-name="Grupo 3173">
                          <path id="Trazado_3539" data-name="Trazado 3539" d="M1998.963,7807.947a33.274,33.274,0,0,0,12.794,10.159l-.3.376a31.636,31.636,0,0,1-12.8-10.159Z" fill="#258e7a"/>
                        </g>
                        <g id="Grupo_3174" data-name="Grupo 3174">
                          <path id="Trazado_3540" data-name="Trazado 3540" d="M1998,7809.157a33.281,33.281,0,0,0,12.794,10.159l-.3.376a31.63,31.63,0,0,1-12.794-10.159Z" fill="#258e7a"/>
                        </g>
                      </g>
                    </g>
                  </g>
                </g>
              </g>
            </g>
          </g>
          <g id="Grupo_3199" data-name="Grupo 3199">
            <g id="Grupo_3184" data-name="Grupo 3184">
              <g id="Grupo_3182" data-name="Grupo 3182">
                <path id="Trazado_3542" data-name="Trazado 3542" d="M2002.5,7852.049l9.157,17.739s1.1,2.889,7.311.629c8.177-2.978,3.323-11.977,3.323-11.977l-9.134-12.734S2006.8,7844.939,2002.5,7852.049Z" fill="#fefefe"/>
              </g>
              <g id="Grupo_3183" data-name="Grupo 3183">
                <path id="Trazado_3543" data-name="Trazado 3543" d="M2014.836,7871.567c-2.655,0-3.354-1.462-3.437-1.66l-9.224-17.869.082-.136c4.342-7.183,10.869-6.485,10.934-6.477l.124.015,9.226,12.865c.1.186,2.434,4.586,1.007,8.336a7.023,7.023,0,0,1-4.483,4.042A12.584,12.584,0,0,1,2014.836,7871.567Zm-12.011-19.506,9.1,17.627c.01.023,1.115,2.584,6.949.462a6.482,6.482,0,0,0,4.147-3.711c1.3-3.406-.821-7.567-.968-7.85l-9.046-12.61C2012.126,7845.927,2006.647,7845.868,2002.825,7852.061Z" fill="#5e5e5e"/>
              </g>
            </g>
            <g id="Grupo_3185" data-name="Grupo 3185">
              <path id="Trazado_3544" data-name="Trazado 3544" d="M2015.838,7848.487l-7.1-7.311s2.025-1.128,1.335-6.642,3.26-7.879.354-9.674-4.556,4.908-4.808,7.314c0,0-2.223-10.441-8.915-13.615a2,2,0,0,0-2.111.247c-1.083.815-.319,2.721,1.91,4.941,2.39,2.379,3.47,6.858,3.514,8,0,0-5.715-10.514-10.29-10.949a1.88,1.88,0,0,0-1.95,2.66c.495,1.583,3.984,4.8,5.465,6.805a11.908,11.908,0,0,1,1.892,3.415s-6.683-7.215-11.223-8.109c0,0-2.67.369-2.327,2.775.235,1.62.975,2.116,3.186,3.3s6.011,5.063,6.011,5.063-5.421-3.136-9.248-2.768c0,0-3.449.541-2.521,2.373s3.882,2.754,6.774,3.41,5.672,2,6.353,2.89,4.41,4.993,6.788,4.022l5.266,9.849A20.132,20.132,0,0,0,2015.838,7848.487Z" fill="#1da262"/>
            </g>
            <g id="Grupo_3196" data-name="Grupo 3196">
              <g id="Grupo_3191" data-name="Grupo 3191" opacity="0.5">
                <g id="Grupo_3186" data-name="Grupo 3186">
                  <path id="Trazado_3545" data-name="Trazado 3545" d="M1979.366,7834.823c2.661-.482,5.2.375,7.85,1.343a26.631,26.631,0,0,1,5.375,2.559,8.915,8.915,0,0,0-1.874-2.125l.1.107s-5.42-3.136-9.248-2.768A5.27,5.27,0,0,0,1979.366,7834.823Z" fill="#00773b"/>
                </g>
                <g id="Grupo_3187" data-name="Grupo 3187">
                  <path id="Trazado_3546" data-name="Trazado 3546" d="M1996.37,7836.686a16.113,16.113,0,0,0-1.544-3.345c-1.4-1.454-6.947-6.977-10.877-7.752a3.425,3.425,0,0,0-1.74.839,7.1,7.1,0,0,1,3.247,1A36,36,0,0,1,1996.37,7836.686Z" fill="#00773b"/>
                </g>
                <g id="Grupo_3188" data-name="Grupo 3188">
                  <path id="Trazado_3547" data-name="Trazado 3547" d="M1999.608,7821.816a27.23,27.23,0,0,1,5.726,13.415,11.341,11.341,0,0,0,.288-3.078c-.113-.519-2.393-10.5-8.914-13.589a2.012,2.012,0,0,0-1.973.164l.417.021C1996.915,7818.886,1998.562,7820.536,1999.608,7821.816Z" fill="#00773b"/>
                </g>
                <g id="Grupo_3189" data-name="Grupo 3189">
                  <path id="Trazado_3548" data-name="Trazado 3548" d="M2014.937,7849.714c.318-.391.623-.793.918-1.228l-7.1-7.311s2.025-1.128,1.336-6.642,3.26-7.878.353-9.674a1.96,1.96,0,0,0-.6-.249,2.667,2.667,0,0,1,.393,2.061c-.182,1.029-.706,1.962-.879,3a26.029,26.029,0,0,0-.233,3.691,13.069,13.069,0,0,1-.881,5.405,10.332,10.332,0,0,1-1.391,2.091C2009.475,7843.887,2012.141,7846.864,2014.937,7849.714Z" fill="#00773b"/>
                </g>
                <g id="Grupo_3190" data-name="Grupo 3190">
                  <path id="Trazado_3549" data-name="Trazado 3549" d="M2000.541,7835.6a10.132,10.132,0,0,0-.52-4.007.924.924,0,0,1,.008.157s-5.715-10.513-10.29-10.948a2.464,2.464,0,0,0-1.764.691,7,7,0,0,1,3.81,1.8A35.422,35.422,0,0,1,2000.541,7835.6Z" fill="#00773b"/>
                </g>
              </g>
              <g id="Grupo_3192" data-name="Grupo 3192" opacity="0.5">
                <path id="Trazado_3550" data-name="Trazado 3550" d="M1998.987,7845.921c-3.675-.338-5.9-3.782-8.614-5.841a8.947,8.947,0,0,0-4.014-1.387,13.852,13.852,0,0,1-6.374-2.635c-.043-.04-.149.1-.118.143,2.436,3.209,6.934,2.6,10.26,4.2,3.441,1.657,4.359,5.99,8.749,5.714C1998.948,7846.131,1999.063,7845.93,1998.987,7845.921Z" fill="#00773b"/>
              </g>
              <g id="Grupo_3193" data-name="Grupo 3193" opacity="0.5">
                <path id="Trazado_3551" data-name="Trazado 3551" d="M2001.978,7849.91a10.206,10.206,0,0,0-1.471-2.378c-.044-.048-.157.112-.129.156.485.808.773,1.76,1.256,2.593s.916,1.678,1.43,2.481c.044.06.141-.082.122-.131A28.823,28.823,0,0,0,2001.978,7849.91Z" fill="#00773b"/>
              </g>
              <g id="Grupo_3194" data-name="Grupo 3194" opacity="0.5">
                <path id="Trazado_3552" data-name="Trazado 3552" d="M1997.287,7822.522c-.907-1-2.255-1.915-2.284-3.42,0-.087-.118.043-.126.064a2.9,2.9,0,0,0,.811,2.745,11.919,11.919,0,0,0,1.579,1.378,9.213,9.213,0,0,1,1.672,2.494c.04.06.145-.082.126-.131A8.731,8.731,0,0,0,1997.287,7822.522Z" fill="#00773b"/>
              </g>
              <g id="Grupo_3195" data-name="Grupo 3195" opacity="0.5">
                <path id="Trazado_3553" data-name="Trazado 3553" d="M2009.269,7825.1c-2.052.6-2.464,3.868-2.764,5.548-.036.193.2-.01.228-.1.678-1.7.806-4.156,2.471-5.246C2009.224,7825.29,2009.375,7825.062,2009.269,7825.1Z" fill="#00773b"/>
              </g>
            </g>
            <g id="Grupo_3198" data-name="Grupo 3198">
              <g id="Grupo_3197" data-name="Grupo 3197" opacity="0.8">
                <path id="Trazado_3554" data-name="Trazado 3554" d="M2006.3,7858.112l5.3,10.485a4.121,4.121,0,0,0,4.859,2.21,12.711,12.711,0,0,1-3.886-2.833c-1.824-1.953-5.569-10-5.569-10Z" fill="#c6c6c6"/>
              </g>
            </g>
          </g>
          <g id="Grupo_3207" data-name="Grupo 3207">
            <g id="Grupo_3200" data-name="Grupo 3200">
              <path id="Trazado_3555" data-name="Trazado 3555" d="M1967.129,7812.64c-.014,1.107-4.167,1.95-9.276,1.883s-9.238-1.02-9.223-2.127,4.168-1.95,9.276-1.882S1967.144,7811.533,1967.129,7812.64Z" fill="#db9405"/>
            </g>
            <g id="Grupo_3201" data-name="Grupo 3201">
              <path id="Trazado_3556" data-name="Trazado 3556" d="M1967.114,7813.765l.015-1.125c-1,1.186-8.338,1.165-9.266,1.158s-8.268-.19-9.233-1.4l-.015,1.125s.541.2-.007.543l-.016,1.206s.366.214-.006.5l-.021,1.552s.669,1.726,9.13,1.864h.1l.1,0h0c8.461.085,9.175-1.624,9.175-1.624l.021-1.551a.272.272,0,0,1,.006-.5l.016-1.206C1966.569,7813.951,1967.114,7813.765,1967.114,7813.765Z" fill="#efa500"/>
            </g>
            <g id="Grupo_3206" data-name="Grupo 3206">
              <g id="Grupo_3205" data-name="Grupo 3205" clip-path="url(#clip-path-5)">
                <g id="Grupo_3204" data-name="Grupo 3204">
                  <g id="Grupo_3202" data-name="Grupo 3202">
                    <path id="Trazado_3557" data-name="Trazado 3557" d="M1948.615,7813.521a37.691,37.691,0,0,0,18.5.244l-.007.543a35.821,35.821,0,0,1-18.5-.244Z" fill="#db9405"/>
                  </g>
                  <g id="Grupo_3203" data-name="Grupo 3203">
                    <path id="Trazado_3558" data-name="Trazado 3558" d="M1948.592,7815.27a37.691,37.691,0,0,0,18.5.244l-.007.543a35.809,35.809,0,0,1-18.5-.244Z" fill="#db9405"/>
                  </g>
                </g>
              </g>
            </g>
          </g>
          <g id="Grupo_3210" data-name="Grupo 3210">
            <g id="Grupo_3208" data-name="Grupo 3208">
              <path id="Trazado_3560" data-name="Trazado 3560" d="M1959.192,7806.117c-2.786-1.222-19.539,2.723-23.517,7.325s-4.989,11.075-4.989,11.075l-9.6,9.732,12.056,10.609,7.483-10.846s3.637-.029,3.916-4.573l.64-2.686,2.045.466s-2.22,1.484-1.625,3.741,4.764-.212,6.028-3.546,5.109-6.56,3.679-10.089-3.954-4-3.954-4,1.468-2.224,2.91-2.557c.728-.166,1.883-.133,2.91-.282,3.4,3.566,6.814,2.2,6.851.149C1964.1,7808.5,1959.192,7806.117,1959.192,7806.117Z" fill="#1da262"/>
            </g>
            <g id="Grupo_3209" data-name="Grupo 3209">
              <path id="Trazado_3561" data-name="Trazado 3561" d="M1960.085,7810.275c-2.444-1.663-4.814-2.17-7.566-.832-2.165,1.069-4.157,2.91-6.09,4.294,3.176-.3,6.207.075,5.887,3.663a.416.416,0,0,1-.416.416c-.8.058-1.6.083-2.407.116.956.32,2.145.8,2.528,1.754.415,1.023-.545,2.137-1.518,2.391a8.572,8.572,0,0,1-2.91.133,2.759,2.759,0,0,1,1.509,3.379.415.415,0,0,1-.508.3h0c-1.663-.316-3.326-.495-4.964-.715-.727,3.812-2.469,9.02-6.214,7.553a73.752,73.752,0,0,0-4.615,5.886,38.367,38.367,0,0,1-2.723,3.576l3.068,2.693,7.483-10.845s3.637-.03,3.916-4.573l.64-2.686,2.045.466s-2.219,1.484-1.625,3.741,4.764-.212,6.028-3.546,5.109-6.56,3.679-10.089-3.954-4-3.954-4,1.468-2.224,2.91-2.557c.728-.166,1.884-.133,2.91-.283,3.122,3.276,6.236,2.391,6.768.628C1962.438,7811.838,1961.4,7811.193,1960.085,7810.275Z" fill="#00773b"/>
            </g>
          </g>
          <g id="Grupo_3218" data-name="Grupo 3218">
            <g id="Grupo_3211" data-name="Grupo 3211">
              <path id="Trazado_3562" data-name="Trazado 3562" d="M1946.28,7821.761s4.689.927,5.317,2.12-.088,3.666-.088,3.666.333-2.723-.457-3.666S1946.28,7821.761,1946.28,7821.761Z" fill="#00773b"/>
            </g>
            <g id="Grupo_3212" data-name="Grupo 3212">
              <path id="Trazado_3563" data-name="Trazado 3563" d="M1946.571,7817.591s7.9.329,8.214,4.157C1954.785,7821.761,1955.808,7817.342,1946.571,7817.591Z" fill="#00773b"/>
            </g>
            <g id="Grupo_3213" data-name="Grupo 3213">
              <path id="Trazado_3564" data-name="Trazado 3564" d="M1946.571,7813.713a9.758,9.758,0,0,1,4.664-.258S1949.418,7812.386,1946.571,7813.713Z" fill="#00773b"/>
            </g>
            <g id="Grupo_3214" data-name="Grupo 3214">
              <path id="Trazado_3565" data-name="Trazado 3565" d="M1951.214,7807.011c.682-.208-11.6,3.459-14.4,5.957-2.732,2.432-5.384,11.287-5.384,11.287s3.783-8.248,6.207-10.759C1940.942,7810.054,1951.214,7807.011,1951.214,7807.011Z" fill="#00773b"/>
            </g>
            <g id="Grupo_3215" data-name="Grupo 3215">
              <path id="Trazado_3566" data-name="Trazado 3566" d="M1944.978,7817.849s4.345-.561,6.39,1.426A17.987,17.987,0,0,0,1944.978,7817.849Z" fill="#00773b"/>
            </g>
            <g id="Grupo_3216" data-name="Grupo 3216">
              <path id="Trazado_3567" data-name="Trazado 3567" d="M1943.656,7815.159s3.817-2.178,6.448-1.143A17.97,17.97,0,0,0,1943.656,7815.159Z" fill="#00773b"/>
            </g>
            <g id="Grupo_3217" data-name="Grupo 3217">
              <path id="Trazado_3568" data-name="Trazado 3568" d="M1944.222,7822.01s2.972,0,3.937.981C1948.159,7822.991,1944.908,7822.638,1944.222,7822.01Z" fill="#00773b"/>
            </g>
          </g>
          <g id="Grupo_3219" data-name="Grupo 3219">
            <path id="Trazado_3569" data-name="Trazado 3569" d="M1943.22,7912.114l-.428-.372a11.786,11.786,0,0,0,1.87-12.247c-.118-.271-.248-.544-.378-.819-.191-.4-.383-.807-.548-1.216a12.651,12.651,0,0,0-1.248,4.924l-.567.013a13.479,13.479,0,0,1,1.322-5.23c.069-.175.14-.35.209-.525a3.8,3.8,0,0,1-.035-2.194,5.742,5.742,0,0,1,.864-1.57c.082-.118.166-.238.247-.359l0-.058a6.813,6.813,0,0,0-1.184-4.028,14.265,14.265,0,0,0-1.68-1.9,10.035,10.035,0,0,1-2.284-2.959,6.409,6.409,0,0,1,.137-5.128,4.59,4.59,0,0,1,1.468-1.783,2.379,2.379,0,0,1,1.239-.574l.112.555a3.229,3.229,0,0,0-1.044.5,2.928,2.928,0,0,0-.836,2.417,6.444,6.444,0,0,0,2.016,3.459c.206.212.418.421.629.63a12.211,12.211,0,0,1,2.2,2.632,6.322,6.322,0,0,1-.1,6.243q-.056.093-.114.183a13.15,13.15,0,0,1-1.034,3.963,14,14,0,0,0,.743,1.769c.133.28.265.559.386.834A12.363,12.363,0,0,1,1943.22,7912.114Zm1.157-18.363a3.6,3.6,0,0,0-.418.864,2.772,2.772,0,0,0-.113.988A13.373,13.373,0,0,0,1944.377,7893.751Zm-4.5-14.714a5.826,5.826,0,0,0,.025,4.307,9.485,9.485,0,0,0,2.166,2.785,14.7,14.7,0,0,1,1.746,1.983,7.386,7.386,0,0,1,1.249,3.429,5.758,5.758,0,0,0-.254-4.99,11.8,11.8,0,0,0-2.1-2.5c-.215-.212-.429-.424-.638-.639a6.944,6.944,0,0,1-2.171-3.784A3.265,3.265,0,0,1,1939.877,7879.037Z" fill="#d3bb2f"/>
          </g>
          <g id="Grupo_3220" data-name="Grupo 3220">
            <path id="Trazado_3570" data-name="Trazado 3570" d="M1942.9,7875.28a3.4,3.4,0,0,0-1.649-2.2c-.365-.241-.762-.456-1.146-.663a12.268,12.268,0,0,1-1.518-.92,3.451,3.451,0,0,1-1.585-2.812,2.509,2.509,0,0,1,.951-1.808,3.12,3.12,0,0,1,2.377-.7,4.316,4.316,0,0,1,3.243,2.84,9.346,9.346,0,0,1,.349,4.3l-.564-.06a8.837,8.837,0,0,0-.315-4.037,3.746,3.746,0,0,0-2.792-2.48,2.547,2.547,0,0,0-1.935.579,1.947,1.947,0,0,0-.747,1.4,3.028,3.028,0,0,0,1.357,2.331,11.752,11.752,0,0,0,1.449.876c.4.213.8.434,1.188.688a3.938,3.938,0,0,1,1.9,2.607Z" fill="#d3bb2f"/>
          </g>
          <g id="Grupo_3221" data-name="Grupo 3221">
            <path id="Trazado_3571" data-name="Trazado 3571" d="M1939.209,7875.671c-.33,0-.661,0-.988-.01-.219,0-.407,0-.555-.008h0a4.764,4.764,0,0,1-3.256-1.078,2.611,2.611,0,0,1-.47-3.359c1-1.317,3-.932,3.808-.706.2.056,4.908,1.392,5.573,3.558a.84.84,0,0,1-.124.784C1942.674,7875.543,1940.976,7875.671,1939.209,7875.671Zm-1.54-.585c.15,0,.341,0,.562.008,1.2.022,4.016.074,4.511-.584a.273.273,0,0,0,.035-.275c-.427-1.39-3.333-2.662-5.183-3.178h0c-.7-.2-2.414-.538-3.2.5a2.058,2.058,0,0,0,.406,2.6,4.22,4.22,0,0,0,2.868.925Z" fill="#d3bb2f"/>
          </g>
          <g id="Grupo_3228" data-name="Grupo 3228" opacity="0.57">
            <g id="Grupo_3222" data-name="Grupo 3222">
              <path id="Trazado_3572" data-name="Trazado 3572" d="M1966.873,7896.749a24.316,24.316,0,0,1,2.577,2.517c.665.792,1.227,1.667,1.884,2.467a26.358,26.358,0,0,0,3.432,3.281,30.077,30.077,0,0,0,6.366,4.507,40.215,40.215,0,0,0,4.3,1.585,31.432,31.432,0,0,0,4.653,1.385,24.934,24.934,0,0,0,7.748-.285c1.9-.27,3.907-.582,5.413-1.778a60.187,60.187,0,0,1-32.8-12.277c-1.83-1.407-4.439-4.083-6.812-4.28C1964.666,7894.874,1965.793,7895.795,1966.873,7896.749Z" fill="#ddc54b"/>
            </g>
            <g id="Grupo_3223" data-name="Grupo 3223">
              <path id="Trazado_3573" data-name="Trazado 3573" d="M1986.54,7887.907a.425.425,0,0,0,.124.322c.119.087.284.028.418-.032,6.083-2.695,13.056-2.046,19.672-1.345-3.433-.6-6.637-2.226-10.093-2.672-2.452-.317-5.218-.121-7.065-1.764-1.7-1.516-1.961-4.023-2.458-6.249a16.558,16.558,0,0,0-2.211-5.4c-.771-1.19-2.613-3.737-4.143-3.753.034,1.375,1.592,3.446,2.131,4.793a48.372,48.372,0,0,1,1.743,5.222A61.382,61.382,0,0,1,1986.54,7887.907Z" fill="#ddc54b"/>
            </g>
            <g id="Grupo_3224" data-name="Grupo 3224">
              <path id="Trazado_3574" data-name="Trazado 3574" d="M1991.989,7852.364a12.124,12.124,0,0,1-4.92.576,35.814,35.814,0,0,1,10.019,1.128,23.375,23.375,0,0,0,.833-3.66c.138-1.325-.132-1.76-1.052-.7A8.761,8.761,0,0,1,1991.989,7852.364Z" fill="#ddc54b"/>
            </g>
            <g id="Grupo_3225" data-name="Grupo 3225">
              <path id="Trazado_3575" data-name="Trazado 3575" d="M1942.521,7874.541c2.316-.2,4.518,1.129,6.842,1.175a12.463,12.463,0,0,0,1.662-.115l3.461-.394c.66-.075,2.592.054,3.008-.512.32-.437-.157-1.864-.51-2.242-.533-.57-.961-.424-1.655-.272A97.755,97.755,0,0,1,1942.521,7874.541Z" fill="#ddc54b"/>
            </g>
            <g id="Grupo_3226" data-name="Grupo 3226">
              <path id="Trazado_3576" data-name="Trazado 3576" d="M1948.01,7876.541a23.8,23.8,0,0,1,4.477,1.452l-1.4,2.939a5.211,5.211,0,0,0-3.174-2.59l-3.043-1.089c-.756-.271-3.686-2.315-1.7-2.621.687-.1,1.685.672,2.291.942A21.848,21.848,0,0,0,1948.01,7876.541Z" fill="#ddc54b"/>
            </g>
            <g id="Grupo_3227" data-name="Grupo 3227">
              <path id="Trazado_3577" data-name="Trazado 3577" d="M1953.048,7948.246a45.959,45.959,0,0,1,10.007.922c8.44,1.554,16.69,4.207,25.232,5.026a24.007,24.007,0,0,0,8.429-.39q-2.2-.365-4.408-.733a105.534,105.534,0,0,1-16.342-3.66c-6.173-2.079-12.194-5.312-18.707-5.219a37.549,37.549,0,0,0-4.55.436,5.866,5.866,0,0,0-5.252,3.106c-.5.714-1.065,1.417-1.5,2.169,1.095-.188,2.186-.911,3.311-1.179A16.521,16.521,0,0,1,1953.048,7948.246Z" fill="#ddc54b"/>
            </g>
          </g>
        </g>
        <g id="Grupo_3232" data-name="Grupo 3232">
          <g id="Grupo_3230" data-name="Grupo 3230">
            <path id="Trazado_3578" data-name="Trazado 3578" d="M2005.635,7860.285a14.186,14.186,0,0,0,.633,3.313,8.252,8.252,0,0,0,.542,1l.617,1.027c.457.762.915,1.525,1.444,2.239a14.212,14.212,0,0,0,2.513,2.606,4.636,4.636,0,0,0,2.25,1.124,5.481,5.481,0,0,0,1.809-.182c2.583-.556,5.364-1.228,7.059-3.255a6.14,6.14,0,0,0,.6-6.82,11.123,11.123,0,0,1-.832-1.461c-.194-.5-.244-1.046-.422-1.552a6.5,6.5,0,0,0-.826-1.471l-4.781-7.015c-.248-.364-.565-.767-1.005-.771a1.343,1.343,0,0,0-.663.234,41.287,41.287,0,0,0-7.415,5.39c-.642.586-2.005,1.169-2.234,1.956C2004.645,7857.6,2005.475,7859.321,2005.635,7860.285Z" fill="#fefefe"/>
          </g>
          <g id="Grupo_3231" data-name="Grupo 3231">
            <path id="Trazado_3579" data-name="Trazado 3579" d="M2014,7871.9a3.381,3.381,0,0,1-.4-.024,4.947,4.947,0,0,1-2.392-1.185,14.412,14.412,0,0,1-2.564-2.658c-.538-.726-1.007-1.507-1.46-2.262l-.616-1.027a6.544,6.544,0,0,1-1.084-3.455c-.037-.318-.076-.647-.128-.963h0a9.388,9.388,0,0,0-.308-1.121,5.227,5.227,0,0,1-.4-2.638c.182-.623.869-1.077,1.533-1.517a6.821,6.821,0,0,0,.783-.569,41.678,41.678,0,0,1,7.466-5.427,1.66,1.66,0,0,1,.8-.271c.631.007,1.04.606,1.237.9l4.782,7.015a5.158,5.158,0,0,1,1.062,2.3,5.4,5.4,0,0,0,.216.781,5.488,5.488,0,0,0,.519.945c.1.157.2.315.294.477a6.457,6.457,0,0,1-.626,7.143c-1.692,2.024-4.379,2.739-7.217,3.35A7.162,7.162,0,0,1,2014,7871.9Zm-8.087-11.667c.054.33.094.665.132.99a8.092,8.092,0,0,0,.481,2.259,8.289,8.289,0,0,0,.526.97l.616,1.027c.446.744.907,1.512,1.429,2.216a13.865,13.865,0,0,0,2.463,2.554,4.438,4.438,0,0,0,2.106,1.064,5.3,5.3,0,0,0,1.715-.178c2.738-.59,5.325-1.275,6.9-3.16a5.873,5.873,0,0,0,.569-6.5c-.088-.155-.184-.3-.28-.456a5.977,5.977,0,0,1-.57-1.044,5.8,5.8,0,0,1-.24-.862,6.434,6.434,0,0,0-.186-.7,6.262,6.262,0,0,0-.792-1.4L2016,7850c-.228-.334-.479-.644-.773-.647a1.124,1.124,0,0,0-.52.2,41.113,41.113,0,0,0-7.364,5.353,7.2,7.2,0,0,1-.852.623c-.552.365-1.177.78-1.3,1.2a4.967,4.967,0,0,0,.394,2.309,9.7,9.7,0,0,1,.327,1.2Z" fill="#5e5e5e"/>
          </g>
        </g>
      </g>
    </g>
  </g>
</svg>
