<svg xmlns="http://www.w3.org/2000/svg" width="97.738" height="142.159" viewBox="0 0 97.738 142.159">
  <g id="Grupo_3382" data-name="Grupo 3382" transform="translate(-1931.782 -9285.646)">
    <g id="Grupo_3344" data-name="Grupo 3344">
      <rect id="Rectángulo_2876" data-name="Rectángulo 2876" width="97.738" height="129.077" rx="3.614" transform="translate(1931.782 9298.729)" fill="#2b596e"/>
    </g>
    <g id="Grupo_3345" data-name="Grupo 3345">
      <rect id="Rectángulo_2877" data-name="Rectángulo 2877" width="116.035" height="84.88" transform="translate(2023.092 9305.25) rotate(90)" fill="#fff"/>
    </g>
    <g id="Grupo_3346" data-name="Grupo 3346">
      <path id="Trazado_4108" data-name="Trazado 4108" d="M2001.08,9296.392h-14.138a2.1,2.1,0,0,1-2.1-2.1h0a2.13,2.13,0,0,1,.279-1.041,5.113,5.113,0,1,0-8.935-.007,2.157,2.157,0,0,1,.282,1.049,2.1,2.1,0,0,1-2.1,2.1h-14.138a1.6,1.6,0,0,0-1.6,1.605v9.461h44.067V9298A1.606,1.606,0,0,0,2001.08,9296.392Zm-20.429-4.409a1.519,1.519,0,1,1,1.52-1.52A1.519,1.519,0,0,1,1980.651,9291.982Z" fill="#fe5e5a"/>
    </g>
    <g id="Grupo_3347" data-name="Grupo 3347">
      <path id="Trazado_4109" data-name="Trazado 4109" d="M1958.073,9332.336h-10.9v-10.9h10.9Zm-8.822-2.075H1956v-6.747h-6.747Z" fill="#e0e0e0"/>
    </g>
    <g id="Grupo_3348" data-name="Grupo 3348">
      <path id="Trazado_4110" data-name="Trazado 4110" d="M1951.865,9329.623a.89.89,0,0,1-.839-.6c-.018-.054-1.86-5.264-4.488-7.663a.889.889,0,0,1,1.2-1.313,19.59,19.59,0,0,1,3.98,5.99,22.4,22.4,0,0,1,5.817-8.579.89.89,0,0,1,1.157,1.353,20.4,20.4,0,0,0-5.955,10.1.891.891,0,0,1-.813.705Z" fill="#fe5e5a"/>
    </g>
    <g id="Grupo_3349" data-name="Grupo 3349">
      <path id="Trazado_4111" data-name="Trazado 4111" d="M1958.073,9354.339h-10.9v-10.9h10.9Zm-8.822-2.075H1956v-6.747h-6.747Z" fill="#e0e0e0"/>
    </g>
    <g id="Grupo_3350" data-name="Grupo 3350">
      <path id="Trazado_4112" data-name="Trazado 4112" d="M1951.865,9351.626a.889.889,0,0,1-.839-.6c-.018-.053-1.86-5.264-4.488-7.663a.889.889,0,0,1,1.2-1.313,19.59,19.59,0,0,1,3.98,5.99,22.4,22.4,0,0,1,5.817-8.579.89.89,0,0,1,1.157,1.353,20.4,20.4,0,0,0-5.955,10.1.891.891,0,0,1-.813.705Z" fill="#fe5e5a"/>
    </g>
    <g id="Grupo_3351" data-name="Grupo 3351">
      <path id="Trazado_4113" data-name="Trazado 4113" d="M1958.073,9376.343h-10.9v-10.9h10.9Zm-8.822-2.075H1956v-6.748h-6.747Z" fill="#e0e0e0"/>
    </g>
    <g id="Grupo_3352" data-name="Grupo 3352">
      <path id="Trazado_4114" data-name="Trazado 4114" d="M1951.865,9373.629a.889.889,0,0,1-.839-.6c-.018-.052-1.86-5.262-4.488-7.663a.889.889,0,0,1,1.2-1.313,19.59,19.59,0,0,1,3.98,5.99,22.387,22.387,0,0,1,5.817-8.578.89.89,0,0,1,1.157,1.352,20.407,20.407,0,0,0-5.955,10.1.889.889,0,0,1-.813.705Z" fill="#fe5e5a"/>
    </g>
    <g id="Grupo_3353" data-name="Grupo 3353">
      <path id="Trazado_4115" data-name="Trazado 4115" d="M1958.073,9398.346h-10.9v-10.9h10.9Zm-8.822-2.074H1956v-6.747h-6.747Z" fill="#e0e0e0"/>
    </g>
    <g id="Grupo_3360" data-name="Grupo 3360">
      <g id="Grupo_3354" data-name="Grupo 3354">
        <path id="Trazado_4116" data-name="Trazado 4116" d="M1989.734,9324.645h-24.428a1.084,1.084,0,0,1-1.084-1.084h0a1.085,1.085,0,0,1,1.084-1.085h24.428a1.085,1.085,0,0,1,1.084,1.085h0A1.084,1.084,0,0,1,1989.734,9324.645Z" fill="#969696"/>
      </g>
      <g id="Grupo_3355" data-name="Grupo 3355">
        <path id="Trazado_4117" data-name="Trazado 4117" d="M2011.58,9324.645h-15.087a1.084,1.084,0,0,1-1.084-1.084h0a1.085,1.085,0,0,1,1.084-1.085h15.087a1.086,1.086,0,0,1,1.085,1.085h0A1.085,1.085,0,0,1,2011.58,9324.645Z" fill="#cbcbcb"/>
      </g>
      <g id="Grupo_3356" data-name="Grupo 3356">
        <path id="Trazado_4118" data-name="Trazado 4118" d="M2007.43,9329.056h-42.124a1.083,1.083,0,0,1-1.084-1.084h0a1.085,1.085,0,0,1,1.084-1.085h42.124a1.085,1.085,0,0,1,1.085,1.085h0A1.084,1.084,0,0,1,2007.43,9329.056Z" fill="#cbcbcb"/>
      </g>
      <g id="Grupo_3357" data-name="Grupo 3357">
        <path id="Trazado_4119" data-name="Trazado 4119" d="M1975.318,9333.467h-10.012a1.083,1.083,0,0,1-1.084-1.084h0a1.084,1.084,0,0,1,1.084-1.084h10.012a1.085,1.085,0,0,1,1.085,1.084h0A1.084,1.084,0,0,1,1975.318,9333.467Z" fill="#cbcbcb"/>
      </g>
      <g id="Grupo_3358" data-name="Grupo 3358">
        <path id="Trazado_4120" data-name="Trazado 4120" d="M1989.151,9333.467h-10.012a1.083,1.083,0,0,1-1.084-1.084h0a1.084,1.084,0,0,1,1.084-1.084h10.012a1.085,1.085,0,0,1,1.085,1.084h0A1.084,1.084,0,0,1,1989.151,9333.467Z" fill="#cbcbcb"/>
      </g>
      <g id="Grupo_3359" data-name="Grupo 3359">
        <path id="Trazado_4121" data-name="Trazado 4121" d="M2011.58,9333.467H1993.4a1.083,1.083,0,0,1-1.084-1.084h0a1.084,1.084,0,0,1,1.084-1.084h18.185a1.085,1.085,0,0,1,1.085,1.084h0A1.084,1.084,0,0,1,2011.58,9333.467Z" fill="#cbcbcb"/>
      </g>
    </g>
    <g id="Grupo_3365" data-name="Grupo 3365">
      <g id="Grupo_3361" data-name="Grupo 3361">
        <path id="Trazado_4122" data-name="Trazado 4122" d="M2011.58,9346.648h-46.274a1.084,1.084,0,0,1-1.084-1.084h0a1.083,1.083,0,0,1,1.084-1.084h46.274a1.084,1.084,0,0,1,1.085,1.084h0A1.085,1.085,0,0,1,2011.58,9346.648Z" fill="#969696"/>
      </g>
      <g id="Grupo_3362" data-name="Grupo 3362">
        <path id="Trazado_4123" data-name="Trazado 4123" d="M1998.143,9351.059h-32.837a1.083,1.083,0,0,1-1.084-1.084h0a1.084,1.084,0,0,1,1.084-1.084h32.837a1.084,1.084,0,0,1,1.084,1.084h0A1.083,1.083,0,0,1,1998.143,9351.059Z" fill="#cbcbcb"/>
      </g>
      <g id="Grupo_3363" data-name="Grupo 3363">
        <path id="Trazado_4124" data-name="Trazado 4124" d="M2011.58,9351.059h-8.7a1.083,1.083,0,0,1-1.084-1.084h0a1.084,1.084,0,0,1,1.084-1.084h8.7a1.085,1.085,0,0,1,1.085,1.084h0A1.084,1.084,0,0,1,2011.58,9351.059Z" fill="#cbcbcb"/>
      </g>
      <g id="Grupo_3364" data-name="Grupo 3364">
        <path id="Trazado_4125" data-name="Trazado 4125" d="M1989.734,9355.47h-24.428a1.083,1.083,0,0,1-1.084-1.084h0a1.084,1.084,0,0,1,1.084-1.084h24.428a1.084,1.084,0,0,1,1.084,1.084h0A1.083,1.083,0,0,1,1989.734,9355.47Z" fill="#cbcbcb"/>
      </g>
    </g>
    <g id="Grupo_3368" data-name="Grupo 3368">
      <g id="Grupo_3366" data-name="Grupo 3366">
        <path id="Trazado_4126" data-name="Trazado 4126" d="M1979.925,9410.486H1948.94a.726.726,0,0,1-.726-.727h0a.726.726,0,0,1,.726-.726h30.985a.726.726,0,0,1,.726.726h0A.726.726,0,0,1,1979.925,9410.486Z" fill="#fe8784"/>
      </g>
      <g id="Grupo_3367" data-name="Grupo 3367">
        <path id="Trazado_4127" data-name="Trazado 4127" d="M1970.927,9413.44H1948.94a.726.726,0,0,1-.726-.727h0a.726.726,0,0,1,.726-.726h21.987a.726.726,0,0,1,.726.726h0A.726.726,0,0,1,1970.927,9413.44Z" fill="#fe8784"/>
      </g>
    </g>
    <g id="Grupo_3373" data-name="Grupo 3373">
      <g id="Grupo_3369" data-name="Grupo 3369">
        <path id="Trazado_4128" data-name="Trazado 4128" d="M1981.963,9368.651h-16.657a1.084,1.084,0,0,1-1.084-1.084h0a1.083,1.083,0,0,1,1.084-1.084h16.657a1.083,1.083,0,0,1,1.084,1.084h0A1.084,1.084,0,0,1,1981.963,9368.651Z" fill="#969696"/>
      </g>
      <g id="Grupo_3370" data-name="Grupo 3370">
        <path id="Trazado_4129" data-name="Trazado 4129" d="M2011.58,9368.651h-25a1.084,1.084,0,0,1-1.084-1.084h0a1.083,1.083,0,0,1,1.084-1.084h25a1.084,1.084,0,0,1,1.085,1.084h0A1.085,1.085,0,0,1,2011.58,9368.651Z" fill="#969696"/>
      </g>
      <g id="Grupo_3371" data-name="Grupo 3371">
        <rect id="Rectángulo_2878" data-name="Rectángulo 2878" width="26.596" height="2.169" rx="0.58" transform="translate(1964.222 9370.894)" fill="#cbcbcb"/>
      </g>
      <g id="Grupo_3372" data-name="Grupo 3372">
        <rect id="Rectángulo_2879" data-name="Rectángulo 2879" width="17.256" height="2.169" rx="0.58" transform="translate(1995.409 9370.894)" fill="#cbcbcb"/>
      </g>
    </g>
    <g id="Grupo_3379" data-name="Grupo 3379">
      <g id="Grupo_3374" data-name="Grupo 3374">
        <path id="Trazado_4130" data-name="Trazado 4130" d="M1998.736,9390.655h-33.43a1.085,1.085,0,0,1-1.084-1.085h0a1.083,1.083,0,0,1,1.084-1.084h33.43a1.084,1.084,0,0,1,1.084,1.084h0A1.085,1.085,0,0,1,1998.736,9390.655Z" fill="#969696"/>
      </g>
      <g id="Grupo_3375" data-name="Grupo 3375">
        <path id="Trazado_4131" data-name="Trazado 4131" d="M1982.942,9395.066h-17.636a1.085,1.085,0,0,1-1.084-1.085h0a1.084,1.084,0,0,1,1.084-1.084h17.636a1.084,1.084,0,0,1,1.084,1.084h0A1.085,1.085,0,0,1,1982.942,9395.066Z" fill="#cbcbcb"/>
      </g>
      <g id="Grupo_3376" data-name="Grupo 3376">
        <path id="Trazado_4132" data-name="Trazado 4132" d="M2011.58,9395.066h-24.114a1.085,1.085,0,0,1-1.084-1.085h0a1.084,1.084,0,0,1,1.084-1.084h24.114a1.085,1.085,0,0,1,1.085,1.084h0A1.086,1.086,0,0,1,2011.58,9395.066Z" fill="#cbcbcb"/>
      </g>
      <g id="Grupo_3377" data-name="Grupo 3377">
        <path id="Trazado_4133" data-name="Trazado 4133" d="M1996.957,9399.477h-31.651a1.084,1.084,0,0,1-1.084-1.085h0a1.084,1.084,0,0,1,1.084-1.084h31.651a1.084,1.084,0,0,1,1.084,1.084h0A1.084,1.084,0,0,1,1996.957,9399.477Z" fill="#cbcbcb"/>
      </g>
      <g id="Grupo_3378" data-name="Grupo 3378">
        <path id="Trazado_4134" data-name="Trazado 4134" d="M2011.58,9399.477H2001.6a1.085,1.085,0,0,1-1.085-1.085h0a1.085,1.085,0,0,1,1.085-1.084h9.984a1.085,1.085,0,0,1,1.085,1.084h0A1.085,1.085,0,0,1,2011.58,9399.477Z" fill="#cbcbcb"/>
      </g>
    </g>
    <g id="Grupo_3381" data-name="Grupo 3381">
      <g id="Grupo_3380" data-name="Grupo 3380">
        <path id="Trazado_4135" data-name="Trazado 4135" d="M1951.629,9391.951a2.087,2.087,0,0,1-.1-.691c0-2.458,1.928-2.683,1.928-5.478,0-.8-.321-1.109-.883-1.109s-.884.3-.884,1.109V9387h-1.671v-1.109c0-1.8.884-2.827,2.6-2.827s2.6,1.028,2.6,2.827c0,2.925-2.088,3.374-2.088,5.431a2.783,2.783,0,0,0,.064.627Zm1.622.787v1.7h-1.7v-1.7Z" fill="#fe8784"/>
      </g>
    </g>
  </g>
</svg>
