<svg xmlns="http://www.w3.org/2000/svg" xmlns:xlink="http://www.w3.org/1999/xlink" width="71.952" height="133.894" viewBox="0 0 71.952 133.894">
  <defs>
    <clipPath id="clip-path">
      <path id="Trazado_3819" data-name="Trazado 3819" d="M1961.242,8367.981l-.586,1.064c1.553-.624,8.544,3.129,9.425,3.608s7.787,4.386,8.091,6.031l.586-1.064s-.413-.467.283-.514l.629-1.144s-.24-.389.26-.473l.808-1.469s.24-1.986-7.757-6.421h0l-.092-.05-.092-.051h0c-8.025-4.384-9.575-3.118-9.575-3.118l-.808,1.468a.3.3,0,0,1-.261.475l-.629,1.142C1961.858,8368.081,1961.242,8367.981,1961.242,8367.981Z" fill="none"/>
    </clipPath>
  </defs>
  <g id="Grupo_3271" data-name="Grupo 3271" transform="translate(-1958.926 -8321.275)">
    <g id="Grupo_3269" data-name="Grupo 3269">
      <path id="Trazado_3812" data-name="Trazado 3812" d="M2005.032,8340.7s5.41-8.091-8.436-15.854l0,0c-.046-.024-.091-.048-.136-.073s-.089-.051-.135-.075v0a32.089,32.089,0,0,0-3.711-1.726.987.987,0,0,0,.117.592,2.8,2.8,0,0,0,.7.881,4.435,4.435,0,0,0,.948.557,2.136,2.136,0,0,1,1.324,2.046,3,3,0,0,0,1.275,2.467c.483.367,1.006.683,1.509,1.022s1.032.649,1.5,1.035a2.783,2.783,0,0,1,1.111,3.048,1.37,1.37,0,0,0,.361,1.46.586.586,0,0,1,0,.9c-.167.194-.347.377-.523.563a.981.981,0,0,0-.162,1.2,3.61,3.61,0,0,0,.262.458,2.455,2.455,0,0,1,.341,2.064c-.149.605-.321,1.205-.455,1.814a2.431,2.431,0,0,0,.222,1.9c.415.667.373.867-.271,1.3a3.153,3.153,0,0,0-1.455,3.086,1.132,1.132,0,0,1-.211.676c-.709,1.007-1.448,1.993-2.172,2.989a1.406,1.406,0,0,0-.168,1.742,3.265,3.265,0,0,0-2.666,3.386,3.04,3.04,0,0,1-1.047,2.379c-1.5,1.351-2.947,2.759-4.512,4.025-2.165,1.751-4.417,3.395-6.632,5.083-.342.26-.693.394-1.061.018a4.481,4.481,0,0,0-1.886,2.272l1.553,1.11s.844-1.581,4.181-2.236,5.9-4.066,8.235-8.309S2005.032,8340.7,2005.032,8340.7Z" fill="#00a5ef"/>
      <path id="Trazado_3813" data-name="Trazado 3813" d="M1960.656,8369.046c.577-1.048,4.966.26,9.8,2.922s8.29,5.67,7.713,6.718-4.966-.26-9.8-2.922S1960.079,8370.094,1960.656,8369.046Z" fill="#e5e5e5" stroke="#757575" stroke-miterlimit="10" stroke-width="0.5" opacity="0.41"/>
      <path id="Trazado_3814" data-name="Trazado 3814" d="M1978.013,8372.12a6.49,6.49,0,0,1-.143.939c-.262.689-1.211.922-1.466,1.612-.229.621.2,1.382-.145,1.948a2.535,2.535,0,0,1-.626.573,2.406,2.406,0,0,0-.863,1.9,7.177,7.177,0,0,1,.145,1.941,5.245,5.245,0,0,0-.241.8,1.112,1.112,0,0,0,1.531.972,1.565,1.565,0,0,0,.748-1.852,2.142,2.142,0,0,1-.212-1,1.612,1.612,0,0,1,.508-.72,4.609,4.609,0,0,0,.981-1.536,3.483,3.483,0,0,1,.371-.824,4.053,4.053,0,0,1,.716-.645,3.545,3.545,0,0,0,1.188-3.3c-.076-.413-.215-.884.036-1.221.095-.128.239-.222.3-.368a.541.541,0,0,0-.236-.622C1979.674,8370.084,1978.224,8371.164,1978.013,8372.12Z" fill="#00a5ef"/>
      <path id="Trazado_3815" data-name="Trazado 3815" d="M1974.053,8382.7a6.388,6.388,0,0,1,.27.912c.056.734-.7,1.349-.641,2.083.057.658.766,1.167.7,1.824a2.511,2.511,0,0,1-.322.784,2.4,2.4,0,0,0,.025,2.083c.294.583.832,1.055.957,1.7a5.146,5.146,0,0,0,.123.828,1.112,1.112,0,0,0,1.8.229,1.568,1.568,0,0,0-.111-2c-.229-.259-.54-.479-.618-.815a1.613,1.613,0,0,1,.154-.868,4.619,4.619,0,0,0,.234-1.807,3.515,3.515,0,0,1-.015-.9,3.948,3.948,0,0,1,.375-.887,3.551,3.551,0,0,0-.327-3.488c-.245-.342-.572-.709-.488-1.121a2.078,2.078,0,0,0,.118-.461.541.541,0,0,0-.478-.463C1974.69,8380.15,1973.837,8381.744,1974.053,8382.7Z" fill="#00a5ef"/>
      <path id="Trazado_3816" data-name="Trazado 3816" d="M1961.242,8367.981l-.586,1.064c1.553-.624,8.544,3.129,9.425,3.608s7.787,4.386,8.091,6.031l.586-1.064s-.413-.467.283-.514l.629-1.144s-.24-.389.26-.473l.808-1.469s.24-1.986-7.757-6.421h0l-.092-.05-.092-.051h0c-8.025-4.384-9.575-3.118-9.575-3.118l-.808,1.468a.3.3,0,0,1-.261.475l-.629,1.142C1961.858,8368.081,1961.242,8367.981,1961.242,8367.981Z" fill="#f9f9f9" stroke="#757575" stroke-miterlimit="10" stroke-width="0.5" opacity="0.41"/>
      <g id="Grupo_3268" data-name="Grupo 3268">
        <g id="Grupo_3267" data-name="Grupo 3267" clip-path="url(#clip-path)">
          <g id="Grupo_3266" data-name="Grupo 3266" opacity="0.41">
            <path id="Trazado_3817" data-name="Trazado 3817" d="M1978.758,8377.621a40.721,40.721,0,0,0-17.516-9.64l.283-.515a38.711,38.711,0,0,1,17.516,9.641Z" fill="#e5e5e5"/>
            <path id="Trazado_3818" data-name="Trazado 3818" d="M1979.67,8375.964a40.745,40.745,0,0,0-17.516-9.639l.283-.516a38.711,38.711,0,0,1,17.516,9.641Z" fill="#e5e5e5"/>
          </g>
        </g>
      </g>
      <path id="Trazado_3820" data-name="Trazado 3820" d="M2000.025,8345.417a8.97,8.97,0,0,1-1.159.878,4.8,4.8,0,0,0-1.844,3.134,7.251,7.251,0,0,1-.484,2.814c1.378-.383,2.214-1.739,2.915-2.985a40.548,40.548,0,0,0,2.936-5.964c.288-.793.853-3.927-.949-2.677C2000.38,8341.354,2001.081,8344.312,2000.025,8345.417Z" fill="#b92932"/>
      <path id="Trazado_3821" data-name="Trazado 3821" d="M1991.147,8362.883a3.544,3.544,0,0,1-1.791,1.818l-4.3,2.438a.858.858,0,0,1-.64.163c-.474-.14-.307-.921.134-1.144a9.73,9.73,0,0,1,1.445-.3,3.333,3.333,0,0,0,1.554-1.578c1.369-2.153,3.67-5.372,6.144-6.231A29.518,29.518,0,0,1,1991.147,8362.883Z" fill="#b92932"/>
      <path id="Trazado_3822" data-name="Trazado 3822" d="M1978.419,8326.053l-11.992,21.79c-2.335,4.241-3.845,8.232-2.613,11.4s.347,4.729.347,4.729l8.765,3.561,7.7,5.5s.844-1.581,4.181-2.236,5.9-4.066,8.235-8.309l11.992-21.789s5.411-8.091-8.435-15.854l0,0c-.046-.024-.091-.048-.136-.073s-.089-.051-.135-.075v0C1982.36,8317.153,1978.419,8326.053,1978.419,8326.053Z" fill="#fff" stroke="#a0a0a0" stroke-miterlimit="10" stroke-width="0.75" opacity="0.68"/>
    </g>
    <g id="Grupo_3270" data-name="Grupo 3270">
      <rect id="Rectángulo_2863" data-name="Rectángulo 2863" width="56.337" height="38.072" transform="translate(1958.926 8408.752)" fill="#e6af00"/>
      <path id="Trazado_3823" data-name="Trazado 3823" d="M2015.263,8408.6h-56.337l4.926-8.055H2009.4Z" fill="#f2c600"/>
      <rect id="Rectángulo_2864" data-name="Rectángulo 2864" width="8.572" height="9.723" transform="translate(1971.143 8392.108)" fill="#e6af00"/>
      <rect id="Rectángulo_2865" data-name="Rectángulo 2865" width="21.235" height="4.862" transform="translate(1986.112 8396.97)" fill="#e6af00"/>
      <path id="Trazado_3824" data-name="Trazado 3824" d="M1960.576,8405.906v-10.344l9.672-7.164" fill="none" stroke="#e6af00" stroke-miterlimit="10" stroke-width="3"/>
      <path id="Trazado_3825" data-name="Trazado 3825" d="M2015.263,8446.824s10.306-.877,9.962,1.184-8.073,5.668-8.931,6.355,10.133.806,10.133.806a24.692,24.692,0,0,0,3.779-6.474c.433-1.167,4.638-6.34-14.943-7.464Z" fill="#898989"/>
    </g>
  </g>
</svg>
