<svg xmlns="http://www.w3.org/2000/svg" xmlns:xlink="http://www.w3.org/1999/xlink" width="390.47" height="167.325" viewBox="0 0 390.47 167.325">
  <defs>
    <clipPath id="clip-path">
      <rect id="Rectángulo_3138" data-name="Rectángulo 3138" width="390.47" height="167.325" transform="translate(318.889 2198.878)" fill="none"/>
    </clipPath>
    <linearGradient id="linear-gradient" x1="0.5" y1="-0.521" x2="0.5" y2="1.236" gradientUnits="objectBoundingBox">
      <stop offset="0" stop-color="#fefdeb"/>
      <stop offset="1" stop-color="#83e9dd"/>
    </linearGradient>
  </defs>
  <g id="Grupo_4007" data-name="Grupo 4007" transform="translate(-318.889 -2198.878)">
    <g id="Grupo_4006" data-name="Grupo 4006" clip-path="url(#clip-path)">
      <g id="Grupo_4005" data-name="Grupo 4005">
        <path id="Trazado_4836" data-name="Trazado 4836" d="M338.457,2278.519h16.7V2242.1l-16.7-3.653Z" fill="#fff7ee"/>
        <path id="Trazado_4837" data-name="Trazado 4837" d="M336.553,2238.1l-16.763-3.827v44.25h16.763Z" fill="#fff7ee"/>
        <path id="Trazado_4838" data-name="Trazado 4838" d="M648.388,2307.627H378.4l-58.609,12.889v89.737H707.368v-88.135Z" fill="#f2ded3"/>
        <path id="Trazado_4839" data-name="Trazado 4839" d="M702.567,2329.813h-377.7l-5.073,1.441v.528l4.916-1.464h377.96l4.7,1.347v-.57Z" fill="#fff"/>
        <path id="Trazado_4840" data-name="Trazado 4840" d="M693.728,2323.773l-358.4.236-15.542,3.715v.845l15.385-3.971H693.438l13.93,3.787v-1.1Z" fill="#388981"/>
        <path id="Trazado_4841" data-name="Trazado 4841" d="M343.245,2324.6s-11.227,3.509-23.455,7.482v.773c13.006-4.34,25.3-8.255,25.3-8.255Z" fill="#388981"/>
        <path id="Trazado_4842" data-name="Trazado 4842" d="M684.442,2324.6h-1.071s11.023,3.23,24,7.866v-.563C700.892,2329.685,693.319,2327.253,684.442,2324.6Z" fill="#388981"/>
        <path id="Trazado_4843" data-name="Trazado 4843" d="M472.814,2310.323l-6.751,7.575h1.906l6.024-6.467h81.034l7.1,5.807v-.5l-5.515-5.881Z" fill="#7c7c7c" opacity="0.3"/>
        <path id="Trazado_4844" data-name="Trazado 4844" d="M671.982,2278.519h16.7V2238.45l-16.7,3.653Z" fill="#fff7ee"/>
        <path id="Trazado_4845" data-name="Trazado 4845" d="M690.583,2238.1v40.422h16.785v-44.255Z" fill="#fff7ee"/>
        <g id="Grupo_4000" data-name="Grupo 4000">
          <path id="Trazado_4846" data-name="Trazado 4846" d="M690.317,2317.736l-27.242-5.991v-.052l-.329-20.4.071.006,27.5,2.243Zm-27.113-6.1,26.983,5.934v-23.911l-27.309-2.228Z"/>
        </g>
        <g id="Grupo_4001" data-name="Grupo 4001">
          <path id="Trazado_4847" data-name="Trazado 4847" d="M707.439,2322.206l-4.649-1.139v-26.038l.077.006,4.572.365Zm-4.507-1.251,4.364,1.069v-26.492l-4.364-.349Z"/>
        </g>
        <path id="Trazado_4848" data-name="Trazado 4848" d="M378.4,2278.519l-58.609.781v41.217l58.609-12.89Z" fill="#367887"/>
        <path id="Trazado_4849" data-name="Trazado 4849" d="M648.388,2278.519v29.109l58.979,14.474v-42.8Z" fill="#367887"/>
        <g id="Grupo_4004" data-name="Grupo 4004">
          <g id="Grupo_4003" data-name="Grupo 4003">
            <rect id="Rectángulo_3133" data-name="Rectángulo 3133" width="387.736" height="164.761" transform="translate(319.56 2142.553)" fill="url(#linear-gradient)"/>
            <path id="Trazado_4850" data-name="Trazado 4850" d="M570.445,2221.163a3.01,3.01,0,0,0,2.471,1.225h80.873s-28.241-.653-29.619-7.188-3.443-22.872-19.286-21.565-30.995,15.683-28.24,17.644c.069.049.146.1.232.148a2.832,2.832,0,0,1-1.241,5.334c-5.157.4-8.994.96-7.946,1.706A11.433,11.433,0,0,1,570.445,2221.163Z" fill="#fff"/>
            <path id="Trazado_4851" data-name="Trazado 4851" d="M454.458,2175.665s-46.542-14.86-52.36-7.642-.895,14.86-.895,14.86-18.348-2.123-19.243.425,3.58,7.217,3.58,7.217l-17.9,1.7H469.226s-13.425-2.548-11.635-7.643S455.8,2174.816,454.458,2175.665Z" fill="#fff"/>
            <path id="Trazado_4852" data-name="Trazado 4852" d="M332.92,2262.813a29.291,29.291,0,0,0,2.648-6.1c.455-3.023-6.145-12.524-6.145-12.524s3.186-6.478,3.641-8.853-.682-7.558-4.1-18.138c-1.7-5.259-5.755-10.463-9.408-14.369v60.13l3.5-3.138,6.6,5.921Z" fill="#03a872"/>
            <path id="Trazado_4853" data-name="Trazado 4853" d="M383.312,2186.079s-10.47-1.3-12.518,3.671-4.552,26.56-5.462,29.367-7.739,7.557-6.373,14.251,7.966,17.059,15.476,20.082,12.973,2.807,17.525.863,8.422-6.694,9.1-8.637,0-13.388-.682-16.627-3.87-11.66-3.87-11.66,2.276-16.842-1.365-23.32A16.108,16.108,0,0,0,383.312,2186.079Z" fill="#03a872"/>
            <path id="Trazado_4854" data-name="Trazado 4854" d="M620.1,2265.739l6.6-5.921,6.6,5.921,6.6-5.921,6.6,5.921,3.208-2.878c-5.445-19.811-14.221-50.268-16.7-49.534-1.749.518-11.754,29.648-17.606,48.2Z" fill="#008671"/>
            <path id="Trazado_4855" data-name="Trazado 4855" d="M707.3,2179.318a17.193,17.193,0,0,0-9.857,3.723c-5.69,4.75-12.291,23.968-12.063,32.389s2.048,25.912,6.6,30.662c3.387,3.535,10.93,6.948,15.32,8.2Z" fill="#008671"/>
            <path id="Trazado_4856" data-name="Trazado 4856" d="M697.439,2183.041c-5.69,4.75-12.291,23.968-12.063,32.389s2.048,25.912,6.6,30.662c3.387,3.535,10.93,6.948,15.32,8.2v-74.972A17.193,17.193,0,0,0,697.439,2183.041Z" fill="#03a872"/>
            <path id="Trazado_4857" data-name="Trazado 4857" d="M374.435,2253.45a15.207,15.207,0,0,1-1.642-.788c-.1,2.984-.224,6.529-.352,10.224l3.42-3.068,6.6,5.921,6.6-5.921.386.346-.027-4.984C385.385,2256.228,380.6,2255.931,374.435,2253.45Z" fill="#dd6466"/>
            <path id="Trazado_4858" data-name="Trazado 4858" d="M701.534,2252.132l.2,11.394,4.134-3.708,1.425,1.279v-6.807A44.6,44.6,0,0,1,701.534,2252.132Z" fill="#dd6466"/>
            <g id="Grupo_4002" data-name="Grupo 4002">
              <path id="Trazado_4859" data-name="Trazado 4859" d="M319.56,2262.956v41.474h10.1v-38.692l-6.6-5.92Z" fill="#fff"/>
              <path id="Trazado_4860" data-name="Trazado 4860" d="M342.859,2304.431v-38.692l-6.6-5.92-6.6,5.92v38.692Z" fill="#f5f3ea"/>
              <path id="Trazado_4861" data-name="Trazado 4861" d="M356.06,2304.431v-38.692l-6.6-5.92-6.6,5.92v38.692Z" fill="#fff"/>
              <path id="Trazado_4862" data-name="Trazado 4862" d="M369.261,2304.431v-38.692l-6.6-5.92-6.6,5.92v38.692Z" fill="#f5f3ea"/>
              <path id="Trazado_4863" data-name="Trazado 4863" d="M382.461,2304.431v-38.692l-6.6-5.92-6.6,5.92v38.692Z" fill="#fff"/>
              <path id="Trazado_4864" data-name="Trazado 4864" d="M395.662,2304.431v-38.692l-6.6-5.92-6.6,5.92v38.692Z" fill="#f5f3ea"/>
              <path id="Trazado_4865" data-name="Trazado 4865" d="M408.862,2304.431v-38.692l-6.6-5.92-6.6,5.92v38.692Z" fill="#fff"/>
              <path id="Trazado_4866" data-name="Trazado 4866" d="M422.063,2304.431v-38.692l-6.6-5.92-6.6,5.92v38.692Z" fill="#f5f3ea"/>
              <path id="Trazado_4867" data-name="Trazado 4867" d="M435.264,2304.431v-38.692l-6.6-5.92-6.6,5.92v38.692Z" fill="#fff"/>
              <path id="Trazado_4868" data-name="Trazado 4868" d="M448.464,2304.431v-38.692l-6.6-5.92-6.6,5.92v38.692Z" fill="#f5f3ea"/>
              <path id="Trazado_4869" data-name="Trazado 4869" d="M461.665,2304.431v-38.692l-6.6-5.92-6.6,5.92v38.692Z" fill="#fff"/>
              <path id="Trazado_4870" data-name="Trazado 4870" d="M474.865,2304.431v-38.692l-6.6-5.92-6.6,5.92v38.692Z" fill="#f5f3ea"/>
              <path id="Trazado_4871" data-name="Trazado 4871" d="M488.066,2304.431v-38.692l-6.6-5.92-6.6,5.92v38.692Z" fill="#fff"/>
              <path id="Trazado_4872" data-name="Trazado 4872" d="M501.267,2304.431v-38.692l-6.6-5.92-6.6,5.92v38.692Z" fill="#f5f3ea"/>
              <path id="Trazado_4873" data-name="Trazado 4873" d="M514.467,2304.431v-38.692l-6.6-5.92-6.6,5.92v38.692Z" fill="#fff"/>
              <path id="Trazado_4874" data-name="Trazado 4874" d="M514.467,2304.431v-38.692l-6.6-5.92-6.6,5.92v38.692Z" fill="#fff"/>
              <path id="Trazado_4875" data-name="Trazado 4875" d="M527.663,2304.431v-38.692l-6.6-5.92-6.6,5.92v38.692Z" fill="#f5f3ea"/>
              <path id="Trazado_4876" data-name="Trazado 4876" d="M540.863,2304.431v-38.692l-6.6-5.92-6.6,5.92v38.692Z" fill="#fff"/>
              <path id="Trazado_4877" data-name="Trazado 4877" d="M554.064,2304.431v-38.692l-6.6-5.92-6.6,5.92v38.692Z" fill="#f5f3ea"/>
              <path id="Trazado_4878" data-name="Trazado 4878" d="M567.265,2304.431v-38.692l-6.6-5.92-6.6,5.92v38.692Z" fill="#fff"/>
              <path id="Trazado_4879" data-name="Trazado 4879" d="M580.465,2304.431v-38.692l-6.6-5.92-6.6,5.92v38.692Z" fill="#f5f3ea"/>
              <path id="Trazado_4880" data-name="Trazado 4880" d="M593.666,2304.431v-38.692l-6.6-5.92-6.6,5.92v38.692Z" fill="#fff"/>
              <path id="Trazado_4881" data-name="Trazado 4881" d="M606.866,2304.431v-38.692l-6.6-5.92-6.6,5.92v38.692Z" fill="#f5f3ea"/>
              <path id="Trazado_4882" data-name="Trazado 4882" d="M620.067,2304.431v-38.692l-6.6-5.92-6.6,5.92v38.692Z" fill="#fff"/>
              <path id="Trazado_4883" data-name="Trazado 4883" d="M633.268,2304.431v-38.692l-6.6-5.92-6.6,5.92v38.692Z" fill="#f5f3ea"/>
              <path id="Trazado_4884" data-name="Trazado 4884" d="M646.468,2304.431v-38.692l-6.6-5.92-6.6,5.92v38.692Z" fill="#fff"/>
              <path id="Trazado_4885" data-name="Trazado 4885" d="M659.669,2304.431v-38.692l-6.6-5.92-6.6,5.92v38.692Z" fill="#f5f3ea"/>
              <path id="Trazado_4886" data-name="Trazado 4886" d="M672.869,2304.431v-38.692l-6.6-5.92-6.6,5.92v38.692Z" fill="#fff"/>
              <path id="Trazado_4887" data-name="Trazado 4887" d="M686.07,2304.431v-38.692l-6.6-5.92-6.6,5.92v38.692Z" fill="#f5f3ea"/>
              <path id="Trazado_4888" data-name="Trazado 4888" d="M699.271,2304.431v-38.692l-6.6-5.92-6.6,5.92v38.692Z" fill="#fff"/>
              <path id="Trazado_4889" data-name="Trazado 4889" d="M707.3,2261.1l-1.425-1.279-6.6,5.92v38.692H707.3Z" fill="#f5f3ea"/>
              <path id="Trazado_4890" data-name="Trazado 4890" d="M331.386,2264.189l-1.727,1.549v38.692h1.727Z" fill="#d6cec8"/>
              <path id="Trazado_4891" data-name="Trazado 4891" d="M357.752,2264.189l-1.727,1.549v38.692h1.727Z" fill="#d6cec8"/>
              <path id="Trazado_4892" data-name="Trazado 4892" d="M384.118,2264.189l-1.727,1.549v38.692h1.727Z" fill="#d6cec8"/>
              <path id="Trazado_4893" data-name="Trazado 4893" d="M410.484,2264.189l-1.727,1.549v38.692h1.727Z" fill="#d6cec8"/>
              <path id="Trazado_4894" data-name="Trazado 4894" d="M436.85,2264.189l-1.727,1.549v38.692h1.727Z" fill="#d6cec8"/>
              <path id="Trazado_4895" data-name="Trazado 4895" d="M463.216,2264.189l-1.727,1.549v38.692h1.727Z" fill="#d6cec8"/>
              <path id="Trazado_4896" data-name="Trazado 4896" d="M489.582,2264.189l-1.727,1.549v38.692h1.727Z" fill="#d6cec8"/>
              <path id="Trazado_4897" data-name="Trazado 4897" d="M515.948,2264.189l-1.727,1.549v38.692h1.727Z" fill="#d6cec8"/>
              <path id="Trazado_4898" data-name="Trazado 4898" d="M542.314,2264.189l-1.727,1.549v38.692h1.727Z" fill="#d6cec8"/>
              <path id="Trazado_4899" data-name="Trazado 4899" d="M568.681,2264.189l-1.727,1.549v38.692h1.727Z" fill="#d6cec8"/>
              <path id="Trazado_4900" data-name="Trazado 4900" d="M595.047,2264.189l-1.727,1.549v38.692h1.727Z" fill="#d6cec8"/>
              <path id="Trazado_4901" data-name="Trazado 4901" d="M621.413,2264.189l-1.727,1.549v38.692h1.727Z" fill="#d6cec8"/>
              <path id="Trazado_4902" data-name="Trazado 4902" d="M647.779,2264.189l-1.727,1.549v38.692h1.727Z" fill="#d6cec8"/>
              <path id="Trazado_4903" data-name="Trazado 4903" d="M674.145,2264.189l-1.727,1.549v38.692h1.727Z" fill="#d6cec8"/>
              <path id="Trazado_4904" data-name="Trazado 4904" d="M700.511,2264.189l-1.727,1.549v38.692h1.727Z" fill="#d6cec8"/>
              <rect id="Rectángulo_3134" data-name="Rectángulo 3134" width="387.736" height="3.924" transform="translate(319.56 2274.021)" fill="#fff"/>
              <rect id="Rectángulo_3135" data-name="Rectángulo 3135" width="387.736" height="1.471" transform="translate(319.56 2277.945)" fill="#dec7e2"/>
              <rect id="Rectángulo_3136" data-name="Rectángulo 3136" width="387.736" height="1.471" transform="translate(319.56 2296.583)" fill="#dec7e2"/>
              <rect id="Rectángulo_3137" data-name="Rectángulo 3137" width="387.736" height="3.924" transform="translate(319.56 2292.659)" fill="#fff"/>
            </g>
            <path id="Trazado_4905" data-name="Trazado 4905" d="M707.3,2304.431H319.56v13.5c26.366-4.231,71.72-9.739,131.055-10.188,97.322-.735,200.847-1.471,231.478,3.679a114.342,114.342,0,0,1,25.2,7.4Z" fill="#95c765"/>
            <path id="Trazado_4906" data-name="Trazado 4906" d="M699.024,2294.621c-3.618.736-3.1,6.376-3.1,6.376a99.223,99.223,0,0,0-7.824-10.445l-1.741,6.521v-8.48a52.96,52.96,0,0,0-6.8-6.322l-.692,10.633-1.157-11.939c-3.254-2.12-6.594-3.339-9.7-2.775a9.486,9.486,0,0,0-.954.23l4.831,13.749-7.036-12.729c-2.427,1.633-3.48,4.483-3.785,7.609l7.461,9.534-7.564-7.176a44.077,44.077,0,0,0,2.135,12.081,99.314,99.314,0,0,0-10.75-4.3l-1.4,3.317.259-3.679a40.455,40.455,0,0,0-7.271-1.631l.808,4.819-3.142-4.93a7.925,7.925,0,0,0-2.8.516,8.861,8.861,0,0,0-4.406,3.675l6.733,1.965-7.235-.98a8.586,8.586,0,0,0-.62,4.169h71.96S702.643,2293.885,699.024,2294.621Z" fill="#03a872"/>
            <path id="Trazado_4907" data-name="Trazado 4907" d="M633.549,2298.289s-5.2-1.268-4.306-.634a14.829,14.829,0,0,0,3.712,1.2s-3.935,1.056-3.118,1.268a13.065,13.065,0,0,0,3.341-.282s-.371,2.465.074,2.536.891-2.113.891-2.113,2.6,1.549,2.376.915-1.707-1.761-1.707-1.761,3.935-.422,3.341-.916-3.638.212-3.638.212-.817-4.368-.966-3.522A20.756,20.756,0,0,0,633.549,2298.289Z" fill="#ffcb77"/>
            <path id="Trazado_4908" data-name="Trazado 4908" d="M674.779,2294.733s-5.2-1.268-4.307-.634a14.844,14.844,0,0,0,3.713,1.2s-3.936,1.056-3.119,1.268a13.065,13.065,0,0,0,3.341-.282s-.371,2.465.075,2.536.891-2.113.891-2.113,2.6,1.549,2.376.915-1.708-1.761-1.708-1.761,3.935-.422,3.341-.916-3.638.212-3.638.212-.817-4.368-.965-3.522A20.617,20.617,0,0,0,674.779,2294.733Z" fill="#ffcb77"/>
            <path id="Trazado_4909" data-name="Trazado 4909" d="M363.323,2300.131l-3.18,2.828s1.316-1.561,2.72-3.139a6.222,6.222,0,0,0-4.057-1.289c-.368.05-.734.123-1.1.207l-1.7,3.976v-3.48a22.436,22.436,0,0,0-4.927,2.515,50.608,50.608,0,0,0-4.14-4.359l-3.082,5.079,1.031-6.847a14,14,0,0,0-4.244-2.467l-1.44,5.635-1.121-5.625-.006,0a14.494,14.494,0,0,0-4.175,3.417l.133,4.658-1.437-3.15a62.765,62.765,0,0,0-4.509,6.339h39.637A24.547,24.547,0,0,0,363.323,2300.131Z" fill="#03a872"/>
            <path id="Trazado_4910" data-name="Trazado 4910" d="M707.3,2198.509c-3.823,4.122-7.8,8.923-9.693,12.853-4.265,8.828,1.939,36.786,1.939,36.786l-9.316-4.742a10.533,10.533,0,0,0,1.75,2.686c3.387,3.535,10.93,6.948,15.32,8.2Z" fill="#008671"/>
            <path id="Trazado_4911" data-name="Trazado 4911" d="M391.96,2254.313c4.552-1.943,8.422-6.694,9.1-8.637s0-13.388-.682-16.627-3.87-11.66-3.87-11.66a91.323,91.323,0,0,0,.7-11.87c-1.29,4.073-2.49,7.926-2.814,9.154-.775,2.942-3.877,1.839-3.877,1.839s3.489,5.518,3.877,6.621,3.1,7.725,2.714,13.611-5.04,11.036-8.918,10.668-12.795-4.046-12.795-4.046l2.714,5.885s-5.04-2.207-6.2-2.942-6.979-13.979-7.367-16.554,5.816-6.99,5.816-6.99l-3.481-12.551c-.66,4.326-1.207,7.875-1.54,8.9-.911,2.807-7.739,7.557-6.373,14.251s7.966,17.059,15.476,20.082S387.408,2256.257,391.96,2254.313Z" fill="#008671"/>
            <path id="Trazado_4912" data-name="Trazado 4912" d="M335.568,2256.71c.455-3.023-6.145-12.524-6.145-12.524s3.186-6.478,3.641-8.853c.422-2.2-.529-6.826-3.39-15.919.16,5.19.18,11.015-.421,12.916-1.163,3.678-6.591,13.611-6.591,13.611s3.877.735,4.653,3.678a29.3,29.3,0,0,1,.387,7.725l-8.142.3v5.314l3.5-3.138,6.6,5.921,3.261-2.926A29.291,29.291,0,0,0,335.568,2256.71Z" fill="#008671"/>
            <path id="Trazado_4913" data-name="Trazado 4913" d="M631.946,2262.127c-5.437-1.72-8.753-11.221-10.573-18.827-2.137,6.326-4.232,12.741-5.963,18.23l4.692,4.209,6.6-5.921,6.6,5.921,6.6-5.921,6.6,5.921,3.208-2.878c-1.659-6.036-3.627-13.059-5.632-19.888C641.931,2251.943,637.887,2264,631.946,2262.127Z" fill="#004f78"/>
          </g>
        </g>
      </g>
    </g>
  </g>
</svg>
