<svg xmlns="http://www.w3.org/2000/svg" xmlns:xlink="http://www.w3.org/1999/xlink" width="152.443" height="152.443" viewBox="0 0 152.443 152.443">
  <defs>
    <linearGradient id="linear-gradient" y1="0.5" x2="1" y2="0.5" gradientUnits="objectBoundingBox">
      <stop offset="0" stop-color="#f6cf0b"/>
      <stop offset="1" stop-color="#f4c316"/>
    </linearGradient>
    <linearGradient id="linear-gradient-6" x1="0" y1="0.5" x2="1" y2="0.5" xlink:href="#linear-gradient"/>
  </defs>
  <g id="Grupo_6743" data-name="Grupo 6743" transform="translate(-3761.889 -3265.002)">
    <path id="Trazado_855" data-name="Trazado 855" d="M3838.11,3265q3.745,0,7.471.367t7.4,1.1q3.673.729,7.256,1.817t7.043,2.52q3.459,1.433,6.762,3.2t6.416,3.845q3.112,2.08,6.008,4.456t5.542,5.024q2.647,2.648,5.023,5.542t4.456,6.008q2.08,3.112,3.846,6.416t3.2,6.762q1.433,3.459,2.52,7.042t1.817,7.256q.731,3.673,1.1,7.4t.367,7.471q0,3.746-.367,7.471t-1.1,7.4q-.731,3.672-1.817,7.255t-2.52,7.043q-1.434,3.459-3.2,6.762t-3.846,6.416q-2.08,3.112-4.456,6.008t-5.023,5.542q-2.648,2.649-5.542,5.023t-6.008,4.456q-3.114,2.08-6.416,3.846t-6.762,3.2q-3.459,1.432-7.043,2.52t-7.256,1.817q-3.672.732-7.4,1.1t-7.471.367q-3.744,0-7.471-.367t-7.4-1.1q-3.672-.731-7.256-1.817t-7.043-2.52q-3.459-1.434-6.761-3.2t-6.416-3.846q-3.114-2.079-6.008-4.456t-5.543-5.023q-2.647-2.648-5.023-5.542t-4.456-6.008q-2.08-3.114-3.845-6.416t-3.2-6.762q-1.434-3.459-2.52-7.043t-1.818-7.255q-.731-3.673-1.1-7.4t-.367-7.471q0-3.744.367-7.471t1.1-7.4q.731-3.672,1.818-7.256t2.52-7.042q1.433-3.46,3.2-6.762t3.845-6.416q2.081-3.114,4.456-6.008t5.023-5.542q2.649-2.649,5.543-5.024t6.008-4.456q3.113-2.079,6.416-3.845t6.761-3.2q3.461-1.434,7.043-2.52t7.256-1.817q3.672-.732,7.4-1.1T3838.11,3265Z" fill="#e6b54a"/>
    <circle id="Elipse_22" data-name="Elipse 22" cx="71.597" cy="71.597" r="71.597" transform="translate(3766.514 3269.627)" fill="#fff"/>
    <circle id="Elipse_23" data-name="Elipse 23" cx="65.13" cy="65.13" r="65.13" transform="translate(3772.98 3276.093)" fill="#35c1d9"/>
    <g id="Grupo_799" data-name="Grupo 799">
      <path id="Trazado_876" data-name="Trazado 876" d="M3804.778,3340.816a20.315,20.315,0,0,1-.846-4.627,19.513,19.513,0,0,1,18.052-20.729,19.2,19.2,0,0,1,19.219,12.48,13.763,13.763,0,0,1,21.984,11.028,13.912,13.912,0,0,1-.431,3.443,13.435,13.435,0,0,1-1.907,26.64,14.05,14.05,0,0,1-2.462-.234h-50.449a14.813,14.813,0,0,1-2.6.238,14.125,14.125,0,0,1-.555-28.239Z" fill="#fff"/>
      <g id="Grupo_798" data-name="Grupo 798">
        <path id="Trazado_877" data-name="Trazado 877" d="M3845.8,3315.215a2.523,2.523,0,1,0,3.565-3.571l-3.528-3.531a2.523,2.523,0,1,0-3.566,3.571Z" fill="url(#linear-gradient)"/>
        <path id="Trazado_878" data-name="Trazado 878" d="M3861.809,3342.836c.022,0,.044,0,.066,0a15.13,15.13,0,0,0,0-30.259l-.066,0a15.127,15.127,0,0,0,0,30.253Z" fill="url(#linear-gradient)"/>
        <path id="Trazado_879" data-name="Trazado 879" d="M3844.217,3327.717a2.521,2.521,0,0,0-2.546-2.522h-5a2.522,2.522,0,1,0,0,5.043h5A2.527,2.527,0,0,0,3844.217,3327.717Z" fill="url(#linear-gradient)"/>
        <path id="Trazado_880" data-name="Trazado 880" d="M3887.076,3325.2h-4.994a2.522,2.522,0,1,0,0,5.043h4.994a2.522,2.522,0,1,0,0-5.043Z" fill="url(#linear-gradient)"/>
        <path id="Trazado_881" data-name="Trazado 881" d="M3845.838,3347.318l3.53-3.531a2.521,2.521,0,1,0-3.566-3.565l-3.531,3.53a2.522,2.522,0,1,0,3.567,3.566Z" fill="url(#linear-gradient)"/>
        <path id="Trazado_882" data-name="Trazado 882" d="M3861.809,3310.052c.023,0,.044.007.066.007a2.52,2.52,0,0,0,2.522-2.547v-4.993a2.526,2.526,0,0,0-2.522-2.546c-.022,0-.043.006-.066.006a2.515,2.515,0,0,0-2.456,2.54v4.993A2.525,2.525,0,0,0,3861.809,3310.052Z" fill="url(#linear-gradient-6)"/>
        <path id="Trazado_883" data-name="Trazado 883" d="M3861.809,3345.382a2.519,2.519,0,0,0-2.456,2.542v4.993a2.523,2.523,0,0,0,2.456,2.538c.023,0,.044.006.066.006a2.517,2.517,0,0,0,2.522-2.544v-4.993a2.527,2.527,0,0,0-2.522-2.548C3861.853,3345.376,3861.832,3345.382,3861.809,3345.382Z" fill="url(#linear-gradient-6)"/>
        <path id="Trazado_884" data-name="Trazado 884" d="M3877.945,3315.215l3.531-3.531a2.521,2.521,0,1,0-3.565-3.565l-3.532,3.528a2.522,2.522,0,1,0,3.566,3.568Z" fill="url(#linear-gradient)"/>
        <path id="Trazado_885" data-name="Trazado 885" d="M3877.945,3340.222a2.521,2.521,0,1,0-3.566,3.565l3.532,3.531a2.521,2.521,0,1,0,3.565-3.566Z" fill="url(#linear-gradient)"/>
      </g>
    </g>
  </g>
</svg>
