<svg xmlns="http://www.w3.org/2000/svg" width="152.443" height="152.443" viewBox="0 0 152.443 152.443">
  <g id="Grupo_6750" data-name="Grupo 6750" transform="translate(-4127.423 -4287.674)">
    <path id="Trazado_863" data-name="Trazado 863" d="M4203.645,4287.674q3.744,0,7.47.367t7.4,1.1q3.672.729,7.255,1.817t7.043,2.52q3.461,1.433,6.762,3.2t6.416,3.845q3.112,2.08,6.008,4.456t5.542,5.024q2.648,2.648,5.024,5.542t4.455,6.008q2.081,3.113,3.846,6.416t3.2,6.762q1.433,3.459,2.52,7.042t1.817,7.256q.731,3.674,1.1,7.4t.367,7.471q0,3.746-.367,7.471t-1.1,7.4q-.729,3.672-1.817,7.255t-2.52,7.043q-1.433,3.459-3.2,6.762t-3.846,6.416q-2.081,3.112-4.455,6.008t-5.024,5.542q-2.648,2.649-5.542,5.023t-6.008,4.456q-3.114,2.081-6.416,3.846t-6.762,3.2q-3.459,1.433-7.043,2.52t-7.255,1.817q-3.674.732-7.4,1.1t-7.47.367q-3.746,0-7.471-.367t-7.4-1.1q-3.672-.73-7.255-1.817t-7.043-2.52q-3.461-1.434-6.762-3.2t-6.416-3.846q-3.114-2.079-6.008-4.456t-5.542-5.023q-2.649-2.648-5.024-5.542t-4.455-6.008q-2.081-3.114-3.846-6.416t-3.2-6.762q-1.433-3.459-2.52-7.043t-1.817-7.255q-.732-3.674-1.1-7.4t-.367-7.471q0-3.744.367-7.471t1.1-7.4q.73-3.672,1.817-7.256t2.52-7.042q1.433-3.461,3.2-6.762t3.846-6.416q2.079-3.114,4.455-6.008t5.024-5.542q2.648-2.649,5.542-5.024t6.008-4.456q3.114-2.079,6.416-3.845t6.762-3.2q3.459-1.434,7.043-2.52t7.255-1.817q3.674-.732,7.4-1.1T4203.645,4287.674Z" fill="#e6b54a"/>
    <circle id="Elipse_30" data-name="Elipse 30" cx="71.597" cy="71.597" r="71.597" transform="translate(4132.048 4292.299)" fill="#fff"/>
    <circle id="Elipse_31" data-name="Elipse 31" cx="65.13" cy="65.13" r="65.13" transform="translate(4138.514 4298.765)" fill="#35c1d9"/>
    <g id="Grupo_842" data-name="Grupo 842">
      <g id="Grupo_835" data-name="Grupo 835">
        <g id="Grupo_834" data-name="Grupo 834">
          <path id="Trazado_950" data-name="Trazado 950" d="M4180.963,4354.614h-11.2v-13.266a1.128,1.128,0,0,1,1.128-1.128h8.948a1.128,1.128,0,0,1,1.128,1.128Z" fill="#ffcf5d"/>
          <path id="Trazado_951" data-name="Trazado 951" d="M4196.682,4354.614h-11.205v-13.266a1.128,1.128,0,0,1,1.128-1.128h8.948a1.129,1.129,0,0,1,1.129,1.128Z" fill="#ffcf5d"/>
          <path id="Trazado_952" data-name="Trazado 952" d="M4212.4,4354.614h-11.205v-13.266a1.129,1.129,0,0,1,1.129-1.128h8.948a1.128,1.128,0,0,1,1.128,1.128Z" fill="#ffcf5d"/>
        </g>
        <path id="Trazado_953" data-name="Trazado 953" d="M4179.835,4340.22h-3.385v9.88h-6.691v4.514h11.2v-13.266A1.128,1.128,0,0,0,4179.835,4340.22Z" fill="#ffb545"/>
        <path id="Trazado_954" data-name="Trazado 954" d="M4195.553,4340.22h-3.385v9.88h-6.691v4.514h11.205v-13.266A1.129,1.129,0,0,0,4195.553,4340.22Z" fill="#ffb545"/>
        <path id="Trazado_955" data-name="Trazado 955" d="M4211.272,4340.22h-3.386v9.88h-6.691v4.514H4212.4v-13.266A1.128,1.128,0,0,0,4211.272,4340.22Z" fill="#ffb545"/>
      </g>
      <g id="Grupo_836" data-name="Grupo 836">
        <path id="Trazado_956" data-name="Trazado 956" d="M4223.12,4344.733v-3.385a1.128,1.128,0,0,0-1.128-1.128h-2.257a1.129,1.129,0,0,0-1.129,1.128v3.385a1.693,1.693,0,0,0-1.692,1.693v8.188h7.9v-8.188A1.693,1.693,0,0,0,4223.12,4344.733Z" fill="#95d6a4"/>
        <path id="Trazado_957" data-name="Trazado 957" d="M4235.533,4344.733v-3.385a1.128,1.128,0,0,0-1.128-1.128h-2.257a1.128,1.128,0,0,0-1.129,1.128v3.385a1.692,1.692,0,0,0-1.692,1.693v8.188h7.9v-8.188A1.693,1.693,0,0,0,4235.533,4344.733Z" fill="#95d6a4"/>
      </g>
      <g id="Grupo_837" data-name="Grupo 837">
        <path id="Trazado_958" data-name="Trazado 958" d="M4201.235,4363.641h-6.69a2.257,2.257,0,0,1-4.514,0h-6.691a2.257,2.257,0,0,1-4.514,0h-6.691a2.257,2.257,0,0,0-2.257,2.257v12.137h33.614V4365.9a2.256,2.256,0,0,0-2.257-2.257Z" fill="#5c87bd"/>
        <path id="Trazado_959" data-name="Trazado 959" d="M4201.235,4363.641h-2.256v9.88h-6.691V4365.9a2.257,2.257,0,0,0-2.257-2.257h-2.257v9.88h-6.691V4365.9a2.256,2.256,0,0,0-2.257-2.257h-2.257v9.88h-6.691v4.514h33.614V4365.9a2.256,2.256,0,0,0-2.257-2.257Z" fill="#456ea2"/>
      </g>
      <g id="Grupo_838" data-name="Grupo 838">
        <path id="Trazado_960" data-name="Trazado 960" d="M4234.849,4366.65h-5.186a2.257,2.257,0,1,1-4.514,0h-5.186a2.257,2.257,0,1,1-4.514,0h-5.186a2.258,2.258,0,0,0-2.257,2.257v9.128h29.1v-9.128a2.258,2.258,0,0,0-2.257-2.257Z" fill="#e9e3d5"/>
        <path id="Trazado_961" data-name="Trazado 961" d="M4234.849,4366.65h-2.257v6.871h-5.186v-4.614a2.258,2.258,0,0,0-2.257-2.257h-2.257v6.871h-5.186v-4.614a2.258,2.258,0,0,0-2.257-2.257h-2.257v6.871h-5.186v4.514h29.1v-9.128a2.258,2.258,0,0,0-2.257-2.257Z" fill="#d3cdbf"/>
      </g>
      <g id="Grupo_839" data-name="Grupo 839">
        <path id="Trazado_962" data-name="Trazado 962" d="M4217.706,4392v-2.683a2.258,2.258,0,0,0-2.257-2.257h-7.443a2.257,2.257,0,0,1-4.514,0h-7.443a2.257,2.257,0,0,1-4.514,0h-7.443a2.257,2.257,0,0,1-4.514,0h-7.443a2.258,2.258,0,0,0-2.257,2.257V4392a2.257,2.257,0,0,1,0,4.514v4.94h47.828v-4.94a2.257,2.257,0,0,1,0-4.514Z" fill="#ffb545"/>
        <path id="Trazado_963" data-name="Trazado 963" d="M4217.706,4393.131v-3.812a2.258,2.258,0,0,0-2.257-2.257h-2.257v2.683h-7.443v-.426a2.257,2.257,0,0,0-2.257-2.257h-2.257v2.683h-7.443v-.426a2.257,2.257,0,0,0-2.257-2.257h-2.257v2.683h-7.443v-.426a2.257,2.257,0,0,0-2.257-2.257h-2.257v2.683h-7.443V4392a2.257,2.257,0,0,0,2.257,2.257h5.186v2.683h-7.443v4.514h47.828v-4.94a2.258,2.258,0,0,0-2.257-2.257h1.128A1.128,1.128,0,0,0,4217.706,4393.131Zm-28.428,3.811h-7.443v-2.683h7.443Zm11.957,0h-7.443v-2.683h7.443Zm11.957,0h-7.443v-2.683h7.443Z" fill="#ffcf5d"/>
      </g>
      <path id="Trazado_964" data-name="Trazado 964" d="M4231.583,4391.576v-3.385a1.128,1.128,0,0,0-1.128-1.129H4228.2a1.128,1.128,0,0,0-1.128,1.129v3.385a1.693,1.693,0,0,0-1.693,1.693v8.187h7.9v-8.187A1.693,1.693,0,0,0,4231.583,4391.576Z" fill="#95d6a4"/>
      <g id="Grupo_841" data-name="Grupo 841">
        <g id="Grupo_840" data-name="Grupo 840">
          <path id="Trazado_965" data-name="Trazado 965" d="M4239.753,4331.192h-72.521a1.129,1.129,0,0,0-1.129,1.129v2.256a1.129,1.129,0,0,0,1.129,1.129h72.521a1.128,1.128,0,0,0,1.128-1.129v-2.256A1.128,1.128,0,0,0,4239.753,4331.192Z" fill="#fff"/>
          <path id="Trazado_966" data-name="Trazado 966" d="M4239.753,4401.456h-72.521a1.129,1.129,0,0,0-1.129,1.129v2.256a1.129,1.129,0,0,0,1.129,1.129h72.521a1.128,1.128,0,0,0,1.128-1.129v-2.256A1.128,1.128,0,0,0,4239.753,4401.456Z" fill="#fff"/>
          <path id="Trazado_967" data-name="Trazado 967" d="M4239.753,4354.614h-72.521a1.129,1.129,0,0,0-1.129,1.128V4358a1.129,1.129,0,0,0,1.129,1.128h72.521a1.128,1.128,0,0,0,1.128-1.128v-2.257A1.128,1.128,0,0,0,4239.753,4354.614Z" fill="#fff"/>
          <path id="Trazado_968" data-name="Trazado 968" d="M4239.753,4378.035h-72.521a1.129,1.129,0,0,0-1.129,1.128v2.257a1.129,1.129,0,0,0,1.129,1.128h72.521a1.128,1.128,0,0,0,1.128-1.128v-2.257A1.128,1.128,0,0,0,4239.753,4378.035Z" fill="#fff"/>
        </g>
      </g>
    </g>
  </g>
</svg>
