<svg xmlns="http://www.w3.org/2000/svg" xmlns:xlink="http://www.w3.org/1999/xlink" width="152.444" height="152.443" viewBox="0 0 152.444 152.443">
  <defs>
    <linearGradient id="linear-gradient" y1="0.5" x2="1" y2="0.5" gradientUnits="objectBoundingBox">
      <stop offset="0" stop-color="#f6cf0b"/>
      <stop offset="1" stop-color="#f4c316"/>
    </linearGradient>
  </defs>
  <g id="Grupo_6745" data-name="Grupo 6745" transform="translate(-3396.354 -3808.054)">
    <path id="Trazado_865" data-name="Trazado 865" d="M3472.576,3808.054q3.744,0,7.471.367t7.4,1.1q3.672.731,7.256,1.817t7.043,2.52q3.459,1.434,6.761,3.2t6.416,3.846q3.114,2.081,6.008,4.456t5.543,5.023q2.648,2.648,5.023,5.542t4.456,6.008q2.081,3.114,3.845,6.416t3.2,6.762q1.434,3.459,2.52,7.043t1.818,7.256q.731,3.672,1.1,7.4t.368,7.471q0,3.744-.368,7.471t-1.1,7.4q-.731,3.672-1.818,7.256t-2.52,7.043q-1.433,3.459-3.2,6.762t-3.845,6.415q-2.08,3.114-4.456,6.008t-5.023,5.542q-2.649,2.649-5.543,5.024t-6.008,4.456q-3.113,2.08-6.416,3.845t-6.761,3.2q-3.461,1.434-7.043,2.52t-7.256,1.818q-3.672.731-7.4,1.1t-7.471.367q-3.744,0-7.471-.367t-7.4-1.1q-3.673-.731-7.256-1.818t-7.043-2.52q-3.459-1.433-6.762-3.2t-6.416-3.845q-3.112-2.081-6.008-4.456t-5.542-5.024q-2.647-2.646-5.023-5.542t-4.456-6.008q-2.08-3.112-3.846-6.415t-3.2-6.762q-1.433-3.461-2.52-7.043t-1.817-7.256q-.731-3.672-1.1-7.4t-.367-7.471q0-3.744.367-7.471t1.1-7.4q.73-3.673,1.817-7.256t2.52-7.043q1.434-3.459,3.2-6.762t3.846-6.416q2.08-3.112,4.456-6.008t5.023-5.542q2.648-2.647,5.542-5.023t6.008-4.456q3.114-2.08,6.416-3.846t6.762-3.2q3.459-1.433,7.043-2.52t7.256-1.817q3.672-.731,7.4-1.1T3472.576,3808.054Z" fill="#e6b54a"/>
    <circle id="Elipse_32" data-name="Elipse 32" cx="71.597" cy="71.597" r="71.597" transform="translate(3400.979 3812.679)" fill="#fff"/>
    <circle id="Elipse_33" data-name="Elipse 33" cx="65.13" cy="65.13" r="65.13" transform="translate(3407.446 3819.146)" fill="#35c1d9"/>
    <g id="Grupo_802" data-name="Grupo 802">
      <circle id="Elipse_38" data-name="Elipse 38" cx="23.891" cy="23.891" r="23.891" transform="translate(3445.603 3907.214) rotate(-82.027)" fill="url(#linear-gradient)"/>
      <path id="Trazado_893" data-name="Trazado 893" d="M3476.878,3880.492a7.36,7.36,0,1,1-7.36-7.361A7.36,7.36,0,0,1,3476.878,3880.492Z" fill="#fff"/>
      <path id="Trazado_894" data-name="Trazado 894" d="M3472.576,3857.758c-26.139,0-47.329,27.736-47.329,27.736s21.19,27.736,47.329,27.736,47.328-27.736,47.328-27.736S3498.715,3857.758,3472.576,3857.758Zm0,45.433a18.334,18.334,0,1,1,18.334-18.335A18.334,18.334,0,0,1,3472.576,3903.191Z" fill="#fff"/>
      <path id="Trazado_895" data-name="Trazado 895" d="M3472.674,3872.342a12.2,12.2,0,0,0-4.136.732,5.956,5.956,0,1,1-6.408,5.925,6.027,6.027,0,0,1,.074-.742,12.241,12.241,0,1,0,10.47-5.915Z" fill="#161d28"/>
    </g>
  </g>
</svg>
