<svg xmlns="http://www.w3.org/2000/svg" xmlns:xlink="http://www.w3.org/1999/xlink" width="152.443" height="152.443" viewBox="0 0 152.443 152.443">
  <defs>
    <linearGradient id="linear-gradient" y1="0.5" x2="1" y2="0.5" gradientUnits="objectBoundingBox">
      <stop offset="0" stop-color="#f6cf0b"/>
      <stop offset="1" stop-color="#f4c316"/>
    </linearGradient>
  </defs>
  <g id="Grupo_6744" data-name="Grupo 6744" transform="translate(-4127.423 -3265.002)">
    <path id="Trazado_857" data-name="Trazado 857" d="M4203.645,3265q3.744,0,7.47.367t7.4,1.1q3.672.729,7.255,1.817t7.043,2.52q3.461,1.433,6.762,3.2t6.416,3.845q3.112,2.08,6.008,4.456t5.542,5.024q2.648,2.648,5.024,5.542t4.455,6.008q2.081,3.112,3.846,6.416t3.2,6.762q1.433,3.459,2.52,7.042t1.817,7.256q.731,3.673,1.1,7.4t.367,7.471q0,3.746-.367,7.471t-1.1,7.4q-.729,3.672-1.817,7.255t-2.52,7.043q-1.433,3.459-3.2,6.762t-3.846,6.416q-2.081,3.112-4.455,6.008t-5.024,5.542q-2.648,2.649-5.542,5.023t-6.008,4.456q-3.114,2.08-6.416,3.846t-6.762,3.2q-3.459,1.432-7.043,2.52t-7.255,1.817q-3.674.732-7.4,1.1t-7.47.367q-3.746,0-7.471-.367t-7.4-1.1q-3.672-.731-7.255-1.817t-7.043-2.52q-3.461-1.434-6.762-3.2t-6.416-3.846q-3.114-2.079-6.008-4.456t-5.542-5.023q-2.649-2.648-5.024-5.542t-4.455-6.008q-2.081-3.114-3.846-6.416t-3.2-6.762q-1.433-3.459-2.52-7.043t-1.817-7.255q-.732-3.673-1.1-7.4t-.367-7.471q0-3.744.367-7.471t1.1-7.4q.73-3.672,1.817-7.256t2.52-7.042q1.433-3.46,3.2-6.762t3.846-6.416q2.079-3.114,4.455-6.008t5.024-5.542q2.648-2.649,5.542-5.024t6.008-4.456q3.114-2.079,6.416-3.845t6.762-3.2q3.459-1.434,7.043-2.52t7.255-1.817q3.674-.732,7.4-1.1T4203.645,3265Z" fill="#e6b54a"/>
    <circle id="Elipse_24" data-name="Elipse 24" cx="71.597" cy="71.597" r="71.597" transform="translate(4132.048 3269.627)" fill="#fff"/>
    <circle id="Elipse_25" data-name="Elipse 25" cx="65.13" cy="65.13" r="65.13" transform="translate(4138.514 3276.093)" fill="#35c1d9"/>
    <g id="Grupo_801" data-name="Grupo 801">
      <g id="Grupo_800" data-name="Grupo 800">
        <path id="Trazado_886" data-name="Trazado 886" d="M4200.34,3289.57h6.609v6.609h-6.609Z" fill="#fff"/>
        <path id="Trazado_887" data-name="Trazado 887" d="M4200.34,3302.788h6.609v79.307h-6.609Z" fill="#fff"/>
        <path id="Trazado_888" data-name="Trazado 888" d="M4200.34,3388.7h6.609v6.609h-6.609Z" fill="#fff"/>
      </g>
      <path id="Trazado_889" data-name="Trazado 889" d="M4183.332,3364.641l-31.713-22.2,31.713-22.2a6.608,6.608,0,0,1,10.4,5.413v33.573A6.609,6.609,0,0,1,4183.332,3364.641Z" fill="url(#linear-gradient)"/>
      <path id="Trazado_890" data-name="Trazado 890" d="M4213.557,3359.228v-33.573a6.609,6.609,0,0,1,10.4-5.413l31.709,22.2-31.713,22.2A6.607,6.607,0,0,1,4213.557,3359.228Z" fill="url(#linear-gradient)"/>
      <path id="Trazado_891" data-name="Trazado 891" d="M4183.332,3364.641l-31.713-22.2h42.112v16.786A6.609,6.609,0,0,1,4183.332,3364.641Z" fill="#d69507"/>
      <path id="Trazado_892" data-name="Trazado 892" d="M4213.557,3359.228v-16.786h42.113l-31.713,22.2A6.609,6.609,0,0,1,4213.557,3359.228Z" fill="#d69507"/>
    </g>
  </g>
</svg>
