<svg xmlns="http://www.w3.org/2000/svg" width="152.444" height="152.443" viewBox="0 0 152.444 152.443">
  <g id="Grupo_6748" data-name="Grupo 6748" transform="translate(-3396.354 -4287.674)">
    <path id="Trazado_859" data-name="Trazado 859" d="M3472.576,4287.674q3.744,0,7.471.367t7.4,1.1q3.672.729,7.256,1.817t7.043,2.52q3.459,1.433,6.761,3.2t6.416,3.845q3.114,2.08,6.008,4.456t5.543,5.024q2.648,2.648,5.023,5.542t4.456,6.008q2.081,3.113,3.845,6.416t3.2,6.762q1.434,3.459,2.52,7.042t1.818,7.256q.731,3.674,1.1,7.4t.368,7.471q0,3.746-.368,7.471t-1.1,7.4q-.731,3.672-1.818,7.255t-2.52,7.043q-1.433,3.459-3.2,6.762t-3.845,6.416q-2.08,3.112-4.456,6.008t-5.023,5.542q-2.649,2.649-5.543,5.023t-6.008,4.456q-3.113,2.081-6.416,3.846t-6.761,3.2q-3.461,1.433-7.043,2.52t-7.256,1.817q-3.672.732-7.4,1.1t-7.471.367q-3.744,0-7.471-.367t-7.4-1.1q-3.673-.73-7.256-1.817t-7.043-2.52q-3.459-1.434-6.762-3.2t-6.416-3.846q-3.112-2.079-6.008-4.456t-5.542-5.023q-2.647-2.648-5.023-5.542t-4.456-6.008q-2.08-3.114-3.846-6.416t-3.2-6.762q-1.433-3.459-2.52-7.043t-1.817-7.255q-.731-3.674-1.1-7.4t-.367-7.471q0-3.744.367-7.471t1.1-7.4q.73-3.672,1.817-7.256t2.52-7.042q1.434-3.461,3.2-6.762t3.846-6.416q2.08-3.114,4.456-6.008t5.023-5.542q2.648-2.649,5.542-5.024t6.008-4.456q3.114-2.079,6.416-3.845t6.762-3.2q3.459-1.434,7.043-2.52t7.256-1.817q3.672-.732,7.4-1.1T3472.576,4287.674Z" fill="#e6b54a"/>
    <circle id="Elipse_26" data-name="Elipse 26" cx="71.597" cy="71.597" r="71.597" transform="translate(3400.979 4292.299)" fill="#fff"/>
    <circle id="Elipse_27" data-name="Elipse 27" cx="65.13" cy="65.13" r="65.13" transform="translate(3407.446 4298.765)" fill="#35c1d9"/>
    <g id="Grupo_814" data-name="Grupo 814">
      <path id="Trazado_913" data-name="Trazado 913" d="M3472.821,4316.553a30.965,30.965,0,0,0-20.867,53.842c.293.244.586.5.889.77a24.054,24.054,0,0,1,7.874,17.819v2.693h24.208v-2.693a24,24,0,0,1,7.882-17.819c.3-.266.589-.526.885-.77a30.967,30.967,0,0,0-20.871-53.842Z" fill="#fff"/>
      <g id="Grupo_812" data-name="Grupo 812">
        <path id="Trazado_914" data-name="Trazado 914" d="M3466.692,4325.705a4.7,4.7,0,0,1,4.7,4.7V4364.6a4.687,4.687,0,0,1-3.408,4.519h-.007c-.145.044-.289.067-.452.107a4.3,4.3,0,0,1-.533.063,1.991,1.991,0,0,1-.3.015,4.65,4.65,0,0,1-4.678-4.23v0a4.789,4.789,0,0,1-2.23.559,4.693,4.693,0,0,1-4.415-6.3h-.285a68.931,68.931,0,0,0-6.034-11.822,4.693,4.693,0,0,0,1.641-7.586,4.7,4.7,0,0,1,4.708-4.7h.078a4.8,4.8,0,0,1-.178-1.319,4.7,4.7,0,0,1,4.7-4.7,5.063,5.063,0,0,1,2.052.448A4.7,4.7,0,0,1,3466.692,4325.705Z" fill="#f5c811"/>
        <path id="Trazado_915" data-name="Trazado 915" d="M3478.955,4325.705a4.71,4.71,0,0,0-4.715,4.7V4364.6a4.694,4.694,0,0,0,3.415,4.519s0,.011.011,0c.141.044.285.067.452.107a4.33,4.33,0,0,0,.541.063,1.94,1.94,0,0,0,.3.015,4.634,4.634,0,0,0,4.667-4.23v0a4.882,4.882,0,0,0,2.233.559,4.7,4.7,0,0,0,4.7-4.7,4.641,4.641,0,0,0-.285-1.6h.285a68.293,68.293,0,0,1,6.041-11.822,4.7,4.7,0,0,1-1.644-7.586,4.7,4.7,0,0,0-4.7-4.7h-.085a4.691,4.691,0,0,0-4.523-6.019,5.1,5.1,0,0,0-2.052.448A4.69,4.69,0,0,0,3478.955,4325.705Z" fill="#f5c811"/>
        <g id="Grupo_810" data-name="Grupo 810">
          <path id="Trazado_916" data-name="Trazado 916" d="M3466.692,4370.169a5.557,5.557,0,1,1,0-11.115.854.854,0,1,1,0,1.707,3.85,3.85,0,1,0,3.848,3.849v-34.2a3.847,3.847,0,1,0-3.848,3.845.857.857,0,0,1,0,1.714,5.561,5.561,0,1,1,5.559-5.559v34.2A5.568,5.568,0,0,1,3466.692,4370.169Z" fill="#ddb40a"/>
          <path id="Trazado_917" data-name="Trazado 917" d="M3459.792,4366.491a5.57,5.57,0,0,1-5.23-7.459.873.873,0,0,1,.811-.57,1.09,1.09,0,0,1,.289.051.859.859,0,0,1,.507,1.1,3.847,3.847,0,0,0,5.434,4.711.836.836,0,0,1,.411-.1.868.868,0,0,1,.752.441.858.858,0,0,1-.345,1.16A5.533,5.533,0,0,1,3459.792,4366.491Z" fill="#ddb40a"/>
          <path id="Trazado_918" data-name="Trazado 918" d="M3455.088,4360.184a5.554,5.554,0,0,1-4.267-9.112.835.835,0,0,1,.656-.307.891.891,0,0,1,.548.2.833.833,0,0,1,.3.578.818.818,0,0,1-.193.618,3.856,3.856,0,0,0,2.96,6.319h0a.827.827,0,0,0,.2-.015,3.851,3.851,0,0,0,3.652-3.837.852.852,0,1,1,1.7,0,5.546,5.546,0,0,1-5.219,5.541C3455.317,4360.176,3455.2,4360.184,3455.088,4360.184Z" fill="#ddb40a"/>
          <path id="Trazado_919" data-name="Trazado 919" d="M3466.773,4355.48a.855.855,0,0,1-.852-.852,2.641,2.641,0,1,0-5.281,0,.852.852,0,1,1-1.7,0,4.344,4.344,0,1,1,8.689,0A.852.852,0,0,1,3466.773,4355.48Z" fill="#ddb40a"/>
          <path id="Trazado_920" data-name="Trazado 920" d="M3453.754,4353.061a5.558,5.558,0,1,1,5.56-5.555.856.856,0,0,1-1.712,0,3.848,3.848,0,1,0-3.848,3.844.855.855,0,0,1,0,1.711Z" fill="#ddb40a"/>
          <path id="Trazado_921" data-name="Trazado 921" d="M3451.984,4344a.844.844,0,0,1-.626-.27,5.556,5.556,0,0,1,4.041-9.37h.137a5.2,5.2,0,0,1,5.226,4.125,2.871,2.871,0,0,0,2.644,2.752.856.856,0,1,1,0,1.712c-2.237,0-3.977-1.7-4.333-4.227-.237-1.626-2.015-2.629-3.6-2.651h-.078a3.843,3.843,0,0,0-2.789,6.489.859.859,0,0,1-.033,1.2A.883.883,0,0,1,3451.984,4344Z" fill="#ddb40a"/>
          <path id="Trazado_922" data-name="Trazado 922" d="M3455.484,4336.076a.852.852,0,0,1-.819-.622,5.277,5.277,0,0,1-.226-1.545,5.566,5.566,0,0,1,7.982-5,.856.856,0,0,1,.393,1.137.832.832,0,0,1-.763.485.928.928,0,0,1-.378-.085,3.756,3.756,0,0,0-1.678-.381,3.845,3.845,0,0,0-3.844,3.848,3.693,3.693,0,0,0,.155,1.074.869.869,0,0,1-.078.656.885.885,0,0,1-.51.4A.732.732,0,0,1,3455.484,4336.076Z" fill="#ddb40a"/>
        </g>
        <g id="Grupo_811" data-name="Grupo 811">
          <path id="Trazado_923" data-name="Trazado 923" d="M3478.955,4370.169a5.565,5.565,0,0,1-5.563-5.559v-34.2a5.559,5.559,0,1,1,5.563,5.559.857.857,0,1,1,0-1.714,3.848,3.848,0,1,0-3.848-3.845v34.2a3.848,3.848,0,1,0,3.848-3.849.854.854,0,1,1,0-1.707,5.557,5.557,0,0,1,0,11.115Z" fill="#ddb40a"/>
          <path id="Trazado_924" data-name="Trazado 924" d="M3485.848,4366.491a5.517,5.517,0,0,1-2.623-.663.848.848,0,0,1-.344-1.159.857.857,0,0,1,.741-.445.9.9,0,0,1,.418.1,3.816,3.816,0,0,0,1.808.459,3.859,3.859,0,0,0,3.855-3.852,3.91,3.91,0,0,0-.226-1.322.823.823,0,0,1,.019-.655.879.879,0,0,1,.482-.445,1.1,1.1,0,0,1,.292-.051.856.856,0,0,1,.8.566,5.391,5.391,0,0,1,.337,1.907A5.571,5.571,0,0,1,3485.848,4366.491Z" fill="#ddb40a"/>
          <path id="Trazado_925" data-name="Trazado 925" d="M3490.551,4360.184c-.1,0-.225-.008-.329-.012a5.547,5.547,0,0,1-5.215-5.544.846.846,0,1,1,1.693,0,3.847,3.847,0,0,0,3.637,3.834.986.986,0,0,0,.214.018,3.86,3.86,0,0,0,2.964-6.319.809.809,0,0,1-.2-.622.841.841,0,0,1,.3-.581.857.857,0,0,1,.544-.193.835.835,0,0,1,.656.307,5.548,5.548,0,0,1-4.271,9.112Z" fill="#ddb40a"/>
          <path id="Trazado_926" data-name="Trazado 926" d="M3485.848,4355.48a.851.851,0,0,1-.841-.852,2.641,2.641,0,1,0-5.282,0,.856.856,0,0,1-1.711,0,4.343,4.343,0,1,1,8.686,0A.854.854,0,0,1,3485.848,4355.48Z" fill="#ddb40a"/>
          <path id="Trazado_927" data-name="Trazado 927" d="M3491.892,4353.061a.856.856,0,1,1,0-1.711,3.848,3.848,0,1,0-3.848-3.844.859.859,0,0,1-1.718,0,5.559,5.559,0,1,1,5.566,5.555Z" fill="#ddb40a"/>
          <path id="Trazado_928" data-name="Trazado 928" d="M3493.666,4344a.855.855,0,0,1-.622-1.44,3.846,3.846,0,0,0-2.8-6.489h-.074c-1.593.022-3.374,1.025-3.6,2.651-.352,2.53-2.093,4.227-4.341,4.227a.856.856,0,0,1,0-1.712,2.872,2.872,0,0,0,2.648-2.752,5.205,5.205,0,0,1,5.237-4.125h.134a5.559,5.559,0,0,1,4.037,9.37A.841.841,0,0,1,3493.666,4344Z" fill="#ddb40a"/>
          <path id="Trazado_929" data-name="Trazado 929" d="M3490.163,4336.076a.66.66,0,0,1-.256-.045.858.858,0,0,1-.5-.392.842.842,0,0,1-.071-.656,4.058,4.058,0,0,0,.149-1.074,3.852,3.852,0,0,0-3.849-3.848,3.715,3.715,0,0,0-1.674.385.962.962,0,0,1-.374.081.836.836,0,0,1-.763-.485.846.846,0,0,1,.4-1.133,5.451,5.451,0,0,1,2.415-.556,5.542,5.542,0,0,1,5.337,7.108A.838.838,0,0,1,3490.163,4336.076Z" fill="#ddb40a"/>
        </g>
      </g>
      <g id="Grupo_813" data-name="Grupo 813">
        <path id="Trazado_930" data-name="Trazado 930" d="M3472.825,4415.052l-8.37-5H3481.2Z" fill="#fff"/>
        <path id="Trazado_931" data-name="Trazado 931" d="M3486.607,4408.088a1.967,1.967,0,0,1-1.963,1.967H3461a1.974,1.974,0,0,1-1.971-1.967v-16.411h27.575Z" fill="#9a9c9e"/>
        <rect id="Rectángulo_96" data-name="Rectángulo 96" width="27.575" height="2.033" transform="translate(3459.032 4393.718)" fill="#495057"/>
        <rect id="Rectángulo_97" data-name="Rectángulo 97" width="27.575" height="2.037" transform="translate(3459.032 4397.811)" fill="#495057"/>
        <rect id="Rectángulo_98" data-name="Rectángulo 98" width="27.575" height="2.041" transform="translate(3459.032 4401.885)" fill="#495057"/>
        <rect id="Rectángulo_99" data-name="Rectángulo 99" width="27.575" height="2.052" transform="translate(3459.032 4405.966)" fill="#495057"/>
      </g>
    </g>
  </g>
</svg>
