<svg xmlns="http://www.w3.org/2000/svg" width="231.781" height="222.776" viewBox="0 0 231.781 222.776">
  <g id="Grupo_980" data-name="Grupo 980" transform="translate(-4003.175 -6878.177)">
    <rect id="Rectángulo_148" data-name="Rectángulo 148" width="146.304" height="143.309" transform="translate(4004.175 6879.177)" fill="#fff" stroke="#3f63aa" stroke-miterlimit="10" stroke-width="2"/>
    <rect id="Rectángulo_149" data-name="Rectángulo 149" width="146.304" height="32.828" transform="translate(4004.175 7022.602)" fill="#fff" stroke="#3f63aa" stroke-miterlimit="10" stroke-width="2"/>
    <rect id="Rectángulo_150" data-name="Rectángulo 150" width="42.078" height="143.309" transform="translate(4150.747 6879.177)" fill="#fff" stroke="#3f63aa" stroke-miterlimit="10" stroke-width="2"/>
    <rect id="Rectángulo_151" data-name="Rectángulo 151" width="42.078" height="143.309" transform="translate(4191.878 6879.177)" fill="#fff" stroke="#3f63aa" stroke-miterlimit="10" stroke-width="2"/>
    <path id="Trazado_1005" data-name="Trazado 1005" d="M4080.811,6991.894a18.18,18.18,0,0,1-12.657-4.889,18.609,18.609,0,0,1-5.464-9.9c-1.039-4.705-.124-9.157,1.8-13.466a77.81,77.81,0,0,1,6.92-11.672,73.507,73.507,0,0,0,7.925-14.418c.312-.8.548-1.637.829-2.454a6.511,6.511,0,0,1,.351-.852c.067-.131.21-.3.327-.3s.267.152.343.275a2.771,2.771,0,0,1,.3.674,42.14,42.14,0,0,0,4.535,10.179c2.28,3.766,4.726,7.433,7.089,11.15a43.067,43.067,0,0,1,5.373,10.8c2.13,7.229.791,13.758-4.3,19.35a16.783,16.783,0,0,1-10.6,5.309C4082.661,6991.793,4081.733,6991.823,4080.811,6991.894Z" fill="#009bdb"/>
    <g id="Grupo_975" data-name="Grupo 975">
      <path id="Trazado_1006" data-name="Trazado 1006" d="M4049.5,6917.02v-10.277h2.353v8.478h4.5v1.8Z" fill="#444242"/>
      <path id="Trazado_1007" data-name="Trazado 1007" d="M4057.984,6908.3v-.19a20.155,20.155,0,0,0,1.783-2.116h2.6v.147q-.394.365-1.347,1.087c-.636.48-1.132.837-1.492,1.072Zm2.428,8.723H4058.1v-7.859h2.315Z" fill="#444242"/>
      <path id="Trazado_1008" data-name="Trazado 1008" d="M4065.528,6917.161a2.832,2.832,0,0,1-2.353-1.072,5.652,5.652,0,0,1,.019-5.993,2.885,2.885,0,0,1,2.379-1.082,3.286,3.286,0,0,1,1.4.281,2.875,2.875,0,0,1,1.055.871h.061l.2-1h1.958v11.318h-2.322v-3.3a9.639,9.639,0,0,1,.1-1.181h-.1a2.4,2.4,0,0,1-.986.865A3.26,3.26,0,0,1,4065.528,6917.161Zm.827-1.68a1.629,1.629,0,0,0,1.29-.468,2.642,2.642,0,0,0,.448-1.634v-.26a3.022,3.022,0,0,0-.422-1.814,1.6,1.6,0,0,0-1.354-.548q-1.632,0-1.632,2.376a3.1,3.1,0,0,0,.406,1.764A1.431,1.431,0,0,0,4066.355,6915.481Z" fill="#444242"/>
      <path id="Trazado_1009" data-name="Trazado 1009" d="M4078.686,6917.02l-.311-1h-.121a2.39,2.39,0,0,1-1.054.847,3.857,3.857,0,0,1-1.557.3,3.1,3.1,0,0,1-2.254-.742,2.848,2.848,0,0,1-.759-2.133v-5.125h2.316v4.591a2.071,2.071,0,0,0,.326,1.275,1.225,1.225,0,0,0,1.039.426,1.613,1.613,0,0,0,1.4-.6,3.5,3.5,0,0,0,.433-1.993v-3.7h2.314v7.859Z" fill="#444242"/>
      <path id="Trazado_1010" data-name="Trazado 1010" d="M4082.792,6907.13q0-1.047,1.26-1.048t1.26,1.048a.978.978,0,0,1-.315.776,1.389,1.389,0,0,1-.945.278Q4082.792,6908.184,4082.792,6907.13Zm2.413,9.89h-2.314v-7.859h2.314Z" fill="#444242"/>
      <path id="Trazado_1011" data-name="Trazado 1011" d="M4090.321,6917.161a2.839,2.839,0,0,1-2.35-1.076,5.643,5.643,0,0,1,.016-5.992,2.9,2.9,0,0,1,2.4-1.079,2.839,2.839,0,0,1,2.443,1.152h.076a8.087,8.087,0,0,1-.175-1.567v-2.517h2.323v10.938h-1.776l-.448-1.019h-.1A2.712,2.712,0,0,1,4090.321,6917.161Zm.812-1.708a1.632,1.632,0,0,0,1.3-.478,2.627,2.627,0,0,0,.452-1.624v-.232a3.022,3.022,0,0,0-.422-1.814,1.619,1.619,0,0,0-1.37-.548,1.388,1.388,0,0,0-1.2.608,3.05,3.05,0,0,0-.428,1.768,2.9,2.9,0,0,0,.432,1.74A1.452,1.452,0,0,0,4091.133,6915.453Z" fill="#444242"/>
      <path id="Trazado_1012" data-name="Trazado 1012" d="M4105.18,6913.077a4.036,4.036,0,0,1-1.093,3,4.136,4.136,0,0,1-3.043,1.083,4.523,4.523,0,0,1-2.156-.5,3.418,3.418,0,0,1-1.434-1.423,4.49,4.49,0,0,1-.5-2.165,4.012,4.012,0,0,1,1.085-3,4.163,4.163,0,0,1,3.051-1.068,4.563,4.563,0,0,1,2.155.492,3.407,3.407,0,0,1,1.434,1.413A4.448,4.448,0,0,1,4105.18,6913.077Zm-5.866,0a3.1,3.1,0,0,0,.414,1.764,1.517,1.517,0,0,0,1.347.6,1.5,1.5,0,0,0,1.331-.594,3.143,3.143,0,0,0,.406-1.768,3.05,3.05,0,0,0-.41-1.751,1.833,1.833,0,0,0-2.679,0A3.05,3.05,0,0,0,4099.314,6913.077Z" fill="#444242"/>
      <path id="Trazado_1013" data-name="Trazado 1013" d="M4113.012,6914.686a2.105,2.105,0,0,1-.907,1.842,4.75,4.75,0,0,1-2.713.633,9.207,9.207,0,0,1-1.579-.116,6.314,6.314,0,0,1-1.221-.341v-1.772a8.406,8.406,0,0,0,1.453.471,6.309,6.309,0,0,0,1.423.19q1.26,0,1.26-.675a.544.544,0,0,0-.167-.411,2.467,2.467,0,0,0-.577-.358c-.274-.134-.637-.289-1.092-.468a7.021,7.021,0,0,1-1.439-.7,2,2,0,0,1-.668-.741,2.29,2.29,0,0,1-.209-1.03,1.831,1.831,0,0,1,.877-1.621,4.543,4.543,0,0,1,2.485-.572,7.54,7.54,0,0,1,2.983.618l-.7,1.547q-.639-.254-1.192-.415a3.988,3.988,0,0,0-1.131-.162q-1.023,0-1.024.513a.6.6,0,0,0,.33.5,9.4,9.4,0,0,0,1.446.625,6.955,6.955,0,0,1,1.456.7,2.1,2.1,0,0,1,.684.745A2.143,2.143,0,0,1,4113.012,6914.686Z" fill="#444242"/>
    </g>
    <g id="Grupo_976" data-name="Grupo 976">
      <path id="Trazado_1014" data-name="Trazado 1014" d="M4166.774,7009.511a4.453,4.453,0,0,1,.671-2.569,2.092,2.092,0,0,1,1.81-.976,2.254,2.254,0,0,1,1.4.471,3.983,3.983,0,0,1,1.1,1.518,5.324,5.324,0,0,1,1.29-1.787,2.289,2.289,0,0,1,1.472-.543,2.392,2.392,0,0,1,2.035,1.07,4.715,4.715,0,0,1,.77,2.816,4.976,4.976,0,0,1-.717,2.861,2.324,2.324,0,0,1-2.031,1.04,2.554,2.554,0,0,1-1.561-.5,4.16,4.16,0,0,1-1.2-1.62,4.025,4.025,0,0,1-1.188,1.365,2.455,2.455,0,0,1-1.385.418,2.08,2.08,0,0,1-1.785-.987A4.429,4.429,0,0,1,4166.774,7009.511Zm7.676,1.73a1.108,1.108,0,0,0,.942-.455,2.548,2.548,0,0,0-.01-2.55,1.118,1.118,0,0,0-.918-.433,1.213,1.213,0,0,0-.882.429,5.555,5.555,0,0,0-.875,1.392Q4173.4,7011.241,4174.45,7011.241Zm-6.088-1.715a1.536,1.536,0,0,0,.285.967.915.915,0,0,0,.763.369,1.117,1.117,0,0,0,.756-.293,3.216,3.216,0,0,0,.685-1.058,2.948,2.948,0,0,0-.661-1.04,1.148,1.148,0,0,0-.78-.3.9.9,0,0,0-.766.379A1.592,1.592,0,0,0,4168.362,7009.526Z" fill="#444242"/>
      <path id="Trazado_1015" data-name="Trazado 1015" d="M4168.573,6994.939a2.47,2.47,0,0,0,.925,2.058,4.07,4.07,0,0,0,2.576.728q3.438,0,3.438-2.786a9.426,9.426,0,0,0-.542-2.83h1.828a8.423,8.423,0,0,1,.527,3.051,4.845,4.845,0,0,1-1.36,3.7,5.478,5.478,0,0,1-3.9,1.283,5.983,5.983,0,0,1-2.808-.63,4.354,4.354,0,0,1-1.849-1.81,5.7,5.7,0,0,1-.643-2.767,7.949,7.949,0,0,1,.724-3.247l1.771.758a13.359,13.359,0,0,0-.478,1.252A4.011,4.011,0,0,0,4168.573,6994.939Z" fill="#444242"/>
      <path id="Trazado_1016" data-name="Trazado 1016" d="M4173.241,6982.22a4.039,4.039,0,0,1,3,1.093,4.137,4.137,0,0,1,1.082,3.043,4.533,4.533,0,0,1-.5,2.156,3.42,3.42,0,0,1-1.424,1.434,4.484,4.484,0,0,1-2.165.5,4.012,4.012,0,0,1-3-1.085,4.165,4.165,0,0,1-1.068-3.051,4.558,4.558,0,0,1,.492-2.156,3.408,3.408,0,0,1,1.413-1.434A4.447,4.447,0,0,1,4173.241,6982.22Zm0,5.867a3.093,3.093,0,0,0,1.764-.414,1.518,1.518,0,0,0,.6-1.347,1.5,1.5,0,0,0-.594-1.332,3.149,3.149,0,0,0-1.768-.406,3.052,3.052,0,0,0-1.75.41,1.833,1.833,0,0,0,0,2.679A3.052,3.052,0,0,0,4173.241,6988.087Z" fill="#444242"/>
      <path id="Trazado_1017" data-name="Trazado 1017" d="M4169.178,6975.572a4.041,4.041,0,0,1,.063-.782l2.011.175a2.85,2.85,0,0,0-.071.683,2.575,2.575,0,0,0,.528,1.726,1.831,1.831,0,0,0,1.476.619h4v2.314h-7.859v-1.753l1.321-.341v-.114a3.066,3.066,0,0,1-1.065-1.066A2.788,2.788,0,0,1,4169.178,6975.572Z" fill="#444242"/>
      <path id="Trazado_1018" data-name="Trazado 1018" d="M4169.178,6968.514a4.061,4.061,0,0,1,.063-.782l2.011.175a2.846,2.846,0,0,0-.071.683,2.58,2.58,0,0,0,.528,1.727,1.83,1.83,0,0,0,1.476.618h4v2.315h-7.859V6971.5l1.321-.341v-.114a3.074,3.074,0,0,1-1.065-1.066A2.788,2.788,0,0,1,4169.178,6968.514Z" fill="#444242"/>
      <path id="Trazado_1019" data-name="Trazado 1019" d="M4173.241,6958.481a4.04,4.04,0,0,1,3,1.093,4.138,4.138,0,0,1,1.082,3.043,4.529,4.529,0,0,1-.5,2.156,3.416,3.416,0,0,1-1.424,1.435,4.484,4.484,0,0,1-2.165.5,4.012,4.012,0,0,1-3-1.086,4.164,4.164,0,0,1-1.068-3.05,4.554,4.554,0,0,1,.492-2.156,3.415,3.415,0,0,1,1.413-1.435A4.447,4.447,0,0,1,4173.241,6958.481Zm0,5.867a3.1,3.1,0,0,0,1.764-.413,1.521,1.521,0,0,0,.6-1.347,1.5,1.5,0,0,0-.594-1.333,3.149,3.149,0,0,0-1.768-.406,3.052,3.052,0,0,0-1.75.411,1.832,1.832,0,0,0,0,2.678A3.056,3.056,0,0,0,4173.241,6964.348Z" fill="#444242"/>
      <path id="Trazado_1020" data-name="Trazado 1020" d="M4174.851,6950.65a2.106,2.106,0,0,1,1.842.906,4.766,4.766,0,0,1,.632,2.714,9.1,9.1,0,0,1-.116,1.578,6.222,6.222,0,0,1-.341,1.222H4175.1a8.572,8.572,0,0,0,.471-1.453,6.359,6.359,0,0,0,.19-1.423q0-1.26-.675-1.26a.541.541,0,0,0-.411.167,2.416,2.416,0,0,0-.359.577q-.2.409-.467,1.093a7.139,7.139,0,0,1-.7,1.438,2.034,2.034,0,0,1-.742.668,2.291,2.291,0,0,1-1.03.208,1.827,1.827,0,0,1-1.62-.876,4.535,4.535,0,0,1-.573-2.486,7.511,7.511,0,0,1,.619-2.982l1.546.7q-.253.637-.415,1.191a4.038,4.038,0,0,0-.161,1.131q0,1.025.513,1.025a.6.6,0,0,0,.5-.33,9.386,9.386,0,0,0,.626-1.446,6.891,6.891,0,0,1,.7-1.457,2.1,2.1,0,0,1,.746-.683A2.14,2.14,0,0,1,4174.851,6950.65Z" fill="#444242"/>
      <path id="Trazado_1021" data-name="Trazado 1021" d="M4167.294,6948.942q-1.047,0-1.047-1.26t1.047-1.259a.98.98,0,0,1,.777.315,1.394,1.394,0,0,1,.277.944Q4168.348,6948.942,4167.294,6948.942Zm9.891-2.413v2.315h-7.859v-2.315Z" fill="#444242"/>
      <path id="Trazado_1022" data-name="Trazado 1022" d="M4177.185,6942.082l-7.859,3.233v-2.421l4.477-1.64a7.535,7.535,0,0,1,1.61-.341v-.045a6.612,6.612,0,0,1-1.61-.342l-4.477-1.632v-2.421l7.859,3.233Z" fill="#444242"/>
      <path id="Trazado_1023" data-name="Trazado 1023" d="M4173.241,6927.549a4.036,4.036,0,0,1,3,1.093,4.133,4.133,0,0,1,1.082,3.043,4.53,4.53,0,0,1-.5,2.155,3.419,3.419,0,0,1-1.424,1.434,4.484,4.484,0,0,1-2.165.5,4.012,4.012,0,0,1-3-1.085,4.164,4.164,0,0,1-1.068-3.051,4.558,4.558,0,0,1,.492-2.156,3.407,3.407,0,0,1,1.413-1.434A4.447,4.447,0,0,1,4173.241,6927.549Zm0,5.866A3.1,3.1,0,0,0,4175,6933a1.519,1.519,0,0,0,.6-1.347,1.493,1.493,0,0,0-.594-1.331,3.137,3.137,0,0,0-1.768-.406,3.053,3.053,0,0,0-1.75.409,1.833,1.833,0,0,0,0,2.679A3.048,3.048,0,0,0,4173.241,6933.415Z" fill="#444242"/>
    </g>
    <g id="Grupo_977" data-name="Grupo 977">
      <path id="Trazado_1024" data-name="Trazado 1024" d="M4211.726,7009.056a3.748,3.748,0,0,1,.836-2.562,2.892,2.892,0,0,1,2.292-.952,3.214,3.214,0,0,1,2.65,1.146,5.088,5.088,0,0,1,.928,3.278,6.859,6.859,0,0,1-.555,2.99H4216a6.527,6.527,0,0,0,.481-1.4,6.61,6.61,0,0,0,.187-1.51q0-2.147-1.631-2.148-1.554,0-1.554,2.224a5.925,5.925,0,0,0,.074.887,7.012,7.012,0,0,0,.158.79l-.464.934-5.237-.418V7006.3h1.842v3.961l2.017.2-.049-.265A5.647,5.647,0,0,1,4211.726,7009.056Z" fill="#444242"/>
      <path id="Trazado_1025" data-name="Trazado 1025" d="M4217.286,7003.956a1.13,1.13,0,0,1-.893-.342,1.456,1.456,0,0,1-.3-.994,1.412,1.412,0,0,1,.309-.975,1.289,1.289,0,0,1,1.761,0,1.388,1.388,0,0,1,.32.972,1.423,1.423,0,0,1-.313.986A1.121,1.121,0,0,1,4217.286,7003.956Z" fill="#444242"/>
      <path id="Trazado_1026" data-name="Trazado 1026" d="M4218.291,6993.991v2.345h-5.947l-.977-.023-1.068-.038q.542.585.71.812l.949,1.275-1.308,1.131-2.636-3.575v-1.927Z" fill="#444242"/>
      <path id="Trazado_1027" data-name="Trazado 1027" d="M4209.68,6981.393a2.473,2.473,0,0,0,.924,2.057,4.076,4.076,0,0,0,2.577.728q3.437,0,3.437-2.785a9.418,9.418,0,0,0-.541-2.831h1.828a8.426,8.426,0,0,1,.527,3.051,4.846,4.846,0,0,1-1.36,3.7,5.478,5.478,0,0,1-3.9,1.282,5.984,5.984,0,0,1-2.809-.629,4.363,4.363,0,0,1-1.848-1.81,5.7,5.7,0,0,1-.644-2.767,7.951,7.951,0,0,1,.725-3.248l1.771.759a13.288,13.288,0,0,0-.478,1.252A4.009,4.009,0,0,0,4209.68,6981.393Z" fill="#444242"/>
      <path id="Trazado_1028" data-name="Trazado 1028" d="M4214.348,6968.673a4.036,4.036,0,0,1,3,1.093,4.138,4.138,0,0,1,1.083,3.043,4.518,4.518,0,0,1-.5,2.156,3.415,3.415,0,0,1-1.423,1.435,4.49,4.49,0,0,1-2.165.5,4.012,4.012,0,0,1-3-1.086,4.163,4.163,0,0,1-1.068-3.05,4.561,4.561,0,0,1,.492-2.156,3.415,3.415,0,0,1,1.413-1.435A4.448,4.448,0,0,1,4214.348,6968.673Zm0,5.867a3.106,3.106,0,0,0,1.764-.413,1.52,1.52,0,0,0,.6-1.347,1.5,1.5,0,0,0-.594-1.333,3.151,3.151,0,0,0-1.768-.406,3.057,3.057,0,0,0-1.751.411,1.832,1.832,0,0,0,0,2.678A3.049,3.049,0,0,0,4214.348,6974.54Z" fill="#444242"/>
      <path id="Trazado_1029" data-name="Trazado 1029" d="M4218.291,6959.165v2.314h-4.59a2.17,2.17,0,0,0-1.276.308,1.114,1.114,0,0,0-.425.967,1.438,1.438,0,0,0,.6,1.29,3.723,3.723,0,0,0,1.99.4h3.7v2.314h-7.859v-1.768l1-.312v-.128a2.3,2.3,0,0,1-.847-.987,3.43,3.43,0,0,1-.3-1.479,2.736,2.736,0,0,1,1.152-2.581v-.205a2.233,2.233,0,0,1-.85-1,3.594,3.594,0,0,1-.3-1.5,3.1,3.1,0,0,1,.685-2.182,2.866,2.866,0,0,1,2.2-.74h5.124v2.323h-4.59a2.186,2.186,0,0,0-1.276.306,1.118,1.118,0,0,0-.425.969,1.485,1.485,0,0,0,.562,1.27,3,3,0,0,0,1.786.422Z" fill="#444242"/>
      <path id="Trazado_1030" data-name="Trazado 1030" d="M4210.285,6946.779a2.819,2.819,0,0,1,1.086-2.352,4.71,4.71,0,0,1,2.977-.85,4.633,4.633,0,0,1,3.015.876,3.218,3.218,0,0,1,.064,4.732v.16l.864.386v1.768h-10.938v-2.314h2.545q.485,0,1.554.091v-.091A2.742,2.742,0,0,1,4210.285,6946.779Zm1.715.744a1.518,1.518,0,0,0,.488,1.252,2.649,2.649,0,0,0,1.614.41h.232a3.115,3.115,0,0,0,1.813-.406,1.494,1.494,0,0,0,.549-1.287,1.314,1.314,0,0,0-.608-1.134,3.1,3.1,0,0,0-1.768-.421,2.938,2.938,0,0,0-1.74.424A1.364,1.364,0,0,0,4212,6947.523Z" fill="#444242"/>
      <path id="Trazado_1031" data-name="Trazado 1031" d="M4218.291,6935.654l-1,.311v.121a2.4,2.4,0,0,1,.847,1.055,3.846,3.846,0,0,1,.3,1.556,3.1,3.1,0,0,1-.742,2.254,2.847,2.847,0,0,1-2.133.759h-5.125V6939.4h4.591a2.076,2.076,0,0,0,1.275-.326,1.227,1.227,0,0,0,.426-1.04,1.613,1.613,0,0,0-.6-1.4,3.5,3.5,0,0,0-1.993-.433h-3.7v-2.314h7.859Z" fill="#444242"/>
      <path id="Trazado_1032" data-name="Trazado 1032" d="M4210.285,6926.714a4.041,4.041,0,0,1,.063-.782l2.01.175a2.9,2.9,0,0,0-.07.682,2.584,2.584,0,0,0,.527,1.727,1.835,1.835,0,0,0,1.477.619h4v2.314h-7.859V6929.7l1.322-.341v-.114a3.072,3.072,0,0,1-1.065-1.066A2.785,2.785,0,0,1,4210.285,6926.714Z" fill="#444242"/>
      <path id="Trazado_1033" data-name="Trazado 1033" d="M4218.432,6920.551a4.59,4.59,0,0,1-1.047,3.2,3.805,3.805,0,0,1-2.967,1.154,4.16,4.16,0,0,1-3.054-1.067,3.954,3.954,0,0,1-1.079-2.948,3.91,3.91,0,0,1,.949-2.8,3.438,3.438,0,0,1,2.622-1h1.04v5.472a1.988,1.988,0,0,0,1.427-.585,2.153,2.153,0,0,0,.513-1.533,6.867,6.867,0,0,0-.147-1.449,7.707,7.707,0,0,0-.471-1.427h1.659a5.794,5.794,0,0,1,.418,1.3A8.812,8.812,0,0,1,4218.432,6920.551Zm-6.622.327a1.526,1.526,0,0,0,.432,1.153,1.908,1.908,0,0,0,1.227.478v-3.248a1.71,1.71,0,0,0-1.227.449A1.578,1.578,0,0,0,4211.81,6920.878Z" fill="#444242"/>
      <path id="Trazado_1034" data-name="Trazado 1034" d="M4218.291,6907.377v2.315h-4.59a2.083,2.083,0,0,0-1.276.326,1.229,1.229,0,0,0-.425,1.04,1.608,1.608,0,0,0,.6,1.4,3.5,3.5,0,0,0,1.993.433h3.7v2.315h-7.859v-1.768l1-.312V6913a2.41,2.41,0,0,1-.861-1.067,3.881,3.881,0,0,1-.291-1.544,3.112,3.112,0,0,1,.741-2.247,2.847,2.847,0,0,1,2.141-.766Z" fill="#444242"/>
      <path id="Trazado_1035" data-name="Trazado 1035" d="M4216.724,6901.419a5.365,5.365,0,0,0-.246-1.456h1.6a5.557,5.557,0,0,1,.359,2.124,2.729,2.729,0,0,1-.65,2.023,2.69,2.69,0,0,1-1.951.634h-3.789v1.108h-.907l-.717-1.275-1.659-.668v-1.48h1.673v-2.376h1.61v2.376h3.789a.8.8,0,0,0,.675-.278A1.149,1.149,0,0,0,4216.724,6901.419Z" fill="#444242"/>
      <path id="Trazado_1036" data-name="Trazado 1036" d="M4218.432,6894.407a4.587,4.587,0,0,1-1.047,3.2,3.8,3.8,0,0,1-2.967,1.154,4.157,4.157,0,0,1-3.054-1.066,3.957,3.957,0,0,1-1.079-2.949,3.91,3.91,0,0,1,.949-2.8,3.437,3.437,0,0,1,2.622-1h1.04v5.472a1.982,1.982,0,0,0,1.427-.584,2.154,2.154,0,0,0,.513-1.533,6.87,6.87,0,0,0-.147-1.45,7.755,7.755,0,0,0-.471-1.427h1.659a5.794,5.794,0,0,1,.418,1.3A8.825,8.825,0,0,1,4218.432,6894.407Zm-6.622.326a1.528,1.528,0,0,0,.432,1.154,1.913,1.913,0,0,0,1.227.478v-3.248a1.709,1.709,0,0,0-1.227.448A1.58,1.58,0,0,0,4211.81,6894.733Z" fill="#444242"/>
    </g>
    <g id="Grupo_978" data-name="Grupo 978">
      <path id="Trazado_1037" data-name="Trazado 1037" d="M4015.375,7036.514a3.74,3.74,0,0,1,2.561.837,2.889,2.889,0,0,1,.953,2.292,3.216,3.216,0,0,1-1.146,2.65,5.1,5.1,0,0,1-3.279.928,6.845,6.845,0,0,1-2.99-.556v-1.877a6.531,6.531,0,0,0,1.4.482,6.651,6.651,0,0,0,1.51.186q2.146,0,2.148-1.631,0-1.553-2.224-1.553a5.808,5.808,0,0,0-.888.074,6.978,6.978,0,0,0-.789.158l-.934-.464.417-5.237h6.019v1.842h-3.962l-.2,2.017.265-.049A5.6,5.6,0,0,1,4015.375,7036.514Z" fill="#444242"/>
      <path id="Trazado_1038" data-name="Trazado 1038" d="M4020.475,7042.075a1.13,1.13,0,0,1,.342-.893,1.454,1.454,0,0,1,.993-.3,1.414,1.414,0,0,1,.976.309,1.29,1.29,0,0,1,0,1.761,1.388,1.388,0,0,1-.972.32,1.43,1.43,0,0,1-.986-.313A1.125,1.125,0,0,1,4020.475,7042.075Z" fill="#444242"/>
      <path id="Trazado_1039" data-name="Trazado 1039" d="M4030.439,7043.08h-2.344v-5.947l.023-.977.037-1.069q-.585.543-.811.71l-1.275.949-1.131-1.307,3.574-2.636h1.927Z" fill="#444242"/>
      <path id="Trazado_1040" data-name="Trazado 1040" d="M4043.037,7034.469a2.468,2.468,0,0,0-2.056.924,4.067,4.067,0,0,0-.728,2.577q0,3.437,2.784,3.437a9.414,9.414,0,0,0,2.831-.541v1.827a8.4,8.4,0,0,1-3.051.528,4.844,4.844,0,0,1-3.7-1.361,5.476,5.476,0,0,1-1.282-3.9,5.983,5.983,0,0,1,.629-2.808,4.368,4.368,0,0,1,1.81-1.849,5.7,5.7,0,0,1,2.766-.643,7.97,7.97,0,0,1,3.249.724l-.76,1.772a13.006,13.006,0,0,0-1.252-.478A4.006,4.006,0,0,0,4043.037,7034.469Z" fill="#444242"/>
      <path id="Trazado_1041" data-name="Trazado 1041" d="M4055.757,7039.136a4.033,4.033,0,0,1-1.093,3,4.136,4.136,0,0,1-3.043,1.083,4.527,4.527,0,0,1-2.155-.5,3.413,3.413,0,0,1-1.435-1.423,4.488,4.488,0,0,1-.5-2.166,4.014,4.014,0,0,1,1.085-2.994,4.167,4.167,0,0,1,3.051-1.069,4.562,4.562,0,0,1,2.155.492,3.415,3.415,0,0,1,1.435,1.413A4.452,4.452,0,0,1,4055.757,7039.136Zm-5.867,0a3.1,3.1,0,0,0,.414,1.765,1.523,1.523,0,0,0,1.347.6,1.5,1.5,0,0,0,1.332-.594,3.139,3.139,0,0,0,.406-1.768,3.054,3.054,0,0,0-.41-1.75,1.834,1.834,0,0,0-2.679,0A3.051,3.051,0,0,0,4049.89,7039.136Z" fill="#444242"/>
      <path id="Trazado_1042" data-name="Trazado 1042" d="M4065.266,7043.08h-2.315v-4.59a2.178,2.178,0,0,0-.307-1.276,1.113,1.113,0,0,0-.968-.425,1.437,1.437,0,0,0-1.29.6,3.717,3.717,0,0,0-.4,1.989v3.7h-2.315v-7.859h1.768l.312,1h.128a2.3,2.3,0,0,1,.987-.847,3.418,3.418,0,0,1,1.48-.306,2.737,2.737,0,0,1,2.581,1.153h.2a2.237,2.237,0,0,1,1.006-.85,3.565,3.565,0,0,1,1.5-.3,3.1,3.1,0,0,1,2.181.686,2.866,2.866,0,0,1,.74,2.2v5.125h-2.322v-4.59a2.178,2.178,0,0,0-.307-1.276,1.113,1.113,0,0,0-.968-.425,1.487,1.487,0,0,0-1.271.562,3,3,0,0,0-.421,1.785Z" fill="#444242"/>
      <path id="Trazado_1043" data-name="Trazado 1043" d="M4077.652,7035.073a2.82,2.82,0,0,1,2.352,1.086,4.709,4.709,0,0,1,.85,2.977,4.634,4.634,0,0,1-.876,3.016,3.217,3.217,0,0,1-4.732.063h-.16l-.387.865h-1.768v-10.938h2.315v2.545q0,.484-.092,1.553h.092A2.742,2.742,0,0,1,4077.652,7035.073Zm-.745,1.716a1.519,1.519,0,0,0-1.252.488,2.655,2.655,0,0,0-.409,1.613v.232a3.112,3.112,0,0,0,.406,1.814,1.492,1.492,0,0,0,1.286.548,1.313,1.313,0,0,0,1.135-.608,3.092,3.092,0,0,0,.421-1.768,2.939,2.939,0,0,0-.425-1.74A1.364,1.364,0,0,0,4076.907,7036.789Z" fill="#444242"/>
      <path id="Trazado_1044" data-name="Trazado 1044" d="M4088.777,7043.08l-.311-1h-.121a2.41,2.41,0,0,1-1.056.847,3.842,3.842,0,0,1-1.555.3,3.1,3.1,0,0,1-2.255-.742,2.852,2.852,0,0,1-.758-2.133v-5.125h2.314v4.59a2.081,2.081,0,0,0,.326,1.276,1.228,1.228,0,0,0,1.041.425,1.609,1.609,0,0,0,1.4-.6,3.494,3.494,0,0,0,.433-1.993v-3.7h2.315v7.859Z" fill="#444242"/>
      <path id="Trazado_1045" data-name="Trazado 1045" d="M4097.717,7035.073a3.962,3.962,0,0,1,.782.064l-.175,2.01a2.855,2.855,0,0,0-.683-.07,2.575,2.575,0,0,0-1.726.527,1.833,1.833,0,0,0-.619,1.476v4h-2.315v-7.859h1.754l.34,1.321h.115a3.045,3.045,0,0,1,1.066-1.064A2.777,2.777,0,0,1,4097.717,7035.073Z" fill="#444242"/>
      <path id="Trazado_1046" data-name="Trazado 1046" d="M4103.879,7043.221a4.588,4.588,0,0,1-3.2-1.048,3.8,3.8,0,0,1-1.153-2.966,4.163,4.163,0,0,1,1.066-3.055,3.961,3.961,0,0,1,2.948-1.079,3.914,3.914,0,0,1,2.8.949,3.438,3.438,0,0,1,1,2.622v1.041h-5.471a1.98,1.98,0,0,0,.584,1.427,2.152,2.152,0,0,0,1.533.513,6.8,6.8,0,0,0,1.449-.148,7.526,7.526,0,0,0,1.427-.471v1.659a5.726,5.726,0,0,1-1.3.419A8.865,8.865,0,0,1,4103.879,7043.221Zm-.327-6.622a1.53,1.53,0,0,0-1.153.432,1.921,1.921,0,0,0-.478,1.227h3.248a1.706,1.706,0,0,0-.448-1.227A1.582,1.582,0,0,0,4103.552,7036.6Z" fill="#444242"/>
      <path id="Trazado_1047" data-name="Trazado 1047" d="M4117.053,7043.08h-2.314v-4.59a2.087,2.087,0,0,0-.326-1.276,1.228,1.228,0,0,0-1.04-.425,1.609,1.609,0,0,0-1.4.6,3.491,3.491,0,0,0-.433,1.992v3.7h-2.314v-7.859h1.768l.311,1h.129a2.4,2.4,0,0,1,1.067-.861,3.875,3.875,0,0,1,1.543-.292,3.11,3.11,0,0,1,2.247.742,2.844,2.844,0,0,1,.766,2.14Z" fill="#444242"/>
      <path id="Trazado_1048" data-name="Trazado 1048" d="M4123.011,7041.512a5.336,5.336,0,0,0,1.457-.246v1.6a5.553,5.553,0,0,1-2.125.359,2.724,2.724,0,0,1-2.023-.651,2.691,2.691,0,0,1-.633-1.95v-3.789h-1.108v-.907l1.275-.717.668-1.659H4122v1.673h2.376v1.61H4122v3.789a.806.806,0,0,0,.278.675A1.154,1.154,0,0,0,4123.011,7041.512Z" fill="#444242"/>
      <path id="Trazado_1049" data-name="Trazado 1049" d="M4130.023,7043.221a4.587,4.587,0,0,1-3.2-1.048,3.8,3.8,0,0,1-1.154-2.966,4.163,4.163,0,0,1,1.066-3.055,3.961,3.961,0,0,1,2.949-1.079,3.916,3.916,0,0,1,2.8.949,3.441,3.441,0,0,1,1,2.622v1.041h-5.471a1.972,1.972,0,0,0,.584,1.427,2.149,2.149,0,0,0,1.532.513,6.8,6.8,0,0,0,1.45-.148,7.583,7.583,0,0,0,1.427-.471v1.659a5.718,5.718,0,0,1-1.3.419A8.857,8.857,0,0,1,4130.023,7043.221Zm-.326-6.622a1.532,1.532,0,0,0-1.154.432,1.921,1.921,0,0,0-.478,1.227h3.249a1.714,1.714,0,0,0-.448-1.227A1.584,1.584,0,0,0,4129.7,7036.6Z" fill="#444242"/>
    </g>
    <rect id="Rectángulo_152" data-name="Rectángulo 152" width="146.304" height="32.828" transform="translate(4004.175 7055.429)" fill="#fff" stroke="#3f63aa" stroke-miterlimit="10" stroke-width="2"/>
    <text id="_8_Corrosivo_" data-name="8 Corrosivo





" transform="translate(4012.493 7061.953)" fill="#444242" font-size="14.397" font-family="OpenSans-Bold, Open Sans" font-weight="700"><tspan x="0" y="15">8 Corrosivo</tspan></text>
    <rect id="Rectángulo_153" data-name="Rectángulo 153" width="41.292" height="33.291" transform="translate(4150.586 7022.139)" fill="#bf0811" stroke="#3f63aa" stroke-miterlimit="10" stroke-width="2"/>
    <rect id="Rectángulo_154" data-name="Rectángulo 154" width="41.292" height="33.291" transform="translate(4150.586 7055.198)" fill="#f7ec45" stroke="#3f63aa" stroke-miterlimit="10" stroke-width="2"/>
    <rect id="Rectángulo_155" data-name="Rectángulo 155" width="41.685" height="33.291" transform="translate(4192.271 7022.139)" fill="#a3bd31" stroke="#3f63aa" stroke-miterlimit="10" stroke-width="2"/>
    <g id="Grupo_979" data-name="Grupo 979">
      <path id="Trazado_1050" data-name="Trazado 1050" d="M4173.577,7077.79h-2.345v-5.947l.023-.977.038-1.069q-.585.543-.812.71l-1.275.949-1.131-1.307,3.574-2.636h1.928Z" fill="#444242"/>
    </g>
  </g>
</svg>
