<svg xmlns="http://www.w3.org/2000/svg" width="118.276" height="94.152" viewBox="0 0 118.276 94.152">
  <g id="Grupo_1022" data-name="Grupo 1022" transform="translate(-3472.612 -9022.444)">
    <g id="Grupo_1009" data-name="Grupo 1009">
      <g id="Grupo_1008" data-name="Grupo 1008">
        <path id="Trazado_1251" data-name="Trazado 1251" d="M3583.193,9089.207c-30.273-6.881-32.4-51.835-72.461-58.388-2.462-.454-5.053-2.462-2.97-4.853h0a10.775,10.775,0,0,1,9.578-3.375c30.275,6.884,68.329,42.417,72.463,58.389C3592.953,9088.691,3586.52,9089.846,3583.193,9089.207Z" fill="#0e1c2d"/>
      </g>
    </g>
    <g id="Grupo_1011" data-name="Grupo 1011">
      <g id="Grupo_1010" data-name="Grupo 1010">
        <path id="Trazado_1252" data-name="Trazado 1252" d="M3480.267,9089.207c30.275-6.881,32.4-51.835,72.463-58.388,2.463-.454,5.052-2.462,2.969-4.853h0a10.777,10.777,0,0,0-9.578-3.375c-30.273,6.884-68.331,42.417-72.465,58.389C3470.507,9088.691,3476.941,9089.846,3480.267,9089.207Z" fill="#1a2e47"/>
      </g>
    </g>
    <g id="Grupo_1014" data-name="Grupo 1014">
      <g id="Grupo_1012" data-name="Grupo 1012">
        <path id="Trazado_1253" data-name="Trazado 1253" d="M3500.679,9067.693c-13.784,0-27.757,5.461-28.062,18.441-.314,13.281,14.278,30.3,28.062,30.459,12.08.141,17.722-4.271,21.388-10.182,2.7-4.351,4.334-9.121,9.685-9.121v-29.6Z" fill="#002c54"/>
      </g>
      <g id="Grupo_1013" data-name="Grupo 1013">
        <path id="Trazado_1254" data-name="Trazado 1254" d="M3562.817,9067.693h-31.065v29.6c5.343,0,6.981,4.771,9.679,9.121,3.668,5.91,9.308,10.322,21.386,10.182,13.786-.158,28.378-17.178,28.066-30.459C3590.577,9073.154,3576.6,9067.693,3562.817,9067.693Z" fill="#0e1c2d"/>
      </g>
    </g>
    <g id="Grupo_1017" data-name="Grupo 1017">
      <g id="Grupo_1015" data-name="Grupo 1015">
        <path id="Trazado_1255" data-name="Trazado 1255" d="M3579.256,9076.181c-4.151-2.357-9.985-3.656-16.439-3.656h-31.065v19.938h0c7.512,0,10.628,5.463,12.9,9.456.409.719.8,1.4,1.2,2.057,2.512,4.047,6.241,7.792,16.408,7.792l.491,0c4.343-.051,9.409-2.589,13.9-6.965,4.692-4.572,7.946-10.349,8.851-15.466a15.873,15.873,0,0,0,.252-3.093C3585.654,9081.9,3583.528,9078.611,3579.256,9076.181Z" fill="#c6dcff"/>
      </g>
      <g id="Grupo_1016" data-name="Grupo 1016">
        <path id="Trazado_1256" data-name="Trazado 1256" d="M3500.679,9072.524c-6.45,0-12.288,1.3-16.435,3.656-4.272,2.431-6.4,5.722-6.5,10.061a15.57,15.57,0,0,0,.25,3.095c.907,5.116,4.161,10.893,8.85,15.464,4.49,4.376,9.552,6.914,13.9,6.965l.494,0c10.167,0,13.892-3.745,16.4-7.792.409-.656.8-1.338,1.205-2.057,2.278-3.993,5.392-9.456,12.91-9.456v-19.937Z" fill="#dae8ff"/>
      </g>
    </g>
    <g id="Grupo_1019" data-name="Grupo 1019" opacity="0.4">
      <g id="Grupo_1018" data-name="Grupo 1018">
        <path id="Trazado_1257" data-name="Trazado 1257" d="M3585.5,9089.334a9.139,9.139,0,0,1-2.31-.127c-10.065-2.289-17.019-8.785-23.29-16.683h2.914c6.454,0,12.288,1.3,16.439,3.656,4.272,2.431,6.4,5.722,6.5,10.061A15.873,15.873,0,0,1,3585.5,9089.334Z" fill="#002c54"/>
      </g>
    </g>
    <g id="Grupo_1021" data-name="Grupo 1021" opacity="0.4">
      <g id="Grupo_1020" data-name="Grupo 1020">
        <path id="Trazado_1258" data-name="Trazado 1258" d="M3500.679,9072.524h2.88c-6.272,7.9-13.226,14.394-23.292,16.683a9.159,9.159,0,0,1-2.272.129,15.57,15.57,0,0,1-.25-3.095c.1-4.339,2.227-7.63,6.5-10.061C3488.391,9073.823,3494.229,9072.524,3500.679,9072.524Z" fill="#003868"/>
      </g>
    </g>
  </g>
</svg>
