<svg xmlns="http://www.w3.org/2000/svg" width="152.443" height="152.443" viewBox="0 0 152.443 152.443">
  <g id="Grupo_6752" data-name="Grupo 6752" transform="translate(-3761.889 -5602.834)">
    <path id="Trazado_910" data-name="Trazado 910" d="M3838.11,5602.834q3.745,0,7.471.367t7.4,1.1q3.673.731,7.256,1.817t7.043,2.52q3.459,1.432,6.762,3.2t6.416,3.846q3.112,2.079,6.008,4.456t5.542,5.023q2.647,2.647,5.023,5.542t4.456,6.008q2.08,3.114,3.846,6.416t3.2,6.762q1.433,3.458,2.52,7.043t1.817,7.255q.731,3.673,1.1,7.4t.367,7.472q0,3.743-.367,7.47t-1.1,7.4q-.731,3.672-1.817,7.256t-2.52,7.042q-1.434,3.46-3.2,6.762t-3.846,6.416q-2.08,3.113-4.456,6.008t-5.023,5.542q-2.648,2.648-5.542,5.024t-6.008,4.455q-3.114,2.08-6.416,3.846t-6.762,3.2q-3.459,1.433-7.043,2.52t-7.256,1.817q-3.672.732-7.4,1.1t-7.471.367q-3.744,0-7.471-.367t-7.4-1.1q-3.672-.729-7.256-1.817t-7.043-2.52q-3.459-1.433-6.761-3.2t-6.416-3.846q-3.114-2.079-6.008-4.455t-5.543-5.024q-2.647-2.648-5.023-5.542t-4.456-6.008q-2.08-3.114-3.845-6.416t-3.2-6.762q-1.434-3.459-2.52-7.042t-1.818-7.256q-.731-3.673-1.1-7.4t-.367-7.47q0-3.746.367-7.472t1.1-7.4q.731-3.672,1.818-7.255t2.52-7.043q1.433-3.459,3.2-6.762t3.845-6.416q2.081-3.114,4.456-6.008t5.023-5.542q2.649-2.649,5.543-5.023t6.008-4.456q3.113-2.081,6.416-3.846t6.761-3.2q3.461-1.433,7.043-2.52t7.256-1.817q3.672-.73,7.4-1.1T3838.11,5602.834Z" fill="#ba8313"/>
    <circle id="Elipse_41" data-name="Elipse 41" cx="71.597" cy="71.597" r="71.597" transform="translate(3766.514 5607.459)" fill="#fff"/>
    <circle id="Elipse_42" data-name="Elipse 42" cx="65.13" cy="65.13" r="65.13" transform="translate(3772.98 5613.925)" fill="#e6b54a"/>
    <g id="Grupo_974" data-name="Grupo 974">
      <g id="Grupo_952" data-name="Grupo 952">
        <g id="Grupo_951" data-name="Grupo 951">
          <path id="Trazado_985" data-name="Trazado 985" d="M3859.368,5667.438c-3.939-5.614-13.3-15.01-13.3-15.01h-15.919s-9.359,9.4-13.3,15.01-3.83,10.759-3.83,17.859c0,6.121,0,25.151.005,30.281h50.166c0-5.13,0-24.16,0-30.281C3863.2,5678.2,3863.307,5673.05,3859.368,5667.438Z" fill="#f7ec45"/>
        </g>
      </g>
      <g id="Grupo_954" data-name="Grupo 954">
        <g id="Grupo_953" data-name="Grupo 953">
          <rect id="Rectángulo_130" data-name="Rectángulo 130" width="23.877" height="3.821" transform="translate(3825.966 5652.562)" fill="#ba8313"/>
        </g>
      </g>
      <g id="Grupo_963" data-name="Grupo 963">
        <g id="Grupo_956" data-name="Grupo 956">
          <g id="Grupo_955" data-name="Grupo 955">
            <path id="Trazado_986" data-name="Trazado 986" d="M3849.843,5631.952a4.445,4.445,0,0,0-4.432-4.432H3830.4a4.445,4.445,0,0,0-4.432,4.432v20.442h4.428v-17.42a1.23,1.23,0,1,1,2.461,0v17.42h4.064v-17.42a1.231,1.231,0,1,1,2.462,0v17.42h4.064v-17.42a1.231,1.231,0,1,1,2.463,0v17.42h3.935Z" fill="#ffef5f"/>
          </g>
        </g>
        <g id="Grupo_958" data-name="Grupo 958">
          <g id="Grupo_957" data-name="Grupo 957">
            <path id="Trazado_987" data-name="Trazado 987" d="M3831.624,5633.742a1.234,1.234,0,0,0-1.23,1.232v17.42h2.461v-17.42A1.235,1.235,0,0,0,3831.624,5633.742Z" fill="#ba8313"/>
          </g>
        </g>
        <g id="Grupo_960" data-name="Grupo 960">
          <g id="Grupo_959" data-name="Grupo 959">
            <path id="Trazado_988" data-name="Trazado 988" d="M3838.15,5633.742a1.235,1.235,0,0,0-1.231,1.232v17.42h2.462v-17.42A1.235,1.235,0,0,0,3838.15,5633.742Z" fill="#ba8313"/>
          </g>
        </g>
        <g id="Grupo_962" data-name="Grupo 962">
          <g id="Grupo_961" data-name="Grupo 961">
            <path id="Trazado_989" data-name="Trazado 989" d="M3844.677,5633.742a1.236,1.236,0,0,0-1.232,1.232v17.42h2.463v-17.42A1.236,1.236,0,0,0,3844.677,5633.742Z" fill="#ba8313"/>
          </g>
        </g>
      </g>
      <g id="Grupo_969" data-name="Grupo 969">
        <g id="Grupo_966" data-name="Grupo 966">
          <g id="Grupo_964" data-name="Grupo 964">
            <path id="Trazado_990" data-name="Trazado 990" d="M3854.417,5693.041a16.466,16.466,0,1,1-16.467-16.465A16.468,16.468,0,0,1,3854.417,5693.041Z" fill="#ffef5f"/>
          </g>
          <g id="Grupo_965" data-name="Grupo 965">
            <path id="Trazado_991" data-name="Trazado 991" d="M3837.952,5710.319a17.276,17.276,0,1,1,17.276-17.276A17.294,17.294,0,0,1,3837.952,5710.319Zm0-32.934a15.657,15.657,0,1,0,15.656,15.658A15.677,15.677,0,0,0,3837.952,5677.385Z" fill="#ba8313"/>
          </g>
        </g>
        <g id="Grupo_968" data-name="Grupo 968">
          <g id="Grupo_967" data-name="Grupo 967">
            <rect id="Rectángulo_131" data-name="Rectángulo 131" width="33.735" height="1.702" transform="translate(3825.688 5704.667) rotate(-45.002)" fill="#ba8313"/>
          </g>
        </g>
      </g>
      <g id="Grupo_971" data-name="Grupo 971">
        <g id="Grupo_970" data-name="Grupo 970">
          <rect id="Rectángulo_132" data-name="Rectángulo 132" width="50.169" height="4.155" transform="translate(3813.028 5715.578)" fill="#ba8313"/>
        </g>
      </g>
      <g id="Grupo_973" data-name="Grupo 973">
        <g id="Grupo_972" data-name="Grupo 972">
          <rect id="Rectángulo_133" data-name="Rectángulo 133" width="32.135" height="2.68" transform="translate(3821.883 5669.95)" fill="#ba8313"/>
        </g>
      </g>
    </g>
  </g>
</svg>
