<svg xmlns="http://www.w3.org/2000/svg" xmlns:xlink="http://www.w3.org/1999/xlink" width="1440.197" height="368.267" viewBox="0 0 1440.197 368.267">
  <defs>
    <clipPath id="clip-path">
      <rect id="Rectángulo_2882" data-name="Rectángulo 2882" width="1440.197" height="362.129" transform="translate(0 56)" fill="none"/>
    </clipPath>
  </defs>
  <g id="Grupo_6732" data-name="Grupo 6732" transform="translate(0 -56)">
    <g id="Grupo_3405" data-name="Grupo 3405">
      <g id="Grupo_3404" data-name="Grupo 3404" clip-path="url(#clip-path)">
        <g id="Grupo_3403" data-name="Grupo 3403">
          <rect id="Rectángulo_2881" data-name="Rectángulo 2881" width="1954.87" height="378.489" transform="translate(-53.073 47.84)" fill="#7a879e"/>
          <path id="Trazado_25137" data-name="Trazado 25137" d="M-49.242,422.366H1902.1v5.081H-49.242Z" fill="#0f3382" opacity="0.992"/>
          <g id="Grupo_3383" data-name="Grupo 3383">
            <path id="Trazado_4137" data-name="Trazado 4137" d="M566.722,427.447" fill="#00a19a"/>
            <path id="Trazado_4138" data-name="Trazado 4138" d="M1901.8,47.84V423.159H1729.6a157.724,157.724,0,0,1-42.482,0H-49.242V47.84h532.2c36.72,36.71,79.65,60.014,134.2,57.819h.01q4.757-.2,9.635-.651h.01c.051,0,.091-.01.142-.01q3.416-.319,6.911-.782h.01A217.09,217.09,0,0,0,657.683,99.7c20.184-4.98,37.838-7,53.54-6.657a129.523,129.523,0,0,1,45.369,8.8c73.277,28.8,99.711,119.357,209.118,140.527,130,25.164,254.915-12.531,359.017-194.535h477.266c.2-.386.4-.772.589-1.158q.047.594.061,1.158Z" fill="#414651"/>
            <path id="Trazado_4139" data-name="Trazado 4139" d="M281.175,414.977c-6.829-8.3-13.456-17.044-19.91-26.109-15.763-22.085-30.571-46.141-45.053-70.818q-1.83-3.124-3.649-6.26c-9.756-16.729-19.371-33.691-29.056-50.451-6.566-11.372-13.162-22.643-19.849-33.7q-2.607-4.329-5.316-8.425c-27.41-41.792-60.6-66.437-92.719-80.717h-.01q-4.986-2.21-9.919-4.1a222.538,222.538,0,0,0-75.249-14.391,214.937,214.937,0,0,0-29.687,1.443V423.159H288.1C285.759,420.486,283.462,417.752,281.175,414.977Z" fill="#2c3c59"/>
            <path id="Trazado_4140" data-name="Trazado 4140" d="M1901.8,47.84V423.159H1729.6a157.724,157.724,0,0,1-42.482,0H1154.482q16.129-29.912,31.557-64.73c22.055-49.9,43.4-90.748,64.933-123.9q7.744-11.937,15.55-22.552,6.968-9.513,14.025-18.02c1.87-2.266,3.74-4.472,5.631-6.626.549-.641,1.1-1.271,1.656-1.891q4.865-5.487,9.778-10.539c22.308-22.938,45.46-39.118,70.36-49.912,36.689-15.915,77.189-20.143,124.4-17.054q3.658.245,7.378.539c18.01,1.443,36.994,3.892,57.1,7.1q12.547,2.013,25.693,4.4l.681.122q15.641,2.82,29.809,4.553,17.181,2.12,32.309,2.754c21.241.925,39.626-.234,55.644-3.1,2.276-.406,4.492-.843,6.666-1.321h.011a149.37,149.37,0,0,0,28.782-9.259,121.033,121.033,0,0,0,27.136-16.444c14.086-11.322,24.7-25.154,33.437-40.3,1.728-3,3.384-6.057,4.98-9.147.2-.386.4-.772.589-1.158q.047.594.061,1.158Z" fill="#2c3c59"/>
          </g>
          <g id="Grupo_3402" data-name="Grupo 3402">
            <g id="Grupo_3387" data-name="Grupo 3387">
              <g id="Grupo_3384" data-name="Grupo 3384">
                <path id="Trazado_4141" data-name="Trazado 4141" d="M1568.8,239.041c-12.48,17.877-.6,16.119,17.135,11.952,26.984-6.342,67.525-18.253,56.386,25.032-6.22,24.148-20.784,41.974-37.38,55.014h-.01q-3.126,2.454-6.332,4.675a175.217,175.217,0,0,1-38.631,19.879c-5.65,2.1-10.793,3.72-15.092,4.95-3.791,1.077-6.931,1.85-9.2,2.358-.376.081-.752.172-1.128.264-.355.091-.7.183-1.046.274-2.176.569-4.32,1.261-6.444,1.982-21.109,7.226-44.474,8.446-65.645,5.7-1.961-.254-3.9-.549-5.823-.864a146.737,146.737,0,0,1-23.447-5.895c-23.314-8.039-39.189-21.1-37.858-34.677a2.113,2.113,0,0,1,.021-.264c1.412-12.409,7.439-15.611,14.9-16.434,1.24-.132,2.531-.193,3.842-.234,5.081-.122,10.529.264,15.489-.681a22.53,22.53,0,0,0,2.479-.609,16.464,16.464,0,0,0,9.442-7.044c4.624-7.114-2.52-13.313-13.761-20.072-3.395-2.043-7.165-4.147-11.1-6.332a2.235,2.235,0,0,0-.265-.142v-.01c-1.87-1.037-3.78-2.1-5.691-3.191-2.338-1.332-4.695-2.694-7.023-4.106s-4.655-2.877-6.9-4.391c-9.4-6.342-17.663-13.629-21.759-22.461a28.9,28.9,0,0,1-1.636-4.339c-6.393-22.085,38.569-17.166,55.531-17.1s46.04-24.3-8.963-56.975c-22.39-13.3-39.505-27.227-50.918-40.318-16.638-19.056-21.181-36.323-12.267-47.249,15.031-18.415,71.966,32.746,95.737,27.766,12.765-2.673,7.491-28.253-1.514-57.666h42.98c.224,1.443.478,2.836.783,4.177,4.472,19.7,20.957,17.4,34.921-4.177h57.717c-5.112,19.381-16.536,40.389-27.37,63-.813,1.7-1.514,3.283-2.114,4.736-9.929,24.382,9.767,16.211,26.374,4.523a130.342,130.342,0,0,0,10.692-8.375,55.183,55.183,0,0,1,11.342-7.429c19.473-9.808,47.92-12.46,40.084,23.111a97.455,97.455,0,0,1-3.466,11.82,195.028,195.028,0,0,1-10.3,24.148,121.634,121.634,0,0,1-10.631,17.135c-14.076,18.873-29.687,27.583-49.475,54.79C1570.586,236.511,1569.692,237.761,1568.8,239.041Z" fill="#141a23"/>
                <path id="Trazado_4142" data-name="Trazado 4142" d="M1549.223,423.159h-11.332q-.213-6.663-.518-13.426-.977-22.761-2.826-46.568c-.081-1.006-.152-2-.244-3.019v-.01q-2.439-30.6-6.423-62.92a1597.693,1597.693,0,0,0-35.51-189.281q-7.349-29.529-16.1-60.095h5.5c5.783,17.887,11.891,38.163,17.979,60.634a1476.857,1476.857,0,0,1,45.125,252.069q2.164,23.873,3.628,48.773v.01Q1548.882,416.2,1549.223,423.159Z" fill="#270b02"/>
              </g>
              <g id="Grupo_3385" data-name="Grupo 3385">
                <path id="Trazado_4143" data-name="Trazado 4143" d="M1820.958,321.922c-7.806,16.363-27.929,24.341-50.593,33.031-3.73,1.423-7.531,2.876-11.363,4.38-1.727.681-3.221,1.342-4.512,1.982-18.975,9.462,6.992,15.082,22.41,15.54a45.344,45.344,0,0,1,19.229,5.661c4.34,2.439,7.948,5.579,9.543,9.228a10.375,10.375,0,0,1-.62,9.564c-.01,0-.01.01-.01.02a21.537,21.537,0,0,1-4.187,5.183l-.021.02a55.369,55.369,0,0,1-12.165,8.162c-1.352.7-2.673,1.372-3.954,1.992l-.01.01a122.452,122.452,0,0,1-15.59,6.464H1729.6a157.724,157.724,0,0,1-42.482,0H1565.83c-4.564-11-5.529-20.876-1.748-26.892l.01-.011a11.415,11.415,0,0,1,2.3-2.693,21.056,21.056,0,0,1,3.445-2.47c10.56-5.986,15.814,6.546,24.341,10.865v.01a11.811,11.811,0,0,0,8.568,1.017c2.917-.732,4.207-2.755,4.441-5.7,1.077-12.826-17.664-43.245-8.588-61.569.02-.03.03-.071.051-.1,1.565-3.1,3.73-4.451,6.281-4.573h.01c9.5-.478,24.148,16.149,31.14,22.715a18.28,18.28,0,0,0,15.387,4.268c8.6-1.87,15.469-11.85,7.612-38.518-.487-1.667-.955-3.3-1.382-4.93-11.128-41.323-5.376-69.608,10.824-71.833a7.014,7.014,0,0,1,2.358.061c2.815.508,5.285,2.7,7.531,5.965,9.716,14.107,15.306,48.316,26.811,55.268,10.041,6.068,22.735-20.733,34.565-46.7v-.01c4.146-9.1,8.191-18.091,11.972-25.53l.01-.01c1.413-2.795,2.8-5.367,4.137-7.643,8.71-14.808,19.249-18.457,26.262-13.385,5.152,3.71,8.394,12.094,7.632,24.2-1.006,15.976-9.482,28.538-18.314,39.209-6.972,8.426-14.178,15.662-18.1,22.451-8.882,15.377,7.877,22.186,33.722,9.94,1.148-.549,2.276-1.047,3.394-1.5,9.127-3.812,16.993-4.909,22.746-3.791C1822.563,303.07,1826.334,310.662,1820.958,321.922Z" fill="#00662b"/>
                <path id="Trazado_4144" data-name="Trazado 4144" d="M1775.558,224.1c-.457,1.413-6.453,19.676-19.544,49.3a1008.736,1008.736,0,0,1-81.2,147.449c-.508.762-1.016,1.534-1.524,2.307h-8.029q1.4-2.043,2.8-4.1h.01a1199.9,1199.9,0,0,0,84.985-146.747Q1764.48,249.021,1775.558,224.1Z" fill="#270b02"/>
              </g>
              <g id="Grupo_3386" data-name="Grupo 3386">
                <path id="Trazado_4145" data-name="Trazado 4145" d="M1385.6,334.408a43.272,43.272,0,0,0-4.166,2.1c-8.235,4.8-42.946,22.877-71.238,4.719-32.328-20.756,42.816-34.107,14.929-40.121s-34.81,2.577-63.026-12.1-3.4-27.1,8.549-27.46,32.63-4.978,12.989-12.714-38.372-13.318-44.966-27.147,5.811-20.049,24.57-11.156,30.923,3.947,24.474-7.209-25.112-24-26.425-44.748,13.642-26.483,24.6-7.846,25.975,64.5,36.78,57.981,14.417-46.172,26.635-44.488,16.25,23.786,6.85,55.71,10.255,30.9,16.688,24.86,21.81-23.837,27.166-13.173c8.2,16.338-14.31,46.058-2.974,48.895s14.479-17.06,26.383-6.838C1435.018,283.631,1415.278,321.144,1385.6,334.408Z" fill="#141a23"/>
                <path id="Trazado_4146" data-name="Trazado 4146" d="M1464.319,423.159h-11.383a748.273,748.273,0,0,1-63.957-69.4q-6.1-7.5-11.81-14.92c-46.73-60.573-75.513-116.613-90.991-151.5-10.163-22.908-14.584-36.7-14.584-36.7q7.973,17.989,16.24,34.809c29.819,60.766,62.149,110.4,94.122,150.772q8.477,10.717,16.922,20.57A638.52,638.52,0,0,0,1464.319,423.159Z" fill="#070a0f"/>
              </g>
            </g>
            <g id="Grupo_3391" data-name="Grupo 3391">
              <g id="Grupo_3388" data-name="Grupo 3388">
                <path id="Trazado_4147" data-name="Trazado 4147" d="M179.817,179.149a96.481,96.481,0,0,1-21.475,40.064,120.017,120.017,0,0,1-15.885,14.94.037.037,0,0,0-.03.01c-2.074,1.636-4.188,3.191-6.322,4.675-19.462,13.558-40.531,21.079-53.723,24.839-3.791,1.077-6.931,1.85-9.2,2.358-.376.081-.752.173-1.128.264-2.53.62-5.02,1.4-7.49,2.246-39.891,13.66-87.81,5.864-113.808-9.635V215.889c9.777-.233,20.9,1.372,27.207-8.333,4.624-7.115-2.52-13.314-13.761-20.073-4.065-2.449-8.669-4.97-13.446-7.643V125c5.671.143,10.824.4,14.6.407a25.823,25.823,0,0,0,15.082-5.4C-7.959,111.076-4.1,91.9-43.6,68.431Q-46.482,66.724-49.242,65V47.84H177.337c-19.96,52.117-40.6,50.7-71.03,94.325C74.831,187.27,198.284,107.427,179.817,179.149Z" fill="#141a23"/>
                <path id="Trazado_4148" data-name="Trazado 4148" d="M88.165,423.159H75.044q.549-13.188.834-26.852.168-7.775.234-15.7c.284-35.8-.915-73.917-4.056-114.306-3.232-41.6-8.527-85.6-16.362-131.9Q48.6,92.387,38.609,47.84h7.978C53.315,75.525,59.82,105.852,65.613,138.5h.01c6.84,38.631,12.694,80.513,16.759,125.181A1457.851,1457.851,0,0,1,88.165,423.159Z" fill="#070a0f"/>
              </g>
              <g id="Grupo_3389" data-name="Grupo 3389">
                <path id="Trazado_4149" data-name="Trazado 4149" d="M156.01,380.378a59.81,59.81,0,0,1,5.743,2.883c11.347,6.621,59.173,31.526,98.156,6.506,44.548-28.6-59-47-20.57-55.286s47.967,3.551,86.843-16.666,4.683-37.349-11.777-37.834-44.962-6.861-17.9-17.525,52.873-18.346,61.963-37.406-8.007-27.624-33.857-15.372-42.609,5.441-33.726-9.931,34.6-33.065,36.412-61.662S308.5,101.6,293.4,127.276s-35.8,88.881-50.68,79.894-19.869-63.622-36.7-61.3-22.391,32.779-9.437,76.767-14.134,42.576-23,34.252-30.048-32.843-37.431-18.147c-11.307,22.511,19.721,63.464,4.1,67.374S120.3,282.6,103.9,296.685C87.911,310.411,115.109,362.1,156.01,380.378Z" fill="#141a23"/>
                <path id="Trazado_4150" data-name="Trazado 4150" d="M313.078,127.174c-.61,1.9-27.573,84.66-96.866,190.876-14.32,21.973-30.47,44.942-48.57,68.419q-14.01,18.173-29.626,36.69H127.294q16.753-18.934,33.731-40.308c17.186-21.7,34.444-45.328,51.538-71.061C247.4,259.378,281.561,198.266,313.078,127.174Z" fill="#070a0f"/>
              </g>
              <g id="Grupo_3390" data-name="Grupo 3390">
                <path id="Trazado_4151" data-name="Trazado 4151" d="M-35.8,187.483c-.691,7.988-5.63,18.487-13.446,28.142V174.962c2.785-1.626,5.915-1.809,10.163,1.84C-36.4,179.1-35.389,182.869-35.8,187.483Z" fill="#00662b"/>
                <path id="Trazado_4152" data-name="Trazado 4152" d="M82.362,384.244a52.723,52.723,0,0,0-2.643,14.726c-1.29-.884-2.571-1.768-3.841-2.663A727.345,727.345,0,0,1-49.242,285.325v-9.137c48.316,53,93.563,85.554,125.354,104.417Q79.328,382.526,82.362,384.244Z" fill="#070a0f"/>
              </g>
            </g>
            <g id="Grupo_3396" data-name="Grupo 3396">
              <g id="Grupo_3392" data-name="Grupo 3392">
                <path id="Trazado_4153" data-name="Trazado 4153" d="M572.688,423.159c6.85-5.306,12.6-11.271,15.8-18.172a29.024,29.024,0,0,0,1.637-4.34c6.392-22.075-38.57-17.166-55.532-17.1s-46.04-24.3,8.964-56.975,78.216-69.15,63.185-87.566c-12.715-15.57-55.38,18.6-82.617,26.516h-.011a37.879,37.879,0,0,1-7.815,1.524s-.01.01-.01,0a19.076,19.076,0,0,1-5.285-.274c-23.762-4.98,15.031-89.4,23.944-130.059S515.286,84.489,490,115.477s-15.742,73.612-21.241,97.811-29.117,15.194-43.946-21.973-40.459-44.688-49.24-16.526,10.336,60.634,27.918,97.334-17.633,16.068-34.941.874c-14.849-13.019-54.658-25.947-52.7,7.063.326,5.478,1.809,12.226,4.736,20.449,2.226,6.23,4.452,11.758,6.708,16.708,18.548,40.937,38.285,42.868,66.356,83.1,29.026,41.578-73.673-23.061-75.371,22.837H572.688Z" fill="#141a23"/>
                <path id="Trazado_4154" data-name="Trazado 4154" d="M439.407,423.159h-9.513c29.382-185.022,83.857-302.814,85.016-305.3A1805.817,1805.817,0,0,0,460.282,310.8v.01c-.874,3.862-1.707,7.714-2.541,11.556Q446.521,374.522,439.407,423.159Z" fill="#070a0f"/>
              </g>
              <g id="Grupo_3393" data-name="Grupo 3393">
                <path id="Trazado_4155" data-name="Trazado 4155" d="M214.291,400.413c3.364,7.074,6.88,14.961,10.458,22.746H181.931c-4.909-7.836-8.618-16.678-9.269-26.923a51.008,51.008,0,0,1,.041-7.287v-.01c1.87-22.461,20.123-26.862,33.854-3.517C209.006,389.589,211.6,394.742,214.291,400.413Z" fill="#141a23"/>
                <path id="Trazado_4156" data-name="Trazado 4156" d="M309.2,423.159H277.567c1.159-2.938,2.348-5.712,3.608-8.182,3.557-7.033,7.6-11.677,12.765-10.966C301.573,405.058,306.878,411.9,309.2,423.159Z" fill="#141a23"/>
                <path id="Trazado_4157" data-name="Trazado 4157" d="M191.729,396.135q6.234,13.766,12.612,27.024h-2.886c-4.919-11.627-8.507-20.906-10.9-27.37-2.378-6.444-3.567-10.082-3.689-10.468Q189.295,390.763,191.729,396.135Z" fill="#070a0f"/>
              </g>
              <g id="Grupo_3394" data-name="Grupo 3394">
                <path id="Trazado_4158" data-name="Trazado 4158" d="M565.36,423.159c-3.252-9.981-7.125-21.882-2.917-30.267,5.072-10.082,19.1,5.3,26.048,12.1.4.386.773.752,1.118,1.077,6.434,6.037,26.089,7.063,16.688-24.859s-5.366-54.028,6.85-55.715,15.835,37.97,26.638,44.494S665.61,330.632,676.566,312s25.916-12.907,24.6,7.846-19.981,33.59-26.424,44.749,5.722,16.1,24.483,7.206,31.161-2.673,24.565,11.159-25.327,19.412-44.973,27.146,1.047,12.369,13,12.714a23.282,23.282,0,0,1,3.2.336H565.36Z" fill="#141a23"/>
                <path id="Trazado_4159" data-name="Trazado 4159" d="M690.846,311.932c-.468,1.443-15.621,47.848-53.286,111.227h-5.082A920.084,920.084,0,0,0,690.846,311.932Z" fill="#070a0f"/>
              </g>
              <g id="Grupo_3395" data-name="Grupo 3395">
                <path id="Trazado_4160" data-name="Trazado 4160" d="M554.268,221.56a27.136,27.136,0,0,1,2.673,1.344c5.284,3.081,27.551,14.677,45.7,3.028,20.742-13.318-27.47-21.882-9.578-25.742s22.332,1.653,40.434-7.758,2.18-17.388-5.485-17.617-20.933-3.2-8.333-8.155,24.618-8.546,28.85-17.419-3.729-12.859-15.763-7.159-19.839,2.536-15.7-4.62,16.108-15.4,16.952-28.712-8.751-16.987-15.78-5.032-16.666,41.384-23.6,37.2-9.251-29.617-17.088-28.541-10.425,15.261-4.395,35.742-6.58,19.823-10.708,15.948-13.989-15.291-17.427-8.449c-5.264,10.48,9.182,29.548,1.909,31.369s-9.29-10.946-16.928-4.39C522.561,188.984,535.225,213.05,554.268,221.56Z" fill="#141a23"/>
                <path id="Trazado_4161" data-name="Trazado 4161" d="M452.094,315.677C491.487,293.23,569.157,235.05,627.4,103.657c0,0-41.967,130.858-173.607,221.465A34.052,34.052,0,0,0,452.094,315.677Z" fill="#070a0f"/>
              </g>
            </g>
            <g id="Grupo_3401" data-name="Grupo 3401">
              <g id="Grupo_3397" data-name="Grupo 3397">
                <path id="Trazado_4162" data-name="Trazado 4162" d="M1818.02,291.5a28.907,28.907,0,0,1-1.636,4.34,35.072,35.072,0,0,1-3.14,5.417c-4.523,6.463-11.221,12.053-18.63,17.043-4.482,3.029-9.238,5.844-13.913,8.5-6.047,3.435-11.972,6.616-17.064,9.675v.01c-11.23,6.759-18.375,12.948-13.751,20.063a16.686,16.686,0,0,0,4.6,4.766c6.413,4.381,15.042,3.374,22.806,3.568,9.157.243,17.095,2.174,18.751,16.667a2.317,2.317,0,0,1,.021.275c.03.233.051.457.061.691,1,18.375-29.291,35.642-66.529,40.643a157.724,157.724,0,0,1-42.482,0c-4.137-.58-8.253-1.342-12.308-2.307-2.266-.529-4.523-1.118-6.748-1.789h-.01q-2.409-.7-4.767-1.515c-2.47-.843-4.96-1.626-7.49-2.256-.376-.091-.752-.183-1.128-.264-2.267-.508-5.407-1.281-9.2-2.358a194.543,194.543,0,0,1-38.285-15.387,155.606,155.606,0,0,1-15.448-9.452c-2.124-1.484-4.238-3.039-6.312-4.665h-.01a112.026,112.026,0,0,1-25.449-27.573,94.956,94.956,0,0,1-11.931-27.44c-18.467-71.723,104.986,8.12,73.511-36.984-13.548-19.412-25.144-29.911-35.613-40.176A164.925,164.925,0,0,1,1571.46,235.3c-8.029-10.133-15.539-23.07-22.979-43.946-20.611-57.737,30.652-42.685,47.95-27.5,6.83,5.986,16.444,12.836,24.5,16.657,12.307,5.854,20.987,4.706,10.631-17.135-.051-.132-.122-.264-.183-.4-6.383-13.335-12.979-26.11-18.355-38.326a185.347,185.347,0,0,1-7.775-20.357c-4.187-13.67-5.559-26.557-1.789-38.651,8.781-28.172,34.413-20.652,49.241,16.526s38.448,46.181,43.946,21.973c3.262-14.371,1.23-35.236,4.33-56.3H1757.3c-6.311,20.479-15.275,45.125-20.855,65.888-6.25,23.264-8.252,41.66,2.459,43.906a19.079,19.079,0,0,0,5.285.274,37.985,37.985,0,0,0,7.826-1.524c27.248-7.918,69.923-42.086,82.627-26.516,14.015,17.176-5.224,50.033-52.472,80.889q-5.139,3.369-10.713,6.677a112.242,112.242,0,0,0-19.686,14.351l-.01.01c-10.478,9.9-13.293,18.609-11.972,25.53v.01c1.362,7.074,7.043,12.277,13.263,14.981a26.143,26.143,0,0,0,2.967,1.087,22.241,22.241,0,0,0,6.474,1.006c2.48-.01,5.56-.122,8.995-.244C1791.505,273.474,1823.478,272.651,1818.02,291.5Z" fill="#00662b"/>
                <path id="Trazado_4163" data-name="Trazado 4163" d="M1729.875,47.84q-12.227,38.326-22.217,75.147h-.011q-10.961,40.262-19.472,78.674v.01q-1.311,5.808-2.541,11.556-3.872,17.988-7.226,35.54A1500.324,1500.324,0,0,0,1655.8,415.292q-.306,3.949-.58,7.867h-10.651q.428-5.275.905-10.489,2.561-28.082,6-54.648,2.852-22.287,6.23-43.448c3.994-25.215,8.456-49.179,13.182-71.772,9.482-45.328,20.052-85.148,30.1-118.494,9.512-31.567,18.568-57.341,25.8-76.468Z" fill="#270b02"/>
              </g>
              <g id="Grupo_3398" data-name="Grupo 3398">
                <path id="Trazado_4164" data-name="Trazado 4164" d="M1594.175,401.958v.01c-.356,6.85-2.307,14.2-4.472,21.191H1440.212c4.248-2.927,3.374-6.871-8.872-11.7-27.055-10.662-52.87-18.345-61.956-37.411-7.287-15.265,2.236-23.8,19.595-20.3a57.608,57.608,0,0,1,9.9,3.028c1.423.57,2.876,1.2,4.36,1.9,12.277,5.813,22.5,7.338,28.9,5.681,7.084-1.829,9.483-7.541,4.818-15.611-5.509-9.533-17.471-19.95-26.211-33.294-.529-.813-1.047-1.637-1.545-2.47-4.6-7.582-8.029-16.109-8.649-25.906a51.738,51.738,0,0,1-.02-6.393,33.1,33.1,0,0,1,2.083-10.122c5.478-13.934,20.266-13.955,31.831,5.711,15.093,25.673,35.8,88.878,50.674,79.894s19.87-63.622,36.71-61.3a13.834,13.834,0,0,1,6.047,2.348c10.692,7.378,13.975,30.652,6.423,62.92v.01c-.254,1.088-.518,2.186-.8,3.293q-1.007,4.01-2.237,8.192c-7.388,25.093-1.748,35.419,6.109,38.1a16.855,16.855,0,0,0,11.128-.407v-.01a16.843,16.843,0,0,0,5.763-3.425c2.49-2.348,5.956-5.955,9.818-9.624l.01-.011c1.849-1.758,3.78-3.526,5.742-5.163,5.437-4.553,11.088-8.161,15.58-7.927h.01c2.541.112,4.716,1.474,6.271,4.574a.365.365,0,0,1,.041.091A28.092,28.092,0,0,1,1594.175,401.958Z" fill="#141a23"/>
                <path id="Trazado_4165" data-name="Trazado 4165" d="M1461.412,371.123q14.758,27.212,29.931,52.036h-6.85c-11.078-18.945-20.672-36.72-28.9-52.9-11.667-22.989-20.581-42.767-27.054-58.185-2.236-5.325-4.178-10.132-5.844-14.371-3.944-10.01-6.332-16.83-7.359-19.828v-.01c-.325-.976-.518-1.545-.559-1.687.275.61.549,1.229.824,1.839q3.963,8.934,8.008,17.654,3.675,7.988,7.409,15.794Q1445.909,342.656,1461.412,371.123Z" fill="#070a0f"/>
              </g>
              <g id="Grupo_3399" data-name="Grupo 3399">
                <path id="Trazado_4166" data-name="Trazado 4166" d="M1901.8,239.011V207.738c-10.641,20.662-24.168,59.11-34.118,53.1-10.8-6.524-14.411-46.181-26.638-44.494s-16.251,23.792-6.85,55.715-10.255,30.9-16.688,24.859c-.345-.325-.721-.691-1.118-1.077-6.952-6.81-20.977-22.187-26.048-12.1-3,5.966-1.891,13.721.162,21.3,1.261,4.634,2.866,9.2,4.116,13.252,2.3,7.46,3.365,13.172-1.3,14.341-5.478,1.372-9.046-2.572-12.613-5.844-3.811-3.517-7.622-6.281-13.771-1-2.683,2.3-3.689,6.067-3.293,10.671v.01c.467,5.367,2.846,11.851,6.728,18.467a79.583,79.583,0,0,0,6.931,9.93,81.181,81.181,0,0,0,18.772,16.942,66.342,66.342,0,0,0,8.679,4.715c1.24.549,2.46,1.139,3.639,1.8.183.092.355.193.528.3,1.027.6,2.47,1.4,4.259,2.327,12.541,6.424,42.228,18.284,66.975,2.389,32.33-20.754-42.807-34.108-14.929-40.115,16.677-3.6,25.855-1.971,36.577-3.221V310.306c-3.679-1.728-4.817-4.1,0-7v-39.26c-1.169-1.728-1.25-4.1,0-6.952v-18.08Z" fill="#00662b"/>
                <path id="Trazado_4167" data-name="Trazado 4167" d="M1901.8,239.011c-29.616,60.1-61.691,109.285-93.41,149.328-.905,1.149-1.809,2.277-2.714,3.4q-10.519,13.127-20.957,24.941l-.01.01c-1.921,2.185-3.852,4.339-5.772,6.464h7.978q7.18-8.34,13.923-16.627l.021-.021c1.4-1.728,2.805-3.465,4.187-5.183,0-.01,0-.02.01-.02q4.148-5.2,8.121-10.347A753.311,753.311,0,0,0,1901.8,244.733Z" fill="#270b02"/>
              </g>
              <g id="Grupo_3400" data-name="Grupo 3400">
                <path id="Trazado_4168" data-name="Trazado 4168" d="M1772.357,47.84c-3.527,10.692,9.442,28.254,2.47,30-7.277,1.809-9.29-10.946-16.932-4.39-4.533,3.892-1.606,14.34,5.681,23.832a49.877,49.877,0,0,0,18.589,15.133c.782.356,1.565.722,2.327,1.149.112.061.234.122.345.193.661.386,1.586.9,2.734,1.494,8.05,4.126,27.075,11.728,42.96,1.535,20.744-13.314-27.471-21.882-9.573-25.744s22.328,1.657,40.429-7.754,2.185-17.39-5.478-17.624-20.936-3.191-8.334-8.15c8.121-3.212,16.007-5.834,21.719-9.676h-66.651c.173,6.251-2.571,8.73-5.63,9.147a8.567,8.567,0,0,1-6.667-2.073c-1.768-1.657-4.574-4.675-7.48-7.074Z" fill="#00662b"/>
                <path id="Trazado_4169" data-name="Trazado 4169" d="M1831.314,47.84a493.8,493.8,0,0,1-43.743,67.413,486.536,486.536,0,0,1-35.561,41.131,464.169,464.169,0,0,1-66.376,56.843c-1.3.924-2.622,1.839-3.943,2.754a34.146,34.146,0,0,0-1.708-9.452q3.858-2.195,8.192-4.858v-.01a342.824,342.824,0,0,0,56.009-43.753,427.749,427.749,0,0,0,40.308-44.342,512.29,512.29,0,0,0,44.037-65.726Z" fill="#270b02"/>
              </g>
            </g>
          </g>
        </g>
      </g>
    </g>
    <rect id="Rectángulo_568" data-name="Rectángulo 568" width="1440" height="6.138" transform="translate(0 418.129)" fill="#131821"/>
  </g>
</svg>
